<svg width="16" height="19" viewBox="0 0 16 19" fill="none" xmlns="http://www.w3.org/2000/svg">
<path d="M15 8.38696C15 13.8314 8 18.4981 8 18.4981C8 18.4981 1 13.8314 1 8.38696C1 6.53045 1.7375 4.74997 3.05025 3.43722C4.36301 2.12446 6.14348 1.38696 8 1.38696C9.85652 1.38696 11.637 2.12446 12.9497 3.43722C14.2625 4.74997 15 6.53045 15 8.38696Z" stroke="black" stroke-opacity="0.6" stroke-linecap="round" stroke-linejoin="round"/>
<path d="M8 10.7203C9.28866 10.7203 10.3333 9.67563 10.3333 8.38696C10.3333 7.0983 9.28866 6.05363 8 6.05363C6.71134 6.05363 5.66667 7.0983 5.66667 8.38696C5.66667 9.67563 6.71134 10.7203 8 10.7203Z" stroke="black" stroke-opacity="0.6" stroke-linecap="round" stroke-linejoin="round"/>
</svg>
