<svg width="19" height="19" viewBox="0 0 19 19" fill="none" xmlns="http://www.w3.org/2000/svg">
<path d="M10 4.84263C10 4.56648 9.77614 4.34263 9.5 4.34263C9.22386 4.34263 9 4.56648 9 4.84263H10ZM9.5 9.94263H9C9 10.132 9.107 10.3051 9.27639 10.3898L9.5 9.94263ZM12.6764 12.0898C12.9234 12.2133 13.2237 12.1132 13.3472 11.8662C13.4707 11.6192 13.3706 11.3189 13.1236 11.1954L12.6764 12.0898ZM17.5 9.94263C17.5 14.3609 13.9183 17.9426 9.5 17.9426V18.9426C14.4706 18.9426 18.5 14.9132 18.5 9.94263H17.5ZM9.5 17.9426C5.08172 17.9426 1.5 14.3609 1.5 9.94263H0.5C0.5 14.9132 4.52944 18.9426 9.5 18.9426V17.9426ZM1.5 9.94263C1.5 5.52435 5.08172 1.94263 9.5 1.94263V0.942627C4.52944 0.942627 0.5 4.97206 0.5 9.94263H1.5ZM9.5 1.94263C13.9183 1.94263 17.5 5.52435 17.5 9.94263H18.5C18.5 4.97206 14.4706 0.942627 9.5 0.942627V1.94263ZM9 4.84263V9.94263H10V4.84263H9ZM9.27639 10.3898L12.6764 12.0898L13.1236 11.1954L9.72361 9.49541L9.27639 10.3898Z" fill="black" fill-opacity="0.6"/>
</svg>
