<svg width="119" height="34" viewBox="0 0 119 34" fill="none" xmlns="http://www.w3.org/2000/svg">
    <g clip-path="url(#clip0_3409_10964)">
    <path d="M10.0698 0.354858H10.2889L11.457 1.01193C11.457 1.21009 11.53 1.30395 11.676 1.30395L11.9784 1.37697C12.2682 1.33009 12.5611 1.30568 12.8545 1.30395L13.2926 1.888C12.7507 3.87314 12.4015 5.90587 12.2496 7.95801C12.2867 8.02614 12.3114 8.10028 12.3226 8.17703C12.2183 8.17703 12.1766 8.23959 12.1766 8.32302L12.3226 8.39604L12.2496 8.54207V8.83409C12.2496 9.32428 12.1766 9.56414 12.0201 9.56414V9.71017H12.1766C12.1617 9.94446 12.0862 10.1709 11.9576 10.3672L12.1036 10.4402C12.0556 10.8587 11.9789 11.2734 11.8741 11.6813C11.9263 11.6813 11.9576 11.6813 11.9576 11.7544C11.9576 11.8274 11.8116 11.8274 11.8116 11.9734C11.8116 12.1194 11.8116 12.1611 11.8741 12.4114C11.8384 12.5519 11.7623 12.6788 11.6551 12.7765C11.6533 12.7865 11.6538 12.7968 11.6569 12.8065C11.6599 12.8162 11.6652 12.825 11.6724 12.8322C11.6796 12.8394 11.6884 12.8447 11.6981 12.8477C11.7078 12.8507 11.7181 12.8513 11.7281 12.8495C11.7281 13.1937 11.6447 13.3605 11.5821 13.3605L11.4361 13.2875H11.3631V13.3605H11.5091C11.4152 13.9446 11.2901 14.2366 11.1441 14.2366C11.119 14.446 11.0439 14.6464 10.9251 14.8206C10.5809 14.8206 10.3827 14.7477 10.341 14.6016L10.195 14.6747C9.86123 14.6747 9.5692 14.2887 9.31889 13.5065V12.4636C9.29495 12.0685 9.34448 11.6725 9.46492 11.2955C9.46492 11.2433 9.46491 11.2224 9.39191 11.2224C9.39191 10.5445 9.51707 10.1795 9.75695 10.1795L9.61092 9.96047C9.67822 9.92154 9.75276 9.8967 9.82996 9.88746V9.74146L9.68393 9.52245C9.70935 9.33542 9.78504 9.15877 9.90294 9.01138C9.90294 8.8445 9.82996 8.74021 9.82996 8.71935C10.0583 8.1337 10.2056 7.51965 10.268 6.89418C9.86059 7.12892 9.49134 7.42433 9.1729 7.77026C9.03731 7.77026 8.79742 7.93715 8.44281 8.28133V8.20831C8.37469 8.24538 8.30054 8.27011 8.2238 8.28133V8.35431L8.29682 8.50034C8.17166 8.50034 8.09863 8.5942 8.07777 8.79237H8.00479V8.57335L6.83665 9.37642V9.44943H6.98268C6.98268 9.39729 6.98269 9.37642 7.0557 9.37642V9.52245L5.88759 10.6906L5.74156 10.6175L5.66855 10.7636H5.81458C5.42868 11.1077 5.23052 11.3476 5.23052 11.4936V11.5666H5.30354C5.30354 11.4206 5.30352 11.3476 5.44953 11.3476H5.52255V11.4936H5.59556C6.17962 10.92 6.47164 10.5862 6.47164 10.4507H6.69065C6.13789 11.2329 5.69984 11.6188 5.37652 11.6188C5.0532 11.6188 4.89678 11.8587 4.64647 12.3488C4.63648 12.347 4.62617 12.3476 4.61646 12.3506C4.60674 12.3536 4.5979 12.3589 4.59071 12.3661C4.58352 12.3733 4.57818 12.3821 4.57517 12.3918C4.57217 12.4016 4.57159 12.4119 4.57346 12.4219V12.4948H4.64647C4.64647 12.4948 4.80289 12.3801 5.01148 12.1298H5.08449C4.83295 12.3663 4.65543 12.6706 4.57346 13.0059C4.34401 13.0059 4.07285 13.2041 3.77039 13.59C3.86426 13.59 3.91639 13.663 3.91639 13.809L4.20841 13.59L4.28143 13.736C4.21885 13.736 4.02069 13.9341 3.69738 14.32H3.9894L3.40535 14.9771L3.47836 15.1231C3.36363 15.3033 3.28891 15.506 3.25932 15.7176L3.40535 15.6342H3.47836C3.31149 16.0826 3.19676 16.3017 3.11332 16.3017V17.1777C3.11332 17.2716 3.16546 17.3237 3.25932 17.3237H3.33234L3.25932 17.1777V17.1047H3.40535C3.40535 17.2925 3.47835 17.3967 3.62436 17.3967V17.5428L3.55135 17.6888C3.73908 17.6888 3.84337 17.6888 3.84337 17.8348L3.77039 17.9808C3.77039 18.3354 4.32314 18.6483 5.44953 18.9299C7.68647 19.0734 9.86173 19.7224 11.8116 20.8281C12.1022 21.0588 12.3286 21.3605 12.4686 21.7042C12.6355 21.7042 12.7294 21.871 12.7607 22.2152C12.6564 22.2152 12.6146 22.2778 12.6146 22.3612L12.9067 22.7263H12.8336L12.6877 22.6533L12.4686 23.0183L12.6146 23.0913C12.6966 23.0576 12.7711 23.008 12.8336 22.9453V23.0183C12.833 23.1201 12.808 23.2202 12.7607 23.3103C12.7948 23.3797 12.8193 23.4534 12.8336 23.5293L12.7189 23.6232L12.6459 23.4772C12.683 23.409 12.7077 23.3349 12.7189 23.2582L12.5729 23.1851C12.5643 23.3416 12.5139 23.4929 12.4269 23.6232L12.2809 23.5502H12.2079C12.2268 23.633 12.2731 23.7069 12.3394 23.7599C12.4057 23.813 12.488 23.842 12.5729 23.8422C12.5729 24.0404 12.26 24.2594 11.6864 24.4993C11.7254 24.5666 11.7502 24.6411 11.7594 24.7183L11.6134 24.7913L11.6864 24.9373V25.0103L11.3214 25.3754H11.3944C11.6252 25.1389 11.8727 24.9193 12.1349 24.7183H12.2079V24.7913L11.6864 25.3023C11.7254 25.3696 11.7502 25.4442 11.7594 25.5214L11.6134 25.5944L11.4674 25.5214L11.3214 25.5944C11.2313 25.5471 11.1311 25.522 11.0294 25.5214L10.8833 25.8134H10.9563C11.0656 25.738 11.1903 25.6881 11.3214 25.6674L11.3944 25.8134V25.8864C11.0885 26.2549 10.8694 26.4531 10.7373 26.4809C10.6714 26.4391 10.5962 26.414 10.5183 26.4079L10.4453 26.5539L10.5183 26.6999C10.275 26.6999 9.98291 26.992 9.64221 27.576C9.37905 27.8817 9.05607 28.1301 8.69314 28.3061L8.03608 28.9631C8.03608 29.0018 8.05144 29.039 8.07882 29.0664C8.10621 29.0938 8.14335 29.1092 8.18207 29.1092C8.24805 29.0674 8.32323 29.0423 8.40109 29.0361V29.1821C8.40109 29.2586 8.32809 29.3316 8.18207 29.4012L8.03608 29.3282L7.59802 29.6932V29.6202C7.47287 29.6202 7.25384 29.8183 6.94095 30.2042L6.79496 30.1312H6.72194V30.2042C6.76374 30.2702 6.78881 30.3454 6.79496 30.4233C6.74809 30.5013 6.68448 30.568 6.60873 30.6185C6.53298 30.669 6.44697 30.702 6.3569 30.7153V30.6423L6.50293 30.4233V30.2042C6.72118 30.0573 6.89732 29.856 7.01397 29.6202H6.94095C6.70472 29.896 6.43495 30.1413 6.13789 30.3503L6.2109 30.4963V30.5693L6.13789 30.7153C6.21719 30.7538 6.29087 30.8029 6.3569 30.8613L6.57591 30.7153H6.64893L6.57591 30.8613C6.57591 30.8613 6.64893 30.8613 6.64893 30.9343C6.23175 30.9343 6.01272 31.0595 5.99186 31.2993L5.77285 31.4454H5.69983V31.2993C4.91347 31.8972 4.21177 32.5989 3.61392 33.3852C3.61392 33.1975 3.54092 33.0932 3.39491 33.0932H3.33234V33.2393C3.28019 33.2393 3.25932 33.2392 3.25932 33.1662C3.10151 33.2512 2.92718 33.3011 2.74828 33.3123C2.67528 33.3123 2.52925 33.2184 2.31023 33.0202C2.31023 32.6587 2.65788 32.1476 3.35318 31.4871C3.44092 31.3047 3.57454 31.1483 3.74092 31.0331C3.90729 30.9179 4.10072 30.848 4.30228 30.83C4.30228 30.7674 4.39614 30.6214 4.5943 30.392C4.59588 30.3724 4.59319 30.3527 4.58641 30.3343C4.57963 30.3159 4.56891 30.2991 4.55503 30.2852C4.54114 30.2714 4.52441 30.2606 4.50598 30.2539C4.48755 30.2471 4.46788 30.2444 4.44831 30.246C4.45017 30.256 4.44956 30.2663 4.44656 30.276C4.44355 30.2857 4.43821 30.2945 4.43102 30.3017C4.42383 30.3089 4.41502 30.3142 4.40531 30.3172C4.39559 30.3202 4.38529 30.3209 4.37529 30.319V30.173H4.52132L4.74033 30.319C4.74648 30.2411 4.77155 30.1659 4.81335 30.0999C4.7612 30.0999 4.74033 30.1 4.74033 30.027L4.5943 30.0999H4.52132V30.027L5.32439 28.984L5.47038 29.057C5.60349 28.9209 5.72556 28.7744 5.83542 28.619H5.61641C5.61641 28.546 5.74157 28.4417 5.98145 28.3269L5.90844 28.1809L6.95139 26.8668C7.34217 26.0905 7.80667 25.3535 8.33851 24.6662C8.33851 24.5201 8.43238 24.4054 8.63054 24.3011L8.55756 24.1551C9.13564 23.3757 9.5345 22.4782 9.72566 21.5268C9.64222 21.3495 9.15204 21.1305 8.26553 20.8698L8.1195 20.9428C7.51181 20.7152 6.87007 20.5918 6.22131 20.5778L6.07531 20.6508C6.02317 20.6508 6.0023 20.6508 6.0023 20.5778C5.92444 20.5839 5.84926 20.609 5.78329 20.6508C5.26865 20.6056 4.75684 20.5325 4.25014 20.4318C4.25201 20.4417 4.2514 20.4521 4.24839 20.4618C4.24538 20.4715 4.24005 20.4803 4.23286 20.4875C4.22567 20.4947 4.21685 20.5 4.20714 20.503C4.19743 20.506 4.18712 20.5066 4.17713 20.5048C4.17713 20.4318 3.90597 20.3379 3.37406 20.2127C3.03693 20.0842 2.7179 19.9123 2.42497 19.7017C1.49168 18.91 0.846312 17.8319 0.589357 16.6354C0.599352 16.6372 0.609658 16.6367 0.619371 16.6337C0.629084 16.6307 0.63793 16.6253 0.64512 16.6181C0.65231 16.6109 0.657613 16.6021 0.660621 16.5924C0.663629 16.5827 0.664239 16.5724 0.662371 16.5624C0.516357 16.5624 0.443359 16.1243 0.443359 15.2378V14.9458C0.55247 13.2931 1.0568 11.6907 1.91393 10.2734L4.32316 6.55002C5.01889 5.53251 5.80048 4.57646 6.65937 3.69233C7.30202 2.9463 7.99925 2.24907 8.74528 1.60642C8.72529 1.61015 8.70468 1.60893 8.68525 1.60292C8.66582 1.5969 8.64816 1.58626 8.63378 1.57188C8.6194 1.5575 8.60877 1.53984 8.60275 1.52042C8.59674 1.50099 8.59552 1.48038 8.59925 1.46039L8.74528 1.38737H8.96429C8.92722 1.31925 8.90249 1.24511 8.89128 1.16836C9.33494 0.9794 9.73582 0.702689 10.0698 0.354858ZM0.93355 13.3605C0.93355 13.5065 0.933535 13.5795 0.787521 13.5795C0.785653 13.5895 0.786263 13.5998 0.789271 13.6095C0.792279 13.6193 0.797582 13.6281 0.804772 13.6353C0.811962 13.6425 0.820808 13.6478 0.830521 13.6508C0.840234 13.6538 0.85054 13.6544 0.860535 13.6525C0.84611 13.7521 0.821643 13.8499 0.787521 13.9446V14.0906H0.860535C0.884947 13.8669 0.933897 13.6465 1.00653 13.4335V13.3605H0.93355ZM1.00653 13.1415V13.1936H1.07955L1.15256 12.9016C1.0587 12.9225 1.00653 12.9955 1.00653 13.1936V13.1415ZM2.91516 13.7256C2.91453 13.8273 2.88949 13.9275 2.84215 14.0176H2.98817V13.7256H2.91516ZM3.4262 33.4583H3.57223V33.6043C3.46793 33.6043 3.2802 33.7295 2.98817 33.9693H2.91516V33.8963C2.91516 33.8963 3.08202 33.7086 3.4262 33.4583ZM3.49921 15.7802C3.59308 15.7802 3.64521 15.7802 3.64521 15.9262V15.9992C3.64678 16.0188 3.6441 16.0384 3.63732 16.0569C3.63053 16.0753 3.61982 16.092 3.60593 16.1059C3.59205 16.1198 3.57532 16.1305 3.55689 16.1373C3.53846 16.1441 3.51879 16.1468 3.49921 16.1452H3.4262L3.49921 15.7802ZM3.49921 33.0932H3.71822C3.7378 33.0948 3.7575 33.0921 3.77593 33.0853C3.79436 33.0785 3.81109 33.0678 3.82498 33.0539C3.83886 33.0401 3.84955 33.0233 3.85633 33.0049C3.86311 32.9865 3.86583 32.9668 3.86425 32.9472V32.8742H3.71822C3.64869 32.8742 3.5757 32.9472 3.49921 33.0932ZM3.86425 16.9483H3.93724L3.86425 17.0943C3.90132 17.1624 3.92602 17.2366 3.93724 17.3133H3.79124C3.75957 17.218 3.73516 17.1203 3.71822 17.0213L3.86425 16.9483ZM4.08327 15.9053C4.01026 16.0931 3.93726 16.1974 3.86425 16.1974L3.79124 16.0513V15.9053H4.08327ZM4.22926 30.5067H4.30228V30.6527H4.08327C4.09052 30.6196 4.10905 30.5901 4.13569 30.5692C4.16232 30.5482 4.19539 30.5372 4.22926 30.538V30.5067ZM4.5943 31.8938V31.9668H4.66732C4.68199 31.8559 4.73341 31.7531 4.81335 31.6748H4.74033C4.63604 31.7061 4.5943 31.7791 4.5943 31.9668V31.8938ZM4.95934 29.9227V29.9956C5.02887 29.9956 5.10187 29.9226 5.17836 29.7766H5.10537C5.00108 29.8183 4.95934 29.8809 4.95934 29.9539V29.9227ZM5.61641 31.5288H5.76241C5.76241 31.5914 5.63728 31.6852 5.3974 31.8208H5.32439C5.32439 31.7791 5.41825 31.6852 5.61641 31.5601V31.5288ZM5.5434 31.0908V31.2368H5.76241C5.8667 31.2368 5.93973 31.1116 5.98145 30.8717H5.90844C5.81877 30.9943 5.69 31.0826 5.5434 31.122V31.0908ZM7.29556 9.60587H7.44158V9.7519C7.44316 9.77147 7.44047 9.79114 7.43369 9.80957C7.42691 9.828 7.41619 9.84473 7.40231 9.85862C7.38842 9.87251 7.37169 9.88322 7.35326 9.89C7.33483 9.89678 7.31513 9.89947 7.29556 9.8979V9.7519C6.98962 10.0439 6.77063 10.1899 6.63852 10.1899V10.1169C6.64895 10.0648 6.86794 9.87704 7.29556 9.63716V9.60587ZM6.74279 30.465H6.97224V30.611L6.68022 30.684C6.70751 30.6383 6.72856 30.5892 6.74279 30.538V30.465ZM7.14956 9.85617H7.29556V9.92918C7.29556 10.0126 7.12869 10.1586 6.78452 10.3672V10.2942C7.0244 10.1378 7.14956 9.99176 7.14956 9.92918V9.85617ZM7.58758 9.0531H7.6606C7.6606 9.12959 7.5876 9.20259 7.44158 9.27212V9.19913C7.45588 9.17381 7.47741 9.15332 7.50343 9.14032C7.52944 9.12731 7.55874 9.12236 7.58758 9.12612V9.0531ZM8.39068 8.46905H8.60969C8.61343 8.48904 8.61224 8.50965 8.60622 8.52908C8.6002 8.54851 8.58954 8.56617 8.57516 8.58055C8.56078 8.59493 8.54311 8.60556 8.52369 8.61158C8.50426 8.6176 8.48368 8.61878 8.46369 8.61505H8.24465C8.25508 8.58376 8.30724 8.54207 8.39068 8.54207V8.46905ZM10.9459 25.9281V26.0011H11.0189C11.0883 25.967 11.162 25.9424 11.2379 25.9281V25.7821C11.2063 25.8363 11.1642 25.8836 11.1141 25.9212C11.0639 25.9588 11.0067 25.986 10.9459 26.0011V25.9281ZM12.1975 23.8422C12.1975 23.8422 12.1975 23.9674 12.1244 24.1342H12.2705V23.8422H12.1975Z" fill="#F6CD45"/>
    <path d="M13.8352 32.2172H13.6683V31.873L13.491 31.9669C13.4655 31.9703 13.4396 31.9678 13.4153 31.9596C13.3909 31.9514 13.3688 31.9377 13.3506 31.9195C13.3325 31.9013 13.3187 31.8792 13.3105 31.8549C13.3023 31.8305 13.2998 31.8046 13.3033 31.7791C13.4493 31.7791 13.5744 31.3411 13.6683 30.465C14.2306 29.324 14.7149 28.1463 15.118 26.9398C15.6106 26.2751 16.0009 25.5404 16.2757 24.76C16.4386 24.2348 16.6701 23.7334 16.964 23.2686L16.526 21.3287C16.5941 21.1933 16.623 21.0416 16.6094 20.8907C16.4947 20.8907 16.4321 20.8072 16.4321 20.6299C16.4842 20.5559 16.5165 20.4697 16.526 20.3796C16.2364 19.561 16.0746 18.7027 16.0462 17.8348C16.0226 18.136 15.9808 18.4356 15.9211 18.7318C15.8039 18.9976 15.7469 19.2861 15.7542 19.5765C15.4718 20.0599 15.0695 20.4622 14.5861 20.7447C14.5183 20.6825 14.445 20.6266 14.3671 20.5778L14.1689 20.7238L13.71 20.6195C13.6503 20.6187 13.5918 20.637 13.5432 20.6717C13.4595 20.5792 13.4082 20.4621 13.3971 20.3379V20.2336C13.4597 20.2336 13.5119 20.1814 13.564 20.0876C13.6161 19.9937 13.5014 20.0354 13.5014 19.9624C13.6472 19.2943 13.8823 18.6488 14.2002 18.0434C14.2837 17.8348 14.3358 17.7305 14.3671 17.7305C14.388 17.5726 14.4301 17.4183 14.4922 17.2716V17.0735C14.6033 16.8817 14.6941 16.679 14.7634 16.4686L14.8677 16.0097C14.9303 16.0097 14.9824 15.9575 15.0346 15.8428C15.1743 15.5719 15.2794 15.2846 15.3474 14.9875L15.7542 14.1845C15.7541 13.9315 15.8001 13.6805 15.8898 13.444C15.9659 13.2999 16.092 13.1886 16.2444 13.1311C16.5221 13.0387 16.8088 12.9758 17.0996 12.9434C18.6849 12.9434 19.4776 13.7047 19.4776 15.2066C19.4776 15.2796 19.4776 15.5716 19.5714 16.0931C19.5145 16.4379 19.4832 16.7865 19.4776 17.136C19.6444 17.136 19.7592 17.3655 19.8217 17.8348C19.7176 18.0231 19.6637 18.235 19.6653 18.4502C19.6653 18.5753 19.7487 18.6379 19.9156 18.6379C20.5689 17.9031 21.1005 17.0686 21.4905 16.1661C22.3522 15.0666 23.1165 13.894 23.7745 12.6617L23.9518 12.5679C24.2679 12.5641 24.5795 12.643 24.8557 12.7966C25.1319 12.9503 25.3632 13.1734 25.5267 13.444V13.7256C24.8592 14.3305 24.4838 14.7059 24.4838 14.852C24.0401 15.1701 23.6819 15.5928 23.4408 16.0826C23.1801 16.0826 22.7942 16.3955 22.3144 17.0422V17.136H22.5647C22.5647 16.9066 22.6273 16.7919 22.7524 16.7919L22.9193 16.8857C22.7733 17.2195 22.5647 17.3968 22.3144 17.3968C21.8666 17.748 21.476 18.1667 21.1567 18.6379H21.0733V18.8048H21.1567C21.2417 18.7513 21.3383 18.7192 21.4383 18.7109L21.5113 18.8882C21.3236 18.8882 21.1567 19.0342 21.0003 19.3262V19.4514L21.2506 19.2741V19.5453C21.2506 19.6078 21.0733 19.7539 20.7187 19.9833C20.7813 19.9833 20.8126 19.9833 20.8126 20.0563H20.5622V20.1502H20.7187V20.3275C20.2598 21.3704 20.0303 21.8606 20.0303 21.9023C20.0809 21.9772 20.1131 22.063 20.1242 22.1526C20.0351 22.3848 19.9721 22.6262 19.9365 22.8723C20.0017 22.975 20.0344 23.0949 20.0303 23.2165L20.3745 22.8723C20.4763 23.0958 20.5634 23.3258 20.6352 23.5606C20.5831 23.7484 20.5309 23.8422 20.4684 23.8422C20.5355 24.0974 20.5671 24.3606 20.5622 24.6244C20.6665 24.6244 20.7187 24.4785 20.7187 24.1864H21.0629V24.5306L20.8751 24.7913V24.9686C20.9586 24.9686 21.0733 25.0834 21.2193 25.3128C21.2164 25.1934 21.188 25.0761 21.1359 24.9686C21.2149 24.974 21.2909 25.0013 21.3553 25.0473C21.4198 25.0933 21.4702 25.1564 21.5009 25.2294C21.457 25.3314 21.3932 25.4235 21.3132 25.5005V25.5944H21.407V25.4067C21.5113 25.4067 21.5739 25.4901 21.5739 25.5944H21.5009C21.5009 25.8134 21.9598 26.2723 22.888 26.9815H23.1488C24.4878 25.2139 25.5759 23.2694 26.3819 21.2036C26.3819 21.0263 26.5071 20.8803 26.747 20.7655C26.9322 19.8773 27.2523 19.0226 27.696 18.2311C27.7737 17.9954 27.8364 17.7551 27.8838 17.5115H28.0715C28.0715 17.9287 28.009 18.1373 27.8838 18.1373L27.9777 18.3041V18.8361C27.5218 19.8041 27.2259 20.8396 27.1016 21.9023H27.258C27.0077 22.549 26.8408 22.8723 26.747 22.8723V23.0287H27.0077V23.2165C26.8548 23.5085 26.7087 23.6545 26.5697 23.6545V23.9152C26.0961 25.481 25.2559 26.9112 24.1187 28.0871C23.6379 28.3268 23.1393 28.529 22.6273 28.692C22.6273 28.8171 22.596 28.8797 22.5334 28.8797C21.6426 28.8462 20.7716 28.6071 19.9886 28.1809C19.6044 27.5827 19.1294 27.0478 18.5806 26.5957L18.0383 25.7717L17.7045 26.1472C17.6084 26.4149 17.475 26.6677 17.3082 26.8981C16.5467 28.2294 15.9046 29.6255 15.3892 31.0699C15.3057 31.0699 15.191 31.1638 15.045 31.3307H14.9512V31.1638H14.8051C14.5965 31.8 14.4192 32.1129 14.2732 32.1129H14.0229L13.8352 32.0399V32.2172ZM14.2524 31.0073C14.3434 30.6116 14.413 30.2112 14.461 29.8079C14.461 29.8079 14.4609 29.7558 14.5339 29.7558H14.607C14.6695 29.2969 14.7426 29.0675 14.8468 29.0675V28.8797C14.8468 28.7859 14.9303 28.7337 14.9512 28.7337H15.0241C15.0178 28.5774 15.0426 28.4214 15.0971 28.2748H15.0241C14.9616 28.4104 14.899 28.4834 14.826 28.4834H14.753L14.6591 28.7233L14.826 28.7963C14.826 28.8901 14.753 28.9423 14.7113 28.9423H14.6382V29.1613C14.4954 29.243 14.3739 29.3574 14.2836 29.4951C14.3152 29.5082 14.3426 29.5298 14.3628 29.5573C14.383 29.5849 14.3953 29.6175 14.3984 29.6515C14.3984 29.8497 14.2106 30.0583 13.8456 30.2773C13.8566 30.2786 13.8672 30.282 13.8769 30.2875C13.8865 30.2929 13.895 30.3002 13.9018 30.3089C13.9086 30.3177 13.9135 30.3277 13.9164 30.3383C13.9193 30.349 13.9201 30.3602 13.9186 30.3711V30.4233H14.1168L14.2836 30.4963L14.1376 31.0491L14.2524 31.0073ZM14.2524 31.4349C14.2368 31.3417 14.2368 31.2466 14.2524 31.1534H14.1793L14.075 31.4141L14.2524 31.4349ZM14.7425 30.757L14.8573 30.4963L14.6904 30.4233C14.6989 30.5204 14.6989 30.6182 14.6904 30.7153L14.7425 30.757ZM14.9616 29.7141L15.1076 29.4012H15.0346C15.0017 29.3978 14.9687 29.4065 14.9419 29.4257C14.915 29.445 14.896 29.4733 14.8885 29.5055C14.8681 29.5628 14.8437 29.6185 14.8156 29.6724L14.9616 29.7141ZM15.1806 29.2134C15.2536 29.2134 15.3162 29.1509 15.3683 29.0153C15.2747 29.025 15.1803 29.025 15.0867 29.0153L15.0346 29.1822C15.0688 29.2229 15.1173 29.249 15.1702 29.2552L15.1806 29.2134ZM15.2536 28.5773C15.3162 28.5773 15.3683 28.5773 15.3996 28.4521C15.4309 28.327 15.4726 28.2852 15.5143 28.2122L15.3474 28.1392L15.1597 28.5564L15.2536 28.5773ZM15.3683 30.2043L15.5143 29.8705L15.2536 29.7662V29.9853C15.2666 30.0436 15.2666 30.1042 15.2536 30.1625L15.3683 30.2043ZM15.6186 27.8681L15.7334 27.6073L15.5456 27.5343L15.4518 27.795L15.6186 27.8681ZM15.5456 29.2865L15.8064 28.9006C15.8138 28.8103 15.8138 28.7196 15.8064 28.6294H15.9419C16.0149 28.6294 16.0462 28.5668 16.0462 28.4417V28.2644C16.1714 28.0036 16.2966 27.8785 16.4113 27.8785H16.5051C16.5107 27.7794 16.5282 27.6813 16.5573 27.5864L16.307 27.4717C16.1923 27.7116 16.0984 27.8368 16.015 27.8368H15.9628L15.8689 28.2957L15.6499 28.5877L15.8168 28.6607C15.754 28.8331 15.6543 28.9897 15.5248 29.1196V29.2134L15.5456 29.2865ZM16.6407 26.919V26.7521H16.5677C16.5332 26.7534 16.4997 26.7638 16.4704 26.7821C16.4412 26.8004 16.4172 26.826 16.4008 26.8564L16.6407 26.919ZM17.1205 25.1251L17.2456 24.8122C17.2456 24.6036 17.1831 24.4784 17.0475 24.4263C16.985 24.5061 16.9112 24.5764 16.8285 24.6349C16.891 24.9686 16.9953 25.1251 17.11 25.1668L17.1205 25.1251ZM16.9849 26.3662C17.0337 26.2825 17.0973 26.2083 17.1726 26.1472V26.0742L16.9953 25.9803C16.9543 26.0695 16.8978 26.1506 16.8285 26.2202V26.2932L16.9849 26.3662ZM17.4334 25.7613C17.5286 25.5721 17.644 25.3938 17.7776 25.2294L17.7045 25.1042C17.5906 25.0852 17.4743 25.0852 17.3604 25.1042C17.3412 25.1936 17.3412 25.286 17.3604 25.3754C17.3604 25.4588 17.2769 25.5005 17.2143 25.5005H17.1205V25.5735C17.0718 25.6222 17.1726 25.6987 17.423 25.803L17.4334 25.7613ZM17.2665 26.5122C17.3834 26.2843 17.4811 26.0471 17.5585 25.803H17.7045L17.7567 25.6674H17.6628C17.5481 25.6674 17.3708 25.9386 17.1518 26.4601C17.1756 26.4657 17.1977 26.4772 17.2159 26.4936C17.2342 26.51 17.248 26.5308 17.2561 26.5539L17.2665 26.5122ZM19.488 23.7901C19.4838 23.5391 19.5336 23.2901 19.634 23.06H19.707L19.853 23.133V22.841H19.7905L19.634 22.914L19.561 22.768H19.7905V22.5803L19.561 22.7263V22.5803H19.415L19.488 23.0183C19.488 23.4042 19.415 23.6754 19.415 23.8214L19.488 23.7901ZM19.9365 24.2281V24.1551C19.8927 24.0892 19.8642 24.0144 19.853 23.9361H19.7905V24.2281H19.9365ZM20.0825 25.1042V24.7392C19.9899 24.6401 19.9378 24.5098 19.9365 24.3741H19.853V24.7392C19.9365 24.8449 19.9905 24.9709 20.0095 25.1042H20.0825ZM20.3328 22.6741H20.1868V22.4551C20.2702 22.5073 20.3224 22.5803 20.3224 22.7159L20.3328 22.6741ZM20.3328 23.8631V23.6441H20.1868C20.2239 23.7122 20.2486 23.7864 20.2598 23.8631H20.3328ZM20.6248 26.1993V25.9073C20.4058 25.438 20.2598 25.1876 20.1868 25.1772C20.2181 25.9073 20.3641 26.241 20.6561 26.241L20.6248 26.1993ZM20.6248 25.6153V25.5423C20.583 25.4763 20.558 25.4011 20.5518 25.3232H20.4788V25.3963C20.5129 25.4656 20.5375 25.5393 20.5518 25.6153H20.6248ZM21.5322 27.211C21.4288 27.171 21.3308 27.1184 21.2402 27.0546C21.0584 26.8483 20.8878 26.6325 20.7291 26.4079H20.6561V26.4809C21.0628 27.0024 21.3132 27.2527 21.5635 27.2527L21.5322 27.211ZM21.5322 26.919V26.846C21.3132 26.5539 21.1463 26.4079 21.0211 26.4079V26.4809C21.2015 26.5879 21.3522 26.7386 21.4592 26.919H21.5322ZM22.012 18.1477H21.9389C21.9389 18.0225 22.0224 17.96 22.1892 17.96C22.2205 18.1268 22.158 18.1894 22.0432 18.1894L22.012 18.1477Z" fill="#F6CD45"/>
    <path d="M31.7219 29.203L31.5758 29.13C31.498 29.1362 31.4228 29.1612 31.3568 29.203C31.108 29.1879 30.8623 29.1388 30.6268 29.057C30.5138 29.1134 30.3877 29.1386 30.2617 29.13C29.7592 28.9775 29.2707 28.7821 28.8016 28.546C28.5269 28.2118 28.2076 27.917 27.8525 27.6699C27.0095 26.9105 26.4657 25.8747 26.3194 24.7496L26.1733 23.9465C26.2525 23.7571 26.3018 23.5566 26.3194 23.352C26.3162 23.2506 26.2913 23.151 26.2464 23.06C26.2955 22.746 26.32 22.4287 26.3194 22.1109C26.3194 22.017 26.3924 21.9649 26.5384 21.9649V21.8189H26.3924V21.5373C26.5279 21.5373 26.6427 21.2766 26.7574 20.7342L26.6114 20.8072H26.5384C26.6429 20.7353 26.7255 20.6358 26.777 20.5199C26.8285 20.4039 26.847 20.276 26.8304 20.1502H26.7574C26.9481 19.9774 27.0765 19.7464 27.1224 19.4931L26.9764 19.5661C26.9652 19.4894 26.9405 19.4152 26.9034 19.3471C26.9764 19.3471 27.0703 19.2219 27.1954 18.982L27.1224 18.836C27.3102 18.836 27.5605 18.3771 27.8525 17.4489C28.3445 16.3423 28.9566 15.293 29.6777 14.32C30.1811 13.5394 30.796 12.8367 31.5029 12.2341V12.1507H31.5758C32.2632 12.5792 33.0354 12.8532 33.8391 12.9538C34.0123 13.0753 34.1596 13.2302 34.2724 13.4093C34.3852 13.5883 34.4612 13.788 34.4961 13.9967C34.8403 14.2366 35.0176 14.4556 35.0176 14.6538C34.8009 16.2547 34.4804 17.8399 34.0581 19.3993L33.9121 19.4722C32.8691 19.2324 32.3789 18.69 32.3789 17.8661H32.452L32.598 17.9391C32.6128 17.6132 32.7421 17.303 32.963 17.063C33.0194 16.95 33.0446 16.824 33.036 16.698C32.9776 16.6319 32.9285 16.5583 32.89 16.479H33.109C33.109 16.479 33.109 16.4059 33.036 16.4059C33.0643 16.1589 33.1131 15.9148 33.182 15.6759C33.1184 15.5135 33.0934 15.3386 33.109 15.1649C32.5956 15.6709 32.2188 16.2989 32.0139 16.99C32.0139 17.2821 32.0139 17.428 31.8679 17.428L31.9409 17.5741V17.6471C31.7624 17.793 31.5662 17.9156 31.3568 18.0121V18.0851H31.4924C31.5584 18.0433 31.6336 18.0182 31.7114 18.0121L31.6384 18.1581C31.6802 18.2241 31.7053 18.2993 31.7114 18.3771C31.6071 18.3771 31.4611 18.6483 31.2734 19.1802C31.3152 19.2462 31.3402 19.3214 31.3464 19.3993C31.0648 19.3993 30.8979 19.6391 30.8354 20.1293L30.6894 20.2023H30.6163L30.4703 20.1293C30.4703 20.2336 30.3973 20.2753 30.2513 20.2753V20.1293L30.3973 19.9103H30.2513C30.2513 20.0772 30.0531 20.3275 29.6672 20.6404L29.5942 20.7864V20.8594H29.6672V20.7134H29.8133V21.0054H29.7403C29.6721 20.9683 29.598 20.9436 29.5212 20.9324C29.5212 21.0054 29.4274 21.0784 29.2292 21.1514L29.0832 21.0784C29.0172 21.1202 28.942 21.1453 28.8642 21.1514V21.4434C29.1562 21.4434 29.3022 21.3704 29.3022 21.2244H29.6672V21.4434C29.8937 21.3082 30.1401 21.2097 30.3973 21.1514V21.2244L29.9593 21.8085H30.1053V21.9545C29.7983 22.289 29.529 22.6562 29.3022 23.0496L29.1562 22.9766C29.0623 23.2269 28.9893 23.3416 28.9372 23.3416L29.1562 23.6441C29.0253 23.8661 28.9501 24.1167 28.9372 24.3741L29.2292 24.5932H29.3022L29.2292 24.4472C29.2292 24.3429 29.2292 24.3011 29.3022 24.3011L29.2292 24.1551C29.297 23.4992 29.5224 22.8694 29.8863 22.3195C29.8863 22.2674 29.9801 22.2152 30.1783 22.1735C30.1686 22.2996 30.1939 22.4259 30.2513 22.5385C29.9293 22.9182 29.6592 23.3391 29.4482 23.7901C29.5294 23.866 29.6308 23.9167 29.7403 23.9361V24.3011C29.6364 24.6593 29.5631 25.0257 29.5212 25.3962H29.5942V25.7091C29.5961 25.7191 29.5955 25.7294 29.5925 25.7391C29.5895 25.7488 29.5842 25.7577 29.577 25.7649C29.5698 25.772 29.5609 25.7774 29.5512 25.7804C29.5415 25.7834 29.5312 25.784 29.5212 25.7821L29.5942 25.9281L29.5212 26.4392C29.5734 26.919 29.6881 27.1693 29.8863 27.1693V27.2423L29.8133 27.3883C29.8875 27.3917 29.9597 27.4135 30.0234 27.4517C30.0871 27.49 30.1403 27.5434 30.1783 27.6073C31.3902 27.4469 32.4911 26.8179 33.2446 25.8551C34.1036 24.9409 34.8526 23.9293 35.4765 22.841C36.1349 22.1343 36.6993 21.3456 37.1557 20.4943L37.3017 20.5674C37.5186 19.9487 37.813 19.36 38.1778 18.8152H38.2508L38.3238 19.2532L38.4698 19.1802V19.2532L38.3968 19.3993C38.4068 19.3974 38.4171 19.398 38.4268 19.401C38.4365 19.404 38.4454 19.4093 38.4525 19.4165C38.4597 19.4237 38.465 19.4325 38.468 19.4423C38.4711 19.452 38.4717 19.4622 38.4698 19.4722C38.3655 19.4722 38.2612 19.5765 38.1778 19.7643L38.2508 20.1293C38.046 20.465 37.9211 20.8432 37.8857 21.2348C37.698 21.2348 37.5937 21.3496 37.5937 21.5999L37.6667 21.9649L37.8127 21.8919V21.9649C37.4809 22.4199 37.2563 22.944 37.1557 23.4981C36.9079 23.8187 36.7012 24.1691 36.5403 24.541C36.2971 24.9558 36.0777 25.3841 35.8833 25.8238C35.4784 26.3198 35.1286 26.8584 34.8403 27.43C34.4887 27.709 34.1703 28.0275 33.8912 28.3791C33.6937 28.4184 33.5143 28.5209 33.3802 28.6711C33.2863 28.6711 33.2342 28.6711 33.2342 28.5981C32.8361 28.8725 32.3905 29.0706 31.92 29.1821C31.92 29.1821 31.92 29.1092 31.847 29.1092C31.8384 29.1358 31.8218 29.1592 31.7993 29.176C31.7769 29.1928 31.7499 29.2022 31.7219 29.203ZM26.9764 24.8226V24.4576H26.9034V24.8226H26.9764ZM29.0623 26.3557V26.0637L28.9163 25.8447V25.7717L29.4274 25.1876V25.0416C29.4274 25.0416 29.2709 25.1563 29.0623 25.4067C29.0623 25.4067 29.0623 25.3337 28.9893 25.3337C28.9842 25.4075 28.9616 25.479 28.9236 25.5424C28.8855 25.6059 28.833 25.6594 28.7703 25.6987C28.8225 26.1367 28.9268 26.3557 29.0206 26.3557H29.0623ZM29.2814 22.768C29.3752 22.768 29.4482 22.6011 29.5004 22.2569C29.4274 22.2569 29.3335 22.3612 29.2083 22.549C29.2183 22.5471 29.2286 22.5477 29.2384 22.5507C29.2481 22.5537 29.2569 22.559 29.2641 22.5662C29.2713 22.5734 29.2766 22.5823 29.2796 22.592C29.2826 22.6017 29.2832 22.612 29.2814 22.622C29.1875 22.622 29.1353 22.6845 29.1353 22.768H29.2814ZM29.2083 25.8968C29.2848 25.8968 29.3578 25.8238 29.4274 25.6778V25.6048C29.3254 25.6042 29.225 25.6293 29.1353 25.6778C29.1661 25.7538 29.1768 25.8364 29.1666 25.9177L29.2083 25.8968ZM30.4495 22.1631C30.3035 22.1631 30.2305 22.1631 30.2305 22.017H30.4495V22.1631ZM31.0335 18.5127C31.1065 18.5127 31.2004 18.4189 31.3255 18.2207V18.0747H31.1795C31.152 18.2393 31.0757 18.3919 30.9605 18.5127H31.0335ZM31.0335 18.8048C31.11 18.8048 31.183 18.7318 31.2525 18.5857C31.0544 18.5857 30.9605 18.6587 30.9605 18.8048H31.0335ZM31.1795 19.8477H31.1065C31.1032 19.8181 31.1066 19.7882 31.1164 19.7601C31.1263 19.732 31.1423 19.7065 31.1633 19.6855C31.1844 19.6644 31.2099 19.6484 31.238 19.6386C31.266 19.6288 31.296 19.6254 31.3255 19.6287C31.2838 19.7747 31.2317 19.8477 31.1378 19.8477H31.1795Z" fill="#F6CD45"/>
    <path d="M41.2232 13.1937L41.3901 13.2667C41.4688 13.2285 41.5535 13.2038 41.6404 13.1937C42.4348 13.3712 43.1599 13.7772 43.7263 14.3618C43.7263 14.4765 43.6116 14.5286 43.403 14.5286V14.6225C43.403 14.6747 43.5595 14.7789 43.8932 14.9458L44.06 14.8624C44.3999 15.071 44.6858 15.3569 44.8944 15.6968L44.7276 15.7906C44.7082 15.7067 44.6657 15.63 44.6049 15.5692C44.544 15.5083 44.4672 15.4658 44.3834 15.4465L44.3104 15.6029C44.3104 15.6655 44.4773 15.7802 44.8006 15.9575L44.9674 15.8636H45.0509V15.9575L44.957 16.1244C45.0717 16.1244 45.1239 16.1869 45.1239 16.2808V16.3538L45.0509 16.5415C45.2177 16.5415 45.3637 16.8961 45.468 17.5845H45.5411V17.6784L45.468 17.8452C45.541 17.8452 45.6558 18.0017 45.8018 18.3354C45.8033 18.3577 45.8001 18.3801 45.7922 18.4011C45.7844 18.422 45.7722 18.441 45.7563 18.4569C45.7405 18.4727 45.7215 18.4849 45.7005 18.4928C45.6796 18.5006 45.6572 18.5038 45.6349 18.5023L45.7079 18.9195V19.2532H45.8852V19.4514H45.7079V19.6391C45.7207 19.6408 45.7336 19.6396 45.7458 19.6355C45.758 19.6314 45.769 19.6245 45.7781 19.6154C45.7872 19.6064 45.7941 19.5953 45.7982 19.5831C45.8023 19.571 45.8035 19.558 45.8018 19.5453C45.8759 19.5973 45.962 19.6297 46.0521 19.6391C46.0521 19.9103 45.9687 20.0355 45.8018 20.0355V20.2232L45.9582 20.4631V20.7134L45.7079 21.0471L45.8018 21.214C45.6525 21.5613 45.5643 21.9318 45.5411 22.3091H45.6349C46.2274 22.1881 46.7588 21.8634 47.1368 21.3913L47.2932 21.4643H47.3871C47.3871 21.3287 47.7208 20.9741 48.43 20.4213C48.5663 20.0733 48.7681 19.7546 49.0245 19.4827C49.2899 18.8869 49.5929 18.3086 49.9319 17.7514C49.9319 17.3655 50.0988 17.1673 50.4221 17.1673V17.2403C50.1999 18.2064 49.8964 19.1519 49.5147 20.0667C49.327 20.7968 49.108 21.1619 48.8368 21.1619C48.8368 21.8502 48.0859 22.7054 46.5945 23.7484C46.3934 23.7488 46.1934 23.7769 46 23.8318V23.7484C45.1134 23.7484 44.6754 24.0196 44.6754 24.5828C44.6171 24.9365 44.4406 25.26 44.1748 25.5005V25.7091L44.4147 25.5423H44.5085V25.7091C44.3357 25.9272 44.2208 26.1856 44.1748 26.4601V26.5331H44.3417V26.7C44.3189 26.6964 44.2957 26.6982 44.2738 26.7054C44.2519 26.7125 44.232 26.7247 44.2158 26.7409C44.1995 26.7572 44.1873 26.7771 44.1802 26.799C44.1731 26.8208 44.1712 26.8441 44.1748 26.8668H44.0079C43.9453 26.8668 43.914 26.8668 43.914 26.7938C43.7367 26.7938 43.6012 27.1484 43.4864 27.8368L43.2361 28.0036L43.0693 27.9306C43.0641 28.0185 43.0391 28.1041 42.9962 28.1809C43.1527 28.1809 43.2361 28.1809 43.2361 28.3478C42.9759 28.6064 42.6628 28.8056 42.3183 28.9319C42.3183 28.9319 42.2453 28.9319 42.2453 28.838L41.4839 29.0049V28.838L41.3171 28.9319L41.1502 28.838C41.1502 29.057 40.9416 29.1718 40.66 29.1718C40.0952 28.7132 39.4419 28.3759 38.741 28.1809C38.741 28.0871 38.6054 28.0036 38.3238 27.9306V28.0036C38.5741 28.3374 38.7723 28.5147 38.9078 28.5147V28.6711H38.7931C38.449 28.6711 38.0943 28.0662 37.7502 26.8355C37.3515 25.7143 37.1538 24.5316 37.1661 23.3416H37.0723V23.6232H36.9992L36.8324 23.5398V23.7066H36.6655C36.6538 23.622 36.6255 23.5404 36.5821 23.4668C36.6841 23.2806 36.7679 23.085 36.8324 22.8827L36.7385 22.4551C36.9262 22.4551 37.2078 21.5373 37.5833 19.7017C37.734 19.3699 37.9306 19.061 38.1674 18.7839C38.2512 18.5283 38.3941 18.296 38.5845 18.106V18.033L38.4072 18.106L38.3342 17.9495C38.6848 17.5895 38.9675 17.169 39.1686 16.7084C39.0539 16.7084 38.9913 16.7084 38.9913 16.6146C40.0343 14.5286 40.7122 13.4857 41.1606 13.4857C41.1293 13.298 41.1606 13.1937 41.2232 13.1937ZM36.5508 23.884H36.7072V24.3742H36.5508V23.884ZM36.6342 24.541H36.8011C36.8532 24.9049 36.966 25.2575 37.1348 25.584C36.9332 25.584 36.7663 25.2815 36.6342 24.6766V24.541ZM36.8011 24.1239H36.968V24.3742H36.8011V24.1239ZM38.887 16.8232V17.0735H38.7201V16.9796C38.7146 16.9561 38.715 16.9317 38.7212 16.9084C38.7275 16.8851 38.7394 16.8637 38.756 16.8461C38.7725 16.8286 38.7931 16.8154 38.816 16.8077C38.8388 16.8001 38.8632 16.7982 38.887 16.8023V16.8232ZM39.1373 27.3466V27.7638H39.3772C39.2809 27.6446 39.2227 27.4993 39.2103 27.3466H39.1373ZM40.0551 21.6625C40.0551 21.7668 40.0551 21.8293 39.9612 21.8293C40.0133 21.9034 40.0456 21.9896 40.0551 22.0796H40.1281C40.1257 21.9648 40.1585 21.852 40.222 21.7563L40.0551 21.6625ZM41.0981 20.2545C41.0682 20.5316 40.9555 20.7932 40.7747 21.0054C40.8248 21.0767 40.857 21.1589 40.8686 21.2453L40.7747 21.4226C40.8385 21.5221 40.8712 21.6382 40.8686 21.7563C40.7434 21.7563 40.6287 21.9441 40.514 22.3404H40.6079C40.3956 22.6541 40.2533 23.0098 40.1907 23.3833L40.441 23.2165H40.514V23.4772C40.2324 23.6858 40.0968 23.8422 40.0968 23.9674L40.0238 24.3846C40.1177 24.9999 40.2637 25.3024 40.441 25.3024V25.4692C40.441 25.5318 40.441 25.5527 40.3471 25.5527C40.5349 25.9907 40.6704 26.2202 40.7747 26.2202C40.879 26.2202 40.8686 26.2723 40.8686 26.3975C40.8686 26.5226 41.025 26.2619 41.1919 25.9803C41.3484 25.9803 41.4318 26.1159 41.4318 26.3975C41.5674 26.3975 41.6821 26.168 41.776 25.7196H41.9428V26.0533H42.0159V25.8864H42.1097L42.2662 25.9803C42.3635 25.7288 42.5088 25.4986 42.6938 25.3024V25.2294H42.5269V25.0625C42.8395 24.5328 43.0914 23.9695 43.2778 23.3833V23.3103C42.6617 23.0507 42.1356 22.6157 41.7647 22.0594C41.3938 21.5031 41.1946 20.8501 41.1919 20.1815L41.0981 20.2545ZM40.1907 20.9115L40.0968 21.4956C40.2048 21.3688 40.3513 21.2808 40.514 21.2453V21.0784C40.4011 21.0441 40.3 20.9791 40.222 20.8907L40.1907 20.9115ZM41.6821 26.4288V26.5018C41.7048 26.5054 41.7281 26.5035 41.75 26.4963C41.7718 26.4892 41.7917 26.477 41.808 26.4608C41.8243 26.4445 41.8364 26.4246 41.8436 26.4027C41.8507 26.3809 41.8525 26.3576 41.849 26.3349V26.2515C41.8128 26.26 41.7803 26.2798 41.756 26.3079C41.7317 26.3359 41.7168 26.3709 41.7134 26.4079L41.6821 26.4288ZM42.3601 24.2594H42.6938C42.6938 24.3324 42.6103 24.4159 42.433 24.5097L42.3601 24.3324V24.2594ZM42.9441 16.6563C42.699 17.3918 42.5278 18.15 42.433 18.9195C42.5478 18.9195 42.5999 18.9821 42.5999 19.0864C42.5302 19.2767 42.4744 19.4719 42.433 19.6704C42.4901 19.9168 42.5216 20.1685 42.5269 20.4213C42.4793 20.4901 42.4472 20.5684 42.433 20.6508C42.5582 20.6508 42.7251 20.9637 42.9441 21.5894C43.2987 22.0275 43.5177 22.2465 43.6011 22.2465V22.1735L43.5282 21.7563C43.5509 21.7599 43.5741 21.758 43.596 21.7509C43.6179 21.7438 43.6377 21.7316 43.654 21.7153C43.6703 21.6991 43.6825 21.6792 43.6896 21.6573C43.6967 21.6354 43.6986 21.6122 43.695 21.5894V21.4956H43.5282C43.7251 21.2929 43.8434 21.0267 43.8619 20.7447H43.695V20.4944C43.8098 20.4944 43.8619 20.4943 43.8619 20.4213L43.768 20.2545L43.9558 19.9103C43.9583 19.7922 43.9256 19.676 43.8619 19.5765C43.9353 19.1907 43.9841 18.8005 44.0079 18.4084V17.9183H43.914C43.914 18.0747 43.8619 18.1477 43.7472 18.1477L43.6533 17.9913C43.6533 17.9391 43.6533 17.9183 43.7472 17.9183C43.6308 17.4944 43.4324 17.0975 43.1631 16.7501V16.6563H42.9441ZM43.184 14.9875V15.2796H43.4343C43.3475 15.1881 43.2926 15.071 43.2778 14.9458L43.184 14.9875ZM44.2791 26.2515H44.446V26.3349C44.4495 26.3576 44.4476 26.3809 44.4405 26.4027C44.4334 26.4246 44.4212 26.4445 44.4049 26.4608C44.3887 26.477 44.3688 26.4892 44.3469 26.4963C44.325 26.5035 44.3018 26.5054 44.2791 26.5018V26.2515ZM44.5398 14.5704H44.6128C44.6343 14.5703 44.6555 14.5747 44.6752 14.5832C44.6949 14.5917 44.7126 14.6042 44.7273 14.6198C44.742 14.6355 44.7533 14.654 44.7605 14.6742C44.7677 14.6944 44.7707 14.7158 44.7693 14.7373L44.6128 14.8311L44.5398 14.6642V14.5704ZM44.5398 16.1661V16.3955H44.6963V16.3225C44.7028 16.3025 44.7045 16.2812 44.7013 16.2604C44.6982 16.2396 44.6902 16.2198 44.678 16.2026C44.6659 16.1854 44.6499 16.1712 44.6313 16.1613C44.6128 16.1513 44.5922 16.1458 44.5711 16.1452L44.5398 16.1661ZM45.6871 17.6575H45.9374C45.9374 17.7722 45.8852 17.8244 45.7809 17.8244L45.6871 17.6575Z" fill="#F6CD45"/>
    <path d="M51.4023 29.3178H51.3085C49.89 29.1092 49.2226 28.838 49.2226 28.5043C48.8575 28.5043 48.4612 28.1184 48.044 27.3361C47.9967 27.246 47.9716 27.1459 47.971 27.0441L48.4091 27.1171V26.8981C48.2374 26.9124 48.0668 26.9367 47.898 26.9711L47.679 26.6791V26.022H47.752L47.898 26.095C47.898 26.0012 47.9606 25.949 48.044 25.949V26.022L48.19 25.949H48.263V26.168C48.1871 26.1824 48.1134 26.2069 48.044 26.2411C48.0829 26.3084 48.1078 26.3829 48.117 26.4601C48.2089 26.4175 48.308 26.3928 48.4091 26.3871L48.5551 26.7521H48.6385V26.6061L48.19 25.511L48.044 25.584H47.752C47.606 25.5423 47.533 25.3962 47.533 25.1459C47.5442 24.967 47.594 24.7927 47.679 24.6349C47.679 24.395 47.5851 24.2699 47.46 24.2699V24.1968C47.606 24.1968 47.679 24.03 47.679 23.6858C47.6805 23.4405 47.656 23.1958 47.606 22.9557C47.679 22.9557 47.8041 22.7367 47.971 22.2987C47.9258 22.2924 47.8827 22.276 47.8448 22.2507C47.8069 22.2255 47.7751 22.1919 47.752 22.1527C48.1615 21.4827 48.4344 20.7383 48.5551 19.9624C48.6626 19.6734 48.8139 19.4025 49.0035 19.1594L48.9305 19.0133V18.9404C48.9305 18.9404 49.4207 18.179 50.3176 16.6667C50.3907 16.6667 50.5054 16.4998 50.6827 16.1557C51.2667 15.4986 51.5588 15.0397 51.5588 14.7685C51.7465 14.6747 51.8508 14.5495 51.8508 14.4035H52.2158C52.6081 14.0481 53.051 13.7528 53.53 13.5274L53.822 13.0894C53.822 12.9955 53.749 12.9434 53.603 12.9434V12.8704C53.8768 12.7089 54.1716 12.5861 54.4791 12.5053L56.3772 13.5483C57.0181 13.8447 57.6092 14.2388 58.1294 14.7164L57.9834 14.7894H57.5662V15.0084C58.2735 15.3943 58.9173 15.8868 59.4748 16.4686H59.5478V16.6146C59.4331 16.6146 59.2871 16.7397 59.0993 16.9796L59.1724 17.1256C59.1724 17.2299 59.1724 17.2716 59.0993 17.2716L59.1724 17.4176C59.1724 17.5636 59.0785 17.6367 59.0368 17.6367L59.0993 17.7827V17.8557L58.7447 18.5962L58.8073 18.7422V18.8152L58.7447 18.9612C58.8386 18.9612 58.8803 19.0134 58.8803 19.1072C58.8803 19.2011 58.6926 19.6287 58.2963 20.5674C58.4423 20.5674 58.5153 20.5674 58.5153 20.4944L58.6613 20.5674H58.7447V20.4213C58.8803 20.4213 58.9638 20.4214 58.9638 20.5674C58.4736 20.8594 58.2233 21.0471 58.2233 21.1514V21.2974L58.3693 21.2244H58.4423L57.9312 22.1735C57.8925 22.1735 57.8554 22.1889 57.828 22.2163C57.8006 22.2437 57.7852 22.2808 57.7852 22.3195C57.8374 22.3195 57.8582 22.3195 57.8582 22.3925C57.7923 22.4343 57.7171 22.4594 57.6392 22.4656C57.6359 22.4951 57.6393 22.525 57.6491 22.5531C57.6589 22.5812 57.675 22.6067 57.696 22.6278C57.717 22.6488 57.7426 22.6648 57.7706 22.6747C57.7987 22.6845 57.8287 22.6879 57.8582 22.6846V22.8306L57.6392 23.1226C57.7852 23.1226 57.9104 23.2165 58.0043 23.4146C57.9 23.8005 57.8269 23.9987 57.7852 23.9987L57.8582 24.1447V24.2177L57.5662 24.6662C57.608 24.7322 57.6331 24.8073 57.6392 24.8852L57.7852 24.8122C57.8895 24.8122 57.9312 24.8748 57.9312 24.9582C57.8144 25.0903 57.7162 25.2377 57.6392 25.3963L57.7852 25.4692H57.8582V25.3232H58.0043V25.7091C58.0154 25.8565 58.0607 25.9993 58.1368 26.1261C58.2128 26.2528 58.3175 26.36 58.4423 26.4392C58.4229 26.4392 58.4043 26.4469 58.3907 26.4606C58.377 26.4743 58.3693 26.4928 58.3693 26.5122C58.6822 26.5122 59.1932 26.0012 59.9129 24.9791L60.8619 23.3729C61.154 23.2895 61.3 23.2165 61.3 23.1539C61.2956 23.0526 61.2708 22.9533 61.227 22.8619C61.3209 22.8619 61.4877 22.549 61.738 21.9128H61.957V21.6938C62.4239 20.517 63.0111 19.3916 63.7092 18.3354L63.6362 18.179C63.9387 17.6992 64.1368 17.4489 64.2203 17.4489L63.7822 18.7005L63.8552 18.8465C63.7409 19.1237 63.691 19.4233 63.7092 19.7226H63.5632V20.2336C63.349 20.5765 63.1774 20.9443 63.0522 21.3287C63.0614 21.4059 63.0862 21.4804 63.1251 21.5478C63.0055 21.9928 62.8077 22.413 62.5411 22.7889L62.6141 22.9349C62.5517 23.1753 62.5029 23.419 62.4681 23.665H62.3951L62.2491 23.5919C62.199 23.832 62.1746 24.0768 62.1761 24.322H62.0301V24.541C62.0689 24.6665 62.0934 24.7959 62.1031 24.9269C62.0482 25.1496 61.9489 25.3589 61.811 25.5423C61.4954 26.0577 61.147 26.5524 60.7681 27.0233C60.6674 27.1831 60.5271 27.3141 60.3608 27.4037C60.1945 27.4932 60.0078 27.5382 59.819 27.5343C59.7668 27.5343 59.746 27.5343 59.746 27.4613C59.2802 27.6661 58.7828 27.7896 58.2754 27.8263C57.6673 27.7763 57.0775 27.5935 56.5477 27.2907C56.0179 26.988 55.561 26.5727 55.2091 26.0742C55.143 25.7267 54.9926 25.4008 54.7711 25.1251V25.0208C54.6668 24.9686 54.6042 24.8018 54.6042 24.5202C54.6505 23.9975 54.7306 23.4784 54.8441 22.9662V22.8619H54.6981L54.6251 23.1539H54.6981C54.6242 23.316 54.5749 23.4883 54.552 23.665H54.4269C54.3588 23.9424 54.2609 24.2116 54.1349 24.468C54.1542 24.468 54.1728 24.4757 54.1865 24.4894C54.2002 24.5031 54.2079 24.5217 54.2079 24.541L54.114 24.6036C53.968 24.6036 53.895 24.6975 53.895 24.8956H53.968V24.9686L53.895 25.1146H53.968C53.968 25.0625 53.968 25.0416 54.041 25.0416C54.114 25.0416 53.9158 25.3024 53.676 25.4067C53.6775 25.3871 53.6749 25.3674 53.6681 25.349C53.6613 25.3306 53.6506 25.3138 53.6367 25.3C53.6228 25.2861 53.6061 25.2753 53.5876 25.2686C53.5692 25.2618 53.5495 25.2591 53.53 25.2607C53.5697 25.4285 53.5942 25.5995 53.603 25.7717L53.311 26.0637V26.1368H53.457L52.7999 27.8159L52.6539 27.7429V27.7951C52.6928 27.8624 52.7176 27.9369 52.7269 28.0141C52.3564 28.3658 51.9387 28.6642 51.4858 28.9006C51.4858 28.9944 51.4858 29.0466 51.5588 29.0466C51.5483 29.2135 51.4753 29.3178 51.4023 29.3178ZM47.8876 24.6662V24.3742H47.8146C47.8084 24.452 47.7833 24.5272 47.7415 24.5932L47.8876 24.6662ZM47.9606 23.9361V23.7171H47.8146V23.9361H47.9606ZM48.0336 23.2791C48.0525 23.1475 48.1025 23.0223 48.1796 22.914C48.1696 22.9159 48.1593 22.9153 48.1496 22.9123C48.1399 22.9093 48.1311 22.9039 48.1239 22.8967C48.1167 22.8896 48.1113 22.8807 48.1083 22.871C48.1053 22.8613 48.1047 22.851 48.1066 22.841C48.1266 22.8447 48.1472 22.8436 48.1666 22.8375C48.186 22.8315 48.2037 22.8209 48.2181 22.8065C48.2325 22.7921 48.2431 22.7744 48.2491 22.755C48.2552 22.7356 48.2564 22.715 48.2526 22.695V22.549H48.0336L47.9606 22.987H48.0336C47.9898 23.0785 47.965 23.1778 47.9606 23.2791H48.0336ZM48.3986 21.6729L48.4821 21.3809V21.0158H48.3986C48.4239 21.245 48.3726 21.476 48.2526 21.6729H48.3986ZM48.3986 27.5864V27.3674C48.4023 27.3474 48.4012 27.3269 48.3951 27.3074C48.3891 27.288 48.3785 27.2703 48.3641 27.2559C48.3497 27.2416 48.332 27.2309 48.3126 27.2249C48.2932 27.2189 48.2726 27.2177 48.2526 27.2214V27.4404C48.2735 27.5135 48.3152 27.5552 48.3986 27.5552V27.5864ZM48.7011 27.0754L48.7741 26.9294L48.6281 26.8564L48.5446 27.0024L48.7011 27.0754ZM50.1612 26.9294C50.2342 26.9294 50.3072 26.8355 50.3802 26.6374C50.3376 26.4208 50.3132 26.201 50.3072 25.9803H50.5993V26.1993H50.4532V26.5644C50.5993 26.5644 50.6723 26.4496 50.6723 26.1993L50.8183 26.2723C50.8183 26.0325 50.8183 25.9073 50.9643 25.9073L51.1103 25.9803C51.2876 25.5944 51.4128 25.3963 51.4753 25.3963C51.5379 25.3963 51.4754 25.4692 51.5484 25.4692C51.5484 25.0312 51.6631 24.8122 51.9134 24.8122V24.5202H52.0594V24.6662H52.2054C52.2054 24.468 52.2576 24.3742 52.3514 24.3742C52.4453 24.3742 52.3514 24.4472 52.4244 24.4472C52.5051 24.2365 52.5543 24.0151 52.5704 23.7901C52.5704 23.7901 52.4975 23.7901 52.4975 23.7171C52.5209 23.5638 52.5703 23.4157 52.6435 23.2791C52.6239 23.2806 52.6042 23.2779 52.5858 23.2711C52.5673 23.2644 52.5506 23.2537 52.5367 23.2398C52.5228 23.2259 52.5121 23.2091 52.5053 23.1907C52.4986 23.1723 52.4959 23.1526 52.4975 23.133C52.4975 23.0943 52.5128 23.0572 52.5402 23.0298C52.5676 23.0024 52.6047 22.987 52.6435 22.987V23.133H52.7165V23.06C52.6656 22.9713 52.6403 22.8702 52.6435 22.768C52.6956 22.768 52.7165 22.768 52.7165 22.695L53.0815 22.914C53.0815 22.5698 53.1336 22.403 53.2275 22.403C53.2275 22.1631 53.1336 22.0379 53.0085 22.0379C52.8833 22.0379 53.0606 21.8189 53.1545 21.8189C53.2064 21.9072 53.2318 22.0086 53.2275 22.1109C53.3086 22.035 53.4101 21.9843 53.5195 21.9649L53.4465 21.5999H53.5195L53.6656 21.6729C53.6656 21.4747 53.7281 21.3809 53.8116 21.3809L53.7385 21.2348C54.3392 20.4658 54.808 19.6023 55.1257 18.6796L54.9067 18.8256C54.8871 18.8272 54.8674 18.8245 54.849 18.8177C54.8305 18.8109 54.8138 18.8002 54.7999 18.7863C54.786 18.7725 54.7753 18.7557 54.7685 18.7373C54.7618 18.7189 54.7591 18.6992 54.7606 18.6796C54.8962 18.3772 54.9901 18.2311 55.0527 18.2311L55.1257 18.6066H55.1987L55.2717 18.1581C55.2517 18.1619 55.2311 18.1607 55.2117 18.1547C55.1923 18.1487 55.1746 18.138 55.1602 18.1236C55.1458 18.1092 55.1352 18.0916 55.1292 18.0721C55.1231 18.0527 55.122 18.0321 55.1257 18.0121L55.6367 17.2091V17.136C55.0982 17.4847 54.6074 17.9019 54.1766 18.3772H54.1036L54.0306 17.9391C54.1318 17.9435 54.2312 17.9683 54.3226 18.0121C54.3208 18.0021 54.3213 17.9918 54.3243 17.9821C54.3274 17.9724 54.3327 17.9636 54.3399 17.9564C54.3471 17.9492 54.3559 17.9439 54.3656 17.9409C54.3753 17.9378 54.3856 17.9372 54.3956 17.9391L54.3226 17.7931C54.3226 17.741 54.4478 17.6158 54.6876 17.4281V17.5011C54.6487 17.5684 54.6239 17.6429 54.6147 17.7201C54.9067 17.4281 55.1048 17.2821 55.1987 17.2821V17.2091C54.9116 17.2232 54.6331 17.3114 54.39 17.4649C54.147 17.6183 53.9477 17.832 53.8116 18.0851C53.4913 18.2835 53.2199 18.5516 53.0176 18.8694C52.8154 19.1872 52.6875 19.5466 52.6435 19.9207C52.5809 19.858 52.5064 19.8084 52.4244 19.7747L52.3514 19.9207V19.9937H52.4975V20.1398C52.3827 20.1398 52.2367 20.2336 52.0594 20.4318L52.1324 20.5778L51.8404 21.1619L51.6944 21.0889H51.6213V21.1619C51.7152 21.1619 51.7674 21.1618 51.7674 21.2348L51.9134 21.1619H51.9864C51.9864 21.3079 51.9864 21.3809 51.8404 21.3809L51.6944 21.3079L51.6213 21.6729L51.4753 21.5999H51.4023V21.6729H51.5484C51.4964 21.8382 51.4718 22.0108 51.4753 22.1839C51.7674 22.2326 51.9134 22.3056 51.9134 22.403C51.8404 22.403 51.6944 22.5281 51.4753 22.768V22.5803C51.5124 22.5121 51.5371 22.438 51.5484 22.3613H51.4753C51.3808 22.4721 51.2526 22.5491 51.1103 22.5803L51.1833 22.7263V22.7993C51.006 22.7993 50.86 23.0705 50.7453 23.6024H50.6723L50.7453 23.9674C50.5471 24.0404 50.4532 24.1134 50.4532 24.1864H50.5263L50.6723 24.1134C50.6723 24.1134 50.6723 24.1864 50.7453 24.1864C50.8183 24.1864 50.7453 23.9674 50.8913 23.9674V24.1864L50.8183 24.3324L50.6723 24.2594C50.6427 24.2561 50.6128 24.2595 50.5847 24.2693C50.5566 24.2792 50.5311 24.2952 50.5101 24.3162C50.489 24.3373 50.473 24.3628 50.4631 24.3909C50.4533 24.4189 50.4499 24.4489 50.4532 24.4785C50.4532 24.5306 50.4532 24.5515 50.5263 24.5515C50.4764 24.7421 50.4518 24.9385 50.4532 25.1355C50.2029 25.1355 50.0882 25.3337 50.0882 25.7196H50.0152V26.0846L50.1612 26.0116V26.1576C50.0152 26.1576 49.9422 26.3558 49.9422 26.7417L50.1612 26.9294ZM50.3072 16.625H50.0882C50.0882 16.5311 50.1717 16.479 50.3072 16.479V16.625ZM50.7453 25.7613C50.5993 25.7613 50.5263 25.7613 50.5263 25.6153L50.6723 25.5423L50.5263 25.1772L50.7453 24.5202H50.8183C50.8183 24.6662 50.8183 24.7392 50.9643 24.7392C51.1103 24.7392 50.9121 24.9582 50.8183 24.9582C50.8201 24.9482 50.8195 24.9379 50.8165 24.9282C50.8135 24.9185 50.8082 24.9097 50.801 24.9025C50.7938 24.8953 50.785 24.89 50.7753 24.8869C50.7656 24.8839 50.7553 24.8833 50.7453 24.8852V25.7613ZM50.9643 24.0091C50.86 24.0091 50.8183 23.9361 50.8183 23.7901H50.9643V24.0091ZM51.6944 25.2502C51.7139 25.2518 51.7336 25.2491 51.7521 25.2423C51.7705 25.2356 51.7872 25.2248 51.8011 25.211C51.815 25.1971 51.8257 25.1803 51.8325 25.1619C51.8392 25.1435 51.842 25.1238 51.8404 25.1042V24.9582C51.7361 24.9582 51.6944 25.0208 51.6944 25.1042V25.2502ZM52.0594 21.6729C51.9134 21.6729 51.8404 21.6207 51.8404 21.5269C52.0053 21.401 52.1526 21.2537 52.2784 21.0889V21.2348C52.1656 21.3449 52.0892 21.4868 52.0594 21.6416V21.6729ZM52.3514 20.5778H52.2784C52.2784 20.5083 52.4244 20.3623 52.7165 20.1398H52.7895C52.7895 20.2232 52.6435 20.3588 52.3514 20.5465V20.5778ZM52.8625 13.7047H52.6435C52.6435 13.6317 52.7373 13.5378 52.9355 13.4127V13.4857C52.8981 13.5424 52.8732 13.6064 52.8625 13.6734V13.7047ZM52.9355 23.4251L53.0085 23.06C53.0101 23.0404 53.0073 23.0208 53.0006 23.0023C52.9938 22.9839 52.9831 22.9672 52.9692 22.9533C52.9553 22.9394 52.9386 22.9287 52.9202 22.9219C52.9017 22.9151 52.882 22.9124 52.8625 22.914L52.7895 23.206C52.8313 23.272 52.8563 23.3472 52.8625 23.4251H52.9355ZM53.0815 19.7747C53.0815 19.6287 53.1336 19.5557 53.2275 19.5557C53.3214 19.5557 53.1754 19.7434 53.0815 19.7434V19.7747ZM53.4465 13.1937H53.2275C53.2275 13.0998 53.3109 13.0476 53.4465 13.0476V13.1937ZM53.4465 21.5373H53.3005C53.3005 21.3913 53.3005 21.3183 53.4465 21.3183V21.5373ZM53.7385 24.0926C53.7581 24.0941 53.7778 24.0914 53.7962 24.0846C53.8147 24.0779 53.8314 24.0672 53.8453 24.0533C53.8592 24.0394 53.8699 24.0226 53.8767 24.0042C53.8835 23.9858 53.8861 23.9661 53.8846 23.9465V23.8005C53.8458 23.8005 53.8087 23.8159 53.7813 23.8433C53.7539 23.8707 53.7385 23.9078 53.7385 23.9465V24.0926ZM53.8846 24.2386C53.8846 24.2386 53.8846 24.2386 53.8846 24.1864C53.8846 24.1343 53.8846 24.1864 53.7594 24.1864V24.2594L53.8846 24.2386ZM54.0723 24.3846L54.1766 24.0196C54.2208 23.8608 54.2951 23.7121 54.3956 23.5815C54.5312 23.0913 54.6251 22.8514 54.6876 22.8514L54.6147 22.7054V22.5803L54.7606 22.6533H54.8337L54.9067 22.2882H54.7606V22.5073L54.3956 22.4342V22.8723C54.3197 22.9534 54.269 23.0549 54.2496 23.1643H54.1766V23.0183H54.0306C54.0112 23.1278 53.9605 23.2292 53.8846 23.3104V23.3833H54.0306C54.0306 23.4355 54.0306 23.4563 53.9576 23.4563L54.0306 23.7484V24.3324L54.0723 24.3846ZM54.4373 19.4514H54.2913C54.3514 19.4094 54.402 19.3552 54.4398 19.2923C54.4775 19.2294 54.5016 19.1592 54.5104 19.0864C54.5868 19.0864 54.6598 19.1594 54.7294 19.3054C54.6184 19.32 54.5156 19.3715 54.4373 19.4514ZM54.8962 23.9778C54.9024 23.9 54.9275 23.8248 54.9693 23.7588V23.6858H54.8232V23.9778H54.8962ZM54.9901 23.6128C55.0332 23.411 55.0997 23.215 55.1883 23.0287C55.1833 23.002 55.1691 22.978 55.1481 22.9608C55.1271 22.9436 55.1007 22.9344 55.0735 22.9349C55.022 22.9427 54.9724 22.9605 54.9275 22.987C54.9444 23.0485 54.9444 23.1133 54.9275 23.1748C54.9412 23.2716 54.9412 23.3699 54.9275 23.4668L54.9901 23.6128ZM55.1674 25.073C55.1741 24.9384 55.2255 24.8099 55.3134 24.7079V24.6662C55.0735 24.6662 54.9484 24.8122 54.9484 25.1042L55.0944 25.0312C55.1257 25.0521 55.1466 25.073 55.1987 25.073H55.1674ZM55.6785 23.4668V23.1748C55.5969 23.2245 55.5028 23.2498 55.4073 23.2478V23.3416C55.4086 23.3595 55.4134 23.3768 55.4215 23.3928C55.4296 23.4087 55.4407 23.4229 55.4543 23.4346C55.4678 23.4462 55.4836 23.455 55.5006 23.4606C55.5176 23.4661 55.5355 23.4682 55.5533 23.4668H55.6785ZM55.6054 23.8318C55.6054 23.738 55.5324 23.6858 55.3864 23.6858V23.8318H55.6054ZM55.5324 23.1017C55.552 23.1033 55.5717 23.1006 55.5901 23.0939C55.6086 23.0871 55.6253 23.0764 55.6392 23.0625C55.6531 23.0486 55.6638 23.0319 55.6706 23.0134C55.6773 22.995 55.68 22.9753 55.6785 22.9557V22.6637C55.5822 22.7022 55.4964 22.763 55.4282 22.841V23.0496L55.5324 23.1017ZM55.6054 25.949C55.6036 25.939 55.6042 25.9287 55.6072 25.919C55.6102 25.9093 55.6155 25.9005 55.6227 25.8933C55.6299 25.8861 55.6387 25.8807 55.6484 25.8777C55.6582 25.8747 55.6685 25.8741 55.6785 25.876C55.6054 25.6883 55.5325 25.584 55.4594 25.584V25.803C55.4803 25.9073 55.5533 25.949 55.6367 25.949H55.6054ZM55.6785 24.9061C55.6984 24.9098 55.719 24.9086 55.7385 24.9026C55.7579 24.8966 55.7756 24.8859 55.79 24.8715C55.8043 24.8572 55.815 24.8395 55.821 24.8201C55.827 24.8006 55.8282 24.78 55.8245 24.76V24.6662H55.6785V24.9061ZM55.9705 25.4901C55.9566 25.3426 55.9321 25.1962 55.8975 25.0521H55.8245L55.7515 25.4171L55.8975 25.4901H55.9705ZM57.3576 24.322C57.3543 24.2925 57.3577 24.2625 57.3675 24.2344C57.3773 24.2063 57.3934 24.1808 57.4144 24.1598C57.4355 24.1388 57.461 24.1227 57.489 24.1129C57.5171 24.103 57.5471 24.0997 57.5766 24.103V23.957H57.5662C57.5002 23.9988 57.4251 24.0238 57.3472 24.03V24.322H57.3576ZM57.4306 23.665L57.5036 23.3729C57.4098 23.3729 57.3576 23.4668 57.3576 23.665H57.4306ZM57.4306 26.2202C57.5349 26.2202 57.5766 26.2202 57.5766 26.0742C57.5766 25.9282 57.5036 25.9282 57.3576 25.9282V26.2202H57.4306ZM58.2337 20.5256V20.3796C58.0877 20.3796 58.0147 20.3796 58.0147 20.5256H58.2337ZM58.5987 21.4017H58.6092V21.1827L58.9012 21.1097C58.899 21.1885 58.8681 21.2638 58.8144 21.3214C58.7606 21.379 58.6876 21.415 58.6092 21.4226L58.5987 21.4017ZM58.5987 20.4526C58.5987 20.3066 58.6509 20.2336 58.7552 20.2336C58.776 20.4074 58.7274 20.4944 58.6092 20.4944L58.5987 20.4526ZM62.3638 24.3011H62.2908V24.2281C62.3326 24.1622 62.3577 24.087 62.3638 24.0091C62.4681 24.0091 62.5098 24.0717 62.5098 24.1551C62.5098 24.2386 62.4994 24.322 62.3951 24.322L62.3638 24.3011Z" fill="#F6CD45"/>
    <path d="M68.5901 30.1208C68.5379 30.246 68.4858 30.3815 68.4232 30.5171L68.371 30.4441C68.3473 30.4973 68.3157 30.5465 68.2772 30.5901C68.1729 30.5901 67.9956 30.7049 67.7557 30.9343H67.4011C67.3281 30.9343 67.2968 30.9343 67.2968 30.8613L67.1091 30.9343H66.0661C65.4537 30.9874 64.8428 30.817 64.3462 30.4546C63.8497 30.0923 63.5011 29.5625 63.3648 28.9631C63.2293 28.9631 63.1041 28.7232 62.9998 28.2331H63.0833C63.0018 27.978 62.8785 27.7383 62.7182 27.5238V27.2527H62.9059V27.0649C62.6035 27.0649 62.447 26.6477 62.447 25.8029H62.5409L62.7182 25.8968V25.0729H62.6348L62.5409 25.5318L62.374 25.4379C62.4473 24.8728 62.6019 24.3213 62.8329 23.8005C62.7672 23.474 62.7289 23.1426 62.7182 22.8097V22.3508L62.8329 21.8189V21.5373H62.9059V21.287C62.8294 21.2032 62.7661 21.1082 62.7182 21.0053V20.6403C62.7194 20.51 62.7593 20.3829 62.8329 20.2753C62.7581 20.1683 62.7181 20.0408 62.7182 19.9103V19.6391C62.7182 19.5244 62.8121 19.4722 62.9998 19.4722V19.1802H62.7808V18.9299H62.9477C62.933 18.7455 62.8759 18.567 62.7808 18.4084C62.7808 18.1789 62.8747 18.0642 62.9477 18.0642L62.8538 17.8765C62.9581 17.1464 63.0728 16.7814 63.198 16.7814L63.0311 16.4372C63.3401 15.5881 63.5501 14.7062 63.6569 13.809L63.5839 13.6212V13.4439C63.709 13.3083 63.7612 13.2145 63.7612 13.1623C63.7621 13.0397 63.7257 12.9197 63.6569 12.8182L63.8342 12.3593L63.8237 12.1507C64.0115 11.5875 64.3452 10.1482 64.8667 7.81197C65.4259 6.00092 65.8786 4.15868 66.2225 2.29472L66.0348 2.04442L66.2225 1.95056C67.8391 2.54505 68.6526 3.08738 68.6526 3.57757C68.94 4.26886 69.0922 5.00878 69.1011 5.75734H69.0177L69.1011 5.91378V7.19663C69.1011 7.2592 69.1011 7.29049 69.0177 7.29049C69.0674 7.36496 69.0962 7.45139 69.1011 7.54079C68.9551 8.68804 68.8404 9.26169 68.7361 9.26169C68.7861 9.34448 68.818 9.43686 68.8299 9.53284C68.6318 10.3881 68.4857 10.8157 68.371 10.8157L68.4858 10.9826C68.4255 11.4743 68.2306 11.9399 67.9226 12.328C68.0477 12.328 68.1207 12.4218 68.1207 12.5991L67.8495 13.131C67.8539 13.229 67.8787 13.3249 67.9226 13.4126L67.8495 13.8611C67.8956 13.9774 67.9203 14.1011 67.9226 14.2261L67.7557 14.32C67.7574 14.3073 67.7562 14.2943 67.752 14.2822C67.7479 14.27 67.7411 14.2589 67.732 14.2498C67.7229 14.2407 67.7119 14.2339 67.6997 14.2298C67.6875 14.2257 67.6745 14.2244 67.6618 14.2261C67.6443 14.3619 67.5861 14.4891 67.4949 14.5912V14.685C67.6722 14.685 67.7557 14.7372 67.7557 14.8519C67.7557 14.9666 67.6931 15.0292 67.568 15.0292L67.6618 15.2378C67.6618 15.3525 67.6618 15.4151 67.4949 15.4151L67.568 15.582C67.5189 15.8919 67.4276 16.1937 67.2968 16.4789L67.4949 16.5832C67.3594 17.5532 67.2342 18.0329 67.1091 18.0329C67.21 18.1594 67.2748 18.3107 67.2968 18.471C67.2968 19.0133 67.2133 19.2949 67.1091 19.2949C67.2045 19.5896 67.2674 19.8939 67.2968 20.2023C67.2029 20.2023 67.0778 20.317 66.9318 20.5464V20.8281L67.1091 20.7342H67.2029C67.125 20.961 67.0086 21.1727 66.8588 21.3599V21.4643C67.0256 21.4643 67.1091 21.5268 67.1091 21.652V21.8084C66.9035 21.9932 66.7797 22.2521 66.7649 22.5281H66.9318C66.9101 22.8119 66.8541 23.0921 66.7649 23.3624C66.8521 23.4075 66.9483 23.4325 67.0465 23.4355V23.5293C66.7857 23.5293 66.598 23.8943 66.4729 24.6244L66.5876 24.8122V25.0625L66.4729 25.6152V25.7091H66.5876V25.5422H66.7649V25.6361C66.6189 25.9907 66.4937 26.1576 66.3998 26.1576C66.4448 26.7822 66.5675 27.3988 66.7649 27.9932L66.6606 28.4312H66.8588C67.6931 27.2109 68.3606 26.1784 68.8299 25.3023L68.976 25.4483C69.1913 24.9932 69.4763 24.5745 69.8207 24.2072C69.9563 23.6962 70.1024 23.4355 70.2588 23.4355V23.4876L70.3839 23.3416V23.1538C70.3839 23.1538 70.384 23.0704 70.2901 23.06C70.6971 22.5995 71.0473 22.0918 71.333 21.5477C71.3017 21.5426 71.2735 21.5257 71.2541 21.5005C71.2347 21.4753 71.2257 21.4437 71.2287 21.4121C71.9872 20.4366 72.6474 19.3885 73.1999 18.2832H73.3877V18.5544L72.9496 19.0655C72.9894 19.1324 73.0143 19.2071 73.0226 19.2845L72.8036 19.6287C72.8329 19.7163 72.8505 19.8075 72.8557 19.8998C72.6367 20.3066 72.2508 21.2348 71.6876 22.6949V22.7888H71.8545V22.9661C71.4583 23.5787 71.1461 24.2417 70.9263 24.9373L70.6551 25.198C70.6551 25.125 70.6551 25.0833 70.5612 25.0833V25.198C70.5911 25.2675 70.6087 25.3416 70.6134 25.4171V25.4692L70.5091 25.6361L70.8116 26.1159C70.6343 26.1159 70.457 26.2827 70.2588 26.6269L70.5717 26.9294C70.3133 27.6364 69.9626 28.3062 69.5287 28.9214C69.3946 29.0377 69.2723 29.1669 69.1637 29.3073V29.3803H69.0698L68.5901 30.1208ZM62.4158 23.8631H62.6035V24.1342H62.4158V23.8631ZM65.2317 19.4409C65.2317 19.5974 65.044 19.7434 64.6581 19.879L64.4078 20.3379V20.5152C64.4078 20.6403 64.4704 20.7029 64.5955 20.7029H64.6581V20.5152H64.5017L64.5955 20.3379L64.7728 20.4317C64.8563 20.4317 64.9502 20.3483 65.044 20.171L64.9397 19.9937H65.044C65.1692 19.9937 65.2317 20.0667 65.2317 20.171C65.0861 20.5059 64.869 20.805 64.5955 21.0471L64.0636 20.7968C63.8029 20.7968 63.6777 20.9011 63.6777 21.0471H63.6047L63.417 20.9741L63.2188 21.2557V21.3287C63.3544 21.3287 63.417 21.3808 63.417 21.506H63.49V21.3287H63.6777V21.5373L63.3336 22.5281V23.2581H63.417V23.0913H63.6047C63.4522 23.4117 63.3232 23.7429 63.2188 24.0821V24.4262C63.2188 24.5618 63.3127 24.6244 63.417 24.6244C63.5213 24.6244 63.417 24.4262 63.49 24.4262L63.855 24.6244L64.0636 24.3533C63.9281 24.3533 63.855 24.2907 63.855 24.1655V23.717H64.0636V23.5293H63.8237V23.3624C63.8237 23.2686 63.9176 23.1747 64.1053 23.0913H64.2827C64.3241 23.2666 64.3555 23.4442 64.3765 23.6232C64.2826 23.6232 64.1679 23.8318 64.0324 24.2385C64.1992 24.2385 64.2827 24.3324 64.2827 24.5201L64.1888 24.9686C64.3139 24.9686 64.3765 24.8226 64.3765 24.5201H64.5642V24.6661H65.0127L65.0857 25.2293C64.971 25.2293 64.9084 25.3023 64.9084 25.3962V25.7612C65.1518 25.7612 65.3395 25.2815 65.4716 24.322C65.4164 24.2408 65.3807 24.148 65.3673 24.0508C65.6211 23.706 65.7761 23.2985 65.8158 22.8722C65.7011 22.8722 65.6385 22.7888 65.6385 22.6011H65.5446C65.4145 22.8278 65.3229 23.0745 65.2735 23.3312H65.0857C65.2839 22.1109 65.4925 21.506 65.7323 21.506L65.9097 21.6207C65.9425 21.2477 66.0053 20.878 66.0974 20.5152V20.4943H66.0035C65.8888 21.0366 65.7741 21.3183 65.6385 21.3183V21.2244L65.2735 21.3912C65.27 21.2697 65.2453 21.1497 65.2005 21.0366C65.2005 20.5256 65.2735 20.1084 65.2735 19.7747V19.4514L65.2317 19.4409ZM63.6777 20.171C63.7581 20.1143 63.8513 20.0785 63.9489 20.0667V20.171C63.9525 20.1937 63.9506 20.217 63.9435 20.2389C63.9364 20.2607 63.9242 20.2806 63.9079 20.2969C63.8916 20.3131 63.8718 20.3253 63.8499 20.3325C63.828 20.3396 63.8047 20.3414 63.782 20.3379L63.6047 20.244L63.3336 20.7029C63.3336 20.8072 63.3961 20.8698 63.49 20.8698C63.9176 20.6507 64.1366 20.5047 64.1366 20.4317L64.2201 20.244L64.1366 20.0667C64.1952 19.4576 64.3175 18.8563 64.5017 18.2728C64.2404 18.5237 64.0326 18.825 63.891 19.1584C63.7494 19.4918 63.6768 19.8505 63.6777 20.2127V20.171ZM63.6047 25.125C63.6047 25.3023 63.5421 25.3962 63.417 25.3962V25.7091H63.6047V25.8134C63.6047 25.876 63.6047 25.9073 63.49 25.9073L63.6047 26.0845C63.5016 26.2136 63.4365 26.369 63.417 26.533C63.5421 26.533 63.6047 26.6164 63.6047 26.7103C63.5855 26.9681 63.4912 27.2147 63.3336 27.4195C63.3857 27.4195 63.417 27.4195 63.417 27.5343L63.6047 27.4195H63.8237L63.8968 27.9932H63.9906V27.8784L63.7194 26.8355C63.7194 26.7729 63.7195 26.7416 63.8237 26.7416L63.7194 26.3036V26.1159C63.7194 26.0428 63.7195 26.0116 63.8237 26.0116L63.7194 25.8447V25.7091C63.7194 25.6569 63.7195 25.6361 63.8237 25.6361C63.7457 25.4963 63.7095 25.337 63.7194 25.1772L63.6047 25.125ZM64.0636 21.6937H64.1366C64.2305 21.6937 64.3244 21.7771 64.4078 21.9649V22.309H64.3139C64.2514 22.309 64.1366 22.1943 63.9489 21.9649C64.0008 21.896 64.0397 21.8183 64.0636 21.7354V21.6937ZM63.9489 25.7612V26.2201C63.9744 26.2236 64.0003 26.2211 64.0246 26.2129C64.049 26.2047 64.0711 26.1909 64.0893 26.1728C64.1074 26.1546 64.1211 26.1325 64.1294 26.1081C64.1376 26.0838 64.1401 26.0579 64.1366 26.0324V25.7612H63.9489ZM64.0636 26.6582V26.8459H64.1366C64.2513 26.8459 64.3139 26.7833 64.3139 26.6582V26.5643C64.246 26.6453 64.1604 26.7095 64.0636 26.752V26.6582ZM64.0636 27.2109V27.3674H64.2201V27.0232C64.1926 27.0229 64.1655 27.0294 64.1411 27.0421C64.1168 27.0548 64.0959 27.0734 64.0804 27.0961C64.065 27.1188 64.0553 27.1449 64.0524 27.1722C64.0495 27.1996 64.0533 27.2272 64.0636 27.2527V27.2109ZM64.0636 28.9214V29.203H64.2201C64.1764 29.1146 64.1482 29.0193 64.1366 28.9214H64.0636ZM64.2201 28.0975C64.2706 28.1838 64.3026 28.2797 64.3139 28.3791H64.4078V28.0975H64.2201ZM64.5017 21.2557C64.5241 21.2555 64.5463 21.2601 64.5668 21.2692C64.5873 21.2784 64.6055 21.2918 64.6204 21.3086C64.6352 21.3254 64.6463 21.3452 64.6528 21.3667C64.6593 21.3881 64.6611 21.4107 64.6581 21.433C64.5865 21.5099 64.5017 21.5734 64.4078 21.6207H64.3139V21.433C64.3452 21.3495 64.3974 21.2974 64.5017 21.2974V21.2557ZM64.5955 23.9569L64.6581 24.1342H64.4078C64.4176 24.0929 64.442 24.0564 64.4765 24.0315C64.5109 24.0066 64.5532 23.995 64.5955 23.9986V23.9569ZM64.5955 24.8539C64.5955 25.1563 64.533 25.3023 64.4078 25.3023L64.5017 25.7612C64.4797 25.8783 64.4483 25.9934 64.4078 26.1054H64.5955V26.2931C64.6006 26.4214 64.5679 26.5483 64.5017 26.6582V26.752H64.5955L64.6581 26.2931V26.2201L64.5955 26.0324C64.7102 26.0324 64.7728 26.0324 64.7728 25.9281C64.7626 25.8283 64.7227 25.7338 64.6581 25.657C64.6581 25.3023 64.752 25.125 64.9397 25.125C64.8996 25.0396 64.8749 24.9478 64.8667 24.8539H64.5955ZM64.5017 19.2636V19.4514H64.5955L64.6581 18.9925C64.5538 19.0133 64.5017 19.1176 64.5017 19.3053V19.2636ZM64.9397 21.3495H65.3048V21.7146C65.0776 22.0158 64.95 22.3804 64.9397 22.7575H64.6581C64.5538 22.7575 64.5017 22.7054 64.5017 22.5907C64.5017 22.4759 64.6581 22.5281 64.6581 22.4133C64.6243 22.3228 64.6032 22.2281 64.5955 22.1318C64.7021 22.0773 64.82 22.0487 64.9397 22.0483C64.9375 21.9232 64.9127 21.7996 64.8667 21.6833C64.9071 21.5834 64.9317 21.4778 64.9397 21.3704V21.3495ZM64.5017 27.3152C64.5885 27.4189 64.6429 27.5459 64.6581 27.6803H64.7728V27.3152H64.5017ZM64.6581 23.1434H64.8667V23.2373C64.8152 23.3193 64.7831 23.4121 64.7728 23.5085H64.5955V23.4146C64.6276 23.338 64.6487 23.2572 64.6581 23.1747V23.1434ZM65.5029 17.3654V17.647C65.6176 17.647 65.6698 17.5845 65.6698 17.4593V17.3654H65.5029ZM66.2121 19.1593L65.8471 20.2544H66.0348C66.0583 19.9127 66.1505 19.5793 66.306 19.274V19.1593H66.2121ZM65.9409 26.9398C65.8598 27.112 65.8273 27.3032 65.8471 27.4925H65.9097V27.5655L65.8158 27.7429H65.9097L66.0974 27.6698L66.0035 27.4925L66.1808 27.1066L65.9409 26.9398ZM66.9839 22.0692V22.3195H66.8066V22.2465C66.8587 22.1526 66.9526 22.1005 67.0152 22.1005L66.9839 22.0692Z" fill="#F6CD45"/>
    <path d="M73.346 25.0938H73.492C73.4982 25.1716 73.5232 25.2468 73.565 25.3128C73.575 25.3146 73.5853 25.3141 73.5951 25.311C73.6048 25.308 73.6136 25.3027 73.6208 25.2955C73.628 25.2883 73.6333 25.2795 73.6363 25.2698C73.6393 25.26 73.6399 25.2497 73.6381 25.2397C74.3452 25.3318 75.0074 25.6375 75.5362 26.1159C75.8134 26.3734 76.0153 26.7014 76.1203 27.0649C75.9326 28.3373 75.7865 28.9631 75.6822 28.9631L75.7553 29.1091V29.1821C75.7028 29.3141 75.6239 29.434 75.5235 29.5344C75.4231 29.6349 75.3032 29.7137 75.1712 29.7662L75.0982 29.6202C75.1082 29.622 75.1185 29.6214 75.1282 29.6184C75.1379 29.6154 75.1467 29.6101 75.1539 29.6029C75.1611 29.5957 75.1664 29.5869 75.1695 29.5772C75.1725 29.5675 75.1731 29.5572 75.1712 29.5472H75.0252C74.9626 29.6099 74.8881 29.6595 74.8062 29.6932L74.6602 29.6202C74.6639 29.6402 74.6627 29.6608 74.6567 29.6802C74.6506 29.6996 74.64 29.7173 74.6256 29.7317C74.6113 29.746 74.5936 29.7567 74.5742 29.7627C74.5547 29.7687 74.5341 29.7699 74.5141 29.7662L74.0761 29.4741H73.9301C73.9176 29.5644 73.8848 29.6508 73.8342 29.7266C73.7836 29.8025 73.7166 29.8659 73.6381 29.9122C73.6574 29.9122 73.676 29.9199 73.6897 29.9336C73.7034 29.9473 73.7111 29.9659 73.7111 29.9852C73.6328 30.0652 73.53 30.1165 73.419 30.1312C73.171 30.0317 72.9454 29.8835 72.7555 29.6954C72.5657 29.5074 72.4154 29.2832 72.3135 29.0361C72.2946 28.8587 72.2451 28.6858 72.1675 28.5251C72.1674 28.5146 72.1695 28.5041 72.1739 28.4945C72.1782 28.4849 72.1845 28.4763 72.1924 28.4694C72.2003 28.4624 72.2097 28.4573 72.2198 28.4543C72.2299 28.4513 72.2405 28.4506 72.2509 28.4521L72.1675 27.576V27.1379C72.1675 27.0858 72.1675 27.0649 72.2509 27.0649L72.1675 26.9189V26.8459C72.1675 26.8459 72.1675 26.7729 72.2509 26.7729C72.3343 26.7729 72.2509 26.6999 72.1675 26.6999C72.2447 26.3393 72.2935 25.9731 72.3135 25.6048H72.47C72.5442 25.6834 72.6354 25.744 72.7366 25.782C72.8378 25.8199 72.9464 25.8342 73.054 25.8238L73.127 25.3858C73.0749 25.3858 73.054 25.3858 73.054 25.3128L73.346 25.0938Z" fill="#F6CD45"/>
    <path d="M83.1706 29.203L83.0246 29.13C82.9467 29.1362 82.8715 29.1612 82.8056 29.203C82.5565 29.1892 82.3107 29.1401 82.0755 29.057C81.9625 29.1134 81.8364 29.1386 81.7104 29.13C81.2079 28.9775 80.7194 28.7821 80.2503 28.546C79.9722 28.215 79.6533 27.9207 79.3012 27.6699C78.4582 26.9105 77.9144 25.8747 77.7681 24.7496L77.6221 23.9465C77.7012 23.7571 77.7505 23.5566 77.7681 23.352C77.766 23.2491 77.7373 23.1485 77.6846 23.06C77.743 22.7471 77.7709 22.4292 77.7681 22.1109C77.7681 22.017 77.8411 21.9649 77.9871 21.9649V21.8189H77.8411V21.5373C77.9662 21.5373 78.0914 21.2766 78.2061 20.7342L78.0601 20.8072H77.9871C78.0916 20.7353 78.1742 20.6358 78.2257 20.5199C78.2773 20.4039 78.2957 20.276 78.2791 20.1502H78.2061C78.3969 19.9774 78.5252 19.7464 78.5712 19.4931L78.4251 19.5661C78.4139 19.4894 78.3892 19.4152 78.3521 19.3471C78.4251 19.3471 78.519 19.2219 78.6441 18.982L78.5712 18.836C78.7589 18.836 79.0092 18.3771 79.3012 17.4489C79.7932 16.3423 80.4053 15.293 81.1264 14.32C81.6266 13.537 82.2419 12.8338 82.9516 12.2341V12.1507H83.0246C83.7119 12.5792 84.4841 12.8532 85.2878 12.9538C85.461 13.0753 85.6083 13.2302 85.7211 13.4093C85.8339 13.5883 85.9099 13.788 85.9448 13.9967C86.289 14.2366 86.4559 14.4556 86.4559 14.6538C86.2451 16.2549 85.9281 17.8402 85.5068 19.3993L85.3608 19.4722C84.3178 19.2324 83.8276 18.69 83.8276 17.8661H83.9006L84.0467 17.9391C84.0616 17.6132 84.1908 17.303 84.4117 17.063C84.4681 16.95 84.4933 16.824 84.4847 16.698C84.4263 16.6319 84.3772 16.5583 84.3387 16.479H84.5577C84.5577 16.479 84.5577 16.4059 84.4847 16.4059C84.513 16.1589 84.5618 15.9148 84.6307 15.6759C84.5672 15.5135 84.5422 15.3386 84.5577 15.1649C84.0443 15.6709 83.6675 16.2989 83.4626 16.99C83.4626 17.2821 83.4105 17.428 83.3166 17.428L83.3896 17.5741V17.6471C83.2112 17.793 83.0149 17.9156 82.8056 18.0121V18.0851H82.9516C83.0175 18.0433 83.0927 18.0182 83.1706 18.0121L83.0976 18.1581C83.1394 18.2241 83.1644 18.2993 83.1706 18.3771C83.0663 18.3771 82.9203 18.6483 82.7325 19.1802C82.7743 19.2462 82.7994 19.3214 82.8056 19.3993C82.524 19.3993 82.3571 19.6391 82.2945 20.1293L82.1485 20.2023H82.0755L81.9294 20.1293C81.9294 20.2336 81.8565 20.2753 81.7104 20.2753V20.1293L81.8565 19.9103H81.7104C81.7104 20.0772 81.5123 20.3275 81.1264 20.6404L81.0534 20.7864V20.8594H81.1264V20.7134H81.2724V21.0054H81.1994C81.1313 20.9683 81.0571 20.9436 80.9804 20.9324C80.9804 21.0054 80.8761 21.0784 80.6884 21.1514L80.5423 21.0784C80.475 21.1173 80.4005 21.1422 80.3233 21.1514V21.4434C80.6153 21.4434 80.7613 21.3704 80.7613 21.2244H81.1264V21.4434C81.3518 21.3063 81.5986 21.2076 81.8565 21.1514V21.2244L81.4184 21.8085H81.554V21.9545C81.247 22.289 80.9777 22.6562 80.7509 23.0496L80.6049 22.9766C80.5006 23.2269 80.4276 23.3416 80.3859 23.3416L80.6049 23.6441C80.474 23.8661 80.3989 24.1167 80.3859 24.3741L80.6779 24.5932H80.7509L80.6779 24.4472C80.6779 24.3429 80.6779 24.3011 80.7509 24.3011L80.6779 24.1551C80.7358 23.497 80.962 22.8648 81.335 22.3195C81.335 22.2674 81.4289 22.2152 81.627 22.1735C81.6174 22.2996 81.6426 22.4259 81.7 22.5385C81.3739 22.9152 81.1035 23.3367 80.8969 23.7901C80.9781 23.866 81.0795 23.9167 81.189 23.9361V24.3011C81.0851 24.6593 81.0118 25.0257 80.9699 25.3962H81.043V25.7091C81.0448 25.7191 81.0442 25.7294 81.0412 25.7391C81.0382 25.7488 81.0329 25.7577 81.0257 25.7649C81.0185 25.772 81.0097 25.7774 81 25.7804C80.9902 25.7834 80.9799 25.784 80.9699 25.7821L81.043 25.9281L80.9699 26.4392C81.0221 26.919 81.1368 27.1693 81.335 27.1693V27.2423L81.262 27.3883C81.3358 27.3934 81.4073 27.416 81.4707 27.454C81.5342 27.4921 81.5877 27.5446 81.627 27.6073C82.839 27.4469 83.9398 26.8179 84.6933 25.8551C85.5523 24.9409 86.3013 23.9293 86.9252 22.841C87.5799 22.1313 88.144 21.3431 88.6044 20.4943L88.7504 20.5674C88.9673 19.9487 89.2617 19.36 89.6265 18.8152H89.6995L89.7725 19.2532L89.9185 19.1802V19.2532L89.8455 19.3993C89.8555 19.3974 89.8658 19.398 89.8755 19.401C89.8852 19.404 89.894 19.4093 89.9012 19.4165C89.9084 19.4237 89.9138 19.4325 89.9168 19.4423C89.9198 19.452 89.9204 19.4622 89.9185 19.4722C89.8142 19.4722 89.7099 19.5765 89.6265 19.7643L89.6995 20.1293C89.49 20.4628 89.3647 20.8422 89.3344 21.2348C89.1363 21.2348 89.0424 21.3496 89.0424 21.5999L89.1154 21.9649L89.2615 21.8919V21.9649C88.9296 22.4199 88.705 22.944 88.6044 23.4981C88.3503 23.8163 88.1399 24.1671 87.9786 24.541C87.631 25.1807 87.4119 25.6083 87.3215 25.8238C86.9236 26.3248 86.5744 26.8627 86.2786 27.43C85.9241 27.7058 85.6053 28.0246 85.3295 28.3791C85.132 28.4184 84.9526 28.5209 84.8185 28.6711C84.7246 28.6711 84.6724 28.6711 84.6724 28.5981C84.2744 28.8725 83.8288 29.0706 83.3583 29.1821C83.3583 29.1821 83.3583 29.1092 83.2853 29.1092C83.2774 29.1343 83.2623 29.1565 83.2419 29.1731C83.2215 29.1898 83.1967 29.2002 83.1706 29.203ZM78.4251 24.8226V24.4576H78.3521V24.8226H78.4251ZM80.511 26.3557V26.0637L80.365 25.8447V25.7717L80.8761 25.1876V25.0416C80.8761 25.0416 80.7196 25.1563 80.511 25.4067C80.5129 25.3967 80.5123 25.3864 80.5093 25.3767C80.5063 25.367 80.501 25.3581 80.4938 25.3509C80.4866 25.3437 80.4778 25.3384 80.468 25.3354C80.4583 25.3324 80.448 25.3318 80.438 25.3337C80.4329 25.4075 80.4104 25.479 80.3723 25.5424C80.3342 25.6059 80.2817 25.6594 80.219 25.6987C80.2712 26.1367 80.365 26.3557 80.511 26.3557ZM80.7301 22.768C80.8239 22.768 80.897 22.6011 80.9491 22.2569C80.8761 22.2569 80.7718 22.3612 80.6571 22.549C80.6764 22.549 80.695 22.5567 80.7087 22.5704C80.7224 22.584 80.7301 22.6026 80.7301 22.622C80.6258 22.622 80.5841 22.6845 80.5841 22.768H80.7301ZM80.6571 25.8968C80.7336 25.8968 80.8066 25.8238 80.8761 25.6778V25.6048C80.774 25.6027 80.6732 25.6279 80.5841 25.6778C80.6092 25.7552 80.6199 25.8365 80.6153 25.9177L80.6571 25.8968ZM81.8982 22.1631C81.7521 22.1631 81.6791 22.1631 81.6791 22.017H81.8982V22.1631ZM82.4822 18.5127C82.5553 18.5127 82.6491 18.4189 82.7743 18.2207V18.0747H82.597C82.5694 18.2393 82.4931 18.3919 82.3779 18.5127H82.4822ZM82.4822 18.8048C82.5587 18.8048 82.6317 18.7318 82.7013 18.5857C82.5031 18.5857 82.4092 18.6587 82.4092 18.8048H82.4822ZM82.6282 19.8477H82.5552C82.5519 19.8181 82.5553 19.7882 82.5651 19.7601C82.575 19.732 82.591 19.7065 82.612 19.6855C82.6331 19.6644 82.6586 19.6484 82.6867 19.6386C82.7148 19.6288 82.7447 19.6254 82.7743 19.6287C82.7326 19.7747 82.6804 19.8477 82.597 19.8477H82.6282Z" fill="#F6CD45"/>
    <path d="M92.6721 13.1937L92.839 13.2667C92.9178 13.2285 93.0024 13.2038 93.0893 13.1937C93.8837 13.3712 94.6087 13.7772 95.1752 14.3618C95.1752 14.4765 95.0605 14.5286 94.8415 14.5286V14.6225C94.8415 14.6747 95.0083 14.7789 95.3421 14.9458L95.509 14.8624C95.8489 15.071 96.1347 15.3569 96.3433 15.6968L96.1764 15.7906C96.155 15.7078 96.1118 15.6322 96.0513 15.5716C95.9907 15.5111 95.9151 15.4679 95.8323 15.4465L95.7593 15.6029C95.7593 15.6655 95.9261 15.7802 96.2494 15.9575L96.4163 15.8636H96.5102V15.9575L96.4163 16.1244C96.5311 16.1244 96.5832 16.1869 96.5832 16.2808V16.3538L96.5102 16.5415C96.6771 16.5415 96.8231 16.8961 96.9274 17.5845H97.0004V17.6784L96.9274 17.8452C97.0004 17.8452 97.1151 18.0017 97.2611 18.3354C97.2627 18.3577 97.2594 18.3801 97.2516 18.4011C97.2437 18.422 97.2315 18.441 97.2157 18.4569C97.1999 18.4727 97.1809 18.4849 97.1599 18.4928C97.139 18.5006 97.1166 18.5038 97.0942 18.5023L97.1673 18.9195V19.2532H97.3446V19.4514H97.1985V19.6391C97.2113 19.6408 97.2242 19.6396 97.2364 19.6355C97.2486 19.6314 97.2596 19.6245 97.2687 19.6154C97.2778 19.6064 97.2847 19.5953 97.2888 19.5831C97.2929 19.571 97.2941 19.558 97.2924 19.5453C97.3665 19.5973 97.4526 19.6297 97.5427 19.6391C97.5427 19.9103 97.4593 20.0355 97.2924 20.0355V20.2232L97.4488 20.4631V20.7134L97.1985 21.0471L97.2924 21.214C97.1377 21.5595 97.0493 21.931 97.0317 22.3091H97.1255C97.7166 22.1918 98.2459 21.8661 98.6169 21.3913L98.7838 21.4643H98.8777C98.8777 21.3287 99.2114 20.9741 99.9206 20.4213C100.056 20.0751 100.254 19.7569 100.505 19.4827C100.777 18.8883 101.083 18.3102 101.423 17.7514C101.423 17.3655 101.589 17.1673 101.913 17.1673V17.2403C101.691 18.2064 101.387 19.1519 101.005 20.0667C100.818 20.7968 100.599 21.1619 100.327 21.1619C100.327 21.8502 99.5765 22.7054 98.0746 23.7484C97.877 23.7484 97.6803 23.7765 97.4906 23.8318V23.7484C96.6041 23.7484 96.166 24.0196 96.166 24.5828C96.1077 24.9365 95.9312 25.26 95.6654 25.5005V25.7091L95.9053 25.5423H95.9992V25.7091C95.8263 25.9272 95.7114 26.1856 95.6654 26.4601V26.5331H95.8323V26.7C95.8095 26.6964 95.7863 26.6982 95.7644 26.7054C95.7425 26.7125 95.7227 26.7247 95.7064 26.7409C95.6901 26.7572 95.6779 26.7771 95.6708 26.799C95.6637 26.8208 95.6618 26.8441 95.6654 26.8668H95.4985C95.4881 26.8683 95.4775 26.8676 95.4674 26.8646C95.4573 26.8616 95.4479 26.8564 95.44 26.8495C95.4321 26.8425 95.4258 26.834 95.4215 26.8244C95.4172 26.8148 95.415 26.8043 95.4151 26.7938C95.2378 26.7938 95.1022 27.1484 94.9875 27.8368L94.7372 28.0036L94.5703 27.9306C94.5651 28.0185 94.5402 28.1041 94.4973 28.1809C94.6537 28.1809 94.7372 28.1809 94.7372 28.3478C94.4769 28.6064 94.1638 28.8056 93.8194 28.9319C93.8194 28.9319 93.7464 28.9319 93.7464 28.838L92.985 29.0049V28.838L92.8181 28.9319L92.6513 28.838C92.6513 29.057 92.4427 29.1718 92.1611 29.1718C91.5962 28.7132 90.9429 28.3759 90.242 28.1809C90.242 28.0871 90.096 28.0036 89.8248 27.9306V28.0036C90.0751 28.3374 90.2733 28.5147 90.4089 28.5147V28.6711H90.315C89.9709 28.6711 89.6162 28.0662 89.2721 26.8355C88.8734 25.7143 88.6757 24.5316 88.688 23.3416H88.5942V23.6232H88.5211L88.3543 23.5398V23.7066H88.1874C88.1758 23.6203 88.1436 23.538 88.0935 23.4668C88.2013 23.2821 88.2888 23.0863 88.3543 22.8827L88.2604 22.4551C88.4481 22.4551 88.7297 21.5373 89.1052 19.7017C89.2559 19.3699 89.4525 19.061 89.6892 18.7839C89.7731 18.5283 89.916 18.296 90.1065 18.106V18.033L89.9291 18.106L89.8561 17.9495C90.2067 17.5895 90.4894 17.169 90.6905 16.7084C90.5758 16.7084 90.5132 16.7084 90.5132 16.6146C91.5561 14.5286 92.2341 13.4857 92.6826 13.4857C92.5783 13.298 92.6095 13.1937 92.6721 13.1937ZM87.9893 23.884H88.1561V24.3742H87.9893V23.884ZM88.0831 24.541H88.25C88.3021 24.9049 88.4149 25.2575 88.5837 25.584C88.389 25.584 88.2222 25.2815 88.0831 24.6766V24.541ZM88.25 24.1239H88.4168V24.3742H88.25V24.1239ZM90.3359 16.8232V17.0735H90.169V16.9796C90.1635 16.9561 90.1639 16.9317 90.1701 16.9084C90.1764 16.8851 90.1883 16.8637 90.2048 16.8461C90.2214 16.8286 90.242 16.8154 90.2649 16.8077C90.2877 16.8001 90.3121 16.7982 90.3359 16.8023V16.8232ZM90.5862 27.3466V27.7638H90.8261C90.7298 27.6446 90.6716 27.4993 90.6592 27.3466H90.5862ZM91.504 21.6625C91.504 21.7668 91.504 21.8293 91.4102 21.8293C91.4622 21.9034 91.4945 21.9896 91.504 22.0796H91.577C91.5746 21.9648 91.6074 21.852 91.6709 21.7563L91.504 21.6625ZM92.547 20.2545C92.5171 20.5316 92.4044 20.7932 92.2237 21.0054C92.2716 21.0769 92.3003 21.1595 92.3071 21.2453L92.2237 21.4226C92.2838 21.5232 92.3128 21.6393 92.3071 21.7563C92.1924 21.7563 92.0776 21.9441 91.9629 22.3404H92.0568C91.8445 22.6541 91.7022 23.0098 91.6396 23.3833L91.8899 23.2165H91.9838V23.4772C91.7022 23.6858 91.5666 23.8422 91.5666 23.9674L91.4936 24.3846C91.5874 24.9999 91.7334 25.3024 91.9107 25.3024V25.4692C91.9107 25.5318 91.9108 25.5527 91.8169 25.5527C92.0046 25.9907 92.1402 26.2202 92.2445 26.2202C92.3488 26.2202 92.3279 26.2723 92.3279 26.3975C92.3279 26.5226 92.4948 26.2619 92.6617 25.9803C92.8181 25.9803 92.9016 26.1159 92.9016 26.3975C93.0372 26.3975 93.1519 26.168 93.2457 25.7196H93.4126V26.0533H93.4856V25.8864H93.5795L93.7359 25.9803C93.8333 25.7288 93.9785 25.4986 94.1635 25.3024V25.2294H93.9967V25.0625C94.3093 24.5328 94.5612 23.9695 94.7476 23.3833V23.3103C94.1315 23.0507 93.6053 22.6157 93.2344 22.0594C92.8636 21.5031 92.6644 20.8501 92.6617 20.1815L92.547 20.2545ZM91.6396 20.9115L91.5457 21.4956C91.6537 21.3688 91.8002 21.2808 91.9629 21.2453V21.0784C91.8491 21.0463 91.7474 20.9809 91.6709 20.8907L91.6396 20.9115ZM93.131 26.4288V26.5018C93.1537 26.5054 93.177 26.5035 93.1988 26.4963C93.2207 26.4892 93.2406 26.477 93.2569 26.4608C93.2731 26.4445 93.2853 26.4246 93.2925 26.4027C93.2996 26.3809 93.3015 26.3576 93.2979 26.3349V26.2515C93.2618 26.26 93.2292 26.2798 93.2049 26.3079C93.1806 26.3359 93.1657 26.3709 93.1623 26.4079L93.131 26.4288ZM93.8089 24.2594H94.1427C94.1427 24.3324 94.0488 24.4159 93.882 24.5097L93.8089 24.3324V24.2594ZM94.393 16.6563C94.1479 17.3918 93.9767 18.15 93.882 18.9195C93.9967 18.9195 94.0488 18.9821 94.0488 19.0864C93.9791 19.2767 93.9233 19.4719 93.882 19.6704C93.939 19.9168 93.9705 20.1685 93.9758 20.4213C93.9282 20.4901 93.8961 20.5684 93.882 20.6508C94.0071 20.6508 94.174 20.9637 94.393 21.5894C94.7476 22.0275 94.9666 22.2465 95.0501 22.2465V22.1735L94.977 21.7563C94.9998 21.7599 95.023 21.758 95.0449 21.7509C95.0668 21.7438 95.0867 21.7316 95.1029 21.7153C95.1192 21.6991 95.1314 21.6792 95.1385 21.6573C95.1456 21.6354 95.1475 21.6122 95.1439 21.5894V21.4956H94.977C95.174 21.2929 95.2923 21.0267 95.3108 20.7447H95.1439V20.4944C95.2586 20.4944 95.3108 20.4943 95.3108 20.4213L95.2169 20.2545L95.3942 19.9103C95.3999 19.7933 95.3709 19.6771 95.3108 19.5765C95.3641 19.1894 95.3919 18.7992 95.3942 18.4084V17.9183H95.3108C95.3108 18.0747 95.2586 18.1477 95.1439 18.1477L95.0501 17.9913C95.0501 17.9391 95.0501 17.9183 95.1439 17.9183C95.0275 17.4944 94.8291 17.0975 94.5599 16.7501V16.6563H94.393ZM94.6329 14.9875V15.2796H94.8832C94.7964 15.1881 94.7415 15.071 94.7267 14.9458L94.6329 14.9875ZM95.728 26.2515H95.8948V26.3349C95.8984 26.3576 95.8966 26.3809 95.8894 26.4027C95.8823 26.4246 95.8701 26.4445 95.8539 26.4608C95.8376 26.477 95.8177 26.4892 95.7958 26.4963C95.774 26.5035 95.7507 26.5054 95.728 26.5018V26.2515ZM95.9887 14.5704H96.0617C96.0832 14.5703 96.1044 14.5747 96.1241 14.5832C96.1438 14.5917 96.1615 14.6042 96.1762 14.6198C96.1909 14.6355 96.2022 14.654 96.2094 14.6742C96.2166 14.6944 96.2196 14.7158 96.2182 14.7373L96.0617 14.8311L95.9887 14.6642V14.5704ZM95.9887 16.1661V16.3955H96.1556V16.3225C96.1624 16.3016 96.164 16.2794 96.1603 16.2578C96.1566 16.2362 96.1477 16.2157 96.1343 16.1983C96.121 16.1809 96.1036 16.1669 96.0837 16.1577C96.0638 16.1484 96.0419 16.1441 96.02 16.1452L95.9887 16.1661ZM97.136 17.6575H97.3863C97.3863 17.7722 97.3863 17.8244 97.2298 17.8244L97.136 17.6575Z" fill="#F6CD45"/>
    <path d="M99.6703 23.7588H99.5034V23.425H99.6703V23.7588ZM99.7433 24.2385H99.5764V23.9257H99.6703L99.7433 24.2385ZM99.5764 24.7809C99.5764 24.614 99.712 24.5097 99.9832 24.468V24.6662L99.5764 24.7809ZM101.662 29.0049H101.516C100.473 28.7441 99.8372 27.503 99.6912 25.2711V25.1146H99.7642L99.8372 25.4171C99.8997 25.4171 99.931 25.4171 99.931 25.3441C100.024 25.3939 100.128 25.4191 100.233 25.4171L100.16 25.2711L100.233 25.1146C100.198 25.0383 100.174 24.9577 100.16 24.8748L100.327 24.7809C100.327 24.8434 100.327 24.8748 100.4 24.8748V24.6662L100.233 24.7392H100.16C100.15 24.6541 100.122 24.5723 100.077 24.4993L100.16 24.3428C100.108 24.0821 100.046 23.957 100.004 23.957C100.048 23.716 100.073 23.4718 100.077 23.2269C100.244 23.2269 100.327 23.2269 100.327 23.0809H100.077V22.841C100.077 22.7263 100.15 22.6741 100.233 22.6741C100.317 22.6741 100.108 22.4342 99.8372 22.4342C99.8372 22.2778 99.8893 22.2048 100.004 22.2048L100.16 22.2778C100.155 22.2451 100.158 22.2115 100.168 22.1799C100.178 22.1484 100.195 22.1196 100.219 22.0962C100.242 22.0727 100.271 22.0552 100.303 22.0451C100.334 22.0349 100.368 22.0325 100.4 22.0379L100.473 22.2048C100.481 22.3409 100.456 22.4768 100.4 22.6011C100.399 22.6111 100.399 22.6214 100.402 22.6311C100.405 22.6408 100.41 22.6497 100.418 22.6569C100.425 22.664 100.434 22.6694 100.443 22.6724C100.453 22.6754 100.463 22.676 100.473 22.6741L100.4 23.0809C100.391 23.1326 100.391 23.1856 100.4 23.2373C100.473 23.06 100.557 22.9661 100.651 22.9661V23.0391C100.612 23.2188 100.545 23.3913 100.453 23.5502H100.526L100.432 23.957C100.505 23.957 100.619 24.0821 100.765 24.3428C100.765 24.2907 100.765 24.2698 100.838 24.2698L100.672 23.8631L100.797 23.4459C100.805 23.1588 100.855 22.8744 100.943 22.6011H101.089C101.095 22.7735 101.12 22.9448 101.162 23.1122C101.162 23.2477 101.162 23.7275 101.162 24.5619C101.162 23.6232 101.318 23.1539 101.495 23.1539C101.485 23.276 101.519 23.3979 101.589 23.498C101.704 22.768 101.767 22.3508 101.767 22.2361H101.913C101.965 22.8201 101.986 23.2269 101.986 23.4563C102.017 23.4128 102.038 23.363 102.048 23.3103C102.13 23.3138 102.209 23.339 102.278 23.3833C102.278 23.279 102.361 23.2269 102.445 23.2269C102.528 23.2269 102.445 23.3103 102.518 23.3103C102.591 23.3103 102.518 23.1539 102.611 23.1539L102.518 22.987C102.62 22.8474 102.678 22.6802 102.684 22.5072L102.518 22.4342C102.424 22.768 102.288 22.9453 102.132 22.987L102.048 22.841C102.153 22.841 102.267 22.6845 102.372 22.4342C102.308 22.3385 102.275 22.2257 102.278 22.1109L101.975 22.3612V22.2048C102.06 22.1121 102.115 21.9957 102.132 21.871L101.975 21.9649V21.871L102.372 21.4017V21.2557H102.205V21.1618C102.372 21.1618 102.445 21.1097 102.445 21.0158H102.278C102.193 21.0925 102.088 21.1433 101.975 21.1618L102.278 20.4422C102.363 20.4443 102.446 20.4695 102.518 20.5152L102.611 20.1397C102.408 20.2189 102.193 20.2681 101.975 20.2857C101.975 20.1814 101.913 20.1397 101.808 20.1397C101.735 20.3483 101.652 20.4422 101.568 20.4422C101.531 20.4542 101.491 20.4542 101.454 20.4422C101.445 20.595 101.445 20.7483 101.454 20.9011H101.527C101.527 20.6925 101.631 20.5882 101.767 20.5882V20.7342C101.77 20.757 101.768 20.7802 101.761 20.802C101.754 20.8239 101.742 20.8438 101.726 20.8601C101.709 20.8763 101.69 20.8885 101.668 20.8957C101.646 20.9028 101.622 20.9047 101.6 20.9011L101.694 21.0575V21.2974C101.569 21.4309 101.486 21.5975 101.454 21.7772L101.287 21.7042H101.214C101.214 21.9545 101.141 22.0901 100.974 22.0901C100.892 22.0866 100.813 22.0614 100.745 22.017L100.818 21.8502C100.819 21.8402 100.819 21.8299 100.816 21.8202C100.813 21.8105 100.807 21.8016 100.8 21.7944C100.793 21.7872 100.784 21.7819 100.775 21.7789C100.765 21.7759 100.755 21.7753 100.745 21.7772C100.745 21.725 100.745 21.7042 100.818 21.7042L100.745 21.2974L100.818 20.9011H100.974V21.0575C101.141 21.0575 101.214 20.9637 101.214 20.9011L101.13 20.7342L101.214 20.5882V20.3483C101.287 20.3483 101.391 20.2753 101.527 20.1084V20.2962C101.589 20.2962 101.621 20.2232 101.621 20.0772H101.548C101.476 20.1273 101.394 20.1594 101.308 20.171L101.454 19.9311C101.406 19.8262 101.382 19.7125 101.381 19.5974C101.433 19.5974 101.537 19.4931 101.694 19.2949L101.621 19.1281C101.755 18.9101 101.838 18.6637 101.861 18.4084C101.811 18.232 101.786 18.0494 101.787 17.8661C101.67 17.8674 101.554 17.8349 101.454 17.7722C101.349 18.252 101.245 18.4918 101.151 18.4918C101.118 18.4407 101.093 18.3843 101.078 18.325C100.891 19.4514 100.682 20.5256 100.432 21.5373V21.9023C100.288 21.938 100.141 21.9624 99.9936 21.9753L99.9206 21.6103C99.9192 20.4838 100.161 19.3702 100.63 18.3458V18.179H100.536L100.463 18.5753H100.296L100.63 17.3029C100.515 17.3029 100.463 17.3029 100.463 17.2299C100.578 16.9066 100.651 16.7501 100.703 16.7501L100.63 16.5832C100.63 16.479 100.692 16.4268 100.776 16.4268L100.703 16.2808C100.793 15.9929 100.849 15.6953 100.87 15.3943C100.955 15.3847 101.037 15.3562 101.11 15.3108C101.016 14.7971 100.953 14.2782 100.922 13.7568C100.922 13.4127 100.974 13.1102 100.974 12.8599C100.983 12.624 100.955 12.3882 100.891 12.1611C100.739 12.0058 100.579 11.8595 100.411 11.7231L100.296 11.431C100.712 11.1513 101.203 11.0058 101.704 11.0139C102.142 11.0214 102.576 11.1025 102.987 11.2538C103.946 11.6084 104.426 12.1298 104.426 12.839C104.426 12.839 104.426 12.8391 104.426 12.9121C104.398 13.329 104.342 13.7435 104.259 14.1532C104.051 15.7176 103.821 17.2716 103.571 18.8152C103.509 18.993 103.478 19.1798 103.477 19.368V19.4514C103.476 19.4624 103.472 19.473 103.467 19.4826C103.461 19.4923 103.454 19.5007 103.445 19.5075C103.437 19.5143 103.427 19.5193 103.416 19.5222C103.405 19.5251 103.394 19.5258 103.383 19.5244L103.289 20.317H103.352L103.258 20.5465L103.185 20.9532C103.226 21.027 103.251 21.1088 103.258 21.1931C103.154 21.1931 103.102 21.2661 103.102 21.36V21.5164C103.258 21.5164 103.331 21.2661 103.331 20.8802L103.623 20.1502L103.696 19.7434H103.644L103.79 19.2011V19.2741H103.863C103.998 18.9413 104.078 18.5892 104.103 18.2311C104.094 18.2379 104.083 18.2415 104.072 18.2415C104.06 18.2415 104.049 18.2379 104.04 18.2311L104.103 18.0121C104.353 17.9391 104.593 17.4698 104.812 16.6041C105.782 14.3096 106.585 12.9538 107.2 12.547C107.253 12.547 107.378 12.4219 107.586 12.1507C109.078 12.4219 109.818 12.7139 109.818 13.0268L109.912 13.736C109.918 14.577 109.78 15.4129 109.505 16.2078L109.578 16.3746L109.432 16.6771L109.578 16.771C109.528 17.0503 109.422 17.3164 109.266 17.5532H109.505C109.495 17.8403 109.413 18.1201 109.266 18.3667L109.339 18.5127C109.229 18.955 109.153 19.4047 109.109 19.8581C109.193 19.8581 109.38 19.4409 109.672 18.5961C110.122 17.9344 110.474 17.2107 110.715 16.4477C111.57 14.9041 112.227 14.1427 112.707 14.1427H113.02C113.124 14.1427 113.177 14.2158 113.177 14.3826L113.729 14.2158C114.383 14.2158 114.863 14.7998 115.169 15.9679V17.0839C115.169 17.136 115.169 17.1569 115.085 17.1569L115.169 17.3237V17.8869C115.119 18.2733 114.955 18.6363 114.699 18.9299C114.734 19.1161 114.758 19.3042 114.772 19.4931L114.605 19.733V19.806H114.772V19.879C114.54 20.1728 114.354 20.4997 114.22 20.8489C114.331 20.8499 114.44 20.8172 114.532 20.7551C114.532 21.0784 114.48 21.2348 114.366 21.2348L114.459 21.4017C114.397 21.8189 114.324 22.0379 114.22 22.0379L114.293 22.4342C114.303 22.5671 114.278 22.7004 114.22 22.8201L114.293 22.987C114.293 23.352 114.199 23.5293 114.136 23.5293L114.22 23.6962V24.176C114.219 24.289 114.19 24.4001 114.136 24.4993L114.22 24.6453L114.136 24.8122L114.22 25.2189H114.136L114.22 25.3754L114.136 25.5214C114.293 25.584 114.366 25.7404 114.366 26.0011H114.459L115.242 25.052C115.762 24.4351 116.165 23.7282 116.431 22.9661C116.566 22.9661 116.723 22.5907 116.91 21.8502C117.161 21.3183 117.328 21.0471 117.401 21.0471C117.474 21.0471 117.401 21.141 117.474 21.141C117.646 20.2278 118.001 19.3587 118.517 18.5857H118.59C118.487 19.0062 118.326 19.41 118.11 19.7851C118.214 19.7851 118.256 19.8477 118.256 19.9311V20.171L118.11 20.4109V20.5673H118.256C118.256 20.7342 118.256 20.8072 118.11 20.8072V20.4943H118.026V20.6612C118.131 20.6612 118.183 20.7446 118.183 20.8281C118.183 20.9115 118.131 20.995 118.026 20.995L118.11 21.141C118.11 21.4538 118.037 21.6103 117.88 21.6103C117.88 21.8293 117.88 21.9441 118.026 21.9441C117.923 22.1138 117.843 22.296 117.786 22.4864L117.88 22.6533C117.119 24.8226 116.535 26.0429 116.118 26.3036C115.701 26.5643 115.648 26.7416 115.648 26.8772C115.461 26.8772 115.2 27.1171 114.845 27.5864H114.772C113.239 27.2318 112.467 26.6791 112.467 25.9073H112.301V25.8343H112.467C112.467 25.5527 112.384 25.3962 112.227 25.3545C112.227 25.4067 112.227 25.4275 112.144 25.4275C111.903 25.1085 111.768 24.7218 111.758 24.322H111.8V23.9361L111.56 23.6024C111.583 23.6059 111.606 23.604 111.628 23.5969C111.65 23.5898 111.67 23.5776 111.686 23.5613C111.702 23.5451 111.714 23.5252 111.721 23.5033C111.729 23.4814 111.73 23.4582 111.727 23.4355V23.206C111.727 23.206 111.842 23.0704 111.967 22.8201V22.6533H111.894L111.56 22.8931H111.487V22.6533C111.52 22.6587 111.553 22.6562 111.585 22.6461C111.616 22.6359 111.645 22.6184 111.669 22.5949C111.692 22.5715 111.71 22.5428 111.72 22.5112C111.73 22.4796 111.732 22.4461 111.727 22.4134L111.56 22.4864C111.562 22.4764 111.561 22.4661 111.558 22.4564C111.555 22.4467 111.55 22.4378 111.543 22.4306C111.536 22.4235 111.527 22.4181 111.517 22.4151C111.507 22.4121 111.497 22.4115 111.487 22.4134C111.56 22.0379 111.643 21.8502 111.727 21.8502C111.81 21.8502 111.727 21.9441 111.8 21.9441L112.04 21.4643H111.894C111.894 21.6729 111.779 21.7772 111.56 21.7772C111.599 21.5611 111.655 21.3484 111.727 21.141C111.612 21.141 111.56 21.0888 111.56 20.995C111.675 20.6195 111.748 20.4213 111.8 20.4213L111.727 20.2649V20.025C111.881 19.7321 111.963 19.4068 111.967 19.0759L111.894 18.9091C112.096 18.1825 112.253 17.444 112.363 16.698C112.415 16.698 112.436 16.698 112.436 16.6041L112.363 16.4581C112.414 16.3582 112.439 16.247 112.436 16.1348C112.144 16.5624 111.477 17.7305 110.444 19.6391C110.507 19.6391 110.538 19.6391 110.538 19.7121C109.94 20.6447 109.483 21.6604 109.182 22.7263C108.756 23.4187 108.436 24.171 108.233 24.9582L108.066 25.0312H107.743C107.242 25.0312 106.742 24.5306 106.241 23.5293V23.3625L106.408 23.2894C106.232 23.0901 106.12 22.8434 106.084 22.5802L106.241 22.4864H106.314V22.6533H106.481C106.57 22.6122 106.651 22.5557 106.721 22.4864V22.8201H106.794V22.1839H106.314C106.314 22.3404 106.262 22.4134 106.147 22.4134L106.001 22.1839V21.3808C106.001 21.3808 106.001 21.3078 106.084 21.3078L106.001 21.141C106.001 21.0575 106.105 20.9532 106.314 20.8281H106.408V20.995C106.317 21.076 106.257 21.187 106.241 21.3078L106.314 21.4643C106.207 21.6292 106.15 21.8207 106.147 22.017H106.481V21.8502H106.585L106.752 21.9441L106.825 21.7772V21.141C106.825 21.0367 106.742 20.995 106.585 20.995V20.7551C106.662 20.4102 106.8 20.0818 106.992 19.7851V19.7121H106.919C106.919 19.9624 106.669 20.1397 106.178 20.2649V20.4213H106.032C106.032 20.0041 106.126 19.7851 106.178 19.7851C106.136 19.7124 106.114 19.6294 106.116 19.5452C106.341 19.0189 106.475 18.4582 106.512 17.8869C106.877 16.6667 107.065 16.0305 107.065 15.9679H106.992C106.694 16.6333 106.345 17.2749 105.949 17.8869L106.032 18.0538L105.396 19.1489C105.396 19.0968 105.396 19.0759 105.323 19.0759L105.229 19.2428V19.3992L105.396 19.3158V19.4514H105.156L105.229 19.6183V19.6913H105C104.984 19.8795 105.013 20.0687 105.083 20.244C104.812 20.4631 104.437 21.652 103.978 23.8214C103.978 23.9569 103.488 25.3023 102.528 27.8784L102.622 28.0453L102.142 28.5877C102.142 28.6607 102.069 28.7441 101.913 28.8275L101.746 28.7546C101.687 28.8259 101.651 28.913 101.641 29.0049H101.662ZM99.931 24.0717H99.8372L99.7642 23.6649H99.931V24.0717ZM99.8372 23.279V22.9557C99.9415 22.9557 100.004 23.0391 100.004 23.1226C100.007 23.1467 100.004 23.1711 99.9946 23.1936C99.9856 23.2161 99.9711 23.236 99.9525 23.2516C99.9339 23.2671 99.9116 23.2777 99.8879 23.2825C99.8641 23.2873 99.8395 23.2861 99.8163 23.279H99.8372ZM100.108 19.3575H99.9415C99.9415 19.2428 99.9415 19.0029 100.014 18.6274H100.181C100.136 18.8688 100.105 19.1126 100.087 19.3575H100.108ZM100.181 21.1827V20.9637H100.108V21.1827H100.181ZM100.327 19.6495V19.5035H100.254V19.6495H100.327ZM100.473 20.3066C100.487 20.0576 100.536 19.8117 100.619 19.5765V19.5035H100.546C100.459 19.7626 100.409 20.0332 100.4 20.3066H100.473ZM100.713 18.0434L100.807 17.6366C100.734 17.6366 100.619 17.7722 100.473 18.0434H100.713ZM100.828 22.6845H100.661V22.5177C100.661 22.4447 100.734 22.3612 100.891 22.2778L100.984 22.4447C100.859 22.4447 100.807 22.5177 100.807 22.6845H100.828ZM100.891 20.7029H100.745V20.4943H100.891V20.7029ZM100.984 20.3379H100.838C100.878 20.2671 100.903 20.189 100.911 20.1084H100.984V20.3379ZM101.391 19.2949H101.224V18.8882L101.057 18.9612H100.984C101.047 18.7109 101.13 18.5857 101.224 18.5857C101.318 18.5857 101.464 18.5857 101.464 18.7317C101.412 18.9118 101.38 19.0973 101.37 19.2845L101.391 19.2949ZM101.026 19.8373C101.041 19.6795 101.066 19.5228 101.099 19.368H101.172V19.6808C101.151 19.7747 101.099 19.8268 101.005 19.8268L101.026 19.8373ZM101.516 22.8931H101.276C101.276 22.2569 101.412 21.9441 101.589 21.9441V22.017C101.516 22.4759 101.495 22.768 101.495 22.8827L101.516 22.8931ZM101.787 21.8502H101.558V21.7042H101.787V21.8502ZM101.996 21.4643H101.85V21.2348H101.996V21.4643ZM101.996 20.6612L101.923 20.4943C101.923 20.4005 101.975 20.3483 102.069 20.3483V20.4213L102.226 20.3483H102.299C102.278 20.4317 102.173 20.4943 101.975 20.6508L101.996 20.6612ZM102.069 19.0029C102.173 19.0029 102.226 18.9195 102.226 18.763C102.1 18.763 102.048 18.8465 102.048 18.9925L102.069 19.0029ZM102.372 19.66V19.514H102.153V19.66H102.372ZM102.465 20.025C102.58 20.025 102.632 19.9416 102.632 19.7851C102.497 19.7956 102.413 19.879 102.413 20.0146L102.465 20.025ZM102.632 21.4643L102.705 21.3078V21.2348C102.631 21.2739 102.549 21.2986 102.465 21.3078C102.468 21.3458 102.484 21.3815 102.511 21.4083C102.538 21.4352 102.574 21.4514 102.611 21.4539L102.632 21.4643ZM102.883 18.4918C102.875 18.3195 102.851 18.1483 102.81 17.9808H102.664V18.3458L102.591 18.4918H102.883ZM102.883 19.2219V18.9299C102.814 18.967 102.74 18.9917 102.664 19.0029V19.2219H102.883ZM102.956 20.098C103.195 19.2152 103.342 18.3099 103.394 17.3968H103.248C103.248 17.5428 103.102 18.4397 102.81 20.098H102.956ZM103.269 22.017L103.561 21.287C103.555 21.2756 103.552 21.2631 103.552 21.2505C103.552 21.2378 103.555 21.2253 103.561 21.214C103.446 21.214 103.394 21.287 103.394 21.4539L103.31 21.6833L103.269 22.017ZM112.165 24.8852V24.5514C112.096 24.5991 112.018 24.6311 111.935 24.6453V24.8852H112.165ZM112.238 25.7612C112.134 25.7612 112.081 25.6778 112.081 25.5214H112.238V25.7612ZM113.834 22.9661C113.99 22.914 114.074 22.7575 114.074 22.4864C113.886 22.5802 113.813 22.695 113.813 22.9557L113.834 22.9661Z" fill="#F6CD45"/>
    </g>
    <defs>
    <clipPath id="clip0_3409_10964">
    <rect width="118" height="33.6145" fill="white" transform="translate(0.495605 0.354858)"/>
    </clipPath>
    </defs>
    </svg>
    