<svg width="14" height="14" viewBox="0 0 14 14" fill="none" xmlns="http://www.w3.org/2000/svg">
<path fill-rule="evenodd" clip-rule="evenodd" d="M12.6133 6.63011L12.6133 6.62663L12.6133 6.2952C12.5384 5.09176 12.0267 3.95658 11.1735 3.10342C10.3204 2.25025 9.18517 1.7385 7.98174 1.66368H7.64683C6.87916 1.66167 6.12186 1.84103 5.43663 2.18714L5.43158 2.18969C4.60729 2.60166 3.91398 3.23497 3.4293 4.0187C2.94462 4.80244 2.68771 5.70565 2.68735 6.62715L2.68735 6.63011C2.68535 7.39778 2.86471 8.15507 3.21082 8.8403C3.3711 9.15762 3.39802 9.52582 3.2856 9.86308L2.72147 11.5555L4.41386 10.9913C4.75112 10.8789 5.11931 10.9058 5.43663 11.0661C6.12186 11.4122 6.87915 11.5916 7.64683 11.5896L7.64979 11.5896C8.57129 11.5892 9.47449 11.3323 10.2582 10.8476C11.042 10.363 11.6753 9.66965 12.0873 8.84536L12.0898 8.8403C12.4359 8.15507 12.6153 7.39778 12.6133 6.63011ZM0.613281 13.6637L2.02069 9.44144C1.5799 8.56876 1.35147 7.60431 1.35402 6.62663C1.35447 5.45756 1.6804 4.31171 2.29529 3.31741C2.91019 2.32312 3.78976 1.51965 4.8355 0.997009C5.70817 0.556218 6.67263 0.327794 7.65031 0.330343H8.02068C9.56464 0.415522 11.0229 1.0672 12.1163 2.16061C13.2097 3.25401 13.8614 4.7123 13.9466 6.25626V6.62663C13.9491 7.60431 13.7207 8.56876 13.2799 9.44144C12.7573 10.4872 11.9538 11.3668 10.9595 11.9816C9.96523 12.5965 8.81937 12.9225 7.65031 12.9229C6.67263 12.9255 5.70817 12.697 4.8355 12.2563L0.613281 13.6637Z" fill="black" fill-opacity="0.6"/>
</svg>
