
<svg width="21" height="6" viewBox="0 0 21 6" fill="none" xmlns="http://www.w3.org/2000/svg">
    <path d="M5.5 3.11084C5.5 4.49155 4.38071 5.61084 3 5.61084C1.61929 5.61084 0.5 4.49155 0.5 3.11084C0.5 1.73013 1.61929 0.61084 3 0.61084C4.38071 0.61084 5.5 1.73013 5.5 3.11084Z" fill="black" fill-opacity="0.1"/>
    <path d="M13 3.11084C13 4.49155 11.8807 5.61084 10.5 5.61084C9.11929 5.61084 8 4.49155 8 3.11084C8 1.73013 9.11929 0.61084 10.5 0.61084C11.8807 0.61084 13 1.73013 13 3.11084Z" fill="black" fill-opacity="0.1"/>
    <path d="M20.5 3.11084C20.5 4.49155 19.3807 5.61084 18 5.61084C16.6193 5.61084 15.5 4.49155 15.5 3.11084C15.5 1.73013 16.6193 0.61084 18 0.61084C19.3807 0.61084 20.5 1.73013 20.5 3.11084Z" fill="black" fill-opacity="0.1"/>
    </svg>
    