
<svg width="133" height="10" viewBox="0 0 133 10" fill="none" xmlns="http://www.w3.org/2000/svg">
    <path d="M131.747 6.60068C131.647 6.34948 131.546 6.09827 131.446 6.09827C131.446 6.09827 131.546 6.09827 131.546 5.84707C131.546 5.84707 131.546 5.84707 131.546 5.59586C131.546 5.59586 131.546 5.34466 131.446 5.34466C131.345 5.34466 131.345 5.34466 131.345 5.09345C130.341 4.84225 129.337 4.33984 128.233 4.08863C127.128 3.83743 125.923 3.58622 124.718 3.33502C123.513 3.08381 122.308 2.83261 121.204 2.83261L117.991 2.3302C117.589 2.3302 117.288 2.07899 116.987 2.07899C116.685 2.07899 116.384 2.07899 116.183 2.3302C115.681 2.07899 115.079 1.82779 114.476 1.82779C113.773 1.82779 113.071 1.82779 112.368 1.82779C111.464 1.57658 110.661 1.32538 109.757 1.32538C108.853 1.32538 107.849 1.32538 106.946 1.07417C106.845 1.07417 106.845 1.07417 106.745 1.32538C106.644 1.32538 106.544 1.32538 106.544 1.32538L106.644 1.07417C106.042 1.07417 105.439 0.822967 104.837 0.822967C104.335 0.571762 103.732 0.822967 103.23 1.07417C103.13 0.822967 103.13 0.822967 103.03 0.822967C102.929 0.822967 102.829 0.822967 102.728 0.571762C102.527 0.571762 102.226 0.571762 102.025 0.571762C101.724 0.571762 101.523 0.571762 101.222 0.571762C101.021 0.571762 100.72 0.571762 100.519 0.320557C100.218 0.320557 100.017 0.320557 100.017 0.822967C100.72 0.571762 101.323 0.571762 102.025 0.571762C102.728 0.822967 103.331 0.822967 104.034 0.822967C104.134 0.822967 104.134 0.822967 104.134 1.07417C104.134 1.07417 104.134 1.32538 104.234 1.32538C104.335 1.32538 104.335 1.07417 104.335 1.07417C104.335 1.07417 104.335 1.07417 104.435 1.07417C104.837 1.32538 105.239 1.32538 105.64 1.07417C106.042 0.822967 106.343 1.07417 106.644 1.32538C107.146 1.32538 107.648 1.32538 108.15 1.32538C108.653 1.32538 109.155 1.32538 109.657 1.32538C109.757 1.32538 109.857 1.32538 109.857 1.32538C109.958 1.32538 110.058 1.57658 110.058 1.57658C110.159 1.57658 110.259 1.57658 110.259 1.57658C110.36 1.57658 110.46 1.57658 110.661 1.57658C110.761 1.57658 110.962 1.57658 111.062 1.82779C111.263 1.82779 111.364 1.82779 111.564 1.82779C111.665 1.82779 111.765 1.57658 111.866 1.57658C111.966 1.57658 112.067 1.57658 112.167 1.32538C112.267 1.32538 112.368 1.32538 112.468 1.57658C112.569 1.57658 112.669 1.82779 112.769 1.82779C112.97 1.82779 113.271 1.82779 113.472 1.82779C113.773 1.82779 114.075 1.82779 114.276 1.82779C114.476 1.82779 114.677 1.82779 114.978 1.82779C115.179 1.82779 115.38 1.82779 115.48 1.82779C115.581 1.82779 115.581 1.82779 115.581 2.07899C115.581 2.3302 115.581 2.3302 115.681 2.07899C115.983 1.82779 116.284 1.82779 116.685 2.07899C117.087 2.3302 117.388 2.3302 117.79 2.5814L117.991 2.3302C118.694 2.5814 119.397 2.83261 120.099 2.83261C120.802 2.83261 121.606 3.08381 122.308 3.33502C122.911 3.33502 123.614 3.33502 124.417 3.33502C125.12 3.33502 125.823 3.58622 126.526 4.08863C126.827 3.83743 127.229 3.83743 127.53 4.08863C127.831 4.33984 128.032 4.33984 128.333 4.59104C127.831 4.59104 127.329 4.59104 126.827 4.59104C126.325 4.59104 125.923 4.33984 125.421 4.08863C124.819 4.08863 124.216 4.08863 123.614 3.83743C123.011 3.58622 122.409 3.58622 121.806 3.58622C121.706 3.33502 121.706 3.33502 121.606 3.33502C121.505 3.33502 121.505 3.33502 121.505 3.08381C121.405 3.08381 121.304 3.08381 121.304 3.08381C121.304 3.33502 121.204 3.33502 121.204 3.33502C121.003 3.08381 120.702 2.83261 120.501 3.08381C120.2 3.08381 119.999 3.08381 119.798 3.08381C119.296 3.08381 118.694 3.08381 118.192 2.83261C117.69 2.5814 117.087 2.5814 116.585 2.5814C115.28 2.5814 113.874 2.3302 112.468 2.3302C111.062 2.3302 109.657 2.07899 108.15 2.07899C107.849 2.07899 107.548 1.82779 107.347 1.82779C107.046 1.82779 106.745 1.82779 106.544 2.07899C105.841 1.82779 105.038 1.82779 104.335 1.82779C103.632 1.82779 102.929 1.82779 102.226 1.57658C101.523 1.57658 100.921 1.57658 100.218 1.57658C99.5151 1.57658 98.9127 1.57658 98.2098 1.32538C97.4065 1.32538 96.6032 1.32538 95.9004 1.32538C95.1975 1.32538 94.3942 1.32538 93.6913 1.32538C92.9884 1.32538 92.2856 1.07417 91.4823 1.32538C90.679 1.32538 89.8757 1.32538 89.1728 1.32538C88.2691 1.32538 87.4658 1.32538 86.5621 1.07417C85.7589 1.07417 84.8552 1.07417 83.9515 1.32538C83.7506 1.32538 83.4494 1.32538 83.1482 1.32538C82.8469 1.32538 82.5457 1.32538 82.2445 1.32538C82.0437 1.32538 81.8428 1.32538 81.642 1.32538C81.4412 1.32538 81.3408 1.32538 81.1399 1.32538C80.3367 1.32538 79.433 1.07417 78.5293 1.07417C77.6256 1.07417 76.6215 1.07417 75.6173 1.32538L72.7054 1.57658C71.7013 1.57658 70.7976 1.82779 69.8939 1.82779C68.689 1.82779 67.4841 1.82779 66.3795 1.82779C65.1746 1.82779 64.0701 1.82779 62.8652 2.07899C61.359 2.07899 59.7524 2.07899 58.1459 2.3302C56.5393 2.5814 54.9327 2.5814 53.3261 2.5814C53.4265 2.3302 53.527 2.3302 53.527 2.3302C53.6274 2.3302 53.7278 2.3302 53.7278 2.07899C53.9286 2.3302 54.1294 2.5814 54.4306 2.3302C54.7319 2.07899 55.0331 2.07899 55.2339 2.3302C55.2339 2.3302 55.2339 2.07899 55.1335 2.07899C55.1335 2.07899 55.1335 2.07899 55.2339 1.82779C55.4348 1.82779 55.736 1.82779 55.9368 1.82779C56.238 1.82779 56.4389 1.82779 56.8405 1.82779C56.8405 1.57658 56.9409 1.57658 57.0413 1.57658C57.1417 1.57658 57.2422 1.57658 57.3426 1.57658C57.443 1.57658 57.5434 1.57658 57.6438 1.57658C57.7442 1.57658 57.7442 1.32538 57.7442 1.32538C56.8405 1.32538 55.8364 1.57658 54.7319 1.57658C53.6274 1.57658 52.5228 1.82779 51.4183 2.07899C51.3179 2.07899 51.3179 2.07899 51.3179 1.82779C51.3179 1.82779 51.2175 1.82779 51.1171 1.82779C50.3138 2.07899 49.5105 2.07899 48.7072 2.07899C47.9039 2.07899 47.1007 2.07899 46.3978 2.3302C45.9961 2.07899 45.4941 2.07899 45.0924 2.3302C44.5904 2.5814 44.1887 2.5814 43.6867 2.3302C43.5863 2.3302 43.5863 2.5814 43.5863 2.5814C43.5863 2.5814 43.5863 2.83261 43.4859 2.83261C43.1846 2.5814 42.8834 2.3302 42.5822 2.5814C42.2809 2.83261 41.8793 2.83261 41.5781 2.5814C37.5616 3.08381 33.2439 3.33502 28.9263 3.58622C24.5082 3.83743 20.2909 3.83743 16.1741 3.83743C13.6638 3.83743 11.254 4.08863 8.8441 4.33984C6.53464 4.84225 4.12478 4.84225 1.61451 4.84225C1.41369 4.59104 1.11245 4.33984 0.811222 4.33984C0.509989 4.59104 0.309167 5.09345 0.208756 5.84707C0.108345 6.34948 0.00793457 7.1031 0.00793457 7.6055C0.208756 8.35912 0.509989 8.86153 0.811222 8.86153C1.21287 9.11274 1.5141 9.36394 1.91574 9.36394H3.82355C4.52643 9.36394 5.2293 9.36394 6.03259 9.36394C6.33382 9.11273 6.63506 8.86153 6.93629 8.86153C7.23752 8.86153 7.53875 8.86153 7.9404 8.86153C8.24163 8.86153 8.64327 8.86153 8.94451 8.86153C9.24574 8.86153 9.64738 8.61032 9.94862 8.61032C10.3503 8.86153 10.7519 8.86153 11.0531 8.86153C11.4548 8.86153 11.8564 8.61032 12.2581 8.61032C12.6597 8.61032 13.0614 8.35912 13.463 8.35912C13.8646 8.35912 14.3667 8.35912 14.7683 8.35912C14.9692 8.35912 15.17 8.10791 15.4712 8.10791C16.877 8.10791 18.1823 8.10791 19.5881 7.85671C20.9938 7.6055 22.2992 7.6055 23.7049 7.85671C24.5082 7.6055 25.3115 7.6055 26.1148 7.6055C27.0185 7.6055 27.8218 7.6055 28.7255 7.85671C28.8259 7.6055 28.9263 7.3543 29.2275 7.6055C29.5287 7.6055 29.7296 7.6055 30.0308 7.6055C30.0308 7.6055 30.0308 7.3543 29.9304 7.3543C29.83 7.3543 29.9304 7.10309 30.0308 7.10309C30.1312 7.10309 30.2316 7.10309 30.1312 7.3543C30.1312 7.6055 30.1312 7.6055 30.332 7.6055C30.332 7.6055 30.332 7.3543 30.2316 7.3543C30.1312 7.3543 30.1312 7.3543 30.332 7.10309C30.5329 7.6055 30.8341 7.6055 31.0349 7.3543C31.3361 7.10309 31.6374 7.10309 31.8382 7.3543C31.8382 7.10309 31.8382 6.85189 32.039 6.85189C32.1394 6.85189 32.2398 7.10309 32.2398 6.85189C32.3402 6.85189 32.4407 6.85189 32.6415 6.85189C32.6415 6.85189 32.6415 7.10309 32.5411 7.10309C32.4407 7.10309 32.4407 7.10309 32.4407 7.3543C32.6415 7.3543 32.7419 7.3543 32.7419 7.3543C32.7419 7.3543 32.7419 7.10309 32.8423 6.85189C32.9427 6.85189 32.9427 6.85189 32.9427 7.10309C32.8423 7.10309 32.9427 7.3543 32.9427 7.3543C33.4448 7.3543 33.9468 7.10309 34.3485 7.10309C34.7501 7.10309 35.1518 7.10309 35.5534 7.3543C35.6538 6.85189 35.8546 6.85189 36.0555 7.10309C36.0555 6.85189 36.1559 6.60068 36.2563 6.60068C36.4571 6.60068 36.4571 6.34948 36.3567 6.09827C36.5575 6.09827 36.5575 6.34948 36.4571 6.34948C36.3567 6.60068 36.3567 6.60068 36.4571 6.85189H36.0555C36.0555 7.10309 36.1559 7.3543 36.3567 7.10309C36.5575 6.85189 36.5575 6.85189 36.5575 6.85189C36.6579 7.10309 36.7583 7.10309 36.8587 6.85189C36.9591 6.60068 37.0596 6.60068 37.16 6.85189C37.0596 6.85189 37.0596 7.10309 37.0596 7.10309C37.0596 7.3543 37.16 7.3543 37.16 7.3543C37.16 6.85189 37.3608 6.34948 37.5616 6.34948C37.662 6.60068 37.662 6.60068 37.5616 6.60068C37.4612 6.60068 37.4612 6.85189 37.5616 6.85189C37.7624 6.60068 38.0637 6.60068 38.2645 6.85189C38.2645 6.85189 38.2645 6.60068 38.1641 6.60068C38.0637 6.60068 38.1641 6.34948 38.2645 6.34948C38.3649 6.34948 38.4653 6.34948 38.3649 6.60068C38.3649 6.85189 38.3649 6.85189 38.4653 6.85189C38.5657 6.85189 38.7665 6.60068 38.867 6.34948C38.9674 6.34948 38.9674 6.34948 38.9674 6.60068C38.9674 6.85189 38.9674 6.85189 39.0678 6.85189C39.2686 6.60068 39.4694 6.60068 39.6702 6.60068C39.8711 6.60068 39.9715 6.60068 40.0719 6.85189C40.1723 6.60068 40.3731 6.60068 40.4735 6.60068C40.6744 6.60068 40.8752 6.60068 41.076 6.60068C41.2768 6.60068 41.4776 6.60068 41.6785 6.60068C41.8793 6.60068 41.9797 6.34948 42.1805 6.09827V6.34948C42.1805 6.34948 42.1805 6.34948 42.1805 6.60068C42.4818 6.60068 42.6826 6.60068 42.9838 6.60068C43.285 6.34948 43.4859 6.60068 43.3854 6.85189C43.4859 6.85189 43.5863 6.60068 43.6867 6.34948C43.7871 6.09827 43.8875 6.09827 44.0883 5.84707C44.1887 5.84707 44.1887 6.09827 44.1887 6.34948C44.2891 6.34948 44.49 6.34948 44.5904 6.34948C44.6908 6.34948 44.7912 6.34948 44.7912 6.60068C44.7912 6.60068 44.8916 6.34948 44.8916 6.09827C44.8916 5.84707 44.8916 5.84707 44.992 5.59586C45.0924 5.59586 45.1928 5.84707 45.0924 5.84707C45.0924 5.84707 45.0924 6.09827 45.1928 6.09827C45.4941 5.84707 45.7953 5.59586 46.0965 5.84707C46.3978 6.09827 46.699 5.84707 46.8998 5.59586V5.84707C47.1007 5.84707 47.2011 5.84707 47.3015 5.84707C47.4019 5.84707 47.5023 5.84707 47.6027 5.59586C47.7031 5.84707 47.9039 6.09827 48.0044 6.09827C48.1048 6.09827 48.1048 5.84707 48.1048 5.84707C48.1048 5.59586 48.1048 5.59586 48.3056 5.84707C48.2052 5.84707 48.2052 6.09827 48.2052 6.09827C48.3056 6.09827 48.406 6.09827 48.5064 6.09827C48.6068 6.09827 48.7072 6.09827 48.8076 6.09827V5.84707H48.6068C48.5064 5.84707 48.5064 5.84707 48.5064 5.84707C48.5064 5.84707 48.5064 5.84707 48.5064 5.59586C48.7072 5.59586 48.9081 5.59586 49.2093 5.59586C49.3097 5.59586 49.3097 5.84707 49.3097 5.84707C49.2093 5.84707 49.3097 6.09827 49.5105 6.09827H49.6109L49.7113 5.84707C49.9122 5.84707 49.9122 5.84707 49.9122 6.09827C49.9122 6.34948 49.9122 6.34948 50.0126 6.34948C50.113 6.34948 50.113 6.09827 50.113 6.09827C50.113 6.09827 50.113 5.84707 50.2134 5.84707H50.615C50.615 6.09827 50.615 6.09827 50.7154 6.34948V6.09827C50.7154 6.09827 50.7154 5.84707 50.8159 5.84707C51.0167 5.84707 51.2175 5.84707 51.4183 5.84707C51.6191 5.59586 51.82 5.84707 51.9204 6.09827C52.0208 6.09827 52.1212 5.84707 52.2216 5.59586C52.322 5.34466 52.4224 5.34466 52.6233 5.34466C52.6233 5.34466 52.7237 5.34466 52.7237 5.59586C52.8241 5.59586 52.9245 5.59586 53.0249 5.34466C53.1253 5.09345 53.2257 5.09345 53.3261 5.09345C53.3261 5.34466 53.3261 5.34466 53.4265 5.34466C53.5269 5.34466 53.5269 5.59586 53.4265 5.59586C53.7278 5.09345 54.029 5.09345 54.3302 5.09345C54.6315 5.09345 55.0331 5.09345 55.3343 5.59586C55.3343 5.59586 55.3343 5.34466 55.2339 5.34466C55.1335 5.34466 55.1335 5.34466 55.3343 5.09345C55.4348 5.34466 55.5352 5.34466 55.736 5.09345C55.8364 5.09345 56.0372 5.09345 56.1376 5.09345C55.9368 5.34466 55.736 5.34466 55.5352 5.34466C55.736 5.59586 56.0372 5.84707 56.238 5.59586C56.4389 5.34466 56.7401 5.59586 56.9409 5.84707C57.1417 5.59586 57.3426 5.34466 57.5434 5.59586C57.7442 5.84707 58.0454 5.84707 58.2463 5.59586V5.09345C58.0454 5.09345 57.8446 5.09345 57.5434 5.09345C57.443 5.34466 57.2422 5.09345 57.1417 4.84225C57.5434 4.84225 57.945 4.59104 58.2463 4.84225C58.5475 4.84225 58.8487 4.84225 59.2504 4.59104C59.2504 4.84225 59.2504 4.84225 59.15 4.84225C59.0495 4.84225 58.9491 4.84225 58.8487 4.84225C58.7483 4.84225 58.6479 4.84225 58.5475 4.84225C58.4471 4.84225 58.4471 5.09345 58.5475 5.09345C58.7483 4.84225 58.9491 4.84225 59.0496 4.84225C59.2504 5.09345 59.4512 5.09345 59.7524 4.84225C59.7524 4.59104 59.7524 4.33984 59.8528 4.33984C59.9532 4.59104 60.0537 4.59104 60.0537 4.33984C60.1541 4.33984 60.2545 4.33984 60.2545 4.33984C60.3549 4.59104 60.3549 4.59104 60.1541 4.59104C59.9532 4.59104 59.9532 4.59104 59.9532 4.59104C59.9532 4.84225 60.1541 4.84225 60.3549 4.59104C60.4553 4.59104 60.4553 4.33984 60.4553 4.33984L60.3549 4.08863C60.4553 4.33984 60.6561 4.08863 60.7565 4.08863C60.8569 3.83743 60.9574 3.83743 61.0578 4.08863C60.9574 4.08863 60.9574 4.33984 60.9574 4.33984C60.9574 4.33984 61.0578 4.33984 61.0578 4.59104C60.7565 4.59104 60.6561 4.59104 60.6561 5.09345C60.7565 4.84225 60.9574 4.84225 61.0578 4.84225C61.1582 4.84225 61.359 4.84225 61.5598 4.59104C61.5598 4.08863 61.6602 4.08863 61.8611 4.08863C62.0619 4.08863 62.2627 4.08863 62.4635 4.08863V4.33984C62.4635 4.33984 62.4635 4.33984 62.4635 4.59104H63.1664C63.1664 4.33984 63.066 4.33984 62.8652 4.33984C62.6643 4.33984 62.6643 4.33984 62.6643 4.08863C63.066 4.08863 63.4676 4.08863 63.8693 4.08863C64.2709 4.08863 64.6726 4.08863 64.9738 3.58622C65.275 4.08863 65.5763 4.33984 65.8775 4.33984C66.2791 4.33984 66.5804 4.33984 66.982 4.08863C66.7812 4.08863 66.5804 4.08863 66.2791 4.08863C66.0783 4.08863 65.8775 4.08863 65.5763 4.08863C65.9779 3.83743 66.3795 3.83743 66.7812 3.83743C67.1828 3.83743 67.4841 3.83743 67.8857 3.58622C67.7853 3.83743 67.8857 3.83743 67.9861 3.83743C68.0865 3.83743 68.0865 3.83743 67.9861 3.83743C68.0865 3.83743 68.1869 4.08863 68.2874 4.08863C68.3878 4.08863 68.5886 4.08863 68.689 4.33984C68.689 3.83743 68.7894 3.58622 68.8898 3.58622C68.9902 3.58622 69.1911 3.58622 69.2915 3.83743C69.3919 4.08863 69.4923 4.08863 69.6931 4.08863C69.7935 4.08863 69.7935 3.83743 69.5927 3.83743C69.3919 3.83743 69.3919 3.58622 69.4923 3.58622C69.5927 3.58622 69.7935 3.58622 69.8939 3.58622C69.9943 3.33502 70.1952 3.58622 70.2956 3.83743C70.1952 3.83743 70.1952 3.83743 70.1952 3.83743H70.0947C69.9943 4.08863 69.9943 4.33984 69.8939 4.33984C70.2956 4.08863 70.5968 4.08863 70.9985 4.08863C71.2997 4.33984 71.6009 4.08863 71.9021 3.83743H71.5005C71.4001 3.83743 71.2997 3.83743 71.1993 3.58622C71.7013 3.58622 72.2034 3.58622 72.7054 3.58622C72.5046 3.58622 72.4042 3.83743 72.4042 3.83743C72.5046 3.83743 72.605 3.83743 72.605 4.08863C72.9063 4.08863 73.2075 3.83743 73.5087 3.83743C73.7095 3.83743 74.0108 3.58622 74.1112 3.33502C74.2116 3.58622 74.4124 3.58622 74.5128 3.58622C74.7137 3.58622 74.9145 3.58622 75.1153 3.58622C75.2157 3.58622 75.2157 3.83743 75.1153 3.83743C75.0149 3.83743 75.1153 4.08863 75.2157 4.08863C75.2157 3.83743 75.2157 3.58622 75.3161 3.83743C75.4165 3.83743 75.4165 4.08863 75.4165 4.08863C75.5169 4.08863 75.5169 3.83743 75.4165 3.83743C75.3161 3.83743 75.4165 3.58622 75.4165 3.58622C75.5169 3.58622 75.6174 3.58622 75.7178 3.83743C75.7178 4.08863 75.9186 4.08863 76.1194 4.08863C76.1194 3.83743 76.1194 3.58622 76.2198 3.58622C76.2198 3.83743 76.2198 3.83743 76.3202 3.83743C76.4206 3.83743 76.4206 4.08863 76.4206 4.33984C76.6215 4.33984 76.8223 4.08863 77.0231 4.33984C77.2239 4.33984 77.3243 4.33984 77.5252 4.08863C77.726 4.33984 77.8264 4.33984 78.0272 4.33984C78.228 4.33984 78.4289 4.08863 78.5293 4.08863C78.7301 3.83743 78.9309 3.83743 79.0313 3.58622C79.2321 3.33502 79.3326 3.33502 79.5334 3.08381V3.33502C79.5334 3.33502 79.5334 3.33502 79.5334 3.58622C79.6338 3.58622 79.6338 3.58622 79.7342 3.58622C79.8346 3.58622 79.935 3.58622 79.935 3.58622L79.8346 3.83743C79.935 3.83743 80.0354 3.83743 80.1358 3.83743C80.2363 3.83743 80.3367 3.83743 80.4371 3.83743C80.4371 4.08863 80.4371 4.08863 80.3367 4.08863C80.2363 4.08863 80.1358 4.08863 80.1358 4.08863C80.0354 4.08863 80.0354 4.08863 79.935 4.08863C79.935 4.08863 79.8346 4.08863 79.8346 4.33984C79.935 4.33984 80.1358 4.33984 80.2363 4.33984C80.4371 4.33984 80.5375 4.33984 80.6379 4.08863C80.5375 4.08863 80.5375 4.08863 80.5375 3.83743L80.4371 3.58622C80.4371 3.33502 80.5375 3.33502 80.6379 3.33502C80.6379 3.33502 80.7383 3.33502 80.7383 3.58622C80.7383 3.58622 80.7383 3.58622 80.8387 3.58622C81.0395 3.33502 81.2404 3.33502 81.4412 3.08381C81.642 3.08381 81.8428 2.83261 82.0436 2.83261C82.1441 2.83261 82.3449 3.08381 82.4453 3.08381C82.5457 3.33502 82.7465 3.33502 82.8469 3.33502C82.8469 3.08381 82.8469 2.83261 82.9473 2.83261C82.8469 2.83261 82.7465 2.83261 82.7465 2.83261C82.6461 2.83261 82.6461 2.83261 82.6461 2.5814C82.7465 2.5814 82.9473 2.5814 83.0478 2.5814C83.1482 2.5814 83.2486 2.5814 83.349 2.5814C83.1482 2.83261 83.0478 3.08381 83.1482 3.58622C83.349 3.58622 83.349 3.58622 83.2486 3.33502C83.1482 3.08381 83.1482 3.08381 83.2486 3.08381C83.349 3.33502 83.4494 3.33502 83.5498 3.33502C83.6502 3.33502 83.851 3.33502 83.9515 3.58622C84.0519 3.83743 84.2527 3.83743 84.3531 3.83743H84.9556C84.8552 3.58622 84.9556 3.58622 85.1564 3.33502C85.2568 3.08381 85.4576 3.08381 85.558 3.08381C85.6584 3.33502 85.6584 3.33502 85.558 3.33502C85.4576 3.33502 85.4576 3.33502 85.4576 3.58622C85.6584 3.58622 85.6584 3.58622 85.6584 3.83743C85.7589 4.08863 85.9597 3.83743 86.0601 3.83743C86.1605 3.58622 86.2609 3.58622 86.3613 3.33502C86.4617 3.58622 86.5621 3.58622 86.6626 3.58622C86.763 3.58622 86.8634 3.33502 86.8634 3.33502C87.0642 3.83743 87.265 4.08863 87.5662 3.83743C87.8675 3.58622 88.0683 3.58622 88.2691 3.33502C88.3695 3.58622 88.5704 3.58622 88.7712 3.58622C88.972 3.58622 89.1728 3.58622 89.2732 3.83743C89.3736 3.83743 89.3736 3.58622 89.4741 3.33502C89.4741 3.08381 89.6749 3.08381 89.8757 3.08381V3.33502V3.58622H89.9761C89.9761 3.58622 89.9761 3.58622 89.8757 3.83743V3.58622H89.7753C89.7753 3.58622 89.7753 3.58622 89.6749 3.58622C89.6749 3.83743 89.6749 3.83743 89.6749 3.83743L89.5745 4.08863C89.6749 4.08863 89.6749 4.08863 89.6749 4.08863C89.7753 4.08863 89.8757 4.08863 89.9761 4.08863C89.9761 3.83743 89.9761 3.58622 90.0765 3.58622C90.1769 3.83743 90.2773 3.83743 90.3778 4.08863C90.4782 4.08863 90.5786 4.08863 90.679 4.08863C90.7794 4.08863 90.8798 4.08863 90.9802 3.83743C91.0806 3.83743 91.181 3.83743 91.2815 3.83743C91.3819 3.83743 91.3819 3.58622 91.3819 3.58622C91.3819 3.58622 91.3819 3.33502 91.4823 3.33502C91.5827 3.33502 91.5827 3.58622 91.5827 3.58622C91.4823 3.83743 91.5827 3.83743 91.7835 3.83743C91.7835 3.58622 91.7835 3.58622 91.8839 3.58622C91.9843 3.58622 91.9843 3.58622 92.0847 3.33502C92.1852 3.33502 92.1852 3.58622 92.2856 3.58622H92.5868C92.5868 3.83743 92.5868 3.83743 92.6872 3.83743C92.7876 3.58622 92.9884 3.58622 93.1893 3.83743C93.4905 4.08863 93.6913 3.83743 93.6913 3.58622C93.4905 3.58622 93.4905 3.58622 93.4905 3.33502C93.5909 3.08381 93.5909 3.08381 93.6913 2.83261C93.7917 2.5814 93.8921 2.5814 93.9925 2.83261C93.8921 3.08381 93.8921 3.08381 93.7917 3.08381C93.6913 3.08381 93.6913 3.08381 93.6913 3.33502C93.9925 3.33502 94.2938 3.33502 94.4946 3.58622C94.6954 3.83743 94.9967 3.58622 95.1975 3.33502C95.1975 3.08381 95.2979 3.08381 95.3983 3.08381C95.4987 3.08381 95.5991 3.08381 95.6995 3.08381V3.33502H95.9004C95.7999 3.33502 95.6995 3.33502 95.6995 3.33502C95.6995 3.08381 95.7999 2.83261 96.0008 2.83261C96.0008 3.08381 96.0008 3.33502 96.0008 3.33502C96.1012 3.58622 96.0008 3.83743 95.9004 4.08863C96.0008 4.08863 96.1012 3.83743 96.302 3.58622C96.4024 3.33502 96.6032 3.33502 96.7036 3.33502C96.8041 3.58622 96.9045 3.83743 97.1053 3.58622C97.3061 3.58622 97.5069 3.58622 97.6073 3.83743C97.7077 3.58622 97.8082 3.33502 97.8082 3.58622C97.9086 3.83743 97.9086 3.83743 97.9086 3.83743C97.8082 3.83743 97.8082 3.83743 97.8082 4.08863C98.009 4.08863 98.009 4.08863 98.009 4.08863C98.009 3.83743 98.1094 3.83743 98.2098 4.08863V4.33984C98.3102 4.33984 98.3102 4.33984 98.3102 4.33984C98.3102 4.08863 98.3102 4.08863 98.2098 4.08863C98.3102 4.08863 98.4106 3.83743 98.4106 3.58622C98.4106 3.33502 98.511 3.33502 98.6115 3.58622C98.6115 3.33502 98.6115 3.33502 98.6115 3.33502C98.511 3.33502 98.511 3.08381 98.511 3.08381C98.6115 3.08381 98.7119 3.33502 98.8123 3.33502C98.9127 3.33502 99.0131 3.33502 99.1135 3.58622C99.0131 3.58622 99.0131 3.83743 98.9127 3.83743C98.8123 3.83743 98.8123 3.83743 98.8123 4.08863C98.8123 4.33984 98.9127 4.59104 99.0131 4.59104C99.0131 4.33984 99.1135 4.08863 99.3143 4.08863C99.5152 4.08863 99.6156 3.83743 99.716 3.83743C99.716 3.83743 99.716 4.08863 99.6156 4.08863C99.6156 4.08863 99.5152 4.08863 99.5152 4.33984C99.6156 4.33984 99.716 4.33984 99.716 4.08863C99.716 4.08863 99.8164 4.08863 99.8164 4.33984C99.9168 4.33984 99.9168 4.08863 99.8164 4.08863C99.716 4.08863 99.8164 3.83743 99.9168 3.83743V4.08863C99.9168 4.08863 99.9168 4.08863 100.017 4.08863C100.017 4.08863 100.017 4.33984 99.9168 4.33984C99.8164 4.33984 99.8164 4.59104 99.8164 4.59104C99.9168 4.59104 100.017 4.59104 100.017 4.59104C100.118 4.59104 100.118 4.59104 100.218 4.59104C100.218 4.33984 100.218 4.33984 100.318 4.33984C100.419 4.33984 100.419 4.33984 100.419 4.59104C100.419 4.59104 100.419 4.84225 100.519 4.84225C100.519 4.59104 100.519 4.59104 100.62 4.59104C100.72 4.84225 100.82 4.84225 100.921 4.84225C101.021 4.59104 101.222 4.59104 101.423 4.33984C101.523 4.59104 101.624 4.59104 101.925 4.59104C102.126 4.59104 102.226 4.59104 102.427 4.59104C102.427 4.59104 102.327 4.84225 102.226 4.84225C102.126 4.84225 102.126 4.84225 102.126 5.09345C102.226 4.84225 102.427 4.84225 102.527 4.84225C102.628 5.09345 102.829 5.09345 102.929 4.84225C103.03 4.59104 102.929 4.33984 102.829 4.59104C102.628 4.59104 102.628 4.59104 102.728 4.33984C103.03 4.33984 103.23 4.33984 103.13 4.33984C103.13 4.59104 103.23 4.59104 103.431 4.84225C103.632 4.84225 103.632 4.59104 103.431 4.59104C103.331 4.59104 103.331 4.33984 103.431 4.33984C103.732 4.33984 103.933 4.33984 104.134 4.33984C104.335 4.33984 104.636 4.59104 104.737 5.09345C104.737 4.84225 104.737 4.84225 104.737 4.59104C104.737 4.33984 104.737 4.33984 104.837 4.33984C104.937 4.33984 104.937 4.33984 104.937 4.59104C104.937 4.84225 104.937 4.84225 105.138 4.84225C105.239 4.84225 105.239 4.59104 105.138 4.59104C105.038 4.59104 105.038 4.33984 105.138 4.33984C105.54 4.59104 106.042 4.84225 106.444 4.59104C106.946 4.59104 107.347 4.33984 107.849 4.33984C107.95 4.59104 107.95 4.59104 107.849 4.59104C107.749 4.59104 107.749 4.59104 107.749 4.84225C107.749 4.84225 107.95 5.09345 108.15 5.09345C108.15 4.59104 108.251 4.59104 108.351 4.59104C108.351 4.59104 108.351 4.59104 108.351 4.84225C108.351 4.84225 108.351 4.84225 108.351 5.09345C108.753 5.09345 109.054 5.09345 109.255 5.09345L109.958 5.34466L109.857 5.59586C109.757 5.59586 109.757 5.59586 109.857 5.84707C110.058 5.84707 110.159 5.84707 110.36 5.84707C110.56 5.84707 110.661 5.84707 110.661 5.59586C110.56 5.59586 110.46 5.34466 110.46 5.59586C110.36 5.59586 110.259 5.59586 110.259 5.59586C110.56 5.34466 110.962 5.34466 111.263 5.34466C111.665 5.34466 111.966 5.34466 112.368 5.59586C112.769 5.59586 113.171 5.59586 113.573 5.34466C113.874 5.34466 114.175 5.34466 114.476 5.84707C114.476 5.84707 114.577 5.84707 114.677 5.84707C114.778 5.84707 114.878 5.59586 114.978 5.59586C115.079 5.59586 115.079 5.84707 115.079 5.84707C115.079 5.84707 115.179 6.09827 115.38 5.84707C115.48 5.84707 115.48 5.59586 115.48 5.59586C115.38 5.59586 115.48 5.34466 115.581 5.34466C115.681 5.59586 115.681 5.84707 115.782 5.84707C115.882 5.59586 115.983 5.59586 116.183 5.34466C116.786 5.59586 117.288 5.59586 117.79 5.84707C118.292 5.84707 118.894 5.84707 119.397 5.84707L119.497 5.59586C119.497 5.59586 119.597 5.34466 119.597 5.09345C119.497 5.09345 119.397 5.09345 119.397 5.09345C119.296 5.09345 119.296 5.09345 119.296 4.84225C119.497 4.84225 119.698 4.84225 119.899 4.84225C120.099 4.84225 120.3 4.84225 120.501 4.59104C120.601 4.59104 120.601 4.84225 120.501 4.84225C120.601 4.84225 120.702 4.84225 120.802 4.84225C120.903 4.84225 121.003 4.84225 121.003 4.59104C120.601 4.59104 120.2 4.59104 119.899 4.33984C119.497 4.08863 119.095 4.08863 118.694 4.33984C118.694 4.33984 118.694 4.59104 118.694 4.84225C118.694 5.09345 118.593 5.34466 118.493 5.34466C118.392 5.09345 118.392 5.09345 118.493 4.84225C118.593 4.59104 118.593 4.59104 118.392 4.59104C118.292 4.59104 118.292 4.84225 118.192 4.84225C118.192 5.09345 118.091 5.09345 117.991 5.09345C117.89 5.09345 117.79 5.09345 117.79 4.84225C117.69 4.84225 117.589 4.84225 117.589 4.84225C117.489 4.84225 117.489 5.09345 117.489 5.34466C117.489 5.59586 117.489 5.59586 117.288 5.59586C117.288 5.59586 117.288 5.34466 117.388 5.34466C117.388 5.34466 117.388 5.09345 117.288 5.09345C117.288 4.84225 117.187 4.84225 117.087 4.84225C116.987 4.84225 116.886 4.84225 116.987 4.59104C117.187 4.59104 117.489 4.59104 117.69 4.84225C117.89 4.84225 118.091 4.84225 118.292 4.59104C117.79 4.59104 117.288 4.33984 116.685 4.33984C116.083 4.33984 115.48 4.08863 114.878 4.08863C114.276 4.08863 113.573 3.83743 112.97 3.83743C112.368 3.83743 111.765 3.83743 111.263 3.83743C111.364 4.08863 111.564 4.08863 111.765 4.08863C111.966 4.08863 112.067 4.08863 112.267 4.33984C112.769 4.08863 113.171 4.08863 113.673 4.08863C114.075 4.08863 114.577 4.33984 114.978 4.33984C114.978 4.33984 114.978 4.59104 114.878 4.59104C114.878 4.59104 114.878 4.59104 114.978 4.59104C115.28 4.33984 115.681 4.33984 115.983 4.33984C116.284 4.33984 116.685 4.59104 116.987 4.59104C116.987 4.84225 116.886 4.84225 116.786 4.84225C116.685 4.84225 116.585 4.84225 116.685 5.09345C116.786 5.09345 116.786 5.34466 116.886 5.09345H116.987C116.786 5.34466 116.585 5.34466 116.485 5.09345C116.384 4.84225 116.183 4.59104 115.983 4.59104C115.681 4.84225 115.38 4.84225 115.179 4.59104C115.179 5.09345 115.079 5.34466 114.778 5.34466V5.09345C114.677 5.09345 114.677 5.09345 114.677 5.09345H114.577L114.677 4.84225C114.778 4.84225 114.778 4.84225 114.778 5.09345C114.878 4.84225 114.978 4.84225 114.978 4.84225C114.778 4.59104 114.677 4.59104 114.476 4.59104C114.376 4.59104 114.175 4.59104 114.075 4.33984C113.874 4.59104 113.673 4.59104 113.472 4.33984C113.271 4.08863 113.071 4.33984 112.97 4.59104C112.87 4.33984 112.669 4.33984 112.569 4.33984C112.468 4.33984 112.468 4.59104 112.468 4.84225C112.468 5.09345 112.368 5.09345 112.267 5.09345V4.84225L112.368 4.59104C112.267 4.33984 111.966 4.08863 111.866 4.33984C111.665 4.59104 111.464 4.33984 111.364 4.08863C111.263 4.33984 111.163 4.59104 110.962 4.33984C110.761 4.33984 110.56 4.33984 110.46 4.33984C110.56 4.33984 110.661 4.33984 110.761 4.59104C110.862 4.84225 110.761 4.84225 110.661 5.09345C110.56 4.84225 110.46 4.59104 110.36 4.59104C110.259 4.59104 110.159 4.33984 110.259 4.08863C109.958 4.33984 109.657 4.33984 109.355 4.08863C109.155 4.08863 108.853 4.08863 108.653 4.33984C108.15 3.83743 107.648 3.83743 107.046 3.83743C106.444 3.83743 105.841 3.83743 105.239 3.83743C104.737 3.58622 104.134 3.58622 103.632 3.58622C103.03 3.58622 102.427 3.58622 101.825 3.33502C102.025 3.08381 102.327 3.08381 102.527 3.33502C102.829 3.58622 103.03 3.33502 103.13 3.08381C102.829 3.08381 102.527 2.83261 102.327 3.08381C102.126 3.08381 101.925 3.08381 101.624 3.08381C101.523 3.08381 101.523 3.33502 101.624 3.33502C101.724 3.33502 101.724 3.58622 101.624 3.58622C100.419 3.58622 99.3143 3.58622 98.3102 3.58622C98.2098 3.58622 98.2098 3.83743 98.2098 4.08863C98.2098 4.33984 98.1094 4.33984 97.9086 4.08863H98.009C98.009 4.08863 98.1094 4.08863 98.1094 3.83743C97.8082 3.58622 97.4065 3.58622 97.1053 3.58622C96.7036 3.83743 96.5028 3.58622 96.4024 3.33502C96.5028 3.33502 96.6032 3.33502 96.7036 3.33502C96.8041 3.33502 96.8041 3.33502 96.8041 3.08381C96.4024 3.08381 96.0008 3.08381 95.5991 3.08381C95.1975 2.83261 94.7958 3.08381 94.4946 3.33502C94.7958 3.33502 95.0971 3.33502 95.2979 3.33502C95.5991 3.08381 95.7999 3.33502 96.1012 3.58622C95.0971 3.58622 94.093 3.58622 93.0889 3.58622C92.0847 3.58622 91.181 3.58622 90.1769 3.58622C90.0765 3.58622 90.0765 3.58622 90.0765 3.83743C90.0765 3.83743 89.9761 4.08863 89.8757 4.08863C89.8757 3.83743 89.7753 3.83743 89.6749 3.83743C89.5745 3.83743 89.4741 3.83743 89.3736 3.58622C88.0683 3.58622 86.6626 3.58622 85.3572 3.58622C84.0519 3.58622 82.7465 3.58622 81.642 3.58622C81.7424 3.33502 81.642 3.33502 81.5416 3.08381C81.3408 3.33502 81.14 3.33502 80.8387 3.08381C80.5375 2.83261 80.3367 3.08381 80.2363 3.33502C80.4371 3.33502 80.6379 3.33502 80.9391 3.33502C81.14 3.08381 81.3408 3.33502 81.5416 3.58622C81.0395 3.58622 80.4371 3.58622 79.935 3.83743C79.3326 3.83743 78.8305 3.83743 78.228 3.58622L79.2321 3.33502C79.5334 3.33502 79.8346 3.33502 80.1358 3.33502V3.08381C80.1358 3.08381 80.1358 3.08381 80.1358 2.83261C79.3326 3.08381 78.5293 3.08381 77.726 3.08381C77.0231 2.83261 76.2198 3.08381 75.5169 3.83743C75.4165 3.83743 75.3161 3.83743 75.2157 3.83743C75.1153 3.83743 75.0149 3.83743 74.9145 3.58622C75.0149 3.58622 75.2157 3.58622 75.3161 3.58622C75.5169 3.58622 75.5169 3.58622 75.5169 3.33502C73.3079 3.33502 71.1993 3.58622 69.3919 3.58622C67.4841 3.58622 65.4759 3.83743 63.2668 3.83743L62.7648 4.08863C62.1623 4.08863 61.6602 3.83743 61.0578 4.08863C60.4553 4.08863 59.8528 4.33984 59.3508 4.33984C58.9491 4.08863 58.5475 4.08863 58.1459 4.08863C57.7442 4.08863 57.3426 4.33984 56.9409 4.33984V4.59104C57.0413 4.59104 57.0413 4.59104 57.0413 4.84225C56.9409 4.84225 56.9409 4.84225 56.8405 5.09345C56.7401 5.09345 56.7401 5.09345 56.6397 5.09345L56.7401 4.84225C56.7401 4.84225 56.7401 4.59104 56.7401 4.33984C55.4348 4.59104 54.1294 4.59104 52.7237 4.59104C51.5187 4.59104 50.2134 4.84225 49.0085 5.09345C47.3015 5.09345 45.3937 5.09345 43.5863 5.34466C41.6785 5.59586 39.9715 5.84707 38.3649 5.84707C37.2604 5.84707 36.1559 5.84707 34.9509 6.09827C33.746 6.34948 32.6415 6.34948 31.4366 6.09827C31.0349 6.34948 30.6333 6.34948 30.2316 6.34948C29.83 6.34948 29.4283 6.34948 29.0267 6.09827C30.332 6.09827 31.537 5.84707 32.8423 5.59586C34.1476 5.34466 35.3526 5.34466 36.4571 5.59586C36.5575 5.34466 36.6579 5.34466 36.8587 5.34466C36.9591 5.34466 37.16 5.34466 37.2604 5.09345C37.5616 5.34466 37.8628 5.34466 38.2645 5.34466C38.5657 5.34466 38.867 5.09345 39.1682 5.09345C39.1682 5.09345 39.2686 5.09345 39.2686 5.34466C39.2686 5.34466 39.2686 5.34466 39.369 5.34466C39.7707 5.09345 40.2727 5.09345 40.6744 5.09345C41.076 5.09345 41.4776 5.09345 41.9797 5.09345C42.8834 5.09345 43.8875 5.09345 44.8916 4.84225C45.8957 4.59104 46.8998 4.59104 47.9039 4.33984C48.2052 4.33984 48.6068 4.33984 48.908 4.33984C49.2093 4.33984 49.5105 4.33984 49.9122 4.33984C50.113 4.33984 50.3138 4.33984 50.4142 4.08863C50.615 4.08863 50.7154 4.08863 50.9163 4.08863C51.2175 4.08863 51.4183 4.08863 51.7196 4.08863C52.0208 4.08863 52.2216 4.08863 52.4224 4.08863C52.9245 4.08863 53.4265 4.08863 53.9286 4.08863C54.4306 4.08863 54.9327 3.83743 55.6356 3.83743C57.945 3.83743 60.2545 3.58622 62.7648 3.33502C65.275 3.08381 67.6849 3.08381 69.9943 3.08381C70.5968 3.08381 71.2997 3.08381 71.9021 3.08381L73.81 2.83261C75.7178 2.83261 77.6256 2.5814 79.6338 2.5814C81.642 2.5814 83.6502 2.3302 85.558 2.3302C85.6584 2.3302 85.6584 2.3302 85.6584 2.5814C85.6584 2.5814 85.7589 2.5814 85.8593 2.5814C87.8675 2.5814 89.8757 2.3302 91.7835 2.3302C93.6913 2.3302 95.6995 2.3302 97.7077 2.5814C99.4147 2.3302 101.122 2.3302 103.03 2.5814C104.937 2.83261 106.845 2.83261 108.753 2.83261C109.456 3.08381 110.36 3.08381 111.364 3.08381C112.368 3.08381 113.271 3.08381 113.974 3.33502C115.782 3.58622 117.69 3.83743 119.597 4.08863C121.606 4.33984 123.413 4.59104 125.22 4.84225C126.024 5.09345 126.727 5.34466 127.53 5.34466C128.233 5.34466 128.936 5.59586 129.638 5.84707C128.433 5.84707 127.128 5.59586 125.823 5.34466C124.517 5.09345 123.212 4.84225 121.907 5.09345C122.007 5.09345 122.007 5.34466 122.007 5.34466C122.007 5.59586 122.007 5.59586 121.907 5.59586C121.806 5.34466 121.606 5.59586 121.505 5.59586C121.405 5.84707 121.204 5.59586 121.103 5.34466C121.103 5.84707 121.003 5.84707 120.802 5.59586C120.702 5.34466 120.501 5.34466 120.401 5.59586C120.401 5.84707 120.501 6.09827 120.601 6.09827C120.702 6.09827 120.903 6.34948 121.003 6.34948C121.104 6.09827 121.103 6.09827 121.204 6.09827H121.606C121.706 6.09827 121.706 5.84707 121.706 5.84707C121.706 5.84707 121.706 5.59586 121.806 5.59586C121.907 5.59586 122.007 5.59586 122.208 5.84707C122.208 5.84707 122.108 6.09827 122.007 6.09827C121.907 6.09827 121.806 6.09827 121.907 6.34948C122.108 6.60068 122.308 6.60068 122.509 6.34948C122.81 6.34948 122.911 6.34948 123.011 6.60068H122.61C122.509 6.60068 122.409 6.60068 122.409 6.85189C123.212 6.85189 124.015 6.85189 124.819 7.3543C125.522 7.6055 126.325 7.85671 127.128 7.85671C127.128 7.85671 127.128 8.10791 127.229 8.10791C127.329 8.10791 127.329 8.10791 127.329 8.10791C127.831 8.10791 128.433 7.85671 128.936 8.10791C129.538 8.10791 130.14 8.10791 130.843 8.10791C131.044 8.10791 131.345 8.10791 131.546 7.85671C131.847 7.6055 132.149 7.6055 132.35 7.6055C131.747 7.1031 131.747 6.85189 131.747 6.60068ZM119.196 4.84225C119.095 4.84225 119.095 5.09345 119.095 5.34466C119.095 5.59586 119.095 5.59586 118.894 5.59586C118.894 5.34466 118.894 5.09345 118.894 5.09345C118.794 5.09345 118.794 4.84225 118.794 4.84225C118.894 4.84225 119.095 4.84225 119.196 4.84225ZM117.087 5.09345C117.087 5.34466 117.087 5.34466 117.087 5.09345C116.987 5.34466 116.886 5.09345 116.886 5.09345H117.087ZM113.874 4.84225C113.974 4.84225 113.974 4.84225 113.974 4.84225C113.974 4.84225 113.974 4.84225 114.075 4.84225C114.075 5.09345 114.075 5.09345 113.874 4.84225C113.773 5.09345 113.773 5.09345 113.874 4.84225ZM113.472 4.84225C113.573 4.84225 113.573 5.09345 113.573 5.09345C113.472 5.09345 113.472 5.09345 113.372 5.09345C113.372 4.84225 113.372 4.59104 113.472 4.84225ZM111.564 4.59104C111.564 4.84225 111.564 4.84225 111.564 4.84225C111.564 4.84225 111.665 4.84225 111.665 5.09345C111.464 5.09345 111.263 4.84225 111.263 4.59104H111.564ZM109.657 4.33984C109.657 4.33984 109.757 4.33984 109.657 4.33984C109.757 4.59104 109.657 4.84225 109.556 4.59104L109.657 4.33984C109.556 4.33984 109.657 4.33984 109.657 4.33984ZM107.347 4.33984C107.448 4.33984 107.448 4.33984 107.448 4.59104C107.448 4.59104 107.448 4.84225 107.347 4.84225C107.347 4.59104 107.347 4.59104 107.347 4.33984C107.247 4.33984 107.347 4.33984 107.347 4.33984ZM107.146 4.33984C107.146 4.59104 107.146 4.59104 107.146 4.33984V4.33984ZM103.833 4.59104C103.833 4.59104 103.833 4.59104 103.732 4.59104H103.833ZM103.431 4.08863H103.532V4.33984H103.431V4.08863ZM103.23 4.59104H103.431V4.84225L103.23 4.59104ZM102.226 3.83743C102.327 3.83743 102.327 3.83743 102.327 3.83743C102.327 3.83743 102.327 3.83743 102.427 3.83743C102.527 4.08863 102.527 4.08863 102.226 3.83743C102.226 4.08863 102.226 4.08863 102.226 3.83743ZM101.222 4.08863H101.323V4.33984H101.222V4.08863ZM93.5909 4.08863V4.33984H93.3901V4.08863H93.5909ZM92.7876 4.33984H92.9884V4.59104L92.7876 4.33984ZM92.2856 3.83743H92.386C92.386 4.08863 92.386 4.33984 92.2856 3.83743C92.1852 4.08863 92.1852 4.08863 92.0847 3.83743C92.0847 4.08863 92.1852 3.83743 92.2856 3.83743ZM90.2774 4.59104C90.3778 4.59104 90.3778 4.59104 90.3778 4.59104C90.4782 4.59104 90.4782 4.59104 90.4782 4.84225C90.4782 5.09345 90.3778 5.09345 90.2774 4.84225V4.59104ZM87.9679 3.83743C88.1687 3.83743 88.1687 3.83743 88.1687 3.83743C88.2691 4.08863 88.1687 4.08863 88.0683 4.08863C87.9679 4.08863 87.8675 4.08863 87.9679 3.83743ZM87.5662 4.08863H87.6667V4.33984H87.5662V4.08863ZM87.265 4.08863H87.3654V4.33984L87.265 4.08863ZM86.9638 4.08863C87.0642 4.08863 87.1646 4.33984 87.0642 4.33984C86.9638 4.33984 86.8634 4.33984 86.763 4.08863C86.763 4.08863 86.763 4.08863 86.9638 4.08863ZM86.2609 4.08863C86.3613 4.08863 86.5621 4.08863 86.6626 4.08863C86.6626 4.08863 86.6626 4.33984 86.4617 4.33984C86.2609 4.33984 86.2609 4.33984 86.2609 4.08863ZM84.0519 4.84225C84.1523 4.59104 84.2527 4.59104 84.4535 4.59104C84.4535 4.84225 84.2527 4.84225 84.0519 4.84225C83.9515 4.84225 84.0519 4.84225 84.0519 4.84225ZM83.7506 4.08863H83.6502V3.83743H83.7506C83.8511 3.83743 83.8511 3.83743 83.7506 4.08863ZM82.0436 4.08863C82.1441 4.08863 82.1441 4.33984 82.2445 4.33984C82.0437 4.33984 82.0436 4.08863 82.0436 4.08863ZM81.7424 4.08863C81.8428 4.08863 81.8428 4.08863 81.8428 4.08863H81.9432C81.9432 4.08863 81.9432 4.08863 81.9432 4.33984C81.8428 4.33984 81.7424 4.08863 81.7424 4.08863C81.642 4.08863 81.642 4.08863 81.7424 4.08863ZM81.2404 4.08863C81.3408 4.08863 81.4412 4.08863 81.3408 4.33984L81.2404 4.59104C81.14 4.59104 81.1399 4.59104 81.1399 4.33984C81.2404 4.08863 81.2404 4.08863 81.2404 4.08863ZM80.6379 4.33984C80.5375 4.33984 80.4371 4.08863 80.3367 3.83743C80.5375 4.08863 80.6379 4.08863 80.6379 4.33984ZM79.1317 4.08863C79.3326 4.08863 79.3326 4.33984 79.2321 4.33984H79.1317V4.08863ZM78.4289 4.08863C78.5293 4.08863 78.6297 4.33984 78.5293 4.33984H78.4289H78.3284C78.3284 4.33984 78.3284 4.08863 78.4289 4.08863C78.3284 4.08863 78.4289 4.08863 78.4289 4.08863ZM77.8264 4.84225C77.9268 4.84225 78.0272 4.84225 78.1276 4.84225C78.228 4.84225 78.3284 4.59104 78.4289 4.59104C78.5293 4.33984 78.7301 4.33984 78.8305 4.59104C78.8305 4.84225 78.9309 4.84225 79.0313 4.84225C78.9309 5.09345 78.7301 5.09345 78.6297 5.09345C78.5293 5.09345 78.3284 5.09345 78.1276 4.84225C78.0272 5.09345 77.8264 5.09345 77.726 5.09345C77.5252 5.09345 77.4248 4.84225 77.4248 4.59104C77.5252 4.84225 77.726 4.84225 77.8264 4.84225ZM77.2239 3.58622H77.6256C77.6256 3.58622 77.5252 3.83743 77.4248 3.83743C77.3243 3.83743 77.1235 3.58622 77.2239 3.58622ZM76.7219 3.58622C76.8223 3.58622 76.9227 3.58622 77.1235 3.58622C77.1235 3.83743 77.0231 3.83743 76.8223 3.83743C76.7219 3.83743 76.6215 3.83743 76.521 3.83743C76.521 3.58622 76.6215 3.33502 76.7219 3.58622ZM76.521 4.33984C76.521 4.08863 76.521 4.08863 76.6215 4.08863C76.7219 4.08863 76.7219 4.33984 76.7219 4.33984C76.6215 4.59104 76.6215 4.59104 76.521 4.33984ZM76.019 4.59104C75.9186 4.59104 75.9186 4.59104 75.8182 4.33984C75.7178 4.33984 75.6173 4.33984 75.5169 4.33984C75.5169 4.08863 75.6174 4.08863 75.8182 4.08863C76.019 4.08863 76.019 4.33984 76.019 4.59104ZM75.2157 4.33984H75.4165V4.59104L75.2157 4.33984ZM70.396 4.84225C70.396 4.84225 70.4964 4.84225 70.396 4.84225C70.4964 4.84225 70.4964 4.84225 70.396 4.84225ZM71.1993 4.84225C71.0989 4.84225 71.1993 4.59104 71.1993 4.84225C71.2997 4.84225 71.2997 4.84225 71.1993 4.84225ZM71.7013 4.33984C71.9022 4.33984 72.0026 4.33984 71.9021 4.59104C71.9021 4.59104 71.8017 4.59104 71.7013 4.33984C71.7013 4.59104 71.7013 4.33984 71.7013 4.33984ZM72.605 4.59104H72.4042V4.33984C72.5046 4.33984 72.5046 4.33984 72.605 4.59104ZM72.9063 4.84225C73.0067 4.84225 73.0067 4.59104 72.9063 4.84225C73.0067 4.59104 73.0067 4.84225 73.0067 5.09345L72.9063 4.84225C72.8058 4.84225 72.8058 4.84225 72.9063 4.84225ZM73.1071 5.34466C73.0067 5.34466 72.9063 5.34466 72.9063 5.34466C73.0067 5.09345 73.1071 5.09345 73.2075 5.34466C73.2075 5.34466 73.2075 5.34466 73.1071 5.34466ZM73.3079 5.09345C73.4083 4.84225 73.4083 4.84225 73.5087 4.59104C73.6091 4.33984 73.7095 4.33984 73.81 4.59104C73.81 5.09345 73.7095 5.34466 73.3079 5.09345ZM73.4083 3.58622C73.6091 3.58622 73.81 3.58622 74.0108 3.33502H74.1112C74.1112 3.33502 74.1112 3.33502 74.2116 3.33502V3.58622C74.0108 3.58622 73.9104 3.58622 73.81 3.83743C73.5087 4.08863 73.4083 3.83743 73.4083 3.58622ZM73.3079 4.33984C73.4083 4.59104 73.4083 4.59104 73.3079 4.33984C73.2075 4.33984 73.2075 4.59104 73.2075 4.59104C73.1071 4.59104 73.1071 4.59104 73.1071 4.33984C73.2075 4.33984 73.3079 4.33984 73.3079 4.33984ZM70.7976 4.08863C70.9985 3.83743 71.1993 3.83743 71.5005 3.83743C71.7013 4.08863 72.0026 3.83743 72.2034 3.58622C72.3038 3.83743 72.4042 3.83743 72.7054 3.83743C72.9063 3.58622 73.1071 3.83743 73.3079 4.08863C72.9063 4.08863 72.5046 4.08863 72.103 4.08863C71.6009 4.08863 71.1993 4.08863 70.7976 4.08863ZM70.396 3.83743H70.5968C70.6972 3.83743 70.6972 4.08863 70.5968 4.08863L70.396 3.83743ZM70.396 4.84225C70.396 4.84225 70.396 4.84225 70.1952 4.84225C70.1952 5.09345 70.2956 4.84225 70.396 4.84225ZM69.4923 3.83743H69.6931V4.08863L69.4923 3.83743ZM68.9902 4.08863C68.9902 3.83743 69.0906 3.58622 69.1911 3.83743C69.2915 4.08863 69.1911 4.33984 68.9902 4.08863ZM68.689 3.83743H68.7894V4.08863L68.689 3.83743ZM68.689 5.09345L68.5886 5.34466C68.5886 5.34466 68.4882 5.59586 68.3878 5.59586C68.3878 5.34466 68.3878 5.34466 68.4882 5.34466C68.5886 5.34466 68.5886 5.34466 68.4882 5.09345C68.5886 4.84225 68.5886 4.84225 68.689 5.09345ZM68.4882 4.84225C68.3878 4.84225 68.3878 4.84225 68.4882 4.84225C68.3878 4.84225 68.3878 4.84225 68.2874 4.84225C68.2874 4.84225 68.2874 4.84225 68.4882 4.84225C68.4882 4.59104 68.4882 4.59104 68.4882 4.84225ZM68.0865 3.83743C68.0865 3.58622 68.1869 3.58622 68.2874 3.83743C68.3878 4.08863 68.3878 4.08863 68.2874 4.08863H68.0865C68.1869 4.08863 68.1869 3.83743 68.0865 3.83743ZM65.275 4.84225C65.1746 4.84225 65.1746 4.84225 65.0742 4.84225C65.0742 4.84225 65.0742 4.84225 65.0742 4.59104L65.275 4.84225C65.3754 4.59104 65.3754 4.84225 65.275 4.84225ZM65.9779 4.84225C66.0783 4.84225 66.1787 4.84225 66.1787 5.09345C65.9779 5.34466 65.8775 5.09345 65.9779 4.84225ZM66.48 4.08863C66.48 4.08863 66.48 4.33984 66.48 4.08863C66.3795 4.33984 66.3795 4.33984 66.2791 4.33984C66.2791 4.33984 66.1787 4.33984 66.1787 4.08863H66.48ZM65.5763 4.84225C65.5763 4.59104 65.6767 4.59104 65.7771 4.59104C65.8775 4.59104 65.9779 4.59104 66.0783 4.84225C66.0783 4.84225 65.9779 5.09345 65.8775 5.09345C65.7771 4.84225 65.6767 4.84225 65.5763 4.84225ZM65.1746 4.08863C65.275 4.08863 65.275 4.08863 65.275 4.08863C65.275 4.08863 65.275 4.08863 65.3754 4.08863C65.4759 4.33984 65.3754 4.33984 65.1746 4.08863C65.0742 4.33984 65.0742 4.08863 65.1746 4.08863ZM64.1705 4.33984C64.2709 4.33984 64.2709 4.33984 64.2709 4.08863C64.3713 4.08863 64.3713 4.33984 64.3713 4.33984H64.1705ZM63.7689 4.08863H63.9697V4.33984H63.7689V4.08863ZM63.3672 4.08863C63.4676 4.08863 63.568 4.08863 63.568 4.08863C63.7689 4.08863 63.7689 4.33984 63.6685 4.33984C63.568 4.33984 63.4676 4.33984 63.2668 4.33984C63.1664 4.08863 63.2668 4.08863 63.3672 4.08863ZM63.1664 4.59104C63.3672 4.59104 63.4676 4.84225 63.4676 4.84225H62.9656C62.8652 4.59104 62.9656 4.59104 63.1664 4.59104ZM62.6643 4.84225C62.5639 5.09345 62.3631 5.09345 62.2627 5.09345C62.2627 4.84225 62.2627 4.84225 62.3631 4.84225C62.4635 4.84225 62.5639 4.84225 62.6643 4.84225ZM62.1623 4.33984H62.3631V4.59104H62.2627H62.1623V4.33984ZM61.8611 4.84225C62.0619 4.84225 62.0619 4.84225 62.0619 5.09345L61.8611 4.84225ZM61.4594 6.09827H61.2586V5.84707H61.4594V6.09827ZM60.8569 4.84225C60.9574 4.59104 61.0578 4.33984 61.359 4.59104C61.5598 4.59104 61.6602 4.84225 61.6602 5.09345C61.5598 5.09345 61.4594 5.09345 61.4594 4.84225C61.4594 4.59104 61.2586 4.59104 61.2586 4.59104C61.1582 4.59104 61.1582 4.59104 61.2586 4.84225C61.359 4.84225 61.359 4.84225 61.2586 5.09345C61.0578 4.84225 60.9574 4.84225 60.8569 4.84225ZM60.4553 4.33984C60.5557 4.33984 60.6561 4.33984 60.5557 4.33984C60.5557 4.59104 60.5557 4.59104 60.5557 4.84225C60.4553 4.84225 60.3549 4.84225 60.3549 4.59104C60.3549 4.59104 60.3549 4.33984 60.4553 4.33984ZM60.1541 4.59104C60.1541 4.33984 60.1541 4.33984 60.1541 4.59104C60.1541 4.33984 60.1541 4.33984 60.1541 4.59104C60.3549 4.33984 60.3549 4.59104 60.3549 4.59104C60.2545 4.59104 60.2545 4.59104 60.2545 4.59104H60.1541ZM60.0537 4.84225C60.1541 4.84225 60.1541 4.84225 60.1541 4.84225C60.1541 4.84225 60.1541 4.84225 60.2545 4.84225C60.2545 5.09345 60.2545 5.09345 60.0537 4.84225C59.9533 5.09345 59.9533 5.09345 60.0537 4.84225ZM59.4512 5.09345V4.84225V4.59104C59.652 4.59104 59.652 4.59104 59.652 4.84225C59.652 4.84225 59.652 4.84225 59.652 5.09345C59.652 5.34466 59.5516 5.34466 59.4512 5.09345ZM58.7483 5.59586C58.7483 5.59586 58.8487 5.59586 58.9491 5.59586C58.9491 5.59586 58.8487 5.59586 58.7483 5.59586ZM59.0496 5.09345C59.0496 5.09345 59.15 4.84225 59.2504 4.84225C59.2504 5.09345 59.15 5.09345 59.0496 5.09345ZM57.945 4.84225C58.1459 4.59104 58.3467 4.59104 58.5475 4.59104C58.7483 4.59104 59.0496 4.59104 59.2504 4.59104C59.0496 4.84225 58.8487 5.09345 58.6479 4.84225C58.5475 4.84225 58.2463 4.84225 57.945 4.84225ZM57.443 5.09345C57.5434 5.09345 57.5434 5.09345 57.5434 4.84225C57.5434 4.84225 57.5434 4.59104 57.443 4.59104C57.5434 4.59104 57.6438 4.59104 57.6438 4.59104C57.8446 4.59104 57.8446 4.59104 57.7442 4.59104C57.6438 4.59104 57.6438 4.84225 57.6438 4.84225C57.7442 5.09345 57.7442 5.09345 57.8446 5.09345H58.1459C58.2463 5.09345 58.3467 5.09345 58.4471 5.09345C58.5475 5.09345 58.5475 5.34466 58.6479 5.34466C58.3467 5.34466 58.1459 5.34466 57.945 5.09345C57.7442 5.09345 57.5434 5.09345 57.3426 5.34466C57.2422 5.34466 57.2422 5.09345 57.3426 5.09345C57.3426 5.34466 57.443 5.09345 57.443 5.09345ZM56.4389 4.59104C56.5393 4.59104 56.6397 4.59104 56.7401 4.59104C56.8405 4.84225 56.8405 4.84225 56.7401 5.09345C56.9409 5.09345 56.9409 5.09345 56.8405 4.84225H57.2422L57.1417 5.09345C57.0413 5.09345 57.0413 5.34466 57.0413 5.34466C56.8405 5.34466 56.6397 5.34466 56.4389 5.34466L56.6397 5.09345C56.6397 5.09345 56.5393 4.84225 56.4389 4.59104ZM55.4348 5.34466C55.5352 5.34466 55.5352 5.34466 55.5352 5.34466C55.5352 5.34466 55.5352 5.34466 55.6356 5.34466C55.5352 5.34466 55.4348 5.59586 55.4348 5.59586V5.34466ZM55.1335 5.34466C55.3343 5.34466 55.3343 5.34466 55.2339 5.59586C55.1335 5.59586 55.0331 5.59586 54.8323 5.59586C54.9327 5.34466 55.0331 5.34466 55.1335 5.34466ZM54.2298 5.09345C54.3302 5.09345 54.3302 5.09345 54.2298 5.09345C54.1294 5.34466 54.1294 5.34466 54.029 5.34466C54.1294 5.09345 54.2298 4.84225 54.2298 5.09345ZM53.7278 5.09345C53.7278 5.09345 53.7278 5.09345 53.6274 5.09345C53.6274 5.09345 53.6274 5.09345 53.7278 5.09345ZM53.3261 5.59586H53.527C53.6274 5.59586 53.527 5.59586 53.3261 5.59586C53.2257 5.59586 53.3261 5.59586 53.3261 5.59586ZM52.9245 5.09345C53.0249 5.09345 53.1253 5.34466 53.0249 5.59586C52.9245 5.59586 52.9245 5.59586 52.9245 5.34466V5.09345ZM52.6233 5.09345H52.7237V5.34466H52.6233V5.09345ZM52.5228 5.09345C52.4224 5.34466 52.4224 5.34466 52.322 5.34466C52.322 5.09345 52.322 5.09345 52.5228 5.09345ZM51.1171 5.34466C51.2175 5.34466 51.3179 5.34466 51.3179 5.09345C51.4183 5.09345 51.4183 5.34466 51.3179 5.59586C51.2175 5.59586 51.1171 5.59586 51.1171 5.34466ZM49.7113 6.09827C49.8117 6.09827 49.8117 5.84707 49.7113 5.59586C49.9122 5.59586 49.9122 5.84707 49.9122 6.09827C49.9122 6.34948 50.0126 6.34948 50.2134 6.34948C50.113 6.60068 50.0126 6.60068 49.9122 6.60068C49.8117 6.60068 49.6109 6.60068 49.5105 6.60068C49.5105 6.34948 49.6109 6.09827 49.7113 6.09827ZM49.2093 6.34948H49.3097V6.60068H49.2093V6.34948ZM48.6068 5.34466C48.6068 5.09345 48.7072 5.09345 48.8076 5.09345C48.908 5.09345 48.908 5.09345 48.908 5.09345C49.0085 5.09345 49.0085 5.34466 48.908 5.34466C48.8076 5.59586 48.7072 5.59586 48.6068 5.34466ZM48.406 6.60068C48.5064 6.34948 48.6068 6.34948 48.8076 6.34948C49.0085 6.34948 49.1089 6.34948 49.0085 6.60068C48.9081 6.60068 48.8076 6.60068 48.7072 6.60068C48.6068 6.60068 48.5064 6.60068 48.406 6.60068ZM48.2052 7.10309C48.0044 7.10309 47.9039 6.85189 47.8035 6.60068C47.9039 6.60068 47.9039 6.85189 48.0044 6.85189C48.1048 6.85189 48.1048 6.85189 48.2052 7.10309ZM48.2052 5.34466C48.2052 5.34466 48.1048 5.59586 48.0044 5.59586C47.9039 5.59586 47.8035 5.59586 47.8035 5.59586C47.8035 5.34466 47.9039 5.34466 48.2052 5.34466ZM47.2011 5.84707H47.3015V6.09827H47.2011V5.84707ZM45.7953 6.09827C45.7953 6.09827 45.7953 6.09827 45.6949 6.09827H45.7953ZM45.2933 5.84707C45.3937 5.84707 45.3937 5.84707 45.2933 5.84707C45.5945 5.59586 45.6949 5.84707 45.6949 6.09827C45.4941 6.09827 45.3937 6.09827 45.3937 6.09827C45.2933 6.09827 45.2933 6.34948 45.2933 5.84707C45.1928 5.84707 45.1928 5.84707 45.2933 5.84707ZM44.7912 5.84707H44.992V6.09827H44.7912V5.84707ZM44.7912 6.60068C44.7912 6.85189 44.6908 7.10309 44.49 6.60068C44.5904 6.85189 44.6908 6.60068 44.7912 6.60068ZM43.8875 5.59586L43.9879 5.84707C43.8875 5.84707 43.8875 6.09827 43.7871 6.09827C43.6867 6.09827 43.6867 6.09827 43.5863 6.09827L43.6867 5.84707C43.7871 5.59586 43.7871 5.59586 43.8875 5.59586ZM43.3854 6.60068H43.5863V6.85189L43.3854 6.60068ZM43.0842 7.10309C43.1846 6.85189 43.1846 6.85189 43.285 6.85189C43.285 7.10309 43.1846 7.10309 43.0842 7.10309ZM43.1846 6.34948C43.1846 6.34948 43.1846 6.60068 43.1846 6.34948C43.1846 6.60068 43.1846 6.60068 43.1846 6.34948C43.1846 6.60068 43.1846 6.60068 43.0842 6.60068C43.0842 6.34948 43.0842 6.34948 43.1846 6.34948ZM41.5781 6.34948H41.8793C41.8793 6.60068 41.7789 6.60068 41.5781 6.34948C41.5781 6.34948 41.4776 6.34948 41.3772 6.60068C41.4776 6.60068 41.4776 6.34948 41.5781 6.34948ZM38.9674 7.6055H38.7665V7.3543H38.9674V7.6055ZM38.7665 6.34948C38.7665 6.60068 38.7665 6.60068 38.7665 6.60068C38.6661 6.60068 38.6661 6.85189 38.7665 6.85189C38.6661 6.85189 38.5657 6.60068 38.5657 6.34948C38.4653 6.34948 38.7665 6.34948 38.7665 6.34948ZM35.3526 6.60068C35.453 6.60068 35.453 6.60068 35.453 6.60068C35.453 6.60068 35.453 6.60068 35.5534 6.60068C35.5534 6.85189 35.5534 6.85189 35.3526 6.60068C35.2522 6.85189 35.2522 6.85189 35.3526 6.60068ZM33.3444 6.60068H33.5452V6.85189H33.3444V6.60068ZM33.3444 7.6055C33.4448 7.6055 33.5452 7.6055 33.6456 7.6055C33.6456 7.85671 33.6456 7.85671 33.5452 7.85671C33.3444 7.85671 33.2439 7.85671 33.3444 7.6055C33.1435 7.85671 33.1435 7.6055 33.3444 7.6055ZM26.6168 6.34948C26.5164 6.34948 26.416 6.34948 26.416 6.60068C26.416 6.34948 26.416 6.34948 26.5164 6.09827C26.6168 6.09827 26.7172 6.09827 26.8176 6.34948C26.7172 6.34948 26.7172 6.34948 26.6168 6.34948ZM26.9181 6.09827C26.9181 6.09827 27.0185 6.09827 27.1189 6.09827C27.1189 6.09827 27.0185 6.09827 26.9181 6.09827ZM27.2193 6.34948C27.4201 6.09827 27.4201 6.34948 27.4201 6.34948H27.2193ZM27.9222 6.34948C27.8218 6.34948 27.6209 6.34948 27.5205 6.34948C27.6209 6.09827 27.7213 6.09827 27.9222 6.34948C28.0226 6.09827 28.123 6.09827 28.2234 6.09827C28.2234 6.09827 28.123 6.34948 27.9222 6.34948ZM48.7072 4.08863C48.7072 4.08863 48.7072 3.83743 48.7072 4.08863C48.6068 3.83743 48.7072 3.83743 48.7072 4.08863C48.7072 3.83743 48.8076 3.83743 48.7072 4.08863C48.8076 4.08863 48.8076 4.08863 48.7072 4.08863ZM50.0126 3.83743C50.0126 3.58622 50.0126 3.58622 50.0126 3.83743C50.0126 3.58622 50.0126 3.58622 50.0126 3.83743C50.113 3.83743 50.113 3.83743 50.0126 3.83743ZM51.6191 3.83743C51.5187 3.83743 51.3179 3.83743 51.2175 3.83743C51.3179 3.58622 51.4183 3.58622 51.5187 3.58622C51.6191 3.83743 51.7196 3.83743 51.9204 3.58622C51.9204 3.83743 51.82 3.83743 51.6191 3.83743ZM52.9245 3.83743C52.7237 3.83743 52.4224 3.83743 52.2216 3.83743C52.2216 3.83743 52.2216 3.58622 52.1212 3.58622C52.1212 3.58622 52.1212 3.58622 52.1212 3.33502C52.2216 3.33502 52.322 3.08381 52.4224 3.33502C52.5228 3.33502 52.6233 3.58622 52.6233 3.58622C52.7237 3.58622 52.7237 3.58622 52.7237 3.33502C52.7237 3.33502 52.8241 3.08381 52.9245 3.33502C52.9245 3.33502 52.9245 3.58622 53.0249 3.58622C53.1253 3.58622 53.1253 3.58622 53.2257 3.58622C53.2257 3.83743 53.0249 3.83743 52.9245 3.83743ZM122.007 5.59586H121.806V5.34466L122.007 5.59586ZM122.208 6.34948C122.108 6.34948 122.007 6.09827 122.108 6.09827C122.208 6.09827 122.208 6.09827 122.208 5.84707C122.308 5.84707 122.308 5.84707 122.308 6.09827C122.308 6.34948 122.409 6.34948 122.409 6.34948C122.409 6.34948 122.308 6.34948 122.208 6.34948ZM122.61 6.09827C122.61 6.09827 122.71 6.09827 122.81 6.09827C122.71 6.09827 122.71 6.09827 122.61 6.09827ZM123.212 6.60068C123.112 6.60068 123.112 6.60068 123.011 6.60068C122.911 6.60068 122.911 6.60068 122.911 6.34948C123.112 6.34948 123.112 6.34948 123.112 6.34948C123.212 6.34948 123.212 6.34948 123.212 6.60068C123.212 6.34948 123.212 6.60068 123.212 6.60068ZM123.313 5.84707C123.112 5.84707 123.112 5.84707 123.212 6.09827C123.112 5.84707 122.911 5.59586 122.71 5.84707C122.509 5.84707 122.308 5.84707 122.208 5.59586C122.409 5.59586 122.71 5.59586 122.911 5.59586C123.112 5.59586 123.413 5.59586 123.614 5.84707C123.513 5.84707 123.513 6.09827 123.313 5.84707ZM123.614 6.34948H123.513C123.513 6.34948 123.513 6.34948 123.614 6.34948C123.513 6.34948 123.614 6.34948 123.614 6.34948ZM123.815 6.60068C123.714 6.60068 123.714 6.60068 123.714 6.34948C123.815 6.34948 123.915 6.34948 123.915 6.34948C124.015 6.34948 124.116 6.60068 124.116 6.60068C124.116 6.34948 123.915 6.34948 123.815 6.60068ZM123.915 5.84707C123.815 5.84707 123.614 5.84707 123.513 5.59586C123.614 5.59586 123.815 5.59586 124.015 5.59586C124.317 5.59586 124.417 5.84707 124.517 6.09827C124.317 6.09827 124.116 5.84707 123.915 5.84707ZM125.522 6.09827C125.22 5.84707 125.02 5.84707 124.718 6.09827V5.59586C125.02 5.59586 125.321 5.59586 125.622 5.59586C125.923 5.59586 126.224 5.59586 126.526 5.84707C126.224 6.34948 125.823 6.34948 125.522 6.09827ZM127.028 6.09827C126.927 6.09827 126.827 6.09827 126.626 6.09827C126.626 6.09827 126.626 5.84707 126.827 5.84707C127.028 6.09827 127.028 6.09827 127.028 6.09827ZM127.429 6.09827H127.329V5.84707L127.429 6.09827ZM129.538 5.59586C129.237 5.59586 129.036 5.34466 128.735 5.09345C129.036 5.09345 129.337 5.09345 129.638 5.09345C129.94 5.09345 130.241 5.34466 130.542 5.34466C130.241 5.84707 129.94 5.84707 129.538 5.59586Z" fill="#F6CD45"/>
    </svg>
    