
<svg width="74" height="10" viewBox="0 0 74 10" fill="none" xmlns="http://www.w3.org/2000/svg">
    <path d="M73.1448 6.41978C73.0896 6.16857 73.0343 5.91737 72.979 5.91737C72.979 5.91737 73.0343 5.91737 73.0343 5.66616C73.0343 5.66616 73.0343 5.66616 73.0343 5.41496C73.0343 5.41496 73.0343 5.16375 72.979 5.16375C72.9238 5.16375 72.9238 5.16375 72.9238 4.91255C72.3711 4.66134 71.8185 4.15893 71.2105 3.90773C70.6026 3.65652 69.9394 3.40531 69.2762 3.15411C68.613 2.9029 67.9499 2.6517 67.3419 2.6517L65.5734 2.14929C65.3524 2.14929 65.1866 1.89808 65.0208 1.89808C64.855 1.89808 64.6892 1.89808 64.5786 2.14929C64.3023 1.89808 63.9707 1.64688 63.6391 1.64688C63.2523 1.64688 62.8654 1.64688 62.4785 1.64688C61.9812 1.39567 61.539 1.14447 61.0416 1.14447C60.5442 1.14447 59.9916 1.14447 59.4942 0.893264C59.4389 0.893264 59.4389 0.893264 59.3837 1.14447C59.3284 1.14447 59.2731 1.14447 59.2731 1.14447L59.3284 0.893264C58.9968 0.893264 58.6652 0.642059 58.3336 0.642059C58.0573 0.390854 57.7257 0.642059 57.4494 0.893264C57.3941 0.642059 57.3941 0.642059 57.3388 0.642059C57.2836 0.642059 57.2283 0.642059 57.173 0.390854C57.0625 0.390854 56.8967 0.390854 56.7862 0.390854C56.6204 0.390854 56.5099 0.390854 56.3441 0.390854C56.2335 0.390854 56.0677 0.390854 55.9572 0.139648C55.7914 0.139648 55.6809 0.139648 55.6809 0.642059C56.0677 0.390854 56.3993 0.390854 56.7862 0.390854C57.173 0.642059 57.5046 0.642059 57.8915 0.642059C57.9468 0.642059 57.9468 0.642059 57.9468 0.893264C57.9468 0.893264 57.9468 1.14447 58.002 1.14447C58.0573 1.14447 58.0573 0.893264 58.0573 0.893264C58.0573 0.893264 58.0573 0.893264 58.1126 0.893264C58.3336 1.14447 58.5547 1.14447 58.7757 0.893264C58.9968 0.642059 59.1626 0.893264 59.3284 1.14447C59.6047 1.14447 59.8811 1.14447 60.1574 1.14447C60.4337 1.14447 60.71 1.14447 60.9864 1.14447C61.0416 1.14447 61.0969 1.14447 61.0969 1.14447C61.1522 1.14447 61.2074 1.39567 61.2074 1.39567C61.2627 1.39567 61.318 1.39567 61.318 1.39567C61.3732 1.39567 61.4285 1.39567 61.539 1.39567C61.5943 1.39567 61.7048 1.39567 61.7601 1.64688C61.8706 1.64688 61.9259 1.64688 62.0364 1.64688C62.0917 1.64688 62.147 1.39567 62.2022 1.39567C62.2575 1.39567 62.3128 1.39567 62.368 1.14447C62.4233 1.14447 62.4785 1.14447 62.5338 1.39567C62.5891 1.39567 62.6443 1.64688 62.6996 1.64688C62.8101 1.64688 62.9759 1.64688 63.0865 1.64688C63.2523 1.64688 63.4181 1.64688 63.5286 1.64688C63.6391 1.64688 63.7497 1.64688 63.9155 1.64688C64.026 1.64688 64.1365 1.64688 64.1918 1.64688C64.2471 1.64688 64.2471 1.64688 64.2471 1.89808C64.2471 2.14929 64.2471 2.14929 64.3023 1.89808C64.4681 1.64688 64.6339 1.64688 64.855 1.89808C65.076 2.14929 65.2418 2.14929 65.4629 2.40049L65.5734 2.14929C65.9603 2.40049 66.3471 2.6517 66.734 2.6517C67.1209 2.6517 67.563 2.9029 67.9499 3.15411C68.2814 3.15411 68.6683 3.15411 69.1104 3.15411C69.4973 3.15411 69.8842 3.40531 70.271 3.90773C70.4368 3.65652 70.6579 3.65652 70.8237 3.90773C70.9895 4.15893 71.1 4.15893 71.2658 4.41014C70.9895 4.41014 70.7131 4.41014 70.4368 4.41014C70.1605 4.41014 69.9394 4.15893 69.6631 3.90773C69.3315 3.90773 68.9999 3.90773 68.6683 3.65652C68.3367 3.40531 68.0051 3.40531 67.6735 3.40531C67.6183 3.15411 67.6183 3.15411 67.563 3.15411C67.5077 3.15411 67.5077 3.15411 67.5077 2.9029C67.4525 2.9029 67.3972 2.9029 67.3972 2.9029C67.3972 3.15411 67.3419 3.15411 67.3419 3.15411C67.2314 2.9029 67.0656 2.6517 66.9551 2.9029C66.7893 2.9029 66.6787 2.9029 66.5682 2.9029C66.2919 2.9029 65.9603 2.9029 65.684 2.6517C65.4076 2.40049 65.076 2.40049 64.7997 2.40049C64.0813 2.40049 63.3075 2.14929 62.5338 2.14929C61.7601 2.14929 60.9864 1.89808 60.1574 1.89808C59.9916 1.89808 59.8258 1.64688 59.7153 1.64688C59.5495 1.64688 59.3837 1.64688 59.2731 1.89808C58.8863 1.64688 58.4442 1.64688 58.0573 1.64688C57.6704 1.64688 57.2836 1.64688 56.8967 1.39567C56.5099 1.39567 56.1783 1.39567 55.7914 1.39567C55.4045 1.39567 55.0729 1.39567 54.6861 1.14447C54.244 1.14447 53.8018 1.14447 53.415 1.14447C53.0281 1.14447 52.586 1.14447 52.1991 1.14447C51.8123 1.14447 51.4254 0.893264 50.9833 1.14447C50.5412 1.14447 50.099 1.14447 49.7122 1.14447C49.2148 1.14447 48.7727 1.14447 48.2753 0.893264C47.8331 0.893264 47.3357 0.893264 46.8384 1.14447C46.7278 1.14447 46.562 1.14447 46.3962 1.14447C46.2304 1.14447 46.0646 1.14447 45.8988 1.14447C45.7883 1.14447 45.6778 1.14447 45.5672 1.14447C45.4567 1.14447 45.4014 1.14447 45.2909 1.14447C44.8488 1.14447 44.3514 0.893264 43.854 0.893264C43.3566 0.893264 42.804 0.893264 42.2513 1.14447L40.6486 1.39567C40.0959 1.39567 39.5985 1.64688 39.1012 1.64688C38.438 1.64688 37.7748 1.64688 37.1669 1.64688C36.5037 1.64688 35.8957 1.64688 35.2326 1.89808C34.4036 1.89808 33.5193 1.89808 32.6351 2.14929C31.7508 2.40049 30.8666 2.40049 29.9823 2.40049C30.0376 2.14929 30.0928 2.14929 30.0928 2.14929C30.1481 2.14929 30.2034 2.14929 30.2034 1.89808C30.3139 2.14929 30.4244 2.40049 30.5902 2.14929C30.756 1.89808 30.9218 1.89808 31.0324 2.14929C31.0324 2.14929 31.0324 1.89808 30.9771 1.89808C30.9771 1.89808 30.9771 1.89808 31.0324 1.64688C31.1429 1.64688 31.3087 1.64688 31.4192 1.64688C31.585 1.64688 31.6956 1.64688 31.9166 1.64688C31.9166 1.39567 31.9719 1.39567 32.0271 1.39567C32.0824 1.39567 32.1377 1.39567 32.1929 1.39567C32.2482 1.39567 32.3035 1.39567 32.3587 1.39567C32.414 1.39567 32.414 1.14447 32.414 1.14447C31.9166 1.14447 31.364 1.39567 30.756 1.39567C30.1481 1.39567 29.5402 1.64688 28.9323 1.89808C28.877 1.89808 28.877 1.89808 28.877 1.64688C28.877 1.64688 28.8217 1.64688 28.7665 1.64688C28.3243 1.89808 27.8822 1.89808 27.4401 1.89808C26.998 1.89808 26.5558 1.89808 26.169 2.14929C25.9479 1.89808 25.6716 1.89808 25.4505 2.14929C25.1742 2.40049 24.9531 2.40049 24.6768 2.14929C24.6215 2.14929 24.6215 2.40049 24.6215 2.40049C24.6215 2.40049 24.6215 2.6517 24.5663 2.6517C24.4005 2.40049 24.2347 2.14929 24.0689 2.40049C23.9031 2.6517 23.682 2.6517 23.5162 2.40049C21.3056 2.9029 18.9292 3.15411 16.5528 3.40531C14.1211 3.65652 11.7999 3.65652 9.53401 3.65652C8.15237 3.65652 6.82599 3.90773 5.49961 4.15893C4.2285 4.66134 2.90212 4.66134 1.52048 4.66134C1.40995 4.41014 1.24415 4.15893 1.07836 4.15893C0.912559 4.41014 0.802028 4.91255 0.746762 5.66616C0.691496 6.16857 0.63623 6.92219 0.63623 7.4246C0.746762 8.17821 0.912559 8.68062 1.07836 8.68062C1.29942 8.93183 1.46522 9.18303 1.68628 9.18303H2.73633C3.12319 9.18303 3.51005 9.18303 3.95217 9.18303C4.11797 8.93183 4.28377 8.68062 4.44956 8.68062C4.61536 8.68062 4.78116 8.68062 5.00222 8.68062C5.16802 8.68062 5.38908 8.68062 5.55488 8.68062C5.72068 8.68062 5.94174 8.42942 6.10754 8.42942C6.3286 8.68062 6.54966 8.68062 6.71546 8.68062C6.93652 8.68062 7.15758 8.42942 7.37865 8.42942C7.59971 8.42942 7.82077 8.17821 8.04183 8.17821C8.2629 8.17821 8.53923 8.17821 8.76029 8.17821C8.87082 8.17821 8.98135 7.92701 9.14715 7.92701C9.92087 7.92701 10.6393 7.92701 11.413 7.6758C12.1868 7.4246 12.9052 7.4246 13.6789 7.6758C14.1211 7.4246 14.5632 7.4246 15.0053 7.4246C15.5027 7.4246 15.9448 7.4246 16.4422 7.6758C16.4975 7.4246 16.5528 7.17339 16.7185 7.4246C16.8843 7.4246 16.9949 7.4246 17.1607 7.4246C17.1607 7.4246 17.1607 7.17339 17.1054 7.17339C17.0501 7.17339 17.1054 6.92219 17.1607 6.92219C17.2159 6.92219 17.2712 6.92219 17.2159 7.17339C17.2159 7.4246 17.2159 7.4246 17.3265 7.4246C17.3265 7.4246 17.3265 7.17339 17.2712 7.17339C17.2159 7.17339 17.2159 7.17339 17.3265 6.92219C17.437 7.4246 17.6028 7.4246 17.7133 7.17339C17.8791 6.92219 18.0449 6.92219 18.1555 7.17339C18.1555 6.92219 18.1555 6.67098 18.266 6.67098C18.3213 6.67098 18.3765 6.92219 18.3765 6.67098C18.4318 6.67098 18.4871 6.67098 18.5976 6.67098C18.5976 6.67098 18.5976 6.92219 18.5423 6.92219C18.4871 6.92219 18.4871 6.92219 18.4871 7.17339C18.5976 7.17339 18.6528 7.17339 18.6528 7.17339C18.6528 7.17339 18.6528 6.92219 18.7081 6.67098C18.7634 6.67098 18.7634 6.67098 18.7634 6.92219C18.7081 6.92219 18.7634 7.17339 18.7634 7.17339C19.0397 7.17339 19.316 6.92219 19.5371 6.92219C19.7582 6.92219 19.9792 6.92219 20.2003 7.17339C20.2556 6.67098 20.3661 6.67098 20.4766 6.92219C20.4766 6.67098 20.5319 6.41978 20.5871 6.41978C20.6977 6.41978 20.6977 6.16857 20.6424 5.91737C20.7529 5.91737 20.7529 6.16857 20.6977 6.16857C20.6424 6.41978 20.6424 6.41978 20.6977 6.67098H20.4766C20.4766 6.92219 20.5319 7.17339 20.6424 6.92219C20.7529 6.67098 20.7529 6.67098 20.7529 6.67098C20.8082 6.92219 20.8635 6.92219 20.9187 6.67098C20.974 6.41978 21.0293 6.41978 21.0845 6.67098C21.0293 6.67098 21.0293 6.92219 21.0293 6.92219C21.0293 7.17339 21.0845 7.17339 21.0845 7.17339C21.0845 6.67098 21.1951 6.16857 21.3056 6.16857C21.3609 6.41978 21.3609 6.41978 21.3056 6.41978C21.2503 6.41978 21.2503 6.67098 21.3056 6.67098C21.4161 6.41978 21.5819 6.41978 21.6925 6.67098C21.6925 6.67098 21.6925 6.41978 21.6372 6.41978C21.5819 6.41978 21.6372 6.16857 21.6925 6.16857C21.7477 6.16857 21.803 6.16857 21.7477 6.41978C21.7477 6.67098 21.7477 6.67098 21.803 6.67098C21.8583 6.67098 21.9688 6.41978 22.0241 6.16857C22.0793 6.16857 22.0793 6.16857 22.0793 6.41978C22.0793 6.67098 22.0793 6.67098 22.1346 6.67098C22.2451 6.41978 22.3556 6.41978 22.4662 6.41978C22.5767 6.41978 22.632 6.41978 22.6872 6.67098C22.7425 6.41978 22.853 6.41978 22.9083 6.41978C23.0188 6.41978 23.1294 6.41978 23.2399 6.41978C23.3504 6.41978 23.461 6.41978 23.5715 6.41978C23.682 6.41978 23.7373 6.16857 23.8478 5.91737V6.16857C23.8478 6.16857 23.8478 6.16857 23.8478 6.41978C24.0136 6.41978 24.1242 6.41978 24.2899 6.41978C24.4557 6.16857 24.5663 6.41978 24.511 6.67098C24.5663 6.67098 24.6215 6.41978 24.6768 6.16857C24.7321 5.91737 24.7873 5.91737 24.8979 5.66616C24.9531 5.66616 24.9531 5.91737 24.9531 6.16857C25.0084 6.16857 25.1189 6.16857 25.1742 6.16857C25.2295 6.16857 25.2847 6.16857 25.2847 6.41978C25.2847 6.41978 25.34 6.16857 25.34 5.91737C25.34 5.66616 25.34 5.66616 25.3953 5.41496C25.4505 5.41496 25.5058 5.66616 25.4505 5.66616C25.4505 5.66616 25.4505 5.91737 25.5058 5.91737C25.6716 5.66616 25.8374 5.41496 26.0032 5.66616C26.169 5.91737 26.3348 5.66616 26.4453 5.41496V5.66616C26.5558 5.66616 26.6111 5.66616 26.6664 5.66616C26.7216 5.66616 26.7769 5.66616 26.8322 5.41496C26.8874 5.66616 26.998 5.91737 27.0532 5.91737C27.1085 5.91737 27.1085 5.66616 27.1085 5.66616C27.1085 5.41496 27.1085 5.41496 27.219 5.66616C27.1638 5.66616 27.1638 5.91737 27.1638 5.91737C27.219 5.91737 27.2743 5.91737 27.3296 5.91737C27.3848 5.91737 27.4401 5.91737 27.4954 5.91737V5.66616H27.3848C27.3296 5.66616 27.3296 5.66616 27.3296 5.66616C27.3296 5.66616 27.3296 5.66616 27.3296 5.41496C27.4401 5.41496 27.5506 5.41496 27.7164 5.41496C27.7717 5.41496 27.7717 5.66616 27.7717 5.66616C27.7164 5.66616 27.7717 5.91737 27.8822 5.91737H27.9375L27.9928 5.66616C28.1033 5.66616 28.1033 5.66616 28.1033 5.91737C28.1033 6.16857 28.1033 6.16857 28.1585 6.16857C28.2138 6.16857 28.2138 5.91737 28.2138 5.91737C28.2138 5.91737 28.2138 5.66616 28.2691 5.66616H28.4901C28.4901 5.91737 28.4901 5.91737 28.5454 6.16857V5.91737C28.5454 5.91737 28.5454 5.66616 28.6007 5.66616C28.7112 5.66616 28.8217 5.66616 28.9323 5.66616C29.0428 5.41496 29.1533 5.66616 29.2086 5.91737C29.2639 5.91737 29.3191 5.66616 29.3744 5.41496C29.4297 5.16375 29.4849 5.16375 29.5955 5.16375C29.5955 5.16375 29.6507 5.16375 29.6507 5.41496C29.706 5.41496 29.7613 5.41496 29.8165 5.16375C29.8718 4.91255 29.9271 4.91255 29.9823 4.91255C29.9823 5.16375 29.9823 5.16375 30.0376 5.16375C30.0928 5.16375 30.0928 5.41496 30.0376 5.41496C30.2034 4.91255 30.3692 4.91255 30.535 4.91255C30.7008 4.91255 30.9218 4.91255 31.0876 5.41496C31.0876 5.41496 31.0876 5.16375 31.0324 5.16375C30.9771 5.16375 30.9771 5.16375 31.0876 4.91255C31.1429 5.16375 31.1982 5.16375 31.3087 4.91255C31.364 4.91255 31.4745 4.91255 31.5298 4.91255C31.4192 5.16375 31.3087 5.16375 31.1982 5.16375C31.3087 5.41496 31.4745 5.66616 31.585 5.41496C31.6956 5.16375 31.8613 5.41496 31.9719 5.66616C32.0824 5.41496 32.1929 5.16375 32.3035 5.41496C32.414 5.66616 32.5798 5.66616 32.6903 5.41496V4.91255C32.5798 4.91255 32.4693 4.91255 32.3035 4.91255C32.2482 5.16375 32.1377 4.91255 32.0824 4.66134C32.3035 4.66134 32.5245 4.41014 32.6903 4.66134C32.8561 4.66134 33.0219 4.66134 33.243 4.41014C33.243 4.66134 33.243 4.66134 33.1877 4.66134C33.1325 4.66134 33.0772 4.66134 33.0219 4.66134C32.9667 4.66134 32.9114 4.66134 32.8561 4.66134C32.8009 4.66134 32.8009 4.91255 32.8561 4.91255C32.9667 4.66134 33.0772 4.66134 33.1325 4.66134C33.243 4.91255 33.3535 4.91255 33.5193 4.66134C33.5193 4.41014 33.5193 4.15893 33.5746 4.15893C33.6299 4.41014 33.6851 4.41014 33.6851 4.15893C33.7404 4.15893 33.7957 4.15893 33.7957 4.15893C33.8509 4.41014 33.8509 4.41014 33.7404 4.41014C33.6299 4.41014 33.6299 4.41014 33.6299 4.41014C33.6299 4.66134 33.7404 4.66134 33.8509 4.41014C33.9062 4.41014 33.9062 4.15893 33.9062 4.15893L33.8509 3.90773C33.9062 4.15893 34.0167 3.90773 34.072 3.90773C34.1272 3.65652 34.1825 3.65652 34.2378 3.90773C34.1825 3.90773 34.1825 4.15893 34.1825 4.15893C34.1825 4.15893 34.2378 4.15893 34.2378 4.41014C34.072 4.41014 34.0167 4.41014 34.0167 4.91255C34.072 4.66134 34.1825 4.66134 34.2378 4.66134C34.293 4.66134 34.4036 4.66134 34.5141 4.41014C34.5141 3.90772 34.5694 3.90773 34.6799 3.90773C34.7904 3.90773 34.901 3.90773 35.0115 3.90773V4.15893C35.0115 4.15893 35.0115 4.15893 35.0115 4.41014H35.3984C35.3984 4.15893 35.3431 4.15893 35.2326 4.15893C35.122 4.15893 35.122 4.15893 35.122 3.90773C35.3431 3.90773 35.5642 3.90773 35.7852 3.90773C36.0063 3.90773 36.2273 3.90773 36.3931 3.40531C36.5589 3.90773 36.7247 4.15893 36.8905 4.15893C37.1116 4.15893 37.2774 4.15893 37.4985 3.90773C37.3879 3.90773 37.2774 3.90773 37.1116 3.90773C37.0011 3.90773 36.8905 3.90773 36.7247 3.90773C36.9458 3.65652 37.1669 3.65652 37.3879 3.65652C37.609 3.65652 37.7748 3.65652 37.9958 3.40531C37.9406 3.65652 37.9958 3.65652 38.0511 3.65652C38.1064 3.65652 38.1064 3.65652 38.0511 3.65652C38.1064 3.65652 38.1616 3.90773 38.2169 3.90773C38.2722 3.90773 38.3827 3.90773 38.438 4.15893C38.438 3.65652 38.4932 3.40531 38.5485 3.40531C38.6038 3.40531 38.7143 3.40531 38.7696 3.65652C38.8248 3.90773 38.8801 3.90773 38.9906 3.90773C39.0459 3.90773 39.0459 3.65652 38.9354 3.65652C38.8248 3.65652 38.8248 3.40531 38.8801 3.40531C38.9354 3.40531 39.0459 3.40531 39.1012 3.40531C39.1564 3.15411 39.267 3.40531 39.3222 3.65652C39.267 3.65652 39.267 3.65652 39.267 3.65652H39.2117C39.1564 3.90773 39.1564 4.15893 39.1012 4.15893C39.3222 3.90773 39.488 3.90773 39.7091 3.90773C39.8749 4.15893 40.0407 3.90773 40.2065 3.65652H39.9854C39.9301 3.65652 39.8749 3.65652 39.8196 3.40531C40.0959 3.40531 40.3723 3.40531 40.6486 3.40531C40.5381 3.40531 40.4828 3.65652 40.4828 3.65652C40.5381 3.65652 40.5933 3.65652 40.5933 3.90773C40.7591 3.90773 40.9249 3.65652 41.0907 3.65652C41.2013 3.65652 41.3671 3.40531 41.4223 3.15411C41.4776 3.40531 41.5881 3.40531 41.6434 3.40531C41.7539 3.40531 41.8644 3.40531 41.975 3.40531C42.0302 3.40531 42.0302 3.65652 41.975 3.65652C41.9197 3.65652 41.975 3.90773 42.0302 3.90773C42.0302 3.65652 42.0302 3.40531 42.0855 3.65652C42.1408 3.65652 42.1408 3.90773 42.1408 3.90773C42.196 3.90773 42.196 3.65652 42.1408 3.65652C42.0855 3.65652 42.1408 3.40531 42.1408 3.40531C42.196 3.40531 42.2513 3.40531 42.3066 3.65652C42.3066 3.90773 42.4171 3.90773 42.5276 3.90773C42.5276 3.65652 42.5276 3.40531 42.5829 3.40531C42.5829 3.65652 42.5829 3.65652 42.6382 3.65652C42.6934 3.65652 42.6934 3.90773 42.6934 4.15893C42.804 4.15893 42.9145 3.90773 43.025 4.15893C43.1356 4.15893 43.1908 4.15893 43.3013 3.90773C43.4119 4.15893 43.4671 4.15893 43.5777 4.15893C43.6882 4.15893 43.7987 3.90773 43.854 3.90773C43.9645 3.65652 44.0751 3.65652 44.1303 3.40531C44.2409 3.15411 44.2961 3.15411 44.4067 2.9029V3.15411C44.4067 3.15411 44.4067 3.15411 44.4067 3.40531C44.4619 3.40531 44.4619 3.40531 44.5172 3.40531C44.5725 3.40531 44.6277 3.40531 44.6277 3.40531L44.5725 3.65652C44.6277 3.65652 44.683 3.65652 44.7383 3.65652C44.7935 3.65652 44.8488 3.65652 44.9041 3.65652C44.9041 3.90773 44.9041 3.90773 44.8488 3.90773C44.7935 3.90773 44.7383 3.90773 44.7383 3.90773C44.683 3.90773 44.683 3.90773 44.6277 3.90773C44.6277 3.90773 44.5725 3.90773 44.5725 4.15893C44.6277 4.15893 44.7383 4.15893 44.7935 4.15893C44.9041 4.15893 44.9593 4.15893 45.0146 3.90773C44.9593 3.90773 44.9593 3.90773 44.9593 3.65652L44.9041 3.40531C44.9041 3.15411 44.9593 3.15411 45.0146 3.15411C45.0146 3.15411 45.0699 3.15411 45.0699 3.40531C45.0699 3.40531 45.0699 3.40531 45.1251 3.40531C45.2357 3.15411 45.3462 3.15411 45.4567 2.9029C45.5672 2.9029 45.6778 2.6517 45.7883 2.6517C45.8436 2.6517 45.9541 2.9029 46.0094 2.9029C46.0646 3.15411 46.1752 3.15411 46.2304 3.15411C46.2304 2.9029 46.2304 2.6517 46.2857 2.6517C46.2304 2.6517 46.1752 2.6517 46.1752 2.6517C46.1199 2.6517 46.1199 2.6517 46.1199 2.40049C46.1752 2.40049 46.2857 2.40049 46.341 2.40049C46.3962 2.40049 46.4515 2.40049 46.5068 2.40049C46.3962 2.6517 46.341 2.9029 46.3962 3.40531C46.5068 3.40531 46.5068 3.40531 46.4515 3.15411C46.3962 2.9029 46.3962 2.9029 46.4515 2.9029C46.5068 3.15411 46.562 3.15411 46.6173 3.15411C46.6726 3.15411 46.7831 3.15411 46.8384 3.40531C46.8936 3.65652 47.0042 3.65652 47.0594 3.65652H47.391C47.3357 3.40531 47.391 3.40531 47.5015 3.15411C47.5568 2.9029 47.6673 2.9029 47.7226 2.9029C47.7779 3.15411 47.7779 3.15411 47.7226 3.15411C47.6673 3.15411 47.6673 3.15411 47.6673 3.40531C47.7779 3.40531 47.7779 3.40531 47.7779 3.65652C47.8331 3.90773 47.9437 3.65652 47.9989 3.65652C48.0542 3.40531 48.1095 3.40531 48.1647 3.15411C48.22 3.40531 48.2753 3.40531 48.3305 3.40531C48.3858 3.40531 48.4411 3.15411 48.4411 3.15411C48.5516 3.65652 48.6621 3.90773 48.8279 3.65652C48.9937 3.40531 49.1043 3.40531 49.2148 3.15411C49.27 3.40531 49.3806 3.40531 49.4911 3.40531C49.6016 3.40531 49.7122 3.40531 49.7674 3.65652C49.8227 3.65652 49.8227 3.40531 49.878 3.15411C49.878 2.9029 49.9885 2.9029 50.099 2.9029V3.15411V3.40531H50.1543C50.1543 3.40531 50.1543 3.40531 50.099 3.65652V3.40531H50.0438C50.0438 3.40531 50.0438 3.40531 49.9885 3.40531C49.9885 3.65652 49.9885 3.65652 49.9885 3.65652L49.9332 3.90773C49.9885 3.90773 49.9885 3.90773 49.9885 3.90773C50.0438 3.90773 50.099 3.90773 50.1543 3.90773C50.1543 3.65652 50.1543 3.40531 50.2096 3.40531C50.2648 3.65652 50.3201 3.65652 50.3754 3.90773C50.4306 3.90773 50.4859 3.90773 50.5412 3.90773C50.5964 3.90773 50.6517 3.90773 50.707 3.65652C50.7622 3.65652 50.8175 3.65652 50.8728 3.65652C50.928 3.65652 50.928 3.40531 50.928 3.40531C50.928 3.40531 50.928 3.15411 50.9833 3.15411C51.0385 3.15411 51.0385 3.40531 51.0385 3.40531C50.9833 3.65652 51.0386 3.65652 51.1491 3.65652C51.1491 3.40531 51.1491 3.40531 51.2043 3.40531C51.2596 3.40531 51.2596 3.40531 51.3149 3.15411C51.3701 3.15411 51.3701 3.40531 51.4254 3.40531H51.5912C51.5912 3.65652 51.5912 3.65652 51.6465 3.65652C51.7017 3.40531 51.8123 3.40531 51.9228 3.65652C52.0886 3.90773 52.1991 3.65652 52.1991 3.40531C52.0886 3.40531 52.0886 3.40531 52.0886 3.15411C52.1439 2.9029 52.1439 2.9029 52.1991 2.6517C52.2544 2.40049 52.3097 2.40049 52.3649 2.6517C52.3097 2.9029 52.3097 2.9029 52.2544 2.9029C52.1991 2.9029 52.1991 2.9029 52.1991 3.15411C52.3649 3.15411 52.5307 3.15411 52.6413 3.40531C52.7518 3.65652 52.9176 3.40531 53.0281 3.15411C53.0281 2.9029 53.0834 2.9029 53.1386 2.9029C53.1939 2.9029 53.2492 2.9029 53.3044 2.9029V3.15411H53.415C53.3597 3.15411 53.3044 3.15411 53.3044 3.15411C53.3044 2.9029 53.3597 2.6517 53.4702 2.6517C53.4702 2.9029 53.4702 3.15411 53.4702 3.15411C53.5255 3.40531 53.4702 3.65652 53.415 3.90773C53.4702 3.90773 53.5255 3.65652 53.636 3.40531C53.6913 3.15411 53.8018 3.15411 53.8571 3.15411C53.9124 3.40531 53.9676 3.65652 54.0782 3.40531C54.1887 3.40531 54.2992 3.40531 54.3545 3.65652C54.4098 3.40531 54.465 3.15411 54.465 3.40531C54.5203 3.65652 54.5203 3.65652 54.5203 3.65652C54.465 3.65652 54.465 3.65652 54.465 3.90773C54.5756 3.90773 54.5756 3.90773 54.5756 3.90773C54.5756 3.65652 54.6308 3.65652 54.6861 3.90773V4.15893C54.7413 4.15893 54.7414 4.15893 54.7414 4.15893C54.7414 3.90773 54.7413 3.90773 54.6861 3.90773C54.7413 3.90773 54.7966 3.65652 54.7966 3.40531C54.7966 3.15411 54.8519 3.15411 54.9071 3.40531C54.9071 3.15411 54.9071 3.15411 54.9071 3.15411C54.8519 3.15411 54.8519 2.9029 54.8519 2.9029C54.9071 2.9029 54.9624 3.15411 55.0177 3.15411C55.0729 3.15411 55.1282 3.15411 55.1835 3.40531C55.1282 3.40531 55.1282 3.65652 55.0729 3.65652C55.0177 3.65652 55.0177 3.65652 55.0177 3.90773C55.0177 4.15893 55.0729 4.41014 55.1282 4.41014C55.1282 4.15893 55.1835 3.90773 55.294 3.90773C55.4045 3.90773 55.4598 3.65652 55.5151 3.65652C55.5151 3.65652 55.5151 3.90773 55.4598 3.90773C55.4598 3.90773 55.4045 3.90773 55.4045 4.15893C55.4598 4.15893 55.5151 4.15893 55.5151 3.90773C55.5151 3.90773 55.5703 3.90773 55.5703 4.15893C55.6256 4.15893 55.6256 3.90773 55.5703 3.90773C55.5151 3.90773 55.5703 3.65652 55.6256 3.65652V3.90773C55.6256 3.90773 55.6256 3.90773 55.6809 3.90773C55.6809 3.90773 55.6809 4.15893 55.6256 4.15893C55.5703 4.15893 55.5703 4.41014 55.5703 4.41014C55.6256 4.41014 55.6809 4.41014 55.6809 4.41014C55.7361 4.41014 55.7361 4.41014 55.7914 4.41014C55.7914 4.15893 55.7914 4.15893 55.8467 4.15893C55.9019 4.15893 55.9019 4.15893 55.9019 4.41014C55.9019 4.41014 55.9019 4.66134 55.9572 4.66134C55.9572 4.41014 55.9572 4.41014 56.0125 4.41014C56.0677 4.66134 56.123 4.66134 56.1783 4.66134C56.2335 4.41014 56.3441 4.41014 56.4546 4.15893C56.5099 4.41014 56.5651 4.41014 56.7309 4.41014C56.8414 4.41014 56.8967 4.41014 57.0072 4.41014C57.0072 4.41014 56.952 4.66134 56.8967 4.66134C56.8414 4.66134 56.8414 4.66134 56.8414 4.91255C56.8967 4.66134 57.0072 4.66134 57.0625 4.66134C57.1178 4.91255 57.2283 4.91255 57.2836 4.66134C57.3388 4.41014 57.2836 4.15893 57.2283 4.41014C57.1178 4.41014 57.1178 4.41014 57.173 4.15893C57.3388 4.15893 57.4494 4.15893 57.3941 4.15893C57.3941 4.41014 57.4494 4.41014 57.5599 4.66134C57.6704 4.66134 57.6704 4.41014 57.5599 4.41014C57.5046 4.41014 57.5046 4.15893 57.5599 4.15893C57.7257 4.15893 57.8362 4.15893 57.9468 4.15893C58.0573 4.15893 58.2231 4.41014 58.2784 4.91255C58.2784 4.66134 58.2784 4.66134 58.2784 4.41014C58.2784 4.15893 58.2784 4.15893 58.3336 4.15893C58.3889 4.15893 58.3889 4.15893 58.3889 4.41014C58.3889 4.66134 58.3889 4.66134 58.4994 4.66134C58.5547 4.66134 58.5547 4.41014 58.4994 4.41014C58.4442 4.41014 58.4442 4.15893 58.4994 4.15893C58.7205 4.41014 58.9968 4.66134 59.2179 4.41014C59.4942 4.41014 59.7153 4.15893 59.9916 4.15893C60.0469 4.41014 60.0469 4.41014 59.9916 4.41014C59.9363 4.41014 59.9363 4.41014 59.9363 4.66134C59.9363 4.66134 60.0469 4.91255 60.1574 4.91255C60.1574 4.41014 60.2127 4.41014 60.2679 4.41014C60.2679 4.41014 60.2679 4.41014 60.2679 4.66134C60.2679 4.66134 60.2679 4.66134 60.2679 4.91255C60.489 4.91255 60.6548 4.91255 60.7653 4.91255L61.1522 5.16375L61.0969 5.41496C61.0416 5.41496 61.0416 5.41496 61.0969 5.66616C61.2074 5.66616 61.2627 5.66616 61.3732 5.66616C61.4838 5.66616 61.539 5.66616 61.539 5.41496C61.4838 5.41496 61.4285 5.16375 61.4285 5.41496C61.3732 5.41496 61.318 5.41496 61.318 5.41496C61.4838 5.16375 61.7048 5.16375 61.8706 5.16375C62.0917 5.16375 62.2575 5.16375 62.4785 5.41496C62.6996 5.41496 62.9207 5.41496 63.1417 5.16375C63.3075 5.16375 63.4733 5.16375 63.6391 5.66616C63.6391 5.66616 63.6944 5.66616 63.7497 5.66616C63.8049 5.66616 63.8602 5.41496 63.9155 5.41496C63.9707 5.41496 63.9707 5.66616 63.9707 5.66616C63.9707 5.66616 64.026 5.91737 64.1365 5.66616C64.1918 5.66616 64.1918 5.41496 64.1918 5.41496C64.1365 5.41496 64.1918 5.16375 64.2471 5.16375C64.3023 5.41496 64.3023 5.66616 64.3576 5.66616C64.4128 5.41496 64.4681 5.41496 64.5786 5.16375C64.9102 5.41496 65.1866 5.41496 65.4629 5.66616C65.7392 5.66616 66.0708 5.66616 66.3472 5.66616L66.4024 5.41496C66.4024 5.41496 66.4577 5.16375 66.4577 4.91255C66.4024 4.91255 66.3472 4.91255 66.3472 4.91255C66.2919 4.91255 66.2919 4.91255 66.2919 4.66134C66.4024 4.66134 66.5129 4.66134 66.6235 4.66134C66.734 4.66134 66.8445 4.66134 66.9551 4.41014C67.0103 4.41014 67.0103 4.66134 66.9551 4.66134C67.0103 4.66134 67.0656 4.66134 67.1209 4.66134C67.1761 4.66134 67.2314 4.66134 67.2314 4.41014C67.0103 4.41014 66.7893 4.41014 66.6235 4.15893C66.4024 3.90773 66.1814 3.90773 65.9603 4.15893C65.9603 4.15893 65.9603 4.41014 65.9603 4.66134C65.9603 4.91255 65.905 5.16375 65.8498 5.16375C65.7945 4.91255 65.7945 4.91255 65.8498 4.66134C65.905 4.41014 65.905 4.41014 65.7945 4.41014C65.7392 4.41014 65.7392 4.66134 65.684 4.66134C65.684 4.91255 65.6287 4.91255 65.5734 4.91255C65.5182 4.91255 65.4629 4.91255 65.4629 4.66134C65.4076 4.66134 65.3524 4.66134 65.3524 4.66134C65.2971 4.66134 65.2971 4.91255 65.2971 5.16375C65.2971 5.41496 65.2971 5.41496 65.1866 5.41496C65.1866 5.41496 65.1866 5.16375 65.2418 5.16375C65.2418 5.16375 65.2418 4.91255 65.1866 4.91255C65.1866 4.66134 65.1313 4.66134 65.076 4.66134C65.0208 4.66134 64.9655 4.66134 65.0208 4.41014C65.1313 4.41014 65.2971 4.41014 65.4076 4.66134C65.5182 4.66134 65.6287 4.66134 65.7392 4.41014C65.4629 4.41014 65.1866 4.15893 64.855 4.15893C64.5234 4.15893 64.1918 3.90773 63.8602 3.90773C63.5286 3.90773 63.1417 3.65652 62.8101 3.65652C62.4785 3.65652 62.147 3.65652 61.8706 3.65652C61.9259 3.90773 62.0364 3.90773 62.147 3.90773C62.2575 3.90773 62.3128 3.90773 62.4233 4.15893C62.6996 3.90773 62.9207 3.90773 63.197 3.90773C63.4181 3.90773 63.6944 4.15893 63.9155 4.15893C63.9155 4.15893 63.9155 4.41014 63.8602 4.41014C63.8602 4.41014 63.8602 4.41014 63.9155 4.41014C64.0813 4.15893 64.3023 4.15893 64.4681 4.15893C64.6339 4.15893 64.855 4.41014 65.0208 4.41014C65.0208 4.66134 64.9655 4.66134 64.9102 4.66134C64.855 4.66134 64.7997 4.66134 64.855 4.91255C64.9102 4.91255 64.9102 5.16375 64.9655 4.91255H65.0208C64.9102 5.16375 64.7997 5.16375 64.7444 4.91255C64.6892 4.66134 64.5786 4.41014 64.4681 4.41014C64.3023 4.66134 64.1365 4.66134 64.026 4.41014C64.026 4.91255 63.9707 5.16375 63.8049 5.16375V4.91255C63.7497 4.91255 63.7497 4.91255 63.7497 4.91255H63.6944L63.7497 4.66134C63.8049 4.66134 63.8049 4.66134 63.8049 4.91255C63.8602 4.66134 63.9155 4.66134 63.9155 4.66134C63.8049 4.41014 63.7497 4.41014 63.6391 4.41014C63.5839 4.41014 63.4733 4.41014 63.4181 4.15893C63.3075 4.41014 63.197 4.41014 63.0865 4.15893C62.9759 3.90773 62.8654 4.15893 62.8101 4.41014C62.7549 4.15893 62.6443 4.15893 62.5891 4.15893C62.5338 4.15893 62.5338 4.41014 62.5338 4.66134C62.5338 4.91255 62.4785 4.91255 62.4233 4.91255V4.66134L62.4785 4.41014C62.4233 4.15893 62.2575 3.90773 62.2022 4.15893C62.0917 4.41014 61.9812 4.15893 61.9259 3.90773C61.8706 4.15893 61.8154 4.41014 61.7048 4.15893C61.5943 4.15893 61.4838 4.15893 61.4285 4.15893C61.4838 4.15893 61.539 4.15893 61.5943 4.41014C61.6496 4.66134 61.5943 4.66134 61.539 4.91255C61.4838 4.66134 61.4285 4.41014 61.3732 4.41014C61.318 4.41014 61.2627 4.15893 61.318 3.90773C61.1522 4.15893 60.9864 4.15893 60.8206 3.90773C60.71 3.90773 60.5442 3.90773 60.4337 4.15893C60.1574 3.65652 59.8811 3.65652 59.5495 3.65652C59.2179 3.65652 58.8863 3.65652 58.5547 3.65652C58.2784 3.40531 57.9468 3.40531 57.6704 3.40531C57.3388 3.40531 57.0072 3.40531 56.6757 3.15411C56.7862 2.9029 56.952 2.9029 57.0625 3.15411C57.2283 3.40531 57.3388 3.15411 57.3941 2.9029C57.2283 2.9029 57.0625 2.6517 56.952 2.9029C56.8414 2.9029 56.7309 2.9029 56.5651 2.9029C56.5099 2.9029 56.5099 3.15411 56.5651 3.15411C56.6204 3.15411 56.6204 3.40531 56.5651 3.40531C55.9019 3.40531 55.294 3.40531 54.7414 3.40531C54.6861 3.40531 54.6861 3.65652 54.6861 3.90773C54.6861 4.15893 54.6308 4.15893 54.5203 3.90773H54.5756C54.5756 3.90773 54.6308 3.90773 54.6308 3.65652C54.465 3.40531 54.244 3.40531 54.0782 3.40531C53.8571 3.65652 53.7466 3.40531 53.6913 3.15411C53.7466 3.15411 53.8018 3.15411 53.8571 3.15411C53.9124 3.15411 53.9124 3.15411 53.9124 2.9029C53.6913 2.9029 53.4702 2.9029 53.2492 2.9029C53.0281 2.6517 52.8071 2.9029 52.6413 3.15411C52.8071 3.15411 52.9729 3.15411 53.0834 3.15411C53.2492 2.9029 53.3597 3.15411 53.5255 3.40531C52.9728 3.40531 52.4202 3.40531 51.8675 3.40531C51.3149 3.40531 50.8175 3.40531 50.2648 3.40531C50.2096 3.40531 50.2096 3.40531 50.2096 3.65652C50.2096 3.65652 50.1543 3.90773 50.099 3.90773C50.099 3.65652 50.0438 3.65652 49.9885 3.65652C49.9332 3.65652 49.878 3.65652 49.8227 3.40531C49.1043 3.40531 48.3305 3.40531 47.6121 3.40531C46.8936 3.40531 46.1752 3.40531 45.5672 3.40531C45.6225 3.15411 45.5672 3.15411 45.512 2.9029C45.4014 3.15411 45.2909 3.15411 45.1251 2.9029C44.9593 2.6517 44.8488 2.9029 44.7935 3.15411C44.9041 3.15411 45.0146 3.15411 45.1804 3.15411C45.2909 2.9029 45.4014 3.15411 45.512 3.40531C45.2356 3.40531 44.9041 3.40531 44.6277 3.65652C44.2961 3.65652 44.0198 3.65652 43.6882 3.40531L44.2409 3.15411C44.4067 3.15411 44.5725 3.15411 44.7383 3.15411V2.9029C44.7383 2.9029 44.7383 2.9029 44.7383 2.6517C44.2961 2.9029 43.854 2.9029 43.4119 2.9029C43.025 2.6517 42.5829 2.9029 42.196 3.65652C42.1408 3.65652 42.0855 3.65652 42.0302 3.65652C41.975 3.65652 41.9197 3.65652 41.8644 3.40531C41.9197 3.40531 42.0302 3.40531 42.0855 3.40531C42.196 3.40531 42.196 3.40531 42.196 3.15411C40.9802 3.15411 39.8196 3.40531 38.8248 3.40531C37.7748 3.40531 36.6695 3.65652 35.4536 3.65652L35.1773 3.90773C34.8457 3.90773 34.5694 3.65652 34.2378 3.90773C33.9062 3.90773 33.5746 4.15893 33.2983 4.15893C33.0772 3.90773 32.8561 3.90773 32.6351 3.90773C32.414 3.90773 32.1929 4.15893 31.9719 4.15893V4.41014C32.0271 4.41014 32.0271 4.41014 32.0271 4.66134C31.9719 4.66134 31.9719 4.66134 31.9166 4.91255C31.8614 4.91255 31.8614 4.91255 31.8061 4.91255L31.8614 4.66134C31.8614 4.66134 31.8614 4.41014 31.8614 4.15893C31.1429 4.41014 30.4244 4.41014 29.6507 4.41014C28.9875 4.41014 28.2691 4.66134 27.6059 4.91255C26.6664 4.91255 25.6163 4.91255 24.6215 5.16375C23.5715 5.41496 22.632 5.66616 21.7477 5.66616C21.1398 5.66616 20.5319 5.66616 19.8687 5.91737C19.2055 6.16857 18.5976 6.16857 17.9344 5.91737C17.7133 6.16857 17.4923 6.16857 17.2712 6.16857C17.0501 6.16857 16.8291 6.16857 16.608 5.91737C17.3265 5.91737 17.9897 5.66616 18.7081 5.41496C19.4266 5.16375 20.0898 5.16375 20.6977 5.41496C20.7529 5.16375 20.8082 5.16375 20.9187 5.16375C20.974 5.16375 21.0845 5.16375 21.1398 4.91255C21.3056 5.16375 21.4714 5.16375 21.6925 5.16375C21.8583 5.16375 22.0241 4.91255 22.1899 4.91255C22.1899 4.91255 22.2451 4.91255 22.2451 5.16375C22.2451 5.16375 22.2451 5.16375 22.3004 5.16375C22.5214 4.91255 22.7978 4.91255 23.0188 4.91255C23.2399 4.91255 23.461 4.91255 23.7373 4.91255C24.2347 4.91255 24.7873 4.91255 25.34 4.66134C25.8927 4.41014 26.4453 4.41014 26.998 4.15893C27.1638 4.15893 27.3848 4.15893 27.5506 4.15893C27.7164 4.15893 27.8822 4.15893 28.1033 4.15893C28.2138 4.15893 28.3243 4.15893 28.3796 3.90773C28.4901 3.90773 28.5454 3.90773 28.6559 3.90773C28.8217 3.90773 28.9323 3.90773 29.0981 3.90773C29.2639 3.90773 29.3744 3.90773 29.4849 3.90773C29.7613 3.90773 30.0376 3.90773 30.3139 3.90773C30.5902 3.90773 30.8666 3.65652 31.2534 3.65652C32.5245 3.65652 33.7957 3.40531 35.1773 3.15411C36.5589 2.9029 37.8853 2.9029 39.1564 2.9029C39.488 2.9029 39.8749 2.9029 40.2065 2.9029L41.2565 2.6517C42.3066 2.6517 43.3566 2.40049 44.4619 2.40049C45.5672 2.40049 46.6726 2.14929 47.7226 2.14929C47.7779 2.14929 47.7779 2.14929 47.7779 2.40049C47.7779 2.40049 47.8331 2.40049 47.8884 2.40049C48.9937 2.40049 50.099 2.14929 51.1491 2.14929C52.1991 2.14929 53.3044 2.14929 54.4098 2.40049C55.3493 2.14929 56.2888 2.14929 57.3388 2.40049C58.3889 2.6517 59.4389 2.6517 60.489 2.6517C60.8758 2.9029 61.3732 2.9029 61.9259 2.9029C62.4785 2.9029 62.9759 2.9029 63.3628 3.15411C64.3576 3.40531 65.4076 3.65652 66.4577 3.90773C67.563 4.15893 68.5578 4.41014 69.5526 4.66134C69.9947 4.91255 70.3815 5.16375 70.8237 5.16375C71.2105 5.16375 71.5974 5.41496 71.9842 5.66616C71.3211 5.66616 70.6026 5.41496 69.8841 5.16375C69.1657 4.91255 68.4472 4.66134 67.7288 4.91255C67.7841 4.91255 67.7841 5.16375 67.7841 5.16375C67.7841 5.41496 67.7841 5.41496 67.7288 5.41496C67.6735 5.16375 67.563 5.41496 67.5077 5.41496C67.4525 5.66616 67.3419 5.41496 67.2867 5.16375C67.2867 5.66616 67.2314 5.66616 67.1209 5.41496C67.0656 5.16375 66.9551 5.16375 66.8998 5.41496C66.8998 5.66616 66.9551 5.91737 67.0103 5.91737C67.0656 5.91737 67.1761 6.16857 67.2314 6.16857C67.2867 5.91737 67.2867 5.91737 67.3419 5.91737H67.563C67.6183 5.91737 67.6183 5.66616 67.6183 5.66616C67.6183 5.66616 67.6183 5.41496 67.6735 5.41496C67.7288 5.41496 67.7841 5.41496 67.8946 5.66616C67.8946 5.66616 67.8393 5.91737 67.7841 5.91737C67.7288 5.91737 67.6735 5.91737 67.7288 6.16857C67.8393 6.41978 67.9499 6.41978 68.0604 6.16857C68.2262 6.16857 68.2814 6.16857 68.3367 6.41978H68.1157C68.0604 6.41978 68.0051 6.41978 68.0051 6.67098C68.4472 6.67098 68.8894 6.67098 69.3315 7.17339C69.7184 7.4246 70.1605 7.6758 70.6026 7.6758C70.6026 7.6758 70.6026 7.92701 70.6579 7.92701C70.7131 7.92701 70.7131 7.92701 70.7131 7.92701C70.9895 7.92701 71.3211 7.6758 71.5974 7.92701C71.929 7.92701 72.2606 7.92701 72.6474 7.92701C72.758 7.92701 72.9238 7.92701 73.0343 7.6758C73.2001 7.4246 73.3659 7.4246 73.4764 7.4246C73.1448 6.92219 73.1448 6.67098 73.1448 6.41978ZM66.2366 4.66134C66.1814 4.66134 66.1814 4.91255 66.1814 5.16375C66.1814 5.41496 66.1814 5.41496 66.0708 5.41496C66.0708 5.16375 66.0708 4.91255 66.0708 4.91255C66.0156 4.91255 66.0155 4.66134 66.0155 4.66134C66.0708 4.66134 66.1814 4.66134 66.2366 4.66134ZM65.076 4.91255C65.076 5.16375 65.076 5.16375 65.076 4.91255C65.0208 5.16375 64.9655 4.91255 64.9655 4.91255H65.076ZM63.3075 4.66134C63.3628 4.66134 63.3628 4.66134 63.3628 4.66134C63.3628 4.66134 63.3628 4.66134 63.4181 4.66134C63.4181 4.91255 63.4181 4.91255 63.3075 4.66134C63.2523 4.91255 63.2523 4.91255 63.3075 4.66134ZM63.0865 4.66134C63.1417 4.66134 63.1417 4.91255 63.1417 4.91255C63.0865 4.91255 63.0865 4.91255 63.0312 4.91255C63.0312 4.66134 63.0312 4.41014 63.0865 4.66134ZM62.0364 4.41014C62.0364 4.66134 62.0364 4.66134 62.0364 4.66134C62.0364 4.66134 62.0917 4.66134 62.0917 4.91255C61.9812 4.91255 61.8706 4.66134 61.8706 4.41014H62.0364ZM60.9864 4.15893C60.9864 4.15893 61.0416 4.15893 60.9864 4.15893C61.0416 4.41014 60.9864 4.66134 60.9311 4.41014L60.9864 4.15893C60.9864 4.15893 60.9311 4.15893 60.9864 4.15893ZM59.7153 4.15893C59.7705 4.15893 59.7705 4.15893 59.7705 4.41014C59.7705 4.41014 59.7705 4.66134 59.7153 4.66134C59.7153 4.41014 59.7153 4.41014 59.7153 4.15893C59.7153 4.15893 59.66 4.15893 59.7153 4.15893ZM59.6047 4.15893C59.6047 4.41014 59.6047 4.41014 59.6047 4.15893V4.15893ZM57.781 4.41014C57.781 4.41014 57.781 4.41014 57.7257 4.41014H57.781ZM57.5599 3.90773H57.6152V4.15893H57.5599V3.90773ZM57.4494 4.41014H57.5599V4.66134L57.4494 4.41014ZM56.8967 3.65652C56.952 3.65652 56.952 3.65652 56.952 3.65652C56.952 3.65652 56.952 3.65652 57.0072 3.65652C57.0625 3.90773 57.0625 3.90773 56.8967 3.65652C56.8967 3.90773 56.8967 3.90773 56.8967 3.65652ZM56.3441 3.90773H56.3993V4.15893H56.3441V3.90773ZM52.1439 3.90773V4.15893H52.0333V3.90773H52.1439ZM51.7017 4.15893H51.8123V4.41014L51.7017 4.15893ZM51.4254 3.65652H51.4807C51.4807 3.90773 51.4807 4.15893 51.4254 3.65652C51.3701 3.90773 51.3701 3.90773 51.3149 3.65652C51.3149 3.90773 51.3701 3.65652 51.4254 3.65652ZM50.3201 4.41014C50.3754 4.41014 50.3754 4.41014 50.3754 4.41014C50.4306 4.41014 50.4306 4.41014 50.4306 4.66134C50.4306 4.91255 50.3754 4.91255 50.3201 4.66134V4.41014ZM49.049 3.65652C49.1595 3.65652 49.1595 3.65652 49.1595 3.65652C49.2148 3.90773 49.1595 3.90773 49.1042 3.90773C49.049 3.90773 48.9937 3.90773 49.049 3.65652ZM48.8279 3.90773H48.8832V4.15893H48.8279V3.90773ZM48.6621 3.90773H48.7174V4.15893L48.6621 3.90773ZM48.4963 3.90773C48.5516 3.90773 48.6069 4.15893 48.5516 4.15893C48.4963 4.15893 48.4411 4.15893 48.3858 3.90773C48.3858 3.90773 48.3858 3.90773 48.4963 3.90773ZM48.1095 3.90773C48.1647 3.90773 48.2753 3.90773 48.3305 3.90773C48.3305 3.90773 48.3305 4.15893 48.22 4.15893C48.1095 4.15893 48.1095 4.15893 48.1095 3.90773ZM46.8936 4.66134C46.9489 4.41014 47.0042 4.41014 47.1147 4.41014C47.1147 4.66134 47.0042 4.66134 46.8936 4.66134C46.8936 4.66134 46.8384 4.66134 46.8936 4.66134ZM46.7278 3.90773H46.6726V3.65652H46.7278C46.7831 3.65652 46.7831 3.65652 46.7278 3.90773ZM45.7883 3.90773C45.8436 3.90773 45.8436 4.15893 45.8988 4.15893C45.7883 4.15893 45.7883 3.90773 45.7883 3.90773ZM45.6225 3.90773C45.6778 3.90773 45.6778 3.90773 45.6778 3.90773H45.733C45.733 3.90773 45.733 3.90773 45.733 4.15893C45.6778 4.15893 45.6225 3.90773 45.6225 3.90773C45.5672 3.90773 45.5672 3.90773 45.6225 3.90773ZM45.3462 3.90773C45.4014 3.90773 45.4567 3.90773 45.4014 4.15893L45.3462 4.41014C45.2909 4.41014 45.2909 4.41014 45.2909 4.15893C45.3462 3.90773 45.3462 3.90773 45.3462 3.90773ZM45.0146 4.15893C44.9593 4.15893 44.9041 3.90773 44.8488 3.65652C44.9593 3.90773 45.0146 3.90773 45.0146 4.15893ZM44.1856 3.90773C44.2961 3.90773 44.2961 4.15893 44.2409 4.15893H44.1856V3.90773ZM43.7987 3.90773C43.854 3.90773 43.9093 4.15893 43.854 4.15893H43.7987H43.7435C43.7435 4.15893 43.7435 3.90773 43.7987 3.90773C43.7987 3.90773 43.7435 3.90773 43.7987 3.90773ZM43.4671 4.66134C43.5224 4.66134 43.5777 4.66134 43.6329 4.66134C43.6882 4.66134 43.7435 4.41014 43.7987 4.41014C43.854 4.15893 43.9645 4.15893 44.0198 4.41014C44.0198 4.66134 44.0751 4.66134 44.1303 4.66134C44.0751 4.91255 43.9645 4.91255 43.9093 4.91255C43.854 4.91255 43.7435 4.91255 43.6329 4.66134C43.5777 4.91255 43.4671 4.91255 43.4119 4.91255C43.3014 4.91255 43.2461 4.66134 43.2461 4.41014C43.3013 4.66134 43.4119 4.66134 43.4671 4.66134ZM43.1356 3.40531H43.3566C43.3566 3.40531 43.3013 3.65652 43.2461 3.65652C43.1908 3.65652 43.0803 3.40531 43.1356 3.40531ZM42.8592 3.40531C42.9145 3.40531 42.9698 3.40531 43.0803 3.40531C43.0803 3.65652 43.025 3.65652 42.9145 3.65652C42.8592 3.65652 42.804 3.65652 42.7487 3.65652C42.7487 3.40531 42.804 3.15411 42.8592 3.40531ZM42.7487 4.15893C42.7487 3.90773 42.7487 3.90773 42.804 3.90773C42.8592 3.90773 42.8592 4.15893 42.8592 4.15893C42.804 4.41014 42.804 4.41014 42.7487 4.15893ZM42.4724 4.41014C42.4171 4.41014 42.4171 4.41014 42.3618 4.15893C42.3066 4.15893 42.2513 4.15893 42.196 4.15893C42.196 3.90773 42.2513 3.90773 42.3618 3.90773C42.4724 3.90773 42.4724 4.15893 42.4724 4.41014ZM42.0302 4.15893H42.1408V4.41014L42.0302 4.15893ZM39.3775 4.66134C39.3775 4.66134 39.4328 4.66134 39.3775 4.66134C39.4328 4.66134 39.4328 4.66134 39.3775 4.66134ZM39.8196 4.66134C39.7643 4.66134 39.8196 4.41014 39.8196 4.66134C39.8749 4.66134 39.8749 4.66134 39.8196 4.66134ZM40.0959 4.15893C40.2065 4.15893 40.2617 4.15893 40.2065 4.41014C40.2065 4.41014 40.1512 4.41014 40.0959 4.15893C40.0959 4.15893 40.0959 4.41014 40.0959 4.15893ZM40.5933 4.41014H40.4828V4.15893C40.5381 4.15893 40.5381 4.15893 40.5933 4.41014ZM40.7591 4.66134C40.8144 4.66134 40.8144 4.41014 40.7591 4.66134C40.8144 4.41014 40.8144 4.66134 40.8144 4.91255L40.7591 4.66134C40.7039 4.66134 40.7039 4.66134 40.7591 4.66134ZM40.8697 5.16375C40.8144 5.16375 40.7591 5.16375 40.7591 5.16375C40.8144 4.91255 40.8697 4.91255 40.9249 5.16375C40.9249 5.16375 40.9249 5.16375 40.8697 5.16375ZM40.9802 4.91255C41.0355 4.66134 41.0355 4.66134 41.0907 4.41014C41.146 4.15893 41.2013 4.15893 41.2565 4.41014C41.2565 4.91255 41.2013 5.16375 40.9802 4.91255ZM41.0355 3.40531C41.146 3.40531 41.2565 3.40531 41.3671 3.15411H41.4223C41.4223 3.15411 41.4223 3.15411 41.4776 3.15411V3.40531C41.3671 3.40531 41.3118 3.40531 41.2565 3.65652C41.0907 3.90773 41.0355 3.65652 41.0355 3.40531ZM40.9802 4.15893C41.0355 4.41014 41.0355 4.41014 40.9802 4.15893C40.9249 4.15893 40.9249 4.41014 40.9249 4.41014C40.8697 4.41014 40.8697 4.41014 40.8697 4.15893C40.9249 4.15893 40.9802 4.15893 40.9802 4.15893ZM39.5985 3.90773C39.7091 3.65652 39.8196 3.65652 39.9854 3.65652C40.0959 3.90773 40.2617 3.65652 40.3723 3.40531C40.4275 3.65652 40.4828 3.65652 40.6486 3.65652C40.7591 3.40531 40.8697 3.65652 40.9802 3.90773C40.7591 3.90773 40.5381 3.90773 40.317 3.90773C40.0407 3.90773 39.8196 3.90773 39.5985 3.90773ZM39.3775 3.65652H39.488C39.5433 3.65652 39.5433 3.90773 39.488 3.90773L39.3775 3.65652ZM39.3775 4.66134C39.3775 4.66134 39.3775 4.66134 39.267 4.66134C39.267 4.91255 39.3222 4.66134 39.3775 4.66134ZM38.8801 3.65652H38.9906V3.90773L38.8801 3.65652ZM38.6038 3.90773C38.6038 3.65652 38.659 3.40531 38.7143 3.65652C38.7696 3.90773 38.7143 4.15893 38.6038 3.90773ZM38.438 3.65652H38.4932V3.90773L38.438 3.65652ZM38.438 4.91255L38.3827 5.16375C38.3827 5.16375 38.3274 5.41496 38.2722 5.41496C38.2722 5.16375 38.2722 5.16375 38.3274 5.16375C38.3827 5.16375 38.3827 5.16375 38.3274 4.91255C38.3827 4.66134 38.3827 4.66134 38.438 4.91255ZM38.3274 4.66134C38.2722 4.66134 38.2722 4.66134 38.3274 4.66134C38.2722 4.66134 38.2722 4.66134 38.2169 4.66134C38.2169 4.66134 38.2169 4.66134 38.3274 4.66134C38.3274 4.41014 38.3274 4.41014 38.3274 4.66134ZM38.1064 3.65652C38.1064 3.40531 38.1616 3.40531 38.2169 3.65652C38.2722 3.90773 38.2722 3.90773 38.2169 3.90773H38.1064C38.1616 3.90773 38.1616 3.65652 38.1064 3.65652ZM36.5589 4.66134C36.5037 4.66134 36.5037 4.66134 36.4484 4.66134C36.4484 4.66134 36.4484 4.66134 36.4484 4.41014L36.5589 4.66134C36.6142 4.66134 36.6142 4.41014 36.5589 4.66134ZM36.9458 4.66134C37.0011 4.66134 37.0563 4.66134 37.0563 4.91255C36.9458 5.16375 36.8905 4.91255 36.9458 4.66134ZM37.2221 3.90773C37.2221 3.90773 37.2221 4.15893 37.2221 3.90773C37.1669 4.15893 37.1669 4.15893 37.1116 4.15893C37.1116 4.15893 37.0563 4.15893 37.0563 3.90773H37.2221ZM36.7247 4.66134C36.7247 4.41014 36.78 4.41014 36.8353 4.41014C36.8905 4.41014 36.9458 4.41014 37.0011 4.66134C37.0011 4.66134 36.9458 4.91255 36.8905 4.91255C36.8353 4.66134 36.78 4.66134 36.7247 4.66134ZM36.5037 3.90773C36.5589 3.90773 36.5589 3.90773 36.5589 3.90773C36.5589 3.90773 36.5589 3.90773 36.6142 3.90773C36.6695 4.15893 36.6142 4.15893 36.5037 3.90773C36.4484 3.90773 36.4484 4.15893 36.5037 3.90773ZM35.951 4.15893C36.0063 4.15893 36.0063 4.15893 36.0063 3.90773C36.0615 3.90773 36.0615 4.15893 36.0615 4.15893H35.951ZM35.7299 3.90773H35.8405V4.15893H35.7299V3.90773ZM35.5089 3.90773C35.5642 3.90773 35.6194 3.90773 35.6194 3.90773C35.7299 3.90773 35.7299 4.15893 35.6747 4.15893C35.6194 4.15893 35.5642 4.15893 35.4536 4.15893C35.3984 3.90773 35.4536 3.90773 35.5089 3.90773ZM35.3984 4.41014C35.5089 4.41014 35.5642 4.66134 35.5642 4.66134H35.2878C35.2326 4.41014 35.2878 4.41014 35.3984 4.41014ZM35.122 4.66134C35.0668 4.91255 34.9562 4.91255 34.901 4.91255C34.901 4.66134 34.901 4.66134 34.9562 4.66134C35.0115 4.66134 35.0668 4.66134 35.122 4.66134ZM34.8457 4.15893H34.9562V4.41014H34.901H34.8457V4.15893ZM34.6799 4.66134C34.7904 4.66134 34.7904 4.66134 34.7904 4.91255L34.6799 4.66134ZM34.4588 5.91737H34.3483V5.66616H34.4588V5.91737ZM34.1272 4.66134C34.1825 4.41014 34.2378 4.15893 34.4036 4.41014C34.5141 4.41014 34.5694 4.66134 34.5694 4.91255C34.5141 4.91255 34.4588 4.91255 34.4588 4.66134C34.4588 4.41014 34.3483 4.41014 34.3483 4.41014C34.293 4.41014 34.293 4.41014 34.3483 4.66134C34.4036 4.66134 34.4036 4.66134 34.3483 4.91255C34.2378 4.66134 34.1825 4.66134 34.1272 4.66134ZM33.9062 4.15893C33.9614 4.15893 34.0167 4.15893 33.9614 4.15893C33.9614 4.41014 33.9614 4.41014 33.9614 4.66134C33.9062 4.66134 33.8509 4.66134 33.8509 4.41014C33.8509 4.41014 33.8509 4.15893 33.9062 4.15893ZM33.7404 4.41014C33.7404 4.15893 33.7404 4.15893 33.7404 4.41014C33.7404 4.15893 33.7404 4.15893 33.7404 4.41014C33.8509 4.15893 33.8509 4.41014 33.8509 4.41014C33.7957 4.41014 33.7957 4.41014 33.7957 4.41014H33.7404ZM33.6851 4.66134C33.7404 4.66134 33.7404 4.66134 33.7404 4.66134C33.7404 4.66134 33.7404 4.66134 33.7957 4.66134C33.7957 4.91255 33.7957 4.91255 33.6851 4.66134C33.6299 4.91255 33.6299 4.91255 33.6851 4.66134ZM33.3535 4.91255V4.66134V4.41014C33.4641 4.41014 33.4641 4.41014 33.4641 4.66134C33.4641 4.66134 33.4641 4.66134 33.4641 4.91255C33.4641 5.16375 33.4088 5.16375 33.3535 4.91255ZM32.9667 5.41496C32.9667 5.41496 33.0219 5.41496 33.0772 5.41496C33.0772 5.41496 33.0219 5.41496 32.9667 5.41496ZM33.1325 4.91255C33.1325 4.91255 33.1877 4.66134 33.243 4.66134C33.243 4.91255 33.1877 4.91255 33.1325 4.91255ZM32.5245 4.66134C32.6351 4.41014 32.7456 4.41014 32.8561 4.41014C32.9667 4.41014 33.1325 4.41014 33.243 4.41014C33.1325 4.66134 33.0219 4.91255 32.9114 4.66134C32.8561 4.66134 32.6903 4.66134 32.5245 4.66134ZM32.2482 4.91255C32.3035 4.91255 32.3035 4.91255 32.3035 4.66134C32.3035 4.66134 32.3035 4.41014 32.2482 4.41014C32.3035 4.41014 32.3587 4.41014 32.3587 4.41014C32.4693 4.41014 32.4693 4.41014 32.414 4.41014C32.3587 4.41014 32.3587 4.66134 32.3587 4.66134C32.414 4.91255 32.414 4.91255 32.4693 4.91255H32.6351C32.6903 4.91255 32.7456 4.91255 32.8009 4.91255C32.8561 4.91255 32.8561 5.16375 32.9114 5.16375C32.7456 5.16375 32.6351 5.16375 32.5245 4.91255C32.414 4.91255 32.3035 4.91255 32.1929 5.16375C32.1377 5.16375 32.1377 4.91255 32.1929 4.91255C32.1929 5.16375 32.2482 4.91255 32.2482 4.91255ZM31.6956 4.41014C31.7508 4.41014 31.8061 4.41014 31.8614 4.41014C31.9166 4.66134 31.9166 4.66134 31.8614 4.91255C31.9719 4.91255 31.9719 4.91255 31.9166 4.66134H32.1377L32.0824 4.91255C32.0271 4.91255 32.0271 5.16375 32.0271 5.16375C31.9166 5.16375 31.8061 5.16375 31.6956 5.16375L31.8061 4.91255C31.8061 4.91255 31.7508 4.66134 31.6956 4.41014ZM31.1429 5.16375C31.1982 5.16375 31.1982 5.16375 31.1982 5.16375C31.1982 5.16375 31.1982 5.16375 31.2534 5.16375C31.1982 5.16375 31.1429 5.41496 31.1429 5.41496V5.16375ZM30.9771 5.16375C31.0876 5.16375 31.0876 5.16375 31.0324 5.41496C30.9771 5.41496 30.9218 5.41496 30.8113 5.41496C30.8666 5.16375 30.9218 5.16375 30.9771 5.16375ZM30.4797 4.91255C30.535 4.91255 30.535 4.91255 30.4797 4.91255C30.4244 5.16375 30.4244 5.16375 30.3692 5.16375C30.4244 4.91255 30.4797 4.66134 30.4797 4.91255ZM30.2034 4.91255C30.2034 4.91255 30.2034 4.91255 30.1481 4.91255C30.1481 4.91255 30.1481 4.91255 30.2034 4.91255ZM29.9823 5.41496H30.0928C30.1481 5.41496 30.0928 5.41496 29.9823 5.41496C29.9823 5.41496 29.9271 5.41496 29.9823 5.41496ZM29.7613 4.91255C29.8165 4.91255 29.8718 5.16375 29.8165 5.41496C29.7613 5.41496 29.7613 5.41496 29.7613 5.16375V4.91255ZM29.5955 4.91255H29.6507V5.16375H29.5955V4.91255ZM29.5402 4.91255C29.4849 5.16375 29.4849 5.16375 29.4297 5.16375C29.4297 4.91255 29.4297 4.91255 29.5402 4.91255ZM28.7665 5.16375C28.8217 5.16375 28.877 5.16375 28.877 4.91255C28.9323 4.91255 28.9323 5.16375 28.877 5.41496C28.8217 5.41496 28.7665 5.41496 28.7665 5.16375ZM27.9928 5.91737C28.048 5.91737 28.048 5.66616 27.9928 5.41496C28.1033 5.41496 28.1033 5.66616 28.1033 5.91737C28.1033 6.16857 28.1586 6.16857 28.2691 6.16857C28.2138 6.41978 28.1585 6.41978 28.1033 6.41978C28.048 6.41978 27.9375 6.41978 27.8822 6.41978C27.8822 6.16857 27.9375 5.91737 27.9928 5.91737ZM27.7164 6.16857H27.7717V6.41978H27.7164V6.16857ZM27.3848 5.16375C27.3848 4.91255 27.4401 4.91255 27.4954 4.91255C27.5506 4.91255 27.5506 4.91255 27.5506 4.91255C27.6059 4.91255 27.6059 5.16375 27.5506 5.16375C27.4954 5.41496 27.4401 5.41496 27.3848 5.16375ZM27.2743 6.41978C27.3296 6.16857 27.3848 6.16857 27.4954 6.16857C27.6059 6.16857 27.6612 6.16857 27.6059 6.41978C27.5506 6.41978 27.4954 6.41978 27.4401 6.41978C27.3848 6.41978 27.3296 6.41978 27.2743 6.41978ZM27.1638 6.92219C27.0532 6.92219 26.998 6.67098 26.9427 6.41978C26.998 6.41978 26.998 6.67098 27.0532 6.67098C27.1085 6.67098 27.1085 6.67098 27.1638 6.92219ZM27.1638 5.16375C27.1638 5.16375 27.1085 5.41496 27.0532 5.41496C26.998 5.41496 26.9427 5.41496 26.9427 5.41496C26.9427 5.16375 26.998 5.16375 27.1638 5.16375ZM26.6111 5.66616H26.6664V5.91737H26.6111V5.66616ZM25.8374 5.91737C25.8374 5.91737 25.8374 5.91737 25.7821 5.91737H25.8374ZM25.5611 5.66616C25.6163 5.66616 25.6163 5.66616 25.5611 5.66616C25.7269 5.41496 25.7821 5.66616 25.7821 5.91737C25.6716 5.91737 25.6163 5.91737 25.6163 5.91737C25.5611 5.91737 25.5611 6.16857 25.5611 5.66616C25.5058 5.66616 25.5058 5.66616 25.5611 5.66616ZM25.2847 5.66616H25.3953V5.91737H25.2847V5.66616ZM25.2847 6.41978C25.2847 6.67098 25.2295 6.92219 25.1189 6.41978C25.1742 6.67098 25.2295 6.41978 25.2847 6.41978ZM24.7873 5.41496L24.8426 5.66616C24.7873 5.66616 24.7873 5.91737 24.7321 5.91737C24.6768 5.91737 24.6768 5.91737 24.6215 5.91737L24.6768 5.66616C24.7321 5.41496 24.7321 5.41496 24.7873 5.41496ZM24.511 6.41978H24.6215V6.67098L24.511 6.41978ZM24.3452 6.92219C24.4005 6.67098 24.4005 6.67098 24.4557 6.67098C24.4557 6.92219 24.4005 6.92219 24.3452 6.92219ZM24.4005 6.16857C24.4005 6.16857 24.4005 6.41978 24.4005 6.16857C24.4005 6.41978 24.4005 6.41978 24.4005 6.16857C24.4005 6.41978 24.4005 6.41978 24.3452 6.41978C24.3452 6.16857 24.3452 6.16857 24.4005 6.16857ZM23.5162 6.16857H23.682C23.682 6.41978 23.6268 6.41978 23.5162 6.16857C23.5162 6.16857 23.461 6.16857 23.4057 6.41978C23.461 6.41978 23.461 6.16857 23.5162 6.16857ZM22.0793 7.4246H21.9688V7.17339H22.0793V7.4246ZM21.9688 6.16857C21.9688 6.41978 21.9688 6.41978 21.9688 6.41978C21.9135 6.41978 21.9135 6.67098 21.9688 6.67098C21.9135 6.67098 21.8583 6.41978 21.8583 6.16857C21.803 6.16857 21.9688 6.16857 21.9688 6.16857ZM20.0898 6.41978C20.145 6.41978 20.145 6.41978 20.145 6.41978C20.145 6.41978 20.145 6.41978 20.2003 6.41978C20.2003 6.67098 20.2003 6.67098 20.0898 6.41978C20.0345 6.67098 20.0345 6.67098 20.0898 6.41978ZM18.9844 6.41978H19.095V6.67098H18.9844V6.41978ZM18.9844 7.4246C19.0397 7.4246 19.095 7.4246 19.1502 7.4246C19.1502 7.6758 19.1502 7.6758 19.095 7.6758C18.9844 7.6758 18.9292 7.6758 18.9844 7.4246C18.8739 7.4246 18.8739 7.6758 18.9844 7.4246ZM15.2816 6.16857C15.2264 6.16857 15.1711 6.16857 15.1711 6.41978C15.1711 6.16857 15.1711 6.16857 15.2264 5.91737C15.2816 5.91737 15.3369 5.91737 15.3922 6.16857C15.3369 6.16857 15.3369 6.16857 15.2816 6.16857ZM15.4474 5.91737C15.4474 5.91737 15.5027 5.91737 15.558 5.91737C15.558 5.91737 15.5027 5.91737 15.4474 5.91737ZM15.6132 6.16857C15.7238 5.91737 15.7238 6.16857 15.7238 6.16857H15.6132ZM16.0001 6.16857C15.9448 6.16857 15.8343 6.16857 15.779 6.16857C15.8343 5.91737 15.8896 5.91737 16.0001 6.16857C16.0554 5.91737 16.1106 5.91737 16.1659 5.91737C16.1659 5.91737 16.1106 6.16857 16.0001 6.16857ZM27.4401 3.90773C27.4401 3.90773 27.4401 3.65652 27.4401 3.90773C27.3848 3.65652 27.4401 3.65652 27.4401 3.90773C27.4954 3.65652 27.4401 3.65652 27.4401 3.90773C27.4954 3.90773 27.4954 3.90773 27.4401 3.90773ZM28.1585 3.65652C28.1585 3.40531 28.1585 3.40531 28.1585 3.65652C28.1585 3.40531 28.1585 3.40531 28.1585 3.65652C28.2138 3.65652 28.2138 3.65652 28.1585 3.65652ZM29.0428 3.65652C28.9875 3.65652 28.877 3.65652 28.8217 3.65652C28.877 3.40531 28.9323 3.40531 28.9875 3.40531C29.0428 3.65652 29.0981 3.65652 29.2086 3.40531C29.2086 3.65652 29.1533 3.65652 29.0428 3.65652ZM29.7613 3.65652C29.6507 3.65652 29.4849 3.65652 29.3744 3.65652C29.3744 3.65652 29.3744 3.40531 29.3191 3.40531C29.3191 3.40531 29.3191 3.40531 29.3191 3.15411C29.3744 3.15411 29.4297 2.9029 29.4849 3.15411C29.5402 3.15411 29.5955 3.40531 29.5955 3.40531C29.6507 3.40531 29.6507 3.40531 29.6507 3.15411C29.6507 3.15411 29.706 2.9029 29.7613 3.15411C29.7613 3.15411 29.7613 3.40531 29.8165 3.40531C29.8718 3.40531 29.8718 3.40531 29.9271 3.40531C29.9271 3.65652 29.8165 3.65652 29.7613 3.65652ZM67.7841 5.41496H67.6735V5.16375L67.7841 5.41496ZM67.8946 6.16857C67.8393 6.16857 67.7841 5.91737 67.8393 5.91737C67.8946 5.91737 67.8946 5.91737 67.8946 5.66616C67.9499 5.66616 67.9499 5.66616 67.9499 5.91737C67.9499 6.16857 68.0051 6.16857 68.0051 6.16857C68.0051 6.16857 67.9499 6.16857 67.8946 6.16857ZM68.1157 5.91737C68.1157 5.91737 68.1709 5.91737 68.2262 5.91737C68.1709 5.91737 68.1709 5.91737 68.1157 5.91737ZM68.4472 6.41978C68.392 6.41978 68.392 6.41978 68.3367 6.41978C68.2814 6.41978 68.2814 6.41978 68.2814 6.16857C68.392 6.16857 68.392 6.16857 68.392 6.16857C68.4472 6.16857 68.4472 6.16857 68.4472 6.41978C68.4472 6.41978 68.4472 6.16857 68.4472 6.41978ZM68.5025 5.66616C68.392 5.66616 68.392 5.66616 68.4472 5.91737C68.392 5.66616 68.2814 5.41496 68.1709 5.66616C68.0604 5.66616 67.9499 5.66616 67.8946 5.41496C68.0051 5.41496 68.1709 5.41496 68.2814 5.41496C68.392 5.41496 68.5578 5.41496 68.6683 5.66616C68.613 5.66616 68.613 5.91737 68.5025 5.66616ZM68.6683 6.16857H68.613C68.613 6.16857 68.613 6.16857 68.6683 6.16857C68.6683 6.16857 68.613 6.16857 68.6683 6.16857ZM68.7788 6.41978C68.7236 6.41978 68.7236 6.41978 68.7236 6.16857C68.7788 6.16857 68.8341 6.16857 68.8341 6.16857C68.8894 6.16857 68.9446 6.41978 68.9446 6.41978C68.9446 6.16857 68.8341 6.16857 68.7788 6.41978ZM68.8341 5.66616C68.7788 5.66616 68.6683 5.66616 68.613 5.41496C68.6683 5.41496 68.7788 5.41496 68.8894 5.41496C69.0552 5.41496 69.1104 5.66616 69.1657 5.91737C69.0552 5.91737 68.9446 5.66616 68.8341 5.66616ZM69.7184 5.91737C69.5526 5.66616 69.442 5.66616 69.2762 5.91737V5.41496C69.442 5.41496 69.6078 5.41496 69.7736 5.41496C69.9394 5.41496 70.1052 5.41496 70.271 5.66616C70.1052 6.16857 69.8842 6.16857 69.7184 5.91737ZM70.5473 5.91737C70.4921 5.91737 70.4368 5.91737 70.3263 5.91737C70.3263 5.91737 70.3263 5.66616 70.4368 5.66616C70.5473 5.91737 70.5473 5.91737 70.5473 5.91737ZM70.7684 5.91737H70.7131V5.66616L70.7684 5.91737ZM71.929 5.41496C71.7632 5.41496 71.6527 5.16375 71.4869 4.91255C71.6527 4.91255 71.8185 4.91255 71.9842 4.91255C72.15 4.91255 72.3158 5.16375 72.4816 5.16375C72.3158 5.66616 72.15 5.66616 71.929 5.41496Z" fill="#F6CD45"/>
    </svg>
    