
<svg width="52" height="10" viewBox="0 0 52 10" fill="none" xmlns="http://www.w3.org/2000/svg">
    <path d="M51.6534 6.41978C51.614 6.16857 51.5747 5.91737 51.5353 5.91737C51.5353 5.91737 51.5747 5.91737 51.5747 5.66616C51.5747 5.66616 51.5747 5.66616 51.5747 5.41496C51.5747 5.41496 51.5747 5.16375 51.5353 5.16375C51.4959 5.16375 51.4959 5.16375 51.4959 4.91255C51.1023 4.66134 50.7086 4.15893 50.2755 3.90773C49.8425 3.65652 49.3701 3.40531 48.8977 3.15411C48.4253 2.9029 47.9529 2.6517 47.5198 2.6517L46.2601 2.14929C46.1026 2.14929 45.9845 1.89808 45.8664 1.89808C45.7483 1.89808 45.6302 1.89808 45.5515 2.14929C45.3546 1.89808 45.1184 1.64688 44.8822 1.64688C44.6066 1.64688 44.3311 1.64688 44.0555 1.64688C43.7012 1.39567 43.3863 1.14447 43.0319 1.14447C42.6776 1.14447 42.284 1.14447 41.9297 0.893264C41.8903 0.893264 41.8903 0.893264 41.8509 1.14447C41.8116 1.14447 41.7722 1.14447 41.7722 1.14447L41.8116 0.893264C41.5754 0.893264 41.3392 0.642059 41.1029 0.642059C40.9061 0.390854 40.6699 0.642059 40.4731 0.893264C40.4337 0.642059 40.4337 0.642059 40.3943 0.642059C40.355 0.642059 40.3156 0.642059 40.2762 0.390854C40.1975 0.390854 40.0794 0.390854 40.0007 0.390854C39.8826 0.390854 39.8038 0.390854 39.6857 0.390854C39.607 0.390854 39.4889 0.390854 39.4102 0.139648C39.292 0.139648 39.2133 0.139648 39.2133 0.642059C39.4889 0.390854 39.7251 0.390854 40.0007 0.390854C40.2762 0.642059 40.5124 0.642059 40.788 0.642059C40.8274 0.642059 40.8274 0.642059 40.8274 0.893264C40.8274 0.893264 40.8274 1.14447 40.8667 1.14447C40.9061 1.14447 40.9061 0.893264 40.9061 0.893264C40.9061 0.893264 40.9061 0.893264 40.9455 0.893264C41.1029 1.14447 41.2604 1.14447 41.4179 0.893264C41.5754 0.642059 41.6935 0.893264 41.8116 1.14447C42.0084 1.14447 42.2052 1.14447 42.4021 1.14447C42.5989 1.14447 42.7957 1.14447 42.9926 1.14447C43.0319 1.14447 43.0713 1.14447 43.0713 1.14447C43.1107 1.14447 43.1501 1.39567 43.1501 1.39567C43.1894 1.39567 43.2288 1.39567 43.2288 1.39567C43.2682 1.39567 43.3075 1.39567 43.3863 1.39567C43.4256 1.39567 43.5044 1.39567 43.5437 1.64688C43.6225 1.64688 43.6618 1.64688 43.7406 1.64688C43.7799 1.64688 43.8193 1.39567 43.8587 1.39567C43.898 1.39567 43.9374 1.39567 43.9768 1.14447C44.0161 1.14447 44.0555 1.14447 44.0949 1.39567C44.1342 1.39567 44.1736 1.64688 44.213 1.64688C44.2917 1.64688 44.4098 1.64688 44.4885 1.64688C44.6066 1.64688 44.7247 1.64688 44.8035 1.64688C44.8822 1.64688 44.9609 1.64688 45.0791 1.64688C45.1578 1.64688 45.2365 1.64688 45.2759 1.64688C45.3153 1.64688 45.3153 1.64688 45.3153 1.89808C45.3153 2.14929 45.3153 2.14929 45.3546 1.89808C45.4727 1.64688 45.5908 1.64688 45.7483 1.89808C45.9058 2.14929 46.0239 2.14929 46.1813 2.40049L46.2601 2.14929C46.5356 2.40049 46.8112 2.6517 47.0868 2.6517C47.3624 2.6517 47.6773 2.9029 47.9529 3.15411C48.1891 3.15411 48.4646 3.15411 48.7796 3.15411C49.0552 3.15411 49.3307 3.40531 49.6063 3.90773C49.7244 3.65652 49.8819 3.65652 50 3.90773C50.1181 4.15893 50.1968 4.15893 50.3149 4.41014C50.1181 4.41014 49.9212 4.41014 49.7244 4.41014C49.5276 4.41014 49.3701 4.15893 49.1733 3.90773C48.9371 3.90773 48.7008 3.90773 48.4646 3.65652C48.2284 3.40531 47.9922 3.40531 47.756 3.40531C47.7167 3.15411 47.7167 3.15411 47.6773 3.15411C47.6379 3.15411 47.6379 3.15411 47.6379 2.9029C47.5986 2.9029 47.5592 2.9029 47.5592 2.9029C47.5592 3.15411 47.5198 3.15411 47.5198 3.15411C47.4411 2.9029 47.323 2.6517 47.2443 2.9029C47.1262 2.9029 47.0474 2.9029 46.9687 2.9029C46.7718 2.9029 46.5356 2.9029 46.3388 2.6517C46.142 2.40049 45.9058 2.40049 45.7089 2.40049C45.1972 2.40049 44.646 2.14929 44.0949 2.14929C43.5437 2.14929 42.9926 1.89808 42.4021 1.89808C42.284 1.89808 42.1659 1.64688 42.0871 1.64688C41.969 1.64688 41.8509 1.64688 41.7722 1.89808C41.4966 1.64688 41.1817 1.64688 40.9061 1.64688C40.6305 1.64688 40.355 1.64688 40.0794 1.39567C39.8038 1.39567 39.5676 1.39567 39.292 1.39567C39.0165 1.39567 38.7803 1.39567 38.5047 1.14447C38.1898 1.14447 37.8748 1.14447 37.5993 1.14447C37.3237 1.14447 37.0087 1.14447 36.7332 1.14447C36.4576 1.14447 36.182 0.893264 35.8671 1.14447C35.5521 1.14447 35.2372 1.14447 34.9616 1.14447C34.6073 1.14447 34.2924 1.14447 33.9381 0.893264C33.6231 0.893264 33.2688 0.893264 32.9145 1.14447C32.8358 1.14447 32.7177 1.14447 32.5996 1.14447C32.4815 1.14447 32.3634 1.14447 32.2453 1.14447C32.1666 1.14447 32.0878 1.14447 32.0091 1.14447C31.9303 1.14447 31.891 1.14447 31.8122 1.14447C31.4973 1.14447 31.143 0.893264 30.7887 0.893264C30.4344 0.893264 30.0407 0.893264 29.647 1.14447L28.5054 1.39567C28.1117 1.39567 27.7574 1.64688 27.4031 1.64688C26.9307 1.64688 26.4583 1.64688 26.0252 1.64688C25.5528 1.64688 25.1198 1.64688 24.6474 1.89808C24.0569 1.89808 23.427 1.89808 22.7971 2.14929C22.1672 2.40049 21.5374 2.40049 20.9075 2.40049C20.9469 2.14929 20.9862 2.14929 20.9862 2.14929C21.0256 2.14929 21.065 2.14929 21.065 1.89808C21.1437 2.14929 21.2224 2.40049 21.3405 2.14929C21.4586 1.89808 21.5767 1.89808 21.6555 2.14929C21.6555 2.14929 21.6555 1.89808 21.6161 1.89808C21.6161 1.89808 21.6161 1.89808 21.6555 1.64688C21.7342 1.64688 21.8523 1.64688 21.931 1.64688C22.0491 1.64688 22.1279 1.64688 22.2853 1.64688C22.2853 1.39567 22.3247 1.39567 22.3641 1.39567C22.4034 1.39567 22.4428 1.39567 22.4822 1.39567C22.5216 1.39567 22.5609 1.39567 22.6003 1.39567C22.6397 1.39567 22.6397 1.14447 22.6397 1.14447C22.2853 1.14447 21.8917 1.39567 21.4586 1.39567C21.0256 1.39567 20.5925 1.64688 20.1595 1.89808C20.1201 1.89808 20.1201 1.89808 20.1201 1.64688C20.1201 1.64688 20.0808 1.64688 20.0414 1.64688C19.7265 1.89808 19.4115 1.89808 19.0966 1.89808C18.7817 1.89808 18.4667 1.89808 18.1911 2.14929C18.0337 1.89808 17.8368 1.89808 17.6794 2.14929C17.4825 2.40049 17.3251 2.40049 17.1282 2.14929C17.0889 2.14929 17.0889 2.40049 17.0889 2.40049C17.0889 2.40049 17.0889 2.6517 17.0495 2.6517C16.9314 2.40049 16.8133 2.14929 16.6952 2.40049C16.5771 2.6517 16.4196 2.6517 16.3015 2.40049C14.7268 2.9029 13.034 3.15411 11.3412 3.40531C9.60905 3.65652 7.95563 3.65652 6.34156 3.65652C5.35738 3.65652 4.41256 3.90773 3.46775 4.15893C2.5623 4.66134 1.61748 4.66134 0.633296 4.66134C0.554561 4.41014 0.436459 4.15893 0.318357 4.15893C0.200255 4.41014 0.12152 4.91255 0.0821527 5.66616C0.0427853 6.16857 0.00341797 6.92219 0.00341797 7.4246C0.0821527 8.17821 0.200255 8.68062 0.318357 8.68062C0.475826 8.93183 0.593928 9.18303 0.751398 9.18303H1.49938C1.77495 9.18303 2.05052 9.18303 2.36546 9.18303C2.48356 8.93183 2.60166 8.68062 2.71977 8.68062C2.83787 8.68062 2.95597 8.68062 3.11344 8.68062C3.23154 8.68062 3.38901 8.68062 3.50711 8.68062C3.62522 8.68062 3.78269 8.42942 3.90079 8.42942C4.05826 8.68062 4.21573 8.68062 4.33383 8.68062C4.4913 8.68062 4.64877 8.42942 4.80624 8.42942C4.96371 8.42942 5.12118 8.17821 5.27865 8.17821C5.43611 8.17821 5.63295 8.17821 5.79042 8.17821C5.86916 8.17821 5.94789 7.92701 6.06599 7.92701C6.61714 7.92701 7.12891 7.92701 7.68005 7.6758C8.2312 7.4246 8.74297 7.4246 9.29412 7.6758C9.60906 7.4246 9.92399 7.4246 10.2389 7.4246C10.5932 7.4246 10.9082 7.4246 11.2625 7.6758C11.3019 7.4246 11.3412 7.17339 11.4593 7.4246C11.5774 7.4246 11.6562 7.4246 11.7743 7.4246C11.7743 7.4246 11.7743 7.17339 11.7349 7.17339C11.6955 7.17339 11.7349 6.92219 11.7743 6.92219C11.8136 6.92219 11.853 6.92219 11.8136 7.17339C11.8136 7.4246 11.8136 7.4246 11.8924 7.4246C11.8924 7.4246 11.8924 7.17339 11.853 7.17339C11.8136 7.17339 11.8136 7.17339 11.8924 6.92219C11.9711 7.4246 12.0892 7.4246 12.1679 7.17339C12.286 6.92219 12.4041 6.92219 12.4829 7.17339C12.4829 6.92219 12.4829 6.67098 12.5616 6.67098C12.601 6.67098 12.6403 6.92219 12.6403 6.67098C12.6797 6.67098 12.7191 6.67098 12.7978 6.67098C12.7978 6.67098 12.7978 6.92219 12.7584 6.92219C12.7191 6.92219 12.7191 6.92219 12.7191 7.17339C12.7978 7.17339 12.8372 7.17339 12.8372 7.17339C12.8372 7.17339 12.8372 6.92219 12.8765 6.67098C12.9159 6.67098 12.9159 6.67098 12.9159 6.92219C12.8765 6.92219 12.9159 7.17339 12.9159 7.17339C13.1128 7.17339 13.3096 6.92219 13.4671 6.92219C13.6245 6.92219 13.782 6.92219 13.9395 7.17339C13.9788 6.67098 14.0576 6.67098 14.1363 6.92219C14.1363 6.67098 14.1757 6.41978 14.215 6.41978C14.2938 6.41978 14.2938 6.16857 14.2544 5.91737C14.3331 5.91737 14.3331 6.16857 14.2938 6.16857C14.2544 6.41978 14.2544 6.41978 14.2938 6.67098H14.1363C14.1363 6.92219 14.1757 7.17339 14.2544 6.92219C14.3331 6.67098 14.3331 6.67098 14.3331 6.67098C14.3725 6.92219 14.4119 6.92219 14.4512 6.67098C14.4906 6.41978 14.53 6.41978 14.5693 6.67098C14.53 6.67098 14.53 6.92219 14.53 6.92219C14.53 7.17339 14.5693 7.17339 14.5693 7.17339C14.5693 6.67098 14.6481 6.16857 14.7268 6.16857C14.7662 6.41978 14.7662 6.41978 14.7268 6.41978C14.6874 6.41978 14.6874 6.67098 14.7268 6.67098C14.8055 6.41978 14.9236 6.41978 15.0024 6.67098C15.0024 6.67098 15.0024 6.41978 14.963 6.41978C14.9236 6.41978 14.963 6.16857 15.0024 6.16857C15.0418 6.16857 15.0811 6.16857 15.0418 6.41978C15.0418 6.67098 15.0418 6.67098 15.0811 6.67098C15.1205 6.67098 15.1992 6.41978 15.2386 6.16857C15.278 6.16857 15.278 6.16857 15.278 6.41978C15.278 6.67098 15.278 6.67098 15.3173 6.67098C15.3961 6.41978 15.4748 6.41978 15.5535 6.41978C15.6323 6.41978 15.6716 6.41978 15.711 6.67098C15.7504 6.41978 15.8291 6.41978 15.8685 6.41978C15.9472 6.41978 16.0259 6.41978 16.1047 6.41978C16.1834 6.41978 16.2621 6.41978 16.3409 6.41978C16.4196 6.41978 16.459 6.16857 16.5377 5.91737V6.16857C16.5377 6.16857 16.5377 6.16857 16.5377 6.41978C16.6558 6.41978 16.7345 6.41978 16.8526 6.41978C16.9708 6.16857 17.0495 6.41978 17.0101 6.67098C17.0495 6.67098 17.0889 6.41978 17.1282 6.16857C17.1676 5.91737 17.207 5.91737 17.2857 5.66616C17.3251 5.66616 17.3251 5.91737 17.3251 6.16857C17.3644 6.16857 17.4432 6.16857 17.4825 6.16857C17.5219 6.16857 17.5613 6.16857 17.5613 6.41978C17.5613 6.41978 17.6006 6.16857 17.6006 5.91737C17.6006 5.66616 17.6006 5.66616 17.64 5.41496C17.6794 5.41496 17.7187 5.66616 17.6794 5.66616C17.6794 5.66616 17.6794 5.91737 17.7187 5.91737C17.8368 5.66616 17.9549 5.41496 18.073 5.66616C18.1911 5.91737 18.3092 5.66616 18.388 5.41496V5.66616C18.4667 5.66616 18.5061 5.66616 18.5454 5.66616C18.5848 5.66616 18.6242 5.66616 18.6635 5.41496C18.7029 5.66616 18.7817 5.91737 18.821 5.91737C18.8604 5.91737 18.8604 5.66616 18.8604 5.66616C18.8604 5.41496 18.8604 5.41496 18.9391 5.66616C18.8998 5.66616 18.8998 5.91737 18.8998 5.91737C18.9391 5.91737 18.9785 5.91737 19.0179 5.91737C19.0572 5.91737 19.0966 5.91737 19.136 5.91737V5.66616H19.0572C19.0179 5.66616 19.0179 5.66616 19.0179 5.66616C19.0179 5.66616 19.0179 5.66616 19.0179 5.41496C19.0966 5.41496 19.1753 5.41496 19.2934 5.41496C19.3328 5.41496 19.3328 5.66616 19.3328 5.66616C19.2934 5.66616 19.3328 5.91737 19.4115 5.91737H19.4509L19.4903 5.66616C19.569 5.66616 19.569 5.66616 19.569 5.91737C19.569 6.16857 19.569 6.16857 19.6084 6.16857C19.6477 6.16857 19.6477 5.91737 19.6477 5.91737C19.6477 5.91737 19.6477 5.66616 19.6871 5.66616H19.8446C19.8446 5.91737 19.8446 5.91737 19.8839 6.16857V5.91737C19.8839 5.91737 19.8839 5.66616 19.9233 5.66616C20.002 5.66616 20.0808 5.66616 20.1595 5.66616C20.2382 5.41496 20.317 5.66616 20.3563 5.91737C20.3957 5.91737 20.4351 5.66616 20.4744 5.41496C20.5138 5.16375 20.5532 5.16375 20.6319 5.16375C20.6319 5.16375 20.6713 5.16375 20.6713 5.41496C20.7107 5.41496 20.75 5.41496 20.7894 5.16375C20.8288 4.91255 20.8681 4.91255 20.9075 4.91255C20.9075 5.16375 20.9075 5.16375 20.9469 5.16375C20.9862 5.16375 20.9862 5.41496 20.9469 5.41496C21.065 4.91255 21.1831 4.91255 21.3012 4.91255C21.4193 4.91255 21.5767 4.91255 21.6948 5.41496C21.6948 5.41496 21.6948 5.16375 21.6555 5.16375C21.6161 5.16375 21.6161 5.16375 21.6948 4.91255C21.7342 5.16375 21.7736 5.16375 21.8523 4.91255C21.8917 4.91255 21.9704 4.91255 22.0098 4.91255C21.931 5.16375 21.8523 5.16375 21.7736 5.16375C21.8523 5.41496 21.9704 5.66616 22.0491 5.41496C22.1279 5.16375 22.246 5.41496 22.3247 5.66616C22.4034 5.41496 22.4822 5.16375 22.5609 5.41496C22.6397 5.66616 22.7578 5.66616 22.8365 5.41496V4.91255C22.7578 4.91255 22.679 4.91255 22.5609 4.91255C22.5216 5.16375 22.4428 4.91255 22.4034 4.66134C22.5609 4.66134 22.7184 4.41014 22.8365 4.66134C22.9546 4.66134 23.0727 4.66134 23.2302 4.41014C23.2302 4.66134 23.2302 4.66134 23.1908 4.66134C23.1514 4.66134 23.1121 4.66134 23.0727 4.66134C23.0333 4.66134 22.994 4.66134 22.9546 4.66134C22.9152 4.66134 22.9152 4.91255 22.9546 4.91255C23.0333 4.66134 23.1121 4.66134 23.1514 4.66134C23.2302 4.91255 23.3089 4.91255 23.427 4.66134C23.427 4.41014 23.427 4.15893 23.4664 4.15893C23.5057 4.41014 23.5451 4.41014 23.5451 4.15893C23.5845 4.15893 23.6238 4.15893 23.6238 4.15893C23.6632 4.41014 23.6632 4.41014 23.5845 4.41014C23.5057 4.41014 23.5057 4.41014 23.5057 4.41014C23.5057 4.66134 23.5845 4.66134 23.6632 4.41014C23.7026 4.41014 23.7026 4.15893 23.7026 4.15893L23.6632 3.90773C23.7026 4.15893 23.7813 3.90773 23.8207 3.90773C23.86 3.65652 23.8994 3.65652 23.9388 3.90773C23.8994 3.90773 23.8994 4.15893 23.8994 4.15893C23.8994 4.15893 23.9388 4.15893 23.9388 4.41014C23.8207 4.41014 23.7813 4.41014 23.7813 4.91255C23.8207 4.66134 23.8994 4.66134 23.9388 4.66134C23.9781 4.66134 24.0569 4.66134 24.1356 4.41014C24.1356 3.90772 24.175 3.90773 24.2537 3.90773C24.3324 3.90773 24.4112 3.90773 24.4899 3.90773V4.15893C24.4899 4.15893 24.4899 4.15893 24.4899 4.41014H24.7655C24.7655 4.15893 24.7261 4.15893 24.6474 4.15893C24.5687 4.15893 24.5687 4.15893 24.5687 3.90773C24.7261 3.90773 24.8836 3.90773 25.0411 3.90773C25.1985 3.90773 25.356 3.90773 25.4741 3.40531C25.5922 3.90773 25.7103 4.15893 25.8284 4.15893C25.9859 4.15893 26.104 4.15893 26.2614 3.90773C26.1827 3.90773 26.104 3.90773 25.9859 3.90773C25.9071 3.90773 25.8284 3.90773 25.7103 3.90773C25.8678 3.65652 26.0252 3.65652 26.1827 3.65652C26.3402 3.65652 26.4583 3.65652 26.6158 3.40531C26.5764 3.65652 26.6158 3.65652 26.6551 3.65652C26.6945 3.65652 26.6945 3.65652 26.6551 3.65652C26.6945 3.65652 26.7339 3.90773 26.7732 3.90773C26.8126 3.90773 26.8913 3.90773 26.9307 4.15893C26.9307 3.65652 26.9701 3.40531 27.0094 3.40531C27.0488 3.40531 27.1275 3.40531 27.1669 3.65652C27.2063 3.90773 27.2456 3.90773 27.3244 3.90773C27.3637 3.90773 27.3637 3.65652 27.285 3.65652C27.2063 3.65652 27.2063 3.40531 27.2456 3.40531C27.285 3.40531 27.3637 3.40531 27.4031 3.40531C27.4425 3.15411 27.5212 3.40531 27.5606 3.65652C27.5212 3.65652 27.5212 3.65652 27.5212 3.65652H27.4818C27.4425 3.90773 27.4425 4.15893 27.4031 4.15893C27.5606 3.90773 27.6787 3.90773 27.8361 3.90773C27.9542 4.15893 28.0723 3.90773 28.1905 3.65652H28.033C27.9936 3.65652 27.9542 3.65652 27.9149 3.40531C28.1117 3.40531 28.3086 3.40531 28.5054 3.40531C28.4267 3.40531 28.3873 3.65652 28.3873 3.65652C28.4267 3.65652 28.466 3.65652 28.466 3.90773C28.5841 3.90773 28.7022 3.65652 28.8203 3.65652C28.8991 3.65652 29.0172 3.40531 29.0565 3.15411C29.0959 3.40531 29.1746 3.40531 29.214 3.40531C29.2927 3.40531 29.3715 3.40531 29.4502 3.40531C29.4896 3.40531 29.4896 3.65652 29.4502 3.65652C29.4108 3.65652 29.4502 3.90773 29.4896 3.90773C29.4896 3.65652 29.4896 3.40531 29.5289 3.65652C29.5683 3.65652 29.5683 3.90773 29.5683 3.90773C29.6077 3.90773 29.6077 3.65652 29.5683 3.65652C29.5289 3.65652 29.5683 3.40531 29.5683 3.40531C29.6077 3.40531 29.647 3.40531 29.6864 3.65652C29.6864 3.90773 29.7651 3.90773 29.8439 3.90773C29.8439 3.65652 29.8439 3.40531 29.8832 3.40531C29.8832 3.65652 29.8832 3.65652 29.9226 3.65652C29.962 3.65652 29.962 3.90773 29.962 4.15893C30.0407 4.15893 30.1195 3.90773 30.1982 4.15893C30.2769 4.15893 30.3163 4.15893 30.395 3.90773C30.4738 4.15893 30.5131 4.15893 30.5919 4.15893C30.6706 4.15893 30.7493 3.90773 30.7887 3.90773C30.8674 3.65652 30.9462 3.65652 30.9855 3.40531C31.0643 3.15411 31.1036 3.15411 31.1824 2.9029V3.15411C31.1824 3.15411 31.1824 3.15411 31.1824 3.40531C31.2217 3.40531 31.2217 3.40531 31.2611 3.40531C31.3005 3.40531 31.3398 3.40531 31.3398 3.40531L31.3005 3.65652C31.3398 3.65652 31.3792 3.65652 31.4186 3.65652C31.4579 3.65652 31.4973 3.65652 31.5367 3.65652C31.5367 3.90773 31.5367 3.90773 31.4973 3.90773C31.4579 3.90773 31.4186 3.90773 31.4186 3.90773C31.3792 3.90773 31.3792 3.90773 31.3398 3.90773C31.3398 3.90773 31.3005 3.90773 31.3005 4.15893C31.3398 4.15893 31.4186 4.15893 31.4579 4.15893C31.5367 4.15893 31.576 4.15893 31.6154 3.90773C31.576 3.90773 31.576 3.90773 31.576 3.65652L31.5367 3.40531C31.5367 3.15411 31.576 3.15411 31.6154 3.15411C31.6154 3.15411 31.6548 3.15411 31.6548 3.40531C31.6548 3.40531 31.6548 3.40531 31.6941 3.40531C31.7729 3.15411 31.8516 3.15411 31.9304 2.9029C32.0091 2.9029 32.0878 2.6517 32.1666 2.6517C32.2059 2.6517 32.2847 2.9029 32.324 2.9029C32.3634 3.15411 32.4421 3.15411 32.4815 3.15411C32.4815 2.9029 32.4815 2.6517 32.5209 2.6517C32.4815 2.6517 32.4421 2.6517 32.4421 2.6517C32.4028 2.6517 32.4028 2.6517 32.4028 2.40049C32.4421 2.40049 32.5209 2.40049 32.5602 2.40049C32.5996 2.40049 32.639 2.40049 32.6783 2.40049C32.5996 2.6517 32.5602 2.9029 32.5996 3.40531C32.6783 3.40531 32.6783 3.40531 32.639 3.15411C32.5996 2.9029 32.5996 2.9029 32.639 2.9029C32.6783 3.15411 32.7177 3.15411 32.7571 3.15411C32.7964 3.15411 32.8752 3.15411 32.9145 3.40531C32.9539 3.65652 33.0326 3.65652 33.072 3.65652H33.3082C33.2688 3.40531 33.3082 3.40531 33.3869 3.15411C33.4263 2.9029 33.505 2.9029 33.5444 2.9029C33.5838 3.15411 33.5838 3.15411 33.5444 3.15411C33.505 3.15411 33.505 3.15411 33.505 3.40531C33.5838 3.40531 33.5838 3.40531 33.5838 3.65652C33.6231 3.90773 33.7019 3.65652 33.7412 3.65652C33.7806 3.40531 33.82 3.40531 33.8594 3.15411C33.8987 3.40531 33.9381 3.40531 33.9775 3.40531C34.0168 3.40531 34.0562 3.15411 34.0562 3.15411C34.1349 3.65652 34.2137 3.90773 34.3318 3.65652C34.4499 3.40531 34.5286 3.40531 34.6073 3.15411C34.6467 3.40531 34.7254 3.40531 34.8042 3.40531C34.8829 3.40531 34.9616 3.40531 35.001 3.65652C35.0404 3.65652 35.0404 3.40531 35.0797 3.15411C35.0797 2.9029 35.1585 2.9029 35.2372 2.9029V3.15411V3.40531H35.2766C35.2766 3.40531 35.2766 3.40531 35.2372 3.65652V3.40531H35.1978C35.1978 3.40531 35.1978 3.40531 35.1585 3.40531C35.1585 3.65652 35.1585 3.65652 35.1585 3.65652L35.1191 3.90773C35.1585 3.90773 35.1585 3.90773 35.1585 3.90773C35.1978 3.90773 35.2372 3.90773 35.2766 3.90773C35.2766 3.65652 35.2766 3.40531 35.3159 3.40531C35.3553 3.65652 35.3947 3.65652 35.434 3.90773C35.4734 3.90773 35.5128 3.90773 35.5521 3.90773C35.5915 3.90773 35.6309 3.90773 35.6702 3.65652C35.7096 3.65652 35.749 3.65652 35.7884 3.65652C35.8277 3.65652 35.8277 3.40531 35.8277 3.40531C35.8277 3.40531 35.8277 3.15411 35.8671 3.15411C35.9065 3.15411 35.9065 3.40531 35.9065 3.40531C35.8671 3.65652 35.9065 3.65652 35.9852 3.65652C35.9852 3.40531 35.9852 3.40531 36.0246 3.40531C36.0639 3.40531 36.0639 3.40531 36.1033 3.15411C36.1427 3.15411 36.1427 3.40531 36.182 3.40531H36.3001C36.3001 3.65652 36.3001 3.65652 36.3395 3.65652C36.3789 3.40531 36.4576 3.40531 36.5363 3.65652C36.6544 3.90773 36.7332 3.65652 36.7332 3.40531C36.6544 3.40531 36.6544 3.40531 36.6544 3.15411C36.6938 2.9029 36.6938 2.9029 36.7332 2.6517C36.7725 2.40049 36.8119 2.40049 36.8513 2.6517C36.8119 2.9029 36.8119 2.9029 36.7725 2.9029C36.7332 2.9029 36.7332 2.9029 36.7332 3.15411C36.8513 3.15411 36.9694 3.15411 37.0481 3.40531C37.1268 3.65652 37.2449 3.40531 37.3237 3.15411C37.3237 2.9029 37.363 2.9029 37.4024 2.9029C37.4418 2.9029 37.4811 2.9029 37.5205 2.9029V3.15411H37.5993C37.5599 3.15411 37.5205 3.15411 37.5205 3.15411C37.5205 2.9029 37.5599 2.6517 37.6386 2.6517C37.6386 2.9029 37.6386 3.15411 37.6386 3.15411C37.678 3.40531 37.6386 3.65652 37.5993 3.90773C37.6386 3.90773 37.678 3.65652 37.7567 3.40531C37.7961 3.15411 37.8748 3.15411 37.9142 3.15411C37.9536 3.40531 37.9929 3.65652 38.0717 3.40531C38.1504 3.40531 38.2291 3.40531 38.2685 3.65652C38.3079 3.40531 38.3472 3.15411 38.3472 3.40531C38.3866 3.65652 38.3866 3.65652 38.3866 3.65652C38.3472 3.65652 38.3472 3.65652 38.3472 3.90773C38.426 3.90773 38.426 3.90773 38.426 3.90773C38.426 3.65652 38.4653 3.65652 38.5047 3.90773V4.15893C38.5441 4.15893 38.5441 4.15893 38.5441 4.15893C38.5441 3.90773 38.5441 3.90773 38.5047 3.90773C38.5441 3.90773 38.5834 3.65652 38.5834 3.40531C38.5834 3.15411 38.6228 3.15411 38.6622 3.40531C38.6622 3.15411 38.6622 3.15411 38.6622 3.15411C38.6228 3.15411 38.6228 2.9029 38.6228 2.9029C38.6622 2.9029 38.7015 3.15411 38.7409 3.15411C38.7803 3.15411 38.8196 3.15411 38.859 3.40531C38.8196 3.40531 38.8196 3.65652 38.7803 3.65652C38.7409 3.65652 38.7409 3.65652 38.7409 3.90773C38.7409 4.15893 38.7803 4.41014 38.8196 4.41014C38.8196 4.15893 38.859 3.90773 38.9377 3.90773C39.0165 3.90773 39.0558 3.65652 39.0952 3.65652C39.0952 3.65652 39.0952 3.90773 39.0558 3.90773C39.0558 3.90773 39.0165 3.90773 39.0165 4.15893C39.0558 4.15893 39.0952 4.15893 39.0952 3.90773C39.0952 3.90773 39.1346 3.90773 39.1346 4.15893C39.1739 4.15893 39.1739 3.90773 39.1346 3.90773C39.0952 3.90773 39.1346 3.65652 39.1739 3.65652V3.90773C39.1739 3.90773 39.1739 3.90773 39.2133 3.90773C39.2133 3.90773 39.2133 4.15893 39.1739 4.15893C39.1346 4.15893 39.1346 4.41014 39.1346 4.41014C39.1739 4.41014 39.2133 4.41014 39.2133 4.41014C39.2527 4.41014 39.2527 4.41014 39.292 4.41014C39.292 4.15893 39.292 4.15893 39.3314 4.15893C39.3708 4.15893 39.3708 4.15893 39.3708 4.41014C39.3708 4.41014 39.3708 4.66134 39.4102 4.66134C39.4102 4.41014 39.4101 4.41014 39.4495 4.41014C39.4889 4.66134 39.5283 4.66134 39.5676 4.66134C39.607 4.41014 39.6857 4.41014 39.7645 4.15893C39.8038 4.41014 39.8432 4.41014 39.9613 4.41014C40.04 4.41014 40.0794 4.41014 40.1581 4.41014C40.1581 4.41014 40.1188 4.66134 40.0794 4.66134C40.04 4.66134 40.04 4.66134 40.04 4.91255C40.0794 4.66134 40.1581 4.66134 40.1975 4.66134C40.2369 4.91255 40.3156 4.91255 40.355 4.66134C40.3943 4.41014 40.355 4.15893 40.3156 4.41014C40.2369 4.41014 40.2369 4.41014 40.2762 4.15893C40.3943 4.15893 40.4731 4.15893 40.4337 4.15893C40.4337 4.41014 40.4731 4.41014 40.5518 4.66134C40.6305 4.66134 40.6305 4.41014 40.5518 4.41014C40.5124 4.41014 40.5124 4.15893 40.5518 4.15893C40.6699 4.15893 40.7486 4.15893 40.8274 4.15893C40.9061 4.15893 41.0242 4.41014 41.0636 4.91255C41.0636 4.66134 41.0636 4.66134 41.0636 4.41014C41.0636 4.15893 41.0636 4.15893 41.1029 4.15893C41.1423 4.15893 41.1423 4.15893 41.1423 4.41014C41.1423 4.66134 41.1423 4.66134 41.2211 4.66134C41.2604 4.66134 41.2604 4.41014 41.2211 4.41014C41.1817 4.41014 41.1817 4.15893 41.2211 4.15893C41.3785 4.41014 41.5754 4.66134 41.7328 4.41014C41.9297 4.41014 42.0871 4.15893 42.284 4.15893C42.3233 4.41014 42.3233 4.41014 42.284 4.41014C42.2446 4.41014 42.2446 4.41014 42.2446 4.66134C42.2446 4.66134 42.3233 4.91255 42.4021 4.91255C42.4021 4.41014 42.4414 4.41014 42.4808 4.41014C42.4808 4.41014 42.4808 4.41014 42.4808 4.66134C42.4808 4.66134 42.4808 4.66134 42.4808 4.91255C42.6383 4.91255 42.7564 4.91255 42.8351 4.91255L43.1107 5.16375L43.0713 5.41496C43.0319 5.41496 43.0319 5.41496 43.0713 5.66616C43.1501 5.66616 43.1894 5.66616 43.2682 5.66616C43.3469 5.66616 43.3863 5.66616 43.3863 5.41496C43.3469 5.41496 43.3075 5.16375 43.3075 5.41496C43.2682 5.41496 43.2288 5.41496 43.2288 5.41496C43.3469 5.16375 43.5044 5.16375 43.6225 5.16375C43.7799 5.16375 43.898 5.16375 44.0555 5.41496C44.213 5.41496 44.3704 5.41496 44.5279 5.16375C44.646 5.16375 44.7641 5.16375 44.8822 5.66616C44.8822 5.66616 44.9216 5.66616 44.9609 5.66616C45.0003 5.66616 45.0397 5.41496 45.0791 5.41496C45.1184 5.41496 45.1184 5.66616 45.1184 5.66616C45.1184 5.66616 45.1578 5.91737 45.2365 5.66616C45.2759 5.66616 45.2759 5.41496 45.2759 5.41496C45.2365 5.41496 45.2759 5.16375 45.3153 5.16375C45.3546 5.41496 45.3546 5.66616 45.394 5.66616C45.4334 5.41496 45.4727 5.41496 45.5515 5.16375C45.7877 5.41496 45.9845 5.41496 46.1813 5.66616C46.3782 5.66616 46.6144 5.66616 46.8112 5.66616L46.8506 5.41496C46.8506 5.41496 46.8899 5.16375 46.8899 4.91255C46.8506 4.91255 46.8112 4.91255 46.8112 4.91255C46.7719 4.91255 46.7718 4.91255 46.7718 4.66134C46.8506 4.66134 46.9293 4.66134 47.0081 4.66134C47.0868 4.66134 47.1655 4.66134 47.2443 4.41014C47.2836 4.41014 47.2836 4.66134 47.2443 4.66134C47.2836 4.66134 47.323 4.66134 47.3624 4.66134C47.4017 4.66134 47.4411 4.66134 47.4411 4.41014C47.2836 4.41014 47.1262 4.41014 47.0081 4.15893C46.8506 3.90773 46.6931 3.90773 46.5356 4.15893C46.5356 4.15893 46.5356 4.41014 46.5356 4.66134C46.5356 4.91255 46.4963 5.16375 46.4569 5.16375C46.4175 4.91255 46.4175 4.91255 46.4569 4.66134C46.4963 4.41014 46.4963 4.41014 46.4175 4.41014C46.3782 4.41014 46.3782 4.66134 46.3388 4.66134C46.3388 4.91255 46.2994 4.91255 46.2601 4.91255C46.2207 4.91255 46.1813 4.91255 46.1813 4.66134C46.142 4.66134 46.1026 4.66134 46.1026 4.66134C46.0632 4.66134 46.0632 4.91255 46.0632 5.16375C46.0632 5.41496 46.0632 5.41496 45.9845 5.41496C45.9845 5.41496 45.9845 5.16375 46.0239 5.16375C46.0239 5.16375 46.0239 4.91255 45.9845 4.91255C45.9845 4.66134 45.9451 4.66134 45.9058 4.66134C45.8664 4.66134 45.827 4.66134 45.8664 4.41014C45.9451 4.41014 46.0632 4.41014 46.142 4.66134C46.2207 4.66134 46.2994 4.66134 46.3782 4.41014C46.1813 4.41014 45.9845 4.15893 45.7483 4.15893C45.5121 4.15893 45.2759 3.90773 45.0397 3.90773C44.8035 3.90773 44.5279 3.65652 44.2917 3.65652C44.0555 3.65652 43.8193 3.65652 43.6225 3.65652C43.6618 3.90773 43.7406 3.90773 43.8193 3.90773C43.898 3.90773 43.9374 3.90773 44.0161 4.15893C44.213 3.90773 44.3704 3.90773 44.5673 3.90773C44.7247 3.90773 44.9216 4.15893 45.0791 4.15893C45.0791 4.15893 45.0791 4.41014 45.0397 4.41014C45.0397 4.41014 45.0397 4.41014 45.0791 4.41014C45.1972 4.15893 45.3546 4.15893 45.4727 4.15893C45.5908 4.15893 45.7483 4.41014 45.8664 4.41014C45.8664 4.66134 45.827 4.66134 45.7877 4.66134C45.7483 4.66134 45.7089 4.66134 45.7483 4.91255C45.7877 4.91255 45.7877 5.16375 45.827 4.91255H45.8664C45.7877 5.16375 45.7089 5.16375 45.6696 4.91255C45.6302 4.66134 45.5515 4.41014 45.4727 4.41014C45.3546 4.66134 45.2365 4.66134 45.1578 4.41014C45.1578 4.91255 45.1184 5.16375 45.0003 5.16375V4.91255C44.9609 4.91255 44.9609 4.91255 44.9609 4.91255H44.9216L44.9609 4.66134C45.0003 4.66134 45.0003 4.66134 45.0003 4.91255C45.0397 4.66134 45.0791 4.66134 45.0791 4.66134C45.0003 4.41014 44.9609 4.41014 44.8822 4.41014C44.8428 4.41014 44.7641 4.41014 44.7247 4.15893C44.646 4.41014 44.5673 4.41014 44.4885 4.15893C44.4098 3.90773 44.3311 4.15893 44.2917 4.41014C44.2523 4.15893 44.1736 4.15893 44.1342 4.15893C44.0949 4.15893 44.0949 4.41014 44.0949 4.66134C44.0949 4.91255 44.0555 4.91255 44.0161 4.91255V4.66134L44.0555 4.41014C44.0161 4.15893 43.898 3.90773 43.8587 4.15893C43.7799 4.41014 43.7012 4.15893 43.6618 3.90773C43.6225 4.15893 43.5831 4.41014 43.5044 4.15893C43.4256 4.15893 43.3469 4.15893 43.3075 4.15893C43.3469 4.15893 43.3863 4.15893 43.4256 4.41014C43.465 4.66134 43.4256 4.66134 43.3863 4.91255C43.3469 4.66134 43.3075 4.41014 43.2682 4.41014C43.2288 4.41014 43.1894 4.15893 43.2288 3.90773C43.1107 4.15893 42.9926 4.15893 42.8745 3.90773C42.7957 3.90773 42.6776 3.90773 42.5989 4.15893C42.4021 3.65652 42.2052 3.65652 41.969 3.65652C41.7328 3.65652 41.4966 3.65652 41.2604 3.65652C41.0636 3.40531 40.8274 3.40531 40.6305 3.40531C40.3943 3.40531 40.1581 3.40531 39.9219 3.15411C40.0007 2.9029 40.1188 2.9029 40.1975 3.15411C40.3156 3.40531 40.3943 3.15411 40.4337 2.9029C40.3156 2.9029 40.1975 2.6517 40.1188 2.9029C40.04 2.9029 39.9613 2.9029 39.8432 2.9029C39.8038 2.9029 39.8038 3.15411 39.8432 3.15411C39.8826 3.15411 39.8826 3.40531 39.8432 3.40531C39.3708 3.40531 38.9377 3.40531 38.5441 3.40531C38.5047 3.40531 38.5047 3.65652 38.5047 3.90773C38.5047 4.15893 38.4653 4.15893 38.3866 3.90773H38.426C38.426 3.90773 38.4653 3.90773 38.4653 3.65652C38.3472 3.40531 38.1898 3.40531 38.0717 3.40531C37.9142 3.65652 37.8355 3.40531 37.7961 3.15411C37.8355 3.15411 37.8748 3.15411 37.9142 3.15411C37.9536 3.15411 37.9536 3.15411 37.9536 2.9029C37.7961 2.9029 37.6386 2.9029 37.4811 2.9029C37.3237 2.6517 37.1662 2.9029 37.0481 3.15411C37.1662 3.15411 37.2843 3.15411 37.363 3.15411C37.4812 2.9029 37.5599 3.15411 37.678 3.40531C37.2843 3.40531 36.8906 3.40531 36.497 3.40531C36.1033 3.40531 35.749 3.40531 35.3553 3.40531C35.3159 3.40531 35.3159 3.40531 35.3159 3.65652C35.3159 3.65652 35.2766 3.90773 35.2372 3.90773C35.2372 3.65652 35.1978 3.65652 35.1585 3.65652C35.1191 3.65652 35.0797 3.65652 35.0404 3.40531C34.5286 3.40531 33.9775 3.40531 33.4657 3.40531C32.9539 3.40531 32.4421 3.40531 32.0091 3.40531C32.0485 3.15411 32.0091 3.15411 31.9697 2.9029C31.891 3.15411 31.8123 3.15411 31.6941 2.9029C31.576 2.6517 31.4973 2.9029 31.4579 3.15411C31.5367 3.15411 31.6154 3.15411 31.7335 3.15411C31.8122 2.9029 31.891 3.15411 31.9697 3.40531C31.7729 3.40531 31.5367 3.40531 31.3398 3.65652C31.1036 3.65652 30.9068 3.65652 30.6706 3.40531L31.0643 3.15411C31.1824 3.15411 31.3005 3.15411 31.4186 3.15411V2.9029C31.4186 2.9029 31.4186 2.9029 31.4186 2.6517C31.1036 2.9029 30.7887 2.9029 30.4738 2.9029C30.1982 2.6517 29.8832 2.9029 29.6077 3.65652C29.5683 3.65652 29.5289 3.65652 29.4896 3.65652C29.4502 3.65652 29.4108 3.65652 29.3715 3.40531C29.4108 3.40531 29.4896 3.40531 29.5289 3.40531C29.6077 3.40531 29.6077 3.40531 29.6077 3.15411C28.7416 3.15411 27.9149 3.40531 27.2063 3.40531C26.4583 3.40531 25.6709 3.65652 24.8049 3.65652L24.608 3.90773C24.3718 3.90773 24.175 3.65652 23.9388 3.90773C23.7026 3.90773 23.4664 4.15893 23.2695 4.15893C23.1121 3.90773 22.9546 3.90773 22.7971 3.90773C22.6397 3.90773 22.4822 4.15893 22.3247 4.15893V4.41014C22.3641 4.41014 22.3641 4.41014 22.3641 4.66134C22.3247 4.66134 22.3247 4.66134 22.2853 4.91255C22.246 4.91255 22.246 4.91255 22.2066 4.91255L22.246 4.66134C22.246 4.66134 22.246 4.41014 22.246 4.15893C21.7342 4.41014 21.2224 4.41014 20.6713 4.41014C20.1989 4.41014 19.6871 4.66134 19.2147 4.91255C18.5454 4.91255 17.7975 4.91255 17.0889 5.16375C16.3409 5.41496 15.6716 5.66616 15.0418 5.66616C14.6087 5.66616 14.1757 5.66616 13.7033 5.91737C13.2309 6.16857 12.7978 6.16857 12.3254 5.91737C12.1679 6.16857 12.0105 6.16857 11.853 6.16857C11.6955 6.16857 11.5381 6.16857 11.3806 5.91737C11.8924 5.91737 12.3648 5.66616 12.8765 5.41496C13.3883 5.16375 13.8607 5.16375 14.2938 5.41496C14.3331 5.16375 14.3725 5.16375 14.4512 5.16375C14.4906 5.16375 14.5693 5.16375 14.6087 4.91255C14.7268 5.16375 14.8449 5.16375 15.0024 5.16375C15.1205 5.16375 15.2386 4.91255 15.3567 4.91255C15.3567 4.91255 15.3961 4.91255 15.3961 5.16375C15.3961 5.16375 15.3961 5.16375 15.4354 5.16375C15.5929 4.91255 15.7897 4.91255 15.9472 4.91255C16.1047 4.91255 16.2621 4.91255 16.459 4.91255C16.8133 4.91255 17.207 4.91255 17.6006 4.66134C17.9943 4.41014 18.388 4.41014 18.7817 4.15893C18.8998 4.15893 19.0572 4.15893 19.1753 4.15893C19.2934 4.15893 19.4115 4.15893 19.569 4.15893C19.6477 4.15893 19.7265 4.15893 19.7658 3.90773C19.8446 3.90773 19.8839 3.90773 19.9627 3.90773C20.0808 3.90773 20.1595 3.90773 20.2776 3.90773C20.3957 3.90773 20.4744 3.90773 20.5532 3.90773C20.75 3.90773 20.9469 3.90773 21.1437 3.90773C21.3405 3.90773 21.5374 3.65652 21.8129 3.65652C22.7184 3.65652 23.6238 3.40531 24.608 3.15411C25.5922 2.9029 26.537 2.9029 27.4425 2.9029C27.6787 2.9029 27.9542 2.9029 28.1905 2.9029L28.9384 2.6517C29.6864 2.6517 30.4344 2.40049 31.2217 2.40049C32.0091 2.40049 32.7964 2.14929 33.5444 2.14929C33.5838 2.14929 33.5838 2.14929 33.5838 2.40049C33.5838 2.40049 33.6231 2.40049 33.6625 2.40049C34.4499 2.40049 35.2372 2.14929 35.9852 2.14929C36.7332 2.14929 37.5205 2.14929 38.3079 2.40049C38.9771 2.14929 39.6464 2.14929 40.3943 2.40049C41.1423 2.6517 41.8903 2.6517 42.6383 2.6517C42.9138 2.9029 43.2682 2.9029 43.6618 2.9029C44.0555 2.9029 44.4098 2.9029 44.6854 3.15411C45.394 3.40531 46.142 3.65652 46.8899 3.90773C47.6773 4.15893 48.3859 4.41014 49.0945 4.66134C49.4095 4.91255 49.685 5.16375 50 5.16375C50.2755 5.16375 50.5511 5.41496 50.8267 5.66616C50.3543 5.66616 49.8425 5.41496 49.3307 5.16375C48.819 4.91255 48.3072 4.66134 47.7954 4.91255C47.8348 4.91255 47.8348 5.16375 47.8348 5.16375C47.8348 5.41496 47.8348 5.41496 47.7954 5.41496C47.756 5.16375 47.6773 5.41496 47.6379 5.41496C47.5986 5.66616 47.5198 5.41496 47.4805 5.16375C47.4805 5.66616 47.4411 5.66616 47.3624 5.41496C47.323 5.16375 47.2443 5.16375 47.2049 5.41496C47.2049 5.66616 47.2443 5.91737 47.2836 5.91737C47.323 5.91737 47.4017 6.16857 47.4411 6.16857C47.4805 5.91737 47.4805 5.91737 47.5198 5.91737H47.6773C47.7167 5.91737 47.7167 5.66616 47.7167 5.66616C47.7167 5.66616 47.7167 5.41496 47.756 5.41496C47.7954 5.41496 47.8348 5.41496 47.9135 5.66616C47.9135 5.66616 47.8741 5.91737 47.8348 5.91737C47.7954 5.91737 47.756 5.91737 47.7954 6.16857C47.8741 6.41978 47.9529 6.41978 48.0316 6.16857C48.1497 6.16857 48.1891 6.16857 48.2284 6.41978H48.071C48.0316 6.41978 47.9922 6.41978 47.9922 6.67098C48.3072 6.67098 48.6221 6.67098 48.9371 7.17339C49.2126 7.4246 49.5276 7.6758 49.8425 7.6758C49.8425 7.6758 49.8425 7.92701 49.8819 7.92701C49.9212 7.92701 49.9212 7.92701 49.9212 7.92701C50.1181 7.92701 50.3543 7.6758 50.5511 7.92701C50.7873 7.92701 51.0235 7.92701 51.2991 7.92701C51.3778 7.92701 51.4959 7.92701 51.5747 7.6758C51.6928 7.4246 51.8109 7.4246 51.8896 7.4246C51.6534 6.92219 51.6534 6.67098 51.6534 6.41978ZM46.7325 4.66134C46.6931 4.66134 46.6931 4.91255 46.6931 5.16375C46.6931 5.41496 46.6931 5.41496 46.6144 5.41496C46.6144 5.16375 46.6144 4.91255 46.6144 4.91255C46.575 4.91255 46.575 4.66134 46.575 4.66134C46.6144 4.66134 46.6931 4.66134 46.7325 4.66134ZM45.9058 4.91255C45.9058 5.16375 45.9058 5.16375 45.9058 4.91255C45.8664 5.16375 45.827 4.91255 45.827 4.91255H45.9058ZM44.646 4.66134C44.6854 4.66134 44.6854 4.66134 44.6854 4.66134C44.6854 4.66134 44.6854 4.66134 44.7247 4.66134C44.7247 4.91255 44.7247 4.91255 44.646 4.66134C44.6066 4.91255 44.6066 4.91255 44.646 4.66134ZM44.4885 4.66134C44.5279 4.66134 44.5279 4.91255 44.5279 4.91255C44.4885 4.91255 44.4885 4.91255 44.4492 4.91255C44.4492 4.66134 44.4492 4.41014 44.4885 4.66134ZM43.7406 4.41014C43.7406 4.66134 43.7406 4.66134 43.7406 4.66134C43.7406 4.66134 43.7799 4.66134 43.7799 4.91255C43.7012 4.91255 43.6225 4.66134 43.6225 4.41014H43.7406ZM42.9926 4.15893C42.9926 4.15893 43.0319 4.15893 42.9926 4.15893C43.0319 4.41014 42.9926 4.66134 42.9532 4.41014L42.9926 4.15893C42.9532 4.15893 42.9926 4.15893 42.9926 4.15893ZM42.0871 4.15893C42.1265 4.15893 42.1265 4.15893 42.1265 4.41014C42.1265 4.41014 42.1265 4.66134 42.0871 4.66134C42.0871 4.41014 42.0871 4.41014 42.0871 4.15893C42.0478 4.15893 42.0871 4.15893 42.0871 4.15893ZM42.0084 4.15893C42.0084 4.41014 42.0084 4.41014 42.0084 4.15893V4.15893ZM40.7093 4.41014C40.7093 4.41014 40.7093 4.41014 40.6699 4.41014H40.7093ZM40.5518 3.90773H40.5912V4.15893H40.5518V3.90773ZM40.4731 4.41014H40.5518V4.66134L40.4731 4.41014ZM40.0794 3.65652C40.1188 3.65652 40.1188 3.65652 40.1188 3.65652C40.1188 3.65652 40.1188 3.65652 40.1581 3.65652C40.1975 3.90773 40.1975 3.90773 40.0794 3.65652C40.0794 3.90773 40.0794 3.90773 40.0794 3.65652ZM39.6857 3.90773H39.7251V4.15893H39.6857V3.90773ZM36.6938 3.90773V4.15893H36.6151V3.90773H36.6938ZM36.3789 4.15893H36.4576V4.41014L36.3789 4.15893ZM36.182 3.65652H36.2214C36.2214 3.90773 36.2214 4.15893 36.182 3.65652C36.1427 3.90773 36.1427 3.90773 36.1033 3.65652C36.1033 3.90773 36.1427 3.65652 36.182 3.65652ZM35.3947 4.41014C35.434 4.41014 35.434 4.41014 35.434 4.41014C35.4734 4.41014 35.4734 4.41014 35.4734 4.66134C35.4734 4.91255 35.434 4.91255 35.3947 4.66134V4.41014ZM34.4892 3.65652C34.568 3.65652 34.568 3.65652 34.568 3.65652C34.6073 3.90773 34.568 3.90773 34.5286 3.90773C34.4892 3.90773 34.4499 3.90773 34.4892 3.65652ZM34.3318 3.90773H34.3711V4.15893H34.3318V3.90773ZM34.2137 3.90773H34.253V4.15893L34.2137 3.90773ZM34.0956 3.90773C34.1349 3.90773 34.1743 4.15893 34.1349 4.15893C34.0956 4.15893 34.0562 4.15893 34.0168 3.90773C34.0168 3.90773 34.0168 3.90773 34.0956 3.90773ZM33.82 3.90773C33.8594 3.90773 33.9381 3.90773 33.9775 3.90773C33.9775 3.90773 33.9775 4.15893 33.8987 4.15893C33.82 4.15893 33.82 4.15893 33.82 3.90773ZM32.9539 4.66134C32.9933 4.41014 33.0326 4.41014 33.1114 4.41014C33.1114 4.66134 33.0326 4.66134 32.9539 4.66134C32.9145 4.66134 32.9539 4.66134 32.9539 4.66134ZM32.8358 3.90773H32.7964V3.65652H32.8358C32.8752 3.65652 32.8752 3.65652 32.8358 3.90773ZM32.1666 3.90773C32.2059 3.90773 32.2059 4.15893 32.2453 4.15893C32.1666 4.15893 32.1666 3.90773 32.1666 3.90773ZM32.0485 3.90773C32.0878 3.90773 32.0878 3.90773 32.0878 3.90773H32.1272C32.1272 3.90773 32.1272 3.90773 32.1272 4.15893C32.0878 4.15893 32.0485 3.90773 32.0485 3.90773C32.0091 3.90773 32.0091 3.90773 32.0485 3.90773ZM31.8516 3.90773C31.891 3.90773 31.9304 3.90773 31.891 4.15893L31.8516 4.41014C31.8123 4.41014 31.8122 4.41014 31.8122 4.15893C31.8516 3.90773 31.8516 3.90773 31.8516 3.90773ZM31.6154 4.15893C31.576 4.15893 31.5367 3.90773 31.4973 3.65652C31.576 3.90773 31.6154 3.90773 31.6154 4.15893ZM31.0249 3.90773C31.1036 3.90773 31.1036 4.15893 31.0643 4.15893H31.0249V3.90773ZM30.7493 3.90773C30.7887 3.90773 30.8281 4.15893 30.7887 4.15893H30.7493H30.71C30.71 4.15893 30.71 3.90773 30.7493 3.90773C30.71 3.90773 30.7493 3.90773 30.7493 3.90773ZM30.5131 4.66134C30.5525 4.66134 30.5919 4.66134 30.6312 4.66134C30.6706 4.66134 30.71 4.41014 30.7493 4.41014C30.7887 4.15893 30.8674 4.15893 30.9068 4.41014C30.9068 4.66134 30.9462 4.66134 30.9855 4.66134C30.9462 4.91255 30.8674 4.91255 30.8281 4.91255C30.7887 4.91255 30.71 4.91255 30.6312 4.66134C30.5919 4.91255 30.5131 4.91255 30.4738 4.91255C30.395 4.91255 30.3557 4.66134 30.3557 4.41014C30.395 4.66134 30.4738 4.66134 30.5131 4.66134ZM30.2769 3.40531H30.4344C30.4344 3.40531 30.395 3.65652 30.3557 3.65652C30.3163 3.65652 30.2376 3.40531 30.2769 3.40531ZM30.0801 3.40531C30.1195 3.40531 30.1588 3.40531 30.2376 3.40531C30.2376 3.65652 30.1982 3.65652 30.1195 3.65652C30.0801 3.65652 30.0407 3.65652 30.0014 3.65652C30.0014 3.40531 30.0407 3.15411 30.0801 3.40531ZM30.0014 4.15893C30.0014 3.90773 30.0013 3.90773 30.0407 3.90773C30.0801 3.90773 30.0801 4.15893 30.0801 4.15893C30.0407 4.41014 30.0407 4.41014 30.0014 4.15893ZM29.8045 4.41014C29.7651 4.41014 29.7651 4.41014 29.7258 4.15893C29.6864 4.15893 29.647 4.15893 29.6077 4.15893C29.6077 3.90773 29.647 3.90773 29.7258 3.90773C29.8045 3.90773 29.8045 4.15893 29.8045 4.41014ZM29.4896 4.15893H29.5683V4.41014L29.4896 4.15893ZM27.5999 4.66134C27.5999 4.66134 27.6393 4.66134 27.5999 4.66134C27.6393 4.66134 27.6393 4.66134 27.5999 4.66134ZM27.9149 4.66134C27.8755 4.66134 27.9149 4.41014 27.9149 4.66134C27.9542 4.66134 27.9542 4.66134 27.9149 4.66134ZM28.1117 4.15893C28.1905 4.15893 28.2298 4.15893 28.1905 4.41014C28.1905 4.41014 28.1511 4.41014 28.1117 4.15893C28.1117 4.41014 28.1117 4.15893 28.1117 4.15893ZM28.466 4.41014H28.3873V4.15893C28.4267 4.15893 28.4267 4.15893 28.466 4.41014ZM28.5841 4.66134C28.6235 4.66134 28.6235 4.41014 28.5841 4.66134C28.6235 4.41014 28.6235 4.66134 28.6235 4.91255L28.5841 4.66134C28.5448 4.66134 28.5448 4.66134 28.5841 4.66134ZM28.6629 5.16375C28.6235 5.16375 28.5841 5.16375 28.5841 5.16375C28.6235 4.91255 28.6629 4.91255 28.7022 5.16375C28.7022 5.16375 28.7022 5.16375 28.6629 5.16375ZM28.7416 4.91255C28.781 4.66134 28.781 4.66134 28.8203 4.41014C28.8597 4.15893 28.8991 4.15893 28.9384 4.41014C28.9384 4.91255 28.8991 5.16375 28.7416 4.91255ZM28.781 3.40531C28.8597 3.40531 28.9384 3.40531 29.0172 3.15411H29.0565C29.0565 3.15411 29.0565 3.15411 29.0959 3.15411V3.40531C29.0172 3.40531 28.9778 3.40531 28.9384 3.65652C28.8203 3.90773 28.781 3.65652 28.781 3.40531ZM28.7416 4.15893C28.781 4.41014 28.781 4.41014 28.7416 4.15893C28.7022 4.15893 28.7022 4.41014 28.7022 4.41014C28.6629 4.41014 28.6629 4.41014 28.6629 4.15893C28.7022 4.15893 28.7416 4.15893 28.7416 4.15893ZM27.7574 3.90773C27.8361 3.65652 27.9149 3.65652 28.033 3.65652C28.1117 3.90773 28.2298 3.65652 28.3086 3.40531C28.3479 3.65652 28.3873 3.65652 28.5054 3.65652C28.5841 3.40531 28.6629 3.65652 28.7416 3.90773C28.5841 3.90773 28.4267 3.90773 28.2692 3.90773C28.0723 3.90773 27.9149 3.90773 27.7574 3.90773ZM27.5999 3.65652H27.6787C27.718 3.65652 27.718 3.90773 27.6787 3.90773L27.5999 3.65652ZM27.5999 4.66134C27.5999 4.66134 27.5999 4.66134 27.5212 4.66134C27.5212 4.91255 27.5606 4.66134 27.5999 4.66134ZM27.2456 3.65652H27.3244V3.90773L27.2456 3.65652ZM27.0488 3.90773C27.0488 3.65652 27.0882 3.40531 27.1275 3.65652C27.1669 3.90773 27.1275 4.15893 27.0488 3.90773ZM26.9307 3.65652H26.9701V3.90773L26.9307 3.65652ZM26.9307 4.91255L26.8913 5.16375C26.8913 5.16375 26.852 5.41496 26.8126 5.41496C26.8126 5.16375 26.8126 5.16375 26.852 5.16375C26.8913 5.16375 26.8913 5.16375 26.852 4.91255C26.8913 4.66134 26.8913 4.66134 26.9307 4.91255ZM26.852 4.66134C26.8126 4.66134 26.8126 4.66134 26.852 4.66134C26.8126 4.66134 26.8126 4.66134 26.7732 4.66134C26.7732 4.66134 26.7732 4.66134 26.852 4.66134C26.852 4.41014 26.852 4.41014 26.852 4.66134ZM26.6945 3.65652C26.6945 3.40531 26.7339 3.40531 26.7732 3.65652C26.8126 3.90773 26.8126 3.90773 26.7732 3.90773H26.6945C26.7339 3.90773 26.7339 3.65652 26.6945 3.65652ZM25.5922 4.66134C25.5528 4.66134 25.5528 4.66134 25.5135 4.66134C25.5135 4.66134 25.5135 4.66134 25.5135 4.41014L25.5922 4.66134C25.6316 4.41014 25.6316 4.66134 25.5922 4.66134ZM25.8678 4.66134C25.9071 4.66134 25.9465 4.66134 25.9465 4.91255C25.8678 5.16375 25.8284 4.91255 25.8678 4.66134ZM26.0646 3.90773C26.0646 3.90773 26.0646 4.15893 26.0646 3.90773C26.0252 4.15893 26.0252 4.15893 25.9859 4.15893C25.9859 4.15893 25.9465 4.15893 25.9465 3.90773H26.0646ZM25.7103 4.66134C25.7103 4.41014 25.7497 4.41014 25.789 4.41014C25.8284 4.41014 25.8678 4.41014 25.9071 4.66134C25.9071 4.66134 25.8678 4.91255 25.8284 4.91255C25.789 4.66134 25.7497 4.66134 25.7103 4.66134ZM25.5528 3.90773C25.5922 3.90773 25.5922 3.90773 25.5922 3.90773C25.5922 3.90773 25.5922 3.90773 25.6316 3.90773C25.6709 4.15893 25.6316 4.15893 25.5528 3.90773C25.5135 4.15893 25.5135 3.90773 25.5528 3.90773ZM25.1592 4.15893C25.1985 4.15893 25.1985 4.15893 25.1985 3.90773C25.2379 3.90773 25.2379 4.15893 25.2379 4.15893H25.1592ZM25.0017 3.90773H25.0804V4.15893H25.0017V3.90773ZM24.8442 3.90773C24.8836 3.90773 24.923 3.90773 24.923 3.90773C25.0017 3.90773 25.0017 4.15893 24.9623 4.15893C24.923 4.15893 24.8836 4.15893 24.8049 4.15893C24.7655 3.90773 24.8049 3.90773 24.8442 3.90773ZM24.7655 4.41014C24.8442 4.41014 24.8836 4.66134 24.8836 4.66134H24.6868C24.6474 4.41014 24.6868 4.41014 24.7655 4.41014ZM24.5687 4.66134C24.5293 4.91255 24.4506 4.91255 24.4112 4.91255C24.4112 4.66134 24.4112 4.66134 24.4506 4.66134C24.4899 4.66134 24.5293 4.66134 24.5687 4.66134ZM24.3718 4.15893H24.4506V4.41014H24.4112H24.3718V4.15893ZM24.2537 4.66134C24.3324 4.66134 24.3324 4.66134 24.3324 4.91255L24.2537 4.66134ZM24.0962 5.91737H24.0175V5.66616H24.0962V5.91737ZM23.86 4.66134C23.8994 4.41014 23.9388 4.15893 24.0569 4.41014C24.1356 4.41014 24.175 4.66134 24.175 4.91255C24.1356 4.91255 24.0962 4.91255 24.0962 4.66134C24.0962 4.41014 24.0175 4.41014 24.0175 4.41014C23.9781 4.41014 23.9781 4.41014 24.0175 4.66134C24.0569 4.66134 24.0569 4.66134 24.0175 4.91255C23.9388 4.66134 23.8994 4.66134 23.86 4.66134ZM23.7026 4.15893C23.7419 4.15893 23.7813 4.15893 23.7419 4.15893C23.7419 4.41014 23.7419 4.41014 23.7419 4.66134C23.7026 4.66134 23.6632 4.66134 23.6632 4.41014C23.6632 4.41014 23.6632 4.15893 23.7026 4.15893ZM23.5845 4.41014C23.5845 4.15893 23.5845 4.15893 23.5845 4.41014C23.5845 4.15893 23.5845 4.15893 23.5845 4.41014C23.6632 4.15893 23.6632 4.41014 23.6632 4.41014C23.6238 4.41014 23.6238 4.41014 23.6238 4.41014C23.6238 4.41014 23.5845 4.41014 23.5845 4.41014ZM23.5451 4.66134C23.5845 4.66134 23.5845 4.66134 23.5845 4.66134C23.5845 4.66134 23.5845 4.66134 23.6238 4.66134C23.6238 4.91255 23.6238 4.91255 23.5451 4.66134C23.5057 4.91255 23.5057 4.91255 23.5451 4.66134ZM23.3089 4.91255V4.66134V4.41014C23.3876 4.41014 23.3876 4.41014 23.3876 4.66134C23.3876 4.66134 23.3876 4.66134 23.3876 4.91255C23.3876 5.16375 23.3483 5.16375 23.3089 4.91255ZM23.0333 5.41496C23.0333 5.41496 23.0727 5.41496 23.1121 5.41496C23.1121 5.41496 23.0727 5.41496 23.0333 5.41496ZM23.1514 4.91255C23.1514 4.91255 23.1908 4.66134 23.2302 4.66134C23.2302 4.91255 23.1908 4.91255 23.1514 4.91255ZM22.7184 4.66134C22.7971 4.41014 22.8759 4.41014 22.9546 4.41014C23.0333 4.41014 23.1514 4.41014 23.2302 4.41014C23.1514 4.66134 23.0727 4.91255 22.994 4.66134C22.9546 4.66134 22.8365 4.66134 22.7184 4.66134ZM22.5215 4.91255C22.5609 4.91255 22.5609 4.91255 22.5609 4.66134C22.5609 4.66134 22.5609 4.41014 22.5215 4.41014C22.5609 4.41014 22.6003 4.41014 22.6003 4.41014C22.679 4.41014 22.679 4.41014 22.6397 4.41014C22.6003 4.41014 22.6003 4.66134 22.6003 4.66134C22.6397 4.91255 22.6397 4.91255 22.679 4.91255H22.7971C22.8365 4.91255 22.8759 4.91255 22.9152 4.91255C22.9546 4.91255 22.9546 5.16375 22.994 5.16375C22.8759 5.16375 22.7971 5.16375 22.7184 4.91255C22.6397 4.91255 22.5609 4.91255 22.4822 5.16375C22.4428 5.16375 22.4428 4.91255 22.4822 4.91255C22.4822 5.16375 22.5215 4.91255 22.5215 4.91255ZM22.1279 4.41014C22.1672 4.41014 22.2066 4.41014 22.246 4.41014C22.2853 4.66134 22.2853 4.66134 22.246 4.91255C22.3247 4.91255 22.3247 4.91255 22.2853 4.66134H22.4428L22.4034 4.91255C22.3641 4.91255 22.3641 5.16375 22.3641 5.16375C22.2853 5.16375 22.2066 5.16375 22.1279 5.16375L22.2066 4.91255C22.2066 4.91255 22.1672 4.66134 22.1279 4.41014ZM21.7342 5.16375C21.7736 5.16375 21.7736 5.16375 21.7736 5.16375C21.7736 5.16375 21.7736 5.16375 21.8129 5.16375C21.7736 5.16375 21.7342 5.41496 21.7342 5.41496V5.16375ZM21.6161 5.16375C21.6948 5.16375 21.6948 5.16375 21.6555 5.41496C21.6161 5.41496 21.5767 5.41496 21.498 5.41496C21.5374 5.16375 21.5767 5.16375 21.6161 5.16375ZM21.2618 4.91255C21.3012 4.91255 21.3012 4.91255 21.2618 4.91255C21.2224 5.16375 21.2224 5.16375 21.1831 5.16375C21.2224 4.91255 21.2618 4.66134 21.2618 4.91255ZM21.065 4.91255C21.065 4.91255 21.065 4.91255 21.0256 4.91255C21.0256 4.91255 21.0256 4.91255 21.065 4.91255ZM20.9075 5.41496H20.9862C21.0256 5.41496 20.9862 5.41496 20.9075 5.41496C20.8681 5.41496 20.9075 5.41496 20.9075 5.41496ZM20.75 4.91255C20.7894 4.91255 20.8288 5.16375 20.7894 5.41496C20.75 5.41496 20.75 5.41496 20.75 5.16375V4.91255ZM20.6319 4.91255H20.6713V5.16375H20.6319V4.91255ZM20.5926 4.91255C20.5532 5.16375 20.5532 5.16375 20.5138 5.16375C20.5138 4.91255 20.5138 4.91255 20.5926 4.91255ZM20.0414 5.16375C20.0808 5.16375 20.1201 5.16375 20.1201 4.91255C20.1595 4.91255 20.1595 5.16375 20.1201 5.41496C20.0808 5.41496 20.0414 5.41496 20.0414 5.16375ZM19.4903 5.91737C19.5296 5.91737 19.5296 5.66616 19.4903 5.41496C19.569 5.41496 19.569 5.66616 19.569 5.91737C19.569 6.16857 19.6084 6.16857 19.6871 6.16857C19.6477 6.41978 19.6084 6.41978 19.569 6.41978C19.5296 6.41978 19.4509 6.41978 19.4115 6.41978C19.4115 6.16857 19.4509 5.91737 19.4903 5.91737ZM19.2934 6.16857H19.3328V6.41978H19.2934V6.16857ZM19.0572 5.16375C19.0572 4.91255 19.0966 4.91255 19.136 4.91255C19.1753 4.91255 19.1753 4.91255 19.1753 4.91255C19.2147 4.91255 19.2147 5.16375 19.1753 5.16375C19.136 5.41496 19.0966 5.41496 19.0572 5.16375ZM18.9785 6.41978C19.0179 6.16857 19.0572 6.16857 19.136 6.16857C19.2147 6.16857 19.2541 6.16857 19.2147 6.41978C19.1753 6.41978 19.136 6.41978 19.0966 6.41978C19.0572 6.41978 19.0179 6.41978 18.9785 6.41978ZM18.8998 6.92219C18.821 6.92219 18.7817 6.67098 18.7423 6.41978C18.7817 6.41978 18.7817 6.67098 18.821 6.67098C18.8604 6.67098 18.8604 6.67098 18.8998 6.92219ZM18.8998 5.16375C18.8998 5.16375 18.8604 5.41496 18.821 5.41496C18.7817 5.41496 18.7423 5.41496 18.7423 5.41496C18.7423 5.16375 18.7817 5.16375 18.8998 5.16375ZM18.5061 5.66616H18.5454V5.91737H18.5061V5.66616ZM17.9549 5.91737C17.9549 5.91737 17.9549 5.91737 17.9156 5.91737H17.9549ZM17.7581 5.66616C17.7975 5.66616 17.7975 5.66616 17.7581 5.66616C17.8762 5.41496 17.9156 5.66616 17.9156 5.91737C17.8368 5.91737 17.7975 5.91737 17.7975 5.91737C17.7581 5.91737 17.7581 6.16857 17.7581 5.66616C17.7187 5.66616 17.7187 5.66616 17.7581 5.66616ZM17.5613 5.66616H17.64V5.91737H17.5613V5.66616ZM17.5613 6.41978C17.5613 6.67098 17.5219 6.92219 17.4432 6.41978C17.4825 6.67098 17.5219 6.41978 17.5613 6.41978ZM17.207 5.41496L17.2463 5.66616C17.207 5.66616 17.207 5.91737 17.1676 5.91737C17.1282 5.91737 17.1282 5.91737 17.0889 5.91737L17.1282 5.66616C17.1676 5.41496 17.1676 5.41496 17.207 5.41496ZM17.0101 6.41978H17.0889V6.67098L17.0101 6.41978ZM16.892 6.92219C16.9314 6.67098 16.9314 6.67098 16.9708 6.67098C16.9708 6.92219 16.9314 6.92219 16.892 6.92219ZM16.9314 6.16857C16.9314 6.16857 16.9314 6.41978 16.9314 6.16857C16.9314 6.41978 16.9314 6.41978 16.9314 6.16857C16.9314 6.41978 16.9314 6.41978 16.892 6.41978C16.892 6.16857 16.892 6.16857 16.9314 6.16857ZM16.3015 6.16857H16.4196C16.4196 6.41978 16.3802 6.41978 16.3015 6.16857C16.3015 6.16857 16.2621 6.16857 16.2228 6.41978C16.2621 6.41978 16.2621 6.16857 16.3015 6.16857ZM15.278 7.4246H15.1992V7.17339H15.278V7.4246ZM15.1992 6.16857C15.1992 6.41978 15.1992 6.41978 15.1992 6.41978C15.1599 6.41978 15.1599 6.67098 15.1992 6.67098C15.1599 6.67098 15.1205 6.41978 15.1205 6.16857C15.0811 6.16857 15.1992 6.16857 15.1992 6.16857ZM13.8607 6.41978C13.9001 6.41978 13.9001 6.41978 13.9001 6.41978C13.9001 6.41978 13.9001 6.41978 13.9395 6.41978C13.9395 6.67098 13.9395 6.67098 13.8607 6.41978C13.8214 6.67098 13.8214 6.67098 13.8607 6.41978ZM13.0734 6.41978H13.1521V6.67098H13.0734V6.41978ZM13.0734 7.4246C13.1128 7.4246 13.1521 7.4246 13.1915 7.4246C13.1915 7.6758 13.1915 7.6758 13.1521 7.6758C13.0734 7.6758 13.034 7.6758 13.0734 7.4246C12.9946 7.6758 12.9946 7.4246 13.0734 7.4246ZM10.4358 6.16857C10.3964 6.16857 10.357 6.16857 10.357 6.41978C10.357 6.16857 10.357 6.16857 10.3964 5.91737C10.4358 5.91737 10.4751 5.91737 10.5145 6.16857C10.4751 6.16857 10.4751 6.16857 10.4358 6.16857ZM10.5539 5.91737C10.5539 5.91737 10.5932 5.91737 10.6326 5.91737C10.6326 5.91737 10.5932 5.91737 10.5539 5.91737ZM10.672 6.16857C10.7507 5.91737 10.7507 6.16857 10.7507 6.16857H10.672ZM10.9475 6.16857C10.9082 6.16857 10.8294 6.16857 10.7901 6.16857C10.8294 5.91737 10.8688 5.91737 10.9475 6.16857C10.9869 5.91737 11.0263 5.91737 11.0656 5.91737C11.0656 5.91737 11.0263 6.16857 10.9475 6.16857ZM19.0966 3.90773C19.0966 3.90773 19.0966 3.65652 19.0966 3.90773C19.0572 3.65652 19.0966 3.65652 19.0966 3.90773C19.0966 3.65652 19.136 3.65652 19.0966 3.90773C19.136 3.90773 19.136 3.90773 19.0966 3.90773ZM19.6084 3.65652C19.6084 3.40531 19.6084 3.40531 19.6084 3.65652C19.6084 3.40531 19.6084 3.40531 19.6084 3.65652C19.6477 3.65652 19.6477 3.65652 19.6084 3.65652ZM20.2382 3.65652C20.1989 3.65652 20.1201 3.65652 20.0808 3.65652C20.1201 3.40531 20.1595 3.40531 20.1989 3.40531C20.2382 3.65652 20.2776 3.65652 20.3563 3.40531C20.3563 3.65652 20.317 3.65652 20.2382 3.65652ZM20.75 3.65652C20.6713 3.65652 20.5532 3.65652 20.4744 3.65652C20.4744 3.65652 20.4744 3.40531 20.4351 3.40531C20.4351 3.40531 20.4351 3.40531 20.4351 3.15411C20.4744 3.15411 20.5138 2.9029 20.5532 3.15411C20.5925 3.15411 20.6319 3.40531 20.6319 3.40531C20.6713 3.40531 20.6713 3.40531 20.6713 3.15411C20.6713 3.15411 20.7107 2.9029 20.75 3.15411C20.75 3.15411 20.75 3.40531 20.7894 3.40531C20.8288 3.40531 20.8288 3.40531 20.8681 3.40531C20.8681 3.65652 20.7894 3.65652 20.75 3.65652ZM47.8348 5.41496H47.756V5.16375L47.8348 5.41496ZM47.9135 6.16857C47.8741 6.16857 47.8348 5.91737 47.8741 5.91737C47.9135 5.91737 47.9135 5.91737 47.9135 5.66616C47.9529 5.66616 47.9529 5.66616 47.9529 5.91737C47.9529 6.16857 47.9922 6.16857 47.9922 6.16857C47.9922 6.16857 47.9529 6.16857 47.9135 6.16857ZM48.071 5.91737C48.071 5.91737 48.1103 5.91737 48.1497 5.91737C48.1103 5.91737 48.1103 5.91737 48.071 5.91737ZM48.3072 6.41978C48.2678 6.41978 48.2678 6.41978 48.2284 6.41978C48.1891 6.41978 48.1891 6.41978 48.1891 6.16857C48.2678 6.16857 48.2678 6.16857 48.2678 6.16857C48.3072 6.16857 48.3072 6.16857 48.3072 6.41978C48.3072 6.16857 48.3072 6.41978 48.3072 6.41978ZM48.3465 5.66616C48.2678 5.66616 48.2678 5.66616 48.3072 5.91737C48.2678 5.66616 48.1891 5.41496 48.1103 5.66616C48.0316 5.66616 47.9529 5.66616 47.9135 5.41496C47.9922 5.41496 48.1103 5.41496 48.1891 5.41496C48.2678 5.41496 48.3859 5.41496 48.4646 5.66616C48.4253 5.66616 48.4253 5.91737 48.3465 5.66616ZM48.4646 6.16857H48.4253C48.4253 6.16857 48.4253 6.16857 48.4646 6.16857C48.4253 6.16857 48.4646 6.16857 48.4646 6.16857ZM48.5434 6.41978C48.504 6.41978 48.504 6.41978 48.504 6.16857C48.5434 6.16857 48.5827 6.16857 48.5827 6.16857C48.6221 6.16857 48.6615 6.41978 48.6615 6.41978C48.6615 6.16857 48.5827 6.16857 48.5434 6.41978ZM48.5827 5.66616C48.5434 5.66616 48.4646 5.66616 48.4253 5.41496C48.4646 5.41496 48.5434 5.41496 48.6221 5.41496C48.7402 5.41496 48.7796 5.66616 48.819 5.91737C48.7402 5.91737 48.6615 5.66616 48.5827 5.66616ZM49.2126 5.91737C49.0945 5.66616 49.0158 5.66616 48.8977 5.91737V5.41496C49.0158 5.41496 49.1339 5.41496 49.252 5.41496C49.3701 5.41496 49.4882 5.41496 49.6063 5.66616C49.4882 6.16857 49.3307 6.16857 49.2126 5.91737ZM49.8031 5.91737C49.7638 5.91737 49.7244 5.91737 49.6457 5.91737C49.6457 5.91737 49.6457 5.66616 49.7244 5.66616C49.8031 5.91737 49.8031 5.91737 49.8031 5.91737ZM49.9606 5.91737H49.9212V5.66616L49.9606 5.91737ZM50.7873 5.41496C50.6692 5.41496 50.5905 5.16375 50.4724 4.91255C50.5905 4.91255 50.7086 4.91255 50.8267 4.91255C50.9448 4.91255 51.0629 5.16375 51.181 5.16375C51.0629 5.66616 50.9448 5.66616 50.7873 5.41496Z" fill="#F6CD45"/>
    </svg>
    