<svg width="216" height="67" viewBox="0 0 216 67" fill="none" xmlns="http://www.w3.org/2000/svg">
<path d="M0.586679 39.3377C0.820525 41.1899 1.37787 42.9868 2.23377 44.6468C2.34006 44.8427 2.21713 45.1579 2.31326 45.364C3.63314 48.3486 5.3856 51.1233 7.51425 53.5976C7.62239 53.7002 7.7407 53.7936 7.8664 53.874L7.95513 53.7825C7.90707 53.6919 7.85346 53.605 7.79615 53.5209C6.33485 51.6437 5.15268 49.564 4.28939 47.3476C4.2746 47.2699 4.2441 47.196 4.19974 47.1304C3.403 46.3734 3.39098 45.34 3.20797 44.3658C3.19503 44.3029 3.17285 44.2429 3.14142 44.1883C2.62289 43.1346 2.27906 42.0042 2.12193 40.8405C2.09327 40.652 2.13672 40.4597 2.24393 40.3017C2.41585 41.0605 2.58223 41.8212 2.76431 42.5773C2.83364 42.8906 2.92884 43.1975 3.04899 43.4951C3.85775 45.3927 4.39753 47.4002 5.48358 49.1888C6.53265 50.9939 7.73515 52.7057 9.08 54.3038C9.26023 54.4572 9.46266 54.5829 9.67894 54.6772C9.73532 54.7031 9.78893 54.7354 9.83792 54.7733C10.4313 55.3538 11.0339 55.9287 11.6089 56.5267C11.7632 56.6857 11.8233 56.9352 11.973 57.1025C12.1588 57.2855 12.3594 57.4538 12.572 57.6044C14.1442 58.8772 15.856 59.9678 17.6731 60.8561C17.7637 60.9041 17.8672 60.9208 17.968 60.9005C17.8682 60.821 17.772 60.7341 17.6694 60.6574C16.2627 59.588 14.9853 58.3568 13.8632 56.9907C13.0286 55.9999 12.047 55.1347 11.1476 54.2012C10.2178 53.3869 9.38409 52.47 8.66222 51.4662C6.39585 47.5962 3.9927 43.7752 2.74213 39.4079C2.46114 38.3875 2.26242 37.3458 2.14873 36.294C1.98976 34.9103 1.93245 33.5146 1.82985 32.1236C1.82523 32.0552 1.7975 31.9914 1.75036 31.9415C1.66348 32.3639 1.23831 32.6587 1.352 33.1643C1.36494 33.2225 1.07193 33.4397 0.939758 33.424C0.36947 33.3566 0.208643 33.1486 0.176293 32.5709C0.170747 32.4757 0.176293 32.3796 0.176293 32.3408C0.424003 32.3288 0.668017 32.2696 0.893544 32.167C1.01648 32.0773 0.998913 31.7936 1.04143 31.5967C1.09966 31.2584 1.19486 30.9275 1.32334 30.6096C1.27066 30.3924 1.11445 30.2038 1.43518 29.9413C1.54424 29.8526 1.39636 29.4172 1.32519 29.151C1.2725 28.9523 1.12462 28.7795 1.0747 28.5807C1.05622 28.4329 1.07748 28.2831 1.13571 28.1463C1.22167 27.8885 1.43611 27.6306 1.4167 27.3866C1.35015 25.5223 1.79473 23.6755 2.70146 22.046C3.31981 20.7788 3.90211 19.4959 4.50013 18.2204C4.51862 18.176 4.5408 18.1326 4.56668 18.0919C6.39031 15.2155 8.51618 12.5415 10.9082 10.1162C12.1413 8.93956 13.5157 7.92284 15.001 7.08728C15.1138 7.02812 15.221 6.95695 15.3199 6.87653C17.7415 4.9383 20.4451 3.38179 23.3381 2.2634C26.1138 1.06737 29.0863 0.395402 32.106 0.279866C34.1477 0.103326 36.2015 0.103326 38.2433 0.279866C41.9441 0.786377 45.5036 2.03603 48.7081 3.95393C50.1176 4.78025 51.4394 5.75259 52.8083 6.64916C53.1558 6.87746 53.5255 7.06972 53.886 7.28045C57.7662 9.53572 60.991 12.7633 63.2426 16.6454C63.8868 17.6436 64.4663 18.6816 64.9784 19.7538C66.3325 22.5923 67.2383 25.6239 67.6626 28.7407C67.9019 31.2778 68.0674 33.8289 68.1044 36.3762C68.0526 39.5456 67.4444 42.6808 66.3094 45.6404C65.6504 47.4908 64.8703 49.295 63.9737 51.0429C63.0605 52.6669 61.9606 54.1781 60.6952 55.5451C58.3836 58.4733 55.4832 60.8829 52.1816 62.6196C48.8347 64.2658 45.2438 65.3546 41.5485 65.8491C38.3847 66.3159 35.1783 66.4166 31.9913 66.1495C29.1223 65.9212 26.306 65.2437 23.6468 64.1429C23.5461 64.0911 23.4389 64.0523 23.328 64.0292C21.5431 63.6641 19.8193 63.0494 18.2065 62.2028C16.0944 61.2794 14.3716 59.7562 12.4306 58.5805C10.2196 57.1478 8.25923 55.363 6.626 53.2963C4.91976 51.2832 3.5666 48.9965 2.62197 46.5323C2.59332 46.4575 2.58685 46.3604 2.53509 46.3096C1.73835 45.5369 1.71339 44.4887 1.51836 43.4997C1.49988 43.4082 1.43333 43.3278 1.4056 43.2363C1.06731 42.0865 0.728096 40.9367 0.406442 39.7822C0.381486 39.6944 0.488704 39.5697 0.586679 39.3377ZM65.6929 25.9853C65.6929 26.0473 65.6929 26.1101 65.7021 26.172C65.9147 28.1482 66.2262 30.1197 66.3112 32.1014C66.3907 33.876 66.1633 35.6599 66.1606 37.4419C66.1541 41.543 63.3008 50.0437 59.7127 53.8989C58.9955 54.667 58.3189 55.4712 57.6904 56.1819L58.2431 56.9787L58.0037 56.7393C58.733 56.266 59.4142 55.7207 60.0371 55.1135C61.8534 52.946 63.4127 50.5752 64.6836 48.0482C65.8944 45.6922 66.644 43.1272 66.8926 40.4893C67.0886 38.4309 67.2207 36.3651 67.3067 34.3003C67.339 33.5091 67.0978 32.7059 67.0978 31.9091C66.9841 29.8664 66.509 27.8607 65.6929 25.9853ZM27.3671 1.69773L27.3745 1.87612C27.5168 1.86965 27.6592 1.85856 27.8006 1.85671C28.8571 1.84377 29.9145 1.81327 30.9709 1.82529C32.5884 1.84192 34.205 1.92233 35.8207 1.90939C37.3753 1.80957 38.9356 1.93435 40.4542 2.28188C42.6059 2.89931 44.7586 3.5574 46.9057 4.19516C47.0065 4.22474 47.11 4.24508 47.2117 4.27003C46.8318 3.96687 46.4297 3.69327 46.0082 3.45111C45.2873 2.99636 44.4711 2.71445 43.6226 2.62849C43.2954 2.59984 42.9608 2.53514 42.6318 2.48615C41.5763 2.32255 40.5309 2.10257 39.4984 1.82898C37.2774 1.16626 34.9583 0.890827 32.6439 1.01561C30.8785 1.17458 29.1251 1.46943 27.3671 1.69773ZM19.4339 6.08719C19.0355 6.08719 18.5216 6.08164 18.0077 6.09274C17.9181 6.11307 17.8358 6.15651 17.7683 6.21844C16.8265 6.88393 15.8957 7.56698 14.9419 8.21676C13.6303 9.1161 12.4851 10.2354 11.5553 11.5257C11.3306 11.8363 11.0866 12.133 10.8241 12.4121C9.22326 14.0611 7.85254 15.9189 6.74893 17.9338C6.67499 18.0734 6.60752 18.2157 6.53727 18.3581C7.46618 17.1611 8.34241 15.9281 9.24914 14.7247C11.2872 11.8871 13.9048 9.51539 16.9291 7.76663C17.8469 7.2592 18.6806 6.59925 19.4321 6.09089L19.4339 6.08719ZM57.5221 57.7042C57.1654 57.2264 56.9056 57.4223 56.645 57.6895C56.486 57.8484 56.3344 58.0841 56.1449 58.1211C55.5774 58.2348 55.277 58.709 54.8454 58.9983C54.704 59.0935 54.6661 59.3412 54.581 59.5186L54.6707 59.587L57.5221 57.7042ZM2.49996 26.5399L4.13226 21.326C3.95942 21.5894 3.6276 22.0931 3.29948 22.6015C3.26898 22.6551 3.24957 22.7133 3.24125 22.7734C3.11554 23.4463 2.99816 24.1192 2.86691 24.7912C2.74305 25.4104 2.60441 26.0325 2.49904 26.539L2.49996 26.5399ZM63.2814 18.433L64.2445 20.5348C64.5273 20.3065 64.1086 19.3563 63.2805 18.4311L63.2814 18.433ZM2.85859 30.9137C3.2015 30.7759 3.21906 30.4266 2.90203 29.957L2.85859 30.9137Z" fill="#F6CD45"/>
<path d="M0.421832 39.0993C0.356207 39.0022 0.307217 38.8941 0.278564 38.7804C0.260079 38.431 0.309067 38.0761 0.263777 37.7323C0.209244 37.3237 0.0632046 36.9272 0.00220133 36.5196C-0.0181331 36.3874 0.107572 36.2331 0.166727 36.0889L0.297051 36.1268L0.525352 39.0438L0.421832 39.0993Z" fill="#F6CD45"/>
<path d="M2.09743 38.8379C1.96341 38.2167 1.40328 37.6418 1.82384 37.0152L1.97265 37.0068L2.09743 38.8379Z" fill="#F6CD45"/>
<path d="M19.5508 38.8487C21.671 39.6988 23.1972 39.6988 24.1295 38.8487C25.5279 37.5734 24.3212 33.7029 26.2798 32.6355C28.2382 31.5681 31.2222 36.2997 34.0112 34.7428C36.8001 33.1859 33.7484 29.0343 35.6838 27.3513C37.6193 25.6682 40.136 27.5664 40.5759 24.7522C41.0158 21.938 38.5233 23.1585 38.0451 20.4992C37.7262 18.7263 37.7262 17.7941 38.0451 17.7024M38.0961 48.8094C36.5864 47.2644 36.0429 45.8282 36.4656 44.5008C37.0998 42.5098 38.1458 42.6275 38.6019 41.3965C39.0579 40.1653 37.7696 38.412 40.6283 36.9131C42.5341 35.9138 45.1544 37.0716 48.4893 40.3865M34.0508 49.3328C42.9487 49.3328 50.1619 42.1196 50.1619 33.2217C50.1619 24.3237 42.9487 17.1106 34.0508 17.1106C25.1529 17.1106 17.9397 24.3237 17.9397 33.2217C17.9397 42.1196 25.1529 49.3328 34.0508 49.3328Z" stroke="black" stroke-width="2" stroke-linecap="round"/>
<path d="M90.982 45.3299H85.926L88.0109 32.8306H82.6669L83.4567 28.096H88.8007L89.8695 21.6885H85.2295L86.0192 16.9539H100.227L99.4375 21.6885H94.9255L93.8567 28.096H98.8807L98.0909 32.8306H93.0669L90.982 45.3299ZM109.377 16.007H114.337L110.373 39.7746C110.064 41.6264 109.505 42.931 108.696 43.6885C107.89 44.425 106.616 44.8354 104.874 44.9195C102.361 45.0247 100.389 45.0773 98.9601 45.0773C98.9998 43.6885 98.9695 42.0156 98.8692 40.0587C100.629 40.1218 102.16 40.1534 103.461 40.1534C104.272 40.1534 104.816 40.0271 105.093 39.7746C105.345 39.5431 105.537 39.0276 105.671 38.228L109.377 16.007ZM103.258 37.3442H98.426L101.438 19.2896H106.27L103.258 37.3442ZM142.899 38.9224C142.515 40.8373 141.891 42.2156 141.025 43.0573C140.131 43.941 138.809 44.4461 137.06 44.5723C135.873 44.6565 134.437 44.6986 132.751 44.6986C132.721 43.8569 132.642 42.6048 132.514 40.9425C131.297 42.0998 129.504 43.5097 127.136 45.172C126.07 43.7622 125.051 42.5207 124.078 41.4475C127.795 39.238 130.605 36.9128 132.505 34.4719C134.434 31.9888 136.043 28.6115 137.331 24.3399H136.243C135.219 27.4121 134.083 29.8741 132.835 31.7258C131.644 33.4934 129.933 35.3136 127.7 37.1864L126.15 35.3557C125.713 35.4188 125.075 35.5345 124.236 35.7029L122.619 45.393H118.011L119.475 36.6182C117.997 36.9128 116.348 37.2705 114.528 37.6914L115.093 32.3887C115.288 32.3676 117.028 32.1046 120.312 31.5996L121.197 26.2968H119.629C119.339 27.2648 118.935 28.4747 118.415 29.9267C117.081 29.4848 116.106 29.1902 115.491 29.0429C116.491 26.3705 117.502 22.7406 118.523 18.1533L121.772 18.4374C121.486 19.6368 121.201 20.7731 120.915 21.8463H121.939L122.966 15.6914H127.574L126.547 21.8463H128.115L127.862 23.3614C129.866 21.0677 131.503 18.4795 132.774 15.5967L137.107 16.6698C136.398 17.9745 135.793 19.0476 135.29 19.8894H146.714C145.183 27.5278 143.912 33.8722 142.899 38.9224ZM140.403 24.3399C139.392 28.4853 138.403 31.6627 137.437 33.8722C136.401 36.25 135.041 38.3227 133.36 40.0903C134.256 40.0903 135.152 40.0903 136.048 40.0903C136.837 40.0903 137.42 39.9219 137.796 39.5852C138.172 39.2485 138.448 38.6804 138.625 37.8808C139.491 34.0931 140.447 29.5795 141.491 24.3399H140.403ZM126.741 32.3887C129.598 30.2213 131.72 27.5383 133.107 24.3399H132.275C131.02 25.9812 129.765 27.4331 128.509 28.6957C127.963 27.875 127.424 27.0754 126.893 26.2968H125.805L125.041 30.8736C125.72 30.7684 126.401 30.6526 127.083 30.5264C127.009 30.842 126.895 31.4628 126.741 32.3887ZM150.892 18.6268H163.116C163.087 18.2901 162.971 17.3853 162.769 15.9123L168.806 15.5967C168.872 16.6067 168.927 17.6168 168.972 18.6268H179.692L178.945 23.1089H170.337L174.036 24.7186C173.121 25.7287 172.136 26.7703 171.083 27.8435H177.419L176.676 32.294H155.524L155.303 33.6197C154.903 36.0185 154.307 38.0596 153.514 39.743C152.682 41.5317 151.362 43.4992 149.553 45.6455C148.104 44.4882 146.777 43.4886 145.574 42.6469C147.038 41.0266 148.107 39.5431 148.78 38.1964C149.424 36.8918 149.913 35.2399 150.246 33.2409L151.147 27.8435H156.875C156.607 27.4016 155.974 26.402 154.975 24.8449L158.305 23.1089H150.145L150.892 18.6268ZM162.317 26.4862L159.755 27.8435H165.483C166.196 27.0228 167.43 25.4446 169.185 23.1089H160.001C160.625 23.9716 161.397 25.0974 162.317 26.4862ZM186.105 17.017H208.985L207.016 28.8219H184.136L186.105 17.017ZM193.718 45.2352L196.14 30.7158H209.26L206.859 45.1089H202.315L202.536 43.7832H198.504L198.262 45.2352H193.718ZM178.806 45.2352L181.228 30.7158H194.124L191.702 45.2352H187.158L187.4 43.7832H183.592L183.35 45.2352H178.806ZM190.1 24.5292H202.484L203.015 21.3413H190.631L190.1 24.5292ZM199.989 34.8822L199.199 39.6168H203.231L204.021 34.8822H199.989ZM185.077 34.8822L184.287 39.6168H188.095L188.885 34.8822H185.077Z" fill="black"/>
<g clip-path="url(#clip0_4270_32905)">
<path d="M162.38 59.5921L162.588 59.8433C162.692 59.5921 162.588 59.3409 162.38 59.5921Z" fill="black"/>
<path d="M162.899 58.8384C162.795 58.8384 162.795 58.8384 162.795 59.0896C162.899 59.0896 162.899 59.0896 163.003 59.0896C163.003 59.0896 163.003 58.8384 162.899 58.8384Z" fill="black"/>
<path d="M161.861 59.592C161.861 59.592 161.965 59.8432 162.069 59.8432C162.173 59.8432 162.277 59.8432 162.173 59.592H161.861Z" fill="black"/>
<path d="M149.823 60.0945C149.916 60.0945 149.916 60.0945 149.916 59.8433C149.823 60.0945 149.823 60.0945 149.823 60.0945Z" fill="black"/>
<path d="M164.144 59.8432C164.248 59.8432 164.352 59.8432 164.352 59.592C164.248 59.592 164.144 59.592 164.144 59.8432Z" fill="black"/>
<path d="M159.993 59.5921C159.786 59.3409 159.578 59.5921 159.474 59.8433C159.682 59.8433 159.889 59.8433 160.097 59.8433C160.304 59.8433 160.512 59.8433 160.616 59.5921C160.408 59.8433 160.201 59.8433 159.993 59.5921Z" fill="black"/>
<path d="M166.428 59.0896C166.324 59.0896 166.22 59.0896 166.22 59.0896C166.324 59.3408 166.428 59.3408 166.428 59.0896Z" fill="black"/>
<path d="M149.408 60.0945C149.501 60.0945 149.501 60.0945 149.408 60.0945C149.501 60.0945 149.501 60.0945 149.501 59.8433C149.501 60.0945 149.501 60.0945 149.408 60.0945Z" fill="black"/>
<path d="M174.522 59.8432C174.522 59.592 174.594 59.592 174.522 59.8432C174.522 59.592 174.522 59.592 174.522 59.8432Z" fill="black"/>
<path d="M173.692 59.592C173.484 59.592 173.484 59.592 173.484 59.8432C173.588 59.8432 173.692 59.8432 173.796 59.8432C173.9 59.592 173.796 59.592 173.692 59.592Z" fill="black"/>
<path d="M172.031 59.8432C172.239 60.0944 172.343 60.0944 172.343 59.8432C172.135 59.592 172.031 59.592 172.031 59.8432Z" fill="black"/>
<path d="M170.267 59.8432C170.371 60.0944 170.578 59.8432 170.682 59.8432C170.578 59.8432 170.474 59.8432 170.371 59.8432C170.371 59.592 170.267 59.592 170.267 59.8432Z" fill="black"/>
<path d="M171.201 59.8432C171.305 59.8432 171.305 59.8432 171.409 59.8432C171.513 59.8432 171.513 59.8432 171.513 59.592C171.513 59.592 171.409 59.592 171.201 59.8432C171.201 59.592 171.201 59.592 171.201 59.8432Z" fill="black"/>
<path d="M134.142 60.8479C134.142 60.8479 134.05 60.8479 134.05 61.0991C134.05 60.8479 134.142 60.8479 134.142 60.8479C134.142 61.0991 134.142 61.0991 134.142 60.8479Z" fill="black"/>
<path d="M170.889 55.5727C171.201 55.5727 171.512 55.8239 171.823 55.8239C172.135 55.8239 172.342 55.8239 172.55 55.5727C172.757 55.8239 172.861 55.8239 173.069 55.8239C173.795 55.5727 174.522 55.5727 175.248 55.5727C175.974 55.5727 176.701 55.5727 177.427 55.5727C177.531 55.5727 177.531 55.5727 177.635 55.8239C177.635 55.8239 177.739 55.8239 177.739 56.0751C178.154 55.8239 178.569 55.5727 178.984 55.8239C179.399 56.0751 179.71 56.0751 180.125 55.5727C178.361 55.3215 176.805 55.3215 175.352 55.3215C173.899 55.5727 172.446 55.5727 170.889 55.5727C170.786 55.5727 170.786 55.5727 170.889 55.5727Z" fill="black"/>
<path d="M169.748 56.075C169.852 56.075 170.059 56.075 170.163 56.075C170.267 56.075 170.474 56.075 170.578 56.075C170.578 56.075 170.578 55.8238 170.682 55.8238V55.5726C170.474 55.5726 170.371 55.5726 170.267 55.5726C170.163 55.8238 170.059 55.8238 169.956 55.8238C170.059 55.8238 170.059 55.5726 170.059 55.5726C170.059 55.5726 169.956 55.3214 169.852 55.5726C169.748 55.5726 169.748 55.8238 169.852 55.8238C169.852 55.8238 169.852 55.8238 169.748 56.075Z" fill="black"/>
<path d="M176.805 58.8384C176.805 59.0896 176.805 59.3408 176.909 59.3408C176.909 59.0896 176.909 59.0896 177.013 58.8384C177.013 58.8384 176.909 58.8384 176.805 58.8384Z" fill="black"/>
<path d="M181.059 55.824C181.059 55.5728 181.059 55.5728 181.059 55.824C180.956 55.5728 180.956 55.5728 180.956 55.5728C180.956 55.5728 180.748 55.824 180.541 55.5728C180.333 55.5728 180.229 55.5728 180.229 55.824C180.333 56.0752 180.541 56.0752 180.644 56.0752C180.852 55.824 180.956 55.824 181.059 55.824Z" fill="black"/>
<path d="M141.406 60.5967H141.314V60.8479H141.406V60.5967Z" fill="black"/>
<path d="M134.257 60.8479C134.465 60.8479 134.672 60.8479 134.672 60.5967C134.568 60.8479 134.465 60.8479 134.257 60.8479C134.257 60.8479 134.257 60.5967 134.257 60.8479Z" fill="black"/>
<path d="M139.757 60.8479H139.965V60.5967H139.757V60.8479Z" fill="black"/>
<path d="M144.738 60.0945C144.946 60.3457 145.051 60.0945 145.051 59.8433C144.946 59.8433 144.946 59.8433 144.842 59.8433C144.842 60.0945 144.738 60.0945 144.738 60.0945Z" fill="black"/>
<path d="M140.587 56.8286C140.587 57.0798 140.587 57.0798 140.691 57.0798C140.691 56.8286 140.691 56.8286 140.899 56.8286C141.106 56.8286 141.106 56.8286 141.106 56.5774C140.691 56.5774 140.172 56.5774 139.653 56.5774C139.135 56.5774 138.616 56.5774 138.201 56.8286V57.0798C138.927 57.331 139.757 57.0798 140.587 56.8286Z" fill="black"/>
<path d="M131.248 60.8479C131.144 60.8479 131.04 60.8479 131.04 61.0991C131.144 61.0991 131.248 61.3503 131.352 61.3503C131.456 61.0991 131.352 60.8479 131.248 60.8479Z" fill="black"/>
<path d="M142.04 57.08C141.936 56.8288 141.936 56.8288 142.04 57.08C142.248 56.8288 142.248 56.8288 142.144 56.5776C142.04 56.3264 141.936 56.3264 141.729 56.3264C141.521 56.3264 141.418 56.5776 141.314 56.5776C141.418 56.8288 141.521 56.8288 141.625 56.8288C141.729 56.8288 141.936 56.8288 142.04 57.08Z" fill="black"/>
<path d="M142.559 56.8288C142.663 56.8288 142.767 56.8288 142.87 57.08C143.389 56.8288 143.804 56.8288 144.323 57.08L144.531 56.8288C144.635 56.8288 144.738 56.5776 144.842 56.5776C145.672 56.5776 146.503 56.8288 147.333 56.8288C148.163 56.8288 149.097 56.8288 150.135 56.8288C150.135 56.8288 150.238 56.8288 150.238 56.5776C150.238 56.5776 150.238 56.3264 150.342 56.3264C150.757 56.3264 151.069 56.5776 151.276 56.5776C151.484 56.5776 151.691 56.5776 151.899 56.3264C152.314 56.5776 152.729 56.5776 153.144 56.5776C153.559 56.3264 153.871 56.3264 154.286 56.3264C154.182 56.5776 154.286 56.5776 154.493 56.5776C154.597 56.3264 154.804 56.3264 154.908 56.3264C155.012 56.3264 155.012 56.3264 155.012 56.5776L155.116 56.8288C155.946 56.8288 156.569 56.8288 157.191 56.8288C157.814 56.8288 158.437 56.8288 159.059 56.8288C159.163 56.5776 159.267 56.5776 159.267 56.5776L159.474 56.8288C159.682 56.5776 159.993 56.3264 160.201 56.5776C160.408 56.8288 160.72 56.5776 160.927 56.3264C161.135 56.5776 161.342 56.8288 161.55 56.8288C161.757 56.8288 162.069 56.8288 162.276 56.8288C162.588 56.8288 162.795 56.8288 163.003 56.5776C163.21 56.5776 163.418 56.5776 163.729 56.8288C163.729 56.5776 163.729 56.5776 163.729 56.5776L163.833 56.8288C163.937 56.5776 164.04 56.3264 164.352 56.5776C164.559 56.5776 164.767 56.8288 164.871 56.8288C164.974 56.5776 165.182 56.5776 165.286 56.5776C165.493 56.5776 165.597 56.5776 165.805 56.8288C165.805 56.5776 165.805 56.5776 165.908 56.5776C166.22 56.8288 166.531 57.08 166.842 56.8288C167.154 56.8288 167.465 56.8288 167.776 56.8288C167.776 56.5776 167.776 56.5776 167.88 56.5776C168.088 56.8288 168.399 56.8288 168.606 56.5776C168.814 56.5776 169.125 56.5776 169.333 56.5776C169.022 56.0752 168.606 56.0752 168.295 56.3264C167.88 56.5776 167.465 56.5776 167.05 56.3264C166.22 56.3264 165.389 56.5776 164.456 56.5776C163.522 56.5776 162.588 56.5776 161.654 56.5776C161.654 56.5776 161.654 56.8288 161.757 56.8288C161.861 56.8288 161.861 56.8288 161.654 57.08C161.446 56.8288 161.239 56.8288 161.031 56.5776C160.823 56.5776 160.512 56.5776 160.305 56.8288C158.748 56.8288 157.191 56.8288 155.842 56.8288C154.493 56.8288 152.937 57.08 151.484 57.08C151.069 57.3312 150.654 57.3312 150.342 57.08C149.927 56.8288 149.616 57.08 149.201 57.3312C148.267 57.3312 147.333 57.3312 146.503 57.3312C145.672 57.3312 144.738 57.5824 143.804 57.5824C143.597 57.5824 143.389 57.5824 142.974 57.3312C142.663 57.3312 142.352 57.3312 142.04 57.5824C142.352 56.8288 142.455 56.8288 142.559 56.8288Z" fill="black"/>
<path d="M164.455 57.5823H165.182C165.389 57.5823 165.597 57.5823 165.805 57.5823C165.701 57.3311 165.493 57.3311 165.078 57.3311C164.663 57.0799 164.455 57.3311 164.455 57.5823Z" fill="black"/>
<path d="M186.041 57.8334C186.248 57.8334 186.456 57.8334 186.559 58.0846C186.767 58.0846 186.871 58.0846 186.975 57.8334C186.767 57.8334 186.663 57.8334 186.456 57.8334C186.352 57.5822 186.144 57.5822 186.041 57.8334Z" fill="black"/>
<path d="M182.201 57.5823C182.305 57.5823 182.409 57.5823 182.409 57.3311H181.993C181.993 57.5823 182.097 57.5823 182.201 57.5823Z" fill="black"/>
<path d="M184.692 57.5824C184.692 57.8337 184.795 58.0849 185.107 57.8337C185.314 57.8337 185.522 57.5824 185.625 57.5824C185.522 57.3312 185.314 57.3312 185.107 57.5824C185.003 57.5824 184.899 57.5824 184.692 57.5824Z" fill="black"/>
<path d="M177.946 57.3311C177.946 57.5823 177.946 57.5823 178.05 57.5823C178.154 57.5823 178.258 57.5823 178.258 57.5823C178.363 57.3311 178.258 57.3311 177.946 57.3311Z" fill="black"/>
<path d="M181.371 57.3311C181.371 57.5823 181.371 57.5823 181.474 57.5823H181.786C181.89 57.3311 181.682 57.3311 181.371 57.3311Z" fill="black"/>
<path d="M179.814 57.3312C179.399 57.08 178.88 57.3312 178.569 57.8336C179.088 57.8336 179.503 57.5824 180.022 57.8336C180.437 57.8336 180.956 57.8336 181.371 57.5824C180.852 57.3312 180.333 57.3312 179.814 57.3312Z" fill="black"/>
<path d="M203.579 59.0896C203.475 59.0896 203.371 59.0896 203.371 59.0896C203.267 59.0896 203.267 59.3408 203.267 59.3408C203.267 59.592 203.475 59.3408 203.579 59.0896Z" fill="black"/>
<path d="M190.71 57.8335C190.607 57.5823 190.399 57.5823 190.295 57.8335C190.607 57.8335 191.022 58.0847 191.437 58.0847C191.852 58.0847 192.163 58.0847 192.578 57.8335C192.371 57.8335 192.06 57.8335 191.852 57.8335C191.748 57.8335 191.437 57.8335 190.918 57.5823C190.918 57.8335 190.918 58.0847 190.71 57.8335Z" fill="black"/>
<path d="M214.264 60.848C214.161 60.5968 214.057 60.3456 213.953 60.3456C213.953 60.3456 214.057 60.3456 214.057 60.0944C214.057 60.0944 214.057 60.0944 214.057 59.8432C214.057 59.8432 214.057 59.592 213.953 59.592C213.849 59.592 213.849 59.592 213.849 59.3408C212.812 59.0896 211.774 58.5872 210.632 58.3359C209.491 58.0847 208.246 57.8335 207 57.5823C205.755 57.3311 204.51 57.0799 203.368 57.0799L200.047 56.5775C199.632 56.5775 199.321 56.3263 199.01 56.3263C198.698 56.3263 198.387 56.3263 198.179 56.5775C197.661 56.3263 197.038 56.0751 196.415 56.0751C195.689 56.0751 194.962 56.0751 194.236 56.0751C193.302 55.8239 192.472 55.5727 191.538 55.5727C190.604 55.5727 189.566 55.5727 188.632 55.3215C188.528 55.3215 188.528 55.3215 188.425 55.5727C188.321 55.5727 188.217 55.5727 188.217 55.5727L188.321 55.3215C187.698 55.3215 187.076 55.0703 186.453 55.0703C185.934 54.8191 185.311 55.0703 184.792 55.3215C184.689 55.0703 184.689 55.0703 184.585 55.0703C184.481 55.0703 184.377 55.0703 184.274 54.8191C184.066 54.8191 183.755 54.8191 183.547 54.8191C183.236 54.8191 183.028 54.8191 182.717 54.8191C182.509 54.8191 182.198 54.8191 181.991 54.5679C181.679 54.5679 181.472 54.5679 181.472 55.0703C182.198 54.8191 182.821 54.8191 183.547 54.8191C184.274 55.0703 184.896 55.0703 185.623 55.0703C185.726 55.0703 185.726 55.0703 185.726 55.3215C185.726 55.3215 185.726 55.5727 185.83 55.5727C185.934 55.5727 185.934 55.3215 185.934 55.3215C185.934 55.3215 185.934 55.3215 186.038 55.3215C186.453 55.5727 186.868 55.5727 187.283 55.3215C187.698 55.0703 188.009 55.3215 188.321 55.5727C188.84 55.5727 189.359 55.5727 189.877 55.5727C190.396 55.5727 190.915 55.5727 191.434 55.5727C191.538 55.5727 191.642 55.5727 191.642 55.5727C191.745 55.5727 191.849 55.8239 191.849 55.8239C191.953 55.8239 192.057 55.8239 192.057 55.8239C192.16 55.8239 192.264 55.8239 192.472 55.8239C192.576 55.8239 192.783 55.8239 192.887 56.0751C193.094 56.0751 193.198 56.0751 193.406 56.0751C193.51 56.0751 193.613 55.8239 193.717 55.8239C193.821 55.8239 193.925 55.8239 194.028 55.5727C194.132 55.5727 194.236 55.5727 194.34 55.8239C194.444 55.8239 194.547 56.0751 194.651 56.0751C194.859 56.0751 195.17 56.0751 195.377 56.0751C195.689 56.0751 196 56.0751 196.208 56.0751C196.415 56.0751 196.623 56.0751 196.934 56.0751C197.142 56.0751 197.349 56.0751 197.453 56.0751C197.557 56.0751 197.557 56.0751 197.557 56.3263C197.557 56.5775 197.557 56.5775 197.661 56.3263C197.972 56.0751 198.283 56.0751 198.698 56.3263C199.113 56.5775 199.425 56.5775 199.84 56.8287L200.047 56.5775C200.774 56.8287 201.5 57.0799 202.227 57.0799C202.953 57.0799 203.783 57.3311 204.51 57.5823C205.132 57.5823 205.859 57.5823 206.689 57.5823C207.415 57.5823 208.142 57.8335 208.868 58.3359C209.18 58.0847 209.595 58.0847 209.906 58.3359C210.217 58.5872 210.425 58.5872 210.736 58.8384C210.217 58.8384 209.698 58.8384 209.179 58.8384C208.661 58.8384 208.246 58.5872 207.727 58.3359C207.104 58.3359 206.481 58.3359 205.859 58.0847C205.236 57.8335 204.613 57.8335 203.991 57.8335C203.887 57.5823 203.887 57.5823 203.783 57.5823C203.679 57.5823 203.679 57.5823 203.679 57.3311C203.576 57.3311 203.472 57.3311 203.472 57.3311C203.472 57.5823 203.368 57.5823 203.368 57.5823C203.161 57.3311 202.849 57.0799 202.642 57.3311C202.33 57.3311 202.123 57.3311 201.915 57.3311C201.396 57.3311 200.774 57.3311 200.255 57.0799C199.736 56.8287 199.113 56.8287 198.594 56.8287C197.245 56.8287 195.793 56.5775 194.34 56.5775C192.887 56.5775 191.434 56.3263 189.877 56.3263C189.566 56.3263 189.255 56.0751 189.047 56.0751C188.736 56.0751 188.425 56.0751 188.217 56.3263C187.491 56.0751 186.66 56.0751 185.934 56.0751C185.208 56.0751 184.481 56.0751 183.755 55.8239C183.028 55.8239 182.406 55.8239 181.679 55.8239C180.953 55.8239 180.33 55.8239 179.604 55.5727C178.774 55.5727 177.943 55.5727 177.217 55.5727C176.491 55.5727 175.66 55.5727 174.934 55.5727C174.207 55.5727 173.481 55.3215 172.651 55.5727C171.821 55.5727 170.99 55.5727 170.264 55.5727C169.33 55.5727 168.5 55.5727 167.566 55.3215C166.736 55.3215 165.802 55.3215 164.868 55.5727C164.66 55.5727 164.349 55.5727 164.038 55.5727C163.726 55.5727 163.415 55.5727 163.104 55.5727C162.896 55.5727 162.689 55.5727 162.481 55.5727C162.273 55.5727 162.17 55.5727 161.962 55.5727C161.132 55.5727 160.198 55.3215 159.264 55.3215C158.33 55.3215 157.292 55.3215 156.255 55.5727L153.245 55.8239C152.207 55.8239 151.273 56.0751 150.339 56.0751C149.094 56.0751 147.849 56.0751 146.707 56.0751C145.462 56.0751 144.32 56.0751 143.075 56.3263C141.519 56.3263 139.858 56.3263 138.198 56.5775C136.537 56.8287 134.877 56.8287 133.217 56.8287C133.32 56.5775 133.424 56.5775 133.424 56.5775C133.528 56.5775 133.632 56.5775 133.632 56.3263C133.839 56.5775 134.047 56.8287 134.358 56.5775C134.669 56.3263 134.981 56.3263 135.188 56.5775C135.188 56.5775 135.188 56.3263 135.085 56.3263C135.085 56.3263 135.085 56.3263 135.188 56.0751C135.396 56.0751 135.707 56.0751 135.915 56.0751C136.226 56.0751 136.434 56.0751 136.849 56.0751C136.849 55.8239 136.952 55.8239 137.056 55.8239C137.16 55.8239 137.264 55.8239 137.368 55.8239C137.471 55.8239 137.575 55.8239 137.679 55.8239C137.783 55.8239 137.783 55.5727 137.783 55.5727C136.849 55.5727 135.811 55.8239 134.669 55.8239C133.528 55.8239 132.386 56.0751 131.245 56.3263C131.141 56.3263 131.141 56.3263 131.141 56.0751C131.141 56.0751 131.037 56.0751 130.934 56.0751C130.103 56.3263 129.273 56.3263 128.443 56.3263C127.613 56.3263 126.783 56.3263 126.056 56.5775C125.641 56.3263 125.122 56.3263 124.707 56.5775C124.188 56.8287 123.773 56.8287 123.254 56.5775C123.15 56.5775 123.15 56.8287 123.15 56.8287C123.15 56.8287 123.15 57.0799 123.047 57.0799C122.735 56.8287 122.424 56.5775 122.113 56.8287C121.801 57.0799 121.386 57.0799 121.075 56.8287C116.924 57.3311 112.462 57.5823 107.999 57.8335C103.433 58.0847 99.0748 58.0847 94.82 58.0847C92.2256 58.0847 89.735 58.3359 87.2445 58.5872C84.8576 59.0896 82.3671 59.0896 79.7727 59.0896C79.5651 58.8384 79.2538 58.5872 78.9425 58.5872C78.6312 58.8384 78.4236 59.3408 78.3199 60.0944C78.2161 60.5968 78.1123 61.3504 78.1123 61.8528C78.3199 62.6064 78.6312 63.1088 78.9425 63.1088C79.3576 63.3601 79.6689 63.6113 80.084 63.6113H82.0557C82.7822 63.6113 83.5086 63.6113 84.3388 63.6113C84.6501 63.36 84.9614 63.1088 85.2727 63.1088C85.5841 63.1088 85.8954 63.1088 86.3105 63.1088C86.6218 63.1088 87.0369 63.1088 87.3482 63.1088C87.6596 63.1088 88.0747 62.8576 88.386 62.8576C88.8011 63.1088 89.2162 63.1088 89.5275 63.1088C89.9426 63.1088 90.3577 62.8576 90.7728 62.8576C91.1879 62.8576 91.603 62.6064 92.0181 62.6064C92.4332 62.6064 92.9521 62.6064 93.3672 62.6064C93.5747 62.6064 93.7823 62.3552 94.0936 62.3552C95.5464 62.3552 96.8955 62.3552 98.3483 62.104C99.8012 61.8528 101.15 61.8528 102.603 62.104C103.433 61.8528 104.263 61.8528 105.094 61.8528C106.028 61.8528 106.858 61.8528 107.792 62.104C107.896 61.8528 107.999 61.6016 108.311 61.8528C108.622 61.8528 108.83 61.8528 109.141 61.8528C109.141 61.8528 109.141 61.6016 109.037 61.6016C108.933 61.6016 109.037 61.3504 109.141 61.3504C109.245 61.3504 109.348 61.3504 109.245 61.6016C109.245 61.8528 109.245 61.8528 109.452 61.8528C109.452 61.8528 109.452 61.6016 109.348 61.6016C109.245 61.6016 109.245 61.6016 109.452 61.3504C109.66 61.8528 109.971 61.8528 110.179 61.6016C110.49 61.3504 110.801 61.3504 111.009 61.6016C111.009 61.3504 111.009 61.0992 111.216 61.0992C111.32 61.0992 111.424 61.3504 111.424 61.0992C111.528 61.0992 111.631 61.0992 111.839 61.0992C111.839 61.0992 111.839 61.3504 111.735 61.3504C111.631 61.3504 111.631 61.3504 111.631 61.6016C111.839 61.6016 111.943 61.6016 111.943 61.6016C111.943 61.6016 111.943 61.3504 112.047 61.0992C112.15 61.0992 112.15 61.0992 112.15 61.3504C112.047 61.3504 112.15 61.6016 112.15 61.6016C112.669 61.6016 113.188 61.3504 113.603 61.3504C114.018 61.3504 114.433 61.3504 114.848 61.6016C114.952 61.0992 115.16 61.0992 115.367 61.3504C115.367 61.0992 115.471 60.848 115.575 60.848C115.782 60.848 115.782 60.5968 115.679 60.3456C115.886 60.3456 115.886 60.5968 115.782 60.5968C115.679 60.848 115.679 60.848 115.782 61.0992H115.367C115.367 61.3504 115.471 61.6016 115.679 61.3504C115.886 61.0992 115.886 61.0992 115.886 61.0992C115.99 61.3504 116.094 61.3504 116.198 61.0992C116.301 60.848 116.405 60.848 116.509 61.0992C116.405 61.0992 116.405 61.3504 116.405 61.3504C116.405 61.6016 116.509 61.6016 116.509 61.6016C116.509 61.0992 116.716 60.5968 116.924 60.5968C117.028 60.848 117.028 60.848 116.924 60.848C116.82 60.848 116.82 61.0992 116.924 61.0992C117.132 60.848 117.443 60.848 117.65 61.0992C117.65 61.0992 117.65 60.848 117.547 60.848C117.443 60.848 117.547 60.5968 117.65 60.5968C117.754 60.5968 117.858 60.5968 117.754 60.848C117.754 61.0992 117.754 61.0992 117.858 61.0992C117.962 61.0992 118.169 60.848 118.273 60.5968C118.377 60.5968 118.377 60.5968 118.377 60.848C118.377 61.0992 118.377 61.0992 118.481 61.0992C118.688 60.848 118.896 60.848 119.103 60.848C119.311 60.848 119.415 60.848 119.518 61.0992C119.622 60.848 119.83 60.848 119.933 60.848C120.141 60.848 120.349 60.848 120.556 60.848C120.764 60.848 120.971 60.848 121.179 60.848C121.386 60.848 121.49 60.5968 121.698 60.3456V60.5968C121.698 60.5968 121.698 60.5968 121.698 60.848C122.009 60.848 122.216 60.848 122.528 60.848C122.839 60.5968 123.047 60.848 122.943 61.0992C123.047 61.0992 123.15 60.848 123.254 60.5968C123.358 60.3456 123.462 60.3456 123.669 60.0944C123.773 60.0944 123.773 60.3456 123.773 60.5968C123.877 60.5968 124.084 60.5968 124.188 60.5968C124.292 60.5968 124.396 60.5968 124.396 60.848C124.396 60.848 124.5 60.5968 124.5 60.3456C124.5 60.0944 124.5 60.0944 124.603 59.8432C124.707 59.8432 124.811 60.0944 124.707 60.0944C124.707 60.0944 124.707 60.3456 124.811 60.3456C125.122 60.0944 125.433 59.8432 125.745 60.0944C126.056 60.3456 126.367 60.0944 126.575 59.8432V60.0944C126.783 60.0944 126.886 60.0944 126.99 60.0944C127.094 60.0944 127.198 60.0944 127.301 59.8432C127.405 60.0944 127.613 60.3456 127.717 60.3456C127.82 60.3456 127.82 60.0944 127.82 60.0944C127.82 59.8432 127.82 59.8432 128.028 60.0944C127.924 60.0944 127.924 60.3456 127.924 60.3456C128.028 60.3456 128.132 60.3456 128.235 60.3456C128.339 60.3456 128.443 60.3456 128.547 60.3456V60.0944H128.339C128.235 60.0944 128.235 60.0944 128.235 60.0944C128.235 60.0944 128.235 60.0944 128.235 59.8432C128.443 59.8432 128.65 59.8432 128.962 59.8432C129.066 59.8432 129.066 60.0944 129.066 60.0944C128.962 60.0944 129.066 60.3456 129.273 60.3456H129.377L129.481 60.0944C129.688 60.0944 129.688 60.0944 129.688 60.3456C129.688 60.5968 129.688 60.5968 129.792 60.5968C129.896 60.5968 129.896 60.3456 129.896 60.3456C129.896 60.3456 129.896 60.0944 130 60.0944H130.415C130.415 60.3456 130.415 60.3456 130.518 60.5968V60.3456C130.518 60.3456 130.518 60.0944 130.622 60.0944C130.83 60.0944 131.037 60.0944 131.245 60.0944C131.452 59.8432 131.66 60.0944 131.764 60.3456C131.867 60.3456 131.971 60.0944 132.075 59.8432C132.179 59.592 132.283 59.592 132.49 59.592C132.49 59.592 132.594 59.592 132.594 59.8432C132.698 59.8432 132.801 59.8432 132.905 59.592C133.009 59.3408 133.113 59.3408 133.217 59.3408C133.217 59.592 133.217 59.592 133.32 59.592C133.424 59.592 133.424 59.8432 133.32 59.8432C133.632 59.3408 133.943 59.3408 134.254 59.3408C134.566 59.3408 134.981 59.3408 135.292 59.8432C135.292 59.8432 135.292 59.592 135.188 59.592C135.085 59.592 135.085 59.592 135.292 59.3408C135.396 59.592 135.5 59.592 135.707 59.3408C135.811 59.3408 136.018 59.3408 136.122 59.3408C135.915 59.592 135.707 59.592 135.5 59.592C135.707 59.8432 136.018 60.0944 136.226 59.8432C136.434 59.592 136.745 59.8432 136.952 60.0944C137.16 59.8432 137.368 59.592 137.575 59.8432C137.783 60.0944 138.094 60.0944 138.302 59.8432V59.3408C138.094 59.3408 137.886 59.3408 137.575 59.3408C137.471 59.592 137.264 59.3408 137.16 59.0896C137.575 59.0896 137.99 58.8384 138.302 59.0896C138.613 59.0896 138.924 59.0896 139.339 58.8384C139.339 59.0896 139.339 59.0896 139.235 59.0896C139.132 59.0896 139.028 59.0896 138.924 59.0896C138.82 59.0896 138.717 59.0896 138.613 59.0896C138.509 59.0896 138.509 59.3408 138.613 59.3408C138.82 59.0896 139.028 59.0896 139.132 59.0896C139.339 59.3408 139.547 59.3408 139.858 59.0896C139.858 58.8384 139.858 58.5872 139.962 58.5872C140.066 58.8384 140.169 58.8384 140.169 58.5872C140.273 58.5872 140.377 58.5872 140.377 58.5872C140.481 58.8384 140.481 58.8384 140.273 58.8384C140.066 58.8384 140.066 58.8384 140.066 58.8384C140.066 59.0896 140.273 59.0896 140.481 58.8384C140.585 58.8384 140.585 58.5872 140.585 58.5872L140.481 58.3359C140.585 58.5872 140.792 58.3359 140.896 58.3359C141 58.0847 141.103 58.0847 141.207 58.3359C141.103 58.3359 141.103 58.5872 141.103 58.5872C141.103 58.5872 141.207 58.5872 141.207 58.8384C140.896 58.8384 140.792 58.8384 140.792 59.3408C140.896 59.0896 141.103 59.0896 141.207 59.0896C141.311 59.0896 141.519 59.0896 141.726 58.8384C141.726 58.3359 141.83 58.3359 142.037 58.3359C142.245 58.3359 142.452 58.3359 142.66 58.3359V58.5872C142.66 58.5872 142.66 58.5872 142.66 58.8384H143.386C143.386 58.5872 143.283 58.5872 143.075 58.5872C142.868 58.5872 142.868 58.5872 142.868 58.3359C143.283 58.3359 143.698 58.3359 144.113 58.3359C144.528 58.3359 144.943 58.3359 145.254 57.8335C145.566 58.3359 145.877 58.5872 146.188 58.5872C146.603 58.5872 146.915 58.5872 147.33 58.3359C147.122 58.3359 146.915 58.3359 146.603 58.3359C146.396 58.3359 146.188 58.3359 145.877 58.3359C146.292 58.0847 146.707 58.0847 147.122 58.0847C147.537 58.0847 147.849 58.0847 148.264 57.8335C148.16 58.0847 148.264 58.0847 148.368 58.0847C148.471 58.0847 148.471 58.0847 148.368 58.0847C148.471 58.0847 148.575 58.3359 148.679 58.3359C148.783 58.3359 148.99 58.3359 149.094 58.5872C149.094 58.0847 149.198 57.8335 149.302 57.8335C149.405 57.8335 149.613 57.8335 149.717 58.0847C149.82 58.3359 149.924 58.3359 150.132 58.3359C150.236 58.3359 150.236 58.0847 150.028 58.0847C149.82 58.0847 149.82 57.8335 149.924 57.8335C150.028 57.8335 150.236 57.8335 150.339 57.8335C150.443 57.5823 150.651 57.8335 150.754 58.0847C150.651 58.0847 150.651 58.0847 150.651 58.0847H150.547C150.443 58.3359 150.443 58.5872 150.339 58.5872C150.754 58.3359 151.066 58.3359 151.481 58.3359C151.792 58.5872 152.104 58.3359 152.415 58.0847H152C151.896 58.0847 151.792 58.0847 151.688 57.8335C152.207 57.8335 152.726 57.8335 153.245 57.8335C153.037 57.8335 152.934 58.0847 152.934 58.0847C153.037 58.0847 153.141 58.0847 153.141 58.3359C153.453 58.3359 153.764 58.0847 154.075 58.0847C154.283 58.0847 154.594 57.8335 154.698 57.5823C154.802 57.8335 155.009 57.8335 155.113 57.8335C155.321 57.8335 155.528 57.8335 155.736 57.8335C155.839 57.8335 155.839 58.0847 155.736 58.0847C155.632 58.0847 155.736 58.3359 155.839 58.3359C155.839 58.0847 155.839 57.8335 155.943 58.0847C156.047 58.0847 156.047 58.3359 156.047 58.3359C156.151 58.3359 156.151 58.0847 156.047 58.0847C155.943 58.0847 156.047 57.8335 156.047 57.8335C156.151 57.8335 156.255 57.8335 156.358 58.0847C156.358 58.3359 156.566 58.3359 156.773 58.3359C156.773 58.0847 156.773 57.8335 156.877 57.8335C156.877 58.0847 156.877 58.0847 156.981 58.0847C157.085 58.0847 157.085 58.3359 157.085 58.5872C157.292 58.5872 157.5 58.3359 157.707 58.5872C157.915 58.5872 158.019 58.5872 158.226 58.3359C158.434 58.5872 158.538 58.5872 158.745 58.5872C158.953 58.5872 159.16 58.3359 159.264 58.3359C159.472 58.0847 159.679 58.0847 159.783 57.8335C159.99 57.5823 160.094 57.5823 160.302 57.3311V57.5823C160.302 57.5823 160.302 57.5823 160.302 57.8335C160.405 57.8335 160.405 57.8335 160.509 57.8335C160.613 57.8335 160.717 57.8335 160.717 57.8335L160.613 58.0847C160.717 58.0847 160.821 58.0847 160.924 58.0847C161.028 58.0847 161.132 58.0847 161.236 58.0847C161.236 58.3359 161.236 58.3359 161.132 58.3359C161.028 58.3359 160.924 58.3359 160.924 58.3359C160.821 58.3359 160.821 58.3359 160.717 58.3359C160.717 58.3359 160.613 58.3359 160.613 58.5872C160.717 58.5872 160.924 58.5872 161.028 58.5872C161.236 58.5872 161.339 58.5872 161.443 58.3359C161.339 58.3359 161.339 58.3359 161.339 58.0847L161.236 57.8335C161.236 57.5823 161.339 57.5823 161.443 57.5823C161.443 57.5823 161.547 57.5823 161.547 57.8335C161.547 57.8335 161.547 57.8335 161.651 57.8335C161.858 57.5823 162.066 57.5823 162.273 57.3311C162.481 57.3311 162.689 57.0799 162.896 57.0799C163 57.0799 163.207 57.3311 163.311 57.3311C163.415 57.5823 163.622 57.5823 163.726 57.5823C163.726 57.3311 163.726 57.0799 163.83 57.0799C163.726 57.0799 163.622 57.0799 163.622 57.0799C163.519 57.0799 163.519 57.0799 163.519 56.8287C163.622 56.8287 163.83 56.8287 163.934 56.8287C164.038 56.8287 164.141 56.8287 164.245 56.8287C164.038 57.0799 163.934 57.3311 164.038 57.8335C164.245 57.8335 164.245 57.8335 164.141 57.5823C164.038 57.3311 164.038 57.3311 164.141 57.3311C164.245 57.5823 164.349 57.5823 164.453 57.5823C164.556 57.5823 164.764 57.5823 164.868 57.8335C164.972 58.0847 165.179 58.0847 165.283 58.0847H165.906C165.802 57.8335 165.906 57.8335 166.113 57.5823C166.217 57.3311 166.424 57.3311 166.528 57.3311C166.632 57.5823 166.632 57.5823 166.528 57.5823C166.424 57.5823 166.424 57.5823 166.424 57.8335C166.632 57.8335 166.632 57.8335 166.632 58.0847C166.736 58.3359 166.943 58.0847 167.047 58.0847C167.151 57.8335 167.255 57.8335 167.358 57.5823C167.462 57.8335 167.566 57.8335 167.67 57.8335C167.773 57.8335 167.877 57.5823 167.877 57.5823C168.085 58.0847 168.292 58.3359 168.604 58.0847C168.915 57.8335 169.123 57.8335 169.33 57.5823C169.434 57.8335 169.641 57.8335 169.849 57.8335C170.057 57.8335 170.264 57.8335 170.368 58.0847C170.472 58.0847 170.472 57.8335 170.575 57.5823C170.575 57.3311 170.783 57.3311 170.99 57.3311V57.5823V57.8335H171.094C171.094 57.8335 171.094 57.8335 170.99 58.0847V57.8335H170.887C170.887 57.8335 170.887 57.8335 170.783 57.8335C170.783 58.0847 170.783 58.0847 170.783 58.0847L170.679 58.3359C170.783 58.3359 170.783 58.3359 170.783 58.3359C170.887 58.3359 170.99 58.3359 171.094 58.3359C171.094 58.0847 171.094 57.8335 171.198 57.8335C171.302 58.0847 171.406 58.0847 171.509 58.3359C171.613 58.3359 171.717 58.3359 171.821 58.3359C171.924 58.3359 172.028 58.3359 172.132 58.0847C172.236 58.0847 172.34 58.0847 172.443 58.0847C172.547 58.0847 172.547 57.8335 172.547 57.8335C172.547 57.8335 172.547 57.5823 172.651 57.5823C172.755 57.5823 172.755 57.8335 172.755 57.8335C172.651 58.0847 172.755 58.0847 172.962 58.0847C172.962 57.8335 172.962 57.8335 173.066 57.8335C173.17 57.8335 173.17 57.8335 173.274 57.5823C173.377 57.5823 173.377 57.8335 173.481 57.8335H173.792C173.792 58.0847 173.792 58.0847 173.896 58.0847C174 57.8335 174.207 57.8335 174.415 58.0847C174.726 58.3359 174.934 58.0847 174.934 57.8335C174.726 57.8335 174.726 57.8335 174.726 57.5823C174.83 57.3311 174.83 57.3311 174.934 57.0799C175.038 56.8287 175.141 56.8287 175.245 57.0799C175.141 57.3311 175.141 57.3311 175.038 57.3311C174.934 57.3311 174.934 57.3311 174.934 57.5823C175.245 57.5823 175.557 57.5823 175.764 57.8335C175.972 58.0847 176.283 57.8335 176.491 57.5823C176.491 57.3311 176.594 57.3311 176.698 57.3311C176.802 57.3311 176.906 57.3311 177.009 57.3311V57.5823H177.217C177.113 57.5823 177.009 57.5823 177.009 57.5823C177.009 57.3311 177.113 57.0799 177.321 57.0799C177.321 57.3311 177.321 57.5823 177.321 57.5823C177.424 57.8335 177.321 58.0847 177.217 58.3359C177.321 58.3359 177.424 58.0847 177.632 57.8335C177.736 57.5823 177.943 57.5823 178.047 57.5823C178.151 57.8335 178.255 58.0847 178.462 57.8335C178.67 57.8335 178.877 57.8335 178.981 58.0847C179.085 57.8335 179.189 57.5823 179.189 57.8335C179.292 58.0847 179.292 58.0847 179.292 58.0847C179.189 58.0847 179.189 58.0847 179.189 58.3359C179.396 58.3359 179.396 58.3359 179.396 58.3359C179.396 58.0847 179.5 58.0847 179.604 58.3359V58.5872C179.708 58.5872 179.708 58.5872 179.708 58.5872C179.708 58.3359 179.708 58.3359 179.604 58.3359C179.708 58.3359 179.811 58.0847 179.811 57.8335C179.811 57.5823 179.915 57.5823 180.019 57.8335C180.019 57.5823 180.019 57.5823 180.019 57.5823C179.915 57.5823 179.915 57.3311 179.915 57.3311C180.019 57.3311 180.123 57.5823 180.226 57.5823C180.33 57.5823 180.434 57.5823 180.538 57.8335C180.434 57.8335 180.434 58.0847 180.33 58.0847C180.226 58.0847 180.226 58.0847 180.226 58.3359C180.226 58.5872 180.33 58.8384 180.434 58.8384C180.434 58.5872 180.538 58.3359 180.745 58.3359C180.953 58.3359 181.057 58.0847 181.16 58.0847C181.16 58.0847 181.16 58.3359 181.057 58.3359C181.057 58.3359 180.953 58.3359 180.953 58.5872C181.057 58.5872 181.16 58.5872 181.16 58.3359C181.16 58.3359 181.264 58.3359 181.264 58.5872C181.368 58.5872 181.368 58.3359 181.264 58.3359C181.16 58.3359 181.264 58.0847 181.368 58.0847V58.3359C181.368 58.3359 181.368 58.3359 181.472 58.3359C181.472 58.3359 181.472 58.5872 181.368 58.5872C181.264 58.5872 181.264 58.8384 181.264 58.8384C181.368 58.8384 181.472 58.8384 181.472 58.8384C181.575 58.8384 181.575 58.8384 181.679 58.8384C181.679 58.5872 181.679 58.5872 181.783 58.5872C181.887 58.5872 181.887 58.5872 181.887 58.8384C181.887 58.8384 181.887 59.0896 181.991 59.0896C181.991 58.8384 181.991 58.8384 182.094 58.8384C182.198 59.0896 182.302 59.0896 182.406 59.0896C182.509 58.8384 182.717 58.8384 182.925 58.5872C183.028 58.8384 183.132 58.8384 183.443 58.8384C183.651 58.8384 183.755 58.8384 183.962 58.8384C183.962 58.8384 183.859 59.0896 183.755 59.0896C183.651 59.0896 183.651 59.0896 183.651 59.3408C183.755 59.0896 183.962 59.0896 184.066 59.0896C184.17 59.3408 184.377 59.3408 184.481 59.0896C184.585 58.8384 184.481 58.5872 184.377 58.8384C184.17 58.8384 184.17 58.8384 184.274 58.5872C184.585 58.5872 184.792 58.5872 184.689 58.5872C184.689 58.8384 184.792 58.8384 185 59.0896C185.208 59.0896 185.208 58.8384 185 58.8384C184.896 58.8384 184.896 58.5872 185 58.5872C185.311 58.5872 185.519 58.5872 185.726 58.5872C185.934 58.5872 186.245 58.8384 186.349 59.3408C186.349 59.0896 186.349 59.0896 186.349 58.8384C186.349 58.5872 186.349 58.5872 186.453 58.5872C186.557 58.5872 186.557 58.5872 186.557 58.8384C186.557 59.0896 186.557 59.0896 186.764 59.0896C186.868 59.0896 186.868 58.8384 186.764 58.8384C186.66 58.8384 186.66 58.5872 186.764 58.5872C187.179 58.8384 187.698 59.0896 188.113 58.8384C188.632 58.8384 189.047 58.5872 189.566 58.5872C189.67 58.8384 189.67 58.8384 189.566 58.8384C189.462 58.8384 189.462 58.8384 189.462 59.0896C189.462 59.0896 189.67 59.3408 189.877 59.3408C189.877 58.8384 189.981 58.8384 190.085 58.8384C190.085 58.8384 190.085 58.8384 190.085 59.0896C190.085 59.0896 190.085 59.0896 190.085 59.3408C190.5 59.3408 190.811 59.3408 191.019 59.3408L191.745 59.592L191.642 59.8432C191.538 59.8432 191.538 59.8432 191.642 60.0944C191.849 60.0944 191.953 60.0944 192.16 60.0944C192.368 60.0944 192.472 60.0944 192.472 59.8432C192.368 59.8432 192.264 59.592 192.264 59.8432C192.16 59.8432 192.057 59.8432 192.057 59.8432C192.368 59.592 192.783 59.592 193.094 59.592C193.51 59.592 193.821 59.592 194.236 59.8432C194.651 59.8432 195.066 59.8432 195.481 59.592C195.793 59.592 196.104 59.592 196.415 60.0944C196.415 60.0944 196.519 60.0944 196.623 60.0944C196.727 60.0944 196.83 59.8432 196.934 59.8432C197.038 59.8432 197.038 60.0944 197.038 60.0944C197.038 60.0944 197.142 60.3456 197.349 60.0944C197.453 60.0944 197.453 59.8432 197.453 59.8432C197.349 59.8432 197.453 59.592 197.557 59.592C197.661 59.8432 197.661 60.0944 197.764 60.0944C197.868 59.8432 197.972 59.8432 198.179 59.592C198.802 59.8432 199.321 59.8432 199.84 60.0944C200.359 60.0944 200.981 60.0944 201.5 60.0944L201.604 59.8432C201.604 59.8432 201.708 59.592 201.708 59.3408C201.604 59.3408 201.5 59.3408 201.5 59.3408C201.396 59.3408 201.396 59.3408 201.396 59.0896C201.604 59.0896 201.812 59.0896 202.019 59.0896C202.227 59.0896 202.434 59.0896 202.642 58.8384C202.745 58.8384 202.745 59.0896 202.642 59.0896C202.745 59.0896 202.849 59.0896 202.953 59.0896C203.057 59.0896 203.161 59.0896 203.161 58.8384C202.745 58.8384 202.33 58.8384 202.019 58.5872C201.604 58.3359 201.189 58.3359 200.774 58.5872C200.774 58.5872 200.774 58.8384 200.774 59.0896C200.774 59.3408 200.67 59.592 200.566 59.592C200.462 59.3408 200.462 59.3408 200.566 59.0896C200.67 58.8384 200.67 58.8384 200.462 58.8384C200.359 58.8384 200.359 59.0896 200.255 59.0896C200.255 59.3408 200.151 59.3408 200.047 59.3408C199.944 59.3408 199.84 59.3408 199.84 59.0896C199.736 59.0896 199.632 59.0896 199.632 59.0896C199.528 59.0896 199.528 59.3408 199.528 59.592C199.528 59.8432 199.528 59.8432 199.321 59.8432C199.321 59.8432 199.321 59.592 199.425 59.592C199.425 59.592 199.425 59.3408 199.321 59.3408C199.321 59.0896 199.217 59.0896 199.113 59.0896C199.01 59.0896 198.906 59.0896 199.01 58.8384C199.217 58.8384 199.528 58.8384 199.736 59.0896C199.944 59.0896 200.151 59.0896 200.359 58.8384C199.84 58.8384 199.321 58.5872 198.698 58.5872C198.076 58.5872 197.453 58.3359 196.83 58.3359C196.208 58.3359 195.481 58.0847 194.859 58.0847C194.236 58.0847 193.613 58.0847 193.094 58.0847C193.198 58.3359 193.406 58.3359 193.613 58.3359C193.821 58.3359 193.925 58.3359 194.132 58.5872C194.651 58.3359 195.066 58.3359 195.585 58.3359C196 58.3359 196.519 58.5872 196.934 58.5872C196.934 58.5872 196.934 58.8384 196.83 58.8384C196.83 58.8384 196.83 58.8384 196.934 58.8384C197.245 58.5872 197.661 58.5872 197.972 58.5872C198.283 58.5872 198.698 58.8384 199.01 58.8384C199.01 59.0896 198.906 59.0896 198.802 59.0896C198.698 59.0896 198.594 59.0896 198.698 59.3408C198.802 59.3408 198.802 59.592 198.906 59.3408H199.01C198.802 59.592 198.594 59.592 198.491 59.3408C198.387 59.0896 198.179 58.8384 197.972 58.8384C197.661 59.0896 197.349 59.0896 197.142 58.8384C197.142 59.3408 197.038 59.592 196.727 59.592V59.3408C196.623 59.3408 196.623 59.3408 196.623 59.3408H196.519L196.623 59.0896C196.727 59.0896 196.727 59.0896 196.727 59.3408C196.83 59.0896 196.934 59.0896 196.934 59.0896C196.727 58.8384 196.623 58.8384 196.415 58.8384C196.311 58.8384 196.104 58.8384 196 58.5872C195.793 58.8384 195.585 58.8384 195.377 58.5872C195.17 58.3359 194.962 58.5872 194.859 58.8384C194.755 58.5872 194.547 58.5872 194.444 58.5872C194.34 58.5872 194.34 58.8384 194.34 59.0896C194.34 59.3408 194.236 59.3408 194.132 59.3408V59.0896L194.236 58.8384C194.132 58.5872 193.821 58.3359 193.717 58.5872C193.51 58.8384 193.302 58.5872 193.198 58.3359C193.094 58.5872 192.991 58.8384 192.783 58.5872C192.576 58.5872 192.368 58.5872 192.264 58.5872C192.368 58.5872 192.472 58.5872 192.576 58.8384C192.679 59.0896 192.576 59.0896 192.472 59.3408C192.368 59.0896 192.264 58.8384 192.16 58.8384C192.057 58.8384 191.953 58.5872 192.057 58.3359C191.745 58.5872 191.434 58.5872 191.123 58.3359C190.915 58.3359 190.604 58.3359 190.396 58.5872C189.877 58.0847 189.359 58.0847 188.736 58.0847C188.113 58.0847 187.491 58.0847 186.868 58.0847C186.349 57.8335 185.726 57.8335 185.208 57.8335C184.585 57.8335 183.962 57.8335 183.34 57.5823C183.547 57.3311 183.859 57.3311 184.066 57.5823C184.377 57.8335 184.585 57.5823 184.689 57.3311C184.377 57.3311 184.066 57.0799 183.859 57.3311C183.651 57.3311 183.443 57.3311 183.132 57.3311C183.028 57.3311 183.028 57.5823 183.132 57.5823C183.236 57.5823 183.236 57.8335 183.132 57.8335C181.887 57.8335 180.745 57.8335 179.708 57.8335C179.604 57.8335 179.604 58.0847 179.604 58.3359C179.604 58.5872 179.5 58.5872 179.292 58.3359H179.396C179.396 58.3359 179.5 58.3359 179.5 58.0847C179.189 57.8335 178.774 57.8335 178.462 57.8335C178.047 58.0847 177.84 57.8335 177.736 57.5823C177.84 57.5823 177.943 57.5823 178.047 57.5823C178.151 57.5823 178.151 57.5823 178.151 57.3311C177.736 57.3311 177.321 57.3311 176.906 57.3311C176.491 57.0799 176.075 57.3311 175.764 57.5823C176.075 57.5823 176.387 57.5823 176.594 57.5823C176.906 57.3311 177.113 57.5823 177.424 57.8335C176.387 57.8335 175.349 57.8335 174.311 57.8335C173.274 57.8335 172.34 57.8335 171.302 57.8335C171.198 57.8335 171.198 57.8335 171.198 58.0847C171.198 58.0847 171.094 58.3359 170.99 58.3359C170.99 58.0847 170.887 58.0847 170.783 58.0847C170.679 58.0847 170.575 58.0847 170.472 57.8335C169.123 57.8335 167.67 57.8335 166.321 57.8335C164.972 57.8335 163.622 57.8335 162.481 57.8335C162.585 57.5823 162.481 57.5823 162.377 57.3311C162.17 57.5823 161.962 57.5823 161.651 57.3311C161.339 57.0799 161.132 57.3311 161.028 57.5823C161.236 57.5823 161.443 57.5823 161.755 57.5823C161.962 57.3311 162.17 57.5823 162.377 57.8335C161.858 57.8335 161.236 57.8335 160.717 58.0847C160.094 58.0847 159.575 58.0847 158.953 57.8335L159.99 57.5823C160.302 57.5823 160.613 57.5823 160.924 57.5823V57.3311C160.924 57.3311 160.924 57.3311 160.924 57.0799C160.094 57.3311 159.264 57.3311 158.434 57.3311C157.707 57.0799 156.877 57.3311 156.151 58.0847C156.047 58.0847 155.943 58.0847 155.839 58.0847C155.736 58.0847 155.632 58.0847 155.528 57.8335C155.632 57.8335 155.839 57.8335 155.943 57.8335C156.151 57.8335 156.151 57.8335 156.151 57.5823C153.868 57.5823 151.688 57.8335 149.82 57.8335C147.849 57.8335 145.773 58.0847 143.49 58.0847L142.971 58.3359C142.349 58.3359 141.83 58.0847 141.207 58.3359C140.585 58.3359 139.962 58.5872 139.443 58.5872C139.028 58.3359 138.613 58.3359 138.198 58.3359C137.783 58.3359 137.368 58.5872 136.952 58.5872V58.8384C137.056 58.8384 137.056 58.8384 137.056 59.0896C136.952 59.0896 136.952 59.0896 136.849 59.3408C136.745 59.3408 136.745 59.3408 136.641 59.3408L136.745 59.0896C136.745 59.0896 136.745 58.8384 136.745 58.5872C135.396 58.8384 134.047 58.8384 132.594 58.8384C131.349 58.8384 130 59.0896 128.754 59.3408C126.99 59.3408 125.018 59.3408 123.15 59.592C121.179 59.8432 119.415 60.0944 117.754 60.0944C116.613 60.0944 115.471 60.0944 114.226 60.3456C112.981 60.5968 111.839 60.5968 110.594 60.3456C110.179 60.5968 109.764 60.5968 109.348 60.5968C108.933 60.5968 108.518 60.5968 108.103 60.3456C109.452 60.3456 110.697 60.0944 112.047 59.8432C113.396 59.592 114.641 59.592 115.782 59.8432C115.886 59.592 115.99 59.592 116.198 59.592C116.301 59.592 116.509 59.592 116.613 59.3408C116.924 59.592 117.235 59.592 117.65 59.592C117.962 59.592 118.273 59.3408 118.584 59.3408C118.584 59.3408 118.688 59.3408 118.688 59.592C118.688 59.592 118.688 59.592 118.792 59.592C119.207 59.3408 119.726 59.3408 120.141 59.3408C120.556 59.3408 120.971 59.3408 121.49 59.3408C122.424 59.3408 123.462 59.3408 124.5 59.0896C125.537 58.8384 126.575 58.8384 127.613 58.5872C127.924 58.5872 128.339 58.5872 128.65 58.5872C128.962 58.5872 129.273 58.5872 129.688 58.5872C129.896 58.5872 130.103 58.5872 130.207 58.3359C130.415 58.3359 130.518 58.3359 130.726 58.3359C131.037 58.3359 131.245 58.3359 131.556 58.3359C131.867 58.3359 132.075 58.3359 132.283 58.3359C132.801 58.3359 133.32 58.3359 133.839 58.3359C134.358 58.3359 134.877 58.0847 135.603 58.0847C137.99 58.0847 140.377 57.8335 142.971 57.5823C145.566 57.3311 148.056 57.3311 150.443 57.3311C151.066 57.3311 151.792 57.3311 152.415 57.3311L154.387 57.0799C156.358 57.0799 158.33 56.8287 160.405 56.8287C162.481 56.8287 164.556 56.5775 166.528 56.5775C166.632 56.5775 166.632 56.5775 166.632 56.8287C166.632 56.8287 166.736 56.8287 166.84 56.8287C168.915 56.8287 170.99 56.5775 172.962 56.5775C174.934 56.5775 177.009 56.5775 179.085 56.8287C180.849 56.5775 182.613 56.5775 184.585 56.8287C186.557 57.0799 188.528 57.0799 190.5 57.0799C191.227 57.3311 192.16 57.3311 193.198 57.3311C194.236 57.3311 195.17 57.3311 195.896 57.5823C197.764 57.8335 199.736 58.0847 201.708 58.3359C203.783 58.5872 205.651 58.8384 207.519 59.0896C208.349 59.3408 209.076 59.592 209.906 59.592C210.632 59.592 211.359 59.8432 212.085 60.0944C210.84 60.0944 209.491 59.8432 208.142 59.592C206.793 59.3408 205.444 59.0896 204.095 59.3408C204.198 59.3408 204.198 59.592 204.198 59.592C204.198 59.8432 204.198 59.8432 204.095 59.8432C203.991 59.592 203.783 59.8432 203.679 59.8432C203.576 60.0944 203.368 59.8432 203.264 59.592C203.264 60.0944 203.161 60.0944 202.953 59.8432C202.849 59.592 202.642 59.592 202.538 59.8432C202.538 60.0944 202.642 60.3456 202.745 60.3456C202.849 60.3456 203.057 60.5968 203.161 60.5968C203.264 60.3456 203.264 60.3456 203.368 60.3456H203.783C203.887 60.3456 203.887 60.0944 203.887 60.0944C203.887 60.0944 203.887 59.8432 203.991 59.8432C204.095 59.8432 204.198 59.8432 204.406 60.0944C204.406 60.0944 204.302 60.3456 204.198 60.3456C204.095 60.3456 203.991 60.3456 204.095 60.5968C204.302 60.848 204.51 60.848 204.717 60.5968C205.029 60.5968 205.132 60.5968 205.236 60.848H204.821C204.717 60.848 204.613 60.848 204.613 61.0992C205.444 61.0992 206.274 61.0992 207.104 61.6016C207.83 61.8528 208.661 62.104 209.491 62.104C209.491 62.104 209.491 62.3552 209.595 62.3552C209.698 62.3552 209.698 62.3552 209.698 62.3552C210.217 62.3552 210.84 62.104 211.359 62.3552C211.981 62.3552 212.604 62.3552 213.33 62.3552C213.538 62.3552 213.849 62.3552 214.057 62.104C214.368 61.8528 214.68 61.8528 214.887 61.8528C214.264 61.3504 214.264 61.0992 214.264 60.848ZM201.293 59.0896C201.189 59.0896 201.189 59.3408 201.189 59.592C201.189 59.8432 201.189 59.8432 200.981 59.8432C200.981 59.592 200.981 59.3408 200.981 59.3408C200.878 59.3408 200.878 59.0896 200.878 59.0896C200.981 59.0896 201.189 59.0896 201.293 59.0896ZM199.113 59.3408C199.113 59.592 199.113 59.592 199.113 59.3408C199.01 59.592 198.906 59.3408 198.906 59.3408H199.113ZM195.793 59.0896C195.896 59.0896 195.896 59.0896 195.896 59.0896C195.896 59.0896 195.896 59.0896 196 59.0896C196 59.3408 196 59.3408 195.793 59.0896C195.689 59.3408 195.689 59.3408 195.793 59.0896ZM195.377 59.0896C195.481 59.0896 195.481 59.3408 195.481 59.3408C195.377 59.3408 195.377 59.3408 195.274 59.3408C195.274 59.0896 195.274 58.8384 195.377 59.0896ZM193.406 58.8384C193.406 59.0896 193.406 59.0896 193.406 59.0896C193.406 59.0896 193.51 59.0896 193.51 59.3408C193.302 59.3408 193.094 59.0896 193.094 58.8384H193.406ZM191.434 58.5872C191.434 58.5872 191.538 58.5872 191.434 58.5872C191.538 58.8384 191.434 59.0896 191.33 58.8384L191.434 58.5872C191.434 58.5872 191.33 58.5872 191.434 58.5872ZM189.047 58.5872C189.151 58.5872 189.151 58.5872 189.151 58.8384C189.151 58.8384 189.151 59.0896 189.047 59.0896C189.047 58.8384 189.047 58.8384 189.047 58.5872C189.047 58.5872 188.943 58.5872 189.047 58.5872ZM188.84 58.5872C188.84 58.8384 188.84 58.8384 188.84 58.5872V58.5872ZM185.415 58.8384C185.415 58.8384 185.415 58.8384 185.311 58.8384H185.415ZM185 58.3359H185.104V58.5872H185V58.3359ZM184.792 58.8384H185V59.0896L184.792 58.8384ZM183.755 58.0847C183.859 58.0847 183.859 58.0847 183.859 58.0847C183.859 58.0847 183.859 58.0847 183.962 58.0847C184.066 58.3359 184.066 58.3359 183.755 58.0847C183.755 58.3359 183.755 58.3359 183.755 58.0847ZM182.717 58.3359H182.821V58.5872H182.717V58.3359ZM174.83 58.3359V58.5872H174.623V58.3359H174.83ZM174 58.5872H174.207V58.8384L174 58.5872ZM173.481 58.0847H173.585C173.585 58.3359 173.585 58.5872 173.481 58.0847C173.377 58.3359 173.377 58.3359 173.274 58.0847C173.274 58.3359 173.377 58.0847 173.481 58.0847ZM171.406 58.8384C171.509 58.8384 171.509 58.8384 171.509 58.8384C171.613 58.8384 171.613 58.8384 171.613 59.0896C171.613 59.3408 171.509 59.3408 171.406 59.0896V58.8384ZM169.019 58.0847C169.226 58.0847 169.226 58.0847 169.226 58.0847C169.33 58.3359 169.226 58.3359 169.123 58.3359C169.019 58.3359 168.915 58.3359 169.019 58.0847ZM168.604 58.3359H168.707V58.5872H168.604V58.3359ZM168.292 58.3359H168.396V58.5872L168.292 58.3359ZM167.981 58.3359C168.085 58.3359 168.189 58.5872 168.085 58.5872C167.981 58.5872 167.877 58.5872 167.773 58.3359C167.773 58.3359 167.773 58.3359 167.981 58.3359ZM167.255 58.3359C167.358 58.3359 167.566 58.3359 167.67 58.3359C167.67 58.3359 167.67 58.5872 167.462 58.5872C167.255 58.5872 167.255 58.5872 167.255 58.3359ZM164.972 59.0896C165.075 58.8384 165.179 58.8384 165.387 58.8384C165.387 59.0896 165.179 59.0896 164.972 59.0896C164.972 59.0896 164.868 59.0896 164.972 59.0896ZM164.66 58.3359H164.556V58.0847H164.66C164.764 58.0847 164.764 58.0847 164.66 58.3359ZM162.896 58.3359C163 58.3359 163 58.5872 163.104 58.5872C162.896 58.5872 162.896 58.3359 162.896 58.3359ZM162.585 58.3359C162.689 58.3359 162.689 58.3359 162.689 58.3359H162.792C162.792 58.3359 162.792 58.3359 162.792 58.5872C162.689 58.5872 162.585 58.3359 162.585 58.3359C162.481 58.3359 162.481 58.3359 162.585 58.3359ZM162.066 58.3359C162.17 58.3359 162.273 58.3359 162.17 58.5872L162.066 58.8384C161.962 58.8384 161.962 58.8384 161.962 58.5872C162.066 58.3359 162.066 58.3359 162.066 58.3359ZM161.443 58.5872C161.339 58.5872 161.236 58.3359 161.132 58.0847C161.339 58.3359 161.443 58.3359 161.443 58.5872ZM159.887 58.3359C160.094 58.3359 160.094 58.5872 159.99 58.5872H159.887V58.3359ZM159.16 58.3359C159.264 58.3359 159.368 58.5872 159.264 58.5872H159.16H159.056C159.056 58.5872 159.056 58.3359 159.16 58.3359C159.16 58.3359 159.056 58.3359 159.16 58.3359ZM158.538 59.0896C158.641 59.0896 158.745 59.0896 158.849 59.0896C158.953 59.0896 159.056 58.8384 159.16 58.8384C159.264 58.5872 159.472 58.5872 159.575 58.8384C159.575 59.0896 159.679 59.0896 159.783 59.0896C159.679 59.3408 159.472 59.3408 159.368 59.3408C159.264 59.3408 159.056 59.3408 158.849 59.0896C158.745 59.3408 158.538 59.3408 158.434 59.3408C158.226 59.3408 158.122 59.0896 158.122 58.8384C158.226 59.0896 158.434 59.0896 158.538 59.0896ZM157.915 57.8335H158.33C158.33 57.8335 158.226 58.0847 158.122 58.0847C158.019 58.0847 157.811 57.8335 157.915 57.8335ZM157.396 57.8335C157.5 57.8335 157.604 57.8335 157.811 57.8335C157.811 58.0847 157.707 58.0847 157.5 58.0847C157.396 58.0847 157.292 58.0847 157.188 58.0847C157.188 57.8335 157.292 57.5823 157.396 57.8335ZM157.188 58.5872C157.188 58.3359 157.188 58.3359 157.292 58.3359C157.396 58.3359 157.396 58.5872 157.396 58.5872C157.292 58.8384 157.292 58.8384 157.188 58.5872ZM156.67 58.8384C156.566 58.8384 156.566 58.8384 156.462 58.5872C156.358 58.5872 156.255 58.5872 156.151 58.5872C156.151 58.3359 156.255 58.3359 156.462 58.3359C156.67 58.3359 156.67 58.5872 156.67 58.8384ZM155.839 58.5872H156.047V58.8384L155.839 58.5872ZM150.858 59.0896C150.858 59.0896 150.962 59.0896 150.858 59.0896C150.962 59.0896 150.962 59.0896 150.858 59.0896ZM151.688 59.0896C151.585 59.0896 151.688 58.8384 151.688 59.0896C151.792 59.0896 151.792 59.0896 151.688 59.0896ZM152.207 58.5872C152.415 58.5872 152.519 58.5872 152.415 58.8384C152.415 58.8384 152.311 58.8384 152.207 58.5872C152.207 58.5872 152.207 58.8384 152.207 58.5872ZM153.141 58.8384H152.934V58.5872C153.037 58.5872 153.037 58.5872 153.141 58.8384ZM153.453 59.0896C153.556 59.0896 153.556 58.8384 153.453 59.0896C153.556 58.8384 153.556 59.0896 153.556 59.3408L153.453 59.0896C153.349 59.0896 153.349 59.0896 153.453 59.0896ZM153.66 59.592C153.556 59.592 153.453 59.592 153.453 59.592C153.556 59.3408 153.66 59.3408 153.764 59.592C153.764 59.592 153.764 59.592 153.66 59.592ZM153.868 59.3408C153.971 59.0896 153.971 59.0896 154.075 58.8384C154.179 58.5872 154.283 58.5872 154.387 58.8384C154.387 59.3408 154.283 59.592 153.868 59.3408ZM153.971 57.8335C154.179 57.8335 154.387 57.8335 154.594 57.5823H154.698C154.698 57.5823 154.698 57.5823 154.802 57.5823V57.8335C154.594 57.8335 154.49 57.8335 154.387 58.0847C154.075 58.3359 153.971 58.0847 153.971 57.8335ZM153.868 58.5872C153.971 58.8384 153.971 58.8384 153.868 58.5872C153.764 58.5872 153.764 58.8384 153.764 58.8384C153.66 58.8384 153.66 58.8384 153.66 58.5872C153.764 58.5872 153.868 58.5872 153.868 58.5872ZM151.273 58.3359C151.481 58.0847 151.688 58.0847 152 58.0847C152.207 58.3359 152.519 58.0847 152.726 57.8335C152.83 58.0847 152.934 58.0847 153.245 58.0847C153.453 57.8335 153.66 58.0847 153.868 58.3359C153.453 58.3359 153.037 58.3359 152.622 58.3359C152.104 58.3359 151.688 58.3359 151.273 58.3359ZM150.858 58.0847H151.066C151.17 58.0847 151.17 58.3359 151.066 58.3359L150.858 58.0847ZM150.858 59.0896C150.858 59.0896 150.858 59.0896 150.651 59.0896C150.651 59.3408 150.754 59.0896 150.858 59.0896ZM149.924 58.0847H150.132V58.3359L149.924 58.0847ZM149.405 58.3359C149.405 58.0847 149.509 57.8335 149.613 58.0847C149.717 58.3359 149.613 58.5872 149.405 58.3359ZM149.094 58.0847H149.198V58.3359L149.094 58.0847ZM149.094 59.3408L148.99 59.592C148.99 59.592 148.887 59.8432 148.783 59.8432C148.783 59.592 148.783 59.592 148.887 59.592C148.99 59.592 148.99 59.592 148.887 59.3408C148.99 59.0896 148.99 59.0896 149.094 59.3408ZM148.887 59.0896C148.783 59.0896 148.783 59.0896 148.887 59.0896C148.783 59.0896 148.783 59.0896 148.679 59.0896C148.679 59.0896 148.679 59.0896 148.887 59.0896C148.887 58.8384 148.887 58.8384 148.887 59.0896ZM148.471 58.0847C148.471 57.8335 148.575 57.8335 148.679 58.0847C148.783 58.3359 148.783 58.3359 148.679 58.3359H148.471C148.575 58.3359 148.575 58.0847 148.471 58.0847ZM145.566 59.0896C145.462 59.0896 145.462 59.0896 145.358 59.0896C145.358 59.0896 145.358 59.0896 145.358 58.8384L145.566 59.0896C145.67 59.0896 145.67 58.8384 145.566 59.0896ZM146.292 59.0896C146.396 59.0896 146.5 59.0896 146.5 59.3408C146.292 59.592 146.188 59.3408 146.292 59.0896ZM146.811 58.3359C146.811 58.3359 146.811 58.5872 146.811 58.3359C146.707 58.5872 146.707 58.5872 146.603 58.5872C146.603 58.5872 146.5 58.5872 146.5 58.3359H146.811ZM145.877 59.0896C145.877 58.8384 145.981 58.8384 146.085 58.8384C146.188 58.8384 146.292 58.8384 146.396 59.0896C146.396 59.0896 146.292 59.3408 146.188 59.3408C146.085 59.0896 145.981 59.0896 145.877 59.0896ZM145.462 58.3359C145.566 58.3359 145.566 58.3359 145.566 58.3359C145.566 58.3359 145.566 58.3359 145.67 58.3359C145.773 58.5872 145.67 58.5872 145.462 58.3359C145.358 58.3359 145.358 58.5872 145.462 58.3359ZM144.424 58.5872C144.528 58.5872 144.528 58.5872 144.528 58.3359C144.632 58.3359 144.632 58.5872 144.632 58.5872H144.424ZM144.009 58.3359H144.217V58.5872H144.009V58.3359ZM143.594 58.3359C143.698 58.3359 143.802 58.3359 143.802 58.3359C144.009 58.3359 144.009 58.5872 143.905 58.5872C143.802 58.5872 143.698 58.5872 143.49 58.5872C143.386 58.3359 143.49 58.3359 143.594 58.3359ZM143.386 58.8384C143.594 58.8384 143.698 59.0896 143.698 59.0896H143.179C143.075 58.8384 143.179 58.8384 143.386 58.8384ZM142.868 59.0896C142.764 59.3408 142.556 59.3408 142.452 59.3408C142.452 59.0896 142.452 59.0896 142.556 59.0896C142.66 59.0896 142.764 59.0896 142.868 59.0896ZM142.349 58.5872H142.556V58.8384H142.452H142.349V58.5872ZM142.037 59.0896C142.245 59.0896 142.245 59.0896 142.245 59.3408L142.037 59.0896ZM141.622 60.3456H141.415V60.0944H141.622V60.3456ZM141 59.0896C141.103 58.8384 141.207 58.5872 141.519 58.8384C141.726 58.8384 141.83 59.0896 141.83 59.3408C141.726 59.3408 141.622 59.3408 141.622 59.0896C141.622 58.8384 141.415 58.8384 141.415 58.8384C141.311 58.8384 141.311 58.8384 141.415 59.0896C141.519 59.0896 141.519 59.0896 141.415 59.3408C141.207 59.0896 141.103 59.0896 141 59.0896ZM140.585 58.5872C140.688 58.5872 140.792 58.5872 140.688 58.5872C140.688 58.8384 140.688 58.8384 140.688 59.0896C140.585 59.0896 140.481 59.0896 140.481 58.8384C140.481 58.8384 140.481 58.5872 140.585 58.5872ZM140.273 58.8384C140.273 58.5872 140.273 58.5872 140.273 58.8384C140.273 58.5872 140.273 58.5872 140.273 58.8384C140.481 58.5872 140.481 58.8384 140.481 58.8384C140.377 58.8384 140.377 58.8384 140.377 58.8384H140.273ZM140.169 59.0896C140.273 59.0896 140.273 59.0896 140.273 59.0896C140.273 59.0896 140.273 59.0896 140.377 59.0896C140.377 59.3408 140.377 59.3408 140.169 59.0896C140.066 59.3408 140.066 59.3408 140.169 59.0896ZM139.547 59.3408V59.0896V58.8384C139.754 58.8384 139.754 58.8384 139.754 59.0896C139.754 59.0896 139.754 59.0896 139.754 59.3408C139.754 59.592 139.651 59.592 139.547 59.3408ZM138.82 59.8432C138.82 59.8432 138.924 59.8432 139.028 59.8432C139.028 59.8432 138.924 59.8432 138.82 59.8432ZM139.132 59.3408C139.132 59.3408 139.235 59.0896 139.339 59.0896C139.339 59.3408 139.235 59.3408 139.132 59.3408ZM137.99 59.0896C138.198 58.8384 138.405 58.8384 138.613 58.8384C138.82 58.8384 139.132 58.8384 139.339 58.8384C139.132 59.0896 138.924 59.3408 138.717 59.0896C138.613 59.0896 138.302 59.0896 137.99 59.0896ZM137.471 59.3408C137.575 59.3408 137.575 59.3408 137.575 59.0896C137.575 59.0896 137.575 58.8384 137.471 58.8384C137.575 58.8384 137.679 58.8384 137.679 58.8384C137.886 58.8384 137.886 58.8384 137.783 58.8384C137.679 58.8384 137.679 59.0896 137.679 59.0896C137.783 59.3408 137.783 59.3408 137.886 59.3408H138.198C138.302 59.3408 138.405 59.3408 138.509 59.3408C138.613 59.3408 138.613 59.592 138.717 59.592C138.405 59.592 138.198 59.592 137.99 59.3408C137.783 59.3408 137.575 59.3408 137.368 59.592C137.264 59.592 137.264 59.3408 137.368 59.3408C137.368 59.592 137.471 59.3408 137.471 59.3408ZM136.434 58.8384C136.537 58.8384 136.641 58.8384 136.745 58.8384C136.849 59.0896 136.849 59.0896 136.745 59.3408C136.952 59.3408 136.952 59.3408 136.849 59.0896H137.264L137.16 59.3408C137.056 59.3408 137.056 59.592 137.056 59.592C136.849 59.592 136.641 59.592 136.434 59.592L136.641 59.3408C136.641 59.3408 136.537 59.0896 136.434 58.8384ZM135.396 59.592C135.5 59.592 135.5 59.592 135.5 59.592C135.5 59.592 135.5 59.592 135.603 59.592C135.5 59.592 135.396 59.8432 135.396 59.8432V59.592ZM135.085 59.592C135.292 59.592 135.292 59.592 135.188 59.8432C135.085 59.8432 134.981 59.8432 134.773 59.8432C134.877 59.592 134.981 59.592 135.085 59.592ZM134.151 59.3408C134.254 59.3408 134.254 59.3408 134.151 59.3408C134.047 59.592 134.047 59.592 133.943 59.592C134.047 59.3408 134.151 59.0896 134.151 59.3408ZM133.632 59.3408C133.632 59.3408 133.632 59.3408 133.528 59.3408C133.528 59.3408 133.528 59.3408 133.632 59.3408ZM133.217 59.8432H133.424C133.528 59.8432 133.424 59.8432 133.217 59.8432C133.217 59.8432 133.113 59.8432 133.217 59.8432ZM132.801 59.3408C132.905 59.3408 133.009 59.592 132.905 59.8432C132.801 59.8432 132.801 59.8432 132.801 59.592V59.3408ZM132.49 59.3408H132.594V59.592H132.49V59.3408ZM132.386 59.3408C132.283 59.592 132.283 59.592 132.179 59.592C132.179 59.3408 132.179 59.3408 132.386 59.3408ZM130.934 59.592C131.037 59.592 131.141 59.592 131.141 59.3408C131.245 59.3408 131.245 59.592 131.141 59.8432C131.037 59.8432 130.934 59.8432 130.934 59.592ZM129.481 60.3456C129.584 60.3456 129.584 60.0944 129.481 59.8432C129.688 59.8432 129.688 60.0944 129.688 60.3456C129.688 60.5968 129.792 60.5968 130 60.5968C129.896 60.848 129.792 60.848 129.688 60.848C129.584 60.848 129.377 60.848 129.273 60.848C129.273 60.5968 129.377 60.3456 129.481 60.3456ZM128.962 60.5968H129.066V60.848H128.962V60.5968ZM128.339 59.592C128.339 59.3408 128.443 59.3408 128.547 59.3408C128.65 59.3408 128.65 59.3408 128.65 59.3408C128.754 59.3408 128.754 59.592 128.65 59.592C128.547 59.8432 128.443 59.8432 128.339 59.592ZM128.132 60.848C128.235 60.5968 128.339 60.5968 128.547 60.5968C128.754 60.5968 128.858 60.5968 128.754 60.848C128.65 60.848 128.547 60.848 128.443 60.848C128.339 60.848 128.235 60.848 128.132 60.848ZM127.924 61.3504C127.717 61.3504 127.613 61.0992 127.509 60.848C127.613 60.848 127.613 61.0992 127.717 61.0992C127.82 61.0992 127.82 61.0992 127.924 61.3504ZM127.924 59.592C127.924 59.592 127.82 59.8432 127.717 59.8432C127.613 59.8432 127.509 59.8432 127.509 59.8432C127.509 59.592 127.613 59.592 127.924 59.592ZM126.886 60.0944H126.99V60.3456H126.886V60.0944ZM125.433 60.3456C125.433 60.3456 125.433 60.3456 125.33 60.3456H125.433ZM124.915 60.0944C125.018 60.0944 125.018 60.0944 124.915 60.0944C125.226 59.8432 125.33 60.0944 125.33 60.3456C125.122 60.3456 125.018 60.3456 125.018 60.3456C124.915 60.3456 124.915 60.5968 124.915 60.0944C124.811 60.0944 124.811 60.0944 124.915 60.0944ZM124.396 60.0944H124.603V60.3456H124.396V60.0944ZM124.396 60.848C124.396 61.0992 124.292 61.3504 124.084 60.848C124.188 61.0992 124.292 60.848 124.396 60.848ZM123.462 59.8432L123.566 60.0944C123.462 60.0944 123.462 60.3456 123.358 60.3456C123.254 60.3456 123.254 60.3456 123.15 60.3456L123.254 60.0944C123.358 59.8432 123.358 59.8432 123.462 59.8432ZM122.943 60.848H123.15V61.0992L122.943 60.848ZM122.632 61.3504C122.735 61.0992 122.735 61.0992 122.839 61.0992C122.839 61.3504 122.735 61.3504 122.632 61.3504ZM122.735 60.5968C122.735 60.5968 122.735 60.848 122.735 60.5968C122.735 60.848 122.735 60.848 122.735 60.5968C122.735 60.848 122.735 60.848 122.632 60.848C122.632 60.5968 122.632 60.5968 122.735 60.5968ZM121.075 60.5968H121.386C121.386 60.848 121.282 60.848 121.075 60.5968C121.075 60.5968 120.971 60.5968 120.867 60.848C120.971 60.848 120.971 60.5968 121.075 60.5968ZM118.377 61.8528H118.169V61.6016H118.377V61.8528ZM118.169 60.5968C118.169 60.848 118.169 60.848 118.169 60.848C118.065 60.848 118.065 61.0992 118.169 61.0992C118.065 61.0992 117.962 60.848 117.962 60.5968C117.858 60.5968 118.169 60.5968 118.169 60.5968ZM114.641 60.848C114.745 60.848 114.745 60.848 114.745 60.848C114.745 60.848 114.745 60.848 114.848 60.848C114.848 61.0992 114.848 61.0992 114.641 60.848C114.537 61.0992 114.537 61.0992 114.641 60.848ZM112.565 60.848H112.773V61.0992H112.565V60.848ZM112.565 61.8528C112.669 61.8528 112.773 61.8528 112.877 61.8528C112.877 62.104 112.877 62.104 112.773 62.104C112.565 62.104 112.462 62.104 112.565 61.8528C112.358 61.8528 112.358 62.104 112.565 61.8528ZM105.613 60.5968C105.509 60.5968 105.405 60.5968 105.405 60.848C105.405 60.5968 105.405 60.5968 105.509 60.3456C105.613 60.3456 105.716 60.3456 105.82 60.5968C105.716 60.5968 105.716 60.5968 105.613 60.5968ZM105.924 60.3456C105.924 60.3456 106.028 60.3456 106.131 60.3456C106.131 60.3456 106.028 60.3456 105.924 60.3456ZM106.235 60.5968C106.443 60.3456 106.443 60.5968 106.443 60.5968H106.235ZM106.962 60.5968C106.858 60.5968 106.65 60.5968 106.547 60.5968C106.65 60.3456 106.754 60.3456 106.962 60.5968C107.065 60.3456 107.169 60.3456 107.273 60.3456C107.273 60.3456 107.169 60.5968 106.962 60.5968ZM128.443 58.3359C128.443 58.3359 128.443 58.0847 128.443 58.3359C128.339 58.0847 128.443 58.0847 128.443 58.3359C128.547 58.0847 128.443 58.0847 128.443 58.3359C128.547 58.3359 128.547 58.3359 128.443 58.3359ZM129.792 58.0847C129.792 57.8335 129.792 57.8335 129.792 58.0847C129.792 57.8335 129.792 57.8335 129.792 58.0847C129.896 58.0847 129.896 58.0847 129.792 58.0847ZM131.452 58.0847C131.349 58.0847 131.141 58.0847 131.037 58.0847C131.141 57.8335 131.245 57.8335 131.349 57.8335C131.452 58.0847 131.556 58.0847 131.764 57.8335C131.764 58.0847 131.66 58.0847 131.452 58.0847ZM132.801 58.0847C132.594 58.0847 132.283 58.0847 132.075 58.0847C132.075 58.0847 132.075 57.8335 131.971 57.8335C131.971 57.8335 131.971 57.8335 131.971 57.5823C132.075 57.5823 132.179 57.3311 132.283 57.5823C132.386 57.5823 132.49 57.8335 132.49 57.8335C132.594 57.8335 132.594 57.8335 132.594 57.5823C132.594 57.5823 132.698 57.3311 132.801 57.5823C132.801 57.5823 132.801 57.8335 132.905 57.8335C133.009 57.8335 133.009 57.8335 133.113 57.8335C133.113 58.0847 132.905 58.0847 132.801 58.0847ZM204.198 59.8432H203.991V59.592L204.198 59.8432ZM204.406 60.5968C204.302 60.5968 204.198 60.3456 204.302 60.3456C204.406 60.3456 204.406 60.3456 204.406 60.0944C204.51 60.0944 204.51 60.0944 204.51 60.3456C204.51 60.5968 204.613 60.5968 204.613 60.5968C204.613 60.5968 204.51 60.5968 204.406 60.5968ZM204.821 60.3456C204.821 60.3456 204.925 60.3456 205.029 60.3456C204.925 60.3456 204.925 60.3456 204.821 60.3456ZM205.444 60.848C205.34 60.848 205.34 60.848 205.236 60.848C205.132 60.848 205.132 60.848 205.132 60.5968C205.34 60.5968 205.34 60.5968 205.34 60.5968C205.444 60.5968 205.444 60.5968 205.444 60.848C205.444 60.848 205.444 60.5968 205.444 60.848ZM205.547 60.0944C205.34 60.0944 205.34 60.0944 205.444 60.3456C205.34 60.0944 205.132 59.8432 204.925 60.0944C204.717 60.0944 204.51 60.0944 204.406 59.8432C204.613 59.8432 204.925 59.8432 205.132 59.8432C205.34 59.8432 205.651 59.8432 205.859 60.0944C205.755 60.0944 205.755 60.3456 205.547 60.0944ZM205.859 60.5968H205.755C205.755 60.5968 205.755 60.5968 205.859 60.5968C205.859 60.5968 205.755 60.5968 205.859 60.5968ZM206.066 60.848C205.962 60.848 205.962 60.848 205.962 60.5968C206.066 60.5968 206.17 60.5968 206.17 60.5968C206.274 60.5968 206.378 60.848 206.378 60.848C206.378 60.5968 206.17 60.5968 206.066 60.848ZM206.17 60.0944C206.066 60.0944 205.859 60.0944 205.755 59.8432C205.859 59.8432 206.066 59.8432 206.274 59.8432C206.585 59.8432 206.689 60.0944 206.793 60.3456C206.585 60.3456 206.378 60.0944 206.17 60.0944ZM207.83 60.3456C207.519 60.0944 207.312 60.0944 207 60.3456V59.8432C207.312 59.8432 207.623 59.8432 207.934 59.8432C208.246 59.8432 208.557 59.8432 208.868 60.0944C208.557 60.5968 208.142 60.5968 207.83 60.3456ZM209.387 60.3456C209.283 60.3456 209.179 60.3456 208.972 60.3456C208.972 60.3456 208.972 60.0944 209.179 60.0944C209.387 60.3456 209.387 60.3456 209.387 60.3456ZM209.802 60.3456H209.698V60.0944L209.802 60.3456ZM211.981 59.8432C211.67 59.8432 211.463 59.592 211.151 59.3408C211.463 59.3408 211.774 59.3408 212.085 59.3408C212.396 59.3408 212.708 59.592 213.019 59.592C212.708 60.0944 212.397 60.0944 211.981 59.8432Z" fill="black"/>
<path d="M189.88 57.8335C190.088 58.0847 190.192 58.0847 190.192 57.8335C190.088 57.8335 189.984 57.8335 189.88 57.8335Z" fill="black"/>
<path d="M188.012 57.5823C187.805 57.5823 187.701 57.5823 187.597 57.8335C187.908 57.8335 188.22 57.8335 188.427 57.8335C188.427 57.5823 188.22 57.5823 188.012 57.5823Z" fill="black"/>
<path d="M188.531 57.5823C188.635 57.8335 188.739 58.0847 188.946 57.8335C189.154 57.8335 189.361 57.8335 189.569 58.0847V57.8335C189.569 57.8335 189.569 57.8335 189.569 57.5823C189.361 57.5823 189.258 57.8335 189.05 57.5823C188.843 57.5823 188.635 57.5823 188.531 57.5823Z" fill="black"/>
<path d="M187.286 57.8334H187.39C187.494 57.8334 187.39 57.5822 187.286 57.8334C187.182 57.5822 187.182 57.5822 187.286 57.8334C187.286 57.8334 187.182 57.8334 187.286 57.8334Z" fill="black"/>
<path d="M193.201 60.0945C193.305 60.0945 193.409 60.0945 193.409 59.8433C193.305 59.8433 193.201 60.0945 193.201 60.0945Z" fill="black"/>
<path d="M163.003 57.331C162.691 57.0798 162.276 57.331 161.965 57.5822C162.172 57.5822 162.38 57.5822 162.588 57.5822C162.899 57.5822 163.106 57.5822 163.314 57.5822C163.522 57.5822 163.729 57.5822 163.937 57.5822C164.144 57.5822 164.248 57.331 164.248 57.0798C163.937 57.331 163.522 57.331 163.003 57.331Z" fill="black"/>
<path d="M201.607 60.3456C201.711 60.3456 201.815 60.3456 201.815 60.3456C201.711 60.0944 201.607 60.0944 201.607 60.3456Z" fill="black"/>
<path d="M185.834 59.3408C185.73 59.3408 185.626 59.3408 185.626 59.3408C185.522 59.592 185.522 59.592 185.73 59.592C185.626 59.592 185.73 59.592 185.834 59.3408C185.834 59.592 185.834 59.592 185.834 59.3408Z" fill="black"/>
<path d="M176.908 59.8432H177.012H177.117C177.012 59.592 176.908 59.592 176.908 59.8432Z" fill="black"/>
<path d="M192.786 59.8433V60.0945H192.89C192.89 60.0945 192.89 59.8433 192.994 59.8433C192.89 59.8433 192.89 59.8433 192.89 59.8433C192.89 59.8433 192.89 59.8433 192.786 59.8433Z" fill="black"/>
<path d="M169.437 57.5822C169.541 57.5822 169.645 57.5822 169.749 57.0798C169.541 57.0798 169.437 57.331 169.437 57.5822Z" fill="black"/>
<path d="M171.72 57.3311C172.031 57.5823 172.342 57.8335 172.757 57.8335C173.173 57.8335 173.588 57.8335 174.003 57.5823C173.691 57.3311 173.276 57.3311 172.965 57.3311C172.757 57.3311 172.342 57.3311 171.72 57.3311Z" fill="black"/>
<path d="M174.522 57.0798C174.314 57.0798 174.21 57.0798 174.003 57.331C174.314 57.331 174.625 57.331 174.937 57.331C174.833 57.331 174.729 57.0798 174.522 57.0798Z" fill="black"/>
<path d="M170.578 57.3311C170.163 57.0799 169.852 57.3311 169.748 57.5823C170.059 57.5823 170.474 57.3311 170.786 57.5823C171.097 57.5823 171.305 57.5823 171.616 57.3311C171.305 57.3311 170.993 57.3311 170.578 57.3311Z" fill="black"/>
<path d="M166.842 57.3311C166.531 57.3311 166.116 57.3311 165.805 57.5823C166.116 57.5823 166.531 57.3311 166.842 57.5823C167.154 57.5823 167.465 57.5823 167.776 57.3311C167.569 57.3311 167.257 57.3311 166.842 57.3311Z" fill="black"/>
<path d="M168.71 57.3312C168.503 57.3312 168.295 57.3312 167.984 57.3312C168.191 57.5824 168.399 57.5824 168.606 57.5824C168.814 57.5824 169.022 57.5824 169.125 57.3312C169.022 57.08 168.918 57.08 168.71 57.3312Z" fill="black"/>
</g>
<defs>
<clipPath id="clip0_4270_32905">
<rect width="137.075" height="10" fill="white" transform="translate(78.1044 54.4282)"/>
</clipPath>
</defs>
</svg>
