<svg width="245" height="67" viewBox="0 0 245 67" fill="none" xmlns="http://www.w3.org/2000/svg">
<path d="M0.586679 39.4851C0.820525 41.3374 1.37787 43.1342 2.23377 44.7942C2.34006 44.9902 2.21713 45.3054 2.31326 45.5115C3.63314 48.496 5.3856 51.2708 7.51425 53.7451C7.62239 53.8477 7.7407 53.941 7.8664 54.0214L7.95513 53.9299C7.90707 53.8394 7.85346 53.7525 7.79615 53.6684C6.33485 51.7911 5.15268 49.7115 4.28939 47.495C4.2746 47.4174 4.2441 47.3434 4.19974 47.2778C3.403 46.5208 3.39098 45.4875 3.20797 44.5133C3.19503 44.4504 3.17285 44.3903 3.14142 44.3358C2.62289 43.2821 2.27906 42.1517 2.12193 40.988C2.09327 40.7995 2.13672 40.6072 2.24393 40.4492C2.41585 41.208 2.58223 41.9687 2.76431 42.7248C2.83364 43.0381 2.92884 43.345 3.04899 43.6426C3.85775 45.5401 4.39753 47.5477 5.48358 49.3362C6.53265 51.1414 7.73515 52.8531 9.08 54.4512C9.26023 54.6047 9.46266 54.7304 9.67894 54.8247C9.73532 54.8505 9.78893 54.8829 9.83792 54.9208C10.4313 55.5012 11.0339 56.0761 11.6089 56.6742C11.7632 56.8331 11.8233 57.0827 11.973 57.25C12.1588 57.433 12.3594 57.6012 12.572 57.7519C14.1442 59.0246 15.856 60.1153 17.6731 61.0035C17.7637 61.0516 17.8672 61.0682 17.968 61.0479C17.8682 60.9684 17.772 60.8815 17.6694 60.8048C16.2627 59.7354 14.9853 58.5043 13.8632 57.1382C13.0286 56.1473 12.047 55.2822 11.1476 54.3486C10.2178 53.5343 9.38409 52.6174 8.66222 51.6137C6.39585 47.7437 3.9927 43.9226 2.74213 39.5554C2.46114 38.5349 2.26242 37.4933 2.14873 36.4414C1.98976 35.0578 1.93245 33.6621 1.82985 32.271C1.82523 32.2026 1.7975 32.1388 1.75036 32.0889C1.66348 32.5113 1.23831 32.8062 1.352 33.3118C1.36494 33.37 1.07193 33.5872 0.939758 33.5715C0.36947 33.504 0.208643 33.2961 0.176293 32.7184C0.170747 32.6232 0.176293 32.5271 0.176293 32.4882C0.424003 32.4762 0.668017 32.4171 0.893544 32.3145C1.01648 32.2248 0.998913 31.941 1.04143 31.7442C1.09966 31.4059 1.19486 31.075 1.32334 30.757C1.27066 30.5398 1.11445 30.3513 1.43518 30.0888C1.54424 30 1.39636 29.5647 1.32519 29.2985C1.2725 29.0998 1.12462 28.9269 1.0747 28.7282C1.05622 28.5803 1.07748 28.4306 1.13571 28.2938C1.22167 28.0359 1.43611 27.778 1.4167 27.534C1.35015 25.6697 1.79473 23.823 2.70146 22.1935C3.31981 20.9263 3.90211 19.6433 4.50013 18.3678C4.51862 18.3235 4.5408 18.28 4.56668 18.2393C6.39031 15.363 8.51618 12.689 10.9082 10.2636C12.1413 9.08702 13.5157 8.0703 15.001 7.23474C15.1138 7.17558 15.221 7.10441 15.3199 7.024C17.7415 5.08576 20.4451 3.52925 23.3381 2.41086C26.1138 1.21483 29.0863 0.542863 32.106 0.427327C34.1477 0.250787 36.2015 0.250787 38.2433 0.427327C41.9441 0.933838 45.5036 2.18349 48.7081 4.10139C50.1176 4.92771 51.4394 5.90006 52.8083 6.79662C53.1558 7.02492 53.5255 7.21718 53.886 7.42791C57.7662 9.68319 60.991 12.9108 63.2426 16.7928C63.8868 17.7911 64.4663 18.829 64.9784 19.9012C66.3325 22.7397 67.2383 25.7714 67.6626 28.8881C67.9019 31.4253 68.0674 33.9763 68.1044 36.5237C68.0526 39.6931 67.4444 42.8283 66.3094 45.7879C65.6504 47.6383 64.8703 49.4425 63.9737 51.1903C63.0605 52.8143 61.9606 54.3255 60.6952 55.6926C58.3836 58.6207 55.4832 61.0303 52.1816 62.7671C48.8347 64.4133 45.2438 65.5021 41.5485 65.9966C38.3847 66.4633 35.1783 66.5641 31.9913 66.297C29.1223 66.0687 26.306 65.3912 23.6468 64.2903C23.5461 64.2386 23.4389 64.1997 23.328 64.1766C21.5431 63.8115 19.8193 63.1969 18.2065 62.3502C16.0944 61.4269 14.3716 59.9036 12.4306 58.7279C10.2196 57.2953 8.25923 55.5105 6.626 53.4438C4.91976 51.4307 3.5666 49.144 2.62197 46.6798C2.59332 46.6049 2.58685 46.5079 2.53509 46.457C1.73835 45.6843 1.71339 44.6362 1.51836 43.6472C1.49988 43.5557 1.43333 43.4753 1.4056 43.3838C1.06731 42.234 0.728096 41.0841 0.406442 39.9297C0.381486 39.8419 0.488704 39.7171 0.586679 39.4851ZM65.6929 26.1328C65.6929 26.1947 65.6929 26.2576 65.7021 26.3195C65.9147 28.2956 66.2262 30.2672 66.3112 32.2488C66.3907 34.0235 66.1633 35.8074 66.1606 37.5894C66.1541 41.6905 63.3008 50.1912 59.7127 54.0464C58.9955 54.8145 58.3189 55.6186 57.6904 56.3294L58.2431 57.1261L58.0037 56.8867C58.733 56.4135 59.4142 55.8682 60.0371 55.2609C61.8534 53.0935 63.4127 50.7226 64.6836 48.1956C65.8944 45.8396 66.644 43.2747 66.8926 40.6368C67.0886 38.5784 67.2207 36.5126 67.3067 34.4477C67.339 33.6565 67.0978 32.8533 67.0978 32.0566C66.9841 30.0139 66.509 28.0082 65.6929 26.1328ZM27.3671 1.84519L27.3745 2.02358C27.5168 2.01711 27.6592 2.00602 27.8006 2.00417C28.8571 1.99123 29.9145 1.96073 30.9709 1.97275C32.5884 1.98938 34.205 2.06979 35.8207 2.05685C37.3753 1.95703 38.9356 2.08181 40.4542 2.42934C42.6059 3.04677 44.7586 3.70486 46.9057 4.34263C47.0065 4.3722 47.11 4.39254 47.2117 4.41749C46.8318 4.11433 46.4297 3.84073 46.0082 3.59857C45.2873 3.14382 44.4711 2.86191 43.6226 2.77595C43.2954 2.7473 42.9608 2.6826 42.6318 2.63361C41.5763 2.47001 40.5309 2.25003 39.4984 1.97644C37.2774 1.31372 34.9583 1.03829 32.6439 1.16307C30.8785 1.32205 29.1251 1.61689 27.3671 1.84519ZM19.4339 6.23465C19.0355 6.23465 18.5216 6.22911 18.0077 6.2402C17.9181 6.26053 17.8358 6.30397 17.7683 6.3659C16.8265 7.03139 15.8957 7.71445 14.9419 8.36422C13.6303 9.26356 12.4851 10.3829 11.5553 11.6732C11.3306 11.9837 11.0866 12.2804 10.8241 12.5596C9.22326 14.2085 7.85254 16.0663 6.74893 18.0813C6.67499 18.2209 6.60752 18.3632 6.53727 18.5055C7.46618 17.3086 8.34241 16.0756 9.24914 14.8722C11.2872 12.0346 13.9048 9.66285 16.9291 7.91409C17.8469 7.40666 18.6806 6.74671 19.4321 6.23835L19.4339 6.23465ZM57.5221 57.8517C57.1654 57.3738 56.9056 57.5698 56.645 57.8369C56.486 57.9959 56.3344 58.2316 56.1449 58.2686C55.5774 58.3823 55.277 58.8564 54.8454 59.1457C54.704 59.2409 54.6661 59.4886 54.581 59.6661L54.6707 59.7345L57.5221 57.8517ZM2.49996 26.6874L4.13226 21.4734C3.95942 21.7369 3.6276 22.2406 3.29948 22.749C3.26898 22.8026 3.24957 22.8608 3.24125 22.9209C3.11554 23.5938 2.99816 24.2667 2.86691 24.9386C2.74305 25.5579 2.60441 26.1799 2.49904 26.6865L2.49996 26.6874ZM63.2814 18.5804L64.2445 20.6822C64.5273 20.4539 64.1086 19.5038 63.2805 18.5786L63.2814 18.5804ZM2.85859 31.0611C3.2015 30.9234 3.21906 30.574 2.90203 30.1045L2.85859 31.0611Z" fill="#F6CD45"/>
<path d="M0.421832 39.2467C0.356207 39.1497 0.307217 39.0416 0.278564 38.9279C0.260079 38.5785 0.309067 38.2236 0.263777 37.8797C0.209244 37.4712 0.0632046 37.0747 0.00220133 36.667C-0.0181331 36.5349 0.107572 36.3805 0.166727 36.2363L0.297051 36.2742L0.525352 39.1913L0.421832 39.2467Z" fill="#F6CD45"/>
<path d="M2.09743 38.9853C1.96341 38.3642 1.40328 37.7893 1.82384 37.1626L1.97265 37.1543L2.09743 38.9853Z" fill="#F6CD45"/>
<path d="M19.5508 38.9961C21.671 39.8463 23.1972 39.8463 24.1295 38.9961C25.5279 37.7209 24.3212 33.8504 26.2798 32.783C28.2382 31.7155 31.2222 36.4472 34.0112 34.8903C36.8001 33.3333 33.7484 29.1818 35.6838 27.4988C37.6193 25.8157 40.136 27.7138 40.5759 24.8996C41.0158 22.0855 38.5233 23.306 38.0451 20.6466C37.7262 18.8738 37.7262 17.9415 38.0451 17.8499M38.0961 48.9569C36.5864 47.4118 36.0429 45.9757 36.4656 44.6483C37.0998 42.6573 38.1458 42.775 38.6019 41.5439C39.0579 40.3128 37.7696 38.5594 40.6283 37.0605C42.5341 36.0612 45.1544 37.2191 48.4893 40.5339M34.0508 49.4802C42.9487 49.4802 50.1619 42.2671 50.1619 33.3691C50.1619 24.4712 42.9487 17.2581 34.0508 17.2581C25.1529 17.2581 17.9397 24.4712 17.9397 33.3691C17.9397 42.2671 25.1529 49.4802 34.0508 49.4802Z" stroke="black" stroke-width="2" stroke-linecap="round"/>
<path d="M83.3474 32.1357H112.222L111.482 36.5743H104.482C106.223 38.6293 107.942 40.5609 109.64 42.3693L105.106 45.575L103.914 43.7255C103.331 43.7255 102.157 43.7666 100.394 43.8488C94.9495 44.0132 91.679 44.1365 90.5819 44.2187C89.2349 44.3009 87.7075 44.4653 85.9997 44.7119C85.8193 44.7941 85.6458 44.8352 85.4791 44.8352L84.0534 40.6431C85.4964 39.9855 86.71 39.2047 87.6941 38.3005C88.3597 37.8073 88.9974 37.2319 89.6071 36.5743H82.6071L83.3474 32.1357ZM85.5309 30.2862C85.475 30.1218 85.3563 29.8341 85.1749 29.4231C84.4628 27.697 83.9048 26.5462 83.5008 25.9708C90.161 23.0117 95.0634 19.6005 98.2078 15.7372L104.292 15.9838C104.195 16.066 104.084 16.2304 103.959 16.477C103.752 16.7236 103.592 16.9291 103.482 17.0935C105.795 20.7102 109.37 23.5049 114.208 25.4776C113.239 26.7928 112.11 28.3135 110.822 30.0396C109.223 29.1354 107.825 28.2724 106.629 27.4504L106.218 29.9163H90.0926L90.4628 27.697C88.4375 28.8477 86.7936 29.7108 85.5309 30.2862ZM91.6356 40.1499C95.3856 40.1499 98.5175 40.1088 101.031 40.0266C100.571 39.2868 100.077 38.506 99.547 37.684L101.357 36.5743H95.4821C94.9694 37.1497 94.1308 37.9306 92.9663 38.917C92.3703 39.4923 91.9268 39.9033 91.6356 40.1499ZM99.9896 20.7924C98.6035 22.1075 96.6347 23.6693 94.083 25.4776H104.083C102.761 24.4091 101.397 22.8473 99.9896 20.7924ZM142.369 38.0539C141.19 38.6293 139.962 39.2458 138.686 39.9033C140.117 40.3143 141.896 40.6431 144.021 40.8897C142.955 42.2871 141.979 43.6433 141.093 44.9585C136.34 43.9721 133.052 42.4515 131.228 40.3965C131.078 41.3007 130.927 42.2049 130.776 43.109C126.167 44.2598 123.322 45.0818 122.24 45.575L120.67 42.246C121.793 41.5062 122.423 40.4787 122.559 39.1636L123.032 36.3277H121.407C120.442 39.6156 118.817 42.6159 116.531 45.3284C115.667 44.0132 114.657 42.8213 113.502 41.7528C114.818 39.8622 115.793 38.0128 116.428 36.2044C117.049 34.4783 117.675 31.7247 118.306 27.9436L120.198 16.6003H146.448L144.905 25.8475H140.53L140.242 27.5737H144.867L144.292 31.026H139.667L139.379 32.7521H144.879L144.282 36.3277H141.032L142.369 38.0539ZM124.415 20.5458L124.127 22.2719H140.627L140.915 20.5458H124.415ZM126.999 40.2732C127.513 40.191 128.249 40.0266 129.206 39.78C129.817 39.6156 130.254 39.4923 130.518 39.4101C129.933 38.4238 129.479 37.3963 129.157 36.3277H127.657L126.999 40.2732ZM123.53 25.8475L123.242 27.5737H127.117L127.405 25.8475H123.53ZM122.667 31.026C122.571 31.6014 122.433 32.1768 122.254 32.7521H126.254L126.542 31.026H122.667ZM132.03 25.8475L131.742 27.5737H135.492L135.78 25.8475H132.03ZM131.167 31.026L130.879 32.7521H134.629L134.917 31.026H131.167ZM135.099 38.1772C136.125 37.5196 137.103 36.9031 138.032 36.3277H133.657C134.034 37.0675 134.514 37.684 135.099 38.1772ZM174.26 41.013L169.518 44.7119C168.14 43.4789 166.93 42.4926 165.886 41.7528C163.141 43.7255 159.684 44.7119 155.518 44.7119C149.212 44.5475 146.366 42.1227 146.981 37.4374C147.682 34.2317 150.281 31.6425 154.777 29.6697C153.174 27.286 152.566 25.19 152.951 23.3816C153.761 19.0251 156.964 16.8058 162.561 16.7236C167.27 16.9702 169.504 19.0662 169.262 23.0117C169.144 26.2174 166.663 28.6012 161.82 30.1629C162.738 31.1493 164.2 32.6288 166.204 34.6016C166.413 34.8482 166.594 35.0126 166.747 35.0948C167.8 33.7796 168.636 32.0124 169.256 29.793L173.843 31.5192C173.292 33.3275 172.012 35.5058 170.003 38.0539C170.462 38.3005 171.172 38.7937 172.131 39.5334C173.022 40.191 173.731 40.6842 174.26 41.013ZM164.117 23.135C164.308 21.4911 163.577 20.628 161.924 20.5458C159.84 20.5458 158.648 21.45 158.346 23.2583C158.196 24.6557 158.72 26.0119 159.918 27.3271C162.346 26.2585 163.746 24.8612 164.117 23.135ZM163.005 38.7937C162.796 38.5471 162.434 38.2183 161.919 37.8073C159.581 35.3414 157.959 33.5741 157.054 32.5055C154.612 33.6563 153.24 35.1359 152.938 36.9442C152.61 39.4101 153.891 40.7253 156.78 40.8897C158.864 40.8897 160.938 40.191 163.005 38.7937ZM207.771 23.0117H203.396L206.002 23.8748C205.781 24.2036 205.407 24.6968 204.881 25.3543C204.341 26.0941 203.918 26.6284 203.613 26.9572H208.113L207.435 31.026H186.685L187.199 27.9436H185.199L183.8 36.3277C184.064 36.2455 184.494 36.1633 185.091 36.0811C185.619 35.9167 186.007 35.8345 186.257 35.8345C186.175 36.3277 186.08 37.1497 185.971 38.3005C185.779 39.4512 185.684 40.2732 185.685 40.7664C181.978 41.5062 178.639 42.2871 175.669 43.109L175.783 37.9306C176.13 37.8484 176.644 37.7662 177.324 37.684C177.935 37.5196 178.407 37.4374 178.74 37.4374L180.324 27.9436H177.824L178.605 23.2583H181.105L182.339 15.8605H187.214L185.98 23.2583H188.355L187.738 26.9572H192.113C191.918 26.6284 191.667 26.1352 191.36 25.4776C191.123 24.9023 190.906 24.4502 190.711 24.1214L193.521 23.0117H189.021L189.679 19.0662H196.429C196.428 18.573 196.365 17.9566 196.238 17.2168C196.14 16.8058 196.07 16.477 196.028 16.2304L201.714 15.8605C201.743 16.1893 201.779 16.7236 201.822 17.4634C201.879 18.121 201.915 18.6552 201.929 19.0662H208.429L207.771 23.0117ZM190.569 45.2051H185.694L187.751 32.8754H205.751L203.694 45.2051H198.819L199.046 43.8488H190.796L190.569 45.2051ZM191.968 36.8209L191.433 40.0266H199.683L200.218 36.8209H191.968ZM197.132 26.0941L194.863 26.9572H198.613C198.821 26.7106 199.098 26.2996 199.444 25.7242C199.762 25.3132 200.372 24.4091 201.271 23.0117H195.521C196.107 23.9981 196.644 25.0256 197.132 26.0941ZM222.912 16.2304H227.537L225.027 31.2726C224.41 34.9715 223.694 37.7662 222.879 39.6567C222.064 41.5473 220.734 43.52 218.892 45.575C218.739 45.4928 218.516 45.3284 218.224 45.0818C216.833 43.931 215.803 43.109 215.135 42.6159C216.826 40.9719 217.997 39.4512 218.646 38.0539C219.282 36.7387 219.868 34.4783 220.402 31.2726L222.912 16.2304ZM236.412 16.2304H241.162L236.411 44.7119H231.661L236.412 16.2304ZM229.476 17.3401H234.226L229.99 42.7392H225.24L229.476 17.3401ZM218.383 32.1357C218.526 33.7796 218.724 35.3414 218.977 36.8209C217.313 38.3005 215.581 39.9444 213.779 41.7528C212.906 42.4926 212.102 43.3145 211.368 44.2187L208.923 40.8897C209.935 39.8211 210.543 38.6704 210.749 37.4374L211.983 30.0396H209.608L210.39 25.3543H217.39L215.888 34.355C216.678 33.6152 217.51 32.8754 218.383 32.1357ZM217.328 15.9838C217.983 17.0524 218.917 18.6963 220.13 20.9157C220.325 21.2445 220.451 21.4911 220.507 21.6555L215.7 24.2447C214.945 22.2719 213.99 20.2581 212.832 18.2031L217.328 15.9838Z" fill="black"/>
<g clip-path="url(#clip0_4270_44355)">
<path d="M180.21 59.7396L180.462 59.9908C180.588 59.7396 180.462 59.4883 180.21 59.7396Z" fill="black"/>
<path d="M180.839 58.9858C180.713 58.9858 180.713 58.9858 180.713 59.237C180.839 59.237 180.839 59.237 180.965 59.237C180.965 59.237 180.965 58.9858 180.839 58.9858Z" fill="black"/>
<path d="M179.581 59.7395C179.581 59.7395 179.707 59.9907 179.833 59.9907C179.959 59.9907 180.085 59.9907 179.959 59.7395H179.581Z" fill="black"/>
<path d="M164.996 60.2419C165.108 60.2419 165.108 60.2419 165.108 59.9907C164.996 60.2419 164.996 60.2419 164.996 60.2419Z" fill="black"/>
<path d="M182.347 59.9907C182.473 59.9907 182.599 59.9907 182.599 59.7395C182.473 59.7395 182.347 59.7395 182.347 59.9907Z" fill="black"/>
<path d="M177.318 59.7396C177.066 59.4883 176.815 59.7396 176.689 59.9908C176.941 59.9908 177.192 59.9908 177.444 59.9908C177.695 59.9908 177.947 59.9908 178.072 59.7396C177.821 59.9908 177.569 59.9908 177.318 59.7396Z" fill="black"/>
<path d="M185.114 59.2371C184.988 59.2371 184.862 59.2371 184.862 59.2371C184.988 59.4883 185.114 59.4883 185.114 59.2371Z" fill="black"/>
<path d="M164.493 60.2419C164.605 60.2419 164.605 60.2419 164.493 60.2419C164.605 60.2419 164.605 60.2419 164.605 59.9907C164.605 60.2419 164.605 60.2419 164.493 60.2419Z" fill="black"/>
<path d="M194.92 59.9906C194.92 59.7394 195.008 59.7394 194.92 59.9906C194.92 59.7394 194.92 59.7394 194.92 59.9906Z" fill="black"/>
<path d="M193.915 59.7395C193.663 59.7395 193.663 59.7395 193.663 59.9907C193.789 59.9907 193.915 59.9907 194.041 59.9907C194.167 59.7395 194.041 59.7395 193.915 59.7395Z" fill="black"/>
<path d="M191.902 59.9906C192.155 60.2419 192.281 60.2419 192.281 59.9906C192.029 59.7394 191.902 59.7394 191.902 59.9906Z" fill="black"/>
<path d="M189.765 59.9906C189.891 60.2419 190.142 59.9906 190.268 59.9906C190.142 59.9906 190.017 59.9906 189.891 59.9906C189.891 59.7394 189.765 59.7394 189.765 59.9906Z" fill="black"/>
<path d="M190.897 59.9907C191.023 59.9907 191.023 59.9907 191.149 59.9907C191.275 59.9907 191.275 59.9907 191.275 59.7395C191.275 59.7395 191.149 59.7395 190.897 59.9907C190.897 59.7395 190.897 59.7395 190.897 59.9907Z" fill="black"/>
<path d="M145.997 60.9954C145.997 60.9954 145.885 60.9954 145.885 61.2466C145.885 60.9954 145.997 60.9954 145.997 60.9954C145.997 61.2466 145.997 61.2466 145.997 60.9954Z" fill="black"/>
<path d="M190.519 55.7202C190.897 55.7202 191.274 55.9714 191.651 55.9714C192.028 55.9714 192.28 55.9714 192.531 55.7202C192.783 55.9714 192.908 55.9714 193.16 55.9714C194.04 55.7202 194.92 55.7202 195.8 55.7202C196.68 55.7202 197.56 55.7202 198.44 55.7202C198.566 55.7202 198.566 55.7202 198.692 55.9714C198.692 55.9714 198.818 55.9714 198.818 56.2226C199.32 55.9714 199.823 55.7202 200.326 55.9714C200.829 56.2226 201.206 56.2226 201.709 55.7202C199.572 55.469 197.686 55.469 195.926 55.469C194.166 55.7202 192.405 55.7202 190.519 55.7202C190.394 55.7202 190.394 55.7202 190.519 55.7202Z" fill="black"/>
<path d="M189.136 56.2225C189.262 56.2225 189.514 56.2225 189.639 56.2225C189.765 56.2225 190.017 56.2225 190.142 56.2225C190.142 56.2225 190.142 55.9713 190.268 55.9713V55.72C190.017 55.72 189.891 55.72 189.765 55.72C189.639 55.9713 189.514 55.9713 189.388 55.9713C189.514 55.9713 189.514 55.72 189.514 55.72C189.514 55.72 189.388 55.4688 189.262 55.72C189.136 55.72 189.136 55.9713 189.262 55.9713C189.262 55.9713 189.262 55.9713 189.136 56.2225Z" fill="black"/>
<path d="M197.686 58.9858C197.686 59.237 197.686 59.4882 197.812 59.4882C197.812 59.237 197.812 59.237 197.938 58.9858C197.938 58.9858 197.812 58.9858 197.686 58.9858Z" fill="black"/>
<path d="M202.841 55.9714C202.841 55.7202 202.841 55.7202 202.841 55.9714C202.715 55.7202 202.715 55.7202 202.715 55.7202C202.715 55.7202 202.464 55.9714 202.212 55.7202C201.961 55.7202 201.835 55.7202 201.835 55.9714C201.961 56.2226 202.212 56.2226 202.338 56.2226C202.589 55.9714 202.715 55.9714 202.841 55.9714Z" fill="black"/>
<path d="M154.798 60.7441H154.687V60.9953H154.798V60.7441Z" fill="black"/>
<path d="M146.137 60.9953C146.388 60.9953 146.64 60.9953 146.64 60.7441C146.514 60.9953 146.388 60.9953 146.137 60.9953C146.137 60.9953 146.137 60.7441 146.137 60.9953Z" fill="black"/>
<path d="M152.801 60.9954H153.053V60.7441H152.801V60.9954Z" fill="black"/>
<path d="M158.836 60.2419C159.088 60.4931 159.214 60.2419 159.214 59.9907C159.088 59.9907 159.088 59.9907 158.962 59.9907C158.962 60.2419 158.836 60.2419 158.836 60.2419Z" fill="black"/>
<path d="M153.806 56.9761C153.806 57.2273 153.806 57.2273 153.932 57.2273C153.932 56.9761 153.932 56.9761 154.184 56.9761C154.435 56.9761 154.435 56.9761 154.435 56.7249C153.932 56.7249 153.304 56.7249 152.675 56.7249C152.046 56.7249 151.418 56.7249 150.915 56.9761V57.2273C151.795 57.4785 152.801 57.2273 153.806 56.9761Z" fill="black"/>
<path d="M142.492 60.9954C142.365 60.9954 142.239 60.9954 142.239 61.2466C142.365 61.2466 142.492 61.4978 142.618 61.4978C142.744 61.2466 142.618 60.9954 142.492 60.9954Z" fill="black"/>
<path d="M155.567 57.2275C155.441 56.9763 155.441 56.9763 155.567 57.2275C155.818 56.9763 155.818 56.9763 155.692 56.7251C155.567 56.4739 155.441 56.4739 155.189 56.4739C154.938 56.4739 154.812 56.7251 154.687 56.7251C154.812 56.9763 154.938 56.9763 155.064 56.9763C155.189 56.9763 155.441 56.9763 155.567 57.2275Z" fill="black"/>
<path d="M156.195 56.9763C156.321 56.9763 156.447 56.9763 156.572 57.2275C157.201 56.9763 157.704 56.9763 158.333 57.2275L158.584 56.9763C158.71 56.9763 158.836 56.725 158.961 56.725C159.967 56.725 160.973 56.9763 161.979 56.9763C162.985 56.9763 164.116 56.9763 165.374 56.9763C165.374 56.9763 165.499 56.9763 165.499 56.725C165.499 56.725 165.499 56.4738 165.625 56.4738C166.128 56.4738 166.505 56.725 166.757 56.725C167.008 56.725 167.259 56.725 167.511 56.4738C168.014 56.725 168.517 56.725 169.02 56.725C169.523 56.4738 169.9 56.4738 170.403 56.4738C170.277 56.725 170.403 56.725 170.654 56.725C170.78 56.4738 171.031 56.4738 171.157 56.4738C171.283 56.4738 171.283 56.4738 171.283 56.725L171.409 56.9763C172.414 56.9763 173.169 56.9763 173.923 56.9763C174.678 56.9763 175.432 56.9763 176.186 56.9763C176.312 56.725 176.438 56.725 176.438 56.725L176.689 56.9763C176.941 56.725 177.318 56.4738 177.569 56.725C177.821 56.9763 178.198 56.725 178.449 56.4738C178.701 56.725 178.952 56.9763 179.204 56.9763C179.455 56.9763 179.832 56.9763 180.084 56.9763C180.461 56.9763 180.713 56.9763 180.964 56.725C181.215 56.725 181.467 56.725 181.844 56.9763C181.844 56.725 181.844 56.725 181.844 56.725L181.97 56.9763C182.096 56.725 182.221 56.4738 182.598 56.725C182.85 56.725 183.101 56.9763 183.227 56.9763C183.353 56.725 183.604 56.725 183.73 56.725C183.981 56.725 184.107 56.725 184.359 56.9763C184.359 56.725 184.359 56.725 184.484 56.725C184.862 56.9763 185.239 57.2275 185.616 56.9763C185.993 56.9763 186.37 56.9763 186.748 56.9763C186.748 56.725 186.748 56.725 186.873 56.725C187.125 56.9763 187.502 56.9763 187.753 56.725C188.005 56.725 188.382 56.725 188.633 56.725C188.256 56.2226 187.753 56.2226 187.376 56.4738C186.873 56.725 186.37 56.725 185.867 56.4738C184.862 56.4738 183.856 56.725 182.724 56.725C181.593 56.725 180.461 56.725 179.33 56.725C179.33 56.725 179.329 56.9763 179.455 56.9763C179.581 56.9763 179.581 56.9763 179.33 57.2275C179.078 56.9763 178.827 56.9763 178.575 56.725C178.324 56.725 177.946 56.725 177.695 56.9763C175.809 56.9763 173.923 56.9763 172.289 56.9763C170.654 56.9763 168.768 57.2275 167.008 57.2275C166.505 57.4787 166.002 57.4787 165.625 57.2275C165.122 56.9763 164.745 57.2275 164.242 57.4787C163.11 57.4787 161.979 57.4787 160.973 57.4787C159.967 57.4787 158.836 57.7299 157.704 57.7299C157.453 57.7299 157.201 57.7299 156.698 57.4787C156.321 57.4787 155.944 57.4787 155.567 57.7299C155.944 56.9763 156.07 56.9763 156.195 56.9763Z" fill="black"/>
<path d="M182.724 57.7298H183.604C183.856 57.7298 184.107 57.7298 184.359 57.7298C184.233 57.4786 183.981 57.4786 183.479 57.4786C182.976 57.2274 182.724 57.4786 182.724 57.7298Z" fill="black"/>
<path d="M208.876 57.9809C209.127 57.9809 209.379 57.9809 209.505 58.2321C209.756 58.2321 209.882 58.2321 210.008 57.9809C209.756 57.9809 209.63 57.9809 209.379 57.9809C209.253 57.7297 209.002 57.7297 208.876 57.9809Z" fill="black"/>
<path d="M204.224 57.7297C204.35 57.7297 204.475 57.7297 204.475 57.4785H203.972C203.972 57.7297 204.098 57.7297 204.224 57.7297Z" fill="black"/>
<path d="M207.241 57.7299C207.241 57.9811 207.367 58.2323 207.744 57.9811C207.996 57.9811 208.247 57.7299 208.373 57.7299C208.247 57.4787 207.996 57.4787 207.744 57.7299C207.619 57.7299 207.493 57.7299 207.241 57.7299Z" fill="black"/>
<path d="M199.069 57.4785C199.069 57.7297 199.069 57.7297 199.195 57.7297C199.321 57.7297 199.447 57.7297 199.447 57.7297C199.573 57.4785 199.447 57.4785 199.069 57.4785Z" fill="black"/>
<path d="M203.218 57.4785C203.218 57.7297 203.218 57.7297 203.344 57.7297H203.721C203.847 57.4785 203.595 57.4785 203.218 57.4785Z" fill="black"/>
<path d="M201.332 57.4787C200.829 57.2275 200.201 57.4787 199.823 57.9811C200.452 57.9811 200.955 57.7299 201.584 57.9811C202.087 57.9811 202.715 57.9811 203.218 57.7299C202.589 57.4787 201.961 57.4787 201.332 57.4787Z" fill="black"/>
<path d="M230.125 59.2371C229.999 59.2371 229.873 59.2371 229.873 59.2371C229.747 59.2371 229.747 59.4883 229.747 59.4883C229.747 59.7395 229.999 59.4883 230.125 59.2371Z" fill="black"/>
<path d="M214.534 57.9809C214.408 57.7297 214.157 57.7297 214.031 57.9809C214.408 57.9809 214.911 58.2321 215.414 58.2321C215.917 58.2321 216.294 58.2321 216.797 57.9809C216.545 57.9809 216.168 57.9809 215.917 57.9809C215.791 57.9809 215.414 57.9809 214.785 57.7297C214.785 57.9809 214.785 58.2321 214.534 57.9809Z" fill="black"/>
<path d="M243.071 60.9955C242.945 60.7443 242.819 60.493 242.694 60.493C242.694 60.493 242.819 60.493 242.819 60.2418C242.819 60.2418 242.819 60.2418 242.819 59.9906C242.819 59.9906 242.819 59.7394 242.694 59.7394C242.568 59.7394 242.568 59.7394 242.568 59.4882C241.311 59.237 240.053 58.7346 238.67 58.4834C237.287 58.2322 235.779 57.981 234.27 57.7298C232.761 57.4786 231.252 57.2274 229.869 57.2274L225.846 56.725C225.343 56.725 224.966 56.4738 224.589 56.4738C224.211 56.4738 223.834 56.4738 223.583 56.725C222.954 56.4738 222.2 56.2226 221.445 56.2226C220.565 56.2226 219.685 56.2226 218.805 56.2226C217.674 55.9714 216.668 55.7202 215.536 55.7202C214.405 55.7202 213.147 55.7202 212.016 55.4689C211.89 55.4689 211.89 55.4689 211.764 55.7202C211.639 55.7202 211.513 55.7202 211.513 55.7202L211.639 55.4689C210.884 55.4689 210.13 55.2177 209.375 55.2177C208.747 54.9665 207.992 55.2177 207.364 55.4689C207.238 55.2177 207.238 55.2177 207.112 55.2177C206.987 55.2177 206.861 55.2177 206.735 54.9665C206.484 54.9665 206.106 54.9665 205.855 54.9665C205.478 54.9665 205.226 54.9665 204.849 54.9665C204.598 54.9665 204.221 54.9665 203.969 54.7153C203.592 54.7153 203.34 54.7153 203.34 55.2177C204.221 54.9665 204.975 54.9665 205.855 54.9665C206.735 55.2177 207.489 55.2177 208.37 55.2177C208.495 55.2177 208.495 55.2177 208.495 55.4689C208.495 55.4689 208.495 55.7202 208.621 55.7202C208.747 55.7202 208.747 55.4689 208.747 55.4689C208.747 55.4689 208.747 55.4689 208.872 55.4689C209.375 55.7202 209.878 55.7202 210.381 55.4689C210.884 55.2177 211.261 55.4689 211.639 55.7202C212.267 55.7202 212.896 55.7202 213.524 55.7202C214.153 55.7202 214.782 55.7202 215.41 55.7202C215.536 55.7202 215.662 55.7202 215.662 55.7202C215.788 55.7202 215.913 55.9714 215.913 55.9714C216.039 55.9714 216.165 55.9714 216.165 55.9714C216.291 55.9714 216.416 55.9714 216.668 55.9714C216.793 55.9714 217.045 55.9714 217.171 56.2226C217.422 56.2226 217.548 56.2226 217.799 56.2226C217.925 56.2226 218.051 55.9714 218.176 55.9714C218.302 55.9714 218.428 55.9714 218.554 55.7202C218.679 55.7202 218.805 55.7202 218.931 55.9714C219.057 55.9714 219.182 56.2226 219.308 56.2226C219.559 56.2226 219.937 56.2226 220.188 56.2226C220.565 56.2226 220.943 56.2226 221.194 56.2226C221.445 56.2226 221.697 56.2226 222.074 56.2226C222.326 56.2226 222.577 56.2226 222.703 56.2226C222.828 56.2226 222.828 56.2226 222.828 56.4738C222.828 56.725 222.828 56.725 222.954 56.4738C223.331 56.2226 223.709 56.2226 224.211 56.4738C224.714 56.725 225.092 56.725 225.594 56.9762L225.846 56.725C226.726 56.9762 227.606 57.2274 228.486 57.2274C229.366 57.2274 230.372 57.4786 231.252 57.7298C232.007 57.7298 232.887 57.7298 233.893 57.7298C234.773 57.7298 235.653 57.981 236.533 58.4834C236.91 58.2322 237.413 58.2322 237.79 58.4834C238.167 58.7346 238.419 58.7346 238.796 58.9858C238.167 58.9858 237.539 58.9858 236.91 58.9858C236.281 58.9858 235.779 58.7346 235.15 58.4834C234.396 58.4834 233.641 58.4834 232.887 58.2322C232.132 57.981 231.378 57.981 230.624 57.981C230.498 57.7298 230.498 57.7298 230.372 57.7298C230.246 57.7298 230.246 57.7298 230.246 57.4786C230.121 57.4786 229.995 57.4786 229.995 57.4786C229.995 57.7298 229.869 57.7298 229.869 57.7298C229.618 57.4786 229.241 57.2274 228.989 57.4786C228.612 57.4786 228.361 57.4786 228.109 57.4786C227.48 57.4786 226.726 57.4786 226.097 57.2274C225.469 56.9762 224.714 56.9762 224.086 56.9762C222.451 56.9762 220.691 56.725 218.931 56.725C217.171 56.725 215.41 56.4738 213.524 56.4738C213.147 56.4738 212.77 56.2226 212.519 56.2226C212.141 56.2226 211.764 56.2226 211.513 56.4738C210.633 56.2226 209.627 56.2226 208.747 56.2226C207.867 56.2226 206.987 56.2226 206.106 55.9714C205.226 55.9714 204.472 55.9714 203.592 55.9714C202.712 55.9714 201.957 55.9714 201.077 55.7202C200.071 55.7202 199.066 55.7202 198.186 55.7202C197.305 55.7202 196.3 55.7202 195.419 55.7202C194.539 55.7202 193.659 55.4689 192.653 55.7202C191.648 55.7202 190.642 55.7202 189.762 55.7202C188.63 55.7202 187.624 55.7202 186.493 55.4689C185.487 55.4689 184.355 55.4689 183.224 55.7202C182.972 55.7202 182.595 55.7202 182.218 55.7202C181.841 55.7202 181.463 55.7202 181.086 55.7202C180.835 55.7202 180.583 55.7202 180.332 55.7202C180.08 55.7202 179.955 55.7202 179.703 55.7202C178.697 55.7202 177.566 55.4689 176.434 55.4689C175.303 55.4689 174.045 55.4689 172.788 55.7202L169.142 55.9714C167.885 55.9714 166.753 56.2226 165.622 56.2226C164.113 56.2226 162.604 56.2226 161.221 56.2226C159.712 56.2226 158.329 56.2226 156.821 56.4738C154.935 56.4738 152.923 56.4738 150.911 56.725C148.9 56.9762 146.888 56.9762 144.876 56.9762C145.002 56.725 145.128 56.725 145.128 56.725C145.253 56.725 145.379 56.725 145.379 56.4738C145.631 56.725 145.882 56.9762 146.259 56.725C146.636 56.4738 147.014 56.4738 147.265 56.725C147.265 56.725 147.265 56.4738 147.139 56.4738C147.139 56.4738 147.139 56.4738 147.265 56.2226C147.517 56.2226 147.894 56.2226 148.145 56.2226C148.522 56.2226 148.774 56.2226 149.277 56.2226C149.277 55.9714 149.403 55.9714 149.528 55.9714C149.654 55.9714 149.78 55.9714 149.905 55.9714C150.031 55.9714 150.157 55.9714 150.283 55.9714C150.408 55.9714 150.408 55.7202 150.408 55.7202C149.277 55.7202 148.019 55.9714 146.636 55.9714C145.253 55.9714 143.87 56.2226 142.487 56.4738C142.362 56.4738 142.362 56.4738 142.362 56.2226C142.362 56.2226 142.236 56.2226 142.11 56.2226C141.104 56.4738 140.099 56.4738 139.093 56.4738C138.087 56.4738 137.081 56.4738 136.201 56.725C135.698 56.4738 135.069 56.4738 134.566 56.725C133.938 56.9762 133.435 56.9762 132.806 56.725C132.681 56.725 132.68 56.9762 132.68 56.9762C132.68 56.9762 132.681 57.2274 132.555 57.2274C132.178 56.9762 131.8 56.725 131.423 56.9762C131.046 57.2274 130.543 57.2274 130.166 56.9762C125.137 57.4786 119.73 57.7298 114.324 57.981C108.792 58.2322 103.511 58.2322 98.3564 58.2322C95.2131 58.2322 92.1956 58.4834 89.1781 58.7346C86.2864 59.237 83.2689 59.237 80.1256 59.237C79.8742 58.9858 79.497 58.7346 79.1198 58.7346C78.7426 58.9858 78.4911 59.4882 78.3654 60.2418C78.2397 60.7443 78.114 61.4979 78.114 62.0003C78.3654 62.7539 78.7426 63.2563 79.1198 63.2563C79.6227 63.5075 79.9999 63.7587 80.5028 63.7587H82.8917C83.7718 63.7587 84.6519 63.7587 85.6577 63.7587C86.0349 63.5075 86.4121 63.2563 86.7893 63.2563C87.1665 63.2563 87.5437 63.2563 88.0466 63.2563C88.4238 63.2563 88.9267 63.2563 89.3039 63.2563C89.6811 63.2563 90.184 63.0051 90.5612 63.0051C91.0641 63.2563 91.567 63.2563 91.9442 63.2563C92.4471 63.2563 92.95 63.0051 93.4529 63.0051C93.9559 63.0051 94.4588 62.7539 94.9617 62.7539C95.4646 62.7539 96.0933 62.7539 96.5962 62.7539C96.8476 62.7539 97.0991 62.5027 97.4763 62.5027C99.2365 62.5027 100.871 62.5027 102.631 62.2515C104.391 62.0003 106.026 62.0003 107.786 62.2515C108.792 62.0003 109.798 62.0003 110.804 62.0003C111.935 62.0003 112.941 62.0003 114.073 62.2515C114.198 62.0003 114.324 61.7491 114.701 62.0003C115.078 62.0003 115.33 62.0003 115.707 62.0003C115.707 62.0003 115.707 61.7491 115.581 61.7491C115.456 61.7491 115.581 61.4979 115.707 61.4979C115.833 61.4979 115.958 61.4979 115.833 61.7491C115.833 62.0003 115.833 62.0003 116.084 62.0003C116.084 62.0003 116.084 61.7491 115.958 61.7491C115.833 61.7491 115.833 61.7491 116.084 61.4979C116.336 62.0003 116.713 62.0003 116.964 61.7491C117.342 61.4979 117.719 61.4979 117.97 61.7491C117.97 61.4979 117.97 61.2467 118.222 61.2467C118.347 61.2467 118.473 61.4979 118.473 61.2467C118.599 61.2467 118.725 61.2467 118.976 61.2467C118.976 61.2467 118.976 61.4979 118.85 61.4979C118.725 61.4979 118.725 61.4979 118.725 61.7491C118.976 61.7491 119.102 61.7491 119.102 61.7491C119.102 61.7491 119.102 61.4979 119.227 61.2467C119.353 61.2467 119.353 61.2467 119.353 61.4979C119.227 61.4979 119.353 61.7491 119.353 61.7491C119.982 61.7491 120.61 61.4979 121.113 61.4979C121.616 61.4979 122.119 61.4979 122.622 61.7491C122.748 61.2467 122.999 61.2467 123.251 61.4979C123.251 61.2467 123.377 60.9955 123.502 60.9955C123.754 60.9955 123.754 60.7443 123.628 60.493C123.879 60.493 123.879 60.7443 123.754 60.7443C123.628 60.9955 123.628 60.9955 123.754 61.2467H123.251C123.251 61.4979 123.377 61.7491 123.628 61.4979C123.879 61.2467 123.879 61.2467 123.879 61.2467C124.005 61.4979 124.131 61.4979 124.257 61.2467C124.382 60.9955 124.508 60.9955 124.634 61.2467C124.508 61.2467 124.508 61.4979 124.508 61.4979C124.508 61.7491 124.634 61.7491 124.634 61.7491C124.634 61.2467 124.885 60.7443 125.137 60.7443C125.262 60.9955 125.262 60.9955 125.137 60.9955C125.011 60.9955 125.011 61.2467 125.137 61.2467C125.388 60.9955 125.765 60.9955 126.017 61.2467C126.017 61.2467 126.017 60.9955 125.891 60.9955C125.765 60.9955 125.891 60.7443 126.017 60.7443C126.143 60.7443 126.268 60.7443 126.143 60.9955C126.143 61.2467 126.143 61.2467 126.268 61.2467C126.394 61.2467 126.645 60.9955 126.771 60.7443C126.897 60.7443 126.897 60.7443 126.897 60.9955C126.897 61.2467 126.897 61.2467 127.023 61.2467C127.274 60.9955 127.526 60.9955 127.777 60.9955C128.029 60.9955 128.154 60.9955 128.28 61.2467C128.406 60.9955 128.657 60.9955 128.783 60.9955C129.034 60.9955 129.286 60.9955 129.537 60.9955C129.789 60.9955 130.04 60.9955 130.292 60.9955C130.543 60.9955 130.669 60.7443 130.92 60.493V60.7443C130.92 60.7443 130.92 60.7443 130.92 60.9955C131.297 60.9955 131.549 60.9955 131.926 60.9955C132.303 60.7443 132.555 60.9955 132.429 61.2467C132.555 61.2467 132.681 60.9955 132.806 60.7443C132.932 60.493 133.058 60.493 133.309 60.2418C133.435 60.2418 133.435 60.493 133.435 60.7443C133.561 60.7443 133.812 60.7443 133.938 60.7443C134.064 60.7443 134.189 60.7443 134.189 60.9955C134.189 60.9955 134.315 60.7443 134.315 60.493C134.315 60.2418 134.315 60.2418 134.441 59.9906C134.566 59.9906 134.692 60.2418 134.566 60.2418C134.566 60.2418 134.566 60.493 134.692 60.493C135.069 60.2418 135.447 59.9906 135.824 60.2418C136.201 60.493 136.578 60.2418 136.83 59.9906V60.2418C137.081 60.2418 137.207 60.2418 137.332 60.2418C137.458 60.2418 137.584 60.2418 137.71 59.9906C137.835 60.2418 138.087 60.493 138.213 60.493C138.338 60.493 138.338 60.2418 138.338 60.2418C138.338 59.9906 138.338 59.9906 138.59 60.2418C138.464 60.2418 138.464 60.493 138.464 60.493C138.59 60.493 138.716 60.493 138.841 60.493C138.967 60.493 139.093 60.493 139.218 60.493V60.2418H138.967C138.841 60.2418 138.841 60.2418 138.841 60.2418C138.841 60.2418 138.841 60.2418 138.841 59.9906C139.093 59.9906 139.344 59.9906 139.721 59.9906C139.847 59.9906 139.847 60.2418 139.847 60.2418C139.721 60.2418 139.847 60.493 140.099 60.493H140.224L140.35 60.2418C140.601 60.2418 140.601 60.2418 140.601 60.493C140.601 60.7443 140.601 60.7443 140.727 60.7443C140.853 60.7443 140.853 60.493 140.853 60.493C140.853 60.493 140.853 60.2418 140.979 60.2418H141.482C141.482 60.493 141.482 60.493 141.607 60.7443V60.493C141.607 60.493 141.607 60.2418 141.733 60.2418C141.984 60.2418 142.236 60.2418 142.487 60.2418C142.739 59.9906 142.99 60.2418 143.116 60.493C143.242 60.493 143.367 60.2418 143.493 59.9906C143.619 59.7394 143.745 59.7394 143.996 59.7394C143.996 59.7394 144.122 59.7394 144.122 59.9906C144.248 59.9906 144.373 59.9906 144.499 59.7394C144.625 59.4882 144.751 59.4882 144.876 59.4882C144.876 59.7394 144.876 59.7394 145.002 59.7394C145.128 59.7394 145.128 59.9906 145.002 59.9906C145.379 59.4882 145.756 59.4882 146.134 59.4882C146.511 59.4882 147.014 59.4882 147.391 59.9906C147.391 59.9906 147.391 59.7394 147.265 59.7394C147.139 59.7394 147.139 59.7394 147.391 59.4882C147.517 59.7394 147.642 59.7394 147.894 59.4882C148.019 59.4882 148.271 59.4882 148.397 59.4882C148.145 59.7394 147.894 59.7394 147.642 59.7394C147.894 59.9906 148.271 60.2418 148.522 59.9906C148.774 59.7394 149.151 59.9906 149.403 60.2418C149.654 59.9906 149.905 59.7394 150.157 59.9906C150.408 60.2418 150.786 60.2418 151.037 59.9906V59.4882C150.786 59.4882 150.534 59.4882 150.157 59.4882C150.031 59.7394 149.78 59.4882 149.654 59.237C150.157 59.237 150.66 58.9858 151.037 59.237C151.414 59.237 151.791 59.237 152.294 58.9858C152.294 59.237 152.294 59.237 152.169 59.237C152.043 59.237 151.917 59.237 151.791 59.237C151.666 59.237 151.54 59.237 151.414 59.237C151.288 59.237 151.288 59.4882 151.414 59.4882C151.666 59.237 151.917 59.237 152.043 59.237C152.294 59.4882 152.546 59.4882 152.923 59.237C152.923 58.9858 152.923 58.7346 153.049 58.7346C153.174 58.9858 153.3 58.9858 153.3 58.7346C153.426 58.7346 153.552 58.7346 153.552 58.7346C153.677 58.9858 153.677 58.9858 153.426 58.9858C153.174 58.9858 153.174 58.9858 153.174 58.9858C153.174 59.237 153.426 59.237 153.677 58.9858C153.803 58.9858 153.803 58.7346 153.803 58.7346L153.677 58.4834C153.803 58.7346 154.054 58.4834 154.18 58.4834C154.306 58.2322 154.432 58.2322 154.557 58.4834C154.432 58.4834 154.432 58.7346 154.432 58.7346C154.432 58.7346 154.557 58.7346 154.557 58.9858C154.18 58.9858 154.054 58.9858 154.054 59.4882C154.18 59.237 154.432 59.237 154.557 59.237C154.683 59.237 154.935 59.237 155.186 58.9858C155.186 58.4834 155.312 58.4834 155.563 58.4834C155.815 58.4834 156.066 58.4834 156.318 58.4834V58.7346C156.318 58.7346 156.318 58.7346 156.318 58.9858H157.198C157.198 58.7346 157.072 58.7346 156.821 58.7346C156.569 58.7346 156.569 58.7346 156.569 58.4834C157.072 58.4834 157.575 58.4834 158.078 58.4834C158.581 58.4834 159.084 58.4834 159.461 57.981C159.838 58.4834 160.215 58.7346 160.592 58.7346C161.095 58.7346 161.473 58.7346 161.975 58.4834C161.724 58.4834 161.473 58.4834 161.095 58.4834C160.844 58.4834 160.592 58.4834 160.215 58.4834C160.718 58.2322 161.221 58.2322 161.724 58.2322C162.227 58.2322 162.604 58.2322 163.107 57.981C162.981 58.2322 163.107 58.2322 163.233 58.2322C163.358 58.2322 163.358 58.2322 163.233 58.2322C163.358 58.2322 163.484 58.4834 163.61 58.4834C163.736 58.4834 163.987 58.4834 164.113 58.7346C164.113 58.2322 164.239 57.981 164.364 57.981C164.49 57.981 164.741 57.981 164.867 58.2322C164.993 58.4834 165.119 58.4834 165.37 58.4834C165.496 58.4834 165.496 58.2322 165.244 58.2322C164.993 58.2322 164.993 57.981 165.119 57.981C165.244 57.981 165.496 57.981 165.622 57.981C165.747 57.7298 165.999 57.981 166.125 58.2322C165.999 58.2322 165.999 58.2322 165.999 58.2322H165.873C165.747 58.4834 165.747 58.7346 165.622 58.7346C166.125 58.4834 166.502 58.4834 167.005 58.4834C167.382 58.7346 167.759 58.4834 168.136 58.2322H167.633C167.508 58.2322 167.382 58.2322 167.256 57.981C167.885 57.981 168.513 57.981 169.142 57.981C168.891 57.981 168.765 58.2322 168.765 58.2322C168.891 58.2322 169.016 58.2322 169.016 58.4834C169.393 58.4834 169.771 58.2322 170.148 58.2322C170.399 58.2322 170.776 57.981 170.902 57.7298C171.028 57.981 171.279 57.981 171.405 57.981C171.657 57.981 171.908 57.981 172.16 57.981C172.285 57.981 172.285 58.2322 172.16 58.2322C172.034 58.2322 172.16 58.4834 172.285 58.4834C172.285 58.2322 172.285 57.981 172.411 58.2322C172.537 58.2322 172.537 58.4834 172.537 58.4834C172.662 58.4834 172.662 58.2322 172.537 58.2322C172.411 58.2322 172.537 57.981 172.537 57.981C172.662 57.981 172.788 57.981 172.914 58.2322C172.914 58.4834 173.165 58.4834 173.417 58.4834C173.417 58.2322 173.417 57.981 173.543 57.981C173.543 58.2322 173.543 58.2322 173.668 58.2322C173.794 58.2322 173.794 58.4834 173.794 58.7346C174.045 58.7346 174.297 58.4834 174.548 58.7346C174.8 58.7346 174.926 58.7346 175.177 58.4834C175.428 58.7346 175.554 58.7346 175.806 58.7346C176.057 58.7346 176.309 58.4834 176.434 58.4834C176.686 58.2322 176.937 58.2322 177.063 57.981C177.314 57.7298 177.44 57.7298 177.692 57.4786V57.7298C177.692 57.7298 177.692 57.7298 177.692 57.981C177.817 57.981 177.817 57.981 177.943 57.981C178.069 57.981 178.195 57.981 178.195 57.981L178.069 58.2322C178.195 58.2322 178.32 58.2322 178.446 58.2322C178.572 58.2322 178.697 58.2322 178.823 58.2322C178.823 58.4834 178.823 58.4834 178.697 58.4834C178.572 58.4834 178.446 58.4834 178.446 58.4834C178.32 58.4834 178.32 58.4834 178.195 58.4834C178.195 58.4834 178.069 58.4834 178.069 58.7346C178.195 58.7346 178.446 58.7346 178.572 58.7346C178.823 58.7346 178.949 58.7346 179.075 58.4834C178.949 58.4834 178.949 58.4834 178.949 58.2322L178.823 57.981C178.823 57.7298 178.949 57.7298 179.075 57.7298C179.075 57.7298 179.2 57.7298 179.2 57.981C179.2 57.981 179.2 57.981 179.326 57.981C179.578 57.7298 179.829 57.7298 180.08 57.4786C180.332 57.4786 180.583 57.2274 180.835 57.2274C180.961 57.2274 181.212 57.4786 181.338 57.4786C181.463 57.7298 181.715 57.7298 181.841 57.7298C181.841 57.4786 181.841 57.2274 181.966 57.2274C181.841 57.2274 181.715 57.2274 181.715 57.2274C181.589 57.2274 181.589 57.2274 181.589 56.9762C181.715 56.9762 181.966 56.9762 182.092 56.9762C182.218 56.9762 182.344 56.9762 182.469 56.9762C182.218 57.2274 182.092 57.4786 182.218 57.981C182.469 57.981 182.469 57.981 182.344 57.7298C182.218 57.4786 182.218 57.4786 182.344 57.4786C182.469 57.7298 182.595 57.7298 182.721 57.7298C182.847 57.7298 183.098 57.7298 183.224 57.981C183.349 58.2322 183.601 58.2322 183.727 58.2322H184.481C184.355 57.981 184.481 57.981 184.732 57.7298C184.858 57.4786 185.11 57.4786 185.235 57.4786C185.361 57.7298 185.361 57.7298 185.235 57.7298C185.11 57.7298 185.11 57.7298 185.11 57.981C185.361 57.981 185.361 57.981 185.361 58.2322C185.487 58.4834 185.738 58.2322 185.864 58.2322C185.99 57.981 186.115 57.981 186.241 57.7298C186.367 57.981 186.493 57.981 186.618 57.981C186.744 57.981 186.87 57.7298 186.87 57.7298C187.121 58.2322 187.373 58.4834 187.75 58.2322C188.127 57.981 188.379 57.981 188.63 57.7298C188.756 57.981 189.007 57.981 189.259 57.981C189.51 57.981 189.762 57.981 189.887 58.2322C190.013 58.2322 190.013 57.981 190.139 57.7298C190.139 57.4786 190.39 57.4786 190.642 57.4786V57.7298V57.981H190.767C190.767 57.981 190.767 57.981 190.642 58.2322V57.981H190.516C190.516 57.981 190.516 57.981 190.39 57.981C190.39 58.2322 190.39 58.2322 190.39 58.2322L190.265 58.4834C190.39 58.4834 190.39 58.4834 190.39 58.4834C190.516 58.4834 190.642 58.4834 190.767 58.4834C190.767 58.2322 190.767 57.981 190.893 57.981C191.019 58.2322 191.145 58.2322 191.27 58.4834C191.396 58.4834 191.522 58.4834 191.648 58.4834C191.773 58.4834 191.899 58.4834 192.025 58.2322C192.15 58.2322 192.276 58.2322 192.402 58.2322C192.528 58.2322 192.528 57.981 192.528 57.981C192.528 57.981 192.528 57.7298 192.653 57.7298C192.779 57.7298 192.779 57.981 192.779 57.981C192.653 58.2322 192.779 58.2322 193.031 58.2322C193.031 57.981 193.031 57.981 193.156 57.981C193.282 57.981 193.282 57.981 193.408 57.7298C193.534 57.7298 193.534 57.981 193.659 57.981H194.036C194.036 58.2322 194.036 58.2322 194.162 58.2322C194.288 57.981 194.539 57.981 194.791 58.2322C195.168 58.4834 195.419 58.2322 195.419 57.981C195.168 57.981 195.168 57.981 195.168 57.7298C195.294 57.4786 195.294 57.4786 195.419 57.2274C195.545 56.9762 195.671 56.9762 195.797 57.2274C195.671 57.4786 195.671 57.4786 195.545 57.4786C195.419 57.4786 195.419 57.4786 195.419 57.7298C195.797 57.7298 196.174 57.7298 196.425 57.981C196.677 58.2322 197.054 57.981 197.305 57.7298C197.305 57.4786 197.431 57.4786 197.557 57.4786C197.683 57.4786 197.808 57.4786 197.934 57.4786V57.7298H198.186C198.06 57.7298 197.934 57.7298 197.934 57.7298C197.934 57.4786 198.06 57.2274 198.311 57.2274C198.311 57.4786 198.311 57.7298 198.311 57.7298C198.437 57.981 198.311 58.2322 198.186 58.4834C198.311 58.4834 198.437 58.2322 198.688 57.981C198.814 57.7298 199.066 57.7298 199.191 57.7298C199.317 57.981 199.443 58.2322 199.694 57.981C199.946 57.981 200.197 57.981 200.323 58.2322C200.449 57.981 200.574 57.7298 200.574 57.981C200.7 58.2322 200.7 58.2322 200.7 58.2322C200.574 58.2322 200.574 58.2322 200.574 58.4834C200.826 58.4834 200.826 58.4834 200.826 58.4834C200.826 58.2322 200.952 58.2322 201.077 58.4834V58.7346C201.203 58.7346 201.203 58.7346 201.203 58.7346C201.203 58.4834 201.203 58.4834 201.077 58.4834C201.203 58.4834 201.329 58.2322 201.329 57.981C201.329 57.7298 201.454 57.7298 201.58 57.981C201.58 57.7298 201.58 57.7298 201.58 57.7298C201.454 57.7298 201.454 57.4786 201.454 57.4786C201.58 57.4786 201.706 57.7298 201.832 57.7298C201.957 57.7298 202.083 57.7298 202.209 57.981C202.083 57.981 202.083 58.2322 201.957 58.2322C201.832 58.2322 201.832 58.2322 201.832 58.4834C201.832 58.7346 201.957 58.9858 202.083 58.9858C202.083 58.7346 202.209 58.4834 202.46 58.4834C202.712 58.4834 202.837 58.2322 202.963 58.2322C202.963 58.2322 202.963 58.4834 202.837 58.4834C202.837 58.4834 202.712 58.4834 202.712 58.7346C202.837 58.7346 202.963 58.7346 202.963 58.4834C202.963 58.4834 203.089 58.4834 203.089 58.7346C203.215 58.7346 203.215 58.4834 203.089 58.4834C202.963 58.4834 203.089 58.2322 203.215 58.2322V58.4834C203.215 58.4834 203.215 58.4834 203.34 58.4834C203.34 58.4834 203.34 58.7346 203.215 58.7346C203.089 58.7346 203.089 58.9858 203.089 58.9858C203.215 58.9858 203.34 58.9858 203.34 58.9858C203.466 58.9858 203.466 58.9858 203.592 58.9858C203.592 58.7346 203.592 58.7346 203.718 58.7346C203.843 58.7346 203.843 58.7346 203.843 58.9858C203.843 58.9858 203.843 59.237 203.969 59.237C203.969 58.9858 203.969 58.9858 204.095 58.9858C204.221 59.237 204.346 59.237 204.472 59.237C204.598 58.9858 204.849 58.9858 205.101 58.7346C205.226 58.9858 205.352 58.9858 205.729 58.9858C205.981 58.9858 206.106 58.9858 206.358 58.9858C206.358 58.9858 206.232 59.237 206.106 59.237C205.981 59.237 205.981 59.237 205.981 59.4882C206.106 59.237 206.358 59.237 206.484 59.237C206.609 59.4882 206.861 59.4882 206.987 59.237C207.112 58.9858 206.987 58.7346 206.861 58.9858C206.609 58.9858 206.609 58.9858 206.735 58.7346C207.112 58.7346 207.364 58.7346 207.238 58.7346C207.238 58.9858 207.364 58.9858 207.615 59.237C207.867 59.237 207.867 58.9858 207.615 58.9858C207.489 58.9858 207.489 58.7346 207.615 58.7346C207.992 58.7346 208.244 58.7346 208.495 58.7346C208.747 58.7346 209.124 58.9858 209.25 59.4882C209.25 59.237 209.25 59.237 209.25 58.9858C209.25 58.7346 209.25 58.7346 209.375 58.7346C209.501 58.7346 209.501 58.7346 209.501 58.9858C209.501 59.237 209.501 59.237 209.753 59.237C209.878 59.237 209.878 58.9858 209.753 58.9858C209.627 58.9858 209.627 58.7346 209.753 58.7346C210.256 58.9858 210.884 59.237 211.387 58.9858C212.016 58.9858 212.519 58.7346 213.147 58.7346C213.273 58.9858 213.273 58.9858 213.147 58.9858C213.022 58.9858 213.022 58.9858 213.022 59.237C213.022 59.237 213.273 59.4882 213.524 59.4882C213.524 58.9858 213.65 58.9858 213.776 58.9858C213.776 58.9858 213.776 58.9858 213.776 59.237C213.776 59.237 213.776 59.237 213.776 59.4882C214.279 59.4882 214.656 59.4882 214.908 59.4882L215.788 59.7394L215.662 59.9906C215.536 59.9906 215.536 59.9906 215.662 60.2418C215.913 60.2418 216.039 60.2418 216.291 60.2418C216.542 60.2418 216.668 60.2418 216.668 59.9906C216.542 59.9906 216.416 59.7394 216.416 59.9906C216.291 59.9906 216.165 59.9906 216.165 59.9906C216.542 59.7394 217.045 59.7394 217.422 59.7394C217.925 59.7394 218.302 59.7394 218.805 59.9906C219.308 59.9906 219.811 59.9906 220.314 59.7394C220.691 59.7394 221.068 59.7394 221.445 60.2418C221.445 60.2418 221.571 60.2418 221.697 60.2418C221.823 60.2418 221.948 59.9906 222.074 59.9906C222.2 59.9906 222.2 60.2418 222.2 60.2418C222.2 60.2418 222.326 60.493 222.577 60.2418C222.703 60.2418 222.703 59.9906 222.703 59.9906C222.577 59.9906 222.703 59.7394 222.828 59.7394C222.954 59.9906 222.954 60.2418 223.08 60.2418C223.206 59.9906 223.331 59.9906 223.583 59.7394C224.337 59.9906 224.966 59.9906 225.594 60.2418C226.223 60.2418 226.978 60.2418 227.606 60.2418L227.732 59.9906C227.732 59.9906 227.858 59.7394 227.858 59.4882C227.732 59.4882 227.606 59.4882 227.606 59.4882C227.48 59.4882 227.48 59.4882 227.48 59.237C227.732 59.237 227.983 59.237 228.235 59.237C228.486 59.237 228.738 59.237 228.989 58.9858C229.115 58.9858 229.115 59.237 228.989 59.237C229.115 59.237 229.241 59.237 229.366 59.237C229.492 59.237 229.618 59.237 229.618 58.9858C229.115 58.9858 228.612 58.9858 228.235 58.7346C227.732 58.4834 227.229 58.4834 226.726 58.7346C226.726 58.7346 226.726 58.9858 226.726 59.237C226.726 59.4882 226.6 59.7394 226.475 59.7394C226.349 59.4882 226.349 59.4882 226.475 59.237C226.6 58.9858 226.6 58.9858 226.349 58.9858C226.223 58.9858 226.223 59.237 226.097 59.237C226.097 59.4882 225.972 59.4882 225.846 59.4882C225.72 59.4882 225.594 59.4882 225.594 59.237C225.469 59.237 225.343 59.237 225.343 59.237C225.217 59.237 225.217 59.4882 225.217 59.7394C225.217 59.9906 225.217 59.9906 224.966 59.9906C224.966 59.9906 224.966 59.7394 225.092 59.7394C225.092 59.7394 225.092 59.4882 224.966 59.4882C224.966 59.237 224.84 59.237 224.714 59.237C224.589 59.237 224.463 59.237 224.589 58.9858C224.84 58.9858 225.217 58.9858 225.469 59.237C225.72 59.237 225.972 59.237 226.223 58.9858C225.594 58.9858 224.966 58.7346 224.211 58.7346C223.457 58.7346 222.703 58.4834 221.948 58.4834C221.194 58.4834 220.314 58.2322 219.559 58.2322C218.805 58.2322 218.051 58.2322 217.422 58.2322C217.548 58.4834 217.799 58.4834 218.051 58.4834C218.302 58.4834 218.428 58.4834 218.679 58.7346C219.308 58.4834 219.811 58.4834 220.44 58.4834C220.943 58.4834 221.571 58.7346 222.074 58.7346C222.074 58.7346 222.074 58.9858 221.948 58.9858C221.948 58.9858 221.948 58.9858 222.074 58.9858C222.451 58.7346 222.954 58.7346 223.331 58.7346C223.709 58.7346 224.211 58.9858 224.589 58.9858C224.589 59.237 224.463 59.237 224.337 59.237C224.211 59.237 224.086 59.237 224.211 59.4882C224.337 59.4882 224.337 59.7394 224.463 59.4882H224.589C224.337 59.7394 224.086 59.7394 223.96 59.4882C223.834 59.237 223.583 58.9858 223.331 58.9858C222.954 59.237 222.577 59.237 222.326 58.9858C222.326 59.4882 222.2 59.7394 221.823 59.7394V59.4882C221.697 59.4882 221.697 59.4882 221.697 59.4882H221.571L221.697 59.237C221.823 59.237 221.823 59.237 221.823 59.4882C221.948 59.237 222.074 59.237 222.074 59.237C221.823 58.9858 221.697 58.9858 221.445 58.9858C221.32 58.9858 221.068 58.9858 220.943 58.7346C220.691 58.9858 220.44 58.9858 220.188 58.7346C219.937 58.4834 219.685 58.7346 219.559 58.9858C219.434 58.7346 219.182 58.7346 219.057 58.7346C218.931 58.7346 218.931 58.9858 218.931 59.237C218.931 59.4882 218.805 59.4882 218.679 59.4882V59.237L218.805 58.9858C218.679 58.7346 218.302 58.4834 218.176 58.7346C217.925 58.9858 217.674 58.7346 217.548 58.4834C217.422 58.7346 217.296 58.9858 217.045 58.7346C216.793 58.7346 216.542 58.7346 216.416 58.7346C216.542 58.7346 216.668 58.7346 216.793 58.9858C216.919 59.237 216.793 59.237 216.668 59.4882C216.542 59.237 216.416 58.9858 216.291 58.9858C216.165 58.9858 216.039 58.7346 216.165 58.4834C215.788 58.7346 215.41 58.7346 215.033 58.4834C214.782 58.4834 214.405 58.4834 214.153 58.7346C213.524 58.2322 212.896 58.2322 212.141 58.2322C211.387 58.2322 210.633 58.2322 209.878 58.2322C209.25 57.981 208.495 57.981 207.867 57.981C207.112 57.981 206.358 57.981 205.604 57.7298C205.855 57.4786 206.232 57.4786 206.484 57.7298C206.861 57.981 207.112 57.7298 207.238 57.4786C206.861 57.4786 206.484 57.2274 206.232 57.4786C205.981 57.4786 205.729 57.4786 205.352 57.4786C205.226 57.4786 205.226 57.7298 205.352 57.7298C205.478 57.7298 205.478 57.981 205.352 57.981C203.843 57.981 202.46 57.981 201.203 57.981C201.077 57.981 201.077 58.2322 201.077 58.4834C201.077 58.7346 200.952 58.7346 200.7 58.4834H200.826C200.826 58.4834 200.952 58.4834 200.952 58.2322C200.574 57.981 200.071 57.981 199.694 57.981C199.191 58.2322 198.94 57.981 198.814 57.7298C198.94 57.7298 199.066 57.7298 199.191 57.7298C199.317 57.7298 199.317 57.7298 199.317 57.4786C198.814 57.4786 198.311 57.4786 197.808 57.4786C197.305 57.2274 196.802 57.4786 196.425 57.7298C196.802 57.7298 197.18 57.7298 197.431 57.7298C197.808 57.4786 198.06 57.7298 198.437 57.981C197.18 57.981 195.922 57.981 194.665 57.981C193.408 57.981 192.276 57.981 191.019 57.981C190.893 57.981 190.893 57.981 190.893 58.2322C190.893 58.2322 190.767 58.4834 190.642 58.4834C190.642 58.2322 190.516 58.2322 190.39 58.2322C190.265 58.2322 190.139 58.2322 190.013 57.981C188.379 57.981 186.618 57.981 184.984 57.981C183.349 57.981 181.715 57.981 180.332 57.981C180.458 57.7298 180.332 57.7298 180.206 57.4786C179.955 57.7298 179.703 57.7298 179.326 57.4786C178.949 57.2274 178.697 57.4786 178.572 57.7298C178.823 57.7298 179.075 57.7298 179.452 57.7298C179.703 57.4786 179.955 57.7298 180.206 57.981C179.578 57.981 178.823 57.981 178.195 58.2322C177.44 58.2322 176.812 58.2322 176.057 57.981L177.314 57.7298C177.692 57.7298 178.069 57.7298 178.446 57.7298V57.4786C178.446 57.4786 178.446 57.4786 178.446 57.2274C177.44 57.4786 176.434 57.4786 175.428 57.4786C174.548 57.2274 173.543 57.4786 172.662 58.2322C172.537 58.2322 172.411 58.2322 172.285 58.2322C172.16 58.2322 172.034 58.2322 171.908 57.981C172.034 57.981 172.285 57.981 172.411 57.981C172.662 57.981 172.662 57.981 172.662 57.7298C169.896 57.7298 167.256 57.981 164.993 57.981C162.604 57.981 160.09 58.2322 157.323 58.2322L156.695 58.4834C155.94 58.4834 155.312 58.2322 154.557 58.4834C153.803 58.4834 153.049 58.7346 152.42 58.7346C151.917 58.4834 151.414 58.4834 150.911 58.4834C150.408 58.4834 149.905 58.7346 149.403 58.7346V58.9858C149.528 58.9858 149.528 58.9858 149.528 59.237C149.403 59.237 149.403 59.237 149.277 59.4882C149.151 59.4882 149.151 59.4882 149.025 59.4882L149.151 59.237C149.151 59.237 149.151 58.9858 149.151 58.7346C147.517 58.9858 145.882 58.9858 144.122 58.9858C142.613 58.9858 140.979 59.237 139.47 59.4882C137.332 59.4882 134.944 59.4882 132.68 59.7394C130.292 59.9906 128.154 60.2418 126.143 60.2418C124.76 60.2418 123.377 60.2418 121.868 60.493C120.359 60.7443 118.976 60.7443 117.467 60.493C116.964 60.7443 116.461 60.7443 115.958 60.7443C115.456 60.7443 114.953 60.7443 114.45 60.493C116.084 60.493 117.593 60.2418 119.227 59.9906C120.862 59.7394 122.371 59.7394 123.754 59.9906C123.879 59.7394 124.005 59.7394 124.257 59.7394C124.382 59.7394 124.634 59.7394 124.76 59.4882C125.137 59.7394 125.514 59.7394 126.017 59.7394C126.394 59.7394 126.771 59.4882 127.148 59.4882C127.148 59.4882 127.274 59.4882 127.274 59.7394C127.274 59.7394 127.274 59.7394 127.4 59.7394C127.903 59.4882 128.531 59.4882 129.034 59.4882C129.537 59.4882 130.04 59.4882 130.669 59.4882C131.8 59.4882 133.058 59.4882 134.315 59.237C135.572 58.9858 136.83 58.9858 138.087 58.7346C138.464 58.7346 138.967 58.7346 139.344 58.7346C139.721 58.7346 140.099 58.7346 140.601 58.7346C140.853 58.7346 141.104 58.7346 141.23 58.4834C141.482 58.4834 141.607 58.4834 141.859 58.4834C142.236 58.4834 142.487 58.4834 142.865 58.4834C143.242 58.4834 143.493 58.4834 143.745 58.4834C144.373 58.4834 145.002 58.4834 145.631 58.4834C146.259 58.4834 146.888 58.2322 147.768 58.2322C150.66 58.2322 153.552 57.981 156.695 57.7298C159.838 57.4786 162.856 57.4786 165.747 57.4786C166.502 57.4786 167.382 57.4786 168.136 57.4786L170.525 57.2274C172.914 57.2274 175.303 56.9762 177.817 56.9762C180.332 56.9762 182.847 56.725 185.235 56.725C185.361 56.725 185.361 56.725 185.361 56.9762C185.361 56.9762 185.487 56.9762 185.613 56.9762C188.127 56.9762 190.642 56.725 193.031 56.725C195.419 56.725 197.934 56.725 200.449 56.9762C202.586 56.725 204.723 56.725 207.112 56.9762C209.501 57.2274 211.89 57.2274 214.279 57.2274C215.159 57.4786 216.291 57.4786 217.548 57.4786C218.805 57.4786 219.937 57.4786 220.817 57.7298C223.08 57.981 225.469 58.2322 227.858 58.4834C230.372 58.7346 232.635 58.9858 234.898 59.237C235.904 59.4882 236.784 59.7394 237.79 59.7394C238.67 59.7394 239.55 59.9906 240.431 60.2418C238.922 60.2418 237.287 59.9906 235.653 59.7394C234.018 59.4882 232.384 59.237 230.749 59.4882C230.875 59.4882 230.875 59.7394 230.875 59.7394C230.875 59.9906 230.875 59.9906 230.749 59.9906C230.624 59.7394 230.372 59.9906 230.246 59.9906C230.121 60.2418 229.869 59.9906 229.744 59.7394C229.744 60.2418 229.618 60.2418 229.366 59.9906C229.241 59.7394 228.989 59.7394 228.863 59.9906C228.863 60.2418 228.989 60.493 229.115 60.493C229.241 60.493 229.492 60.7443 229.618 60.7443C229.744 60.493 229.744 60.493 229.869 60.493H230.372C230.498 60.493 230.498 60.2418 230.498 60.2418C230.498 60.2418 230.498 59.9906 230.624 59.9906C230.749 59.9906 230.875 59.9906 231.127 60.2418C231.127 60.2418 231.001 60.493 230.875 60.493C230.749 60.493 230.624 60.493 230.749 60.7443C231.001 60.9955 231.252 60.9955 231.504 60.7443C231.881 60.7443 232.007 60.7443 232.132 60.9955H231.63C231.504 60.9955 231.378 60.9955 231.378 61.2467C232.384 61.2467 233.39 61.2467 234.396 61.7491C235.276 62.0003 236.281 62.2515 237.287 62.2515C237.287 62.2515 237.287 62.5027 237.413 62.5027C237.539 62.5027 237.539 62.5027 237.539 62.5027C238.167 62.5027 238.922 62.2515 239.55 62.5027C240.305 62.5027 241.059 62.5027 241.939 62.5027C242.191 62.5027 242.568 62.5027 242.819 62.2515C243.197 62.0003 243.574 62.0003 243.825 62.0003C243.071 61.4979 243.071 61.2467 243.071 60.9955ZM227.355 59.237C227.229 59.237 227.229 59.4882 227.229 59.7394C227.229 59.9906 227.229 59.9906 226.978 59.9906C226.978 59.7394 226.978 59.4882 226.978 59.4882C226.852 59.4882 226.852 59.237 226.852 59.237C226.978 59.237 227.229 59.237 227.355 59.237ZM224.714 59.4882C224.714 59.7394 224.714 59.7394 224.714 59.4882C224.589 59.7394 224.463 59.4882 224.463 59.4882H224.714ZM220.691 59.237C220.817 59.237 220.817 59.237 220.817 59.237C220.817 59.237 220.817 59.237 220.943 59.237C220.943 59.4882 220.943 59.4882 220.691 59.237C220.565 59.4882 220.565 59.4882 220.691 59.237ZM220.188 59.237C220.314 59.237 220.314 59.4882 220.314 59.4882C220.188 59.4882 220.188 59.4882 220.062 59.4882C220.062 59.237 220.062 58.9858 220.188 59.237ZM217.799 58.9858C217.799 59.237 217.799 59.237 217.799 59.237C217.799 59.237 217.925 59.237 217.925 59.4882C217.674 59.4882 217.422 59.237 217.422 58.9858H217.799ZM215.41 58.7346C215.41 58.7346 215.536 58.7346 215.41 58.7346C215.536 58.9858 215.41 59.237 215.285 58.9858L215.41 58.7346C215.41 58.7346 215.285 58.7346 215.41 58.7346ZM212.519 58.7346C212.644 58.7346 212.644 58.7346 212.644 58.9858C212.644 58.9858 212.644 59.237 212.519 59.237C212.519 58.9858 212.519 58.9858 212.519 58.7346C212.519 58.7346 212.393 58.7346 212.519 58.7346ZM212.267 58.7346C212.267 58.9858 212.267 58.9858 212.267 58.7346V58.7346ZM208.118 58.9858C208.118 58.9858 208.118 58.9858 207.992 58.9858H208.118ZM207.615 58.4834H207.741V58.7346H207.615V58.4834ZM207.364 58.9858H207.615V59.237L207.364 58.9858ZM206.106 58.2322C206.232 58.2322 206.232 58.2322 206.232 58.2322C206.232 58.2322 206.232 58.2322 206.358 58.2322C206.484 58.4834 206.484 58.4834 206.106 58.2322C206.106 58.4834 206.106 58.4834 206.106 58.2322ZM204.849 58.4834H204.975V58.7346H204.849V58.4834ZM195.294 58.4834V58.7346H195.042V58.4834H195.294ZM194.288 58.7346H194.539V58.9858L194.288 58.7346ZM193.659 58.2322H193.785C193.785 58.4834 193.785 58.7346 193.659 58.2322C193.534 58.4834 193.534 58.4834 193.408 58.2322C193.408 58.4834 193.534 58.2322 193.659 58.2322ZM191.145 58.9858C191.27 58.9858 191.27 58.9858 191.27 58.9858C191.396 58.9858 191.396 58.9858 191.396 59.237C191.396 59.4882 191.27 59.4882 191.145 59.237V58.9858ZM188.253 58.2322C188.504 58.2322 188.504 58.2322 188.504 58.2322C188.63 58.4834 188.504 58.4834 188.379 58.4834C188.253 58.4834 188.127 58.4834 188.253 58.2322ZM187.75 58.4834H187.876V58.7346H187.75V58.4834ZM187.373 58.4834H187.499V58.7346L187.373 58.4834ZM186.996 58.4834C187.121 58.4834 187.247 58.7346 187.121 58.7346C186.996 58.7346 186.87 58.7346 186.744 58.4834C186.744 58.4834 186.744 58.4834 186.996 58.4834ZM186.115 58.4834C186.241 58.4834 186.493 58.4834 186.618 58.4834C186.618 58.4834 186.618 58.7346 186.367 58.7346C186.115 58.7346 186.115 58.7346 186.115 58.4834ZM183.349 59.237C183.475 58.9858 183.601 58.9858 183.852 58.9858C183.852 59.237 183.601 59.237 183.349 59.237C183.349 59.237 183.224 59.237 183.349 59.237ZM182.972 58.4834H182.847V58.2322H182.972C183.098 58.2322 183.098 58.2322 182.972 58.4834ZM180.835 58.4834C180.961 58.4834 180.961 58.7346 181.086 58.7346C180.835 58.7346 180.835 58.4834 180.835 58.4834ZM180.458 58.4834C180.583 58.4834 180.583 58.4834 180.583 58.4834H180.709C180.709 58.4834 180.709 58.4834 180.709 58.7346C180.583 58.7346 180.458 58.4834 180.458 58.4834C180.332 58.4834 180.332 58.4834 180.458 58.4834ZM179.829 58.4834C179.955 58.4834 180.08 58.4834 179.955 58.7346L179.829 58.9858C179.703 58.9858 179.703 58.9858 179.703 58.7346C179.829 58.4834 179.829 58.4834 179.829 58.4834ZM179.075 58.7346C178.949 58.7346 178.823 58.4834 178.697 58.2322C178.949 58.4834 179.075 58.4834 179.075 58.7346ZM177.189 58.4834C177.44 58.4834 177.44 58.7346 177.314 58.7346H177.189V58.4834ZM176.309 58.4834C176.434 58.4834 176.56 58.7346 176.434 58.7346H176.309H176.183C176.183 58.7346 176.183 58.4834 176.309 58.4834C176.309 58.4834 176.183 58.4834 176.309 58.4834ZM175.554 59.237C175.68 59.237 175.806 59.237 175.931 59.237C176.057 59.237 176.183 58.9858 176.309 58.9858C176.434 58.7346 176.686 58.7346 176.812 58.9858C176.812 59.237 176.937 59.237 177.063 59.237C176.937 59.4882 176.686 59.4882 176.56 59.4882C176.434 59.4882 176.183 59.4882 175.931 59.237C175.806 59.4882 175.554 59.4882 175.428 59.4882C175.177 59.4882 175.051 59.237 175.051 58.9858C175.177 59.237 175.428 59.237 175.554 59.237ZM174.8 57.981H175.303C175.303 57.981 175.177 58.2322 175.051 58.2322C174.926 58.2322 174.674 57.981 174.8 57.981ZM174.171 57.981C174.297 57.981 174.423 57.981 174.674 57.981C174.674 58.2322 174.548 58.2322 174.297 58.2322C174.171 58.2322 174.045 58.2322 173.92 58.2322C173.92 57.981 174.045 57.7298 174.171 57.981ZM173.92 58.7346C173.92 58.4834 173.92 58.4834 174.045 58.4834C174.171 58.4834 174.171 58.7346 174.171 58.7346C174.045 58.9858 174.045 58.9858 173.92 58.7346ZM173.291 58.9858C173.165 58.9858 173.165 58.9858 173.04 58.7346C172.914 58.7346 172.788 58.7346 172.662 58.7346C172.662 58.4834 172.788 58.4834 173.04 58.4834C173.291 58.4834 173.291 58.7346 173.291 58.9858ZM172.285 58.7346H172.537V58.9858L172.285 58.7346ZM166.25 59.237C166.25 59.237 166.376 59.237 166.25 59.237C166.376 59.237 166.376 59.237 166.25 59.237ZM167.256 59.237C167.13 59.237 167.256 58.9858 167.256 59.237C167.382 59.237 167.382 59.237 167.256 59.237ZM167.885 58.7346C168.136 58.7346 168.262 58.7346 168.136 58.9858C168.136 58.9858 168.01 58.9858 167.885 58.7346C167.885 58.7346 167.885 58.9858 167.885 58.7346ZM169.016 58.9858H168.765V58.7346C168.891 58.7346 168.891 58.7346 169.016 58.9858ZM169.393 59.237C169.519 59.237 169.519 58.9858 169.393 59.237C169.519 58.9858 169.519 59.237 169.519 59.4882L169.393 59.237C169.268 59.237 169.268 59.237 169.393 59.237ZM169.645 59.7394C169.519 59.7394 169.393 59.7394 169.393 59.7394C169.519 59.4882 169.645 59.4882 169.771 59.7394C169.771 59.7394 169.771 59.7394 169.645 59.7394ZM169.896 59.4882C170.022 59.237 170.022 59.237 170.148 58.9858C170.274 58.7346 170.399 58.7346 170.525 58.9858C170.525 59.4882 170.399 59.7394 169.896 59.4882ZM170.022 57.981C170.274 57.981 170.525 57.981 170.776 57.7298H170.902C170.902 57.7298 170.902 57.7298 171.028 57.7298V57.981C170.776 57.981 170.651 57.981 170.525 58.2322C170.148 58.4834 170.022 58.2322 170.022 57.981ZM169.896 58.7346C170.022 58.9858 170.022 58.9858 169.896 58.7346C169.771 58.7346 169.771 58.9858 169.771 58.9858C169.645 58.9858 169.645 58.9858 169.645 58.7346C169.771 58.7346 169.896 58.7346 169.896 58.7346ZM166.753 58.4834C167.005 58.2322 167.256 58.2322 167.633 58.2322C167.885 58.4834 168.262 58.2322 168.513 57.981C168.639 58.2322 168.765 58.2322 169.142 58.2322C169.393 57.981 169.645 58.2322 169.896 58.4834C169.393 58.4834 168.891 58.4834 168.388 58.4834C167.759 58.4834 167.256 58.4834 166.753 58.4834ZM166.25 58.2322H166.502C166.627 58.2322 166.627 58.4834 166.502 58.4834L166.25 58.2322ZM166.25 59.237C166.25 59.237 166.25 59.237 165.999 59.237C165.999 59.4882 166.125 59.237 166.25 59.237ZM165.119 58.2322H165.37V58.4834L165.119 58.2322ZM164.49 58.4834C164.49 58.2322 164.616 57.981 164.741 58.2322C164.867 58.4834 164.741 58.7346 164.49 58.4834ZM164.113 58.2322H164.239V58.4834L164.113 58.2322ZM164.113 59.4882L163.987 59.7394C163.987 59.7394 163.861 59.9906 163.736 59.9906C163.736 59.7394 163.736 59.7394 163.861 59.7394C163.987 59.7394 163.987 59.7394 163.861 59.4882C163.987 59.237 163.987 59.237 164.113 59.4882ZM163.861 59.237C163.736 59.237 163.736 59.237 163.861 59.237C163.736 59.237 163.736 59.237 163.61 59.237C163.61 59.237 163.61 59.237 163.861 59.237C163.861 58.9858 163.861 58.9858 163.861 59.237ZM163.358 58.2322C163.358 57.981 163.484 57.981 163.61 58.2322C163.736 58.4834 163.736 58.4834 163.61 58.4834H163.358C163.484 58.4834 163.484 58.2322 163.358 58.2322ZM159.838 59.237C159.712 59.237 159.712 59.237 159.587 59.237C159.587 59.237 159.587 59.237 159.587 58.9858L159.838 59.237C159.964 59.237 159.964 58.9858 159.838 59.237ZM160.718 59.237C160.844 59.237 160.97 59.237 160.97 59.4882C160.718 59.7394 160.592 59.4882 160.718 59.237ZM161.347 58.4834C161.347 58.4834 161.347 58.7346 161.347 58.4834C161.221 58.7346 161.221 58.7346 161.095 58.7346C161.095 58.7346 160.97 58.7346 160.97 58.4834H161.347ZM160.215 59.237C160.215 58.9858 160.341 58.9858 160.467 58.9858C160.592 58.9858 160.718 58.9858 160.844 59.237C160.844 59.237 160.718 59.4882 160.592 59.4882C160.467 59.237 160.341 59.237 160.215 59.237ZM159.712 58.4834C159.838 58.4834 159.838 58.4834 159.838 58.4834C159.838 58.4834 159.838 58.4834 159.964 58.4834C160.09 58.7346 159.964 58.7346 159.712 58.4834C159.587 58.4834 159.587 58.7346 159.712 58.4834ZM158.455 58.7346C158.581 58.7346 158.581 58.7346 158.581 58.4834C158.706 58.4834 158.706 58.7346 158.706 58.7346H158.455ZM157.952 58.4834H158.204V58.7346H157.952V58.4834ZM157.449 58.4834C157.575 58.4834 157.701 58.4834 157.701 58.4834C157.952 58.4834 157.952 58.7346 157.826 58.7346C157.701 58.7346 157.575 58.7346 157.323 58.7346C157.198 58.4834 157.323 58.4834 157.449 58.4834ZM157.198 58.9858C157.449 58.9858 157.575 59.237 157.575 59.237H156.946C156.821 58.9858 156.946 58.9858 157.198 58.9858ZM156.569 59.237C156.443 59.4882 156.192 59.4882 156.066 59.4882C156.066 59.237 156.066 59.237 156.192 59.237C156.318 59.237 156.443 59.237 156.569 59.237ZM155.94 58.7346H156.192V58.9858H156.066H155.94V58.7346ZM155.563 59.237C155.815 59.237 155.815 59.237 155.815 59.4882L155.563 59.237ZM155.06 60.493H154.809V60.2418H155.06V60.493ZM154.306 59.237C154.432 58.9858 154.557 58.7346 154.935 58.9858C155.186 58.9858 155.312 59.237 155.312 59.4882C155.186 59.4882 155.06 59.4882 155.06 59.237C155.06 58.9858 154.809 58.9858 154.809 58.9858C154.683 58.9858 154.683 58.9858 154.809 59.237C154.935 59.237 154.935 59.237 154.809 59.4882C154.557 59.237 154.432 59.237 154.306 59.237ZM153.803 58.7346C153.929 58.7346 154.054 58.7346 153.929 58.7346C153.929 58.9858 153.929 58.9858 153.929 59.237C153.803 59.237 153.677 59.237 153.677 58.9858C153.677 58.9858 153.677 58.7346 153.803 58.7346ZM153.426 58.9858C153.426 58.7346 153.426 58.7346 153.426 58.9858C153.426 58.7346 153.426 58.7346 153.426 58.9858C153.677 58.7346 153.677 58.9858 153.677 58.9858C153.552 58.9858 153.552 58.9858 153.552 58.9858H153.426ZM153.3 59.237C153.426 59.237 153.426 59.237 153.426 59.237C153.426 59.237 153.426 59.237 153.552 59.237C153.552 59.4882 153.552 59.4882 153.3 59.237C153.174 59.4882 153.174 59.4882 153.3 59.237ZM152.546 59.4882V59.237V58.9858C152.797 58.9858 152.797 58.9858 152.797 59.237C152.797 59.237 152.797 59.237 152.797 59.4882C152.797 59.7394 152.671 59.7394 152.546 59.4882ZM151.666 59.9906C151.666 59.9906 151.791 59.9906 151.917 59.9906C151.917 59.9906 151.791 59.9906 151.666 59.9906ZM152.043 59.4882C152.043 59.4882 152.169 59.237 152.294 59.237C152.294 59.4882 152.169 59.4882 152.043 59.4882ZM150.66 59.237C150.911 58.9858 151.163 58.9858 151.414 58.9858C151.666 58.9858 152.043 58.9858 152.294 58.9858C152.043 59.237 151.791 59.4882 151.54 59.237C151.414 59.237 151.037 59.237 150.66 59.237ZM150.031 59.4882C150.157 59.4882 150.157 59.4882 150.157 59.237C150.157 59.237 150.157 58.9858 150.031 58.9858C150.157 58.9858 150.283 58.9858 150.283 58.9858C150.534 58.9858 150.534 58.9858 150.408 58.9858C150.283 58.9858 150.283 59.237 150.283 59.237C150.408 59.4882 150.408 59.4882 150.534 59.4882H150.911C151.037 59.4882 151.163 59.4882 151.288 59.4882C151.414 59.4882 151.414 59.7394 151.54 59.7394C151.163 59.7394 150.911 59.7394 150.66 59.4882C150.408 59.4882 150.157 59.4882 149.905 59.7394C149.78 59.7394 149.78 59.4882 149.905 59.4882C149.905 59.7394 150.031 59.4882 150.031 59.4882ZM148.774 58.9858C148.9 58.9858 149.025 58.9858 149.151 58.9858C149.277 59.237 149.277 59.237 149.151 59.4882C149.403 59.4882 149.403 59.4882 149.277 59.237H149.78L149.654 59.4882C149.528 59.4882 149.528 59.7394 149.528 59.7394C149.277 59.7394 149.025 59.7394 148.774 59.7394L149.025 59.4882C149.025 59.4882 148.9 59.237 148.774 58.9858ZM147.517 59.7394C147.642 59.7394 147.642 59.7394 147.642 59.7394C147.642 59.7394 147.642 59.7394 147.768 59.7394C147.642 59.7394 147.517 59.9906 147.517 59.9906V59.7394ZM147.139 59.7394C147.391 59.7394 147.391 59.7394 147.265 59.9906C147.139 59.9906 147.014 59.9906 146.762 59.9906C146.888 59.7394 147.014 59.7394 147.139 59.7394ZM146.008 59.4882C146.134 59.4882 146.134 59.4882 146.008 59.4882C145.882 59.7394 145.882 59.7394 145.756 59.7394C145.882 59.4882 146.008 59.237 146.008 59.4882ZM145.379 59.4882C145.379 59.4882 145.379 59.4882 145.253 59.4882C145.253 59.4882 145.253 59.4882 145.379 59.4882ZM144.876 59.9906H145.128C145.253 59.9906 145.128 59.9906 144.876 59.9906C144.876 59.9906 144.751 59.9906 144.876 59.9906ZM144.373 59.4882C144.499 59.4882 144.625 59.7394 144.499 59.9906C144.373 59.9906 144.373 59.9906 144.373 59.7394V59.4882ZM143.996 59.4882H144.122V59.7394H143.996V59.4882ZM143.87 59.4882C143.745 59.7394 143.745 59.7394 143.619 59.7394C143.619 59.4882 143.619 59.4882 143.87 59.4882ZM142.11 59.7394C142.236 59.7394 142.362 59.7394 142.362 59.4882C142.487 59.4882 142.487 59.7394 142.362 59.9906C142.236 59.9906 142.11 59.9906 142.11 59.7394ZM140.35 60.493C140.476 60.493 140.476 60.2418 140.35 59.9906C140.601 59.9906 140.601 60.2418 140.601 60.493C140.601 60.7443 140.727 60.7443 140.979 60.7443C140.853 60.9955 140.727 60.9955 140.601 60.9955C140.476 60.9955 140.224 60.9955 140.099 60.9955C140.099 60.7443 140.224 60.493 140.35 60.493ZM139.721 60.7443H139.847V60.9955H139.721V60.7443ZM138.967 59.7394C138.967 59.4882 139.093 59.4882 139.218 59.4882C139.344 59.4882 139.344 59.4882 139.344 59.4882C139.47 59.4882 139.47 59.7394 139.344 59.7394C139.218 59.9906 139.093 59.9906 138.967 59.7394ZM138.716 60.9955C138.841 60.7443 138.967 60.7443 139.218 60.7443C139.47 60.7443 139.596 60.7443 139.47 60.9955C139.344 60.9955 139.218 60.9955 139.093 60.9955C138.967 60.9955 138.841 60.9955 138.716 60.9955ZM138.464 61.4979C138.213 61.4979 138.087 61.2467 137.961 60.9955C138.087 60.9955 138.087 61.2467 138.213 61.2467C138.338 61.2467 138.338 61.2467 138.464 61.4979ZM138.464 59.7394C138.464 59.7394 138.338 59.9906 138.213 59.9906C138.087 59.9906 137.961 59.9906 137.961 59.9906C137.961 59.7394 138.087 59.7394 138.464 59.7394ZM137.207 60.2418H137.332V60.493H137.207V60.2418ZM135.447 60.493C135.447 60.493 135.447 60.493 135.321 60.493H135.447ZM134.818 60.2418C134.944 60.2418 134.944 60.2418 134.818 60.2418C135.195 59.9906 135.321 60.2418 135.321 60.493C135.069 60.493 134.944 60.493 134.944 60.493C134.818 60.493 134.818 60.7443 134.818 60.2418C134.692 60.2418 134.692 60.2418 134.818 60.2418ZM134.189 60.2418H134.441V60.493H134.189V60.2418ZM134.189 60.9955C134.189 61.2467 134.064 61.4979 133.812 60.9955C133.938 61.2467 134.064 60.9955 134.189 60.9955ZM133.058 59.9906L133.183 60.2418C133.058 60.2418 133.058 60.493 132.932 60.493C132.806 60.493 132.806 60.493 132.68 60.493L132.806 60.2418C132.932 59.9906 132.932 59.9906 133.058 59.9906ZM132.429 60.9955H132.68V61.2467L132.429 60.9955ZM132.052 61.4979C132.178 61.2467 132.178 61.2467 132.303 61.2467C132.303 61.4979 132.178 61.4979 132.052 61.4979ZM132.178 60.7443C132.178 60.7443 132.178 60.9955 132.178 60.7443C132.178 60.9955 132.178 60.9955 132.178 60.7443C132.178 60.9955 132.178 60.9955 132.052 60.9955C132.052 60.7443 132.052 60.7443 132.178 60.7443ZM130.166 60.7443H130.543C130.543 60.9955 130.417 60.9955 130.166 60.7443C130.166 60.7443 130.04 60.7443 129.914 60.9955C130.04 60.9955 130.04 60.7443 130.166 60.7443ZM126.897 62.0003H126.645V61.7491H126.897V62.0003ZM126.645 60.7443C126.645 60.9955 126.645 60.9955 126.645 60.9955C126.52 60.9955 126.52 61.2467 126.645 61.2467C126.52 61.2467 126.394 60.9955 126.394 60.7443C126.268 60.7443 126.645 60.7443 126.645 60.7443ZM122.371 60.9955C122.496 60.9955 122.496 60.9955 122.496 60.9955C122.496 60.9955 122.496 60.9955 122.622 60.9955C122.622 61.2467 122.622 61.2467 122.371 60.9955C122.245 61.2467 122.245 61.2467 122.371 60.9955ZM119.856 60.9955H120.108V61.2467H119.856V60.9955ZM119.856 62.0003C119.982 62.0003 120.108 62.0003 120.233 62.0003C120.233 62.2515 120.233 62.2515 120.108 62.2515C119.856 62.2515 119.73 62.2515 119.856 62.0003C119.605 62.0003 119.605 62.2515 119.856 62.0003ZM111.432 60.7443C111.307 60.7443 111.181 60.7443 111.181 60.9955C111.181 60.7443 111.181 60.7443 111.307 60.493C111.432 60.493 111.558 60.493 111.684 60.7443C111.558 60.7443 111.558 60.7443 111.432 60.7443ZM111.809 60.493C111.809 60.493 111.935 60.493 112.061 60.493C112.061 60.493 111.935 60.493 111.809 60.493ZM112.187 60.7443C112.438 60.493 112.438 60.7443 112.438 60.7443H112.187ZM113.067 60.7443C112.941 60.7443 112.69 60.7443 112.564 60.7443C112.69 60.493 112.815 60.493 113.067 60.7443C113.192 60.493 113.318 60.493 113.444 60.493C113.444 60.493 113.318 60.7443 113.067 60.7443ZM139.093 58.4834C139.093 58.4834 139.093 58.2322 139.093 58.4834C138.967 58.2322 139.093 58.2322 139.093 58.4834C139.218 58.2322 139.093 58.2322 139.093 58.4834C139.218 58.4834 139.218 58.4834 139.093 58.4834ZM140.727 58.2322C140.727 57.981 140.727 57.981 140.727 58.2322C140.727 57.981 140.727 57.981 140.727 58.2322C140.853 58.2322 140.853 58.2322 140.727 58.2322ZM142.739 58.2322C142.613 58.2322 142.362 58.2322 142.236 58.2322C142.362 57.981 142.487 57.981 142.613 57.981C142.739 58.2322 142.865 58.2322 143.116 57.981C143.116 58.2322 142.99 58.2322 142.739 58.2322ZM144.373 58.2322C144.122 58.2322 143.745 58.2322 143.493 58.2322C143.493 58.2322 143.493 57.981 143.367 57.981C143.367 57.981 143.367 57.981 143.367 57.7298C143.493 57.7298 143.619 57.4786 143.745 57.7298C143.87 57.7298 143.996 57.981 143.996 57.981C144.122 57.981 144.122 57.981 144.122 57.7298C144.122 57.7298 144.248 57.4786 144.373 57.7298C144.373 57.7298 144.373 57.981 144.499 57.981C144.625 57.981 144.625 57.981 144.751 57.981C144.751 58.2322 144.499 58.2322 144.373 58.2322ZM230.875 59.9906H230.624V59.7394L230.875 59.9906ZM231.127 60.7443C231.001 60.7443 230.875 60.493 231.001 60.493C231.127 60.493 231.127 60.493 231.127 60.2418C231.252 60.2418 231.252 60.2418 231.252 60.493C231.252 60.7443 231.378 60.7443 231.378 60.7443C231.378 60.7443 231.252 60.7443 231.127 60.7443ZM231.63 60.493C231.63 60.493 231.755 60.493 231.881 60.493C231.755 60.493 231.755 60.493 231.63 60.493ZM232.384 60.9955C232.258 60.9955 232.258 60.9955 232.132 60.9955C232.007 60.9955 232.007 60.9955 232.007 60.7443C232.258 60.7443 232.258 60.7443 232.258 60.7443C232.384 60.7443 232.384 60.7443 232.384 60.9955C232.384 60.9955 232.384 60.7443 232.384 60.9955ZM232.51 60.2418C232.258 60.2418 232.258 60.2418 232.384 60.493C232.258 60.2418 232.007 59.9906 231.755 60.2418C231.504 60.2418 231.252 60.2418 231.127 59.9906C231.378 59.9906 231.755 59.9906 232.007 59.9906C232.258 59.9906 232.635 59.9906 232.887 60.2418C232.761 60.2418 232.761 60.493 232.51 60.2418ZM232.887 60.7443H232.761C232.761 60.7443 232.761 60.7443 232.887 60.7443C232.887 60.7443 232.761 60.7443 232.887 60.7443ZM233.138 60.9955C233.013 60.9955 233.013 60.9955 233.013 60.7443C233.138 60.7443 233.264 60.7443 233.264 60.7443C233.39 60.7443 233.515 60.9955 233.515 60.9955C233.515 60.7443 233.264 60.7443 233.138 60.9955ZM233.264 60.2418C233.138 60.2418 232.887 60.2418 232.761 59.9906C232.887 59.9906 233.138 59.9906 233.39 59.9906C233.767 59.9906 233.893 60.2418 234.018 60.493C233.767 60.493 233.515 60.2418 233.264 60.2418ZM235.276 60.493C234.898 60.2418 234.647 60.2418 234.27 60.493V59.9906C234.647 59.9906 235.024 59.9906 235.401 59.9906C235.779 59.9906 236.156 59.9906 236.533 60.2418C236.156 60.7443 235.653 60.7443 235.276 60.493ZM237.162 60.493C237.036 60.493 236.91 60.493 236.659 60.493C236.659 60.493 236.659 60.2418 236.91 60.2418C237.162 60.493 237.162 60.493 237.162 60.493ZM237.665 60.493H237.539V60.2418L237.665 60.493ZM240.305 59.9906C239.928 59.9906 239.676 59.7394 239.299 59.4882C239.676 59.4882 240.053 59.4882 240.431 59.4882C240.808 59.4882 241.185 59.7394 241.562 59.7394C241.185 60.2418 240.808 60.2418 240.305 59.9906Z" fill="black"/>
<path d="M213.528 57.981C213.78 58.2322 213.906 58.2322 213.906 57.981C213.78 57.981 213.654 57.981 213.528 57.981Z" fill="black"/>
<path d="M211.265 57.7297C211.013 57.7297 210.888 57.7297 210.762 57.9809C211.139 57.9809 211.516 57.9809 211.768 57.9809C211.768 57.7297 211.516 57.7297 211.265 57.7297Z" fill="black"/>
<path d="M211.893 57.7297C212.019 57.9809 212.145 58.2321 212.396 57.9809C212.648 57.9809 212.899 57.9809 213.151 58.2321V57.9809C213.151 57.9809 213.151 57.9809 213.151 57.7297C212.899 57.7297 212.774 57.9809 212.522 57.7297C212.271 57.7297 212.019 57.7297 211.893 57.7297Z" fill="black"/>
<path d="M210.385 57.9809H210.511C210.637 57.9809 210.511 57.7297 210.385 57.9809C210.259 57.7297 210.259 57.7297 210.385 57.9809C210.385 57.9809 210.259 57.9809 210.385 57.9809Z" fill="black"/>
<path d="M217.551 60.2419C217.677 60.2419 217.803 60.2419 217.803 59.9907C217.677 59.9907 217.551 60.2419 217.551 60.2419Z" fill="black"/>
<path d="M180.964 57.4785C180.587 57.2273 180.084 57.4785 179.707 57.7297C179.958 57.7297 180.21 57.7297 180.461 57.7297C180.838 57.7297 181.09 57.7297 181.341 57.7297C181.593 57.7297 181.844 57.7297 182.096 57.7297C182.347 57.7297 182.473 57.4785 182.473 57.2273C182.096 57.4785 181.593 57.4785 180.964 57.4785Z" fill="black"/>
<path d="M227.735 60.4931C227.861 60.4931 227.988 60.4931 227.988 60.4931C227.861 60.2419 227.735 60.2419 227.735 60.4931Z" fill="black"/>
<path d="M208.626 59.4883C208.499 59.4883 208.373 59.4883 208.373 59.4883C208.247 59.7395 208.247 59.7395 208.499 59.7395C208.373 59.7395 208.499 59.7395 208.626 59.4883C208.626 59.7395 208.626 59.7395 208.626 59.4883Z" fill="black"/>
<path d="M197.812 59.9906H197.938H198.064C197.938 59.7394 197.812 59.7394 197.812 59.9906Z" fill="black"/>
<path d="M217.048 59.9907V60.2419H217.174C217.174 60.2419 217.174 59.9907 217.301 59.9907C217.174 59.9907 217.174 59.9907 217.174 59.9907C217.174 59.9907 217.174 59.9907 217.048 59.9907Z" fill="black"/>
<path d="M188.759 57.7297C188.885 57.7297 189.011 57.7297 189.137 57.2273C188.885 57.2273 188.759 57.4785 188.759 57.7297Z" fill="black"/>
<path d="M191.525 57.4785C191.902 57.7297 192.28 57.9809 192.783 57.9809C193.285 57.9809 193.788 57.9809 194.291 57.7297C193.914 57.4785 193.411 57.4785 193.034 57.4785C192.783 57.4785 192.28 57.4785 191.525 57.4785Z" fill="black"/>
<path d="M194.92 57.2273C194.668 57.2273 194.543 57.2273 194.291 57.4785C194.668 57.4785 195.046 57.4785 195.423 57.4785C195.297 57.4785 195.171 57.2273 194.92 57.2273Z" fill="black"/>
<path d="M190.142 57.4786C189.639 57.2274 189.262 57.4786 189.136 57.7298C189.514 57.7298 190.017 57.4786 190.394 57.7298C190.771 57.7298 191.022 57.7298 191.4 57.4786C191.022 57.4786 190.645 57.4786 190.142 57.4786Z" fill="black"/>
<path d="M185.616 57.4785C185.239 57.4785 184.736 57.4785 184.359 57.7297C184.736 57.7297 185.239 57.4785 185.616 57.7297C185.993 57.7297 186.37 57.7297 186.748 57.4785C186.496 57.4785 186.119 57.4785 185.616 57.4785Z" fill="black"/>
<path d="M187.879 57.4787C187.628 57.4787 187.376 57.4787 186.999 57.4787C187.25 57.7299 187.502 57.7299 187.753 57.7299C188.005 57.7299 188.256 57.7299 188.382 57.4787C188.256 57.2275 188.131 57.2275 187.879 57.4787Z" fill="black"/>
</g>
<defs>
<clipPath id="clip0_4270_44355">
<rect width="166.075" height="10" fill="white" transform="translate(78.1044 54.5757)"/>
</clipPath>
</defs>
</svg>
