
<svg width="61" height="10" viewBox="0 0 61 10" fill="none" xmlns="http://www.w3.org/2000/svg">
    <path d="M60.5933 6.91978C60.5471 6.66857 60.5009 6.41737 60.4547 6.41737C60.4547 6.41737 60.5009 6.41737 60.5009 6.16616C60.5009 6.16616 60.5009 6.16616 60.5009 5.91496C60.5009 5.91496 60.5009 5.66375 60.4547 5.66375C60.4086 5.66375 60.4086 5.66375 60.4086 5.41255C59.9467 5.16134 59.4849 4.65893 58.9769 4.40773C58.469 4.15652 57.9148 3.90531 57.3606 3.65411C56.8064 3.4029 56.2523 3.1517 55.7443 3.1517L54.2665 2.64929C54.0818 2.64929 53.9432 2.39808 53.8047 2.39808C53.6661 2.39808 53.5276 2.39808 53.4352 2.64929C53.2043 2.39808 52.9272 2.14688 52.6502 2.14688C52.3269 2.14688 52.0036 2.14688 51.6804 2.14688C51.2647 1.89567 50.8953 1.64447 50.4797 1.64447C50.064 1.64447 49.6022 1.64447 49.1866 1.39326C49.1404 1.39326 49.1404 1.39326 49.0942 1.64447C49.048 1.64447 49.0019 1.64447 49.0019 1.64447L49.048 1.39326C48.771 1.39326 48.4939 1.14206 48.2168 1.14206C47.9859 0.890854 47.7088 1.14206 47.4779 1.39326C47.4317 1.14206 47.4317 1.14206 47.3855 1.14206C47.3394 1.14206 47.2932 1.14206 47.247 0.890854C47.1546 0.890854 47.0161 0.890854 46.9237 0.890854C46.7852 0.890854 46.6928 0.890854 46.5543 0.890854C46.4619 0.890854 46.3234 0.890854 46.231 0.639648C46.0925 0.639648 46.0001 0.639648 46.0001 1.14206C46.3234 0.890854 46.6005 0.890854 46.9237 0.890854C47.247 1.14206 47.5241 1.14206 47.8473 1.14206C47.8935 1.14206 47.8935 1.14206 47.8935 1.39326C47.8935 1.39326 47.8935 1.64447 47.9397 1.64447C47.9859 1.64447 47.9859 1.39326 47.9859 1.39326C47.9859 1.39326 47.9859 1.39326 48.0321 1.39326C48.2168 1.64447 48.4015 1.64447 48.5862 1.39326C48.771 1.14206 48.9095 1.39326 49.048 1.64447C49.2789 1.64447 49.5099 1.64447 49.7408 1.64447C49.9717 1.64447 50.2026 1.64447 50.4335 1.64447C50.4797 1.64447 50.5258 1.64447 50.5258 1.64447C50.572 1.64447 50.6182 1.89567 50.6182 1.89567C50.6644 1.89567 50.7106 1.89567 50.7106 1.89567C50.7567 1.89567 50.8029 1.89567 50.8953 1.89567C50.9415 1.89567 51.0338 1.89567 51.08 2.14688C51.1724 2.14688 51.2186 2.14688 51.3109 2.14688C51.3571 2.14688 51.4033 1.89567 51.4495 1.89567C51.4956 1.89567 51.5418 1.89567 51.588 1.64447C51.6342 1.64447 51.6804 1.64447 51.7265 1.89567C51.7727 1.89567 51.8189 2.14688 51.8651 2.14688C51.9574 2.14688 52.096 2.14688 52.1884 2.14688C52.3269 2.14688 52.4654 2.14688 52.5578 2.14688C52.6502 2.14688 52.7425 2.14688 52.8811 2.14688C52.9734 2.14688 53.0658 2.14688 53.112 2.14688C53.1581 2.14688 53.1581 2.14688 53.1581 2.39808C53.1581 2.64929 53.1581 2.64929 53.2043 2.39808C53.3429 2.14688 53.4814 2.14688 53.6661 2.39808C53.8509 2.64929 53.9894 2.64929 54.1741 2.90049L54.2665 2.64929C54.5898 2.90049 54.913 3.1517 55.2363 3.1517C55.5596 3.1517 55.929 3.4029 56.2523 3.65411C56.5294 3.65411 56.8526 3.65411 57.2221 3.65411C57.5453 3.65411 57.8686 3.90531 58.1919 4.40773C58.3304 4.15652 58.5151 4.15652 58.6537 4.40773C58.7922 4.65893 58.8846 4.65893 59.0231 4.91014C58.7922 4.91014 58.5613 4.91014 58.3304 4.91014C58.0995 4.91014 57.9148 4.65893 57.6839 4.40773C57.4068 4.40773 57.1297 4.40773 56.8526 4.15652C56.5755 3.90531 56.2985 3.90531 56.0214 3.90531C55.9752 3.65411 55.9752 3.65411 55.929 3.65411C55.8828 3.65411 55.8828 3.65411 55.8828 3.4029C55.8366 3.4029 55.7905 3.4029 55.7905 3.4029C55.7905 3.65411 55.7443 3.65411 55.7443 3.65411C55.6519 3.4029 55.5134 3.1517 55.421 3.4029C55.2825 3.4029 55.1901 3.4029 55.0977 3.4029C54.8668 3.4029 54.5898 3.4029 54.3589 3.1517C54.1279 2.90049 53.8509 2.90049 53.62 2.90049C53.0196 2.90049 52.3731 2.64929 51.7265 2.64929C51.08 2.64929 50.4335 2.39808 49.7408 2.39808C49.6022 2.39808 49.4637 2.14688 49.3713 2.14688C49.2328 2.14688 49.0942 2.14688 49.0019 2.39808C48.6786 2.14688 48.3092 2.14688 47.9859 2.14688C47.6626 2.14688 47.3394 2.14688 47.0161 1.89567C46.6928 1.89567 46.4157 1.89567 46.0925 1.89567C45.7692 1.89567 45.4921 1.89567 45.1688 1.64447C44.7994 1.64447 44.43 1.64447 44.1067 1.64447C43.7834 1.64447 43.414 1.64447 43.0907 1.64447C42.7674 1.64447 42.4442 1.39326 42.0747 1.64447C41.7053 1.64447 41.3358 1.64447 41.0126 1.64447C40.5969 1.64447 40.2275 1.64447 39.8119 1.39326C39.4424 1.39326 39.0268 1.39326 38.6112 1.64447C38.5188 1.64447 38.3803 1.64447 38.2417 1.64447C38.1032 1.64447 37.9646 1.64447 37.8261 1.64447C37.7337 1.64447 37.6414 1.64447 37.549 1.64447C37.4566 1.64447 37.4105 1.64447 37.3181 1.64447C36.9486 1.64447 36.533 1.39326 36.1174 1.39326C35.7018 1.39326 35.2399 1.39326 34.7781 1.64447L33.4389 1.89567C32.9771 1.89567 32.5615 2.14688 32.1458 2.14688C31.5917 2.14688 31.0375 2.14688 30.5295 2.14688C29.9753 2.14688 29.4673 2.14688 28.9132 2.39808C28.2205 2.39808 27.4816 2.39808 26.7427 2.64929C26.0038 2.90049 25.2649 2.90049 24.526 2.90049C24.5722 2.64929 24.6183 2.64929 24.6183 2.64929C24.6645 2.64929 24.7107 2.64929 24.7107 2.39808C24.8031 2.64929 24.8954 2.90049 25.034 2.64929C25.1725 2.39808 25.3111 2.39808 25.4034 2.64929C25.4034 2.64929 25.4034 2.39808 25.3572 2.39808C25.3572 2.39808 25.3572 2.39808 25.4034 2.14688C25.4958 2.14688 25.6343 2.14688 25.7267 2.14688C25.8652 2.14688 25.9576 2.14688 26.1423 2.14688C26.1423 1.89567 26.1885 1.89567 26.2347 1.89567C26.2809 1.89567 26.327 1.89567 26.3732 1.89567C26.4194 1.89567 26.4656 1.89567 26.5118 1.89567C26.5579 1.89567 26.5579 1.64447 26.5579 1.64447C26.1423 1.64447 25.6805 1.89567 25.1725 1.89567C24.6645 1.89567 24.1565 2.14688 23.6485 2.39808C23.6024 2.39808 23.6024 2.39808 23.6024 2.14688C23.6024 2.14688 23.5562 2.14688 23.51 2.14688C23.1405 2.39808 22.7711 2.39808 22.4017 2.39808C22.0322 2.39808 21.6628 2.39808 21.3395 2.64929C21.1548 2.39808 20.9239 2.39808 20.7391 2.64929C20.5082 2.90049 20.3235 2.90049 20.0926 2.64929C20.0464 2.64929 20.0464 2.90049 20.0464 2.90049C20.0464 2.90049 20.0464 3.1517 20.0002 3.1517C19.8617 2.90049 19.7232 2.64929 19.5846 2.90049C19.4461 3.1517 19.2614 3.1517 19.1228 2.90049C17.2756 3.4029 15.2898 3.65411 13.304 3.90531C11.2721 4.15652 9.33245 4.15652 7.43904 4.15652C6.28451 4.15652 5.17617 4.40773 4.06783 4.65893C3.00567 5.16134 1.89732 5.16134 0.742801 5.16134C0.650439 4.91014 0.511896 4.65893 0.373354 4.65893C0.234811 4.91014 0.142449 5.41255 0.0962681 6.16616C0.0500872 6.66857 0.00390625 7.42219 0.00390625 7.9246C0.0962681 8.67821 0.234811 9.18062 0.373354 9.18062C0.558077 9.43183 0.69662 9.68303 0.881344 9.68303H1.75878C2.08205 9.68303 2.40531 9.68303 2.77476 9.68303C2.9133 9.43183 3.05185 9.18062 3.19039 9.18062C3.32893 9.18062 3.46748 9.18062 3.6522 9.18062C3.79074 9.18062 3.97547 9.18062 4.11401 9.18062C4.25255 9.18062 4.43728 8.92942 4.57582 8.92942C4.76054 9.18062 4.94527 9.18062 5.08381 9.18062C5.26853 9.18062 5.45326 8.92942 5.63798 8.92942C5.8227 8.92942 6.00743 8.67821 6.19215 8.67821C6.37687 8.67821 6.60778 8.67821 6.7925 8.67821C6.88486 8.67821 6.97723 8.42701 7.11577 8.42701C7.7623 8.42701 8.36265 8.42701 9.00919 8.1758C9.65572 7.9246 10.2561 7.9246 10.9026 8.1758C11.2721 7.9246 11.6415 7.9246 12.0109 7.9246C12.4266 7.9246 12.796 7.9246 13.2117 8.1758C13.2578 7.9246 13.304 7.67339 13.4426 7.9246C13.5811 7.9246 13.6735 7.9246 13.812 7.9246C13.812 7.9246 13.812 7.67339 13.7658 7.67339C13.7196 7.67339 13.7658 7.42219 13.812 7.42219C13.8582 7.42219 13.9044 7.42219 13.8582 7.67339C13.8582 7.9246 13.8582 7.9246 13.9505 7.9246C13.9505 7.9246 13.9505 7.67339 13.9044 7.67339C13.8582 7.67339 13.8582 7.67339 13.9505 7.42219C14.0429 7.9246 14.1814 7.9246 14.2738 7.67339C14.4124 7.42219 14.5509 7.42219 14.6433 7.67339C14.6433 7.42219 14.6433 7.17098 14.7356 7.17098C14.7818 7.17098 14.828 7.42219 14.828 7.17098C14.8742 7.17098 14.9203 7.17098 15.0127 7.17098C15.0127 7.17098 15.0127 7.42219 14.9665 7.42219C14.9203 7.42219 14.9203 7.42219 14.9203 7.67339C15.0127 7.67339 15.0589 7.67339 15.0589 7.67339C15.0589 7.67339 15.0589 7.42219 15.1051 7.17098C15.1512 7.17098 15.1512 7.17098 15.1512 7.42219C15.1051 7.42219 15.1512 7.67339 15.1512 7.67339C15.3822 7.67339 15.6131 7.42219 15.7978 7.42219C15.9825 7.42219 16.1672 7.42219 16.352 7.67339C16.3981 7.17098 16.4905 7.17098 16.5829 7.42219C16.5829 7.17098 16.629 6.91978 16.6752 6.91978C16.7676 6.91978 16.7676 6.66857 16.7214 6.41737C16.8138 6.41737 16.8138 6.66857 16.7676 6.66857C16.7214 6.91978 16.7214 6.91978 16.7676 7.17098H16.5829C16.5829 7.42219 16.629 7.67339 16.7214 7.42219C16.8138 7.17098 16.8138 7.17098 16.8138 7.17098C16.8599 7.42219 16.9061 7.42219 16.9523 7.17098C16.9985 6.91978 17.0447 6.91978 17.0908 7.17098C17.0447 7.17098 17.0447 7.42219 17.0447 7.42219C17.0447 7.67339 17.0908 7.67339 17.0908 7.67339C17.0908 7.17098 17.1832 6.66857 17.2756 6.66857C17.3218 6.91978 17.3218 6.91978 17.2756 6.91978C17.2294 6.91978 17.2294 7.17098 17.2756 7.17098C17.3679 6.91978 17.5065 6.91978 17.5988 7.17098C17.5988 7.17098 17.5988 6.91978 17.5527 6.91978C17.5065 6.91978 17.5527 6.66857 17.5988 6.66857C17.645 6.66857 17.6912 6.66857 17.645 6.91978C17.645 7.17098 17.645 7.17098 17.6912 7.17098C17.7374 7.17098 17.8297 6.91978 17.8759 6.66857C17.9221 6.66857 17.9221 6.66857 17.9221 6.91978C17.9221 7.17098 17.9221 7.17098 17.9683 7.17098C18.0606 6.91978 18.153 6.91978 18.2454 6.91978C18.3377 6.91978 18.3839 6.91978 18.4301 7.17098C18.4763 6.91978 18.5686 6.91978 18.6148 6.91978C18.7072 6.91978 18.7995 6.91978 18.8919 6.91978C18.9843 6.91978 19.0766 6.91978 19.169 6.91978C19.2614 6.91978 19.3075 6.66857 19.3999 6.41737V6.66857C19.3999 6.66857 19.3999 6.66857 19.3999 6.91978C19.5384 6.91978 19.6308 6.91978 19.7693 6.91978C19.9079 6.66857 20.0002 6.91978 19.9541 7.17098C20.0002 7.17098 20.0464 6.91978 20.0926 6.66857C20.1388 6.41737 20.185 6.41737 20.2773 6.16616C20.3235 6.16616 20.3235 6.41737 20.3235 6.66857C20.3697 6.66857 20.4621 6.66857 20.5082 6.66857C20.5544 6.66857 20.6006 6.66857 20.6006 6.91978C20.6006 6.91978 20.6468 6.66857 20.6468 6.41737C20.6468 6.16616 20.6468 6.16616 20.693 5.91496C20.7391 5.91496 20.7853 6.16616 20.7391 6.16616C20.7391 6.16616 20.7391 6.41737 20.7853 6.41737C20.9239 6.16616 21.0624 5.91496 21.2009 6.16616C21.3395 6.41737 21.478 6.16616 21.5704 5.91496V6.16616C21.6628 6.16616 21.7089 6.16616 21.7551 6.16616C21.8013 6.16616 21.8475 6.16616 21.8937 5.91496C21.9398 6.16616 22.0322 6.41737 22.0784 6.41737C22.1246 6.41737 22.1246 6.16616 22.1246 6.16616C22.1246 5.91496 22.1246 5.91496 22.2169 6.16616C22.1707 6.16616 22.1707 6.41737 22.1707 6.41737C22.2169 6.41737 22.2631 6.41737 22.3093 6.41737C22.3555 6.41737 22.4017 6.41737 22.4478 6.41737V6.16616H22.3555C22.3093 6.16616 22.3093 6.16616 22.3093 6.16616C22.3093 6.16616 22.3093 6.16616 22.3093 5.91496C22.4017 5.91496 22.494 5.91496 22.6326 5.91496C22.6787 5.91496 22.6787 6.16616 22.6787 6.16616C22.6326 6.16616 22.6787 6.41737 22.7711 6.41737H22.8173L22.8635 6.16616C22.9558 6.16616 22.9558 6.16616 22.9558 6.41737C22.9558 6.66857 22.9558 6.66857 23.002 6.66857C23.0482 6.66857 23.0482 6.41737 23.0482 6.41737C23.0482 6.41737 23.0482 6.16616 23.0944 6.16616H23.2791C23.2791 6.41737 23.2791 6.41737 23.3253 6.66857V6.41737C23.3253 6.41737 23.3253 6.16616 23.3715 6.16616C23.4638 6.16616 23.5562 6.16616 23.6485 6.16616C23.7409 5.91496 23.8333 6.16616 23.8794 6.41737C23.9256 6.41737 23.9718 6.16616 24.018 5.91496C24.0642 5.66375 24.1103 5.66375 24.2027 5.66375C24.2027 5.66375 24.2489 5.66375 24.2489 5.91496C24.2951 5.91496 24.3413 5.91496 24.3874 5.66375C24.4336 5.41255 24.4798 5.41255 24.526 5.41255C24.526 5.66375 24.526 5.66375 24.5722 5.66375C24.6183 5.66375 24.6183 5.91496 24.5722 5.91496C24.7107 5.41255 24.8492 5.41255 24.9878 5.41255C25.1263 5.41255 25.3111 5.41255 25.4496 5.91496C25.4496 5.91496 25.4496 5.66375 25.4034 5.66375C25.3572 5.66375 25.3572 5.66375 25.4496 5.41255C25.4958 5.66375 25.542 5.66375 25.6343 5.41255C25.6805 5.41255 25.7729 5.41255 25.819 5.41255C25.7267 5.66375 25.6343 5.66375 25.542 5.66375C25.6343 5.91496 25.7729 6.16616 25.8652 5.91496C25.9576 5.66375 26.0961 5.91496 26.1885 6.16616C26.2809 5.91496 26.3732 5.66375 26.4656 5.91496C26.5579 6.16616 26.6965 6.16616 26.7888 5.91496V5.41255C26.6965 5.41255 26.6041 5.41255 26.4656 5.41255C26.4194 5.66375 26.327 5.41255 26.2809 5.16134C26.4656 5.16134 26.6503 4.91014 26.7888 5.16134C26.9274 5.16134 27.0659 5.16134 27.2507 4.91014C27.2507 5.16134 27.2507 5.16134 27.2045 5.16134C27.1583 5.16134 27.1121 5.16134 27.0659 5.16134C27.0197 5.16134 26.9736 5.16134 26.9274 5.16134C26.8812 5.16134 26.8812 5.41255 26.9274 5.41255C27.0197 5.16134 27.1121 5.16134 27.1583 5.16134C27.2507 5.41255 27.343 5.41255 27.4816 5.16134C27.4816 4.91014 27.4816 4.65893 27.5277 4.65893C27.5739 4.91014 27.6201 4.91014 27.6201 4.65893C27.6663 4.65893 27.7125 4.65893 27.7125 4.65893C27.7586 4.91014 27.7586 4.91014 27.6663 4.91014C27.5739 4.91014 27.5739 4.91014 27.5739 4.91014C27.5739 5.16134 27.6663 5.16134 27.7586 4.91014C27.8048 4.91014 27.8048 4.65893 27.8048 4.65893L27.7586 4.40773C27.8048 4.65893 27.8972 4.40773 27.9434 4.40773C27.9895 4.15652 28.0357 4.15652 28.0819 4.40773C28.0357 4.40773 28.0357 4.65893 28.0357 4.65893C28.0357 4.65893 28.0819 4.65893 28.0819 4.91014C27.9434 4.91014 27.8972 4.91014 27.8972 5.41255C27.9434 5.16134 28.0357 5.16134 28.0819 5.16134C28.1281 5.16134 28.2205 5.16134 28.3128 4.91014C28.3128 4.40772 28.359 4.40773 28.4514 4.40773C28.5437 4.40773 28.6361 4.40773 28.7284 4.40773V4.65893C28.7284 4.65893 28.7284 4.65893 28.7284 4.91014H29.0517C29.0517 4.65893 29.0055 4.65893 28.9132 4.65893C28.8208 4.65893 28.8208 4.65893 28.8208 4.40773C29.0055 4.40773 29.1903 4.40773 29.375 4.40773C29.5597 4.40773 29.7444 4.40773 29.883 3.90531C30.0215 4.40773 30.16 4.65893 30.2986 4.65893C30.4833 4.65893 30.6219 4.65893 30.8066 4.40773C30.7142 4.40773 30.6219 4.40773 30.4833 4.40773C30.391 4.40773 30.2986 4.40773 30.16 4.40773C30.3448 4.15652 30.5295 4.15652 30.7142 4.15652C30.8989 4.15652 31.0375 4.15652 31.2222 3.90531C31.176 4.15652 31.2222 4.15652 31.2684 4.15652C31.3146 4.15652 31.3146 4.15652 31.2684 4.15652C31.3146 4.15652 31.3608 4.40773 31.4069 4.40773C31.4531 4.40773 31.5455 4.40773 31.5917 4.65893C31.5917 4.15652 31.6378 3.90531 31.684 3.90531C31.7302 3.90531 31.8226 3.90531 31.8687 4.15652C31.9149 4.40773 31.9611 4.40773 32.0535 4.40773C32.0997 4.40773 32.0996 4.15652 32.0073 4.15652C31.9149 4.15652 31.9149 3.90531 31.9611 3.90531C32.0073 3.90531 32.0996 3.90531 32.1458 3.90531C32.192 3.65411 32.2844 3.90531 32.3306 4.15652C32.2844 4.15652 32.2844 4.15652 32.2844 4.15652H32.2382C32.192 4.40773 32.192 4.65893 32.1458 4.65893C32.3306 4.40773 32.4691 4.40773 32.6538 4.40773C32.7924 4.65893 32.9309 4.40773 33.0694 4.15652H32.8847C32.8385 4.15652 32.7924 4.15652 32.7462 3.90531C32.9771 3.90531 33.208 3.90531 33.4389 3.90531C33.3465 3.90531 33.3004 4.15652 33.3004 4.15652C33.3465 4.15652 33.3927 4.15652 33.3927 4.40773C33.5313 4.40773 33.6698 4.15652 33.8083 4.15652C33.9007 4.15652 34.0392 3.90531 34.0854 3.65411C34.1316 3.90531 34.224 3.90531 34.2701 3.90531C34.3625 3.90531 34.4549 3.90531 34.5472 3.90531C34.5934 3.90531 34.5934 4.15652 34.5472 4.15652C34.5011 4.15652 34.5472 4.40773 34.5934 4.40773C34.5934 4.15652 34.5934 3.90531 34.6396 4.15652C34.6858 4.15652 34.6858 4.40773 34.6858 4.40773C34.732 4.40773 34.732 4.15652 34.6858 4.15652C34.6396 4.15652 34.6858 3.90531 34.6858 3.90531C34.732 3.90531 34.7781 3.90531 34.8243 4.15652C34.8243 4.40773 34.9167 4.40773 35.009 4.40773C35.009 4.15652 35.009 3.90531 35.0552 3.90531C35.0552 4.15652 35.0552 4.15652 35.1014 4.15652C35.1476 4.15652 35.1476 4.40773 35.1476 4.65893C35.24 4.65893 35.3323 4.40773 35.4247 4.65893C35.517 4.65893 35.5632 4.65893 35.6556 4.40773C35.7479 4.65893 35.7941 4.65893 35.8865 4.65893C35.9788 4.65893 36.0712 4.40773 36.1174 4.40773C36.2098 4.15652 36.3021 4.15652 36.3483 3.90531C36.4407 3.65411 36.4868 3.65411 36.5792 3.4029V3.65411C36.5792 3.65411 36.5792 3.65411 36.5792 3.90531C36.6254 3.90531 36.6254 3.90531 36.6716 3.90531C36.7177 3.90531 36.7639 3.90531 36.7639 3.90531L36.7177 4.15652C36.7639 4.15652 36.8101 4.15652 36.8563 4.15652C36.9025 4.15652 36.9486 4.15652 36.9948 4.15652C36.9948 4.40773 36.9948 4.40773 36.9486 4.40773C36.9025 4.40773 36.8563 4.40773 36.8563 4.40773C36.8101 4.40773 36.8101 4.40773 36.7639 4.40773C36.7639 4.40773 36.7177 4.40773 36.7177 4.65893C36.7639 4.65893 36.8563 4.65893 36.9025 4.65893C36.9948 4.65893 37.041 4.65893 37.0872 4.40773C37.041 4.40773 37.041 4.40773 37.041 4.15652L36.9948 3.90531C36.9948 3.65411 37.041 3.65411 37.0872 3.65411C37.0872 3.65411 37.1334 3.65411 37.1334 3.90531C37.1334 3.90531 37.1334 3.90531 37.1796 3.90531C37.2719 3.65411 37.3643 3.65411 37.4566 3.4029C37.549 3.4029 37.6414 3.1517 37.7337 3.1517C37.7799 3.1517 37.8723 3.4029 37.9184 3.4029C37.9646 3.65411 38.057 3.65411 38.1032 3.65411C38.1032 3.4029 38.1032 3.1517 38.1493 3.1517C38.1032 3.1517 38.057 3.1517 38.057 3.1517C38.0108 3.1517 38.0108 3.1517 38.0108 2.90049C38.057 2.90049 38.1493 2.90049 38.1955 2.90049C38.2417 2.90049 38.2879 2.90049 38.3341 2.90049C38.2417 3.1517 38.1955 3.4029 38.2417 3.90531C38.3341 3.90531 38.3341 3.90531 38.2879 3.65411C38.2417 3.4029 38.2417 3.4029 38.2879 3.4029C38.3341 3.65411 38.3803 3.65411 38.4264 3.65411C38.4726 3.65411 38.565 3.65411 38.6112 3.90531C38.6573 4.15652 38.7497 4.15652 38.7959 4.15652H39.073C39.0268 3.90531 39.073 3.90531 39.1653 3.65411C39.2115 3.4029 39.3039 3.4029 39.3501 3.4029C39.3962 3.65411 39.3962 3.65411 39.3501 3.65411C39.3039 3.65411 39.3039 3.65411 39.3039 3.90531C39.3962 3.90531 39.3962 3.90531 39.3962 4.15652C39.4424 4.40773 39.5348 4.15652 39.581 4.15652C39.6271 3.90531 39.6733 3.90531 39.7195 3.65411C39.7657 3.90531 39.8119 3.90531 39.858 3.90531C39.9042 3.90531 39.9504 3.65411 39.9504 3.65411C40.0428 4.15652 40.1351 4.40773 40.2737 4.15652C40.4122 3.90531 40.5046 3.90531 40.5969 3.65411C40.6431 3.90531 40.7355 3.90531 40.8278 3.90531C40.9202 3.90531 41.0126 3.90531 41.0588 4.15652C41.1049 4.15652 41.1049 3.90531 41.1511 3.65411C41.1511 3.4029 41.2435 3.4029 41.3358 3.4029V3.65411V3.90531H41.382C41.382 3.90531 41.382 3.90531 41.3358 4.15652V3.90531H41.2897C41.2897 3.90531 41.2896 3.90531 41.2435 3.90531C41.2435 4.15652 41.2435 4.15652 41.2435 4.15652L41.1973 4.40773C41.2435 4.40773 41.2435 4.40773 41.2435 4.40773C41.2896 4.40773 41.3358 4.40773 41.382 4.40773C41.382 4.15652 41.382 3.90531 41.4282 3.90531C41.4744 4.15652 41.5206 4.15652 41.5667 4.40773C41.6129 4.40773 41.6591 4.40773 41.7053 4.40773C41.7515 4.40773 41.7976 4.40773 41.8438 4.15652C41.89 4.15652 41.9362 4.15652 41.9824 4.15652C42.0285 4.15652 42.0285 3.90531 42.0285 3.90531C42.0285 3.90531 42.0285 3.65411 42.0747 3.65411C42.1209 3.65411 42.1209 3.90531 42.1209 3.90531C42.0747 4.15652 42.1209 4.15652 42.2133 4.15652C42.2133 3.90531 42.2133 3.90531 42.2595 3.90531C42.3056 3.90531 42.3056 3.90531 42.3518 3.65411C42.398 3.65411 42.398 3.90531 42.4442 3.90531H42.5827C42.5827 4.15652 42.5827 4.15652 42.6289 4.15652C42.6751 3.90531 42.7674 3.90531 42.8598 4.15652C42.9983 4.40773 43.0907 4.15652 43.0907 3.90531C42.9983 3.90531 42.9983 3.90531 42.9983 3.65411C43.0445 3.4029 43.0445 3.4029 43.0907 3.1517C43.1369 2.90049 43.1831 2.90049 43.2293 3.1517C43.1831 3.4029 43.1831 3.4029 43.1369 3.4029C43.0907 3.4029 43.0907 3.4029 43.0907 3.65411C43.2292 3.65411 43.3678 3.65411 43.4602 3.90531C43.5525 4.15652 43.6911 3.90531 43.7834 3.65411C43.7834 3.4029 43.8296 3.4029 43.8758 3.4029C43.922 3.4029 43.9681 3.4029 44.0143 3.4029V3.65411H44.1067C44.0605 3.65411 44.0143 3.65411 44.0143 3.65411C44.0143 3.4029 44.0605 3.1517 44.1529 3.1517C44.1529 3.4029 44.1529 3.65411 44.1529 3.65411C44.1991 3.90531 44.1529 4.15652 44.1067 4.40773C44.1529 4.40773 44.1991 4.15652 44.2914 3.90531C44.3376 3.65411 44.43 3.65411 44.4761 3.65411C44.5223 3.90531 44.5685 4.15652 44.6609 3.90531C44.7532 3.90531 44.8456 3.90531 44.8918 4.15652C44.9379 3.90531 44.9841 3.65411 44.9841 3.90531C45.0303 4.15652 45.0303 4.15652 45.0303 4.15652C44.9841 4.15652 44.9841 4.15652 44.9841 4.40773C45.0765 4.40773 45.0765 4.40773 45.0765 4.40773C45.0765 4.15652 45.1227 4.15652 45.1688 4.40773V4.65893C45.215 4.65893 45.215 4.65893 45.215 4.65893C45.215 4.40773 45.215 4.40773 45.1688 4.40773C45.215 4.40773 45.2612 4.15652 45.2612 3.90531C45.2612 3.65411 45.3074 3.65411 45.3536 3.90531C45.3536 3.65411 45.3536 3.65411 45.3536 3.65411C45.3074 3.65411 45.3074 3.4029 45.3074 3.4029C45.3536 3.4029 45.3998 3.65411 45.4459 3.65411C45.4921 3.65411 45.5383 3.65411 45.5845 3.90531C45.5383 3.90531 45.5383 4.15652 45.4921 4.15652C45.4459 4.15652 45.4459 4.15652 45.4459 4.40773C45.4459 4.65893 45.4921 4.91014 45.5383 4.91014C45.5383 4.65893 45.5845 4.40773 45.6768 4.40773C45.7692 4.40773 45.8154 4.15652 45.8616 4.15652C45.8616 4.15652 45.8616 4.40773 45.8154 4.40773C45.8154 4.40773 45.7692 4.40773 45.7692 4.65893C45.8154 4.65893 45.8616 4.65893 45.8616 4.40773C45.8616 4.40773 45.9077 4.40773 45.9077 4.65893C45.9539 4.65893 45.9539 4.40773 45.9077 4.40773C45.8616 4.40773 45.9077 4.15652 45.9539 4.15652V4.40773C45.9539 4.40773 45.9539 4.40773 46.0001 4.40773C46.0001 4.40773 46.0001 4.65893 45.9539 4.65893C45.9077 4.65893 45.9077 4.91014 45.9077 4.91014C45.9539 4.91014 46.0001 4.91014 46.0001 4.91014C46.0463 4.91014 46.0463 4.91014 46.0925 4.91014C46.0925 4.65893 46.0925 4.65893 46.1386 4.65893C46.1848 4.65893 46.1848 4.65893 46.1848 4.91014C46.1848 4.91014 46.1848 5.16134 46.231 5.16134C46.231 4.91014 46.231 4.91014 46.2772 4.91014C46.3234 5.16134 46.3696 5.16134 46.4157 5.16134C46.4619 4.91014 46.5543 4.91014 46.6466 4.65893C46.6928 4.91014 46.739 4.91014 46.8775 4.91014C46.9699 4.91014 47.0161 4.91014 47.1084 4.91014C47.1084 4.91014 47.0623 5.16134 47.0161 5.16134C46.9699 5.16134 46.9699 5.16134 46.9699 5.41255C47.0161 5.16134 47.1084 5.16134 47.1546 5.16134C47.2008 5.41255 47.2932 5.41255 47.3394 5.16134C47.3855 4.91014 47.3394 4.65893 47.2932 4.91014C47.2008 4.91014 47.2008 4.91014 47.247 4.65893C47.3855 4.65893 47.4779 4.65893 47.4317 4.65893C47.4317 4.91014 47.4779 4.91014 47.5703 5.16134C47.6626 5.16134 47.6626 4.91014 47.5703 4.91014C47.5241 4.91014 47.5241 4.65893 47.5703 4.65893C47.7088 4.65893 47.8012 4.65893 47.8935 4.65893C47.9859 4.65893 48.1244 4.91014 48.1706 5.41255C48.1706 5.16134 48.1706 5.16134 48.1706 4.91014C48.1706 4.65893 48.1706 4.65893 48.2168 4.65893C48.263 4.65893 48.263 4.65893 48.263 4.91014C48.263 5.16134 48.263 5.16134 48.3553 5.16134C48.4015 5.16134 48.4015 4.91014 48.3553 4.91014C48.3092 4.91014 48.3092 4.65893 48.3553 4.65893C48.5401 4.91014 48.771 5.16134 48.9557 4.91014C49.1866 4.91014 49.3713 4.65893 49.6022 4.65893C49.6484 4.91014 49.6484 4.91014 49.6022 4.91014C49.556 4.91014 49.556 4.91014 49.556 5.16134C49.556 5.16134 49.6484 5.41255 49.7408 5.41255C49.7408 4.91014 49.7869 4.91014 49.8331 4.91014C49.8331 4.91014 49.8331 4.91014 49.8331 5.16134C49.8331 5.16134 49.8331 5.16134 49.8331 5.41255C50.0178 5.41255 50.1564 5.41255 50.2487 5.41255L50.572 5.66375L50.5258 5.91496C50.4797 5.91496 50.4797 5.91496 50.5258 6.16616C50.6182 6.16616 50.6644 6.16616 50.7567 6.16616C50.8491 6.16616 50.8953 6.16616 50.8953 5.91496C50.8491 5.91496 50.8029 5.66375 50.8029 5.91496C50.7567 5.91496 50.7106 5.91496 50.7106 5.91496C50.8491 5.66375 51.0338 5.66375 51.1724 5.66375C51.3571 5.66375 51.4956 5.66375 51.6804 5.91496C51.8651 5.91496 52.0498 5.91496 52.2345 5.66375C52.3731 5.66375 52.5116 5.66375 52.6502 6.16616C52.6502 6.16616 52.6963 6.16616 52.7425 6.16616C52.7887 6.16616 52.8349 5.91496 52.8811 5.91496C52.9272 5.91496 52.9272 6.16616 52.9272 6.16616C52.9272 6.16616 52.9734 6.41737 53.0658 6.16616C53.112 6.16616 53.112 5.91496 53.112 5.91496C53.0658 5.91496 53.112 5.66375 53.1581 5.66375C53.2043 5.91496 53.2043 6.16616 53.2505 6.16616C53.2967 5.91496 53.3429 5.91496 53.4352 5.66375C53.7123 5.91496 53.9432 5.91496 54.1741 6.16616C54.405 6.16616 54.6821 6.16616 54.913 6.16616L54.9592 5.91496C54.9592 5.91496 55.0054 5.66375 55.0054 5.41255C54.9592 5.41255 54.913 5.41255 54.913 5.41255C54.8668 5.41255 54.8668 5.41255 54.8668 5.16134C54.9592 5.16134 55.0516 5.16134 55.1439 5.16134C55.2363 5.16134 55.3287 5.16134 55.421 4.91014C55.4672 4.91014 55.4672 5.16134 55.421 5.16134C55.4672 5.16134 55.5134 5.16134 55.5596 5.16134C55.6057 5.16134 55.6519 5.16134 55.6519 4.91014C55.4672 4.91014 55.2825 4.91014 55.1439 4.65893C54.9592 4.40773 54.7745 4.40773 54.5898 4.65893C54.5898 4.65893 54.5898 4.91014 54.5898 5.16134C54.5898 5.41255 54.5436 5.66375 54.4974 5.66375C54.4512 5.41255 54.4512 5.41255 54.4974 5.16134C54.5436 4.91014 54.5436 4.91014 54.4512 4.91014C54.405 4.91014 54.405 5.16134 54.3589 5.16134C54.3589 5.41255 54.3127 5.41255 54.2665 5.41255C54.2203 5.41255 54.1741 5.41255 54.1741 5.16134C54.1279 5.16134 54.0818 5.16134 54.0818 5.16134C54.0356 5.16134 54.0356 5.41255 54.0356 5.66375C54.0356 5.91496 54.0356 5.91496 53.9432 5.91496C53.9432 5.91496 53.9432 5.66375 53.9894 5.66375C53.9894 5.66375 53.9894 5.41255 53.9432 5.41255C53.9432 5.16134 53.897 5.16134 53.8509 5.16134C53.8047 5.16134 53.7585 5.16134 53.8047 4.91014C53.897 4.91014 54.0356 4.91014 54.1279 5.16134C54.2203 5.16134 54.3127 5.16134 54.405 4.91014C54.1741 4.91014 53.9432 4.65893 53.6661 4.65893C53.3891 4.65893 53.112 4.40773 52.8349 4.40773C52.5578 4.40773 52.2345 4.15652 51.9574 4.15652C51.6804 4.15652 51.4033 4.15652 51.1724 4.15652C51.2185 4.40773 51.3109 4.40773 51.4033 4.40773C51.4956 4.40773 51.5418 4.40773 51.6342 4.65893C51.8651 4.40773 52.0498 4.40773 52.2807 4.40773C52.4654 4.40773 52.6963 4.65893 52.8811 4.65893C52.8811 4.65893 52.8811 4.91014 52.8349 4.91014C52.8349 4.91014 52.8349 4.91014 52.8811 4.91014C53.0196 4.65893 53.2043 4.65893 53.3429 4.65893C53.4814 4.65893 53.6661 4.91014 53.8047 4.91014C53.8047 5.16134 53.7585 5.16134 53.7123 5.16134C53.6661 5.16134 53.62 5.16134 53.6661 5.41255C53.7123 5.41255 53.7123 5.66375 53.7585 5.41255H53.8047C53.7123 5.66375 53.62 5.66375 53.5738 5.41255C53.5276 5.16134 53.4352 4.91014 53.3429 4.91014C53.2043 5.16134 53.0658 5.16134 52.9734 4.91014C52.9734 5.41255 52.9272 5.66375 52.7887 5.66375V5.41255C52.7425 5.41255 52.7425 5.41255 52.7425 5.41255H52.6963L52.7425 5.16134C52.7887 5.16134 52.7887 5.16134 52.7887 5.41255C52.8349 5.16134 52.8811 5.16134 52.8811 5.16134C52.7887 4.91014 52.7425 4.91014 52.6502 4.91014C52.604 4.91014 52.5116 4.91014 52.4654 4.65893C52.3731 4.91014 52.2807 4.91014 52.1884 4.65893C52.096 4.40773 52.0036 4.65893 51.9574 4.91014C51.9113 4.65893 51.8189 4.65893 51.7727 4.65893C51.7265 4.65893 51.7265 4.91014 51.7265 5.16134C51.7265 5.41255 51.6804 5.41255 51.6342 5.41255V5.16134L51.6804 4.91014C51.6342 4.65893 51.4956 4.40773 51.4495 4.65893C51.3571 4.91014 51.2647 4.65893 51.2186 4.40773C51.1724 4.65893 51.1262 4.91014 51.0338 4.65893C50.9415 4.65893 50.8491 4.65893 50.8029 4.65893C50.8491 4.65893 50.8953 4.65893 50.9415 4.91014C50.9876 5.16134 50.9415 5.16134 50.8953 5.41255C50.8491 5.16134 50.8029 4.91014 50.7567 4.91014C50.7106 4.91014 50.6644 4.65893 50.7106 4.40773C50.572 4.65893 50.4335 4.65893 50.2949 4.40773C50.2026 4.40773 50.064 4.40773 49.9717 4.65893C49.7408 4.15652 49.5099 4.15652 49.2328 4.15652C48.9557 4.15652 48.6786 4.15652 48.4015 4.15652C48.1706 3.90531 47.8935 3.90531 47.6626 3.90531C47.3855 3.90531 47.1085 3.90531 46.8314 3.65411C46.9237 3.4029 47.0623 3.4029 47.1546 3.65411C47.2932 3.90531 47.3855 3.65411 47.4317 3.4029C47.2932 3.4029 47.1546 3.1517 47.0623 3.4029C46.9699 3.4029 46.8775 3.4029 46.739 3.4029C46.6928 3.4029 46.6928 3.65411 46.739 3.65411C46.7852 3.65411 46.7852 3.90531 46.739 3.90531C46.1848 3.90531 45.6768 3.90531 45.215 3.90531C45.1688 3.90531 45.1688 4.15652 45.1688 4.40773C45.1688 4.65893 45.1227 4.65893 45.0303 4.40773H45.0765C45.0765 4.40773 45.1227 4.40773 45.1227 4.15652C44.9841 3.90531 44.7994 3.90531 44.6609 3.90531C44.4761 4.15652 44.3838 3.90531 44.3376 3.65411C44.3838 3.65411 44.43 3.65411 44.4761 3.65411C44.5223 3.65411 44.5223 3.65411 44.5223 3.4029C44.3376 3.4029 44.1529 3.4029 43.9681 3.4029C43.7834 3.1517 43.5987 3.4029 43.4602 3.65411C43.5987 3.65411 43.7372 3.65411 43.8296 3.65411C43.9681 3.4029 44.0605 3.65411 44.1991 3.90531C43.7372 3.90531 43.2754 3.90531 42.8136 3.90531C42.3518 3.90531 41.9362 3.90531 41.4744 3.90531C41.4282 3.90531 41.4282 3.90531 41.4282 4.15652C41.4282 4.15652 41.382 4.40773 41.3358 4.40773C41.3358 4.15652 41.2896 4.15652 41.2435 4.15652C41.1973 4.15652 41.1511 4.15652 41.1049 3.90531C40.5046 3.90531 39.858 3.90531 39.2577 3.90531C38.6573 3.90531 38.057 3.90531 37.549 3.90531C37.5952 3.65411 37.549 3.65411 37.5028 3.4029C37.4105 3.65411 37.3181 3.65411 37.1796 3.4029C37.041 3.1517 36.9486 3.4029 36.9025 3.65411C36.9948 3.65411 37.0872 3.65411 37.2257 3.65411C37.3181 3.4029 37.4105 3.65411 37.5028 3.90531C37.2719 3.90531 36.9948 3.90531 36.7639 4.15652C36.4868 4.15652 36.2559 4.15652 35.9788 3.90531L36.4407 3.65411C36.5792 3.65411 36.7177 3.65411 36.8563 3.65411V3.4029C36.8563 3.4029 36.8563 3.4029 36.8563 3.1517C36.4868 3.4029 36.1174 3.4029 35.7479 3.4029C35.4247 3.1517 35.0552 3.4029 34.732 4.15652C34.6858 4.15652 34.6396 4.15652 34.5934 4.15652C34.5472 4.15652 34.5011 4.15652 34.4549 3.90531C34.5011 3.90531 34.5934 3.90531 34.6396 3.90531C34.732 3.90531 34.732 3.90531 34.732 3.65411C33.716 3.65411 32.7462 3.90531 31.9149 3.90531C31.0375 3.90531 30.1139 4.15652 29.0979 4.15652L28.867 4.40773C28.5899 4.40773 28.359 4.15652 28.0819 4.40773C27.8048 4.40773 27.5277 4.65893 27.2968 4.65893C27.1121 4.40773 26.9274 4.40773 26.7427 4.40773C26.5579 4.40773 26.3732 4.65893 26.1885 4.65893V4.91014C26.2347 4.91014 26.2347 4.91014 26.2347 5.16134C26.1885 5.16134 26.1885 5.16134 26.1423 5.41255C26.0961 5.41255 26.0961 5.41255 26.0499 5.41255L26.0961 5.16134C26.0961 5.16134 26.0961 4.91014 26.0961 4.65893C25.4958 4.91014 24.8954 4.91014 24.2489 4.91014C23.6947 4.91014 23.0944 5.16134 22.5402 5.41255C21.7551 5.41255 20.8777 5.41255 20.0464 5.66375C19.169 5.91496 18.3839 6.16616 17.645 6.16616C17.137 6.16616 16.629 6.16616 16.0749 6.41737C15.5207 6.66857 15.0127 6.66857 14.4585 6.41737C14.2738 6.66857 14.0891 6.66857 13.9044 6.66857C13.7196 6.66857 13.5349 6.66857 13.3502 6.41737C13.9505 6.41737 14.5047 6.16616 15.1051 5.91496C15.7054 5.66375 16.2596 5.66375 16.7676 5.91496C16.8138 5.66375 16.8599 5.66375 16.9523 5.66375C16.9985 5.66375 17.0908 5.66375 17.137 5.41255C17.2756 5.66375 17.4141 5.66375 17.5988 5.66375C17.7374 5.66375 17.8759 5.41255 18.0145 5.41255C18.0145 5.41255 18.0606 5.41255 18.0606 5.66375C18.0606 5.66375 18.0606 5.66375 18.1068 5.66375C18.2916 5.41255 18.5225 5.41255 18.7072 5.41255C18.8919 5.41255 19.0766 5.41255 19.3075 5.41255C19.7232 5.41255 20.185 5.41255 20.6468 5.16134C21.1086 4.91014 21.5704 4.91014 22.0322 4.65893C22.1707 4.65893 22.3555 4.65893 22.494 4.65893C22.6326 4.65893 22.7711 4.65893 22.9558 4.65893C23.0482 4.65893 23.1405 4.65893 23.1867 4.40773C23.2791 4.40773 23.3253 4.40773 23.4176 4.40773C23.5562 4.40773 23.6485 4.40773 23.7871 4.40773C23.9256 4.40773 24.018 4.40773 24.1103 4.40773C24.3413 4.40773 24.5722 4.40773 24.8031 4.40773C25.034 4.40773 25.2649 4.15652 25.5881 4.15652C26.6503 4.15652 27.7125 3.90531 28.867 3.65411C30.0215 3.4029 31.1298 3.4029 32.192 3.4029C32.4691 3.4029 32.7924 3.4029 33.0694 3.4029L33.9469 3.1517C34.8243 3.1517 35.7018 2.90049 36.6254 2.90049C37.549 2.90049 38.4726 2.64929 39.3501 2.64929C39.3962 2.64929 39.3962 2.64929 39.3962 2.90049C39.3962 2.90049 39.4424 2.90049 39.4886 2.90049C40.4122 2.90049 41.3358 2.64929 42.2133 2.64929C43.0907 2.64929 44.0143 2.64929 44.9379 2.90049C45.723 2.64929 46.5081 2.64929 47.3855 2.90049C48.263 3.1517 49.1404 3.1517 50.0178 3.1517C50.3411 3.4029 50.7567 3.4029 51.2186 3.4029C51.6804 3.4029 52.096 3.4029 52.4193 3.65411C53.2505 3.90531 54.1279 4.15652 55.0054 4.40773C55.929 4.65893 56.7603 4.91014 57.5915 5.16134C57.961 5.41255 58.2842 5.66375 58.6537 5.66375C58.9769 5.66375 59.3002 5.91496 59.6235 6.16616C59.0693 6.16616 58.469 5.91496 57.8686 5.66375C57.2682 5.41255 56.6679 5.16134 56.0676 5.41255C56.1137 5.41255 56.1137 5.66375 56.1137 5.66375C56.1137 5.91496 56.1137 5.91496 56.0676 5.91496C56.0214 5.66375 55.929 5.91496 55.8828 5.91496C55.8366 6.16616 55.7443 5.91496 55.6981 5.66375C55.6981 6.16616 55.6519 6.16616 55.5596 5.91496C55.5134 5.66375 55.421 5.66375 55.3748 5.91496C55.3748 6.16616 55.421 6.41737 55.4672 6.41737C55.5134 6.41737 55.6057 6.66857 55.6519 6.66857C55.6981 6.41737 55.6981 6.41737 55.7443 6.41737H55.929C55.9752 6.41737 55.9752 6.16616 55.9752 6.16616C55.9752 6.16616 55.9752 5.91496 56.0214 5.91496C56.0675 5.91496 56.1137 5.91496 56.2061 6.16616C56.2061 6.16616 56.1599 6.41737 56.1137 6.41737C56.0676 6.41737 56.0214 6.41737 56.0676 6.66857C56.1599 6.91978 56.2523 6.91978 56.3446 6.66857C56.4832 6.66857 56.5294 6.66857 56.5755 6.91978H56.3908C56.3446 6.91978 56.2985 6.91978 56.2985 7.17098C56.6679 7.17098 57.0373 7.17098 57.4068 7.67339C57.7301 7.9246 58.0995 8.1758 58.469 8.1758C58.469 8.1758 58.469 8.42701 58.5151 8.42701C58.5613 8.42701 58.5613 8.42701 58.5613 8.42701C58.7922 8.42701 59.0693 8.1758 59.3002 8.42701C59.5773 8.42701 59.8544 8.42701 60.1777 8.42701C60.27 8.42701 60.4086 8.42701 60.5009 8.1758C60.6395 7.9246 60.778 7.9246 60.8704 7.9246C60.5933 7.42219 60.5933 7.17098 60.5933 6.91978ZM54.8207 5.16134C54.7745 5.16134 54.7745 5.41255 54.7745 5.66375C54.7745 5.91496 54.7745 5.91496 54.6821 5.91496C54.6821 5.66375 54.6821 5.41255 54.6821 5.41255C54.6359 5.41255 54.6359 5.16134 54.6359 5.16134C54.6821 5.16134 54.7745 5.16134 54.8207 5.16134ZM53.8509 5.41255C53.8509 5.66375 53.8509 5.66375 53.8509 5.41255C53.8047 5.66375 53.7585 5.41255 53.7585 5.41255H53.8509ZM52.3731 5.16134C52.4193 5.16134 52.4193 5.16134 52.4193 5.16134C52.4193 5.16134 52.4193 5.16134 52.4654 5.16134C52.4654 5.41255 52.4654 5.41255 52.3731 5.16134C52.3269 5.41255 52.3269 5.41255 52.3731 5.16134ZM52.1884 5.16134C52.2345 5.16134 52.2345 5.41255 52.2345 5.41255C52.1884 5.41255 52.1884 5.41255 52.1422 5.41255C52.1422 5.16134 52.1422 4.91014 52.1884 5.16134ZM51.3109 4.91014C51.3109 5.16134 51.3109 5.16134 51.3109 5.16134C51.3109 5.16134 51.3571 5.16134 51.3571 5.41255C51.2647 5.41255 51.1724 5.16134 51.1724 4.91014H51.3109ZM50.4335 4.65893C50.4335 4.65893 50.4797 4.65893 50.4335 4.65893C50.4797 4.91014 50.4335 5.16134 50.3873 4.91014L50.4335 4.65893C50.4335 4.65893 50.3873 4.65893 50.4335 4.65893ZM49.3713 4.65893C49.4175 4.65893 49.4175 4.65893 49.4175 4.91014C49.4175 4.91014 49.4175 5.16134 49.3713 5.16134C49.3713 4.91014 49.3713 4.91014 49.3713 4.65893C49.3713 4.65893 49.3251 4.65893 49.3713 4.65893ZM49.2789 4.65893C49.2789 4.91014 49.2789 4.91014 49.2789 4.65893V4.65893ZM47.755 4.91014C47.755 4.91014 47.755 4.91014 47.7088 4.91014H47.755ZM47.5703 4.40773H47.6164V4.65893H47.5703V4.40773ZM47.4779 4.91014H47.5703V5.16134L47.4779 4.91014ZM47.0161 4.15652C47.0623 4.15652 47.0623 4.15652 47.0623 4.15652C47.0623 4.15652 47.0623 4.15652 47.1084 4.15652C47.1546 4.40773 47.1546 4.40773 47.0161 4.15652C47.0161 4.40773 47.0161 4.40773 47.0161 4.15652ZM46.5543 4.40773H46.6005V4.65893H46.5543V4.40773ZM43.0445 4.40773V4.65893H42.9522V4.40773H43.0445ZM42.6751 4.65893H42.7674V4.91014L42.6751 4.65893ZM42.4442 4.15652H42.4904C42.4904 4.40773 42.4904 4.65893 42.4442 4.15652C42.398 4.40773 42.398 4.40773 42.3518 4.15652C42.3518 4.40773 42.398 4.15652 42.4442 4.15652ZM41.5206 4.91014C41.5667 4.91014 41.5667 4.91014 41.5667 4.91014C41.6129 4.91014 41.6129 4.91014 41.6129 5.16134C41.6129 5.41255 41.5667 5.41255 41.5206 5.16134V4.91014ZM40.4584 4.15652C40.5508 4.15652 40.5508 4.15652 40.5508 4.15652C40.5969 4.40773 40.5508 4.40773 40.5046 4.40773C40.4584 4.40773 40.4122 4.40773 40.4584 4.15652ZM40.2737 4.40773H40.3199V4.65893H40.2737V4.40773ZM40.1351 4.40773H40.1813V4.65893L40.1351 4.40773ZM39.9966 4.40773C40.0428 4.40773 40.0889 4.65893 40.0428 4.65893C39.9966 4.65893 39.9504 4.65893 39.9042 4.40773C39.9042 4.40773 39.9042 4.40773 39.9966 4.40773ZM39.6733 4.40773C39.7195 4.40773 39.8119 4.40773 39.858 4.40773C39.858 4.40773 39.858 4.65893 39.7657 4.65893C39.6733 4.65893 39.6733 4.65893 39.6733 4.40773ZM38.6573 5.16134C38.7035 4.91014 38.7497 4.91014 38.8421 4.91014C38.8421 5.16134 38.7497 5.16134 38.6573 5.16134C38.6573 5.16134 38.6112 5.16134 38.6573 5.16134ZM38.5188 4.40773H38.4726V4.15652H38.5188C38.565 4.15652 38.565 4.15652 38.5188 4.40773ZM37.7337 4.40773C37.7799 4.40773 37.7799 4.65893 37.8261 4.65893C37.7337 4.65893 37.7337 4.40773 37.7337 4.40773ZM37.5952 4.40773C37.6414 4.40773 37.6414 4.40773 37.6414 4.40773H37.6875C37.6875 4.40773 37.6875 4.40773 37.6875 4.65893C37.6414 4.65893 37.5952 4.40773 37.5952 4.40773C37.549 4.40773 37.549 4.40773 37.5952 4.40773ZM37.3643 4.40773C37.4105 4.40773 37.4566 4.40773 37.4105 4.65893L37.3643 4.91014C37.3181 4.91014 37.3181 4.91014 37.3181 4.65893C37.3643 4.40773 37.3643 4.40773 37.3643 4.40773ZM37.0872 4.65893C37.041 4.65893 36.9948 4.40773 36.9486 4.15652C37.041 4.40773 37.0872 4.40773 37.0872 4.65893ZM36.3945 4.40773C36.4868 4.40773 36.4868 4.65893 36.4407 4.65893H36.3945V4.40773ZM36.0712 4.40773C36.1174 4.40773 36.1636 4.65893 36.1174 4.65893H36.0712H36.025C36.025 4.65893 36.025 4.40773 36.0712 4.40773C36.0712 4.40773 36.025 4.40773 36.0712 4.40773ZM35.7941 5.16134C35.8403 5.16134 35.8865 5.16134 35.9327 5.16134C35.9788 5.16134 36.025 4.91014 36.0712 4.91014C36.1174 4.65893 36.2098 4.65893 36.2559 4.91014C36.2559 5.16134 36.3021 5.16134 36.3483 5.16134C36.3021 5.41255 36.2097 5.41255 36.1636 5.41255C36.1174 5.41255 36.025 5.41255 35.9327 5.16134C35.8865 5.41255 35.7941 5.41255 35.7479 5.41255C35.6556 5.41255 35.6094 5.16134 35.6094 4.91014C35.6556 5.16134 35.7479 5.16134 35.7941 5.16134ZM35.517 3.90531H35.7018C35.7018 3.90531 35.6556 4.15652 35.6094 4.15652C35.5632 4.15652 35.4709 3.90531 35.517 3.90531ZM35.2861 3.90531C35.3323 3.90531 35.3785 3.90531 35.4709 3.90531C35.4709 4.15652 35.4247 4.15652 35.3323 4.15652C35.2861 4.15652 35.24 4.15652 35.1938 4.15652C35.1938 3.90531 35.24 3.65411 35.2861 3.90531ZM35.1938 4.65893C35.1938 4.40773 35.1938 4.40773 35.2399 4.40773C35.2861 4.40773 35.2861 4.65893 35.2861 4.65893C35.24 4.91014 35.24 4.91014 35.1938 4.65893ZM34.9629 4.91014C34.9167 4.91014 34.9167 4.91014 34.8705 4.65893C34.8243 4.65893 34.7781 4.65893 34.732 4.65893C34.732 4.40773 34.7781 4.40773 34.8705 4.40773C34.9629 4.40773 34.9629 4.65893 34.9629 4.91014ZM34.5934 4.65893H34.6858V4.91014L34.5934 4.65893ZM32.3767 5.16134C32.3767 5.16134 32.4229 5.16134 32.3767 5.16134C32.4229 5.16134 32.4229 5.16134 32.3767 5.16134ZM32.7462 5.16134C32.7 5.16134 32.7462 4.91014 32.7462 5.16134C32.7924 5.16134 32.7924 5.16134 32.7462 5.16134ZM32.9771 4.65893C33.0695 4.65893 33.1156 4.65893 33.0694 4.91014C33.0694 4.91014 33.0233 4.91014 32.9771 4.65893C32.9771 4.65893 32.9771 4.91014 32.9771 4.65893ZM33.3927 4.91014H33.3004V4.65893C33.3465 4.65893 33.3465 4.65893 33.3927 4.91014ZM33.5313 5.16134C33.5774 5.16134 33.5774 4.91014 33.5313 5.16134C33.5774 4.91014 33.5774 5.16134 33.5774 5.41255L33.5313 5.16134C33.4851 5.16134 33.4851 5.16134 33.5313 5.16134ZM33.6236 5.66375C33.5774 5.66375 33.5313 5.66375 33.5313 5.66375C33.5774 5.41255 33.6236 5.41255 33.6698 5.66375C33.6698 5.66375 33.6698 5.66375 33.6236 5.66375ZM33.716 5.41255C33.7622 5.16134 33.7622 5.16134 33.8083 4.91014C33.8545 4.65893 33.9007 4.65893 33.9469 4.91014C33.9469 5.41255 33.9007 5.66375 33.716 5.41255ZM33.7622 3.90531C33.8545 3.90531 33.9469 3.90531 34.0392 3.65411H34.0854C34.0854 3.65411 34.0854 3.65411 34.1316 3.65411V3.90531C34.0392 3.90531 33.9931 3.90531 33.9469 4.15652C33.8083 4.40773 33.7622 4.15652 33.7622 3.90531ZM33.716 4.65893C33.7622 4.91014 33.7622 4.91014 33.716 4.65893C33.6698 4.65893 33.6698 4.91014 33.6698 4.91014C33.6236 4.91014 33.6236 4.91014 33.6236 4.65893C33.6698 4.65893 33.716 4.65893 33.716 4.65893ZM32.5615 4.40773C32.6538 4.15652 32.7462 4.15652 32.8847 4.15652C32.9771 4.40773 33.1156 4.15652 33.208 3.90531C33.2542 4.15652 33.3004 4.15652 33.4389 4.15652C33.5313 3.90531 33.6236 4.15652 33.716 4.40773C33.5313 4.40773 33.3465 4.40773 33.1618 4.40773C32.9309 4.40773 32.7462 4.40773 32.5615 4.40773ZM32.3767 4.15652H32.4691C32.5153 4.15652 32.5153 4.40773 32.4691 4.40773L32.3767 4.15652ZM32.3767 5.16134C32.3767 5.16134 32.3767 5.16134 32.2844 5.16134C32.2844 5.41255 32.3306 5.16134 32.3767 5.16134ZM31.9611 4.15652H32.0535V4.40773L31.9611 4.15652ZM31.7302 4.40773C31.7302 4.15652 31.7764 3.90531 31.8226 4.15652C31.8687 4.40773 31.8226 4.65893 31.7302 4.40773ZM31.5917 4.15652H31.6378V4.40773L31.5917 4.15652ZM31.5917 5.41255L31.5455 5.66375C31.5455 5.66375 31.4993 5.91496 31.4531 5.91496C31.4531 5.66375 31.4531 5.66375 31.4993 5.66375C31.5455 5.66375 31.5455 5.66375 31.4993 5.41255C31.5455 5.16134 31.5455 5.16134 31.5917 5.41255ZM31.4993 5.16134C31.4531 5.16134 31.4531 5.16134 31.4993 5.16134C31.4531 5.16134 31.4531 5.16134 31.4069 5.16134C31.4069 5.16134 31.4069 5.16134 31.4993 5.16134C31.4993 4.91014 31.4993 4.91014 31.4993 5.16134ZM31.3146 4.15652C31.3146 3.90531 31.3608 3.90531 31.4069 4.15652C31.4531 4.40773 31.4531 4.40773 31.4069 4.40773H31.3146C31.3608 4.40773 31.3608 4.15652 31.3146 4.15652ZM30.0215 5.16134C29.9753 5.16134 29.9753 5.16134 29.9291 5.16134C29.9291 5.16134 29.9291 5.16134 29.9291 4.91014L30.0215 5.16134C30.0677 5.16134 30.0677 4.91014 30.0215 5.16134ZM30.3448 5.16134C30.391 5.16134 30.4371 5.16134 30.4371 5.41255C30.3448 5.66375 30.2986 5.41255 30.3448 5.16134ZM30.5757 4.40773C30.5757 4.40773 30.5757 4.65893 30.5757 4.40773C30.5295 4.65893 30.5295 4.65893 30.4833 4.65893C30.4833 4.65893 30.4371 4.65893 30.4371 4.40773H30.5757ZM30.16 5.16134C30.16 4.91014 30.2062 4.91014 30.2524 4.91014C30.2986 4.91014 30.3448 4.91014 30.391 5.16134C30.391 5.16134 30.3448 5.41255 30.2986 5.41255C30.2524 5.16134 30.2062 5.16134 30.16 5.16134ZM29.9753 4.40773C30.0215 4.40773 30.0215 4.40773 30.0215 4.40773C30.0215 4.40773 30.0215 4.40773 30.0677 4.40773C30.1139 4.65893 30.0677 4.65893 29.9753 4.40773C29.9291 4.40773 29.9291 4.65893 29.9753 4.40773ZM29.5135 4.65893C29.5597 4.65893 29.5597 4.65893 29.5597 4.40773C29.6059 4.40773 29.6059 4.65893 29.6059 4.65893H29.5135ZM29.3288 4.40773H29.4212V4.65893H29.3288V4.40773ZM29.1441 4.40773C29.1903 4.40773 29.2364 4.40773 29.2364 4.40773C29.3288 4.40773 29.3288 4.65893 29.2826 4.65893C29.2364 4.65893 29.1903 4.65893 29.0979 4.65893C29.0517 4.40773 29.0979 4.40773 29.1441 4.40773ZM29.0517 4.91014C29.1441 4.91014 29.1902 5.16134 29.1902 5.16134H28.9593C28.9132 4.91014 28.9593 4.91014 29.0517 4.91014ZM28.8208 5.16134C28.7746 5.41255 28.6823 5.41255 28.6361 5.41255C28.6361 5.16134 28.6361 5.16134 28.6823 5.16134C28.7284 5.16134 28.7746 5.16134 28.8208 5.16134ZM28.5899 4.65893H28.6823V4.91014H28.6361H28.5899V4.65893ZM28.4514 5.16134C28.5437 5.16134 28.5437 5.16134 28.5437 5.41255L28.4514 5.16134ZM28.2666 6.41737H28.1743V6.16616H28.2666V6.41737ZM27.9895 5.16134C28.0357 4.91014 28.0819 4.65893 28.2205 4.91014C28.3128 4.91014 28.359 5.16134 28.359 5.41255C28.3128 5.41255 28.2666 5.41255 28.2666 5.16134C28.2666 4.91014 28.1743 4.91014 28.1743 4.91014C28.1281 4.91014 28.1281 4.91014 28.1743 5.16134C28.2205 5.16134 28.2205 5.16134 28.1743 5.41255C28.0819 5.16134 28.0357 5.16134 27.9895 5.16134ZM27.8048 4.65893C27.851 4.65893 27.8972 4.65893 27.851 4.65893C27.851 4.91014 27.851 4.91014 27.851 5.16134C27.8048 5.16134 27.7586 5.16134 27.7586 4.91014C27.7586 4.91014 27.7586 4.65893 27.8048 4.65893ZM27.6663 4.91014C27.6663 4.65893 27.6663 4.65893 27.6663 4.91014C27.6663 4.65893 27.6663 4.65893 27.6663 4.91014C27.7586 4.65893 27.7586 4.91014 27.7586 4.91014C27.7125 4.91014 27.7125 4.91014 27.7125 4.91014H27.6663ZM27.6201 5.16134C27.6663 5.16134 27.6663 5.16134 27.6663 5.16134C27.6663 5.16134 27.6663 5.16134 27.7125 5.16134C27.7125 5.41255 27.7125 5.41255 27.6201 5.16134C27.5739 5.41255 27.5739 5.41255 27.6201 5.16134ZM27.343 5.41255V5.16134V4.91014C27.4354 4.91014 27.4354 4.91014 27.4354 5.16134C27.4354 5.16134 27.4354 5.16134 27.4354 5.41255C27.4354 5.66375 27.3892 5.66375 27.343 5.41255ZM27.0197 5.91496C27.0197 5.91496 27.0659 5.91496 27.1121 5.91496C27.1121 5.91496 27.0659 5.91496 27.0197 5.91496ZM27.1583 5.41255C27.1583 5.41255 27.2045 5.16134 27.2507 5.16134C27.2507 5.41255 27.2045 5.41255 27.1583 5.41255ZM26.6503 5.16134C26.7427 4.91014 26.835 4.91014 26.9274 4.91014C27.0197 4.91014 27.1583 4.91014 27.2507 4.91014C27.1583 5.16134 27.0659 5.41255 26.9736 5.16134C26.9274 5.16134 26.7888 5.16134 26.6503 5.16134ZM26.4194 5.41255C26.4656 5.41255 26.4656 5.41255 26.4656 5.16134C26.4656 5.16134 26.4656 4.91014 26.4194 4.91014C26.4656 4.91014 26.5118 4.91014 26.5118 4.91014C26.6041 4.91014 26.6041 4.91014 26.5579 4.91014C26.5118 4.91014 26.5118 5.16134 26.5118 5.16134C26.5579 5.41255 26.5579 5.41255 26.6041 5.41255H26.7427C26.7888 5.41255 26.835 5.41255 26.8812 5.41255C26.9274 5.41255 26.9274 5.66375 26.9736 5.66375C26.835 5.66375 26.7427 5.66375 26.6503 5.41255C26.5579 5.41255 26.4656 5.41255 26.3732 5.66375C26.327 5.66375 26.327 5.41255 26.3732 5.41255C26.3732 5.66375 26.4194 5.41255 26.4194 5.41255ZM25.9576 4.91014C26.0038 4.91014 26.0499 4.91014 26.0961 4.91014C26.1423 5.16134 26.1423 5.16134 26.0961 5.41255C26.1885 5.41255 26.1885 5.41255 26.1423 5.16134H26.327L26.2809 5.41255C26.2347 5.41255 26.2347 5.66375 26.2347 5.66375C26.1423 5.66375 26.0499 5.66375 25.9576 5.66375L26.0499 5.41255C26.0499 5.41255 26.0038 5.16134 25.9576 4.91014ZM25.4958 5.66375C25.542 5.66375 25.542 5.66375 25.542 5.66375C25.542 5.66375 25.542 5.66375 25.5881 5.66375C25.542 5.66375 25.4958 5.91496 25.4958 5.91496V5.66375ZM25.3572 5.66375C25.4496 5.66375 25.4496 5.66375 25.4034 5.91496C25.3572 5.91496 25.3111 5.91496 25.2187 5.91496C25.2649 5.66375 25.3111 5.66375 25.3572 5.66375ZM24.9416 5.41255C24.9878 5.41255 24.9878 5.41255 24.9416 5.41255C24.8954 5.66375 24.8954 5.66375 24.8492 5.66375C24.8954 5.41255 24.9416 5.16134 24.9416 5.41255ZM24.7107 5.41255C24.7107 5.41255 24.7107 5.41255 24.6645 5.41255C24.6645 5.41255 24.6645 5.41255 24.7107 5.41255ZM24.526 5.91496H24.6183C24.6645 5.91496 24.6183 5.91496 24.526 5.91496C24.526 5.91496 24.4798 5.91496 24.526 5.91496ZM24.3413 5.41255C24.3874 5.41255 24.4336 5.66375 24.3874 5.91496C24.3413 5.91496 24.3413 5.91496 24.3413 5.66375V5.41255ZM24.2027 5.41255H24.2489V5.66375H24.2027V5.41255ZM24.1565 5.41255C24.1103 5.66375 24.1103 5.66375 24.0642 5.66375C24.0642 5.41255 24.0642 5.41255 24.1565 5.41255ZM23.51 5.66375C23.5562 5.66375 23.6024 5.66375 23.6024 5.41255C23.6485 5.41255 23.6485 5.66375 23.6024 5.91496C23.5562 5.91496 23.51 5.91496 23.51 5.66375ZM22.8635 6.41737C22.9096 6.41737 22.9096 6.16616 22.8635 5.91496C22.9558 5.91496 22.9558 6.16616 22.9558 6.41737C22.9558 6.66857 23.002 6.66857 23.0944 6.66857C23.0482 6.91978 23.002 6.91978 22.9558 6.91978C22.9096 6.91978 22.8173 6.91978 22.7711 6.91978C22.7711 6.66857 22.8173 6.41737 22.8635 6.41737ZM22.6326 6.66857H22.6787V6.91978H22.6326V6.66857ZM22.3555 5.66375C22.3555 5.41255 22.4017 5.41255 22.4478 5.41255C22.494 5.41255 22.494 5.41255 22.494 5.41255C22.5402 5.41255 22.5402 5.66375 22.494 5.66375C22.4478 5.91496 22.4017 5.91496 22.3555 5.66375ZM22.2631 6.91978C22.3093 6.66857 22.3555 6.66857 22.4478 6.66857C22.5402 6.66857 22.5864 6.66857 22.5402 6.91978C22.494 6.91978 22.4478 6.91978 22.4017 6.91978C22.3555 6.91978 22.3093 6.91978 22.2631 6.91978ZM22.1707 7.42219C22.0784 7.42219 22.0322 7.17098 21.986 6.91978C22.0322 6.91978 22.0322 7.17098 22.0784 7.17098C22.1246 7.17098 22.1246 7.17098 22.1707 7.42219ZM22.1707 5.66375C22.1707 5.66375 22.1246 5.91496 22.0784 5.91496C22.0322 5.91496 21.986 5.91496 21.986 5.91496C21.986 5.66375 22.0322 5.66375 22.1707 5.66375ZM21.7089 6.16616H21.7551V6.41737H21.7089V6.16616ZM21.0624 6.41737C21.0624 6.41737 21.0624 6.41737 21.0162 6.41737H21.0624ZM20.8315 6.16616C20.8777 6.16616 20.8777 6.16616 20.8315 6.16616C20.97 5.91496 21.0162 6.16616 21.0162 6.41737C20.9239 6.41737 20.8777 6.41737 20.8777 6.41737C20.8315 6.41737 20.8315 6.66857 20.8315 6.16616C20.7853 6.16616 20.7853 6.16616 20.8315 6.16616ZM20.6006 6.16616H20.693V6.41737H20.6006V6.16616ZM20.6006 6.91978C20.6006 7.17098 20.5544 7.42219 20.4621 6.91978C20.5082 7.17098 20.5544 6.91978 20.6006 6.91978ZM20.185 5.91496L20.2312 6.16616C20.185 6.16616 20.185 6.41737 20.1388 6.41737C20.0926 6.41737 20.0926 6.41737 20.0464 6.41737L20.0926 6.16616C20.1388 5.91496 20.1388 5.91496 20.185 5.91496ZM19.9541 6.91978H20.0464V7.17098L19.9541 6.91978ZM19.8155 7.42219C19.8617 7.17098 19.8617 7.17098 19.9079 7.17098C19.9079 7.42219 19.8617 7.42219 19.8155 7.42219ZM19.8617 6.66857C19.8617 6.66857 19.8617 6.91978 19.8617 6.66857C19.8617 6.91978 19.8617 6.91978 19.8617 6.66857C19.8617 6.91978 19.8617 6.91978 19.8155 6.91978C19.8155 6.66857 19.8155 6.66857 19.8617 6.66857ZM19.1228 6.66857H19.2614C19.2614 6.91978 19.2152 6.91978 19.1228 6.66857C19.1228 6.66857 19.0766 6.66857 19.0304 6.91978C19.0766 6.91978 19.0766 6.66857 19.1228 6.66857ZM17.9221 7.9246H17.8297V7.67339H17.9221V7.9246ZM17.8297 6.66857C17.8297 6.91978 17.8297 6.91978 17.8297 6.91978C17.7836 6.91978 17.7836 7.17098 17.8297 7.17098C17.7836 7.17098 17.7374 6.91978 17.7374 6.66857C17.6912 6.66857 17.8297 6.66857 17.8297 6.66857ZM16.2596 6.91978C16.3058 6.91978 16.3058 6.91978 16.3058 6.91978C16.3058 6.91978 16.3058 6.91978 16.352 6.91978C16.352 7.17098 16.352 7.17098 16.2596 6.91978C16.2134 7.17098 16.2134 7.17098 16.2596 6.91978ZM15.336 6.91978H15.4283V7.17098H15.336V6.91978ZM15.336 7.9246C15.3822 7.9246 15.4283 7.9246 15.4745 7.9246C15.4745 8.1758 15.4745 8.1758 15.4283 8.1758C15.336 8.1758 15.2898 8.1758 15.336 7.9246C15.2436 7.9246 15.2436 8.1758 15.336 7.9246ZM12.2419 6.66857C12.1957 6.66857 12.1495 6.66857 12.1495 6.91978C12.1495 6.66857 12.1495 6.66857 12.1957 6.41737C12.2419 6.41737 12.288 6.41737 12.3342 6.66857C12.288 6.66857 12.288 6.66857 12.2419 6.66857ZM12.3804 6.41737C12.3804 6.41737 12.4266 6.41737 12.4728 6.41737C12.4728 6.41737 12.4266 6.41737 12.3804 6.41737ZM12.5189 6.66857C12.6113 6.41737 12.6113 6.66857 12.6113 6.66857H12.5189ZM12.8422 6.66857C12.796 6.66857 12.7037 6.66857 12.6575 6.66857C12.7037 6.41737 12.7498 6.41737 12.8422 6.66857C12.8884 6.41737 12.9346 6.41737 12.9807 6.41737C12.9807 6.41737 12.9346 6.66857 12.8422 6.66857ZM22.4017 4.40773C22.4017 4.40773 22.4017 4.15652 22.4017 4.40773C22.3555 4.15652 22.4017 4.15652 22.4017 4.40773C22.4478 4.15652 22.4017 4.15652 22.4017 4.40773C22.4478 4.40773 22.4478 4.40773 22.4017 4.40773ZM23.002 4.15652C23.002 3.90531 23.002 3.90531 23.002 4.15652C23.002 3.90531 23.002 3.90531 23.002 4.15652C23.0482 4.15652 23.0482 4.15652 23.002 4.15652ZM23.7409 4.15652C23.6947 4.15652 23.6024 4.15652 23.5562 4.15652C23.6024 3.90531 23.6485 3.90531 23.6947 3.90531C23.7409 4.15652 23.7871 4.15652 23.8794 3.90531C23.8794 4.15652 23.8333 4.15652 23.7409 4.15652ZM24.3413 4.15652C24.2489 4.15652 24.1103 4.15652 24.018 4.15652C24.018 4.15652 24.018 3.90531 23.9718 3.90531C23.9718 3.90531 23.9718 3.90531 23.9718 3.65411C24.018 3.65411 24.0642 3.4029 24.1103 3.65411C24.1565 3.65411 24.2027 3.90531 24.2027 3.90531C24.2489 3.90531 24.2489 3.90531 24.2489 3.65411C24.2489 3.65411 24.2951 3.4029 24.3413 3.65411C24.3413 3.65411 24.3413 3.90531 24.3874 3.90531C24.4336 3.90531 24.4336 3.90531 24.4798 3.90531C24.4798 4.15652 24.3874 4.15652 24.3413 4.15652ZM56.1137 5.91496H56.0214V5.66375L56.1137 5.91496ZM56.2061 6.66857C56.1599 6.66857 56.1137 6.41737 56.1599 6.41737C56.2061 6.41737 56.2061 6.41737 56.2061 6.16616C56.2523 6.16616 56.2523 6.16616 56.2523 6.41737C56.2523 6.66857 56.2985 6.66857 56.2985 6.66857C56.2985 6.66857 56.2523 6.66857 56.2061 6.66857ZM56.3908 6.41737C56.3908 6.41737 56.437 6.41737 56.4832 6.41737C56.437 6.41737 56.437 6.41737 56.3908 6.41737ZM56.6679 6.91978C56.6217 6.91978 56.6217 6.91978 56.5755 6.91978C56.5294 6.91978 56.5294 6.91978 56.5294 6.66857C56.6217 6.66857 56.6217 6.66857 56.6217 6.66857C56.6679 6.66857 56.6679 6.66857 56.6679 6.91978C56.6679 6.91978 56.6679 6.66857 56.6679 6.91978ZM56.7141 6.16616C56.6217 6.16616 56.6217 6.16616 56.6679 6.41737C56.6217 6.16616 56.5294 5.91496 56.437 6.16616C56.3446 6.16616 56.2523 6.16616 56.2061 5.91496C56.2985 5.91496 56.437 5.91496 56.5294 5.91496C56.6217 5.91496 56.7603 5.91496 56.8526 6.16616C56.8064 6.16616 56.8064 6.41737 56.7141 6.16616ZM56.8526 6.66857H56.8064C56.8064 6.66857 56.8064 6.66857 56.8526 6.66857C56.8526 6.66857 56.8064 6.66857 56.8526 6.66857ZM56.945 6.91978C56.8988 6.91978 56.8988 6.91978 56.8988 6.66857C56.945 6.66857 56.9912 6.66857 56.9912 6.66857C57.0373 6.66857 57.0835 6.91978 57.0835 6.91978C57.0835 6.66857 56.9912 6.66857 56.945 6.91978ZM56.9912 6.16616C56.945 6.16616 56.8526 6.16616 56.8064 5.91496C56.8526 5.91496 56.945 5.91496 57.0373 5.91496C57.1759 5.91496 57.2221 6.16616 57.2683 6.41737C57.1759 6.41737 57.0835 6.16616 56.9912 6.16616ZM57.7301 6.41737C57.5915 6.16616 57.4992 6.16616 57.3606 6.41737V5.91496C57.4992 5.91496 57.6377 5.91496 57.7762 5.91496C57.9148 5.91496 58.0533 5.91496 58.1919 6.16616C58.0533 6.66857 57.8686 6.66857 57.7301 6.41737ZM58.4228 6.41737C58.3766 6.41737 58.3304 6.41737 58.2381 6.41737C58.2381 6.41737 58.238 6.16616 58.3304 6.16616C58.4228 6.41737 58.4228 6.41737 58.4228 6.41737ZM58.6075 6.41737H58.5613V6.16616L58.6075 6.41737ZM59.5773 5.91496C59.4388 5.91496 59.3464 5.66375 59.2079 5.41255C59.3464 5.41255 59.4849 5.41255 59.6235 5.41255C59.762 5.41255 59.9006 5.66375 60.0391 5.66375C59.9006 6.16616 59.762 6.16616 59.5773 5.91496Z" fill="#F6CD45"/>
    </svg>