
<svg width="141" height="141" viewBox="0 0 141 141" fill="none" xmlns="http://www.w3.org/2000/svg">
    <rect width="140" height="140" transform="translate(0.5 0.709961)" fill="white"/>
    <path d="M14.6379 10.71H10.5V14.8479H14.6379V10.71Z" fill="black"/>
    <path d="M18.7759 10.71H14.6379V14.8479H18.7759V10.71Z" fill="black"/>
    <path d="M22.9138 10.71H18.7759V14.8479H22.9138V10.71Z" fill="black"/>
    <path d="M27.0517 10.71H22.9138V14.8479H27.0517V10.71Z" fill="black"/>
    <path d="M31.1897 10.71H27.0517V14.8479H31.1897V10.71Z" fill="black"/>
    <path d="M35.3276 10.71H31.1897V14.8479H35.3276V10.71Z" fill="black"/>
    <path d="M39.4655 10.71H35.3276V14.8479H39.4655V10.71Z" fill="black"/>
    <path d="M47.7414 10.71H43.6035V14.8479H47.7414V10.71Z" fill="black"/>
    <path d="M51.8793 10.71H47.7414V14.8479H51.8793V10.71Z" fill="black"/>
    <path d="M60.1552 10.71H56.0172V14.8479H60.1552V10.71Z" fill="black"/>
    <path d="M68.431 10.71H64.2931V14.8479H68.431V10.71Z" fill="black"/>
    <path d="M72.569 10.71H68.431V14.8479H72.569V10.71Z" fill="black"/>
    <path d="M76.7069 10.71H72.569V14.8479H76.7069V10.71Z" fill="black"/>
    <path d="M89.1207 10.71H84.9828V14.8479H89.1207V10.71Z" fill="black"/>
    <path d="M97.3966 10.71H93.2586V14.8479H97.3966V10.71Z" fill="black"/>
    <path d="M105.672 10.71H101.534V14.8479H105.672V10.71Z" fill="black"/>
    <path d="M109.81 10.71H105.672V14.8479H109.81V10.71Z" fill="black"/>
    <path d="M113.948 10.71H109.81V14.8479H113.948V10.71Z" fill="black"/>
    <path d="M118.086 10.71H113.948V14.8479H118.086V10.71Z" fill="black"/>
    <path d="M122.224 10.71H118.086V14.8479H122.224V10.71Z" fill="black"/>
    <path d="M126.362 10.71H122.224V14.8479H126.362V10.71Z" fill="black"/>
    <path d="M130.5 10.71H126.362V14.8479H130.5V10.71Z" fill="black"/>
    <path d="M14.6379 14.8479H10.5V18.9858H14.6379V14.8479Z" fill="black"/>
    <path d="M39.4655 14.8479H35.3276V18.9858H39.4655V14.8479Z" fill="black"/>
    <path d="M51.8793 14.8479H47.7414V18.9858H51.8793V14.8479Z" fill="black"/>
    <path d="M56.0172 14.8479H51.8793V18.9858H56.0172V14.8479Z" fill="black"/>
    <path d="M60.1552 14.8479H56.0172V18.9858H60.1552V14.8479Z" fill="black"/>
    <path d="M64.2931 14.8479H60.1552V18.9858H64.2931V14.8479Z" fill="black"/>
    <path d="M72.569 14.8479H68.431V18.9858H72.569V14.8479Z" fill="black"/>
    <path d="M76.7069 14.8479H72.569V18.9858H76.7069V14.8479Z" fill="black"/>
    <path d="M80.8448 14.8479H76.7069V18.9858H80.8448V14.8479Z" fill="black"/>
    <path d="M89.1207 14.8479H84.9828V18.9858H89.1207V14.8479Z" fill="black"/>
    <path d="M97.3966 14.8479H93.2586V18.9858H97.3966V14.8479Z" fill="black"/>
    <path d="M105.672 14.8479H101.534V18.9858H105.672V14.8479Z" fill="black"/>
    <path d="M130.5 14.8479H126.362V18.9858H130.5V14.8479Z" fill="black"/>
    <path d="M14.6379 18.9858H10.5V23.1238H14.6379V18.9858Z" fill="black"/>
    <path d="M22.9138 18.9858H18.7759V23.1238H22.9138V18.9858Z" fill="black"/>
    <path d="M27.0517 18.9858H22.9138V23.1238H27.0517V18.9858Z" fill="black"/>
    <path d="M31.1897 18.9858H27.0517V23.1238H31.1897V18.9858Z" fill="black"/>
    <path d="M39.4655 18.9858H35.3276V23.1238H39.4655V18.9858Z" fill="black"/>
    <path d="M47.7414 18.9858H43.6035V23.1238H47.7414V18.9858Z" fill="black"/>
    <path d="M68.431 18.9858H64.2931V23.1238H68.431V18.9858Z" fill="black"/>
    <path d="M89.1207 18.9858H84.9828V23.1238H89.1207V18.9858Z" fill="black"/>
    <path d="M97.3966 18.9858H93.2586V23.1238H97.3966V18.9858Z" fill="black"/>
    <path d="M105.672 18.9858H101.534V23.1238H105.672V18.9858Z" fill="black"/>
    <path d="M113.948 18.9858H109.81V23.1238H113.948V18.9858Z" fill="black"/>
    <path d="M118.086 18.9858H113.948V23.1238H118.086V18.9858Z" fill="black"/>
    <path d="M122.224 18.9858H118.086V23.1238H122.224V18.9858Z" fill="black"/>
    <path d="M130.5 18.9858H126.362V23.1238H130.5V18.9858Z" fill="black"/>
    <path d="M14.6379 23.1238H10.5V27.2617H14.6379V23.1238Z" fill="black"/>
    <path d="M22.9138 23.1238H18.7759V27.2617H22.9138V23.1238Z" fill="black"/>
    <path d="M27.0517 23.1238H22.9138V27.2617H27.0517V23.1238Z" fill="black"/>
    <path d="M31.1897 23.1238H27.0517V27.2617H31.1897V23.1238Z" fill="black"/>
    <path d="M39.4655 23.1238H35.3276V27.2617H39.4655V23.1238Z" fill="black"/>
    <path d="M51.8793 23.1238H47.7414V27.2617H51.8793V23.1238Z" fill="black"/>
    <path d="M60.1552 23.1238H56.0172V27.2617H60.1552V23.1238Z" fill="black"/>
    <path d="M64.2931 23.1238H60.1552V27.2617H64.2931V23.1238Z" fill="black"/>
    <path d="M89.1207 23.1238H84.9828V27.2617H89.1207V23.1238Z" fill="black"/>
    <path d="M97.3966 23.1238H93.2586V27.2617H97.3966V23.1238Z" fill="black"/>
    <path d="M105.672 23.1238H101.534V27.2617H105.672V23.1238Z" fill="black"/>
    <path d="M113.948 23.1238H109.81V27.2617H113.948V23.1238Z" fill="black"/>
    <path d="M118.086 23.1238H113.948V27.2617H118.086V23.1238Z" fill="black"/>
    <path d="M122.224 23.1238H118.086V27.2617H122.224V23.1238Z" fill="black"/>
    <path d="M130.5 23.1238H126.362V27.2617H130.5V23.1238Z" fill="black"/>
    <path d="M14.6379 27.2617H10.5V31.3996H14.6379V27.2617Z" fill="black"/>
    <path d="M22.9138 27.2617H18.7759V31.3996H22.9138V27.2617Z" fill="black"/>
    <path d="M27.0517 27.2617H22.9138V31.3996H27.0517V27.2617Z" fill="black"/>
    <path d="M31.1897 27.2617H27.0517V31.3996H31.1897V27.2617Z" fill="black"/>
    <path d="M39.4655 27.2617H35.3276V31.3996H39.4655V27.2617Z" fill="black"/>
    <path d="M56.0172 27.2617H51.8793V31.3996H56.0172V27.2617Z" fill="black"/>
    <path d="M72.569 27.2617H68.431V31.3996H72.569V27.2617Z" fill="black"/>
    <path d="M80.8448 27.2617H76.7069V31.3996H80.8448V27.2617Z" fill="black"/>
    <path d="M97.3966 27.2617H93.2586V31.3996H97.3966V27.2617Z" fill="black"/>
    <path d="M105.672 27.2617H101.534V31.3996H105.672V27.2617Z" fill="black"/>
    <path d="M113.948 27.2617H109.81V31.3996H113.948V27.2617Z" fill="black"/>
    <path d="M118.086 27.2617H113.948V31.3996H118.086V27.2617Z" fill="black"/>
    <path d="M122.224 27.2617H118.086V31.3996H122.224V27.2617Z" fill="black"/>
    <path d="M130.5 27.2617H126.362V31.3996H130.5V27.2617Z" fill="black"/>
    <path d="M14.6379 31.3996H10.5V35.5375H14.6379V31.3996Z" fill="black"/>
    <path d="M39.4655 31.3996H35.3276V35.5375H39.4655V31.3996Z" fill="black"/>
    <path d="M51.8793 31.3996H47.7414V35.5375H51.8793V31.3996Z" fill="black"/>
    <path d="M60.1552 31.3996H56.0172V35.5375H60.1552V31.3996Z" fill="black"/>
    <path d="M72.569 31.3996H68.431V35.5375H72.569V31.3996Z" fill="black"/>
    <path d="M76.7069 31.3996H72.569V35.5375H76.7069V31.3996Z" fill="black"/>
    <path d="M80.8448 31.3996H76.7069V35.5375H80.8448V31.3996Z" fill="black"/>
    <path d="M97.3966 31.3996H93.2586V35.5375H97.3966V31.3996Z" fill="black"/>
    <path d="M105.672 31.3996H101.534V35.5375H105.672V31.3996Z" fill="black"/>
    <path d="M130.5 31.3996H126.362V35.5375H130.5V31.3996Z" fill="black"/>
    <path d="M14.6379 35.5375H10.5V39.6755H14.6379V35.5375Z" fill="black"/>
    <path d="M18.7759 35.5375H14.6379V39.6755H18.7759V35.5375Z" fill="black"/>
    <path d="M22.9138 35.5375H18.7759V39.6755H22.9138V35.5375Z" fill="black"/>
    <path d="M27.0517 35.5375H22.9138V39.6755H27.0517V35.5375Z" fill="black"/>
    <path d="M31.1897 35.5375H27.0517V39.6755H31.1897V35.5375Z" fill="black"/>
    <path d="M35.3276 35.5375H31.1897V39.6755H35.3276V35.5375Z" fill="black"/>
    <path d="M39.4655 35.5375H35.3276V39.6755H39.4655V35.5375Z" fill="black"/>
    <path d="M47.7414 35.5375H43.6035V39.6755H47.7414V35.5375Z" fill="black"/>
    <path d="M56.0172 35.5375H51.8793V39.6755H56.0172V35.5375Z" fill="black"/>
    <path d="M64.2931 35.5375H60.1552V39.6755H64.2931V35.5375Z" fill="black"/>
    <path d="M72.569 35.5375H68.431V39.6755H72.569V35.5375Z" fill="black"/>
    <path d="M80.8448 35.5375H76.7069V39.6755H80.8448V35.5375Z" fill="black"/>
    <path d="M89.1207 35.5375H84.9828V39.6755H89.1207V35.5375Z" fill="black"/>
    <path d="M97.3966 35.5375H93.2586V39.6755H97.3966V35.5375Z" fill="black"/>
    <path d="M105.672 35.5375H101.534V39.6755H105.672V35.5375Z" fill="black"/>
    <path d="M109.81 35.5375H105.672V39.6755H109.81V35.5375Z" fill="black"/>
    <path d="M113.948 35.5375H109.81V39.6755H113.948V35.5375Z" fill="black"/>
    <path d="M118.086 35.5375H113.948V39.6755H118.086V35.5375Z" fill="black"/>
    <path d="M122.224 35.5375H118.086V39.6755H122.224V35.5375Z" fill="black"/>
    <path d="M126.362 35.5375H122.224V39.6755H126.362V35.5375Z" fill="black"/>
    <path d="M130.5 35.5375H126.362V39.6755H130.5V35.5375Z" fill="black"/>
    <path d="M47.7414 39.6755H43.6035V43.8134H47.7414V39.6755Z" fill="black"/>
    <path d="M60.1552 39.6755H56.0172V43.8134H60.1552V39.6755Z" fill="black"/>
    <path d="M80.8448 39.6755H76.7069V43.8134H80.8448V39.6755Z" fill="black"/>
    <path d="M93.2586 39.6755H89.1207V43.8134H93.2586V39.6755Z" fill="black"/>
    <path d="M14.6379 43.8134H10.5V47.9513H14.6379V43.8134Z" fill="black"/>
    <path d="M22.9138 43.8134H18.7759V47.9513H22.9138V43.8134Z" fill="black"/>
    <path d="M35.3276 43.8134H31.1897V47.9513H35.3276V43.8134Z" fill="black"/>
    <path d="M39.4655 43.8134H35.3276V47.9513H39.4655V43.8134Z" fill="black"/>
    <path d="M56.0172 43.8134H51.8793V47.9513H56.0172V43.8134Z" fill="black"/>
    <path d="M60.1552 43.8134H56.0172V47.9513H60.1552V43.8134Z" fill="black"/>
    <path d="M76.7069 43.8134H72.569V47.9513H76.7069V43.8134Z" fill="black"/>
    <path d="M80.8448 43.8134H76.7069V47.9513H80.8448V43.8134Z" fill="black"/>
    <path d="M89.1207 43.8134H84.9828V47.9513H89.1207V43.8134Z" fill="black"/>
    <path d="M97.3966 43.8134H93.2586V47.9513H97.3966V43.8134Z" fill="black"/>
    <path d="M101.534 43.8134H97.3966V47.9513H101.534V43.8134Z" fill="black"/>
    <path d="M105.672 43.8134H101.534V47.9513H105.672V43.8134Z" fill="black"/>
    <path d="M122.224 43.8134H118.086V47.9513H122.224V43.8134Z" fill="black"/>
    <path d="M130.5 43.8134H126.362V47.9513H130.5V43.8134Z" fill="black"/>
    <path d="M14.6379 47.9513H10.5V52.0893H14.6379V47.9513Z" fill="black"/>
    <path d="M18.7759 47.9513H14.6379V52.0893H18.7759V47.9513Z" fill="black"/>
    <path d="M31.1897 47.9513H27.0517V52.0893H31.1897V47.9513Z" fill="black"/>
    <path d="M47.7414 47.9513H43.6035V52.0893H47.7414V47.9513Z" fill="black"/>
    <path d="M68.431 47.9513H64.2931V52.0893H68.431V47.9513Z" fill="black"/>
    <path d="M72.569 47.9513H68.431V52.0893H72.569V47.9513Z" fill="black"/>
    <path d="M80.8448 47.9513H76.7069V52.0893H80.8448V47.9513Z" fill="black"/>
    <path d="M89.1207 47.9513H84.9828V52.0893H89.1207V47.9513Z" fill="black"/>
    <path d="M101.534 47.9513H97.3966V52.0893H101.534V47.9513Z" fill="black"/>
    <path d="M105.672 47.9513H101.534V52.0893H105.672V47.9513Z" fill="black"/>
    <path d="M118.086 47.9513H113.948V52.0893H118.086V47.9513Z" fill="black"/>
    <path d="M126.362 47.9513H122.224V52.0893H126.362V47.9513Z" fill="black"/>
    <path d="M130.5 47.9513H126.362V52.0893H130.5V47.9513Z" fill="black"/>
    <path d="M14.6379 52.0893H10.5V56.2272H14.6379V52.0893Z" fill="black"/>
    <path d="M22.9138 52.0893H18.7759V56.2272H22.9138V52.0893Z" fill="black"/>
    <path d="M27.0517 52.0893H22.9138V56.2272H27.0517V52.0893Z" fill="black"/>
    <path d="M31.1897 52.0893H27.0517V56.2272H31.1897V52.0893Z" fill="black"/>
    <path d="M35.3276 52.0893H31.1897V56.2272H35.3276V52.0893Z" fill="black"/>
    <path d="M39.4655 52.0893H35.3276V56.2272H39.4655V52.0893Z" fill="black"/>
    <path d="M56.0172 52.0893H51.8793V56.2272H56.0172V52.0893Z" fill="black"/>
    <path d="M64.2931 52.0893H60.1552V56.2272H64.2931V52.0893Z" fill="black"/>
    <path d="M72.569 52.0893H68.431V56.2272H72.569V52.0893Z" fill="black"/>
    <path d="M84.9828 52.0893H80.8448V56.2272H84.9828V52.0893Z" fill="black"/>
    <path d="M93.2586 52.0893H89.1207V56.2272H93.2586V52.0893Z" fill="black"/>
    <path d="M97.3966 52.0893H93.2586V56.2272H97.3966V52.0893Z" fill="black"/>
    <path d="M105.672 52.0893H101.534V56.2272H105.672V52.0893Z" fill="black"/>
    <path d="M113.948 52.0893H109.81V56.2272H113.948V52.0893Z" fill="black"/>
    <path d="M118.086 52.0893H113.948V56.2272H118.086V52.0893Z" fill="black"/>
    <path d="M126.362 52.0893H122.224V56.2272H126.362V52.0893Z" fill="black"/>
    <path d="M130.5 52.0893H126.362V56.2272H130.5V52.0893Z" fill="black"/>
    <path d="M14.6379 56.2272H10.5V60.3651H14.6379V56.2272Z" fill="black"/>
    <path d="M22.9138 56.2272H18.7759V60.3651H22.9138V56.2272Z" fill="black"/>
    <path d="M27.0517 56.2272H22.9138V60.3651H27.0517V56.2272Z" fill="black"/>
    <path d="M31.1897 56.2272H27.0517V60.3651H31.1897V56.2272Z" fill="black"/>
    <path d="M35.3276 56.2272H31.1897V60.3651H35.3276V56.2272Z" fill="black"/>
    <path d="M43.6035 56.2272H39.4655V60.3651H43.6035V56.2272Z" fill="black"/>
    <path d="M56.0172 56.2272H51.8793V60.3651H56.0172V56.2272Z" fill="black"/>
    <path d="M60.1552 56.2272H56.0172V60.3651H60.1552V56.2272Z" fill="black"/>
    <path d="M64.2931 56.2272H60.1552V60.3651H64.2931V56.2272Z" fill="black"/>
    <path d="M72.569 56.2272H68.431V60.3651H72.569V56.2272Z" fill="black"/>
    <path d="M93.2586 56.2272H89.1207V60.3651H93.2586V56.2272Z" fill="black"/>
    <path d="M101.534 56.2272H97.3966V60.3651H101.534V56.2272Z" fill="black"/>
    <path d="M113.948 56.2272H109.81V60.3651H113.948V56.2272Z" fill="black"/>
    <path d="M118.086 56.2272H113.948V60.3651H118.086V56.2272Z" fill="black"/>
    <path d="M122.224 56.2272H118.086V60.3651H122.224V56.2272Z" fill="black"/>
    <path d="M126.362 56.2272H122.224V60.3651H126.362V56.2272Z" fill="black"/>
    <path d="M130.5 56.2272H126.362V60.3651H130.5V56.2272Z" fill="black"/>
    <path d="M14.6379 60.3651H10.5V64.5031H14.6379V60.3651Z" fill="black"/>
    <path d="M18.7759 60.3651H14.6379V64.5031H18.7759V60.3651Z" fill="black"/>
    <path d="M27.0517 60.3651H22.9138V64.5031H27.0517V60.3651Z" fill="black"/>
    <path d="M35.3276 60.3651H31.1897V64.5031H35.3276V60.3651Z" fill="black"/>
    <path d="M39.4655 60.3651H35.3276V64.5031H39.4655V60.3651Z" fill="black"/>
    <path d="M43.6035 60.3651H39.4655V64.5031H43.6035V60.3651Z" fill="black"/>
    <path d="M47.7414 60.3651H43.6035V64.5031H47.7414V60.3651Z" fill="black"/>
    <path d="M51.8793 60.3651H47.7414V64.5031H51.8793V60.3651Z" fill="black"/>
    <path d="M56.0172 60.3651H51.8793V64.5031H56.0172V60.3651Z" fill="black"/>
    <path d="M64.2931 60.3651H60.1552V64.5031H64.2931V60.3651Z" fill="black"/>
    <path d="M68.431 60.3651H64.2931V64.5031H68.431V60.3651Z" fill="black"/>
    <path d="M72.569 60.3651H68.431V64.5031H72.569V60.3651Z" fill="black"/>
    <path d="M101.534 60.3651H97.3966V64.5031H101.534V60.3651Z" fill="black"/>
    <path d="M105.672 60.3651H101.534V64.5031H105.672V60.3651Z" fill="black"/>
    <path d="M113.948 60.3651H109.81V64.5031H113.948V60.3651Z" fill="black"/>
    <path d="M18.7759 64.5031H14.6379V68.641H18.7759V64.5031Z" fill="black"/>
    <path d="M31.1897 64.5031H27.0517V68.641H31.1897V64.5031Z" fill="black"/>
    <path d="M47.7414 64.5031H43.6035V68.641H47.7414V64.5031Z" fill="black"/>
    <path d="M51.8793 64.5031H47.7414V68.641H51.8793V64.5031Z" fill="black"/>
    <path d="M60.1552 64.5031H56.0172V68.641H60.1552V64.5031Z" fill="black"/>
    <path d="M64.2931 64.5031H60.1552V68.641H64.2931V64.5031Z" fill="black"/>
    <path d="M72.569 64.5031H68.431V68.641H72.569V64.5031Z" fill="black"/>
    <path d="M80.8448 64.5031H76.7069V68.641H80.8448V64.5031Z" fill="black"/>
    <path d="M84.9828 64.5031H80.8448V68.641H84.9828V64.5031Z" fill="black"/>
    <path d="M93.2586 64.5031H89.1207V68.641H93.2586V64.5031Z" fill="black"/>
    <path d="M97.3966 64.5031H93.2586V68.641H97.3966V64.5031Z" fill="black"/>
    <path d="M105.672 64.5031H101.534V68.641H105.672V64.5031Z" fill="black"/>
    <path d="M113.948 64.5031H109.81V68.641H113.948V64.5031Z" fill="black"/>
    <path d="M126.362 64.5031H122.224V68.641H126.362V64.5031Z" fill="black"/>
    <path d="M130.5 64.5031H126.362V68.641H130.5V64.5031Z" fill="black"/>
    <path d="M14.6379 68.641H10.5V72.7789H14.6379V68.641Z" fill="black"/>
    <path d="M18.7759 68.641H14.6379V72.7789H18.7759V68.641Z" fill="black"/>
    <path d="M22.9138 68.641H18.7759V72.7789H22.9138V68.641Z" fill="black"/>
    <path d="M27.0517 68.641H22.9138V72.7789H27.0517V68.641Z" fill="black"/>
    <path d="M31.1897 68.641H27.0517V72.7789H31.1897V68.641Z" fill="black"/>
    <path d="M39.4655 68.641H35.3276V72.7789H39.4655V68.641Z" fill="black"/>
    <path d="M43.6035 68.641H39.4655V72.7789H43.6035V68.641Z" fill="black"/>
    <path d="M47.7414 68.641H43.6035V72.7789H47.7414V68.641Z" fill="black"/>
    <path d="M51.8793 68.641H47.7414V72.7789H51.8793V68.641Z" fill="black"/>
    <path d="M72.569 68.641H68.431V72.7789H72.569V68.641Z" fill="black"/>
    <path d="M76.7069 68.641H72.569V72.7789H76.7069V68.641Z" fill="black"/>
    <path d="M80.8448 68.641H76.7069V72.7789H80.8448V68.641Z" fill="black"/>
    <path d="M84.9828 68.641H80.8448V72.7789H84.9828V68.641Z" fill="black"/>
    <path d="M105.672 68.641H101.534V72.7789H105.672V68.641Z" fill="black"/>
    <path d="M109.81 68.641H105.672V72.7789H109.81V68.641Z" fill="black"/>
    <path d="M113.948 68.641H109.81V72.7789H113.948V68.641Z" fill="black"/>
    <path d="M118.086 68.641H113.948V72.7789H118.086V68.641Z" fill="black"/>
    <path d="M122.224 68.641H118.086V72.7789H122.224V68.641Z" fill="black"/>
    <path d="M130.5 68.641H126.362V72.7789H130.5V68.641Z" fill="black"/>
    <path d="M14.6379 72.7789H10.5V76.9169H14.6379V72.7789Z" fill="black"/>
    <path d="M22.9138 72.7789H18.7759V76.9169H22.9138V72.7789Z" fill="black"/>
    <path d="M27.0517 72.7789H22.9138V76.9169H27.0517V72.7789Z" fill="black"/>
    <path d="M35.3276 72.7789H31.1897V76.9169H35.3276V72.7789Z" fill="black"/>
    <path d="M51.8793 72.7789H47.7414V76.9169H51.8793V72.7789Z" fill="black"/>
    <path d="M68.431 72.7789H64.2931V76.9169H68.431V72.7789Z" fill="black"/>
    <path d="M84.9828 72.7789H80.8448V76.9169H84.9828V72.7789Z" fill="black"/>
    <path d="M97.3966 72.7789H93.2586V76.9169H97.3966V72.7789Z" fill="black"/>
    <path d="M101.534 72.7789H97.3966V76.9169H101.534V72.7789Z" fill="black"/>
    <path d="M118.086 72.7789H113.948V76.9169H118.086V72.7789Z" fill="black"/>
    <path d="M14.6379 76.9169H10.5V81.0548H14.6379V76.9169Z" fill="black"/>
    <path d="M31.1897 76.9169H27.0517V81.0548H31.1897V76.9169Z" fill="black"/>
    <path d="M39.4655 76.9169H35.3276V81.0548H39.4655V76.9169Z" fill="black"/>
    <path d="M60.1552 76.9169H56.0172V81.0548H60.1552V76.9169Z" fill="black"/>
    <path d="M64.2931 76.9169H60.1552V81.0548H64.2931V76.9169Z" fill="black"/>
    <path d="M68.431 76.9169H64.2931V81.0548H68.431V76.9169Z" fill="black"/>
    <path d="M76.7069 76.9169H72.569V81.0548H76.7069V76.9169Z" fill="black"/>
    <path d="M89.1207 76.9169H84.9828V81.0548H89.1207V76.9169Z" fill="black"/>
    <path d="M97.3966 76.9169H93.2586V81.0548H97.3966V76.9169Z" fill="black"/>
    <path d="M109.81 76.9169H105.672V81.0548H109.81V76.9169Z" fill="black"/>
    <path d="M113.948 76.9169H109.81V81.0548H113.948V76.9169Z" fill="black"/>
    <path d="M118.086 76.9169H113.948V81.0548H118.086V76.9169Z" fill="black"/>
    <path d="M126.362 76.9169H122.224V81.0548H126.362V76.9169Z" fill="black"/>
    <path d="M14.6379 81.0548H10.5V85.1927H14.6379V81.0548Z" fill="black"/>
    <path d="M27.0517 81.0548H22.9138V85.1927H27.0517V81.0548Z" fill="black"/>
    <path d="M43.6035 81.0548H39.4655V85.1927H43.6035V81.0548Z" fill="black"/>
    <path d="M60.1552 81.0548H56.0172V85.1927H60.1552V81.0548Z" fill="black"/>
    <path d="M64.2931 81.0548H60.1552V85.1927H64.2931V81.0548Z" fill="black"/>
    <path d="M72.569 81.0548H68.431V85.1927H72.569V81.0548Z" fill="black"/>
    <path d="M76.7069 81.0548H72.569V85.1927H76.7069V81.0548Z" fill="black"/>
    <path d="M80.8448 81.0548H76.7069V85.1927H80.8448V81.0548Z" fill="black"/>
    <path d="M84.9828 81.0548H80.8448V85.1927H84.9828V81.0548Z" fill="black"/>
    <path d="M93.2586 81.0548H89.1207V85.1927H93.2586V81.0548Z" fill="black"/>
    <path d="M109.81 81.0548H105.672V85.1927H109.81V81.0548Z" fill="black"/>
    <path d="M113.948 81.0548H109.81V85.1927H113.948V81.0548Z" fill="black"/>
    <path d="M122.224 81.0548H118.086V85.1927H122.224V81.0548Z" fill="black"/>
    <path d="M126.362 81.0548H122.224V85.1927H126.362V81.0548Z" fill="black"/>
    <path d="M130.5 81.0548H126.362V85.1927H130.5V81.0548Z" fill="black"/>
    <path d="M14.6379 85.1927H10.5V89.3307H14.6379V85.1927Z" fill="black"/>
    <path d="M18.7759 85.1927H14.6379V89.3307H18.7759V85.1927Z" fill="black"/>
    <path d="M35.3276 85.1927H31.1897V89.3307H35.3276V85.1927Z" fill="black"/>
    <path d="M39.4655 85.1927H35.3276V89.3307H39.4655V85.1927Z" fill="black"/>
    <path d="M43.6035 85.1927H39.4655V89.3307H43.6035V85.1927Z" fill="black"/>
    <path d="M64.2931 85.1927H60.1552V89.3307H64.2931V85.1927Z" fill="black"/>
    <path d="M80.8448 85.1927H76.7069V89.3307H80.8448V85.1927Z" fill="black"/>
    <path d="M93.2586 85.1927H89.1207V89.3307H93.2586V85.1927Z" fill="black"/>
    <path d="M113.948 85.1927H109.81V89.3307H113.948V85.1927Z" fill="black"/>
    <path d="M122.224 85.1927H118.086V89.3307H122.224V85.1927Z" fill="black"/>
    <path d="M130.5 85.1927H126.362V89.3307H130.5V85.1927Z" fill="black"/>
    <path d="M18.7759 89.3307H14.6379V93.4686H18.7759V89.3307Z" fill="black"/>
    <path d="M22.9138 89.3307H18.7759V93.4686H22.9138V89.3307Z" fill="black"/>
    <path d="M35.3276 89.3307H31.1897V93.4686H35.3276V89.3307Z" fill="black"/>
    <path d="M68.431 89.3307H64.2931V93.4686H68.431V89.3307Z" fill="black"/>
    <path d="M80.8448 89.3307H76.7069V93.4686H80.8448V89.3307Z" fill="black"/>
    <path d="M84.9828 89.3307H80.8448V93.4686H84.9828V89.3307Z" fill="black"/>
    <path d="M105.672 89.3307H101.534V93.4686H105.672V89.3307Z" fill="black"/>
    <path d="M126.362 89.3307H122.224V93.4686H126.362V89.3307Z" fill="black"/>
    <path d="M130.5 89.3307H126.362V93.4686H130.5V89.3307Z" fill="black"/>
    <path d="M14.6379 93.4686H10.5V97.6065H14.6379V93.4686Z" fill="black"/>
    <path d="M18.7759 93.4686H14.6379V97.6065H18.7759V93.4686Z" fill="black"/>
    <path d="M35.3276 93.4686H31.1897V97.6065H35.3276V93.4686Z" fill="black"/>
    <path d="M39.4655 93.4686H35.3276V97.6065H39.4655V93.4686Z" fill="black"/>
    <path d="M43.6035 93.4686H39.4655V97.6065H43.6035V93.4686Z" fill="black"/>
    <path d="M47.7414 93.4686H43.6035V97.6065H47.7414V93.4686Z" fill="black"/>
    <path d="M56.0172 93.4686H51.8793V97.6065H56.0172V93.4686Z" fill="black"/>
    <path d="M72.569 93.4686H68.431V97.6065H72.569V93.4686Z" fill="black"/>
    <path d="M76.7069 93.4686H72.569V97.6065H76.7069V93.4686Z" fill="black"/>
    <path d="M80.8448 93.4686H76.7069V97.6065H80.8448V93.4686Z" fill="black"/>
    <path d="M84.9828 93.4686H80.8448V97.6065H84.9828V93.4686Z" fill="black"/>
    <path d="M89.1207 93.4686H84.9828V97.6065H89.1207V93.4686Z" fill="black"/>
    <path d="M93.2586 93.4686H89.1207V97.6065H93.2586V93.4686Z" fill="black"/>
    <path d="M97.3966 93.4686H93.2586V97.6065H97.3966V93.4686Z" fill="black"/>
    <path d="M101.534 93.4686H97.3966V97.6065H101.534V93.4686Z" fill="black"/>
    <path d="M105.672 93.4686H101.534V97.6065H105.672V93.4686Z" fill="black"/>
    <path d="M109.81 93.4686H105.672V97.6065H109.81V93.4686Z" fill="black"/>
    <path d="M113.948 93.4686H109.81V97.6065H113.948V93.4686Z" fill="black"/>
    <path d="M126.362 93.4686H122.224V97.6065H126.362V93.4686Z" fill="black"/>
    <path d="M64.2931 97.6065H60.1552V101.744H64.2931V97.6065Z" fill="black"/>
    <path d="M68.431 97.6065H64.2931V101.744H68.431V97.6065Z" fill="black"/>
    <path d="M80.8448 97.6065H76.7069V101.744H80.8448V97.6065Z" fill="black"/>
    <path d="M89.1207 97.6065H84.9828V101.744H89.1207V97.6065Z" fill="black"/>
    <path d="M93.2586 97.6065H89.1207V101.744H93.2586V97.6065Z" fill="black"/>
    <path d="M97.3966 97.6065H93.2586V101.744H97.3966V97.6065Z" fill="black"/>
    <path d="M113.948 97.6065H109.81V101.744H113.948V97.6065Z" fill="black"/>
    <path d="M118.086 97.6065H113.948V101.744H118.086V97.6065Z" fill="black"/>
    <path d="M122.224 97.6065H118.086V101.744H122.224V97.6065Z" fill="black"/>
    <path d="M126.362 97.6065H122.224V101.744H126.362V97.6065Z" fill="black"/>
    <path d="M14.6379 101.744H10.5V105.882H14.6379V101.744Z" fill="black"/>
    <path d="M18.7759 101.744H14.6379V105.882H18.7759V101.744Z" fill="black"/>
    <path d="M22.9138 101.744H18.7759V105.882H22.9138V101.744Z" fill="black"/>
    <path d="M27.0517 101.744H22.9138V105.882H27.0517V101.744Z" fill="black"/>
    <path d="M31.1897 101.744H27.0517V105.882H31.1897V101.744Z" fill="black"/>
    <path d="M35.3276 101.744H31.1897V105.882H35.3276V101.744Z" fill="black"/>
    <path d="M39.4655 101.744H35.3276V105.882H39.4655V101.744Z" fill="black"/>
    <path d="M51.8793 101.744H47.7414V105.882H51.8793V101.744Z" fill="black"/>
    <path d="M56.0172 101.744H51.8793V105.882H56.0172V101.744Z" fill="black"/>
    <path d="M60.1552 101.744H56.0172V105.882H60.1552V101.744Z" fill="black"/>
    <path d="M97.3966 101.744H93.2586V105.882H97.3966V101.744Z" fill="black"/>
    <path d="M105.672 101.744H101.534V105.882H105.672V101.744Z" fill="black"/>
    <path d="M113.948 101.744H109.81V105.882H113.948V101.744Z" fill="black"/>
    <path d="M118.086 101.744H113.948V105.882H118.086V101.744Z" fill="black"/>
    <path d="M126.362 101.744H122.224V105.882H126.362V101.744Z" fill="black"/>
    <path d="M14.6379 105.882H10.5V110.02H14.6379V105.882Z" fill="black"/>
    <path d="M39.4655 105.882H35.3276V110.02H39.4655V105.882Z" fill="black"/>
    <path d="M47.7414 105.882H43.6035V110.02H47.7414V105.882Z" fill="black"/>
    <path d="M51.8793 105.882H47.7414V110.02H51.8793V105.882Z" fill="black"/>
    <path d="M64.2931 105.882H60.1552V110.02H64.2931V105.882Z" fill="black"/>
    <path d="M72.569 105.882H68.431V110.02H72.569V105.882Z" fill="black"/>
    <path d="M89.1207 105.882H84.9828V110.02H89.1207V105.882Z" fill="black"/>
    <path d="M93.2586 105.882H89.1207V110.02H93.2586V105.882Z" fill="black"/>
    <path d="M97.3966 105.882H93.2586V110.02H97.3966V105.882Z" fill="black"/>
    <path d="M113.948 105.882H109.81V110.02H113.948V105.882Z" fill="black"/>
    <path d="M126.362 105.882H122.224V110.02H126.362V105.882Z" fill="black"/>
    <path d="M14.6379 110.02H10.5V114.158H14.6379V110.02Z" fill="black"/>
    <path d="M22.9138 110.02H18.7759V114.158H22.9138V110.02Z" fill="black"/>
    <path d="M27.0517 110.02H22.9138V114.158H27.0517V110.02Z" fill="black"/>
    <path d="M31.1897 110.02H27.0517V114.158H31.1897V110.02Z" fill="black"/>
    <path d="M39.4655 110.02H35.3276V114.158H39.4655V110.02Z" fill="black"/>
    <path d="M51.8793 110.02H47.7414V114.158H51.8793V110.02Z" fill="black"/>
    <path d="M56.0172 110.02H51.8793V114.158H56.0172V110.02Z" fill="black"/>
    <path d="M68.431 110.02H64.2931V114.158H68.431V110.02Z" fill="black"/>
    <path d="M84.9828 110.02H80.8448V114.158H84.9828V110.02Z" fill="black"/>
    <path d="M97.3966 110.02H93.2586V114.158H97.3966V110.02Z" fill="black"/>
    <path d="M101.534 110.02H97.3966V114.158H101.534V110.02Z" fill="black"/>
    <path d="M105.672 110.02H101.534V114.158H105.672V110.02Z" fill="black"/>
    <path d="M109.81 110.02H105.672V114.158H109.81V110.02Z" fill="black"/>
    <path d="M113.948 110.02H109.81V114.158H113.948V110.02Z" fill="black"/>
    <path d="M118.086 110.02H113.948V114.158H118.086V110.02Z" fill="black"/>
    <path d="M126.362 110.02H122.224V114.158H126.362V110.02Z" fill="black"/>
    <path d="M14.6379 114.158H10.5V118.296H14.6379V114.158Z" fill="black"/>
    <path d="M22.9138 114.158H18.7759V118.296H22.9138V114.158Z" fill="black"/>
    <path d="M27.0517 114.158H22.9138V118.296H27.0517V114.158Z" fill="black"/>
    <path d="M31.1897 114.158H27.0517V118.296H31.1897V114.158Z" fill="black"/>
    <path d="M39.4655 114.158H35.3276V118.296H39.4655V114.158Z" fill="black"/>
    <path d="M51.8793 114.158H47.7414V118.296H51.8793V114.158Z" fill="black"/>
    <path d="M68.431 114.158H64.2931V118.296H68.431V114.158Z" fill="black"/>
    <path d="M80.8448 114.158H76.7069V118.296H80.8448V114.158Z" fill="black"/>
    <path d="M84.9828 114.158H80.8448V118.296H84.9828V114.158Z" fill="black"/>
    <path d="M93.2586 114.158H89.1207V118.296H93.2586V114.158Z" fill="black"/>
    <path d="M97.3966 114.158H93.2586V118.296H97.3966V114.158Z" fill="black"/>
    <path d="M101.534 114.158H97.3966V118.296H101.534V114.158Z" fill="black"/>
    <path d="M105.672 114.158H101.534V118.296H105.672V114.158Z" fill="black"/>
    <path d="M14.6379 118.296H10.5V122.434H14.6379V118.296Z" fill="black"/>
    <path d="M22.9138 118.296H18.7759V122.434H22.9138V118.296Z" fill="black"/>
    <path d="M27.0517 118.296H22.9138V122.434H27.0517V118.296Z" fill="black"/>
    <path d="M31.1897 118.296H27.0517V122.434H31.1897V118.296Z" fill="black"/>
    <path d="M39.4655 118.296H35.3276V122.434H39.4655V118.296Z" fill="black"/>
    <path d="M47.7414 118.296H43.6035V122.434H47.7414V118.296Z" fill="black"/>
    <path d="M56.0172 118.296H51.8793V122.434H56.0172V118.296Z" fill="black"/>
    <path d="M60.1552 118.296H56.0172V122.434H60.1552V118.296Z" fill="black"/>
    <path d="M64.2931 118.296H60.1552V122.434H64.2931V118.296Z" fill="black"/>
    <path d="M72.569 118.296H68.431V122.434H72.569V118.296Z" fill="black"/>
    <path d="M76.7069 118.296H72.569V122.434H76.7069V118.296Z" fill="black"/>
    <path d="M89.1207 118.296H84.9828V122.434H89.1207V118.296Z" fill="black"/>
    <path d="M93.2586 118.296H89.1207V122.434H93.2586V118.296Z" fill="black"/>
    <path d="M105.672 118.296H101.534V122.434H105.672V118.296Z" fill="black"/>
    <path d="M109.81 118.296H105.672V122.434H109.81V118.296Z" fill="black"/>
    <path d="M118.086 118.296H113.948V122.434H118.086V118.296Z" fill="black"/>
    <path d="M122.224 118.296H118.086V122.434H122.224V118.296Z" fill="black"/>
    <path d="M126.362 118.296H122.224V122.434H126.362V118.296Z" fill="black"/>
    <path d="M130.5 118.296H126.362V122.434H130.5V118.296Z" fill="black"/>
    <path d="M14.6379 122.434H10.5V126.572H14.6379V122.434Z" fill="black"/>
    <path d="M39.4655 122.434H35.3276V126.572H39.4655V122.434Z" fill="black"/>
    <path d="M60.1552 122.434H56.0172V126.572H60.1552V122.434Z" fill="black"/>
    <path d="M68.431 122.434H64.2931V126.572H68.431V122.434Z" fill="black"/>
    <path d="M72.569 122.434H68.431V126.572H72.569V122.434Z" fill="black"/>
    <path d="M76.7069 122.434H72.569V126.572H76.7069V122.434Z" fill="black"/>
    <path d="M80.8448 122.434H76.7069V126.572H80.8448V122.434Z" fill="black"/>
    <path d="M84.9828 122.434H80.8448V126.572H84.9828V122.434Z" fill="black"/>
    <path d="M89.1207 122.434H84.9828V126.572H89.1207V122.434Z" fill="black"/>
    <path d="M93.2586 122.434H89.1207V126.572H93.2586V122.434Z" fill="black"/>
    <path d="M122.224 122.434H118.086V126.572H122.224V122.434Z" fill="black"/>
    <path d="M14.6379 126.572H10.5V130.71H14.6379V126.572Z" fill="black"/>
    <path d="M18.7759 126.572H14.6379V130.71H18.7759V126.572Z" fill="black"/>
    <path d="M22.9138 126.572H18.7759V130.71H22.9138V126.572Z" fill="black"/>
    <path d="M27.0517 126.572H22.9138V130.71H27.0517V126.572Z" fill="black"/>
    <path d="M31.1897 126.572H27.0517V130.71H31.1897V126.572Z" fill="black"/>
    <path d="M35.3276 126.572H31.1897V130.71H35.3276V126.572Z" fill="black"/>
    <path d="M39.4655 126.572H35.3276V130.71H39.4655V126.572Z" fill="black"/>
    <path d="M47.7414 126.572H43.6035V130.71H47.7414V126.572Z" fill="black"/>
    <path d="M51.8793 126.572H47.7414V130.71H51.8793V126.572Z" fill="black"/>
    <path d="M60.1552 126.572H56.0172V130.71H60.1552V126.572Z" fill="black"/>
    <path d="M68.431 126.572H64.2931V130.71H68.431V126.572Z" fill="black"/>
    <path d="M76.7069 126.572H72.569V130.71H76.7069V126.572Z" fill="black"/>
    <path d="M84.9828 126.572H80.8448V130.71H84.9828V126.572Z" fill="black"/>
    <path d="M93.2586 126.572H89.1207V130.71H93.2586V126.572Z" fill="black"/>
    <path d="M101.534 126.572H97.3966V130.71H101.534V126.572Z" fill="black"/>
    <path d="M113.948 126.572H109.81V130.71H113.948V126.572Z" fill="black"/>
    <path d="M118.086 126.572H113.948V130.71H118.086V126.572Z" fill="black"/>
    <path d="M122.224 126.572H118.086V130.71H122.224V126.572Z" fill="black"/>
    <path d="M130.5 126.572H126.362V130.71H130.5V126.572Z" fill="black"/>
    </svg>
    