<svg width="87" height="84" viewBox="0 0 87 84" fill="none" xmlns="http://www.w3.org/2000/svg">
<path d="M1.35782 49.5343C1.65312 51.8733 2.35693 54.1423 3.43773 56.2385C3.57195 56.486 3.41672 56.884 3.5381 57.1442C5.20482 60.913 7.41779 64.4169 10.1058 67.5414C10.2423 67.671 10.3917 67.7888 10.5505 67.8904L10.6625 67.7748C10.6018 67.6605 10.5341 67.5508 10.4618 67.4445C8.61647 65.074 7.12365 62.4479 6.03352 59.649C6.01484 59.551 5.97632 59.4576 5.9203 59.3747C4.9142 58.4188 4.89903 57.1139 4.66793 55.8837C4.65159 55.8043 4.62357 55.7285 4.58389 55.6596C3.9291 54.329 3.49492 52.9016 3.2965 51.4321C3.26031 51.194 3.31517 50.9512 3.45056 50.7516C3.66766 51.7099 3.87775 52.6705 4.10769 53.6252C4.19522 54.0209 4.31544 54.4084 4.46717 54.7842C5.48845 57.1804 6.17008 59.7155 7.5415 61.974C8.86624 64.2535 10.3847 66.4151 12.083 68.4331C12.3106 68.6269 12.5662 68.7856 12.8393 68.9047C12.9105 68.9374 12.9782 68.9782 13.0401 69.0261C13.7894 69.759 14.5504 70.485 15.2764 71.2402C15.4713 71.4409 15.5471 71.7561 15.7362 71.9673C15.9708 72.1984 16.2241 72.4109 16.4925 72.6011C18.4779 74.2083 20.6395 75.5856 22.9342 76.7072C23.0486 76.7679 23.1793 76.7889 23.3065 76.7632C23.1804 76.6629 23.0591 76.5532 22.9295 76.4563C21.1531 75.1059 19.54 73.5512 18.1231 71.8261C17.0691 70.5749 15.8296 69.4824 14.6939 68.3036C13.5198 67.2753 12.467 66.1175 11.5554 64.8499C8.6935 59.963 5.65885 55.1379 4.07967 49.623C3.72485 48.3344 3.47391 47.019 3.33035 45.6908C3.12959 43.9435 3.05723 42.1811 2.92767 40.4245C2.92184 40.3381 2.88682 40.2576 2.8273 40.1946C2.71758 40.728 2.18068 41.1003 2.32425 41.7387C2.34059 41.8123 1.97059 42.0866 1.80368 42.0667C1.08354 41.9815 0.88045 41.7189 0.839599 40.9894C0.832596 40.8692 0.839599 40.7478 0.839599 40.6988C1.1524 40.6836 1.46054 40.6089 1.74533 40.4794C1.90056 40.3661 1.87838 40.0078 1.93207 39.7592C2.00561 39.332 2.12582 38.9142 2.28806 38.5127C2.22153 38.2384 2.02428 38.0003 2.42929 37.6688C2.56701 37.5568 2.38027 37.007 2.29039 36.6709C2.22387 36.4199 2.03712 36.2017 1.97409 35.9507C1.95075 35.764 1.97759 35.5749 2.05113 35.4022C2.15967 35.0765 2.43046 34.7509 2.40595 34.4428C2.32191 32.0886 2.88332 29.7566 4.02832 27.6988C4.80915 26.0986 5.54447 24.4786 6.29963 22.8679C6.32298 22.8119 6.35099 22.757 6.38367 22.7057C8.6865 19.0734 11.371 15.6968 14.3916 12.6341C15.9486 11.1483 17.6842 9.86445 19.5599 8.80932C19.7023 8.73462 19.8377 8.64475 19.9626 8.5432C23.0205 6.09564 26.4345 4.13013 30.0878 2.71785C33.5928 1.20753 37.3464 0.358992 41.1596 0.213096C43.7379 -0.00983402 46.3313 -0.00983402 48.9096 0.213096C53.5829 0.852706 58.0777 2.43073 62.1243 4.85261C63.9042 5.89606 65.5733 7.12392 67.3019 8.25608C67.7407 8.54437 68.2076 8.78715 68.6628 9.05326C73.5626 11.9012 77.6349 15.9769 80.4781 20.879C81.2916 22.1396 82.0234 23.4503 82.67 24.8042C84.38 28.3886 85.5238 32.217 86.0595 36.1527C86.3618 39.3565 86.5707 42.5779 86.6174 45.7947C86.5521 49.7969 85.7841 53.7559 84.3508 57.4932C83.5186 59.8299 82.5335 62.1082 81.4013 64.3154C80.2482 66.3661 78.8592 68.2744 77.2614 70.0006C74.3423 73.6982 70.6797 76.7411 66.5105 78.9342C62.2842 81.0129 57.7497 82.3878 53.0834 83.0123C49.0882 83.6017 45.0392 83.7289 41.0148 83.3916C37.3919 83.1033 33.8356 82.2478 30.4776 80.8577C30.3504 80.7923 30.215 80.7433 30.0749 80.7141C27.8211 80.2531 25.6443 79.4769 23.6076 78.4078C20.9406 77.2418 18.765 75.3183 16.314 73.8336C13.5221 72.0245 11.0465 69.7707 8.98413 67.1609C6.82953 64.6188 5.12079 61.7312 3.92794 58.6196C3.89175 58.525 3.88359 58.4025 3.81823 58.3383C2.81212 57.3625 2.78061 56.0389 2.53433 54.7901C2.51099 54.6745 2.42696 54.573 2.39194 54.4574C1.96476 53.0055 1.5364 51.5535 1.13023 50.0957C1.09871 49.9848 1.2341 49.8272 1.35782 49.5343ZM54.03 80.4748C54.3615 80.3803 54.6929 80.2904 55.0209 80.1901C56.5242 79.7279 58.0182 79.2318 59.5332 78.8116C60.684 78.5595 61.7602 78.0425 62.6752 77.3013C63.2168 76.8706 63.7875 76.4796 64.3863 76.133C64.6501 75.9614 64.9477 75.8447 65.2091 75.6684C66.4709 74.8222 67.6847 73.9002 68.9873 73.1252C71.2399 71.6674 73.2323 69.8431 74.8827 67.7282C75.5876 66.896 76.2062 65.9844 76.8283 65.0845C80.0801 60.3796 82.565 55.3678 83.0249 49.5483C83.1929 47.4287 83.4532 45.3126 83.5361 43.1895C83.5793 42.0691 83.2338 40.9392 83.2291 39.8129C83.2711 35.8095 82.5382 31.8353 81.071 28.1097C80.987 27.9089 81.0045 27.6626 80.9193 27.4619C80.7734 27.1176 80.5423 26.8071 80.4162 26.4558C80.1805 25.5536 79.8875 24.6677 79.542 23.8016C78.0259 21.1078 76.2739 18.5529 74.3084 16.166C73.5089 15.1786 72.6114 14.2764 71.6274 13.4722C67.7758 10.2146 63.2623 7.83357 58.3975 6.49599C58.0357 6.3851 57.7252 6.11899 57.3658 5.99294C56.7203 5.76767 56.0574 5.60777 55.4026 5.39768C54.3066 5.04402 53.22 4.66119 52.1193 4.32155C51.894 4.24918 51.6513 4.26318 51.4353 4.36123C50.3989 4.98099 49.1384 5.09888 48.005 4.67987C47.8475 4.64018 47.6876 4.61334 47.5265 4.60167C43.0282 3.80215 38.3957 4.25969 34.1402 5.92407C34.0106 5.97893 33.8764 6.01861 33.7375 6.04079C33.1423 6.06997 32.5517 6.16101 31.9751 6.31391C30.6889 6.80529 29.4283 7.36436 28.2004 7.98763C27.4103 8.52336 26.4485 8.74512 25.5043 8.60623C25.4132 8.58522 25.2825 8.66809 25.1926 8.73229C23.2913 10.0745 21.4017 11.432 19.4933 12.7637C18.6518 13.3321 17.8651 13.9787 17.1462 14.6965C15.8529 16.0166 14.7196 17.4581 13.5011 18.8318C12.8988 19.4609 12.3444 20.1332 11.8425 20.8452C11.2239 21.5537 10.6812 22.3263 10.2225 23.148C9.74746 24.3502 8.85457 25.3773 8.69817 26.7254C8.68533 26.834 8.58262 26.9355 8.51259 27.0347C8.27682 27.3732 8.02938 27.7035 7.80178 28.0466C7.52283 28.4668 7.25905 28.8987 6.98943 29.3259C6.9124 29.4157 6.85171 29.5173 6.80969 29.6282C6.55408 30.9121 6.2938 32.1971 6.0662 33.4857C5.88645 34.5023 5.72422 35.5236 5.59583 36.5495C5.58649 37.5556 5.44876 38.557 5.18498 39.5281C5.12312 39.6833 5.20482 39.8899 5.18498 40.0685C5.20132 40.3685 5.1558 40.6696 5.05309 40.9521C4.51853 41.8601 4.31894 42.9258 4.48935 43.9657C5.11262 48.017 6.31131 51.9585 8.04689 55.6724C8.6725 57.0532 9.25491 58.4538 9.88285 59.8334C10.0474 60.1964 10.3404 60.5022 10.5178 60.8605C11.0173 61.8736 11.4994 62.8937 11.9639 63.9232C12.1915 64.5791 12.7296 65.0798 13.4007 65.2619C14.1209 65.4697 14.7289 65.9552 15.0896 66.6123C17.4601 70.3216 20.7329 73.3691 24.6021 75.47C25.4004 75.8307 26.1672 76.2555 26.8967 76.7399C28.5086 77.7868 30.2804 78.5654 32.1432 79.0416C32.7338 79.1711 33.2753 79.4664 33.7048 79.8913C34.1122 80.3861 34.7354 80.6523 35.3751 80.6044C35.5163 80.6137 35.6575 80.6383 35.7941 80.6756C37.2647 81.16 38.8334 80.9044 40.3344 81.3386C41.3451 81.5311 42.3804 81.565 43.4017 81.4389C45.2412 81.5078 47.083 81.3899 48.8979 81.0876C50.546 80.5262 52.2944 80.3185 54.03 80.4748ZM83.5723 32.6733C83.5723 32.7515 83.5723 32.8309 83.5839 32.9091C83.8524 35.4045 84.2457 37.8941 84.3531 40.3965C84.4535 42.6375 84.1664 44.8901 84.1629 47.1404C84.1547 52.3192 80.5516 63.0536 76.0207 67.9219C75.1149 68.8918 74.2606 69.9073 73.4669 70.8048L74.1649 71.8109L73.8626 71.5086C74.7835 70.911 75.6437 70.2224 76.4303 69.4556C78.7238 66.7186 80.6929 63.7248 82.2977 60.5337C83.8267 57.5586 84.7733 54.3197 85.0873 50.9886C85.3347 48.3893 85.5016 45.7807 85.6102 43.1732C85.651 42.1741 85.3464 41.1598 85.3464 40.1537C85.2028 37.5743 84.6029 35.0415 83.5723 32.6733ZM35.1755 2.00354L35.1848 2.22881C35.3646 2.22064 35.5443 2.20663 35.7229 2.20429C37.057 2.18795 38.3922 2.14944 39.7263 2.16461C41.7688 2.18562 43.8102 2.28716 45.8504 2.27082C47.8136 2.14477 49.7838 2.30233 51.7015 2.74119C54.4186 3.52086 57.137 4.35189 59.8483 5.15724C59.9755 5.19459 60.1063 5.22026 60.2347 5.25178C59.755 4.86895 59.2472 4.52346 58.715 4.21766C57.8046 3.64341 56.774 3.28743 55.7025 3.17888C55.2893 3.1427 54.8668 3.061 54.4513 2.99914C53.1184 2.79255 51.7983 2.51476 50.4946 2.16928C47.6899 1.33242 44.7615 0.984603 41.8389 1.14217C39.6096 1.34292 37.3954 1.71525 35.1755 2.00354ZM25.1576 7.54644C24.6546 7.54644 24.0056 7.53944 23.3567 7.55344C23.2435 7.57912 23.1396 7.63398 23.0544 7.71218C21.865 8.55254 20.6897 9.41509 19.4852 10.2356C17.829 11.3713 16.3828 12.7847 15.2087 14.4141C14.925 14.8063 14.6169 15.1809 14.2854 15.5334C12.2639 17.6156 10.533 19.9616 9.13936 22.5061C9.04599 22.6823 8.96078 22.8621 8.87208 23.0418C10.0451 21.5303 11.1516 19.9733 12.2966 18.4537C14.8702 14.8704 18.1756 11.8755 21.9946 9.6672C23.1536 9.02642 24.2064 8.19305 25.1553 7.55111L25.1576 7.54644ZM73.2545 72.7272C72.8039 72.1237 72.476 72.3712 72.1468 72.7085C71.9461 72.9092 71.7546 73.2069 71.5154 73.2536C70.7987 73.3971 70.4194 73.9959 69.8743 74.3612C69.6958 74.4814 69.6479 74.7942 69.5405 75.0183L69.6537 75.1047L73.2545 72.7272ZM3.77387 33.3736L5.8351 26.7896C5.61684 27.1222 5.19782 27.7584 4.78348 28.4003C4.74496 28.468 4.72045 28.5415 4.70994 28.6174C4.55121 29.4671 4.40298 30.3168 4.23724 31.1653C4.08084 31.9473 3.90576 32.7328 3.7727 33.3725L3.77387 33.3736ZM80.5271 23.1364L81.7433 25.7905C82.1005 25.5022 81.5717 24.3024 80.5259 23.134L80.5271 23.1364ZM4.22673 38.8967C4.65975 38.7228 4.68193 38.2816 4.28159 37.6887L4.22673 38.8967Z" fill="#FFCC00"/>
</svg>
