<svg width="17" height="18" viewBox="0 0 17 18" fill="none" xmlns="http://www.w3.org/2000/svg">
<path fill-rule="evenodd" clip-rule="evenodd" d="M17 8.94263C17 13.637 13.1944 17.4426 8.5 17.4426C3.80558 17.4426 0 13.637 0 8.94263C0 4.24821 3.80558 0.442627 8.5 0.442627C13.1944 0.442627 17 4.24821 17 8.94263ZM8.29614 4.86646C8.29614 4.59031 8.07228 4.36646 7.79614 4.36646C7.52 4.36646 7.29614 4.59031 7.29614 4.86646V9.96646C7.29614 10.1558 7.40314 10.329 7.57254 10.4137L10.9725 12.1137C11.2195 12.2372 11.5199 12.1371 11.6434 11.8901C11.7669 11.6431 11.6667 11.3427 11.4197 11.2192L8.29614 9.65744V4.86646Z" fill="#DC3C3C"/>
</svg>
