<svg width="44" height="43" viewBox="0 0 44 43" fill="none" xmlns="http://www.w3.org/2000/svg">
<path d="M21.8934 34.5323C30.2863 34.5323 37.0901 27.7569 37.0901 19.399C37.0901 11.041 30.2863 4.26562 21.8934 4.26562C13.5006 4.26562 6.69678 11.041 6.69678 19.399C6.69678 27.7569 13.5006 34.5323 21.8934 34.5323Z" fill="url(#paint0_radial_2597_132394)"/>
<path d="M21.8934 34.5323C30.2863 34.5323 37.0901 27.7569 37.0901 19.399C37.0901 11.041 30.2863 4.26562 21.8934 4.26562C13.5006 4.26562 6.69678 11.041 6.69678 19.399C6.69678 27.7569 13.5006 34.5323 21.8934 34.5323Z" fill="url(#paint1_radial_2597_132394)"/>
<g filter="url(#filter0_d_2597_132394)">
<path fill-rule="evenodd" clip-rule="evenodd" d="M21.8934 34.5323C30.2863 34.5323 37.0901 27.7569 37.0901 19.399C37.0901 11.041 30.2863 4.26562 21.8934 4.26562C13.5005 4.26562 6.69678 11.041 6.69678 19.399C6.69678 27.7569 13.5005 34.5323 21.8934 34.5323ZM21.8934 33.1323C29.5099 33.1323 35.6842 26.9837 35.6842 19.399C35.6842 11.8142 29.5099 5.66562 21.8934 5.66562C14.277 5.66562 8.10264 11.8142 8.10264 19.399C8.10264 26.9837 14.277 33.1323 21.8934 33.1323Z" fill="url(#paint2_radial_2597_132394)"/>
</g>
<path fill-rule="evenodd" clip-rule="evenodd" d="M21.8936 19.4962V28.5407C22.0517 28.5407 22.1556 28.5066 22.2976 28.4258L29.5701 24.2874C29.8572 24.1235 29.9744 23.8698 29.9744 23.5402V15.1484C29.9744 14.983 29.9393 14.8842 29.8587 14.7461L22.1262 19.097C21.9823 19.1788 21.8936 19.3312 21.8936 19.4962ZM25.9339 24.6897C25.9339 24.9196 25.8472 25.0346 25.6453 25.1495L23.2211 26.529C23.048 26.644 22.8171 26.5865 22.8171 26.3566V20.2064C22.8171 20.0419 22.9625 19.8287 23.1056 19.7466L28.6466 16.5854C28.8005 16.4972 28.9352 16.6384 28.9352 16.8153V20.0915C28.9352 20.2614 28.8548 20.414 28.7043 20.4938L26.2225 21.8158C26.072 21.8958 25.9339 22.0484 25.9339 22.2182V24.6897Z" fill="#B8B9BA"/>
<path fill-rule="evenodd" clip-rule="evenodd" d="M13.813 23.5391V15.1473C13.813 14.8173 13.987 14.5064 14.2747 14.3426L21.3163 10.3767C21.468 10.2966 21.7204 10.2617 21.8935 10.2617C22.0666 10.2617 22.3338 10.3044 22.4707 10.3767L29.4546 14.3426C29.5928 14.4239 29.7805 14.6112 29.8586 14.745L22.1244 19.1133C21.9806 19.1951 21.8935 19.3506 21.8935 19.5157V28.5396C21.7354 28.5396 21.5737 28.5055 21.4318 28.4247L14.3324 24.3437C14.0447 24.1801 13.813 23.8691 13.813 23.5391ZM14.8519 16.8142V20.0904C14.8519 20.3203 14.9096 20.4353 15.1405 20.5503L17.5646 21.9297C17.7956 22.0447 17.8532 22.2171 17.8532 22.3895V24.6886C17.8532 24.9185 17.911 25.0335 18.1418 25.1485L20.566 26.5279C20.7969 26.6429 20.9701 26.5854 20.9701 26.3555V20.2053C20.9701 20.0329 20.9123 19.8605 20.6815 19.7455L15.2559 16.6417C15.0828 16.5268 14.8519 16.5843 14.8519 16.8142ZM24.3177 12.9057L22.1821 14.1127C22.009 14.2277 21.7781 14.2277 21.6049 14.1127L19.4694 12.9057C19.3288 12.8265 19.1484 12.827 19.0076 12.9057L16.3526 14.4001C16.1217 14.5151 16.1217 14.745 16.3526 14.8599L21.6627 17.9063C21.8048 17.9873 21.9823 17.9873 22.1244 17.9063L27.4345 14.8599C27.6077 14.745 27.6654 14.5151 27.4345 14.4001L24.7794 12.9057C24.6386 12.827 24.4583 12.8265 24.3177 12.9057Z" fill="#F2F2F2"/>
<defs>
<filter id="filter0_d_2597_132394" x="0.696777" y="0.265625" width="42.3931" height="42.2656" filterUnits="userSpaceOnUse" color-interpolation-filters="sRGB">
<feFlood flood-opacity="0" result="BackgroundImageFix"/>
<feColorMatrix in="SourceAlpha" type="matrix" values="0 0 0 0 0 0 0 0 0 0 0 0 0 0 0 0 0 0 127 0" result="hardAlpha"/>
<feOffset dy="2"/>
<feGaussianBlur stdDeviation="3"/>
<feColorMatrix type="matrix" values="0 0 0 0 0 0 0 0 0 0 0 0 0 0 0 0 0 0 0.15 0"/>
<feBlend mode="normal" in2="BackgroundImageFix" result="effect1_dropShadow_2597_132394"/>
<feBlend mode="normal" in="SourceGraphic" in2="effect1_dropShadow_2597_132394" result="shape"/>
</filter>
<radialGradient id="paint0_radial_2597_132394" cx="0" cy="0" r="1" gradientUnits="userSpaceOnUse" gradientTransform="translate(21.8934 4.26563) rotate(90) scale(30.2667 30.3933)">
<stop stop-color="#4B5362"/>
<stop offset="1" stop-color="#282C34"/>
</radialGradient>
<radialGradient id="paint1_radial_2597_132394" cx="0" cy="0" r="1" gradientUnits="userSpaceOnUse" gradientTransform="translate(21.8934 4.26563) rotate(90) scale(30.2667 30.3933)">
<stop stop-color="#4B5362"/>
<stop offset="1" stop-color="#282C34"/>
</radialGradient>
<radialGradient id="paint2_radial_2597_132394" cx="0" cy="0" r="1" gradientUnits="userSpaceOnUse" gradientTransform="translate(21.8934 4.26563) rotate(90) scale(30.2667 30.3933)">
<stop stop-color="#F7F7F8"/>
<stop offset="1" stop-color="#EBEDEF"/>
</radialGradient>
</defs>
</svg>
