<svg width="33" height="32" viewBox="0 0 33 32" fill="none" xmlns="http://www.w3.org/2000/svg">
<path opacity="0.2" d="M16.8936 32C25.7301 32 32.8936 24.8366 32.8936 16C32.8936 7.16344 25.7301 0 16.8936 0C8.057 0 0.893555 7.16344 0.893555 16C0.893555 24.8366 8.057 32 16.8936 32Z" fill="#8200FE"/>
<path fill-rule="evenodd" clip-rule="evenodd" d="M9.19562 10.4772C10.165 10.2713 11.119 10.0011 12.0857 9.78527C12.4565 9.73902 12.7703 10.0999 12.7685 10.4554C12.7794 11.228 12.7757 12.0024 12.7667 12.776C12.3958 12.8685 11.9877 12.8938 11.6712 13.1278C11.3339 13.3581 11.1072 13.7562 11.1199 14.1697C11.1117 15.6787 11.1262 17.1876 11.1135 18.6957C10.5033 18.848 9.8984 19.0212 9.28449 19.1581C9.03239 19.2107 8.73677 19.2552 8.51641 19.0883C8.32779 18.9305 8.28971 18.6694 8.29606 18.4381C8.29787 16.0759 8.29968 13.7145 8.29606 11.3523C8.30512 11.1645 8.29334 10.9442 8.43661 10.8C8.64337 10.6078 8.92811 10.5379 9.19562 10.4772Z" fill="#8200FE"/>
<path fill-rule="evenodd" clip-rule="evenodd" d="M17.1692 10.2846C17.7949 10.0933 18.4424 9.9872 19.0708 9.80583C19.4634 9.68341 19.9032 10.0371 19.876 10.4488C19.8906 11.2422 19.9295 12.043 19.8452 12.8328C19.4244 12.8908 18.9729 13.0042 18.699 13.356C18.3589 13.7559 18.4088 14.3154 18.407 14.8051C18.4034 16.0973 18.4215 17.3886 18.397 18.68C17.6398 18.806 16.9153 19.0817 16.1572 19.1978C15.7926 19.2721 15.3891 19.0073 15.3918 18.6174C15.3791 16.1971 15.3918 13.7759 15.3846 11.3556C15.38 11.1117 15.4254 10.8115 15.6738 10.6972C16.1354 10.4506 16.6732 10.4288 17.1692 10.2846Z" fill="#8200FE"/>
<path fill-rule="evenodd" clip-rule="evenodd" d="M26.1667 9.85835C26.5974 9.6253 27.2095 9.94813 27.176 10.4569C27.1842 12.8445 27.1769 15.2322 27.1796 17.6207C27.1814 17.8819 27.1515 18.2328 26.8686 18.3426C26.096 18.6137 25.2816 18.7343 24.4982 18.9664C24.0856 19.0644 23.6711 19.2049 23.2422 19.1995C22.904 19.1877 22.6528 18.8594 22.6809 18.5303C22.6646 16.1997 22.6791 13.8683 22.6736 11.5378C22.6773 11.3165 22.6709 11.0871 22.7516 10.8767C23.1706 10.4469 23.8171 10.4705 24.3576 10.3118C24.9543 10.1331 25.5673 10.0225 26.1667 9.85835Z" fill="#8200FE"/>
<path fill-rule="evenodd" clip-rule="evenodd" d="M20.7012 13.2487C21.1682 13.1607 21.6162 12.9975 22.0705 12.8633C22.1059 14.7204 22.0714 16.5794 22.0887 18.4375C22.0878 18.851 22.202 19.3026 22.5403 19.5701C22.7951 19.8394 23.1959 19.7959 23.5332 19.8485C23.5305 20.2076 23.5731 20.5712 23.5142 20.9285C23.4507 21.3112 23.0073 21.4046 22.6917 21.4871C21.7386 21.664 20.8064 21.9306 19.8615 22.1409C19.6022 22.228 19.2993 22.1047 19.1506 21.8816C18.9629 21.5488 19.0336 21.1543 19.0236 20.7907C19.0272 18.6116 19.0173 16.4334 19.0236 14.2552C19.0019 13.9841 19.1651 13.7211 19.4136 13.6132C19.8207 13.4273 20.2669 13.3457 20.7012 13.2487Z" fill="#03FEDC"/>
<path fill-rule="evenodd" clip-rule="evenodd" d="M11.8787 13.7016C12.7873 13.3035 13.7867 13.211 14.7352 12.9453C14.7715 14.6229 14.7415 16.3014 14.7506 17.9791C14.7633 18.3182 14.7071 18.6673 14.7914 19.0001C14.9283 19.2377 15.1333 19.43 15.3409 19.6068C15.5704 19.8326 15.9168 19.7936 16.2106 19.8389C16.1879 20.2806 16.3203 20.773 16.0963 21.1774C15.6248 21.4975 15.0344 21.5057 14.503 21.6626C13.89 21.8421 13.2661 21.9809 12.6395 22.1069C12.3738 22.145 12.0202 22.1658 11.8606 21.9011C11.7563 21.6671 11.7581 21.405 11.7563 21.1538C11.7672 19.0981 11.7472 17.0423 11.7599 14.9866C11.7699 14.5567 11.7028 14.1088 11.8787 13.7016Z" fill="#03FEDC"/>
</svg>
