<svg width="33" height="32" viewBox="0 0 33 32" fill="none" xmlns="http://www.w3.org/2000/svg">
<g clip-path="url(#clip0_2597_132414)">
<path d="M16.8934 30.5261C25.2863 30.5261 32.0901 23.7223 32.0901 15.3295C32.0901 6.93658 25.2863 0.132812 16.8934 0.132812C8.50055 0.132812 1.69678 6.93658 1.69678 15.3295C1.69678 23.7223 8.50055 30.5261 16.8934 30.5261Z" fill="url(#paint0_radial_2597_132414)"/>
<mask id="mask0_2597_132414" style="mask-type:alpha" maskUnits="userSpaceOnUse" x="1" y="0" width="32" height="31">
<path d="M16.8934 30.5261C25.2863 30.5261 32.0901 23.7223 32.0901 15.3295C32.0901 6.93658 25.2863 0.132812 16.8934 0.132812C8.50055 0.132812 1.69678 6.93658 1.69678 15.3295C1.69678 23.7223 8.50055 30.5261 16.8934 30.5261Z" fill="url(#paint1_radial_2597_132414)"/>
</mask>
<g mask="url(#mask0_2597_132414)">
<path d="M16.8929 30.53C25.2858 30.53 32.0896 23.7262 32.0896 15.3334C32.0896 6.94049 25.2858 0.136719 16.8929 0.136719C8.50006 0.136719 1.69629 6.94049 1.69629 15.3334C1.69629 23.7262 8.50006 30.53 16.8929 30.53Z" fill="url(#paint2_radial_2597_132414)"/>
<g filter="url(#filter0_d_2597_132414)">
<path fill-rule="evenodd" clip-rule="evenodd" d="M16.8929 30.53C25.2858 30.53 32.0896 23.7263 32.0896 15.3334C32.0896 6.94047 25.2858 0.136719 16.8929 0.136719C8.50004 0.136719 1.69629 6.94047 1.69629 15.3334C1.69629 23.7263 8.50004 30.53 16.8929 30.53ZM16.8929 29.1242C24.5094 29.1242 30.6837 22.9498 30.6837 15.3334C30.6837 7.7169 24.5094 1.54258 16.8929 1.54258C9.27647 1.54258 3.10215 7.7169 3.10215 15.3334C3.10215 22.9498 9.27647 29.1242 16.8929 29.1242Z" fill="url(#paint3_radial_2597_132414)"/>
</g>
<path d="M21.7569 9.01562H12.0298C11.749 9.01609 11.4799 9.12705 11.281 9.32428C11.0823 9.52151 10.9699 9.789 10.9688 10.0683V20.5921C10.97 20.8714 11.0824 21.1388 11.2812 21.3359C11.48 21.5331 11.7491 21.644 12.0298 21.6444H21.7569C22.0377 21.644 22.3068 21.5331 22.5056 21.3359C22.7044 21.1388 22.8167 20.8714 22.818 20.5921V20.1006C22.8002 19.4694 22.7825 18.1541 22.7825 17.5575C22.7825 17.2245 22.535 16.9437 22.2166 16.9437C21.8628 16.9437 21.6329 17.1541 21.4559 17.3294C20.9255 17.8033 20.1299 17.891 19.4403 17.7679C19.1218 17.6979 18.8211 17.6102 18.5733 17.4525C17.813 17.014 17.3178 16.1895 17.3178 15.3125C17.3178 14.4356 17.813 13.6287 18.5733 13.1725C18.8389 13.0149 19.1392 12.9271 19.44 12.8571C20.1118 12.7341 20.9258 12.8218 21.4562 13.2956C21.6506 13.471 21.8806 13.681 22.2169 13.681C22.535 13.681 22.7825 13.4006 22.7825 13.0675C22.7825 12.4887 22.8002 11.1556 22.818 10.5241V10.0679C22.8166 9.78874 22.7042 9.52145 22.5055 9.32438C22.3067 9.12731 22.0376 9.01646 21.7569 9.01599V9.01562Z" fill="#F46A54"/>
</g>
</g>
<defs>
<filter id="filter0_d_2597_132414" x="-4.30371" y="-3.86328" width="42.3931" height="42.3945" filterUnits="userSpaceOnUse" color-interpolation-filters="sRGB">
<feFlood flood-opacity="0" result="BackgroundImageFix"/>
<feColorMatrix in="SourceAlpha" type="matrix" values="0 0 0 0 0 0 0 0 0 0 0 0 0 0 0 0 0 0 127 0" result="hardAlpha"/>
<feOffset dy="2"/>
<feGaussianBlur stdDeviation="3"/>
<feColorMatrix type="matrix" values="0 0 0 0 0 0 0 0 0 0 0 0 0 0 0 0 0 0 0.15 0"/>
<feBlend mode="normal" in2="BackgroundImageFix" result="effect1_dropShadow_2597_132414"/>
<feBlend mode="normal" in="SourceGraphic" in2="effect1_dropShadow_2597_132414" result="shape"/>
</filter>
<radialGradient id="paint0_radial_2597_132414" cx="0" cy="0" r="1" gradientUnits="userSpaceOnUse" gradientTransform="translate(16.8934 0.132813) rotate(90) scale(30.3933)">
<stop stop-color="#4B5362"/>
<stop offset="1" stop-color="#282C34"/>
</radialGradient>
<radialGradient id="paint1_radial_2597_132414" cx="0" cy="0" r="1" gradientUnits="userSpaceOnUse" gradientTransform="translate(16.8934 0.132813) rotate(90) scale(30.3933)">
<stop stop-color="#4B5362"/>
<stop offset="1" stop-color="#282C34"/>
</radialGradient>
<radialGradient id="paint2_radial_2597_132414" cx="0" cy="0" r="1" gradientUnits="userSpaceOnUse" gradientTransform="translate(16.8929 0.136719) rotate(90) scale(30.3933)">
<stop stop-color="#F6D6C1"/>
<stop offset="1" stop-color="#E4A981"/>
</radialGradient>
<radialGradient id="paint3_radial_2597_132414" cx="0" cy="0" r="1" gradientUnits="userSpaceOnUse" gradientTransform="translate(16.8929 0.136719) rotate(90) scale(30.3933)">
<stop stop-color="#F7F7F8"/>
<stop offset="1" stop-color="#EBEDEF"/>
</radialGradient>
<clipPath id="clip0_2597_132414">
<rect width="32" height="32" fill="white" transform="translate(0.893555)"/>
</clipPath>
</defs>
</svg>
