<svg width="33" height="32" viewBox="0 0 33 32" fill="none" xmlns="http://www.w3.org/2000/svg">
<path opacity="0.2" d="M16.8936 32C25.7301 32 32.8936 24.8366 32.8936 16C32.8936 7.16344 25.7301 0 16.8936 0C8.057 0 0.893555 7.16344 0.893555 16C0.893555 24.8366 8.057 32 16.8936 32Z" fill="#2C5F93"/>
<path fill-rule="evenodd" clip-rule="evenodd" d="M15.0105 24.3734L13.6013 21.4453L11.0767 25.4221C11.2964 25.5586 11.5208 25.6875 11.7495 25.8085C12.0382 25.9612 12.3336 26.1008 12.635 26.2268C13.5982 26.6277 14.6134 26.8899 15.6503 27.0055C15.8663 27.0294 16.0841 27.0471 16.3032 27.0591L15.0105 24.3734Z" fill="#7CC245"/>
<path fill-rule="evenodd" clip-rule="evenodd" d="M27.567 13.0376C27.4965 12.7866 27.417 12.5382 27.3286 12.293L19.5402 19.1717L18.4653 20.1206L18.5537 20.9977L19.1441 26.8432C19.5292 26.7637 19.9097 26.6638 20.2842 26.5439C24.7428 25.1118 27.9702 20.9323 27.9702 15.998C27.9702 14.9723 27.8278 13.9804 27.567 13.0376Z" fill="#FCCB32"/>
<path fill-rule="evenodd" clip-rule="evenodd" d="M12.2534 21.9051L13.9719 25.4757L19.9399 20.205L18.8586 9.49609L12.2534 21.9051Z" fill="#EE3F26"/>
<path fill-rule="evenodd" clip-rule="evenodd" d="M13.0076 21.5141L18.6974 10.8253L18.7382 11.2318L19.3472 10.0876L19.3467 10.082L8.63135 13.4419L12.872 22.2527L13.1299 21.768L13.0076 21.5141Z" fill="#CF3627"/>
<path fill-rule="evenodd" clip-rule="evenodd" d="M14.4878 24.5901L15.6502 27.0049C16.0585 27.051 16.4728 27.0764 16.8933 27.0764C18.0763 27.0764 19.215 26.889 20.2843 26.5456L19.6284 20.0508L14.4878 24.5901Z" fill="#F05048"/>
<path fill-rule="evenodd" clip-rule="evenodd" d="M19.6284 20.0503L20.2844 26.5454C24.7429 25.1134 27.9702 20.9338 27.9702 15.9995C27.9702 14.9738 27.8278 13.9819 27.567 13.0391L19.6284 20.0503Z" fill="#FCCB32"/>
<path fill-rule="evenodd" clip-rule="evenodd" d="M18.1076 4.98944C17.7044 4.94484 17.2991 4.92228 16.8935 4.92188C12.9426 4.92188 9.47709 6.99215 7.51626 10.1052C7.01841 10.8978 6.62327 11.7505 6.34033 12.6427L9.28148 13.7723L18.6969 10.8203L18.7004 10.8192L19.7111 5.28653C19.1846 5.14814 18.6487 5.04884 18.1076 4.98944Z" fill="#2591D4"/>
<path fill-rule="evenodd" clip-rule="evenodd" d="M25.2725 8.75711C24.1944 7.50938 22.8519 6.5174 21.3426 5.85318C20.8143 5.62146 20.2686 5.43153 19.7105 5.28516L18.6999 10.8179L18.6968 10.8236L19.6283 20.048L27.567 13.0368C27.1291 11.4577 26.3453 9.99581 25.2725 8.75711Z" fill="#F47F22"/>
<path fill-rule="evenodd" clip-rule="evenodd" d="M13.0075 21.5158L9.28127 13.7742L6.34035 12.6445C5.99263 13.7293 5.81587 14.8615 5.81641 16.0006C5.81641 19.9365 7.87073 23.39 10.9639 25.3551C11.2195 25.5173 11.4816 25.6692 11.7494 25.8103L13.6407 22.8315L13.0075 21.5158Z" fill="#4CAA4C"/>
<path fill-rule="evenodd" clip-rule="evenodd" d="M14.4879 24.5882L13.6408 22.8281L11.7495 25.8067C12.0382 25.9594 12.3337 26.099 12.635 26.225C13.5982 26.6259 14.6135 26.8881 15.6504 27.0037L14.4879 24.5882Z" fill="#7CC245"/>
<path fill-rule="evenodd" clip-rule="evenodd" d="M21.3427 5.85547C22.852 6.51968 24.1944 7.51167 25.2725 8.75939L18.6997 10.8201L21.3427 5.85547ZM19.6284 20.0503L18.6973 10.8259L18.7004 10.8201L25.273 8.7594C26.3455 9.99824 27.1291 11.4601 27.567 13.0391L19.6284 20.0503Z" fill="#F47F22"/>
<path fill-rule="evenodd" clip-rule="evenodd" d="M13.0073 21.513L14.4876 24.5884L19.6282 20.0486L18.6971 10.8242L13.0073 21.513Z" fill="#EE3F26"/>
<path fill-rule="evenodd" clip-rule="evenodd" d="M18.6969 10.8203L18.1081 4.98944C17.7047 4.94486 17.2992 4.9223 16.8934 4.92188C12.9425 4.92188 9.47695 6.99215 7.51611 10.1052L9.28133 13.7723L18.6969 10.8203Z" fill="#1E85CA"/>
<path fill-rule="evenodd" clip-rule="evenodd" d="M18.6969 10.8203L9.28125 13.7723L13.0075 21.514L18.6973 10.8252L18.6969 10.8203Z" fill="#CF3627"/>
<path fill-rule="evenodd" clip-rule="evenodd" d="M18.6998 10.8183L21.3428 5.85339C20.3148 5.40162 19.2237 5.10988 18.1074 4.98828L18.6963 10.8192L18.6998 10.8183Z" fill="#35A9E1"/>
<path fill-rule="evenodd" clip-rule="evenodd" d="M14.4878 24.5901L15.6502 27.0049C16.0585 27.051 16.4728 27.0764 16.8933 27.0764C18.0763 27.0764 19.215 26.889 20.2843 26.5456L19.6284 20.0508L14.4878 24.5901Z" fill="#F05048"/>
<path fill-rule="evenodd" clip-rule="evenodd" d="M19.6284 20.0503L20.2844 26.5454C24.7429 25.1134 27.9702 20.9338 27.9702 15.9995C27.9702 14.9738 27.8278 13.9819 27.567 13.0391L19.6284 20.0503Z" fill="#FCCB32"/>
<path fill-rule="evenodd" clip-rule="evenodd" d="M12.6348 26.2259C13.598 26.6268 14.6132 26.889 15.6501 27.0046L14.4877 24.5898L12.6348 26.2259H12.6348Z" fill="#7CC245"/>
<path fill-rule="evenodd" clip-rule="evenodd" d="M7.51612 10.1055C6.61303 11.5366 6.05211 13.1568 5.87695 14.84L9.28133 13.7726L7.51612 10.1055Z" fill="#0161AD"/>
<path fill-rule="evenodd" clip-rule="evenodd" d="M9.28127 13.7734L5.87689 14.8408C5.8368 15.2259 5.81662 15.6128 5.81641 15.9999C5.81641 19.9358 7.87073 23.3893 10.9639 25.3544L13.0075 21.5151L9.28127 13.7734Z" fill="#4CAA4C"/>
<path fill-rule="evenodd" clip-rule="evenodd" d="M13.0076 21.5156L10.9639 25.3549C11.4948 25.6931 12.0538 25.9852 12.6347 26.2277L14.4877 24.591L13.0076 21.5156Z" fill="#51B34B"/>
<path fill-rule="evenodd" clip-rule="evenodd" d="M18.9303 7.35938L18.6655 8.13609C20.9731 9.38601 23.2097 11.6089 24.4242 13.5458L25.2193 13.3064C23.9198 11.1889 21.4651 8.73158 18.9303 7.35938V7.35938Z" fill="#444344"/>
<path fill-rule="evenodd" clip-rule="evenodd" d="M22.7787 5.55859C21.2933 5.55859 20.0008 6.3723 19.315 7.57703C19.2248 7.73449 19.1454 7.89792 19.0775 8.06619C19.0604 8.10961 19.0467 8.15436 19.0316 8.19889C19.0179 8.23921 19.0022 8.27864 18.9897 8.31918C21.0676 9.52878 23.0488 11.4828 24.2358 13.2562C24.2535 13.2493 24.2717 13.2442 24.2892 13.2371C24.4204 13.1825 24.5484 13.1205 24.6727 13.0515C24.7672 12.9996 24.8605 12.9458 24.9505 12.8873C26.0431 12.1762 26.7669 10.9475 26.7669 9.54673C26.7669 7.34419 24.9817 5.55859 22.7787 5.55859Z" fill="#EE3F26"/>
<path fill-rule="evenodd" clip-rule="evenodd" d="M19.0316 8.19922C19.0179 8.23954 19.0022 8.27897 18.9897 8.31951C21.0676 9.52911 23.0488 11.4831 24.2358 13.2565C24.2535 13.2496 24.2717 13.2445 24.2892 13.2374C24.4204 13.1828 24.5484 13.1208 24.6727 13.0518C23.4117 11.2877 21.2519 9.3366 19.0316 8.19922V8.19922Z" fill="#C03225"/>
</svg>
