<svg width="33" height="32" viewBox="0 0 33 32" fill="none" xmlns="http://www.w3.org/2000/svg">
<path opacity="0.2" d="M16.8936 32C25.7301 32 32.8936 24.8366 32.8936 16C32.8936 7.16344 25.7301 0 16.8936 0C8.057 0 0.893555 7.16344 0.893555 16C0.893555 24.8366 8.057 32 16.8936 32Z" fill="#56F4F1"/>
<path fill-rule="evenodd" clip-rule="evenodd" d="M7.04736 9.86239C7.04736 9.87265 8.49119 12.406 10.2558 15.4942C12.5315 19.4757 13.4693 21.1075 13.4805 21.1055C13.4947 21.1024 19.9074 9.87675 19.9074 9.85521C19.9074 9.85008 18.5624 9.84598 16.8833 9.84598C14.291 9.84598 13.8592 9.84803 13.8592 9.86034C13.8592 9.86854 14.4824 10.9547 15.243 12.2737C16.0046 13.5937 16.6288 14.6788 16.6308 14.685C16.6329 14.6911 16.5168 14.9014 16.3742 15.1516L16.1146 15.608L16.0871 15.5609C16.0718 15.5342 15.3244 14.2388 14.4264 12.6819L12.7921 9.85111L9.91975 9.84803C7.25406 9.84598 7.04736 9.84701 7.04736 9.86239Z" fill="#56F4F1"/>
<path fill-rule="evenodd" clip-rule="evenodd" d="M20.9635 9.85658C20.8576 10.0361 14.0182 22.035 14.0142 22.0463C14.0081 22.0709 16.8723 27.0822 16.8906 27.0781C16.9029 27.075 19.7834 22.0484 19.7925 22.0125C19.7956 22.0022 19.2376 21.0258 18.4831 19.7171C17.7602 18.4648 17.1676 17.4361 17.1666 17.4309C17.1625 17.4186 17.6787 16.5161 17.6869 16.5212C17.6909 16.5232 18.2825 17.5458 19.0024 18.793C20.0125 20.5438 20.3139 21.0597 20.3271 21.0576C20.3393 21.0556 21.4105 19.1909 23.5345 15.475C25.2879 12.4063 26.7246 9.8853 26.7276 9.87197L26.7317 9.8494H23.8501C22.2648 9.8494 20.9655 9.85248 20.9635 9.85658Z" fill="#0ED8D2"/>
</svg>
