<svg width="33" height="32" viewBox="0 0 33 32" fill="none" xmlns="http://www.w3.org/2000/svg">
<path opacity="0.2" d="M16.8936 32C25.7301 32 32.8936 24.8366 32.8936 16C32.8936 7.16344 25.7301 0 16.8936 0C8.057 0 0.893555 7.16344 0.893555 16C0.893555 24.8366 8.057 32 16.8936 32Z" fill="#417BA4"/>
<path fill-rule="evenodd" clip-rule="evenodd" d="M21.2356 11.4239H21.0947C21.0947 11.363 21.1413 11.3008 21.1413 11.3008H21.1879C21.2356 11.363 21.2356 11.4239 21.2356 11.4239Z" fill="#EFF3C9"/>
<path fill-rule="evenodd" clip-rule="evenodd" d="M16.1113 4.96837C16.3931 4.96837 16.7693 4.92188 17.051 4.92188C18.0384 4.92188 18.509 5.29708 18.3204 6.04761C18.086 6.93864 16.8163 8.20498 15.1709 9.33072C14.8414 9.47133 14.5129 9.04951 14.6072 8.86141C14.6072 8.81491 14.6538 8.81491 14.6538 8.81491C16.1117 7.82955 17.1924 6.75164 17.4272 5.95351C17.6147 5.20298 17.0044 4.87427 15.9227 4.96815H16.1113" fill="#D37D41"/>
<path fill-rule="evenodd" clip-rule="evenodd" d="M21.7526 6.04604C22.3163 6.32726 22.5513 6.79657 22.364 7.50049C21.8003 9.61136 17.6629 12.848 13.1494 14.7707C12.3028 15.1461 11.4573 15.4271 10.7051 15.6619C10.2823 15.7084 10.2346 15.1461 10.4233 14.8647C10.4699 14.7706 10.5176 14.7706 10.5642 14.7241C11.2698 14.537 12.0221 14.2548 12.8209 13.927C17.0993 12.0972 21.0014 9.00233 21.5183 7.03195C21.7058 6.32792 21.424 5.85971 20.8126 5.625C21.0944 5.7645 21.4706 5.90511 21.7524 6.04571" fill="#E8B521"/>
<path fill-rule="evenodd" clip-rule="evenodd" d="M27.6297 13.1764C27.6763 13.4111 27.6763 13.6922 27.5831 14.021C27.0195 16.0843 23.4934 19.1339 19.2151 21.3378C18.7447 21.5249 18.4629 21.1972 18.5572 20.8685C18.6038 20.7278 18.6981 20.6337 18.7924 20.5872C23.1173 18.3358 26.7377 15.2398 27.3011 13.1299C27.3954 12.7546 27.3954 12.4262 27.3011 12.1445C27.442 12.5186 27.5829 12.894 27.6295 13.1762" fill="#417BA4"/>
<path fill-rule="evenodd" clip-rule="evenodd" d="M7.7903 10.6438C7.6016 10.9252 7.46071 11.1598 7.31982 11.441L11.1277 10.9725C11.1277 10.9725 11.1277 10.5508 10.9402 10.5973C9.3414 11.1131 8.16649 11.1131 7.7903 10.6438ZM27.9592 15.5211V15.1459H27.9596L27.879 14.6234C27.8758 14.5939 27.8713 14.5644 27.8653 14.5349L27.879 14.6234C27.9008 14.8258 27.8606 15.0282 27.8204 15.2306L27.8187 15.2389C27.4887 16.5529 25.891 18.2409 23.6808 19.8825C23.6331 19.929 23.4922 20.0706 23.4456 20.2577C23.3991 20.4923 23.5866 20.8211 23.9161 20.5864C26.0319 18.9913 27.5831 17.3498 27.9126 16.0834C27.9592 15.8498 27.9592 15.7082 27.9592 15.5211Z" fill="#D37D41"/>
<path fill-rule="evenodd" clip-rule="evenodd" d="M11.1277 10.9727C11.1277 11.2074 11.0811 11.535 9.05952 11.8173C8.49585 11.9114 7.6959 11.8638 7.31982 11.4421" fill="#D37D41"/>
<path fill-rule="evenodd" clip-rule="evenodd" d="M19.731 5.29527C20.3424 5.52998 20.5775 5.95169 20.3889 6.60812C19.9185 8.39061 16.3925 11.1576 12.5379 12.7991C9.48231 14.0666 7.13125 14.3012 6.521 13.409C6.61529 13.1278 6.70848 12.8467 6.80277 12.5644C7.36644 13.3616 9.53001 13.1743 12.3037 12.0021C15.8298 10.4546 19.074 7.92196 19.4968 6.3269C19.6377 5.71698 19.1562 5.21556 18.6392 5.02734" fill="#417BA4"/>
<path fill-rule="evenodd" clip-rule="evenodd" d="M6.66057 15.5357C6.61398 15.6763 6.56628 15.8644 6.47309 15.8169C6.00261 15.5832 5.81402 15.2081 5.86172 14.6447C5.81513 14.9734 5.90832 15.2546 6.0492 15.4418C6.04699 15.1563 6.1435 14.8319 6.19009 14.5508C6.28439 14.6914 6.42528 14.7855 6.61287 14.8795C6.75487 15.0666 6.66057 15.5359 6.66057 15.5359" fill="#E8B521"/>
<path fill-rule="evenodd" clip-rule="evenodd" d="M23.3049 6.94053L23.7754 7.26924C24.1516 7.59795 24.2925 8.06638 24.1516 8.67619C23.5402 11.0218 18.9335 14.6326 13.9029 16.7435C9.10739 18.8073 5.628 18.7138 5.86319 16.697C5.8166 17.0257 5.90978 17.3534 6.05067 17.588C6.00408 17.3068 6.00408 16.9781 6.00408 16.697C9.15398 20.0266 23.3048 11.397 23.4458 7.73866C23.4924 7.08224 23.1163 6.84764 22.9288 6.70703L23.3048 6.94064" fill="#D37D41"/>
<path fill-rule="evenodd" clip-rule="evenodd" d="M6.38919 19.3209C6.3028 19.1338 6.21435 18.9457 6.3028 18.7109C6.21435 18.9457 6.3028 19.1338 6.38919 19.3209Z" fill="#417BA4"/>
<path fill-rule="evenodd" clip-rule="evenodd" d="M25.4675 8.90844C25.7493 9.23715 25.797 9.65897 25.655 10.2213C24.997 12.7075 20.154 16.5064 14.7949 18.7573C9.71772 20.9623 6.00304 20.8682 6.28615 18.7108C6.23956 19.086 6.33274 19.4149 6.52134 19.6484C6.42704 19.3671 6.33385 19.086 6.28615 18.7573C7.1327 19.9296 10.3292 19.6484 14.4201 17.9127C19.6381 15.7077 24.387 11.9563 25.0448 9.5167C25.1857 8.90678 25.0914 8.48507 24.763 8.15625C24.9971 8.39207 25.2324 8.67317 25.4676 8.90789" fill="#417BA4"/>
<path fill-rule="evenodd" clip-rule="evenodd" d="M24.2442 15.0552C24.3385 15.3365 24.2442 15.5246 24.1499 15.6652C22.0818 17.5414 19.0247 19.4176 15.8285 20.778C11.0798 22.7487 7.50716 22.8889 7.17757 21.1997C7.13097 21.0591 7.03668 20.965 6.94238 20.8245C7.83553 21.9968 11.1264 21.7621 15.3581 19.9335C18.5546 18.5731 21.6113 16.6504 23.6795 14.8206C24.0566 14.6324 24.1976 14.9136 24.2442 15.0554" fill="#E8B521"/>
<path fill-rule="evenodd" clip-rule="evenodd" d="M12.3504 23.637C12.397 23.7311 12.4447 23.9182 12.2561 23.9657C10.5641 24.2469 9.34138 24.1063 8.77661 23.4964C8.58913 23.2616 8.30613 22.934 8.11865 22.6992C8.63572 23.3556 9.90472 23.5439 11.739 23.2615C12.0685 23.2615 12.3027 23.5427 12.3504 23.6367" fill="#417BA4"/>
<path fill-rule="evenodd" clip-rule="evenodd" d="M17.5217 23.8238C17.5683 23.8703 17.5683 24.0586 17.2865 24.199C14.0423 25.4654 11.5037 25.7465 10.4696 25.0437C10.2345 24.8566 9.90597 24.622 9.6709 24.4338C10.6582 25.2784 13.3379 24.9961 16.8174 23.6366C17.3333 23.496 17.5219 23.8237 17.5219 23.8237" fill="#D37D41"/>
<path fill-rule="evenodd" clip-rule="evenodd" d="M27.8182 18.0093C27.2545 20.0261 23.2581 23.1686 18.8854 25.045C16.0173 26.2648 13.714 26.5924 12.5855 26.1707C12.3037 26.0301 11.9276 25.8895 11.6924 25.749C15.4456 27.3005 26.8207 21.2058 27.938 17.2031" fill="#417BA4"/>
<path fill-rule="evenodd" clip-rule="evenodd" d="M27.1593 20.2118C25.5139 23.5886 17.898 27.3418 14.889 26.8721C14.5595 26.8256 14.1368 26.7315 13.855 26.6374C14.9367 26.9661 16.9583 26.5909 19.4026 25.5582C23.352 23.8701 26.9718 21.0552 27.5366 19.2266C27.4423 19.5077 27.3003 19.9295 27.1594 20.2119" fill="#E8B521"/>
<path fill-rule="evenodd" clip-rule="evenodd" d="M24.7148 23.5886C24.7148 23.6351 21.9876 25.6054 20.5308 26.2153C19.3081 26.7311 18.2274 27.0125 17.4275 27.06H16.2524C17.1922 27.1065 18.5558 26.7787 20.2018 26.1224C21.8471 25.4184 24.8307 23.3828 24.8772 23.3828C24.8772 23.3828 24.7619 23.5422 24.7153 23.5887" fill="#417BA4"/>
<path fill-rule="evenodd" clip-rule="evenodd" d="M7.3196 11.4416C7.2253 11.301 7.17871 11.1648 7.17871 10.9302C7.17871 10.8837 7.17871 10.8361 7.2253 10.7431C7.36619 10.5084 7.55478 10.2738 7.69578 10.0391C7.64919 10.3203 7.64919 10.5084 7.79008 10.649C7.60149 10.9766 7.4606 11.1604 7.3196 11.4416Z" fill="#D37D41"/>
<path fill-rule="evenodd" clip-rule="evenodd" d="M6.5208 13.4117C6.37992 13.2246 6.33295 12.9899 6.37992 12.7076C6.37992 12.6135 6.37992 12.567 6.42651 12.4729C6.51578 12.1992 6.62593 11.9327 6.75599 11.6758C6.66169 12.0045 6.67944 12.3555 6.82033 12.5901C6.67833 12.9199 6.60955 13.1446 6.5208 13.4114" fill="#417BA4"/>
<path fill-rule="evenodd" clip-rule="evenodd" d="M6.05071 15.4463C5.90982 15.2116 5.81553 14.977 5.86212 14.6492L5.95642 14.0393L6.05071 13.6641C5.95642 14.0393 6.00412 14.3681 6.1916 14.5551C6.16276 14.8406 6.05071 15.165 6.05071 15.4461" fill="#E8B521"/>
<path fill-rule="evenodd" clip-rule="evenodd" d="M6.05048 17.5534C5.90959 17.4128 5.863 17.2589 5.863 17.0244C5.863 16.7432 5.81641 16.3204 5.81641 16.0391C5.81641 16.3203 5.9107 16.5084 6.00389 16.6955" fill="#D37D41"/>
<path fill-rule="evenodd" clip-rule="evenodd" d="M13.316 8.22941C13.3251 8.23931 13.3325 8.24742 13.3379 8.25298C13.3845 8.29948 13.4322 8.44009 13.3378 8.53431C12.8673 8.81552 12.3504 9.09662 11.7867 9.28484C10.1413 9.98876 8.82204 10.0818 8.49256 9.61355C8.45451 9.49851 8.43499 9.24188 8.45451 9.12641C8.45817 8.71588 9.20998 8.11193 9.39458 7.97266C9.25369 8.15976 9.13277 8.32129 9.08507 8.50951C9.07187 8.52003 9.01208 8.81607 9.10515 8.91029L9.10615 8.90907C9.38804 9.28462 10.4221 9.19051 11.739 8.62819C12.1618 8.44109 12.5855 8.25298 12.9617 8.01827C13.0862 7.97721 13.2479 8.15459 13.316 8.22941ZM6.33353 19.3223C6.38013 19.4639 6.42672 19.5569 6.52102 19.651V19.6508C6.46567 19.4858 6.42637 19.3207 6.38473 19.1458C6.35543 19.0228 6.32497 18.8948 6.28694 18.7586C6.19265 18.6181 6.09835 18.4775 6.05176 18.3369C6.09889 18.4775 6.14574 18.6535 6.19259 18.8294C6.23948 19.0055 6.28637 19.1816 6.33353 19.3223Z" fill="#417BA4"/>
<path fill-rule="evenodd" clip-rule="evenodd" d="M7.18994 10.8331C7.18994 10.739 7.27314 10.5663 7.31974 10.4734C7.36633 10.3328 7.8834 9.53587 8.07199 9.34766C8.07199 9.34766 7.83681 9.67637 7.69581 10.0517C7.55492 10.2864 7.36633 10.521 7.22533 10.7557" fill="#D37D41"/>
</svg>
