<svg width="33" height="32" viewBox="0 0 33 32" fill="none" xmlns="http://www.w3.org/2000/svg">
<path opacity="0.2" d="M16.8936 32C25.7301 32 32.8936 24.8366 32.8936 16C32.8936 7.16344 25.7301 0 16.8936 0C8.057 0 0.893555 7.16344 0.893555 16C0.893555 24.8366 8.057 32 16.8936 32Z" fill="#00AAA6"/>
<path fill-rule="evenodd" clip-rule="evenodd" d="M26.7369 15.7812C26.7389 15.8479 26.7396 15.9134 26.7396 15.9797C26.7421 17.553 26.3643 19.1036 25.6381 20.5L20.2695 22.6623L20.2804 22.6379L26.7369 15.7812Z" fill="#0F6089"/>
<path fill-rule="evenodd" clip-rule="evenodd" d="M26.7371 15.7802L20.2817 22.6392L26.2784 13C26.565 13.8998 26.7195 14.8362 26.7371 15.7802Z" fill="#078FA4"/>
<path fill-rule="evenodd" clip-rule="evenodd" d="M26.2783 13.0003L20.2816 22.6394L20.2653 22.6654L19.5464 10.1914L25.5753 12.4428L26.2783 13.0003Z" fill="#00AAA6"/>
<path fill-rule="evenodd" clip-rule="evenodd" d="M26.2782 12.9988L25.5752 12.4414L26.1632 12.6604C26.2044 12.7725 26.2433 12.8856 26.2782 12.9988Z" fill="#00AAA6"/>
<path fill-rule="evenodd" clip-rule="evenodd" d="M20.3526 6.77734H20.3526H20.3518L20.0488 8.06161L25.5751 12.4428L26.1632 12.6618C25.1848 9.94471 23.0604 7.79338 20.3526 6.77734Z" fill="#1EAAE2"/>
<path fill-rule="evenodd" clip-rule="evenodd" d="M20.2695 22.6638L25.6373 20.5C24.278 23.1168 21.8144 24.9872 18.9248 25.5964L20.2132 22.7883L20.2695 22.6638Z" fill="#0C7392"/>
<path fill-rule="evenodd" clip-rule="evenodd" d="M25.5753 12.4437L19.5464 10.1922L20.049 8.0625L25.5753 12.4437Z" fill="#1EAAE2"/>
<path fill-rule="evenodd" clip-rule="evenodd" d="M20.3518 6.77669L20.0485 8.06095L17.6792 6.18359C18.5937 6.25437 19.4935 6.45405 20.3518 6.77669Z" fill="#ABCF3A"/>
<path fill-rule="evenodd" clip-rule="evenodd" d="M20.2896 22.7356L20.3413 22.6531L20.3068 22.7307L20.2896 22.7356Z" fill="#CD1685"/>
<path fill-rule="evenodd" clip-rule="evenodd" d="M20.2709 22.6638L20.2134 22.7883L13.252 17.7198L13.3421 17.64L19.5465 10.1914L20.2654 22.6654L20.2709 22.6638Z" fill="#8F9990"/>
<path fill-rule="evenodd" clip-rule="evenodd" d="M20.2132 22.7895L18.9249 25.5976C18.2573 25.738 17.5769 25.8084 16.8946 25.8077C16.6228 25.8077 16.3567 25.7969 16.0926 25.7755L9.96777 20.4609L10.1461 20.4997L20.2132 22.7895Z" fill="#CD1685"/>
<path fill-rule="evenodd" clip-rule="evenodd" d="M20.2132 22.7872L10.146 20.4989L13.2517 17.7188L20.2132 22.7872Z" fill="#EC1076"/>
<path fill-rule="evenodd" clip-rule="evenodd" d="M20.0489 8.06095L19.5463 10.1907L17.6792 6.18359L20.0489 8.06095Z" fill="#ABCF3A"/>
<path fill-rule="evenodd" clip-rule="evenodd" d="M17.6794 6.18376L19.5461 10.1908L12.6899 7.08968C14.0042 6.4701 15.4401 6.14993 16.8937 6.15236C17.1582 6.15236 17.4196 6.16321 17.6794 6.18376Z" fill="#E0E224"/>
<path fill-rule="evenodd" clip-rule="evenodd" d="M19.5464 10.1914L13.3419 17.64L10.644 14.3194L19.5464 10.1914V10.1914Z" fill="#F9A516"/>
<path fill-rule="evenodd" clip-rule="evenodd" d="M19.5464 10.1894L10.644 14.3175L12.6898 7.08984L19.5464 10.1894Z" fill="#FDCD11"/>
<path fill-rule="evenodd" clip-rule="evenodd" d="M16.1856 25.8865L16.0625 25.7757L16.1158 25.7843L16.1856 25.8865Z" fill="#CD1685"/>
<path fill-rule="evenodd" clip-rule="evenodd" d="M16.0915 25.7745L9.96788 20.4599L9.92477 20.4219L9.25049 22.1748C10.9356 24.2498 13.3959 25.5489 16.0628 25.7717L16.0915 25.7745Z" fill="#B9204A"/>
<path fill-rule="evenodd" clip-rule="evenodd" d="M10.6442 14.3203L13.3421 17.6409L13.252 17.7207L8.47803 17.6203L10.6442 14.3203V14.3203Z" fill="#F05B28"/>
<path fill-rule="evenodd" clip-rule="evenodd" d="M13.252 17.7176L10.1462 20.4978L8.47803 17.6172L13.252 17.7176Z" fill="#F05B28"/>
<path fill-rule="evenodd" clip-rule="evenodd" d="M12.6896 7.08984L10.6438 14.3179L8.47767 17.6179L8.48583 17.5485L7.06348 15.4405C7.26118 11.7431 9.50734 8.59041 12.6896 7.08984Z" fill="#FDCD11"/>
<path fill-rule="evenodd" clip-rule="evenodd" d="M10.1461 20.4978L8.47791 17.6172L9.68578 19.9198L8.47791 17.6178L8.14893 20.4976C8.45793 21.0919 8.82702 21.653 9.25045 22.1722L9.92473 20.4185L9.9677 20.4572L9.96784 20.4575L10.1461 20.4978ZM9.9677 20.4572L9.68578 19.9198L9.96784 20.4573L9.9677 20.4572Z" fill="#AB1F25"/>
<path fill-rule="evenodd" clip-rule="evenodd" d="M7.06152 15.4414L8.48582 17.5494L8.47766 17.6188L8.14868 20.4986L7.06152 15.4414Z" fill="#CB0010"/>
<path fill-rule="evenodd" clip-rule="evenodd" d="M7.06368 15.4414L8.15123 20.4986C7.42432 19.1027 7.04565 17.5523 7.04737 15.9791C7.04737 15.7988 7.05164 15.6201 7.06368 15.4414V15.4414Z" fill="#CB0010"/>
<path fill-rule="evenodd" clip-rule="evenodd" d="M22.4238 17.6387L22.872 15.7539C23.0569 15.2435 23.149 14.7042 23.1439 14.1615C23.1439 13.8013 23.0073 13.4544 22.7617 13.1905L22.6949 13.1187C22.2358 12.6249 21.4132 12.3435 20.7366 12.3435H20.5C19.8871 12.3431 19.2968 12.5742 18.8477 12.9904L18.2888 13.5103L18.1933 13.2916C18.1435 13.1765 18.0731 13.0714 17.9855 12.9815C17.5252 12.5155 16.8967 12.2534 16.2411 12.2539C15.7573 12.2538 15.2843 12.3967 14.8817 12.6644L14.3309 13.0618V13.023C14.3307 12.6472 14.0254 12.3427 13.6489 12.3427H7.67671L7.13721 14.3181L12.0828 14.408L11.3561 18.3062C11.2326 18.8369 11.5693 19.3598 12.1131 19.4253C12.5479 19.4793 12.9582 19.2123 13.0841 18.7935L14.437 14.6224C14.583 14.1359 15.241 13.8266 15.7459 13.8925C16.0452 13.9314 16.3127 14.0984 16.4787 14.35C16.6448 14.6016 16.6929 14.9129 16.6105 15.2027L15.8981 18.3012C15.8036 18.6335 15.8708 18.9908 16.0795 19.2663C16.2882 19.5419 16.6143 19.7038 16.9604 19.7036C17.4316 19.7036 17.6712 19.4055 17.8247 18.9609L19.1821 14.9337C19.3398 14.4774 19.8991 14.2057 20.3746 14.296C20.6452 14.3476 20.8813 14.5113 21.0242 14.7464C21.1671 14.9815 21.2034 15.2661 21.1242 15.5295L20.4041 18.1736C20.2942 18.5323 20.3613 18.9217 20.5849 19.2232C20.8085 19.5247 21.162 19.7025 21.5378 19.7025L26.1879 19.6129L26.7274 17.6387H22.4238Z" fill="white"/>
</svg>
