<svg width="33" height="32" viewBox="0 0 33 32" fill="none" xmlns="http://www.w3.org/2000/svg">
<path opacity="0.2" d="M16.8936 32C25.7301 32 32.8936 24.8366 32.8936 16C32.8936 7.16344 25.7301 0 16.8936 0C8.057 0 0.893555 7.16344 0.893555 16C0.893555 24.8366 8.057 32 16.8936 32Z" fill="#BB1B21"/>
<path fill-rule="evenodd" clip-rule="evenodd" d="M15.5376 5.64368C15.9945 5.43876 16.3906 5.09316 16.8666 4.94141C16.9937 5.67027 16.9127 6.41242 16.9341 7.14682C16.9251 8.24455 16.9667 9.34338 16.9071 10.4389C16.1115 10.8532 15.3497 11.3295 14.5721 11.7759C13.7315 12.2489 12.8696 12.6875 12.0684 13.2247C12.1494 13.2934 12.2338 13.3599 12.3205 13.4219C12.2597 13.4385 12.137 13.4717 12.0763 13.4884C11.9491 13.8295 12.047 14.2139 12.0178 14.5706C11.9806 15.9674 12.0605 17.3675 11.9705 18.7632C10.8407 19.3204 9.77283 19.9938 8.66894 20.6009C8.15131 20.9254 7.59205 21.1835 7.08568 21.5269L7.08455 21.528C7.09693 17.8338 7.06655 14.1319 7.10143 10.4422C9.91012 8.83827 12.7301 7.25094 15.5376 5.64368Z" fill="#D11D23"/>
<path fill-rule="evenodd" clip-rule="evenodd" d="M21.6345 13.1641C21.7132 13.2715 21.6603 13.4377 21.6817 13.565C21.6727 15.2919 21.6615 17.0199 21.6964 18.7479C20.5182 19.5543 19.2219 20.1769 17.992 20.9035C17.6015 21.1095 17.247 21.3898 16.8284 21.5382C16.7789 21.5194 16.6799 21.4806 16.6304 21.4607C16.7733 21.4319 16.8363 21.3488 16.8205 21.2092C16.8521 19.4757 16.8374 17.741 16.8408 16.0064C17.4507 15.6364 18.082 15.303 18.7054 14.9574C19.555 14.4612 20.3933 13.9483 21.2631 13.4886C21.4128 13.4133 21.5287 13.2903 21.6345 13.1641Z" fill="#D11D23"/>
<path fill-rule="evenodd" clip-rule="evenodd" d="M16.8667 4.94141C17.3449 5.11864 17.7365 5.47088 18.2103 5.6603C21.0043 7.27753 23.822 8.85378 26.6228 10.4511C26.6701 10.9551 26.642 11.4701 26.6386 11.9764C26.5789 12.1669 26.5666 12.3674 26.5711 12.5657C26.5666 15.4135 26.5868 18.2614 26.5823 21.1082C26.5711 21.1946 26.5486 21.3674 26.5373 21.4527C24.9068 20.5831 23.3325 19.6084 21.6964 18.7477C21.6615 17.0197 21.6727 15.2917 21.6817 13.5648C21.6604 13.4374 21.7133 13.2713 21.6345 13.1638C20.8412 12.7783 20.1131 12.2777 19.3243 11.8844C18.5344 11.3771 17.6701 10.9872 16.9072 10.4389C16.9668 9.34338 16.9252 8.24454 16.9342 7.14682C16.9128 6.41242 16.9939 5.67027 16.8667 4.94141Z" fill="#BB1B21"/>
<path fill-rule="evenodd" clip-rule="evenodd" d="M12.0765 13.4883C12.1372 13.4717 12.2599 13.4385 12.3207 13.4219C13.2884 13.9502 14.2314 14.5196 15.1856 15.069C15.7629 15.3371 16.2895 15.6938 16.8409 16.0061C16.8375 17.7408 16.8521 19.4754 16.8206 21.209C16.8364 21.3485 16.7734 21.4316 16.6305 21.4604C15.0945 20.5322 13.4988 19.7036 11.9707 18.7632C12.0607 17.3675 11.9808 15.9674 12.018 14.5706C12.0472 14.2139 11.9493 13.8295 12.0765 13.4883Z" fill="#BB1B21"/>
<path fill-rule="evenodd" clip-rule="evenodd" d="M14.5721 11.7745C15.3497 11.3281 16.1115 10.8518 16.907 10.4375C17.67 10.9858 18.5342 11.3757 19.3241 11.883C20.1129 12.2763 20.841 12.7769 21.6343 13.1624C21.5285 13.2887 21.4126 13.4117 21.263 13.487C20.3931 13.9467 19.5548 14.4595 18.7052 14.9558C18.0818 15.3014 17.4505 15.6348 16.8406 16.0048C16.2893 15.6924 15.7626 15.3357 15.1854 15.0677C14.2311 14.5182 13.2882 13.9489 12.3204 13.4205C12.2338 13.3585 12.1494 13.292 12.0684 13.2233C12.8696 12.6861 13.7315 12.2475 14.5721 11.7745Z" fill="#ED4340"/>
<path fill-rule="evenodd" clip-rule="evenodd" d="M26.5707 12.5659C26.5662 12.3676 26.5786 12.1671 26.6382 11.9766C26.6405 15.1302 26.645 18.2849 26.6438 21.4407C26.591 21.5747 26.4559 21.6179 26.3434 21.6888C23.2253 23.4899 20.0812 25.239 16.9609 27.039C16.4331 27.0068 16.037 26.525 15.5363 26.3588C12.7355 24.7239 9.87951 23.1665 7.08545 21.5271C7.59182 21.1837 8.15108 20.9256 8.66871 20.6011C9.77261 19.994 10.8405 19.3206 11.9703 18.7634C13.4984 19.7038 15.094 20.5324 16.63 21.4606C16.6795 21.4806 16.7786 21.5193 16.8281 21.5382C17.2467 21.3897 17.6011 21.1095 17.9916 20.9035C19.2215 20.1768 20.5179 19.5543 21.696 18.7479C23.3322 19.6086 24.9064 20.5833 26.5369 21.4529C26.5482 21.3676 26.5707 21.1948 26.582 21.1084C26.5865 18.2616 26.5662 15.4137 26.5707 12.5659Z" fill="#ED4340"/>
</svg>
