
<svg width="38" height="10" viewBox="0 0 38 10" fill="none" xmlns="http://www.w3.org/2000/svg">
    <path d="M37.3851 6.41978C37.3571 6.16857 37.3291 5.91737 37.3011 5.91737C37.3011 5.91737 37.3291 5.91737 37.3291 5.66616C37.3291 5.66616 37.3291 5.66616 37.3291 5.41496C37.3291 5.41496 37.3291 5.16375 37.3011 5.16375C37.2731 5.16375 37.2731 5.16375 37.2731 4.91255C36.993 4.66134 36.7129 4.15893 36.4048 3.90773C36.0966 3.65652 35.7605 3.40531 35.4244 3.15411C35.0882 2.9029 34.7521 2.6517 34.444 2.6517L33.5476 2.14929C33.4355 2.14929 33.3515 1.89808 33.2675 1.89808C33.1834 1.89808 33.0994 1.89808 33.0434 2.14929C32.9033 1.89808 32.7353 1.64688 32.5672 1.64688C32.3711 1.64688 32.175 1.64688 31.979 1.64688C31.7269 1.39567 31.5028 1.14447 31.2507 1.14447C30.9986 1.14447 30.7184 1.14447 30.4663 0.893264C30.4383 0.893264 30.4383 0.893264 30.4103 1.14447C30.3823 1.14447 30.3543 1.14447 30.3543 1.14447L30.3823 0.893264C30.2142 0.893264 30.0462 0.642059 29.8781 0.642059C29.738 0.390854 29.57 0.642059 29.4299 0.893264C29.4019 0.642059 29.4019 0.642059 29.3739 0.642059C29.3459 0.642059 29.3179 0.642059 29.2899 0.390854C29.2338 0.390854 29.1498 0.390854 29.0938 0.390854C29.0097 0.390854 28.9537 0.390854 28.8697 0.390854C28.8137 0.390854 28.7296 0.390854 28.6736 0.139648C28.5896 0.139648 28.5336 0.139648 28.5336 0.642059C28.7296 0.390854 28.8977 0.390854 29.0938 0.390854C29.2899 0.642059 29.4579 0.642059 29.654 0.642059C29.682 0.642059 29.682 0.642059 29.682 0.893264C29.682 0.893264 29.682 1.14447 29.71 1.14447C29.738 1.14447 29.738 0.893264 29.738 0.893264C29.738 0.893264 29.738 0.893264 29.7661 0.893264C29.8781 1.14447 29.9901 1.14447 30.1022 0.893264C30.2142 0.642059 30.2983 0.893264 30.3823 1.14447C30.5224 1.14447 30.6624 1.14447 30.8025 1.14447C30.9425 1.14447 31.0826 1.14447 31.2226 1.14447C31.2507 1.14447 31.2787 1.14447 31.2787 1.14447C31.3067 1.14447 31.3347 1.39567 31.3347 1.39567C31.3627 1.39567 31.3907 1.39567 31.3907 1.39567C31.4187 1.39567 31.4467 1.39567 31.5028 1.39567C31.5308 1.39567 31.5868 1.39567 31.6148 1.64688C31.6708 1.64688 31.6988 1.64688 31.7549 1.64688C31.7829 1.64688 31.8109 1.39567 31.8389 1.39567C31.8669 1.39567 31.8949 1.39567 31.9229 1.14447C31.9509 1.14447 31.979 1.14447 32.007 1.39567C32.035 1.39567 32.063 1.64688 32.091 1.64688C32.147 1.64688 32.2311 1.64688 32.2871 1.64688C32.3711 1.64688 32.4551 1.64688 32.5112 1.64688C32.5672 1.64688 32.6232 1.64688 32.7072 1.64688C32.7633 1.64688 32.8193 1.64688 32.8473 1.64688C32.8753 1.64688 32.8753 1.64688 32.8753 1.89808C32.8753 2.14929 32.8753 2.14929 32.9033 1.89808C32.9874 1.64688 33.0714 1.64688 33.1834 1.89808C33.2955 2.14929 33.3795 2.14929 33.4916 2.40049L33.5476 2.14929C33.7437 2.40049 33.9397 2.6517 34.1358 2.6517C34.3319 2.6517 34.556 2.9029 34.7521 3.15411C34.9201 3.15411 35.1162 3.15411 35.3403 3.15411C35.5364 3.15411 35.7325 3.40531 35.9286 3.90773C36.0126 3.65652 36.1246 3.65652 36.2087 3.90773C36.2927 4.15893 36.3487 4.15893 36.4328 4.41014C36.2927 4.41014 36.1526 4.41014 36.0126 4.41014C35.8725 4.41014 35.7605 4.15893 35.6204 3.90773C35.4524 3.90773 35.2843 3.90773 35.1162 3.65652C34.9482 3.40531 34.7801 3.40531 34.612 3.40531C34.584 3.15411 34.584 3.15411 34.556 3.15411C34.528 3.15411 34.528 3.15411 34.528 2.9029C34.5 2.9029 34.472 2.9029 34.472 2.9029C34.472 3.15411 34.444 3.15411 34.444 3.15411C34.3879 2.9029 34.3039 2.6517 34.2479 2.9029C34.1638 2.9029 34.1078 2.9029 34.0518 2.9029C33.9117 2.9029 33.7437 2.9029 33.6036 2.6517C33.4636 2.40049 33.2955 2.40049 33.1554 2.40049C32.7913 2.40049 32.3991 2.14929 32.007 2.14929C31.6148 2.14929 31.2226 1.89808 30.8025 1.89808C30.7184 1.89808 30.6344 1.64688 30.5784 1.64688C30.4944 1.64688 30.4103 1.64688 30.3543 1.89808C30.1582 1.64688 29.9341 1.64688 29.738 1.64688C29.542 1.64688 29.3459 1.64688 29.1498 1.39567C28.9537 1.39567 28.7857 1.39567 28.5896 1.39567C28.3935 1.39567 28.2254 1.39567 28.0293 1.14447C27.8053 1.14447 27.5812 1.14447 27.3851 1.14447C27.189 1.14447 26.9649 1.14447 26.7688 1.14447C26.5728 1.14447 26.3767 0.893264 26.1526 1.14447C25.9285 1.14447 25.7044 1.14447 25.5083 1.14447C25.2562 1.14447 25.0321 1.14447 24.78 0.893264C24.5559 0.893264 24.3038 0.893264 24.0517 1.14447C23.9957 1.14447 23.9117 1.14447 23.8276 1.14447C23.7436 1.14447 23.6596 1.14447 23.5755 1.14447C23.5195 1.14447 23.4635 1.14447 23.4075 1.14447C23.3514 1.14447 23.3234 1.14447 23.2674 1.14447C23.0433 1.14447 22.7912 0.893264 22.5391 0.893264C22.287 0.893264 22.0069 0.893264 21.7268 1.14447L20.9145 1.39567C20.6343 1.39567 20.3822 1.64688 20.1301 1.64688C19.794 1.64688 19.4579 1.64688 19.1497 1.64688C18.8136 1.64688 18.5055 1.64688 18.1693 1.89808C17.7492 1.89808 17.301 1.89808 16.8528 2.14929C16.4046 2.40049 15.9564 2.40049 15.5083 2.40049C15.5363 2.14929 15.5643 2.14929 15.5643 2.14929C15.5923 2.14929 15.6203 2.14929 15.6203 1.89808C15.6763 2.14929 15.7324 2.40049 15.8164 2.14929C15.9004 1.89808 15.9845 1.89808 16.0405 2.14929C16.0405 2.14929 16.0405 1.89808 16.0125 1.89808C16.0125 1.89808 16.0125 1.89808 16.0405 1.64688C16.0965 1.64688 16.1805 1.64688 16.2366 1.64688C16.3206 1.64688 16.3766 1.64688 16.4887 1.64688C16.4887 1.39567 16.5167 1.39567 16.5447 1.39567C16.5727 1.39567 16.6007 1.39567 16.6287 1.39567C16.6567 1.39567 16.6847 1.39567 16.7127 1.39567C16.7408 1.39567 16.7408 1.14447 16.7408 1.14447C16.4887 1.14447 16.2085 1.39567 15.9004 1.39567C15.5923 1.39567 15.2842 1.64688 14.976 1.89808C14.948 1.89808 14.948 1.89808 14.948 1.64688C14.948 1.64688 14.92 1.64688 14.892 1.64688C14.6679 1.89808 14.4438 1.89808 14.2197 1.89808C13.9956 1.89808 13.7716 1.89808 13.5755 2.14929C13.4634 1.89808 13.3234 1.89808 13.2113 2.14929C13.0713 2.40049 12.9592 2.40049 12.8192 2.14929C12.7912 2.14929 12.7912 2.40049 12.7912 2.40049C12.7912 2.40049 12.7912 2.6517 12.7631 2.6517C12.6791 2.40049 12.5951 2.14929 12.511 2.40049C12.427 2.6517 12.315 2.6517 12.2309 2.40049C11.1105 2.9029 9.90598 3.15411 8.70149 3.40531C7.46899 3.65652 6.29252 3.65652 5.14405 3.65652C4.44376 3.65652 3.77149 3.90773 3.09922 4.15893C2.45496 4.66134 1.78268 4.66134 1.0824 4.66134C1.02638 4.41014 0.942342 4.15893 0.858307 4.15893C0.774273 4.41014 0.71825 4.91255 0.690239 5.66616C0.662228 6.16857 0.634216 6.92219 0.634216 7.4246C0.690239 8.17821 0.774273 8.68062 0.858307 8.68062C0.970353 8.93183 1.05439 9.18303 1.16643 9.18303H1.69865C1.89473 9.18303 2.09081 9.18303 2.3149 9.18303C2.39893 8.93183 2.48297 8.68062 2.567 8.68062C2.65104 8.68062 2.73507 8.68062 2.84712 8.68062C2.93115 8.68062 3.0432 8.68062 3.12723 8.68062C3.21126 8.68062 3.32331 8.42942 3.40734 8.42942C3.51939 8.68062 3.63143 8.68062 3.71547 8.68062C3.82751 8.68062 3.93956 8.42942 4.0516 8.42942C4.16365 8.42942 4.2757 8.17821 4.38774 8.17821C4.49979 8.17821 4.63984 8.17821 4.75189 8.17821C4.80791 8.17821 4.86393 7.92701 4.94797 7.92701C5.34013 7.92701 5.70428 7.92701 6.09644 7.6758C6.4886 7.4246 6.85274 7.4246 7.2449 7.6758C7.46899 7.4246 7.69308 7.4246 7.91718 7.4246C8.16928 7.4246 8.39337 7.4246 8.64547 7.6758C8.67348 7.4246 8.70149 7.17339 8.78553 7.4246C8.86956 7.4246 8.92558 7.4246 9.00962 7.4246C9.00962 7.4246 9.00962 7.17339 8.98161 7.17339C8.9536 7.17339 8.98161 6.92219 9.00962 6.92219C9.03763 6.92219 9.06564 6.92219 9.03763 7.17339C9.03763 7.4246 9.03763 7.4246 9.09365 7.4246C9.09365 7.4246 9.09365 7.17339 9.06564 7.17339C9.03763 7.17339 9.03763 7.17339 9.09365 6.92219C9.14968 7.4246 9.23371 7.4246 9.28973 7.17339C9.37377 6.92219 9.4578 6.92219 9.51382 7.17339C9.51382 6.92219 9.51382 6.67098 9.56985 6.67098C9.59786 6.67098 9.62587 6.92219 9.62587 6.67098C9.65388 6.67098 9.68189 6.67098 9.73792 6.67098C9.73792 6.67098 9.73792 6.92219 9.7099 6.92219C9.68189 6.92219 9.68189 6.92219 9.68189 7.17339C9.73792 7.17339 9.76593 7.17339 9.76593 7.17339C9.76593 7.17339 9.76593 6.92219 9.79394 6.67098C9.82195 6.67098 9.82195 6.67098 9.82195 6.92219C9.79394 6.92219 9.82195 7.17339 9.82195 7.17339C9.96201 7.17339 10.1021 6.92219 10.2141 6.92219C10.3262 6.92219 10.4382 6.92219 10.5502 7.17339C10.5783 6.67098 10.6343 6.67098 10.6903 6.92219C10.6903 6.67098 10.7183 6.41978 10.7463 6.41978C10.8023 6.41978 10.8023 6.16857 10.7743 5.91737C10.8304 5.91737 10.8304 6.16857 10.8023 6.16857C10.7743 6.41978 10.7743 6.41978 10.8023 6.67098H10.6903C10.6903 6.92219 10.7183 7.17339 10.7743 6.92219C10.8304 6.67098 10.8304 6.67098 10.8304 6.67098C10.8584 6.92219 10.8864 6.92219 10.9144 6.67098C10.9424 6.41978 10.9704 6.41978 10.9984 6.67098C10.9704 6.67098 10.9704 6.92219 10.9704 6.92219C10.9704 7.17339 10.9984 7.17339 10.9984 7.17339C10.9984 6.67098 11.0545 6.16857 11.1105 6.16857C11.1385 6.41978 11.1385 6.41978 11.1105 6.41978C11.0825 6.41978 11.0825 6.67098 11.1105 6.67098C11.1665 6.41978 11.2505 6.41978 11.3066 6.67098C11.3066 6.67098 11.3066 6.41978 11.2785 6.41978C11.2505 6.41978 11.2785 6.16857 11.3066 6.16857C11.3346 6.16857 11.3626 6.16857 11.3346 6.41978C11.3346 6.67098 11.3346 6.67098 11.3626 6.67098C11.3906 6.67098 11.4466 6.41978 11.4746 6.16857C11.5026 6.16857 11.5026 6.16857 11.5026 6.41978C11.5026 6.67098 11.5026 6.67098 11.5306 6.67098C11.5867 6.41978 11.6427 6.41978 11.6987 6.41978C11.7547 6.41978 11.7827 6.41978 11.8108 6.67098C11.8388 6.41978 11.8948 6.41978 11.9228 6.41978C11.9788 6.41978 12.0348 6.41978 12.0909 6.41978C12.1469 6.41978 12.2029 6.41978 12.2589 6.41978C12.315 6.41978 12.343 6.16857 12.399 5.91737V6.16857C12.399 6.16857 12.399 6.16857 12.399 6.41978C12.483 6.41978 12.5391 6.41978 12.6231 6.41978C12.7071 6.16857 12.7631 6.41978 12.7351 6.67098C12.7631 6.67098 12.7912 6.41978 12.8192 6.16857C12.8472 5.91737 12.8752 5.91737 12.9312 5.66616C12.9592 5.66616 12.9592 5.91737 12.9592 6.16857C12.9872 6.16857 13.0433 6.16857 13.0713 6.16857C13.0993 6.16857 13.1273 6.16857 13.1273 6.41978C13.1273 6.41978 13.1553 6.16857 13.1553 5.91737C13.1553 5.66616 13.1553 5.66616 13.1833 5.41496C13.2113 5.41496 13.2393 5.66616 13.2113 5.66616C13.2113 5.66616 13.2113 5.91737 13.2393 5.91737C13.3234 5.66616 13.4074 5.41496 13.4914 5.66616C13.5755 5.91737 13.6595 5.66616 13.7155 5.41496V5.66616C13.7716 5.66616 13.7996 5.66616 13.8276 5.66616C13.8556 5.66616 13.8836 5.66616 13.9116 5.41496C13.9396 5.66616 13.9956 5.91737 14.0237 5.91737C14.0517 5.91737 14.0517 5.66616 14.0517 5.66616C14.0517 5.41496 14.0517 5.41496 14.1077 5.66616C14.0797 5.66616 14.0797 5.91737 14.0797 5.91737C14.1077 5.91737 14.1357 5.91737 14.1637 5.91737C14.1917 5.91737 14.2197 5.91737 14.2477 5.91737V5.66616H14.1917C14.1637 5.66616 14.1637 5.66616 14.1637 5.66616C14.1637 5.66616 14.1637 5.66616 14.1637 5.41496C14.2197 5.41496 14.2758 5.41496 14.3598 5.41496C14.3878 5.41496 14.3878 5.66616 14.3878 5.66616C14.3598 5.66616 14.3878 5.91737 14.4438 5.91737H14.4718L14.4999 5.66616C14.5559 5.66616 14.5559 5.66616 14.5559 5.91737C14.5559 6.16857 14.5559 6.16857 14.5839 6.16857C14.6119 6.16857 14.6119 5.91737 14.6119 5.91737C14.6119 5.91737 14.6119 5.66616 14.6399 5.66616H14.752C14.752 5.91737 14.752 5.91737 14.78 6.16857V5.91737C14.78 5.91737 14.78 5.66616 14.808 5.66616C14.864 5.66616 14.92 5.66616 14.976 5.66616C15.0321 5.41496 15.0881 5.66616 15.1161 5.91737C15.1441 5.91737 15.1721 5.66616 15.2001 5.41496C15.2281 5.16375 15.2562 5.16375 15.3122 5.16375C15.3122 5.16375 15.3402 5.16375 15.3402 5.41496C15.3682 5.41496 15.3962 5.41496 15.4242 5.16375C15.4522 4.91255 15.4802 4.91255 15.5083 4.91255C15.5083 5.16375 15.5083 5.16375 15.5363 5.16375C15.5643 5.16375 15.5643 5.41496 15.5363 5.41496C15.6203 4.91255 15.7043 4.91255 15.7884 4.91255C15.8724 4.91255 15.9845 4.91255 16.0685 5.41496C16.0685 5.41496 16.0685 5.16375 16.0405 5.16375C16.0125 5.16375 16.0125 5.16375 16.0685 4.91255C16.0965 5.16375 16.1245 5.16375 16.1805 4.91255C16.2085 4.91255 16.2646 4.91255 16.2926 4.91255C16.2366 5.16375 16.1805 5.16375 16.1245 5.16375C16.1805 5.41496 16.2646 5.66616 16.3206 5.41496C16.3766 5.16375 16.4606 5.41496 16.5167 5.66616C16.5727 5.41496 16.6287 5.16375 16.6847 5.41496C16.7408 5.66616 16.8248 5.66616 16.8808 5.41496V4.91255C16.8248 4.91255 16.7688 4.91255 16.6847 4.91255C16.6567 5.16375 16.6007 4.91255 16.5727 4.66134C16.6847 4.66134 16.7968 4.41014 16.8808 4.66134C16.9649 4.66134 17.0489 4.66134 17.1609 4.41014C17.1609 4.66134 17.1609 4.66134 17.1329 4.66134C17.1049 4.66134 17.0769 4.66134 17.0489 4.66134C17.0209 4.66134 16.9929 4.66134 16.9649 4.66134C16.9368 4.66134 16.9368 4.91255 16.9649 4.91255C17.0209 4.66134 17.0769 4.66134 17.1049 4.66134C17.1609 4.91255 17.217 4.91255 17.301 4.66134C17.301 4.41014 17.301 4.15893 17.329 4.15893C17.357 4.41014 17.385 4.41014 17.385 4.15893C17.413 4.15893 17.441 4.15893 17.441 4.15893C17.4691 4.41014 17.4691 4.41014 17.413 4.41014C17.357 4.41014 17.357 4.41014 17.357 4.41014C17.357 4.66134 17.413 4.66134 17.4691 4.41014C17.4971 4.41014 17.4971 4.15893 17.4971 4.15893L17.4691 3.90773C17.4971 4.15893 17.5531 3.90773 17.5811 3.90773C17.6091 3.65652 17.6371 3.65652 17.6651 3.90773C17.6371 3.90773 17.6371 4.15893 17.6371 4.15893C17.6371 4.15893 17.6651 4.15893 17.6651 4.41014C17.5811 4.41014 17.5531 4.41014 17.5531 4.91255C17.5811 4.66134 17.6371 4.66134 17.6651 4.66134C17.6931 4.66134 17.7492 4.66134 17.8052 4.41014C17.8052 3.90772 17.8332 3.90773 17.8892 3.90773C17.9452 3.90773 18.0013 3.90773 18.0573 3.90773V4.15893C18.0573 4.15893 18.0573 4.15893 18.0573 4.41014H18.2534C18.2534 4.15893 18.2254 4.15893 18.1693 4.15893C18.1133 4.15893 18.1133 4.15893 18.1133 3.90773C18.2254 3.90773 18.3374 3.90773 18.4495 3.90773C18.5615 3.90773 18.6735 3.90773 18.7576 3.40531C18.8416 3.90773 18.9256 4.15893 19.0097 4.15893C19.1217 4.15893 19.2058 4.15893 19.3178 3.90773C19.2618 3.90773 19.2058 3.90773 19.1217 3.90773C19.0657 3.90773 19.0097 3.90773 18.9256 3.90773C19.0377 3.65652 19.1497 3.65652 19.2618 3.65652C19.3738 3.65652 19.4579 3.65652 19.5699 3.40531C19.5419 3.65652 19.5699 3.65652 19.5979 3.65652C19.6259 3.65652 19.6259 3.65652 19.5979 3.65652C19.6259 3.65652 19.6539 3.90773 19.682 3.90773C19.71 3.90773 19.766 3.90773 19.794 4.15893C19.794 3.65652 19.822 3.40531 19.85 3.40531C19.878 3.40531 19.9341 3.40531 19.9621 3.65652C19.9901 3.90773 20.0181 3.90773 20.0741 3.90773C20.1021 3.90773 20.1021 3.65652 20.0461 3.65652C19.9901 3.65652 19.9901 3.40531 20.0181 3.40531C20.0461 3.40531 20.1021 3.40531 20.1301 3.40531C20.1581 3.15411 20.2142 3.40531 20.2422 3.65652C20.2142 3.65652 20.2142 3.65652 20.2142 3.65652H20.1862C20.1581 3.90773 20.1581 4.15893 20.1301 4.15893C20.2422 3.90773 20.3262 3.90773 20.4383 3.90773C20.5223 4.15893 20.6063 3.90773 20.6904 3.65652H20.5783C20.5503 3.65652 20.5223 3.65652 20.4943 3.40531C20.6343 3.40531 20.7744 3.40531 20.9145 3.40531C20.8584 3.40531 20.8304 3.65652 20.8304 3.65652C20.8584 3.65652 20.8864 3.65652 20.8864 3.90773C20.9705 3.90773 21.0545 3.65652 21.1385 3.65652C21.1946 3.65652 21.2786 3.40531 21.3066 3.15411C21.3346 3.40531 21.3906 3.40531 21.4187 3.40531C21.4747 3.40531 21.5307 3.40531 21.5867 3.40531C21.6147 3.40531 21.6147 3.65652 21.5867 3.65652C21.5587 3.65652 21.5867 3.90773 21.6147 3.90773C21.6147 3.65652 21.6147 3.40531 21.6428 3.65652C21.6708 3.65652 21.6708 3.90773 21.6708 3.90773C21.6988 3.90773 21.6988 3.65652 21.6708 3.65652C21.6428 3.65652 21.6708 3.40531 21.6708 3.40531C21.6988 3.40531 21.7268 3.40531 21.7548 3.65652C21.7548 3.90773 21.8108 3.90773 21.8668 3.90773C21.8668 3.65652 21.8668 3.40531 21.8949 3.40531C21.8949 3.65652 21.8949 3.65652 21.9229 3.65652C21.9509 3.65652 21.9509 3.90773 21.9509 4.15893C22.0069 4.15893 22.0629 3.90773 22.1189 4.15893C22.175 4.15893 22.203 4.15893 22.259 3.90773C22.315 4.15893 22.343 4.15893 22.3991 4.15893C22.4551 4.15893 22.5111 3.90773 22.5391 3.90773C22.5951 3.65652 22.6512 3.65652 22.6792 3.40531C22.7352 3.15411 22.7632 3.15411 22.8192 2.9029V3.15411C22.8192 3.15411 22.8192 3.15411 22.8192 3.40531C22.8472 3.40531 22.8472 3.40531 22.8753 3.40531C22.9033 3.40531 22.9313 3.40531 22.9313 3.40531L22.9033 3.65652C22.9313 3.65652 22.9593 3.65652 22.9873 3.65652C23.0153 3.65652 23.0433 3.65652 23.0713 3.65652C23.0713 3.90773 23.0713 3.90773 23.0433 3.90773C23.0153 3.90773 22.9873 3.90773 22.9873 3.90773C22.9593 3.90773 22.9593 3.90773 22.9313 3.90773C22.9313 3.90773 22.9033 3.90773 22.9033 4.15893C22.9313 4.15893 22.9873 4.15893 23.0153 4.15893C23.0713 4.15893 23.0993 4.15893 23.1274 3.90773C23.0993 3.90773 23.0993 3.90773 23.0993 3.65652L23.0713 3.40531C23.0713 3.15411 23.0993 3.15411 23.1274 3.15411C23.1274 3.15411 23.1554 3.15411 23.1554 3.40531C23.1554 3.40531 23.1554 3.40531 23.1834 3.40531C23.2394 3.15411 23.2954 3.15411 23.3514 2.9029C23.4075 2.9029 23.4635 2.6517 23.5195 2.6517C23.5475 2.6517 23.6035 2.9029 23.6316 2.9029C23.6596 3.15411 23.7156 3.15411 23.7436 3.15411C23.7436 2.9029 23.7436 2.6517 23.7716 2.6517C23.7436 2.6517 23.7156 2.6517 23.7156 2.6517C23.6876 2.6517 23.6876 2.6517 23.6876 2.40049C23.7156 2.40049 23.7716 2.40049 23.7996 2.40049C23.8276 2.40049 23.8557 2.40049 23.8837 2.40049C23.8276 2.6517 23.7996 2.9029 23.8276 3.40531C23.8837 3.40531 23.8837 3.40531 23.8557 3.15411C23.8276 2.9029 23.8276 2.9029 23.8557 2.9029C23.8837 3.15411 23.9117 3.15411 23.9397 3.15411C23.9677 3.15411 24.0237 3.15411 24.0517 3.40531C24.0797 3.65652 24.1358 3.65652 24.1638 3.65652H24.3318C24.3038 3.40531 24.3318 3.40531 24.3879 3.15411C24.4159 2.9029 24.4719 2.9029 24.4999 2.9029C24.5279 3.15411 24.5279 3.15411 24.4999 3.15411C24.4719 3.15411 24.4719 3.15411 24.4719 3.40531C24.5279 3.40531 24.5279 3.40531 24.5279 3.65652C24.5559 3.90773 24.612 3.65652 24.64 3.65652C24.668 3.40531 24.696 3.40531 24.724 3.15411C24.752 3.40531 24.78 3.40531 24.808 3.40531C24.836 3.40531 24.8641 3.15411 24.8641 3.15411C24.9201 3.65652 24.9761 3.90773 25.0601 3.65652C25.1442 3.40531 25.2002 3.40531 25.2562 3.15411C25.2842 3.40531 25.3403 3.40531 25.3963 3.40531C25.4523 3.40531 25.5083 3.40531 25.5363 3.65652C25.5643 3.65652 25.5643 3.40531 25.5924 3.15411C25.5924 2.9029 25.6484 2.9029 25.7044 2.9029V3.15411V3.40531H25.7324C25.7324 3.40531 25.7324 3.40531 25.7044 3.65652V3.40531H25.6764C25.6764 3.40531 25.6764 3.40531 25.6484 3.40531C25.6484 3.65652 25.6484 3.65652 25.6484 3.65652L25.6204 3.90773C25.6484 3.90773 25.6484 3.90773 25.6484 3.90773C25.6764 3.90773 25.7044 3.90773 25.7324 3.90773C25.7324 3.65652 25.7324 3.40531 25.7604 3.40531C25.7884 3.65652 25.8164 3.65652 25.8445 3.90773C25.8725 3.90773 25.9005 3.90773 25.9285 3.90773C25.9565 3.90773 25.9845 3.90773 26.0125 3.65652C26.0405 3.65652 26.0686 3.65652 26.0966 3.65652C26.1246 3.65652 26.1246 3.40531 26.1246 3.40531C26.1246 3.40531 26.1246 3.15411 26.1526 3.15411C26.1806 3.15411 26.1806 3.40531 26.1806 3.40531C26.1526 3.65652 26.1806 3.65652 26.2366 3.65652C26.2366 3.40531 26.2366 3.40531 26.2646 3.40531C26.2926 3.40531 26.2926 3.40531 26.3207 3.15411C26.3487 3.15411 26.3487 3.40531 26.3767 3.40531H26.4607C26.4607 3.65652 26.4607 3.65652 26.4887 3.65652C26.5167 3.40531 26.5728 3.40531 26.6288 3.65652C26.7128 3.90773 26.7688 3.65652 26.7688 3.40531C26.7128 3.40531 26.7128 3.40531 26.7128 3.15411C26.7408 2.9029 26.7408 2.9029 26.7688 2.6517C26.7968 2.40049 26.8249 2.40049 26.8529 2.6517C26.8249 2.9029 26.8249 2.9029 26.7968 2.9029C26.7688 2.9029 26.7688 2.9029 26.7688 3.15411C26.8529 3.15411 26.9369 3.15411 26.9929 3.40531C27.0489 3.65652 27.133 3.40531 27.189 3.15411C27.189 2.9029 27.217 2.9029 27.245 2.9029C27.273 2.9029 27.3011 2.9029 27.3291 2.9029V3.15411H27.3851C27.3571 3.15411 27.3291 3.15411 27.3291 3.15411C27.3291 2.9029 27.3571 2.6517 27.4131 2.6517C27.4131 2.9029 27.4131 3.15411 27.4131 3.15411C27.4411 3.40531 27.4131 3.65652 27.3851 3.90773C27.4131 3.90773 27.4411 3.65652 27.4971 3.40531C27.5251 3.15411 27.5812 3.15411 27.6092 3.15411C27.6372 3.40531 27.6652 3.65652 27.7212 3.40531C27.7772 3.40531 27.8333 3.40531 27.8613 3.65652C27.8893 3.40531 27.9173 3.15411 27.9173 3.40531C27.9453 3.65652 27.9453 3.65652 27.9453 3.65652C27.9173 3.65652 27.9173 3.65652 27.9173 3.90773C27.9733 3.90773 27.9733 3.90773 27.9733 3.90773C27.9733 3.65652 28.0013 3.65652 28.0293 3.90773V4.15893C28.0574 4.15893 28.0574 4.15893 28.0574 4.15893C28.0574 3.90773 28.0574 3.90773 28.0293 3.90773C28.0574 3.90773 28.0854 3.65652 28.0854 3.40531C28.0854 3.15411 28.1134 3.15411 28.1414 3.40531C28.1414 3.15411 28.1414 3.15411 28.1414 3.15411C28.1134 3.15411 28.1134 2.9029 28.1134 2.9029C28.1414 2.9029 28.1694 3.15411 28.1974 3.15411C28.2254 3.15411 28.2534 3.15411 28.2814 3.40531C28.2534 3.40531 28.2534 3.65652 28.2254 3.65652C28.1974 3.65652 28.1974 3.65652 28.1974 3.90773C28.1974 4.15893 28.2254 4.41014 28.2534 4.41014C28.2534 4.15893 28.2815 3.90773 28.3375 3.90773C28.3935 3.90773 28.4215 3.65652 28.4495 3.65652C28.4495 3.65652 28.4495 3.90773 28.4215 3.90773C28.4215 3.90773 28.3935 3.90773 28.3935 4.15893C28.4215 4.15893 28.4495 4.15893 28.4495 3.90773C28.4495 3.90773 28.4775 3.90773 28.4775 4.15893C28.5055 4.15893 28.5055 3.90773 28.4775 3.90773C28.4495 3.90773 28.4775 3.65652 28.5055 3.65652V3.90773C28.5055 3.90773 28.5055 3.90773 28.5336 3.90773C28.5336 3.90773 28.5336 4.15893 28.5055 4.15893C28.4775 4.15893 28.4775 4.41014 28.4775 4.41014C28.5055 4.41014 28.5336 4.41014 28.5336 4.41014C28.5616 4.41014 28.5616 4.41014 28.5896 4.41014C28.5896 4.15893 28.5896 4.15893 28.6176 4.15893C28.6456 4.15893 28.6456 4.15893 28.6456 4.41014C28.6456 4.41014 28.6456 4.66134 28.6736 4.66134C28.6736 4.41014 28.6736 4.41014 28.7016 4.41014C28.7296 4.66134 28.7576 4.66134 28.7857 4.66134C28.8137 4.41014 28.8697 4.41014 28.9257 4.15893C28.9537 4.41014 28.9817 4.41014 29.0658 4.41014C29.1218 4.41014 29.1498 4.41014 29.2058 4.41014C29.2058 4.41014 29.1778 4.66134 29.1498 4.66134C29.1218 4.66134 29.1218 4.66134 29.1218 4.91255C29.1498 4.66134 29.2058 4.66134 29.2338 4.66134C29.2618 4.91255 29.3179 4.91255 29.3459 4.66134C29.3739 4.41014 29.3459 4.15893 29.3179 4.41014C29.2618 4.41014 29.2618 4.41014 29.2899 4.15893C29.3739 4.15893 29.4299 4.15893 29.4019 4.15893C29.4019 4.41014 29.4299 4.41014 29.4859 4.66134C29.542 4.66134 29.542 4.41014 29.4859 4.41014C29.4579 4.41014 29.4579 4.15893 29.4859 4.15893C29.57 4.15893 29.626 4.15893 29.682 4.15893C29.738 4.15893 29.8221 4.41014 29.8501 4.91255C29.8501 4.66134 29.8501 4.66134 29.8501 4.41014C29.8501 4.15893 29.8501 4.15893 29.8781 4.15893C29.9061 4.15893 29.9061 4.15893 29.9061 4.41014C29.9061 4.66134 29.9061 4.66134 29.9621 4.66134C29.9901 4.66134 29.9901 4.41014 29.9621 4.41014C29.9341 4.41014 29.9341 4.15893 29.9621 4.15893C30.0742 4.41014 30.2142 4.66134 30.3263 4.41014C30.4663 4.41014 30.5784 4.15893 30.7184 4.15893C30.7465 4.41014 30.7465 4.41014 30.7184 4.41014C30.6904 4.41014 30.6904 4.41014 30.6904 4.66134C30.6904 4.66134 30.7465 4.91255 30.8025 4.91255C30.8025 4.41014 30.8305 4.41014 30.8585 4.41014C30.8585 4.41014 30.8585 4.41014 30.8585 4.66134C30.8585 4.66134 30.8585 4.66134 30.8585 4.91255C30.9705 4.91255 31.0546 4.91255 31.1106 4.91255L31.3067 5.16375L31.2787 5.41496C31.2507 5.41496 31.2507 5.41496 31.2787 5.66616C31.3347 5.66616 31.3627 5.66616 31.4187 5.66616C31.4747 5.66616 31.5028 5.66616 31.5028 5.41496C31.4747 5.41496 31.4467 5.16375 31.4467 5.41496C31.4187 5.41496 31.3907 5.41496 31.3907 5.41496C31.4747 5.16375 31.5868 5.16375 31.6708 5.16375C31.7829 5.16375 31.8669 5.16375 31.979 5.41496C32.091 5.41496 32.203 5.41496 32.3151 5.16375C32.3991 5.16375 32.4832 5.16375 32.5672 5.66616C32.5672 5.66616 32.5952 5.66616 32.6232 5.66616C32.6512 5.66616 32.6792 5.41496 32.7072 5.41496C32.7353 5.41496 32.7353 5.66616 32.7353 5.66616C32.7353 5.66616 32.7633 5.91737 32.8193 5.66616C32.8473 5.66616 32.8473 5.41496 32.8473 5.41496C32.8193 5.41496 32.8473 5.16375 32.8753 5.16375C32.9033 5.41496 32.9033 5.66616 32.9313 5.66616C32.9594 5.41496 32.9874 5.41496 33.0434 5.16375C33.2115 5.41496 33.3515 5.41496 33.4916 5.66616C33.6316 5.66616 33.7997 5.66616 33.9398 5.66616L33.9678 5.41496C33.9678 5.41496 33.9958 5.16375 33.9958 4.91255C33.9678 4.91255 33.9398 4.91255 33.9398 4.91255C33.9117 4.91255 33.9117 4.91255 33.9117 4.66134C33.9678 4.66134 34.0238 4.66134 34.0798 4.66134C34.1358 4.66134 34.1919 4.66134 34.2479 4.41014C34.2759 4.41014 34.2759 4.66134 34.2479 4.66134C34.2759 4.66134 34.3039 4.66134 34.3319 4.66134C34.3599 4.66134 34.3879 4.66134 34.3879 4.41014C34.2759 4.41014 34.1638 4.41014 34.0798 4.15893C33.9678 3.90773 33.8557 3.90773 33.7437 4.15893C33.7437 4.15893 33.7437 4.41014 33.7437 4.66134C33.7437 4.91255 33.7157 5.16375 33.6876 5.16375C33.6596 4.91255 33.6596 4.91255 33.6876 4.66134C33.7157 4.41014 33.7157 4.41014 33.6596 4.41014C33.6316 4.41014 33.6316 4.66134 33.6036 4.66134C33.6036 4.91255 33.5756 4.91255 33.5476 4.91255C33.5196 4.91255 33.4916 4.91255 33.4916 4.66134C33.4636 4.66134 33.4355 4.66134 33.4355 4.66134C33.4075 4.66134 33.4075 4.91255 33.4075 5.16375C33.4075 5.41496 33.4075 5.41496 33.3515 5.41496C33.3515 5.41496 33.3515 5.16375 33.3795 5.16375C33.3795 5.16375 33.3795 4.91255 33.3515 4.91255C33.3515 4.66134 33.3235 4.66134 33.2955 4.66134C33.2675 4.66134 33.2395 4.66134 33.2675 4.41014C33.3235 4.41014 33.4075 4.41014 33.4636 4.66134C33.5196 4.66134 33.5756 4.66134 33.6316 4.41014C33.4916 4.41014 33.3515 4.15893 33.1834 4.15893C33.0154 4.15893 32.8473 3.90773 32.6792 3.90773C32.5112 3.90773 32.3151 3.65652 32.147 3.65652C31.979 3.65652 31.8109 3.65652 31.6708 3.65652C31.6988 3.90773 31.7549 3.90773 31.8109 3.90773C31.8669 3.90773 31.8949 3.90773 31.9509 4.15893C32.091 3.90773 32.203 3.90773 32.3431 3.90773C32.4551 3.90773 32.5952 4.15893 32.7072 4.15893C32.7072 4.15893 32.7072 4.41014 32.6792 4.41014C32.6792 4.41014 32.6792 4.41014 32.7072 4.41014C32.7913 4.15893 32.9033 4.15893 32.9874 4.15893C33.0714 4.15893 33.1834 4.41014 33.2675 4.41014C33.2675 4.66134 33.2395 4.66134 33.2115 4.66134C33.1834 4.66134 33.1554 4.66134 33.1834 4.91255C33.2115 4.91255 33.2115 5.16375 33.2395 4.91255H33.2675C33.2115 5.16375 33.1554 5.16375 33.1274 4.91255C33.0994 4.66134 33.0434 4.41014 32.9874 4.41014C32.9033 4.66134 32.8193 4.66134 32.7633 4.41014C32.7633 4.91255 32.7353 5.16375 32.6512 5.16375V4.91255C32.6232 4.91255 32.6232 4.91255 32.6232 4.91255H32.5952L32.6232 4.66134C32.6512 4.66134 32.6512 4.66134 32.6512 4.91255C32.6792 4.66134 32.7072 4.66134 32.7072 4.66134C32.6512 4.41014 32.6232 4.41014 32.5672 4.41014C32.5392 4.41014 32.4832 4.41014 32.4551 4.15893C32.3991 4.41014 32.3431 4.41014 32.2871 4.15893C32.2311 3.90773 32.175 4.15893 32.147 4.41014C32.119 4.15893 32.063 4.15893 32.035 4.15893C32.007 4.15893 32.007 4.41014 32.007 4.66134C32.007 4.91255 31.979 4.91255 31.9509 4.91255V4.66134L31.979 4.41014C31.9509 4.15893 31.8669 3.90773 31.8389 4.15893C31.7829 4.41014 31.7269 4.15893 31.6988 3.90773C31.6708 4.15893 31.6428 4.41014 31.5868 4.15893C31.5308 4.15893 31.4747 4.15893 31.4467 4.15893C31.4747 4.15893 31.5028 4.15893 31.5308 4.41014C31.5588 4.66134 31.5308 4.66134 31.5028 4.91255C31.4747 4.66134 31.4467 4.41014 31.4187 4.41014C31.3907 4.41014 31.3627 4.15893 31.3907 3.90773C31.3067 4.15893 31.2226 4.15893 31.1386 3.90773C31.0826 3.90773 30.9986 3.90773 30.9425 4.15893C30.8025 3.65652 30.6624 3.65652 30.4943 3.65652C30.3263 3.65652 30.1582 3.65652 29.9901 3.65652C29.8501 3.40531 29.682 3.40531 29.542 3.40531C29.3739 3.40531 29.2058 3.40531 29.0378 3.15411C29.0938 2.9029 29.1778 2.9029 29.2338 3.15411C29.3179 3.40531 29.3739 3.15411 29.4019 2.9029C29.3179 2.9029 29.2338 2.6517 29.1778 2.9029C29.1218 2.9029 29.0658 2.9029 28.9817 2.9029C28.9537 2.9029 28.9537 3.15411 28.9817 3.15411C29.0097 3.15411 29.0097 3.40531 28.9817 3.40531C28.6456 3.40531 28.3375 3.40531 28.0574 3.40531C28.0293 3.40531 28.0293 3.65652 28.0293 3.90773C28.0293 4.15893 28.0013 4.15893 27.9453 3.90773H27.9733C27.9733 3.90773 28.0013 3.90773 28.0013 3.65652C27.9173 3.40531 27.8053 3.40531 27.7212 3.40531C27.6092 3.65652 27.5532 3.40531 27.5251 3.15411C27.5532 3.15411 27.5812 3.15411 27.6092 3.15411C27.6372 3.15411 27.6372 3.15411 27.6372 2.9029C27.5251 2.9029 27.4131 2.9029 27.3011 2.9029C27.189 2.6517 27.077 2.9029 26.9929 3.15411C27.077 3.15411 27.161 3.15411 27.217 3.15411C27.3011 2.9029 27.3571 3.15411 27.4411 3.40531C27.161 3.40531 26.8809 3.40531 26.6008 3.40531C26.3207 3.40531 26.0686 3.40531 25.7884 3.40531C25.7604 3.40531 25.7604 3.40531 25.7604 3.65652C25.7604 3.65652 25.7324 3.90773 25.7044 3.90773C25.7044 3.65652 25.6764 3.65652 25.6484 3.65652C25.6204 3.65652 25.5924 3.65652 25.5643 3.40531C25.2002 3.40531 24.808 3.40531 24.4439 3.40531C24.0797 3.40531 23.7156 3.40531 23.4075 3.40531C23.4355 3.15411 23.4075 3.15411 23.3795 2.9029C23.3234 3.15411 23.2674 3.15411 23.1834 2.9029C23.0993 2.6517 23.0433 2.9029 23.0153 3.15411C23.0713 3.15411 23.1274 3.15411 23.2114 3.15411C23.2674 2.9029 23.3234 3.15411 23.3795 3.40531C23.2394 3.40531 23.0713 3.40531 22.9313 3.65652C22.7632 3.65652 22.6232 3.65652 22.4551 3.40531L22.7352 3.15411C22.8192 3.15411 22.9033 3.15411 22.9873 3.15411V2.9029C22.9873 2.9029 22.9873 2.9029 22.9873 2.6517C22.7632 2.9029 22.5391 2.9029 22.315 2.9029C22.1189 2.6517 21.8949 2.9029 21.6988 3.65652C21.6708 3.65652 21.6428 3.65652 21.6147 3.65652C21.5867 3.65652 21.5587 3.65652 21.5307 3.40531C21.5587 3.40531 21.6147 3.40531 21.6428 3.40531C21.6988 3.40531 21.6988 3.40531 21.6988 3.15411C21.0825 3.15411 20.4943 3.40531 19.9901 3.40531C19.4579 3.40531 18.8976 3.65652 18.2814 3.65652L18.1413 3.90773C17.9733 3.90773 17.8332 3.65652 17.6651 3.90773C17.4971 3.90773 17.329 4.15893 17.1889 4.15893C17.0769 3.90773 16.9649 3.90773 16.8528 3.90773C16.7408 3.90773 16.6287 4.15893 16.5167 4.15893V4.41014C16.5447 4.41014 16.5447 4.41014 16.5447 4.66134C16.5167 4.66134 16.5167 4.66134 16.4887 4.91255C16.4606 4.91255 16.4606 4.91255 16.4326 4.91255L16.4606 4.66134C16.4606 4.66134 16.4606 4.41014 16.4606 4.15893C16.0965 4.41014 15.7324 4.41014 15.3402 4.41014C15.0041 4.41014 14.6399 4.66134 14.3038 4.91255C13.8276 4.91255 13.2954 4.91255 12.7912 5.16375C12.2589 5.41496 11.7827 5.66616 11.3346 5.66616C11.0264 5.66616 10.7183 5.66616 10.3822 5.91737C10.046 6.16857 9.73792 6.16857 9.40178 5.91737C9.28973 6.16857 9.17769 6.16857 9.06564 6.16857C8.9536 6.16857 8.84155 6.16857 8.72951 5.91737C9.09365 5.91737 9.42979 5.66616 9.79394 5.41496C10.1581 5.16375 10.4942 5.16375 10.8023 5.41496C10.8304 5.16375 10.8584 5.16375 10.9144 5.16375C10.9424 5.16375 10.9984 5.16375 11.0264 4.91255C11.1105 5.16375 11.1945 5.16375 11.3066 5.16375C11.3906 5.16375 11.4746 4.91255 11.5587 4.91255C11.5587 4.91255 11.5867 4.91255 11.5867 5.16375C11.5867 5.16375 11.5867 5.16375 11.6147 5.16375C11.7267 4.91255 11.8668 4.91255 11.9788 4.91255C12.0909 4.91255 12.2029 4.91255 12.343 4.91255C12.5951 4.91255 12.8752 4.91255 13.1553 4.66134C13.4354 4.41014 13.7155 4.41014 13.9956 4.15893C14.0797 4.15893 14.1917 4.15893 14.2758 4.15893C14.3598 4.15893 14.4438 4.15893 14.5559 4.15893C14.6119 4.15893 14.6679 4.15893 14.6959 3.90773C14.752 3.90773 14.78 3.90773 14.836 3.90773C14.92 3.90773 14.976 3.90773 15.0601 3.90773C15.1441 3.90773 15.2001 3.90773 15.2562 3.90773C15.3962 3.90773 15.5363 3.90773 15.6763 3.90773C15.8164 3.90773 15.9564 3.65652 16.1525 3.65652C16.7968 3.65652 17.441 3.40531 18.1413 3.15411C18.8416 2.9029 19.5139 2.9029 20.1581 2.9029C20.3262 2.9029 20.5223 2.9029 20.6904 2.9029L21.2226 2.6517C21.7548 2.6517 22.287 2.40049 22.8472 2.40049C23.4075 2.40049 23.9677 2.14929 24.4999 2.14929C24.5279 2.14929 24.5279 2.14929 24.5279 2.40049C24.5279 2.40049 24.5559 2.40049 24.5839 2.40049C25.1442 2.40049 25.7044 2.14929 26.2366 2.14929C26.7688 2.14929 27.3291 2.14929 27.8893 2.40049C28.3655 2.14929 28.8417 2.14929 29.3739 2.40049C29.9061 2.6517 30.4383 2.6517 30.9705 2.6517C31.1666 2.9029 31.4187 2.9029 31.6988 2.9029C31.979 2.9029 32.2311 2.9029 32.4271 3.15411C32.9313 3.40531 33.4636 3.65652 33.9958 3.90773C34.556 4.15893 35.0602 4.41014 35.5644 4.66134C35.7885 4.91255 35.9846 5.16375 36.2087 5.16375C36.4048 5.16375 36.6008 5.41496 36.7969 5.66616C36.4608 5.66616 36.0966 5.41496 35.7325 5.16375C35.3683 4.91255 35.0042 4.66134 34.64 4.91255C34.668 4.91255 34.668 5.16375 34.668 5.16375C34.668 5.41496 34.668 5.41496 34.64 5.41496C34.612 5.16375 34.556 5.41496 34.528 5.41496C34.5 5.66616 34.444 5.41496 34.4159 5.16375C34.4159 5.66616 34.3879 5.66616 34.3319 5.41496C34.3039 5.16375 34.2479 5.16375 34.2199 5.41496C34.2199 5.66616 34.2479 5.91737 34.2759 5.91737C34.3039 5.91737 34.3599 6.16857 34.3879 6.16857C34.4159 5.91737 34.4159 5.91737 34.444 5.91737H34.556C34.584 5.91737 34.584 5.66616 34.584 5.66616C34.584 5.66616 34.584 5.41496 34.612 5.41496C34.64 5.41496 34.668 5.41496 34.7241 5.66616C34.7241 5.66616 34.6961 5.91737 34.668 5.91737C34.64 5.91737 34.612 5.91737 34.64 6.16857C34.6961 6.41978 34.7521 6.41978 34.8081 6.16857C34.8921 6.16857 34.9201 6.16857 34.9482 6.41978H34.8361C34.8081 6.41978 34.7801 6.41978 34.7801 6.67098C35.0042 6.67098 35.2283 6.67098 35.4524 7.17339C35.6484 7.4246 35.8725 7.6758 36.0966 7.6758C36.0966 7.6758 36.0966 7.92701 36.1246 7.92701C36.1526 7.92701 36.1526 7.92701 36.1526 7.92701C36.2927 7.92701 36.4608 7.6758 36.6008 7.92701C36.7689 7.92701 36.937 7.92701 37.133 7.92701C37.1891 7.92701 37.2731 7.92701 37.3291 7.6758C37.4132 7.4246 37.4972 7.4246 37.5532 7.4246C37.3852 6.92219 37.3851 6.67098 37.3851 6.41978ZM33.8837 4.66134C33.8557 4.66134 33.8557 4.91255 33.8557 5.16375C33.8557 5.41496 33.8557 5.41496 33.7997 5.41496C33.7997 5.16375 33.7997 4.91255 33.7997 4.91255C33.7717 4.91255 33.7717 4.66134 33.7717 4.66134C33.7997 4.66134 33.8557 4.66134 33.8837 4.66134ZM33.2955 4.91255C33.2955 5.16375 33.2955 5.16375 33.2955 4.91255C33.2675 5.16375 33.2395 4.91255 33.2395 4.91255H33.2955ZM32.3991 4.66134C32.4271 4.66134 32.4271 4.66134 32.4271 4.66134C32.4271 4.66134 32.4271 4.66134 32.4551 4.66134C32.4551 4.91255 32.4551 4.91255 32.3991 4.66134C32.3711 4.91255 32.3711 4.91255 32.3991 4.66134ZM32.2871 4.66134C32.3151 4.66134 32.3151 4.91255 32.3151 4.91255C32.2871 4.91255 32.2871 4.91255 32.2591 4.91255C32.2591 4.66134 32.2591 4.41014 32.2871 4.66134ZM31.7549 4.41014C31.7549 4.66134 31.7549 4.66134 31.7549 4.66134C31.7549 4.66134 31.7829 4.66134 31.7829 4.91255C31.7268 4.91255 31.6708 4.66134 31.6708 4.41014H31.7549ZM31.2226 4.15893C31.2226 4.15893 31.2507 4.15893 31.2226 4.15893C31.2507 4.41014 31.2226 4.66134 31.1946 4.41014L31.2226 4.15893C31.2226 4.15893 31.1946 4.15893 31.2226 4.15893ZM30.5784 4.15893C30.6064 4.15893 30.6064 4.15893 30.6064 4.41014C30.6064 4.41014 30.6064 4.66134 30.5784 4.66134C30.5784 4.41014 30.5784 4.41014 30.5784 4.15893C30.5784 4.15893 30.5504 4.15893 30.5784 4.15893ZM30.5224 4.15893C30.5224 4.41014 30.5224 4.41014 30.5224 4.15893V4.15893ZM29.598 4.41014C29.598 4.41014 29.598 4.41014 29.57 4.41014H29.598ZM29.4859 3.90773H29.514V4.15893H29.4859V3.90773ZM29.4299 4.41014H29.4859V4.66134L29.4299 4.41014ZM29.1498 3.65652C29.1778 3.65652 29.1778 3.65652 29.1778 3.65652C29.1778 3.65652 29.1778 3.65652 29.2058 3.65652C29.2338 3.90773 29.2338 3.90773 29.1498 3.65652C29.1498 3.90773 29.1498 3.90773 29.1498 3.65652ZM28.8697 3.90773H28.8977V4.15893H28.8697V3.90773ZM26.7408 3.90773V4.15893H26.6848V3.90773H26.7408ZM26.5167 4.15893H26.5728V4.41014L26.5167 4.15893ZM26.3767 3.65652H26.4047C26.4047 3.90773 26.4047 4.15893 26.3767 3.65652C26.3487 3.90773 26.3487 3.90773 26.3207 3.65652C26.3207 3.90773 26.3487 3.65652 26.3767 3.65652ZM25.8164 4.41014C25.8445 4.41014 25.8445 4.41014 25.8445 4.41014C25.8725 4.41014 25.8725 4.41014 25.8725 4.66134C25.8725 4.91255 25.8445 4.91255 25.8164 4.66134V4.41014ZM25.1722 3.65652C25.2282 3.65652 25.2282 3.65652 25.2282 3.65652C25.2562 3.90773 25.2282 3.90773 25.2002 3.90773C25.1722 3.90773 25.1442 3.90773 25.1722 3.65652ZM25.0601 3.90773H25.0882V4.15893H25.0601V3.90773ZM24.9761 3.90773H25.0041V4.15893L24.9761 3.90773ZM24.8921 3.90773C24.9201 3.90773 24.9481 4.15893 24.9201 4.15893C24.8921 4.15893 24.8641 4.15893 24.8361 3.90773C24.8361 3.90773 24.8361 3.90773 24.8921 3.90773ZM24.696 3.90773C24.724 3.90773 24.78 3.90773 24.808 3.90773C24.808 3.90773 24.808 4.15893 24.752 4.15893C24.696 4.15893 24.696 4.15893 24.696 3.90773ZM24.0797 4.66134C24.1078 4.41014 24.1358 4.41014 24.1918 4.41014C24.1918 4.66134 24.1358 4.66134 24.0797 4.66134C24.0797 4.66134 24.0517 4.66134 24.0797 4.66134ZM23.9957 3.90773H23.9677V3.65652H23.9957C24.0237 3.65652 24.0237 3.65652 23.9957 3.90773ZM23.5195 3.90773C23.5475 3.90773 23.5475 4.15893 23.5755 4.15893C23.5195 4.15893 23.5195 3.90773 23.5195 3.90773ZM23.4355 3.90773C23.4635 3.90773 23.4635 3.90773 23.4635 3.90773H23.4915C23.4915 3.90773 23.4915 3.90773 23.4915 4.15893C23.4635 4.15893 23.4355 3.90773 23.4355 3.90773C23.4075 3.90773 23.4075 3.90773 23.4355 3.90773ZM23.2954 3.90773C23.3234 3.90773 23.3514 3.90773 23.3234 4.15893L23.2954 4.41014C23.2674 4.41014 23.2674 4.41014 23.2674 4.15893C23.2954 3.90773 23.2954 3.90773 23.2954 3.90773ZM23.1274 4.15893C23.0993 4.15893 23.0713 3.90773 23.0433 3.65652C23.0993 3.90773 23.1274 3.90773 23.1274 4.15893ZM22.7072 3.90773C22.7632 3.90773 22.7632 4.15893 22.7352 4.15893H22.7072V3.90773ZM22.5111 3.90773C22.5391 3.90773 22.5671 4.15893 22.5391 4.15893H22.5111H22.4831C22.4831 4.15893 22.4831 3.90773 22.5111 3.90773C22.5111 3.90773 22.4831 3.90773 22.5111 3.90773ZM22.343 4.66134C22.371 4.66134 22.3991 4.66134 22.4271 4.66134C22.4551 4.66134 22.4831 4.41014 22.5111 4.41014C22.5391 4.15893 22.5951 4.15893 22.6232 4.41014C22.6232 4.66134 22.6512 4.66134 22.6792 4.66134C22.6512 4.91255 22.5951 4.91255 22.5671 4.91255C22.5391 4.91255 22.4831 4.91255 22.4271 4.66134C22.3991 4.91255 22.343 4.91255 22.315 4.91255C22.259 4.91255 22.231 4.66134 22.231 4.41014C22.259 4.66134 22.315 4.66134 22.343 4.66134ZM22.175 3.40531H22.287C22.287 3.40531 22.259 3.65652 22.231 3.65652C22.203 3.65652 22.147 3.40531 22.175 3.40531ZM22.0349 3.40531C22.0629 3.40531 22.0909 3.40531 22.147 3.40531C22.147 3.65652 22.1189 3.65652 22.0629 3.65652C22.0349 3.65652 22.0069 3.65652 21.9789 3.65652C21.9789 3.40531 22.0069 3.15411 22.0349 3.40531ZM21.9789 4.15893C21.9789 3.90773 21.9789 3.90773 22.0069 3.90773C22.0349 3.90773 22.0349 4.15893 22.0349 4.15893C22.0069 4.41014 22.0069 4.41014 21.9789 4.15893ZM21.8388 4.41014C21.8108 4.41014 21.8108 4.41014 21.7828 4.15893C21.7548 4.15893 21.7268 4.15893 21.6988 4.15893C21.6988 3.90773 21.7268 3.90773 21.7828 3.90773C21.8388 3.90773 21.8388 4.15893 21.8388 4.41014ZM21.6147 4.15893H21.6708V4.41014L21.6147 4.15893ZM20.2702 4.66134C20.2702 4.66134 20.2982 4.66134 20.2702 4.66134C20.2982 4.66134 20.2982 4.66134 20.2702 4.66134ZM20.4943 4.66134C20.4663 4.66134 20.4943 4.41014 20.4943 4.66134C20.5223 4.66134 20.5223 4.66134 20.4943 4.66134ZM20.6343 4.15893C20.6904 4.15893 20.7184 4.15893 20.6904 4.41014C20.6904 4.41014 20.6624 4.41014 20.6343 4.15893C20.6343 4.15893 20.6343 4.41014 20.6343 4.15893ZM20.8864 4.41014H20.8304V4.15893C20.8584 4.15893 20.8584 4.15893 20.8864 4.41014ZM20.9705 4.66134C20.9985 4.66134 20.9985 4.41014 20.9705 4.66134C20.9985 4.41014 20.9985 4.66134 20.9985 4.91255L20.9705 4.66134C20.9425 4.66134 20.9425 4.66134 20.9705 4.66134ZM21.0265 5.16375C20.9985 5.16375 20.9705 5.16375 20.9705 5.16375C20.9985 4.91255 21.0265 4.91255 21.0545 5.16375C21.0545 5.16375 21.0545 5.16375 21.0265 5.16375ZM21.0825 4.91255C21.1105 4.66134 21.1105 4.66134 21.1385 4.41014C21.1666 4.15893 21.1946 4.15893 21.2226 4.41014C21.2226 4.91255 21.1946 5.16375 21.0825 4.91255ZM21.1105 3.40531C21.1666 3.40531 21.2226 3.40531 21.2786 3.15411H21.3066C21.3066 3.15411 21.3066 3.15411 21.3346 3.15411V3.40531C21.2786 3.40531 21.2506 3.40531 21.2226 3.65652C21.1385 3.90773 21.1105 3.65652 21.1105 3.40531ZM21.0825 4.15893C21.1105 4.41014 21.1105 4.41014 21.0825 4.15893C21.0545 4.15893 21.0545 4.41014 21.0545 4.41014C21.0265 4.41014 21.0265 4.41014 21.0265 4.15893C21.0545 4.15893 21.0825 4.15893 21.0825 4.15893ZM20.3822 3.90773C20.4383 3.65652 20.4943 3.65652 20.5783 3.65652C20.6343 3.90773 20.7184 3.65652 20.7744 3.40531C20.8024 3.65652 20.8304 3.65652 20.9145 3.65652C20.9705 3.40531 21.0265 3.65652 21.0825 3.90773C20.9705 3.90773 20.8584 3.90773 20.7464 3.90773C20.6063 3.90773 20.4943 3.90773 20.3822 3.90773ZM20.2702 3.65652H20.3262C20.3542 3.65652 20.3542 3.90773 20.3262 3.90773L20.2702 3.65652ZM20.2702 4.66134C20.2702 4.66134 20.2702 4.66134 20.2142 4.66134C20.2142 4.91255 20.2422 4.66134 20.2702 4.66134ZM20.0181 3.65652H20.0741V3.90773L20.0181 3.65652ZM19.878 3.90773C19.878 3.65652 19.906 3.40531 19.9341 3.65652C19.9621 3.90773 19.9341 4.15893 19.878 3.90773ZM19.794 3.65652H19.822V3.90773L19.794 3.65652ZM19.794 4.91255L19.766 5.16375C19.766 5.16375 19.738 5.41496 19.71 5.41496C19.71 5.16375 19.71 5.16375 19.738 5.16375C19.766 5.16375 19.766 5.16375 19.738 4.91255C19.766 4.66134 19.766 4.66134 19.794 4.91255ZM19.738 4.66134C19.71 4.66134 19.71 4.66134 19.738 4.66134C19.71 4.66134 19.71 4.66134 19.682 4.66134C19.682 4.66134 19.682 4.66134 19.738 4.66134C19.738 4.41014 19.738 4.41014 19.738 4.66134ZM19.6259 3.65652C19.6259 3.40531 19.6539 3.40531 19.682 3.65652C19.71 3.90773 19.71 3.90773 19.682 3.90773H19.6259C19.6539 3.90773 19.6539 3.65652 19.6259 3.65652ZM18.8416 4.66134C18.8136 4.66134 18.8136 4.66134 18.7856 4.66134C18.7856 4.66134 18.7856 4.66134 18.7856 4.41014L18.8416 4.66134C18.8696 4.66134 18.8696 4.41014 18.8416 4.66134ZM19.0377 4.66134C19.0657 4.66134 19.0937 4.66134 19.0937 4.91255C19.0377 5.16375 19.0097 4.91255 19.0377 4.66134ZM19.1777 3.90773C19.1777 3.90773 19.1777 4.15893 19.1777 3.90773C19.1497 4.15893 19.1497 4.15893 19.1217 4.15893C19.1217 4.15893 19.0937 4.15893 19.0937 3.90773H19.1777ZM18.9256 4.66134C18.9256 4.41014 18.9537 4.41014 18.9817 4.41014C19.0097 4.41014 19.0377 4.41014 19.0657 4.66134C19.0657 4.66134 19.0377 4.91255 19.0097 4.91255C18.9817 4.66134 18.9537 4.66134 18.9256 4.66134ZM18.8136 3.90773C18.8416 3.90773 18.8416 3.90773 18.8416 3.90773C18.8416 3.90773 18.8416 3.90773 18.8696 3.90773C18.8976 4.15893 18.8696 4.15893 18.8136 3.90773C18.7856 3.90773 18.7856 4.15893 18.8136 3.90773ZM18.5335 4.15893C18.5615 4.15893 18.5615 4.15893 18.5615 3.90773C18.5895 3.90773 18.5895 4.15893 18.5895 4.15893H18.5335ZM18.4214 3.90773H18.4775V4.15893H18.4214V3.90773ZM18.3094 3.90773C18.3374 3.90773 18.3654 3.90773 18.3654 3.90773C18.4214 3.90773 18.4214 4.15893 18.3934 4.15893C18.3654 4.15893 18.3374 4.15893 18.2814 4.15893C18.2534 3.90773 18.2814 3.90773 18.3094 3.90773ZM18.2534 4.41014C18.3094 4.41014 18.3374 4.66134 18.3374 4.66134H18.1974C18.1693 4.41014 18.1974 4.41014 18.2534 4.41014ZM18.1133 4.66134C18.0853 4.91255 18.0293 4.91255 18.0013 4.91255C18.0013 4.66134 18.0013 4.66134 18.0293 4.66134C18.0573 4.66134 18.0853 4.66134 18.1133 4.66134ZM17.9733 4.15893H18.0293V4.41014H18.0013H17.9733V4.15893ZM17.8892 4.66134C17.9452 4.66134 17.9452 4.66134 17.9452 4.91255L17.8892 4.66134ZM17.7772 5.91737H17.7212V5.66616H17.7772V5.91737ZM17.6091 4.66134C17.6371 4.41014 17.6651 4.15893 17.7492 4.41014C17.8052 4.41014 17.8332 4.66134 17.8332 4.91255C17.8052 4.91255 17.7772 4.91255 17.7772 4.66134C17.7772 4.41014 17.7212 4.41014 17.7212 4.41014C17.6931 4.41014 17.6931 4.41014 17.7212 4.66134C17.7492 4.66134 17.7492 4.66134 17.7212 4.91255C17.6651 4.66134 17.6371 4.66134 17.6091 4.66134ZM17.4971 4.15893C17.5251 4.15893 17.5531 4.15893 17.5251 4.15893C17.5251 4.41014 17.5251 4.41014 17.5251 4.66134C17.4971 4.66134 17.4691 4.66134 17.4691 4.41014C17.4691 4.41014 17.4691 4.15893 17.4971 4.15893ZM17.413 4.41014C17.413 4.15893 17.413 4.15893 17.413 4.41014C17.413 4.15893 17.413 4.15893 17.413 4.41014C17.4691 4.15893 17.4691 4.41014 17.4691 4.41014C17.441 4.41014 17.441 4.41014 17.441 4.41014H17.413ZM17.385 4.66134C17.413 4.66134 17.413 4.66134 17.413 4.66134C17.413 4.66134 17.413 4.66134 17.441 4.66134C17.441 4.91255 17.441 4.91255 17.385 4.66134C17.357 4.91255 17.357 4.91255 17.385 4.66134ZM17.217 4.91255V4.66134V4.41014C17.273 4.41014 17.273 4.41014 17.273 4.66134C17.273 4.66134 17.273 4.66134 17.273 4.91255C17.273 5.16375 17.245 5.16375 17.217 4.91255ZM17.0209 5.41496C17.0209 5.41496 17.0489 5.41496 17.0769 5.41496C17.0769 5.41496 17.0489 5.41496 17.0209 5.41496ZM17.1049 4.91255C17.1049 4.91255 17.1329 4.66134 17.1609 4.66134C17.1609 4.91255 17.1329 4.91255 17.1049 4.91255ZM16.7968 4.66134C16.8528 4.41014 16.9088 4.41014 16.9649 4.41014C17.0209 4.41014 17.1049 4.41014 17.1609 4.41014C17.1049 4.66134 17.0489 4.91255 16.9929 4.66134C16.9649 4.66134 16.8808 4.66134 16.7968 4.66134ZM16.6567 4.91255C16.6847 4.91255 16.6847 4.91255 16.6847 4.66134C16.6847 4.66134 16.6847 4.41014 16.6567 4.41014C16.6847 4.41014 16.7127 4.41014 16.7127 4.41014C16.7688 4.41014 16.7688 4.41014 16.7408 4.41014C16.7127 4.41014 16.7127 4.66134 16.7127 4.66134C16.7408 4.91255 16.7408 4.91255 16.7688 4.91255H16.8528C16.8808 4.91255 16.9088 4.91255 16.9368 4.91255C16.9649 4.91255 16.9649 5.16375 16.9929 5.16375C16.9088 5.16375 16.8528 5.16375 16.7968 4.91255C16.7408 4.91255 16.6847 4.91255 16.6287 5.16375C16.6007 5.16375 16.6007 4.91255 16.6287 4.91255C16.6287 5.16375 16.6567 4.91255 16.6567 4.91255ZM16.3766 4.41014C16.4046 4.41014 16.4326 4.41014 16.4606 4.41014C16.4887 4.66134 16.4887 4.66134 16.4606 4.91255C16.5167 4.91255 16.5167 4.91255 16.4887 4.66134H16.6007L16.5727 4.91255C16.5447 4.91255 16.5447 5.16375 16.5447 5.16375C16.4887 5.16375 16.4326 5.16375 16.3766 5.16375L16.4326 4.91255C16.4326 4.91255 16.4046 4.66134 16.3766 4.41014ZM16.0965 5.16375C16.1245 5.16375 16.1245 5.16375 16.1245 5.16375C16.1245 5.16375 16.1245 5.16375 16.1525 5.16375C16.1245 5.16375 16.0965 5.41496 16.0965 5.41496V5.16375ZM16.0125 5.16375C16.0685 5.16375 16.0685 5.16375 16.0405 5.41496C16.0125 5.41496 15.9845 5.41496 15.9284 5.41496C15.9564 5.16375 15.9845 5.16375 16.0125 5.16375ZM15.7604 4.91255C15.7884 4.91255 15.7884 4.91255 15.7604 4.91255C15.7324 5.16375 15.7324 5.16375 15.7043 5.16375C15.7324 4.91255 15.7604 4.66134 15.7604 4.91255ZM15.6203 4.91255C15.6203 4.91255 15.6203 4.91255 15.5923 4.91255C15.5923 4.91255 15.5923 4.91255 15.6203 4.91255ZM15.5083 5.41496H15.5643C15.5923 5.41496 15.5643 5.41496 15.5083 5.41496C15.5083 5.41496 15.4802 5.41496 15.5083 5.41496ZM15.3962 4.91255C15.4242 4.91255 15.4522 5.16375 15.4242 5.41496C15.3962 5.41496 15.3962 5.41496 15.3962 5.16375V4.91255ZM15.3122 4.91255H15.3402V5.16375H15.3122V4.91255ZM15.2842 4.91255C15.2562 5.16375 15.2562 5.16375 15.2281 5.16375C15.2281 4.91255 15.2281 4.91255 15.2842 4.91255ZM14.892 5.16375C14.92 5.16375 14.948 5.16375 14.948 4.91255C14.976 4.91255 14.976 5.16375 14.948 5.41496C14.92 5.41496 14.892 5.41496 14.892 5.16375ZM14.4999 5.91737C14.5279 5.91737 14.5279 5.66616 14.4999 5.41496C14.5559 5.41496 14.5559 5.66616 14.5559 5.91737C14.5559 6.16857 14.5839 6.16857 14.6399 6.16857C14.6119 6.41978 14.5839 6.41978 14.5559 6.41978C14.5279 6.41978 14.4718 6.41978 14.4438 6.41978C14.4438 6.16857 14.4718 5.91737 14.4999 5.91737ZM14.3598 6.16857H14.3878V6.41978H14.3598V6.16857ZM14.1917 5.16375C14.1917 4.91255 14.2197 4.91255 14.2477 4.91255C14.2758 4.91255 14.2758 4.91255 14.2758 4.91255C14.3038 4.91255 14.3038 5.16375 14.2758 5.16375C14.2477 5.41496 14.2197 5.41496 14.1917 5.16375ZM14.1357 6.41978C14.1637 6.16857 14.1917 6.16857 14.2477 6.16857C14.3038 6.16857 14.3318 6.16857 14.3038 6.41978C14.2758 6.41978 14.2477 6.41978 14.2197 6.41978C14.1917 6.41978 14.1637 6.41978 14.1357 6.41978ZM14.0797 6.92219C14.0237 6.92219 13.9956 6.67098 13.9676 6.41978C13.9956 6.41978 13.9956 6.67098 14.0237 6.67098C14.0517 6.67098 14.0517 6.67098 14.0797 6.92219ZM14.0797 5.16375C14.0797 5.16375 14.0517 5.41496 14.0237 5.41496C13.9956 5.41496 13.9676 5.41496 13.9676 5.41496C13.9676 5.16375 13.9956 5.16375 14.0797 5.16375ZM13.7996 5.66616H13.8276V5.91737H13.7996V5.66616ZM13.4074 5.91737C13.4074 5.91737 13.4074 5.91737 13.3794 5.91737H13.4074ZM13.2673 5.66616C13.2954 5.66616 13.2954 5.66616 13.2673 5.66616C13.3514 5.41496 13.3794 5.66616 13.3794 5.91737C13.3234 5.91737 13.2954 5.91737 13.2954 5.91737C13.2673 5.91737 13.2673 6.16857 13.2673 5.66616C13.2393 5.66616 13.2393 5.66616 13.2673 5.66616ZM13.1273 5.66616H13.1833V5.91737H13.1273V5.66616ZM13.1273 6.41978C13.1273 6.67098 13.0993 6.92219 13.0433 6.41978C13.0713 6.67098 13.0993 6.41978 13.1273 6.41978ZM12.8752 5.41496L12.9032 5.66616C12.8752 5.66616 12.8752 5.91737 12.8472 5.91737C12.8192 5.91737 12.8192 5.91737 12.7912 5.91737L12.8192 5.66616C12.8472 5.41496 12.8472 5.41496 12.8752 5.41496ZM12.7351 6.41978H12.7912V6.67098L12.7351 6.41978ZM12.6511 6.92219C12.6791 6.67098 12.6791 6.67098 12.7071 6.67098C12.7071 6.92219 12.6791 6.92219 12.6511 6.92219ZM12.6791 6.16857C12.6791 6.16857 12.6791 6.41978 12.6791 6.16857C12.6791 6.41978 12.6791 6.41978 12.6791 6.16857C12.6791 6.41978 12.6791 6.41978 12.6511 6.41978C12.6511 6.16857 12.6511 6.16857 12.6791 6.16857ZM12.2309 6.16857H12.315C12.315 6.41978 12.287 6.41978 12.2309 6.16857C12.2309 6.16857 12.2029 6.16857 12.1749 6.41978C12.2029 6.41978 12.2029 6.16857 12.2309 6.16857ZM11.5026 7.4246H11.4466V7.17339H11.5026V7.4246ZM11.4466 6.16857C11.4466 6.41978 11.4466 6.41978 11.4466 6.41978C11.4186 6.41978 11.4186 6.67098 11.4466 6.67098C11.4186 6.67098 11.3906 6.41978 11.3906 6.16857C11.3626 6.16857 11.4466 6.16857 11.4466 6.16857ZM10.4942 6.41978C10.5222 6.41978 10.5222 6.41978 10.5222 6.41978C10.5222 6.41978 10.5222 6.41978 10.5502 6.41978C10.5502 6.67098 10.5502 6.67098 10.4942 6.41978C10.4662 6.67098 10.4662 6.67098 10.4942 6.41978ZM9.93399 6.41978H9.99002V6.67098H9.93399V6.41978ZM9.93399 7.4246C9.96201 7.4246 9.99002 7.4246 10.018 7.4246C10.018 7.6758 10.018 7.6758 9.99002 7.6758C9.93399 7.6758 9.90598 7.6758 9.93399 7.4246C9.87797 7.4246 9.87797 7.6758 9.93399 7.4246ZM8.05723 6.16857C8.02922 6.16857 8.00121 6.16857 8.00121 6.41978C8.00121 6.16857 8.00121 6.16857 8.02922 5.91737C8.05723 5.91737 8.08524 5.91737 8.11326 6.16857C8.08524 6.16857 8.08524 6.16857 8.05723 6.16857ZM8.14127 5.91737C8.14127 5.91737 8.16928 5.91737 8.19729 5.91737C8.19729 5.91737 8.16928 5.91737 8.14127 5.91737ZM8.2253 6.16857C8.28132 5.91737 8.28132 6.16857 8.28132 6.16857H8.2253ZM8.42138 6.16857C8.39337 6.16857 8.33735 6.16857 8.30933 6.16857C8.33735 5.91737 8.36536 5.91737 8.42138 6.16857C8.44939 5.91737 8.4774 5.91737 8.50541 5.91737C8.50541 5.91737 8.4774 6.16857 8.42138 6.16857ZM14.2197 3.90773C14.2197 3.90773 14.2197 3.65652 14.2197 3.90773C14.1917 3.65652 14.2197 3.65652 14.2197 3.90773C14.2477 3.65652 14.2197 3.65652 14.2197 3.90773C14.2477 3.90773 14.2477 3.90773 14.2197 3.90773ZM14.5839 3.65652C14.5839 3.40531 14.5839 3.40531 14.5839 3.65652C14.5839 3.40531 14.5839 3.40531 14.5839 3.65652C14.6119 3.65652 14.6119 3.65652 14.5839 3.65652ZM15.0321 3.65652C15.0041 3.65652 14.948 3.65652 14.92 3.65652C14.948 3.40531 14.976 3.40531 15.0041 3.40531C15.0321 3.65652 15.0601 3.65652 15.1161 3.40531C15.1161 3.65652 15.0881 3.65652 15.0321 3.65652ZM15.3962 3.65652C15.3402 3.65652 15.2562 3.65652 15.2001 3.65652C15.2001 3.65652 15.2001 3.40531 15.1721 3.40531C15.1721 3.40531 15.1721 3.40531 15.1721 3.15411C15.2001 3.15411 15.2281 2.9029 15.2562 3.15411C15.2842 3.15411 15.3122 3.40531 15.3122 3.40531C15.3402 3.40531 15.3402 3.40531 15.3402 3.15411C15.3402 3.15411 15.3682 2.9029 15.3962 3.15411C15.3962 3.15411 15.3962 3.40531 15.4242 3.40531C15.4522 3.40531 15.4522 3.40531 15.4802 3.40531C15.4802 3.65652 15.4242 3.65652 15.3962 3.65652ZM34.668 5.41496H34.612V5.16375L34.668 5.41496ZM34.7241 6.16857C34.6961 6.16857 34.668 5.91737 34.6961 5.91737C34.7241 5.91737 34.7241 5.91737 34.7241 5.66616C34.7521 5.66616 34.7521 5.66616 34.7521 5.91737C34.7521 6.16857 34.7801 6.16857 34.7801 6.16857C34.7801 6.16857 34.7521 6.16857 34.7241 6.16857ZM34.8361 5.91737C34.8361 5.91737 34.8641 5.91737 34.8921 5.91737C34.8641 5.91737 34.8641 5.91737 34.8361 5.91737ZM35.0042 6.41978C34.9762 6.41978 34.9762 6.41978 34.9482 6.41978C34.9201 6.41978 34.9201 6.41978 34.9201 6.16857C34.9762 6.16857 34.9762 6.16857 34.9762 6.16857C35.0042 6.16857 35.0042 6.16857 35.0042 6.41978C35.0042 6.41978 35.0042 6.16857 35.0042 6.41978ZM35.0322 5.66616C34.9762 5.66616 34.9762 5.66616 35.0042 5.91737C34.9762 5.66616 34.9201 5.41496 34.8641 5.66616C34.8081 5.66616 34.7521 5.66616 34.7241 5.41496C34.7801 5.41496 34.8641 5.41496 34.9201 5.41496C34.9762 5.41496 35.0602 5.41496 35.1162 5.66616C35.0882 5.66616 35.0882 5.91737 35.0322 5.66616ZM35.1162 6.16857H35.0882C35.0882 6.16857 35.0882 6.16857 35.1162 6.16857C35.1162 6.16857 35.0882 6.16857 35.1162 6.16857ZM35.1722 6.41978C35.1442 6.41978 35.1442 6.41978 35.1442 6.16857C35.1722 6.16857 35.2003 6.16857 35.2003 6.16857C35.2283 6.16857 35.2563 6.41978 35.2563 6.41978C35.2563 6.16857 35.2003 6.16857 35.1722 6.41978ZM35.2003 5.66616C35.1722 5.66616 35.1162 5.66616 35.0882 5.41496C35.1162 5.41496 35.1722 5.41496 35.2283 5.41496C35.3123 5.41496 35.3403 5.66616 35.3683 5.91737C35.3123 5.91737 35.2563 5.66616 35.2003 5.66616ZM35.6484 5.91737C35.5644 5.66616 35.5084 5.66616 35.4244 5.91737V5.41496C35.5084 5.41496 35.5924 5.41496 35.6765 5.41496C35.7605 5.41496 35.8445 5.41496 35.9286 5.66616C35.8445 6.16857 35.7325 6.16857 35.6484 5.91737ZM36.0686 5.91737C36.0406 5.91737 36.0126 5.91737 35.9566 5.91737C35.9566 5.91737 35.9566 5.66616 36.0126 5.66616C36.0686 5.91737 36.0686 5.91737 36.0686 5.91737ZM36.1807 5.91737H36.1526V5.66616L36.1807 5.91737ZM36.7689 5.41496C36.6849 5.41496 36.6288 5.16375 36.5448 4.91255C36.6288 4.91255 36.7129 4.91255 36.7969 4.91255C36.8809 4.91255 36.965 5.16375 37.049 5.16375C36.965 5.66616 36.8809 5.66616 36.7689 5.41496Z" fill="#F6CD45"/>
    </svg>