<svg width="14" height="14" viewBox="0 0 14 14" fill="none" xmlns="http://www.w3.org/2000/svg">
<path fill-rule="evenodd" clip-rule="evenodd" d="M2.58063 6.91367C2.03224 6.36527 1.72415 5.62148 1.72415 4.84593C1.72415 4.07037 2.03224 3.32658 2.58063 2.77818C3.12903 2.22979 3.87282 1.9217 4.64838 1.9217C5.42393 1.9217 6.16772 2.22979 6.71612 2.77818L7.27956 3.34163L7.84301 2.77818C8.1145 2.50656 8.43685 2.29109 8.79164 2.14409C9.14643 1.99708 9.52671 1.92141 9.91075 1.92141C10.2948 1.92141 10.6751 1.99708 11.0299 2.14409C11.3846 2.29109 11.707 2.50656 11.9785 2.77818C12.2501 3.04968 12.4656 3.37203 12.6126 3.72682C12.7596 4.08161 12.8353 4.46188 12.8353 4.84593C12.8353 5.22997 12.7596 5.61024 12.6126 5.96503C12.4656 6.31982 12.2501 6.64217 11.9785 6.91367L7.27956 11.6126L2.58063 6.91367ZM12.764 7.69952L7.27956 13.1839L1.79496 7.69934C1.03819 6.94257 0.613037 5.91616 0.613037 4.84593C0.613037 3.77569 1.03819 2.74928 1.79496 1.99251C2.55173 1.23574 3.57814 0.810587 4.64838 0.810587C5.61717 0.810587 6.55005 1.15896 7.27953 1.78634C7.60354 1.50761 7.97028 1.2817 8.36632 1.1176C8.85595 0.914725 9.38075 0.810303 9.91075 0.810303C10.4407 0.810303 10.9655 0.914725 11.4552 1.1176C11.9446 1.32042 12.3894 1.61765 12.764 1.99233C13.1387 2.36693 13.4363 2.81202 13.6391 3.30149C13.8419 3.79112 13.9464 4.31593 13.9464 4.84593C13.9464 5.37592 13.8419 5.90073 13.6391 6.39036C13.4362 6.87991 13.1387 7.32489 12.764 7.69952C12.764 7.69946 12.7639 7.69959 12.764 7.69952Z" fill="black" fill-opacity="0.6"/>
</svg>
