<svg width="23" height="16" viewBox="0 0 23 16" fill="none" xmlns="http://www.w3.org/2000/svg">
<path d="M21.5604 2.87433L22.0524 2.78558C22.0505 2.77462 22.0481 2.76373 22.0454 2.75293L21.5604 2.87433ZM19.7087 0.965341L19.8448 0.484226C19.839 0.482583 19.8331 0.481045 19.8273 0.479613L19.7087 0.965341ZM11.5 0.564453V0.0644531V0.564453ZM3.29134 1.00352L3.16214 0.520447L3.15522 0.522406L3.29134 1.00352ZM1.43961 2.91251L0.954576 2.79111C0.951871 2.80192 0.949528 2.81281 0.947551 2.82378L1.43961 2.91251ZM1.00055 7.9618L1.50057 7.96494L1.50054 7.95933L1.00055 7.9618ZM1.43961 13.0493L0.947555 13.138C0.950484 13.1543 0.954215 13.1703 0.958734 13.1862L1.43961 13.0493ZM3.29134 14.8819L3.15937 15.3642L3.16215 15.3649L3.29134 14.8819ZM11.5 15.321V14.821V15.321ZM19.7087 14.8819L19.8379 15.365L19.8448 15.363L19.7087 14.8819ZM21.5604 12.9729L22.0454 13.0943C22.0481 13.0835 22.0505 13.0726 22.0525 13.0616L21.5604 12.9729ZM21.9995 7.9618L21.4994 7.95866L21.4995 7.96359L21.9995 7.9618ZM9.35238 11.083H8.85238C8.85238 11.261 8.94707 11.4257 9.10097 11.5152C9.25488 11.6047 9.44478 11.6056 9.59956 11.5176L9.35238 11.083ZM14.8407 7.9618L15.0879 8.39643C15.2442 8.30755 15.3407 8.14159 15.3407 7.9618C15.3407 7.782 15.2442 7.61605 15.0879 7.52716L14.8407 7.9618ZM9.35238 4.84059L9.59956 4.40596C9.44478 4.31794 9.25488 4.31887 9.10097 4.4084C8.94707 4.49793 8.85238 4.66254 8.85238 4.84059H9.35238ZM22.0454 2.75293C21.9107 2.21458 21.6362 1.72132 21.2498 1.32297L20.5321 2.01923C20.7959 2.29126 20.9833 2.6281 21.0753 2.99574L22.0454 2.75293ZM21.2498 1.32297C20.8635 0.924627 20.3788 0.635304 19.8448 0.484226L19.5725 1.44646C19.9372 1.54963 20.2682 1.7472 20.5321 2.01923L21.2498 1.32297ZM19.8273 0.479613C19.369 0.367703 18.6096 0.290817 17.7667 0.234683C16.9108 0.177687 15.9287 0.139886 15.0022 0.114748C14.075 0.0895907 13.1998 0.0770231 12.5566 0.0707409C12.2349 0.0675989 11.9711 0.0660271 11.7875 0.0652407C11.6957 0.0648475 11.624 0.0646506 11.5752 0.064552C11.5507 0.0645027 11.532 0.064478 11.5194 0.0644656C11.5131 0.0644594 11.5083 0.0644563 11.505 0.0644547C11.5034 0.0644539 11.5022 0.0644535 11.5013 0.0644533C11.5009 0.0644532 11.5006 0.0644532 11.5004 0.0644532C11.5002 0.0644531 11.5002 0.0644531 11.5001 0.0644531C11.5 0.0644531 11.5 0.0644531 11.5 0.564453C11.5 1.06445 11.5 1.06445 11.5 1.06445C11.5001 1.06445 11.5001 1.06445 11.5002 1.06445C11.5004 1.06445 11.5007 1.06445 11.5011 1.06445C11.5018 1.06445 11.503 1.06445 11.5045 1.06445C11.5076 1.06446 11.5122 1.06446 11.5184 1.06447C11.5307 1.06448 11.5491 1.0645 11.5731 1.06455C11.6213 1.06465 11.6923 1.06484 11.7832 1.06523C11.9652 1.06601 12.2272 1.06757 12.5469 1.07069C13.1863 1.07694 14.0554 1.08943 14.9751 1.11438C15.8956 1.13935 16.863 1.17672 17.7002 1.23247C18.5504 1.28909 19.2275 1.36254 19.5901 1.45107L19.8273 0.479613ZM11.5 0.564453C11.5 0.0644531 11.5 0.0644531 11.4999 0.0644531C11.4998 0.0644531 11.4997 0.0644532 11.4996 0.0644532C11.4994 0.0644532 11.4991 0.0644532 11.4987 0.0644534C11.4978 0.0644536 11.4966 0.064454 11.495 0.0644549C11.4917 0.0644566 11.4869 0.06446 11.4806 0.0644668C11.4679 0.0644804 11.4492 0.0645075 11.4247 0.0645615C11.3759 0.0646696 11.3041 0.0648853 11.2123 0.0653162C11.0286 0.0661778 10.7647 0.0678999 10.4429 0.0713422C9.79956 0.0782246 8.92405 0.0919933 7.99647 0.119557C7.06968 0.147097 6.08689 0.188522 5.23017 0.25101C4.38744 0.312477 3.62441 0.39687 3.16215 0.520497L3.42052 1.48655C3.77913 1.39064 4.45261 1.31038 5.30292 1.24836C6.13924 1.18736 7.10601 1.14646 8.02617 1.11912C8.94553 1.0918 9.81436 1.07812 10.4536 1.07128C10.7731 1.06787 11.0351 1.06616 11.217 1.06531C11.3079 1.06488 11.3788 1.06467 11.427 1.06456C11.451 1.06451 11.4694 1.06448 11.4816 1.06447C11.4878 1.06446 11.4924 1.06446 11.4955 1.06445C11.497 1.06445 11.4982 1.06445 11.4989 1.06445C11.4993 1.06445 11.4996 1.06445 11.4998 1.06445C11.4999 1.06445 11.4999 1.06445 11.5 1.06445C11.5 1.06445 11.5 1.06445 11.5 0.564453ZM3.15522 0.522406C2.62122 0.673484 2.13655 0.962807 1.75015 1.36115L2.46794 2.05741C2.73181 1.78538 3.06279 1.58781 3.42745 1.48464L3.15522 0.522406ZM1.75015 1.36115C1.36376 1.7595 1.08932 2.25276 0.954576 2.79111L1.92465 3.03392C2.01667 2.66628 2.20408 2.32944 2.46794 2.05741L1.75015 1.36115ZM0.947551 2.82378C0.641662 4.52 0.492035 6.24071 0.500552 7.96427L1.50054 7.95933C1.49233 6.29693 1.63664 4.63728 1.93168 3.00125L0.947551 2.82378ZM0.500555 7.95866C0.489652 9.6952 0.639288 11.429 0.947555 13.138L1.93167 12.9605C1.63435 11.3122 1.49002 9.63985 1.50054 7.96494L0.500555 7.95866ZM0.958734 13.1862C1.10729 13.7078 1.38787 14.1823 1.77336 14.5639L2.4768 13.8531C2.21354 13.5926 2.02194 13.2685 1.92049 12.9123L0.958734 13.1862ZM1.77336 14.5639C2.15886 14.9454 2.63624 15.221 3.15938 15.3642L3.42329 14.3996C3.06605 14.3019 2.74005 14.1136 2.4768 13.8531L1.77336 14.5639ZM3.16215 15.3649C3.62441 15.4885 4.38744 15.5729 5.23017 15.6344C6.08689 15.6969 7.06968 15.7383 7.99647 15.7659C8.92405 15.7934 9.79956 15.8072 10.4429 15.8141C10.7647 15.8175 11.0286 15.8192 11.2123 15.8201C11.3041 15.8205 11.3759 15.8207 11.4247 15.8209C11.4492 15.8209 11.4679 15.8209 11.4806 15.8209C11.4869 15.821 11.4917 15.821 11.495 15.821C11.4966 15.821 11.4978 15.821 11.4987 15.821C11.4991 15.821 11.4994 15.821 11.4996 15.821C11.4997 15.821 11.4998 15.821 11.4999 15.821C11.5 15.821 11.5 15.821 11.5 15.321C11.5 14.821 11.5 14.821 11.5 14.821C11.4999 14.821 11.4999 14.821 11.4998 14.821C11.4996 14.821 11.4993 14.821 11.4989 14.821C11.4982 14.821 11.497 14.821 11.4955 14.821C11.4924 14.821 11.4878 14.821 11.4816 14.8209C11.4694 14.8209 11.451 14.8209 11.427 14.8209C11.3788 14.8207 11.3079 14.8205 11.217 14.8201C11.0351 14.8193 10.7731 14.8175 10.4536 14.8141C9.81436 14.8073 8.94553 14.7936 8.02617 14.7663C7.10601 14.739 6.13924 14.6981 5.30292 14.6371C4.45261 14.575 3.77913 14.4948 3.42052 14.3989L3.16215 15.3649ZM11.5 15.321C11.5 15.821 11.5 15.821 11.5001 15.821C11.5002 15.821 11.5003 15.821 11.5004 15.821C11.5006 15.821 11.5009 15.821 11.5013 15.821C11.5022 15.821 11.5034 15.821 11.505 15.821C11.5083 15.821 11.5131 15.821 11.5194 15.8209C11.5321 15.8209 11.5508 15.8209 11.5753 15.8209C11.6241 15.8207 11.6959 15.8205 11.7877 15.8201C11.9714 15.8192 12.2353 15.8175 12.5571 15.8141C13.2004 15.8072 14.0759 15.7934 15.0035 15.7659C15.9303 15.7383 16.9131 15.6969 17.7698 15.6344C18.6126 15.5729 19.3756 15.4885 19.8378 15.3649L19.5795 14.3989C19.2209 14.4948 18.5474 14.575 17.6971 14.6371C16.8608 14.6981 15.894 14.739 14.9738 14.7663C14.0545 14.7936 13.1856 14.8073 12.5464 14.8141C12.2269 14.8175 11.9649 14.8193 11.783 14.8201C11.6921 14.8205 11.6212 14.8207 11.573 14.8209C11.549 14.8209 11.5306 14.8209 11.5184 14.8209C11.5122 14.821 11.5076 14.821 11.5045 14.821C11.503 14.821 11.5018 14.821 11.5011 14.821C11.5007 14.821 11.5004 14.821 11.5002 14.821C11.5001 14.821 11.5001 14.821 11.5 14.821C11.5 14.821 11.5 14.821 11.5 15.321ZM19.8448 15.363C20.3788 15.2119 20.8635 14.9226 21.2498 14.5243L20.5321 13.828C20.2682 14.1 19.9372 14.2976 19.5725 14.4008L19.8448 15.363ZM21.2498 14.5243C21.6362 14.1259 21.9107 13.6327 22.0454 13.0943L21.0753 12.8515C20.9833 13.2191 20.7959 13.556 20.5321 13.828L21.2498 14.5243ZM22.0525 13.0616C22.356 11.3782 22.5056 9.67058 22.4995 7.96L21.4995 7.96359C21.5054 9.61347 21.3611 11.2605 21.0683 12.8842L22.0525 13.0616ZM22.4994 7.96494C22.5103 6.2284 22.3607 4.49457 22.0524 2.78558L21.0683 2.96309C21.3657 4.61144 21.51 6.28374 21.4995 7.95866L22.4994 7.96494ZM9.59956 11.5176L15.0879 8.39643L14.5936 7.52716L9.10521 10.6484L9.59956 11.5176ZM15.0879 7.52716L9.59956 4.40596L9.10521 5.27523L14.5936 8.39643L15.0879 7.52716ZM8.85238 4.84059V11.083H9.85238V4.84059H8.85238Z" fill="black" fill-opacity="0.6"/>
</svg>
