<svg width="73" height="11" viewBox="0 0 73 11" fill="none" xmlns="http://www.w3.org/2000/svg">
<path d="M44.8815 5.18999L44.992 5.44119C45.0473 5.18999 44.992 4.93879 44.8815 5.18999Z" fill="black"/>
<path d="M45.1578 4.42969C45.1025 4.42969 45.1025 4.42969 45.1025 4.68089C45.1578 4.68089 45.1578 4.68089 45.2131 4.68089C45.2131 4.68089 45.2131 4.42969 45.1578 4.42969Z" fill="black"/>
<path d="M44.6051 5.1875C44.6051 5.1875 44.6604 5.4387 44.7156 5.4387C44.7709 5.4387 44.8262 5.43871 44.7709 5.1875H44.6051Z" fill="black"/>
<path d="M38.1943 5.68871C38.2442 5.68871 38.2442 5.68871 38.2442 5.4375C38.1943 5.68871 38.1943 5.68871 38.1943 5.68871Z" fill="black"/>
<path d="M45.821 5.4387C45.8763 5.4387 45.9316 5.43871 45.9316 5.1875C45.8763 5.1875 45.821 5.1875 45.821 5.4387Z" fill="black"/>
<path d="M43.6103 5.18999C43.4998 4.93879 43.3893 5.18999 43.334 5.44119C43.4445 5.44119 43.555 5.44119 43.6656 5.44119C43.7761 5.44119 43.8866 5.4412 43.9419 5.18999C43.8314 5.4412 43.7208 5.4412 43.6103 5.18999Z" fill="black"/>
<path d="M47.0368 4.6875C46.9815 4.6875 46.9263 4.6875 46.9263 4.6875C46.9815 4.93871 47.0368 4.93871 47.0368 4.6875Z" fill="black"/>
<path d="M37.9733 5.68871C38.0231 5.68871 38.0231 5.68871 37.9733 5.68871C38.0231 5.68871 38.0231 5.68871 38.0231 5.4375C38.0231 5.68871 38.0231 5.68871 37.9733 5.68871Z" fill="black"/>
<path d="M51.3475 5.4384C51.3475 5.1872 51.3885 5.1872 51.3475 5.4384C51.3475 5.1872 51.3475 5.1872 51.3475 5.4384Z" fill="black"/>
<path d="M50.9055 5.1875C50.7949 5.1875 50.7949 5.1875 50.7949 5.4387C50.8502 5.4387 50.9055 5.4387 50.9607 5.4387C51.016 5.1875 50.9607 5.1875 50.9055 5.1875Z" fill="black"/>
<path d="M50.0211 5.4384C50.1316 5.68961 50.1869 5.68961 50.1869 5.4384C50.0764 5.1872 50.0211 5.1872 50.0211 5.4384Z" fill="black"/>
<path d="M49.0817 5.4384C49.1369 5.68961 49.2475 5.4384 49.3027 5.4384C49.2475 5.4384 49.1922 5.4384 49.1369 5.4384C49.1369 5.1872 49.0817 5.1872 49.0817 5.4384Z" fill="black"/>
<path d="M49.579 5.4387C49.6342 5.4387 49.6342 5.4387 49.6895 5.4387C49.7448 5.4387 49.7448 5.43871 49.7448 5.1875C49.7448 5.1875 49.6895 5.1875 49.579 5.4387C49.579 5.1875 49.579 5.1875 49.579 5.4387Z" fill="black"/>
<path d="M29.8438 6.44531C29.8438 6.44531 29.7939 6.44531 29.7939 6.69652C29.7939 6.44531 29.8438 6.44531 29.8438 6.44531C29.8438 6.69652 29.8438 6.69652 29.8438 6.44531Z" fill="black"/>
<path d="M49.4133 1.16527C49.5791 1.16527 49.7449 1.41647 49.9107 1.41647C50.0765 1.41647 50.187 1.41647 50.2975 1.16527C50.4081 1.41647 50.4633 1.41647 50.5739 1.41647C50.9607 1.16527 51.3476 1.16527 51.7344 1.16527C52.1213 1.16527 52.5082 1.16527 52.895 1.16527C52.9503 1.16527 52.9503 1.16527 53.0055 1.41647C53.0055 1.41647 53.0608 1.41647 53.0608 1.66768C53.2819 1.41647 53.5029 1.16527 53.724 1.41647C53.9451 1.66768 54.1109 1.66768 54.3319 1.16527C53.3924 0.914062 52.5634 0.914062 51.7897 0.914062C51.016 1.16527 50.2423 1.16527 49.4133 1.16527C49.358 1.16527 49.358 1.16527 49.4133 1.16527Z" fill="black"/>
<path d="M48.8053 1.66874C48.8606 1.66874 48.9711 1.66874 49.0264 1.66874C49.0816 1.66874 49.1922 1.66874 49.2474 1.66874C49.2474 1.66874 49.2474 1.41754 49.3027 1.41754V1.16633C49.1922 1.16633 49.1369 1.16633 49.0816 1.16633C49.0264 1.41754 48.9711 1.41754 48.9158 1.41754C48.9711 1.41754 48.9711 1.16633 48.9711 1.16633C48.9711 1.16633 48.9158 0.915129 48.8606 1.16633C48.8053 1.16633 48.8053 1.41754 48.8606 1.41754C48.8606 1.41754 48.8606 1.41754 48.8053 1.66874Z" fill="black"/>
<path d="M52.5634 4.42969C52.5634 4.68089 52.5634 4.9321 52.6186 4.9321C52.6186 4.68089 52.6186 4.68089 52.6739 4.42969C52.6739 4.42969 52.6186 4.42969 52.5634 4.42969Z" fill="black"/>
<path d="M54.8293 1.41527C54.8293 1.16406 54.8293 1.16406 54.8293 1.41527C54.7741 1.16406 54.7741 1.16406 54.7741 1.16406C54.7741 1.16406 54.6635 1.41527 54.553 1.16406C54.4425 1.16406 54.3872 1.16406 54.3872 1.41527C54.4425 1.66647 54.553 1.66647 54.6083 1.66647C54.7188 1.41527 54.7741 1.41527 54.8293 1.41527Z" fill="black"/>
<path d="M33.7123 6.19531H33.6625V6.44652H33.7123V6.19531Z" fill="black"/>
<path d="M29.9044 6.44652C30.015 6.44652 30.1255 6.44652 30.1255 6.19531C30.0702 6.44652 30.015 6.44652 29.9044 6.44652C29.9044 6.19531 29.9044 6.44652 29.9044 6.44652Z" fill="black"/>
<path d="M32.8335 6.44653H32.944V6.19531H32.8335V6.44653Z" fill="black"/>
<path d="M35.4863 5.68871C35.5969 5.93991 35.6521 5.68871 35.6521 5.4375C35.5969 5.4375 35.5969 5.4375 35.5416 5.4375C35.5416 5.68871 35.4863 5.68871 35.4863 5.68871Z" fill="black"/>
<path d="M33.2756 2.42308C33.2756 2.67429 33.2756 2.67429 33.3309 2.67429C33.3309 2.42308 33.3309 2.42308 33.4414 2.42308C33.552 2.42308 33.552 2.42308 33.552 2.17188C33.3309 2.17188 33.0546 2.17188 32.7782 2.17188C32.5019 2.17188 32.2256 2.17187 32.0045 2.42308V2.67429C32.3914 2.92549 32.8335 2.67429 33.2756 2.42308Z" fill="black"/>
<path d="M28.3017 6.44531C28.2464 6.44531 28.1912 6.44531 28.1912 6.69652C28.2464 6.69652 28.3017 6.94772 28.357 6.94772C28.4122 6.69652 28.357 6.44531 28.3017 6.44531Z" fill="black"/>
<path d="M34.0493 2.67549C33.9941 2.42429 33.9941 2.42429 34.0493 2.67549C34.1599 2.42429 34.1599 2.42429 34.1046 2.17308C34.0493 1.92188 33.9941 1.92188 33.8835 1.92188C33.773 1.92188 33.7177 2.17308 33.6625 2.17308C33.7177 2.42429 33.773 2.42429 33.8283 2.42429C33.8835 2.42429 33.9941 2.42429 34.0493 2.67549Z" fill="black"/>
<path d="M34.3258 2.42523C34.381 2.42523 34.4363 2.42523 34.4916 2.67643C34.7679 2.42523 34.989 2.42523 35.2653 2.67643L35.3758 2.42523C35.4311 2.42523 35.4863 2.17402 35.5416 2.17402C35.9837 2.17402 36.4259 2.42523 36.868 2.42523C37.3101 2.42523 37.8075 2.42523 38.3602 2.42523C38.3602 2.42523 38.4154 2.42523 38.4154 2.17402C38.4154 2.17402 38.4154 1.92282 38.4707 1.92282C38.6918 1.92282 38.8576 2.17402 38.9681 2.17402C39.0786 2.17402 39.1891 2.17402 39.2997 1.92282C39.5207 2.17402 39.7418 2.17402 39.9629 2.17402C40.1839 1.92282 40.3497 1.92282 40.5708 1.92282C40.5155 2.17402 40.5708 2.17402 40.6813 2.17402C40.7366 1.92282 40.8471 1.92282 40.9024 1.92282C40.9577 1.92282 40.9577 1.92282 40.9577 2.17402L41.0129 2.42523C41.455 2.42523 41.7866 2.42523 42.1182 2.42523C42.4498 2.42523 42.7814 2.42523 43.113 2.42523C43.1683 2.17402 43.2235 2.17402 43.2235 2.17402L43.3341 2.42523C43.4446 2.17402 43.6104 1.92282 43.7209 2.17402C43.8315 2.42523 43.9973 2.17402 44.1078 1.92282C44.2183 2.17402 44.3289 2.42523 44.4394 2.42523C44.5499 2.42523 44.7157 2.42523 44.8263 2.42523C44.992 2.42523 45.1026 2.42523 45.2131 2.17402C45.3236 2.17402 45.4342 2.17402 45.6 2.42523C45.6 2.17402 45.6 2.17402 45.6 2.17402L45.6552 2.42523C45.7105 2.17402 45.7658 1.92282 45.9316 2.17402C46.0421 2.17402 46.1526 2.42523 46.2079 2.42523C46.2632 2.17402 46.3737 2.17402 46.429 2.17402C46.5395 2.17402 46.5948 2.17402 46.7053 2.42523C46.7053 2.17402 46.7053 2.17402 46.7606 2.17402C46.9263 2.42523 47.0921 2.67643 47.2579 2.42523C47.4237 2.42523 47.5895 2.42523 47.7553 2.42523C47.7553 2.17402 47.7553 2.17402 47.8106 2.17402C47.9211 2.42523 48.0869 2.42523 48.1975 2.17402C48.308 2.17402 48.4738 2.17402 48.5843 2.17402C48.4185 1.67161 48.1975 1.67161 48.0317 1.92282C47.8106 2.17402 47.5895 2.17402 47.3685 1.92282C46.9263 1.92282 46.4842 2.17402 45.9868 2.17402C45.4894 2.17402 44.9921 2.17402 44.4947 2.17402C44.4947 2.17402 44.4947 2.42523 44.5499 2.42523C44.6052 2.42523 44.6052 2.42523 44.4947 2.67643C44.3841 2.42523 44.2736 2.42523 44.1631 2.17402C44.0525 2.17402 43.8867 2.17402 43.7762 2.42523C42.9472 2.42523 42.1182 2.42523 41.3998 2.42523C40.6813 2.42523 39.8523 2.67643 39.0786 2.67643C38.8576 2.92764 38.6365 2.92764 38.4707 2.67643C38.2496 2.42523 38.0838 2.67643 37.8628 2.92764C37.3654 2.92764 36.868 2.92764 36.4259 2.92764C35.9837 2.92764 35.4863 3.17884 34.989 3.17884C34.8784 3.17884 34.7679 3.17884 34.5468 2.92764C34.381 2.92764 34.2152 2.92764 34.0494 3.17884C34.2152 2.42523 34.2705 2.42523 34.3258 2.42523Z" fill="black"/>
<path d="M45.9867 3.17557H46.3736C46.4841 3.17557 46.5946 3.17557 46.7052 3.17557C46.6499 2.92437 46.5394 2.92437 46.3183 2.92437C46.0972 2.67316 45.9867 2.92437 45.9867 3.17557Z" fill="black"/>
<path d="M57.4821 3.43059C57.5926 3.43059 57.7031 3.43059 57.7584 3.6818C57.8689 3.6818 57.9242 3.6818 57.9794 3.43059C57.8689 3.43059 57.8137 3.43059 57.7031 3.43059C57.6479 3.17939 57.5373 3.17939 57.4821 3.43059Z" fill="black"/>
<path d="M55.4372 3.18089C55.4925 3.18089 55.5477 3.18089 55.5477 2.92969H55.3267C55.3267 3.18089 55.3819 3.18089 55.4372 3.18089Z" fill="black"/>
<path d="M56.7635 3.18059C56.7635 3.4318 56.8188 3.683 56.9846 3.4318C57.0951 3.4318 57.2057 3.18059 57.2609 3.18059C57.2057 2.92939 57.0951 2.92939 56.9846 3.18059C56.9293 3.18059 56.8741 3.18059 56.7635 3.18059Z" fill="black"/>
<path d="M53.1713 2.92969C53.1713 3.18089 53.1713 3.18089 53.2265 3.18089C53.2818 3.18089 53.3371 3.18089 53.3371 3.18089C53.3923 2.92969 53.3371 2.92969 53.1713 2.92969Z" fill="black"/>
<path d="M54.9951 2.92969C54.9951 3.18089 54.9951 3.18089 55.0504 3.18089H55.2162C55.2714 2.92969 55.1609 2.92969 54.9951 2.92969Z" fill="black"/>
<path d="M54.1661 2.92667C53.9451 2.67547 53.6687 2.92667 53.5029 3.42908C53.7793 3.42908 54.0003 3.17788 54.2767 3.42908C54.4977 3.42908 54.774 3.42908 54.9951 3.17788C54.7188 2.92667 54.4424 2.92667 54.1661 2.92667Z" fill="black"/>
<path d="M66.8219 4.6875C66.7667 4.6875 66.7114 4.6875 66.7114 4.6875C66.6561 4.6875 66.6561 4.93871 66.6561 4.93871C66.6561 5.18991 66.7667 4.93871 66.8219 4.6875Z" fill="black"/>
<path d="M59.969 3.43089C59.9137 3.17969 59.8032 3.17969 59.7479 3.43089C59.9137 3.43089 60.1348 3.6821 60.3558 3.6821C60.5769 3.6821 60.7427 3.6821 60.9638 3.43089C60.8532 3.43089 60.6874 3.43089 60.5769 3.43089C60.5216 3.43089 60.3558 3.43089 60.0795 3.17969C60.0795 3.43089 60.0795 3.6821 59.969 3.43089Z" fill="black"/>
<path d="M72.5131 6.44419C72.4578 6.19299 72.4026 5.94178 72.3473 5.94178C72.3473 5.94178 72.4026 5.94178 72.4026 5.69058C72.4026 5.69058 72.4026 5.69057 72.4026 5.43937C72.4026 5.43937 72.4026 5.18816 72.3473 5.18816C72.2921 5.18816 72.2921 5.18816 72.2921 4.93696C71.7394 4.68575 71.1867 4.18334 70.5788 3.93214C69.9709 3.68093 69.3077 3.42973 68.6445 3.17852C67.9813 2.92732 67.3181 2.67611 66.7102 2.67611L64.9417 2.1737C64.7206 2.1737 64.5549 1.9225 64.3891 1.9225C64.2233 1.9225 64.0575 1.9225 63.9469 2.1737C63.6706 1.9225 63.339 1.67129 63.0074 1.67129C62.6206 1.67129 62.2337 1.67129 61.8468 1.67129C61.3494 1.42009 60.9073 1.16888 60.4099 1.16888C59.9125 1.16888 59.3599 1.16888 58.8625 0.917678C58.8072 0.917678 58.8072 0.917678 58.752 1.16888C58.6967 1.16888 58.6414 1.16888 58.6414 1.16888L58.6967 0.917678C58.3651 0.917678 58.0335 0.666473 57.7019 0.666473C57.4256 0.415268 57.094 0.666473 56.8177 0.917678C56.7624 0.666473 56.7624 0.666473 56.7071 0.666473C56.6519 0.666473 56.5966 0.666473 56.5413 0.415268C56.4308 0.415268 56.265 0.415268 56.1545 0.415268C55.9887 0.415268 55.8781 0.415268 55.7123 0.415268C55.6018 0.415268 55.436 0.415268 55.3255 0.164063C55.1597 0.164063 55.0492 0.164062 55.0492 0.666473C55.436 0.415268 55.7676 0.415268 56.1545 0.415268C56.5413 0.666473 56.8729 0.666473 57.2598 0.666473C57.315 0.666473 57.315 0.666473 57.315 0.917678C57.315 0.917678 57.315 1.16888 57.3703 1.16888C57.4256 1.16888 57.4256 0.917678 57.4256 0.917678C57.4256 0.917678 57.4256 0.917678 57.4808 0.917678C57.7019 1.16888 57.923 1.16888 58.144 0.917678C58.3651 0.666473 58.5309 0.917678 58.6967 1.16888C58.973 1.16888 59.2493 1.16888 59.5257 1.16888C59.802 1.16888 60.0783 1.16888 60.3547 1.16888C60.4099 1.16888 60.4652 1.16888 60.4652 1.16888C60.5205 1.16888 60.5757 1.42009 60.5757 1.42009C60.631 1.42009 60.6863 1.42009 60.6863 1.42009C60.7415 1.42009 60.7968 1.42009 60.9073 1.42009C60.9626 1.42009 61.0731 1.42009 61.1284 1.67129C61.2389 1.67129 61.2942 1.67129 61.4047 1.67129C61.46 1.67129 61.5152 1.42009 61.5705 1.42009C61.6258 1.42009 61.681 1.42009 61.7363 1.16888C61.7916 1.16888 61.8468 1.16888 61.9021 1.42009C61.9574 1.42009 62.0126 1.67129 62.0679 1.67129C62.1784 1.67129 62.3442 1.67129 62.4548 1.67129C62.6206 1.67129 62.7864 1.67129 62.8969 1.67129C63.0074 1.67129 63.1179 1.67129 63.2837 1.67129C63.3943 1.67129 63.5048 1.67129 63.5601 1.67129C63.6153 1.67129 63.6153 1.67129 63.6153 1.9225C63.6153 2.1737 63.6153 2.1737 63.6706 1.9225C63.8364 1.67129 64.0022 1.67129 64.2233 1.9225C64.4443 2.1737 64.6101 2.1737 64.8312 2.42491L64.9417 2.1737C65.3286 2.42491 65.7154 2.67611 66.1023 2.67611C66.4892 2.67611 66.9313 2.92732 67.3181 3.17852C67.6497 3.17852 68.0366 3.17852 68.4787 3.17852C68.8656 3.17852 69.2524 3.42973 69.6393 3.93214C69.8051 3.68093 70.0262 3.68093 70.192 3.93214C70.3577 4.18334 70.4683 4.18334 70.6341 4.43455C70.3577 4.43455 70.0814 4.43455 69.8051 4.43455C69.5288 4.43455 69.3077 4.18334 69.0314 3.93214C68.6998 3.93214 68.3682 3.93214 68.0366 3.68093C67.705 3.42973 67.3734 3.42973 67.0418 3.42973C66.9865 3.17852 66.9865 3.17852 66.9313 3.17852C66.876 3.17852 66.876 3.17852 66.876 2.92732C66.8207 2.92732 66.7655 2.92732 66.7655 2.92732C66.7655 3.17852 66.7102 3.17852 66.7102 3.17852C66.5997 2.92732 66.4339 2.67611 66.3234 2.92732C66.1576 2.92732 66.047 2.92732 65.9365 2.92732C65.6602 2.92732 65.3286 2.92732 65.0522 2.67611C64.7759 2.42491 64.4443 2.42491 64.168 2.42491C63.4495 2.42491 62.6758 2.1737 61.9021 2.1737C61.1284 2.1737 60.3547 1.9225 59.5257 1.9225C59.3599 1.9225 59.1941 1.67129 59.0836 1.67129C58.9178 1.67129 58.752 1.67129 58.6414 1.9225C58.2546 1.67129 57.8124 1.67129 57.4256 1.67129C57.0387 1.67129 56.6519 1.67129 56.265 1.42009C55.8781 1.42009 55.5465 1.42009 55.1597 1.42009C54.7728 1.42009 54.4412 1.42009 54.0544 1.16888C53.6122 1.16888 53.1701 1.16888 52.7833 1.16888C52.3964 1.16888 51.9543 1.16888 51.5674 1.16888C51.1806 1.16888 50.7937 0.917678 50.3516 1.16888C49.9094 1.16888 49.4673 1.16888 49.0805 1.16888C48.5831 1.16888 48.1409 1.16888 47.6436 0.917678C47.2014 0.917678 46.704 0.917678 46.2066 1.16888C46.0961 1.16888 45.9303 1.16888 45.7645 1.16888C45.5987 1.16888 45.4329 1.16888 45.2671 1.16888C45.1566 1.16888 45.0461 1.16888 44.9355 1.16888C44.825 1.16888 44.7697 1.16888 44.6592 1.16888C44.2171 1.16888 43.7197 0.917678 43.2223 0.917678C42.7249 0.917678 42.1722 0.917678 41.6196 1.16888L40.0169 1.42009C39.4642 1.42009 38.9668 1.67129 38.4694 1.67129C37.8063 1.67129 37.1431 1.67129 36.5351 1.67129C35.872 1.67129 35.264 1.67129 34.6008 1.9225C33.7719 1.9225 32.8876 1.9225 32.0034 2.1737C31.1191 2.42491 30.2349 2.42491 29.3506 2.42491C29.4059 2.1737 29.4611 2.1737 29.4611 2.1737C29.5164 2.1737 29.5717 2.1737 29.5717 1.9225C29.6822 2.1737 29.7927 2.42491 29.9585 2.1737C30.1243 1.9225 30.2901 1.9225 30.4007 2.1737C30.4007 2.1737 30.4007 1.9225 30.3454 1.9225C30.3454 1.9225 30.3454 1.9225 30.4007 1.67129C30.5112 1.67129 30.677 1.67129 30.7875 1.67129C30.9533 1.67129 31.0638 1.67129 31.2849 1.67129C31.2849 1.42009 31.3402 1.42009 31.3954 1.42009C31.4507 1.42009 31.506 1.42009 31.5612 1.42009C31.6165 1.42009 31.6718 1.42009 31.727 1.42009C31.7823 1.42009 31.7823 1.16888 31.7823 1.16888C31.2849 1.16888 30.7322 1.42009 30.1243 1.42009C29.5164 1.42009 28.9085 1.67129 28.3006 1.9225C28.2453 1.9225 28.2453 1.9225 28.2453 1.67129C28.2453 1.67129 28.19 1.67129 28.1348 1.67129C27.6926 1.9225 27.2505 1.9225 26.8084 1.9225C26.3663 1.9225 25.9241 1.9225 25.5373 2.1737C25.3162 1.9225 25.0399 1.9225 24.8188 2.1737C24.5425 2.42491 24.3214 2.42491 24.0451 2.1737C23.9898 2.1737 23.9898 2.42491 23.9898 2.42491C23.9898 2.42491 23.9898 2.67611 23.9346 2.67611C23.7688 2.42491 23.603 2.1737 23.4372 2.42491C23.2714 2.67611 23.0503 2.67611 22.8845 2.42491C20.6739 2.92732 18.2975 3.17852 15.921 3.42973C13.4893 3.68093 11.1682 3.68093 8.9023 3.68093C7.52065 3.68093 6.19428 3.93214 4.8679 4.18334C3.59679 4.68575 2.27041 4.68575 0.888768 4.68575C0.778236 4.43455 0.612439 4.18334 0.446642 4.18334C0.280845 4.43455 0.170314 4.93696 0.115048 5.69058C0.0597823 6.19299 0.0045166 6.9466 0.0045166 7.44901C0.115048 8.20263 0.280845 8.70504 0.446642 8.70504C0.667705 8.95624 0.833502 9.20745 1.05456 9.20745H2.10461C2.49147 9.20745 2.87833 9.20745 3.32046 9.20745C3.48626 8.95624 3.65205 8.70504 3.81785 8.70504C3.98365 8.70504 4.14944 8.70504 4.37051 8.70504C4.5363 8.70504 4.75737 8.70504 4.92316 8.70504C5.08896 8.70504 5.31002 8.45383 5.47582 8.45383C5.69688 8.70504 5.91795 8.70504 6.08374 8.70504C6.30481 8.70504 6.52587 8.45383 6.74693 8.45383C6.96799 8.45383 7.18906 8.20263 7.41012 8.20263C7.63118 8.20263 7.90751 8.20263 8.12857 8.20263C8.23911 8.20263 8.34964 7.95142 8.51544 7.95142C9.28916 7.95142 10.0076 7.95142 10.7813 7.70022C11.555 7.44901 12.2735 7.44901 13.0472 7.70022C13.4893 7.44901 13.9315 7.44901 14.3736 7.44901C14.871 7.44901 15.3131 7.44901 15.8105 7.70022C15.8658 7.44901 15.921 7.19781 16.0868 7.44901C16.2526 7.44901 16.3632 7.44901 16.529 7.44901C16.529 7.44901 16.529 7.19781 16.4737 7.19781C16.4184 7.19781 16.4737 6.9466 16.529 6.9466C16.5842 6.9466 16.6395 6.9466 16.5842 7.19781C16.5842 7.44901 16.5842 7.44901 16.6948 7.44901C16.6948 7.44901 16.6948 7.19781 16.6395 7.19781C16.5842 7.19781 16.5842 7.19781 16.6948 6.9466C16.8053 7.44901 16.9711 7.44901 17.0816 7.19781C17.2474 6.9466 17.4132 6.9466 17.5237 7.19781C17.5237 6.9466 17.5237 6.69539 17.6343 6.69539C17.6895 6.69539 17.7448 6.9466 17.7448 6.69539C17.8001 6.69539 17.8553 6.69539 17.9659 6.69539C17.9659 6.69539 17.9659 6.9466 17.9106 6.9466C17.8553 6.9466 17.8553 6.9466 17.8553 7.19781C17.9659 7.19781 18.0211 7.19781 18.0211 7.19781C18.0211 7.19781 18.0211 6.9466 18.0764 6.69539C18.1317 6.69539 18.1317 6.6954 18.1317 6.9466C18.0764 6.9466 18.1317 7.19781 18.1317 7.19781C18.408 7.19781 18.6843 6.9466 18.9054 6.9466C19.1264 6.9466 19.3475 6.9466 19.5686 7.19781C19.6238 6.6954 19.7344 6.6954 19.8449 6.9466C19.8449 6.6954 19.9002 6.44419 19.9554 6.44419C20.066 6.44419 20.066 6.19299 20.0107 5.94178C20.1212 5.94178 20.1212 6.19299 20.066 6.19299C20.0107 6.44419 20.0107 6.44419 20.066 6.69539H19.8449C19.8449 6.9466 19.9002 7.19781 20.0107 6.9466C20.1212 6.6954 20.1212 6.69539 20.1212 6.69539C20.1765 6.9466 20.2318 6.9466 20.287 6.69539C20.3423 6.44419 20.3976 6.44419 20.4528 6.69539C20.3976 6.69539 20.3976 6.9466 20.3976 6.9466C20.3976 7.19781 20.4528 7.19781 20.4528 7.19781C20.4528 6.6954 20.5634 6.19299 20.6739 6.19299C20.7292 6.44419 20.7292 6.44419 20.6739 6.44419C20.6186 6.44419 20.6186 6.69539 20.6739 6.69539C20.7844 6.44419 20.9502 6.44419 21.0607 6.69539C21.0607 6.69539 21.0607 6.44419 21.0055 6.44419C20.9502 6.44419 21.0055 6.19299 21.0607 6.19299C21.116 6.19299 21.1713 6.19299 21.116 6.44419C21.116 6.6954 21.116 6.69539 21.1713 6.69539C21.2265 6.69539 21.3371 6.44419 21.3923 6.19299C21.4476 6.19299 21.4476 6.19299 21.4476 6.44419C21.4476 6.6954 21.4476 6.69539 21.5029 6.69539C21.6134 6.44419 21.7239 6.44419 21.8345 6.44419C21.945 6.44419 22.0003 6.44419 22.0555 6.69539C22.1108 6.44419 22.2213 6.44419 22.2766 6.44419C22.3871 6.44419 22.4977 6.44419 22.6082 6.44419C22.7187 6.44419 22.8293 6.44419 22.9398 6.44419C23.0503 6.44419 23.1056 6.19299 23.2161 5.94178V6.19299C23.2161 6.19299 23.2161 6.19299 23.2161 6.44419C23.3819 6.44419 23.4924 6.44419 23.6582 6.44419C23.824 6.19299 23.9346 6.44419 23.8793 6.69539C23.9346 6.69539 23.9898 6.44419 24.0451 6.19299C24.1004 5.94178 24.1556 5.94178 24.2662 5.69058C24.3214 5.69058 24.3214 5.94178 24.3214 6.19299C24.3767 6.19299 24.4872 6.19299 24.5425 6.19299C24.5978 6.19299 24.653 6.19299 24.653 6.44419C24.653 6.44419 24.7083 6.19299 24.7083 5.94178C24.7083 5.69057 24.7083 5.69057 24.7635 5.43937C24.8188 5.43937 24.8741 5.69058 24.8188 5.69058C24.8188 5.69058 24.8188 5.94178 24.8741 5.94178C25.0399 5.69057 25.2057 5.43937 25.3715 5.69058C25.5373 5.94178 25.7031 5.69057 25.8136 5.43937V5.69058C25.9241 5.69058 25.9794 5.69058 26.0347 5.69058C26.0899 5.69058 26.1452 5.69057 26.2005 5.43937C26.2557 5.69057 26.3663 5.94178 26.4215 5.94178C26.4768 5.94178 26.4768 5.69058 26.4768 5.69058C26.4768 5.43937 26.4768 5.43937 26.5873 5.69058C26.5321 5.69058 26.5321 5.94178 26.5321 5.94178C26.5873 5.94178 26.6426 5.94178 26.6978 5.94178C26.7531 5.94178 26.8084 5.94178 26.8636 5.94178V5.69058H26.7531C26.6978 5.69058 26.6978 5.69058 26.6978 5.69058C26.6978 5.69058 26.6978 5.69057 26.6978 5.43937C26.8084 5.43937 26.9189 5.43937 27.0847 5.43937C27.14 5.43937 27.14 5.69058 27.14 5.69058C27.0847 5.69058 27.14 5.94178 27.2505 5.94178H27.3058L27.361 5.69058C27.4716 5.69058 27.4716 5.69057 27.4716 5.94178C27.4716 6.19299 27.4716 6.19299 27.5268 6.19299C27.5821 6.19299 27.5821 5.94178 27.5821 5.94178C27.5821 5.94178 27.5821 5.69058 27.6374 5.69058H27.8584C27.8584 5.94178 27.8584 5.94178 27.9137 6.19299V5.94178C27.9137 5.94178 27.9137 5.69058 27.969 5.69058C28.0795 5.69058 28.19 5.69058 28.3006 5.69058C28.4111 5.43937 28.5216 5.69057 28.5769 5.94178C28.6321 5.94178 28.6874 5.69057 28.7427 5.43937C28.7979 5.18816 28.8532 5.18816 28.9637 5.18816C28.9637 5.18816 29.019 5.18816 29.019 5.43937C29.0743 5.43937 29.1295 5.43937 29.1848 5.18816C29.2401 4.93696 29.2953 4.93696 29.3506 4.93696C29.3506 5.18816 29.3506 5.18816 29.4059 5.18816C29.4611 5.18816 29.4611 5.43937 29.4059 5.43937C29.5717 4.93696 29.7375 4.93696 29.9033 4.93696C30.0691 4.93696 30.2901 4.93696 30.4559 5.43937C30.4559 5.43937 30.4559 5.18816 30.4007 5.18816C30.3454 5.18816 30.3454 5.18816 30.4559 4.93696C30.5112 5.18816 30.5664 5.18816 30.677 4.93696C30.7322 4.93696 30.8428 4.93696 30.898 4.93696C30.7875 5.18816 30.677 5.18816 30.5664 5.18816C30.677 5.43937 30.8428 5.69057 30.9533 5.43937C31.0638 5.18816 31.2296 5.43937 31.3402 5.69058C31.4507 5.43937 31.5612 5.18816 31.6718 5.43937C31.7823 5.69057 31.9481 5.69057 32.0586 5.43937V4.93696C31.9481 4.93696 31.8376 4.93696 31.6718 4.93696C31.6165 5.18816 31.506 4.93696 31.4507 4.68575C31.6718 4.68575 31.8928 4.43455 32.0586 4.68575C32.2244 4.68575 32.3902 4.68575 32.6113 4.43455C32.6113 4.68575 32.6113 4.68575 32.556 4.68575C32.5007 4.68575 32.4455 4.68575 32.3902 4.68575C32.3349 4.68575 32.2797 4.68575 32.2244 4.68575C32.1692 4.68575 32.1692 4.93696 32.2244 4.93696C32.3349 4.68575 32.4455 4.68575 32.5007 4.68575C32.6113 4.93696 32.7218 4.93696 32.8876 4.68575C32.8876 4.43455 32.8876 4.18334 32.9429 4.18334C32.9981 4.43455 33.0534 4.43455 33.0534 4.18334C33.1087 4.18334 33.1639 4.18334 33.1639 4.18334C33.2192 4.43455 33.2192 4.43455 33.1087 4.43455C32.9981 4.43455 32.9981 4.43455 32.9981 4.43455C32.9981 4.68575 33.1087 4.68575 33.2192 4.43455C33.2745 4.43455 33.2745 4.18334 33.2745 4.18334L33.2192 3.93214C33.2745 4.18334 33.385 3.93214 33.4403 3.93214C33.4955 3.68093 33.5508 3.68093 33.6061 3.93214C33.5508 3.93214 33.5508 4.18334 33.5508 4.18334C33.5508 4.18334 33.6061 4.18334 33.6061 4.43455C33.4403 4.43455 33.385 4.43455 33.385 4.93696C33.4403 4.68575 33.5508 4.68575 33.6061 4.68575C33.6613 4.68575 33.7719 4.68575 33.8824 4.43455C33.8824 3.93214 33.9377 3.93214 34.0482 3.93214C34.1587 3.93214 34.2692 3.93214 34.3798 3.93214V4.18334C34.3798 4.18334 34.3798 4.18334 34.3798 4.43455H34.7666C34.7666 4.18334 34.7114 4.18334 34.6008 4.18334C34.4903 4.18334 34.4903 4.18334 34.4903 3.93214C34.7114 3.93214 34.9324 3.93214 35.1535 3.93214C35.3746 3.93214 35.5956 3.93214 35.7614 3.42973C35.9272 3.93214 36.093 4.18334 36.2588 4.18334C36.4799 4.18334 36.6457 4.18334 36.8667 3.93214C36.7562 3.93214 36.6457 3.93214 36.4799 3.93214C36.3693 3.93214 36.2588 3.93214 36.093 3.93214C36.3141 3.68093 36.5351 3.68093 36.7562 3.68093C36.9773 3.68093 37.1431 3.68093 37.3641 3.42973C37.3089 3.68093 37.3641 3.68093 37.4194 3.68093C37.4747 3.68093 37.4747 3.68093 37.4194 3.68093C37.4747 3.68093 37.5299 3.93214 37.5852 3.93214C37.6405 3.93214 37.751 3.93214 37.8063 4.18334C37.8063 3.68093 37.8615 3.42973 37.9168 3.42973C37.9721 3.42973 38.0826 3.42973 38.1379 3.68093C38.1931 3.93214 38.2484 3.93214 38.3589 3.93214C38.4142 3.93214 38.4142 3.68093 38.3036 3.68093C38.1931 3.68093 38.1931 3.42973 38.2484 3.42973C38.3036 3.42973 38.4142 3.42973 38.4694 3.42973C38.5247 3.17852 38.6352 3.42973 38.6905 3.68093C38.6352 3.68093 38.6352 3.68093 38.6352 3.68093H38.58C38.5247 3.93214 38.5247 4.18334 38.4694 4.18334C38.6905 3.93214 38.8563 3.93214 39.0774 3.93214C39.2432 4.18334 39.409 3.93214 39.5748 3.68093H39.3537C39.2984 3.68093 39.2432 3.68093 39.1879 3.42973C39.4642 3.42973 39.7406 3.42973 40.0169 3.42973C39.9064 3.42973 39.8511 3.68093 39.8511 3.68093C39.9064 3.68093 39.9616 3.68093 39.9616 3.93214C40.1274 3.93214 40.2932 3.68093 40.459 3.68093C40.5695 3.68093 40.7353 3.42973 40.7906 3.17852C40.8459 3.42973 40.9564 3.42973 41.0117 3.42973C41.1222 3.42973 41.2327 3.42973 41.3433 3.42973C41.3985 3.42973 41.3985 3.68093 41.3433 3.68093C41.288 3.68093 41.3433 3.93214 41.3985 3.93214C41.3985 3.68093 41.3985 3.42973 41.4538 3.68093C41.5091 3.68093 41.5091 3.93214 41.5091 3.93214C41.5643 3.93214 41.5643 3.68093 41.5091 3.68093C41.4538 3.68093 41.5091 3.42973 41.5091 3.42973C41.5643 3.42973 41.6196 3.42973 41.6749 3.68093C41.6749 3.93214 41.7854 3.93214 41.8959 3.93214C41.8959 3.68093 41.8959 3.42973 41.9512 3.42973C41.9512 3.68093 41.9512 3.68093 42.0065 3.68093C42.0617 3.68093 42.0617 3.93214 42.0617 4.18334C42.1722 4.18334 42.2828 3.93214 42.3933 4.18334C42.5038 4.18334 42.5591 4.18334 42.6696 3.93214C42.7802 4.18334 42.8354 4.18334 42.946 4.18334C43.0565 4.18334 43.167 3.93214 43.2223 3.93214C43.3328 3.68093 43.4434 3.68093 43.4986 3.42973C43.6092 3.17852 43.6644 3.17852 43.7749 2.92732V3.17852C43.7749 3.17852 43.7749 3.17852 43.7749 3.42973C43.8302 3.42973 43.8302 3.42973 43.8855 3.42973C43.9408 3.42973 43.996 3.42973 43.996 3.42973L43.9408 3.68093C43.996 3.68093 44.0513 3.68093 44.1065 3.68093C44.1618 3.68093 44.2171 3.68093 44.2723 3.68093C44.2723 3.93214 44.2723 3.93214 44.2171 3.93214C44.1618 3.93214 44.1065 3.93214 44.1065 3.93214C44.0513 3.93214 44.0513 3.93214 43.996 3.93214C43.996 3.93214 43.9408 3.93214 43.9408 4.18334C43.996 4.18334 44.1065 4.18334 44.1618 4.18334C44.2723 4.18334 44.3276 4.18334 44.3829 3.93214C44.3276 3.93214 44.3276 3.93214 44.3276 3.68093L44.2723 3.42973C44.2723 3.17852 44.3276 3.17852 44.3829 3.17852C44.3829 3.17852 44.4381 3.17852 44.4381 3.42973C44.4381 3.42973 44.4381 3.42973 44.4934 3.42973C44.6039 3.17852 44.7145 3.17852 44.825 2.92732C44.9355 2.92732 45.0461 2.67611 45.1566 2.67611C45.2119 2.67611 45.3224 2.92732 45.3777 2.92732C45.4329 3.17852 45.5435 3.17852 45.5987 3.17852C45.5987 2.92732 45.5987 2.67611 45.654 2.67611C45.5987 2.67611 45.5435 2.67611 45.5435 2.67611C45.4882 2.67611 45.4882 2.67611 45.4882 2.42491C45.5435 2.42491 45.654 2.42491 45.7092 2.42491C45.7645 2.42491 45.8198 2.42491 45.875 2.42491C45.7645 2.67611 45.7092 2.92732 45.7645 3.42973C45.875 3.42973 45.875 3.42973 45.8198 3.17852C45.7645 2.92732 45.7645 2.92732 45.8198 2.92732C45.875 3.17852 45.9303 3.17852 45.9856 3.17852C46.0408 3.17852 46.1514 3.17852 46.2066 3.42973C46.2619 3.68093 46.3724 3.68093 46.4277 3.68093H46.7593C46.704 3.42973 46.7593 3.42973 46.8698 3.17852C46.9251 2.92732 47.0356 2.92732 47.0909 2.92732C47.1462 3.17852 47.1462 3.17852 47.0909 3.17852C47.0356 3.17852 47.0356 3.17852 47.0356 3.42973C47.1462 3.42973 47.1462 3.42973 47.1462 3.68093C47.2014 3.93214 47.312 3.68093 47.3672 3.68093C47.4225 3.42973 47.4778 3.42973 47.533 3.17852C47.5883 3.42973 47.6435 3.42973 47.6988 3.42973C47.7541 3.42973 47.8093 3.17852 47.8093 3.17852C47.9199 3.68093 48.0304 3.93214 48.1962 3.68093C48.362 3.42973 48.4725 3.42973 48.5831 3.17852C48.6383 3.42973 48.7489 3.42973 48.8594 3.42973C48.9699 3.42973 49.0805 3.42973 49.1357 3.68093C49.191 3.68093 49.191 3.42973 49.2463 3.17852C49.2463 2.92732 49.3568 2.92732 49.4673 2.92732V3.17852V3.42973H49.5226C49.5226 3.42973 49.5226 3.42973 49.4673 3.68093V3.42973H49.4121C49.4121 3.42973 49.4121 3.42973 49.3568 3.42973C49.3568 3.68093 49.3568 3.68093 49.3568 3.68093L49.3015 3.93214C49.3568 3.93214 49.3568 3.93214 49.3568 3.93214C49.4121 3.93214 49.4673 3.93214 49.5226 3.93214C49.5226 3.68093 49.5226 3.42973 49.5779 3.42973C49.6331 3.68093 49.6884 3.68093 49.7436 3.93214C49.7989 3.93214 49.8542 3.93214 49.9094 3.93214C49.9647 3.93214 50.02 3.93214 50.0752 3.68093C50.1305 3.68093 50.1858 3.68093 50.241 3.68093C50.2963 3.68093 50.2963 3.42973 50.2963 3.42973C50.2963 3.42973 50.2963 3.17852 50.3516 3.17852C50.4068 3.17852 50.4068 3.42973 50.4068 3.42973C50.3516 3.68093 50.4068 3.68093 50.5174 3.68093C50.5174 3.42973 50.5174 3.42973 50.5726 3.42973C50.6279 3.42973 50.6279 3.42973 50.6832 3.17852C50.7384 3.17852 50.7384 3.42973 50.7937 3.42973H50.9595C50.9595 3.68093 50.9595 3.68093 51.0148 3.68093C51.07 3.42973 51.1806 3.42973 51.2911 3.68093C51.4569 3.93214 51.5674 3.68093 51.5674 3.42973C51.4569 3.42973 51.4569 3.42973 51.4569 3.17852C51.5121 2.92732 51.5121 2.92732 51.5674 2.67611C51.6227 2.42491 51.6779 2.42491 51.7332 2.67611C51.6779 2.92732 51.6779 2.92732 51.6227 2.92732C51.5674 2.92732 51.5674 2.92732 51.5674 3.17852C51.7332 3.17852 51.899 3.17852 52.0095 3.42973C52.1201 3.68093 52.2859 3.42973 52.3964 3.17852C52.3964 2.92732 52.4517 2.92732 52.5069 2.92732C52.5622 2.92732 52.6175 2.92732 52.6727 2.92732V3.17852H52.7833C52.728 3.17852 52.6727 3.17852 52.6727 3.17852C52.6727 2.92732 52.728 2.67611 52.8385 2.67611C52.8385 2.92732 52.8385 3.17852 52.8385 3.17852C52.8938 3.42973 52.8385 3.68093 52.7833 3.93214C52.8385 3.93214 52.8938 3.68093 53.0043 3.42973C53.0596 3.17852 53.1701 3.17852 53.2254 3.17852C53.2807 3.42973 53.3359 3.68093 53.4464 3.42973C53.557 3.42973 53.6675 3.42973 53.7228 3.68093C53.778 3.42973 53.8333 3.17852 53.8333 3.42973C53.8886 3.68093 53.8886 3.68093 53.8886 3.68093C53.8333 3.68093 53.8333 3.68093 53.8333 3.93214C53.9438 3.93214 53.9438 3.93214 53.9438 3.93214C53.9438 3.68093 53.9991 3.68093 54.0544 3.93214V4.18334C54.1096 4.18334 54.1096 4.18334 54.1096 4.18334C54.1096 3.93214 54.1096 3.93214 54.0544 3.93214C54.1096 3.93214 54.1649 3.68093 54.1649 3.42973C54.1649 3.17852 54.2202 3.17852 54.2754 3.42973C54.2754 3.17852 54.2754 3.17852 54.2754 3.17852C54.2202 3.17852 54.2202 2.92732 54.2202 2.92732C54.2754 2.92732 54.3307 3.17852 54.386 3.17852C54.4412 3.17852 54.4965 3.17852 54.5518 3.42973C54.4965 3.42973 54.4965 3.68093 54.4412 3.68093C54.386 3.68093 54.386 3.68093 54.386 3.93214C54.386 4.18334 54.4412 4.43455 54.4965 4.43455C54.4965 4.18334 54.5518 3.93214 54.6623 3.93214C54.7728 3.93214 54.8281 3.68093 54.8834 3.68093C54.8834 3.68093 54.8834 3.93214 54.8281 3.93214C54.8281 3.93214 54.7728 3.93214 54.7728 4.18334C54.8281 4.18334 54.8834 4.18334 54.8834 3.93214C54.8834 3.93214 54.9386 3.93214 54.9386 4.18334C54.9939 4.18334 54.9939 3.93214 54.9386 3.93214C54.8834 3.93214 54.9386 3.68093 54.9939 3.68093V3.93214C54.9939 3.93214 54.9939 3.93214 55.0492 3.93214C55.0492 3.93214 55.0492 4.18334 54.9939 4.18334C54.9386 4.18334 54.9386 4.43455 54.9386 4.43455C54.9939 4.43455 55.0492 4.43455 55.0492 4.43455C55.1044 4.43455 55.1044 4.43455 55.1597 4.43455C55.1597 4.18334 55.1597 4.18334 55.215 4.18334C55.2702 4.18334 55.2702 4.18334 55.2702 4.43455C55.2702 4.43455 55.2702 4.68575 55.3255 4.68575C55.3255 4.43455 55.3255 4.43455 55.3807 4.43455C55.436 4.68575 55.4913 4.68575 55.5465 4.68575C55.6018 4.43455 55.7123 4.43455 55.8229 4.18334C55.8781 4.43455 55.9334 4.43455 56.0992 4.43455C56.2097 4.43455 56.265 4.43455 56.3755 4.43455C56.3755 4.43455 56.3203 4.68575 56.265 4.68575C56.2097 4.68575 56.2097 4.68575 56.2097 4.93696C56.265 4.68575 56.3755 4.68575 56.4308 4.68575C56.4861 4.93696 56.5966 4.93696 56.6519 4.68575C56.7071 4.43455 56.6519 4.18334 56.5966 4.43455C56.4861 4.43455 56.4861 4.43455 56.5413 4.18334C56.7071 4.18334 56.8177 4.18334 56.7624 4.18334C56.7624 4.43455 56.8177 4.43455 56.9282 4.68575C57.0387 4.68575 57.0387 4.43455 56.9282 4.43455C56.8729 4.43455 56.8729 4.18334 56.9282 4.18334C57.094 4.18334 57.2045 4.18334 57.315 4.18334C57.4256 4.18334 57.5914 4.43455 57.6466 4.93696C57.6466 4.68575 57.6466 4.68575 57.6466 4.43455C57.6466 4.18334 57.6466 4.18334 57.7019 4.18334C57.7572 4.18334 57.7572 4.18334 57.7572 4.43455C57.7572 4.68575 57.7572 4.68575 57.8677 4.68575C57.923 4.68575 57.923 4.43455 57.8677 4.43455C57.8124 4.43455 57.8124 4.18334 57.8677 4.18334C58.0888 4.43455 58.3651 4.68575 58.5862 4.43455C58.8625 4.43455 59.0836 4.18334 59.3599 4.18334C59.4151 4.43455 59.4151 4.43455 59.3599 4.43455C59.3046 4.43455 59.3046 4.43455 59.3046 4.68575C59.3046 4.68575 59.4151 4.93696 59.5257 4.93696C59.5257 4.43455 59.5809 4.43455 59.6362 4.43455C59.6362 4.43455 59.6362 4.43455 59.6362 4.68575C59.6362 4.68575 59.6362 4.68575 59.6362 4.93696C59.8573 4.93696 60.0231 4.93696 60.1336 4.93696L60.5205 5.18816L60.4652 5.43937C60.4099 5.43937 60.4099 5.43937 60.4652 5.69058C60.5757 5.69058 60.631 5.69058 60.7415 5.69058C60.8521 5.69058 60.9073 5.69057 60.9073 5.43937C60.8521 5.43937 60.7968 5.18816 60.7968 5.43937C60.7415 5.43937 60.6863 5.43937 60.6863 5.43937C60.8521 5.18816 61.0731 5.18816 61.2389 5.18816C61.46 5.18816 61.6258 5.18816 61.8468 5.43937C62.0679 5.43937 62.289 5.43937 62.51 5.18816C62.6758 5.18816 62.8416 5.18816 63.0074 5.69058C63.0074 5.69058 63.0627 5.69058 63.1179 5.69058C63.1732 5.69058 63.2285 5.43937 63.2837 5.43937C63.339 5.43937 63.339 5.69058 63.339 5.69058C63.339 5.69058 63.3943 5.94178 63.5048 5.69058C63.5601 5.69058 63.5601 5.43937 63.5601 5.43937C63.5048 5.43937 63.5601 5.18816 63.6153 5.18816C63.6706 5.43937 63.6706 5.69058 63.7259 5.69058C63.7811 5.43937 63.8364 5.43937 63.9469 5.18816C64.2785 5.43937 64.5549 5.43937 64.8312 5.69058C65.1075 5.69058 65.4391 5.69058 65.7154 5.69058L65.7707 5.43937C65.7707 5.43937 65.826 5.18816 65.826 4.93696C65.7707 4.93696 65.7154 4.93696 65.7154 4.93696C65.6602 4.93696 65.6602 4.93696 65.6602 4.68575C65.7707 4.68575 65.8812 4.68575 65.9918 4.68575C66.1023 4.68575 66.2128 4.68575 66.3234 4.43455C66.3786 4.43455 66.3786 4.68575 66.3234 4.68575C66.3786 4.68575 66.4339 4.68575 66.4892 4.68575C66.5444 4.68575 66.5997 4.68575 66.5997 4.43455C66.3786 4.43455 66.1576 4.43455 65.9918 4.18334C65.7707 3.93214 65.5496 3.93214 65.3286 4.18334C65.3286 4.18334 65.3286 4.43455 65.3286 4.68575C65.3286 4.93696 65.2733 5.18816 65.218 5.18816C65.1628 4.93696 65.1628 4.93696 65.218 4.68575C65.2733 4.43455 65.2733 4.43455 65.1628 4.43455C65.1075 4.43455 65.1075 4.68575 65.0522 4.68575C65.0522 4.93696 64.997 4.93696 64.9417 4.93696C64.8865 4.93696 64.8312 4.93696 64.8312 4.68575C64.7759 4.68575 64.7206 4.68575 64.7206 4.68575C64.6654 4.68575 64.6654 4.93696 64.6654 5.18816C64.6654 5.43937 64.6654 5.43937 64.5549 5.43937C64.5549 5.43937 64.5549 5.18816 64.6101 5.18816C64.6101 5.18816 64.6101 4.93696 64.5549 4.93696C64.5549 4.68575 64.4996 4.68575 64.4443 4.68575C64.3891 4.68575 64.3338 4.68575 64.3891 4.43455C64.4996 4.43455 64.6654 4.43455 64.7759 4.68575C64.8864 4.68575 64.997 4.68575 65.1075 4.43455C64.8312 4.43455 64.5549 4.18334 64.2233 4.18334C63.8917 4.18334 63.5601 3.93214 63.2285 3.93214C62.8969 3.93214 62.51 3.68093 62.1784 3.68093C61.8468 3.68093 61.5152 3.68093 61.2389 3.68093C61.2942 3.93214 61.4047 3.93214 61.5152 3.93214C61.6258 3.93214 61.681 3.93214 61.7916 4.18334C62.0679 3.93214 62.289 3.93214 62.5653 3.93214C62.7864 3.93214 63.0627 4.18334 63.2837 4.18334C63.2837 4.18334 63.2837 4.43455 63.2285 4.43455C63.2285 4.43455 63.2285 4.43455 63.2837 4.43455C63.4495 4.18334 63.6706 4.18334 63.8364 4.18334C64.0022 4.18334 64.2233 4.43455 64.3891 4.43455C64.3891 4.68575 64.3338 4.68575 64.2785 4.68575C64.2233 4.68575 64.168 4.68575 64.2233 4.93696C64.2785 4.93696 64.2785 5.18816 64.3338 4.93696H64.3891C64.2785 5.18816 64.168 5.18816 64.1127 4.93696C64.0575 4.68575 63.9469 4.43455 63.8364 4.43455C63.6706 4.68575 63.5048 4.68575 63.3943 4.43455C63.3943 4.93696 63.339 5.18816 63.1732 5.18816V4.93696C63.1179 4.93696 63.1179 4.93696 63.1179 4.93696H63.0627L63.1179 4.68575C63.1732 4.68575 63.1732 4.68575 63.1732 4.93696C63.2285 4.68575 63.2837 4.68575 63.2837 4.68575C63.1732 4.43455 63.1179 4.43455 63.0074 4.43455C62.9521 4.43455 62.8416 4.43455 62.7864 4.18334C62.6758 4.43455 62.5653 4.43455 62.4548 4.18334C62.3442 3.93214 62.2337 4.18334 62.1784 4.43455C62.1232 4.18334 62.0126 4.18334 61.9574 4.18334C61.9021 4.18334 61.9021 4.43455 61.9021 4.68575C61.9021 4.93696 61.8468 4.93696 61.7916 4.93696V4.68575L61.8468 4.43455C61.7916 4.18334 61.6258 3.93214 61.5705 4.18334C61.46 4.43455 61.3494 4.18334 61.2942 3.93214C61.2389 4.18334 61.1836 4.43455 61.0731 4.18334C60.9626 4.18334 60.8521 4.18334 60.7968 4.18334C60.8521 4.18334 60.9073 4.18334 60.9626 4.43455C61.0178 4.68575 60.9626 4.68575 60.9073 4.93696C60.8521 4.68575 60.7968 4.43455 60.7415 4.43455C60.6863 4.43455 60.631 4.18334 60.6863 3.93214C60.5205 4.18334 60.3547 4.18334 60.1889 3.93214C60.0783 3.93214 59.9125 3.93214 59.802 4.18334C59.5257 3.68093 59.2493 3.68093 58.9178 3.68093C58.5862 3.68093 58.2546 3.68093 57.923 3.68093C57.6466 3.42973 57.315 3.42973 57.0387 3.42973C56.7071 3.42973 56.3755 3.42973 56.0439 3.17852C56.1545 2.92732 56.3203 2.92732 56.4308 3.17852C56.5966 3.42973 56.7071 3.17852 56.7624 2.92732C56.5966 2.92732 56.4308 2.67611 56.3203 2.92732C56.2097 2.92732 56.0992 2.92732 55.9334 2.92732C55.8781 2.92732 55.8781 3.17852 55.9334 3.17852C55.9887 3.17852 55.9887 3.42973 55.9334 3.42973C55.2702 3.42973 54.6623 3.42973 54.1096 3.42973C54.0544 3.42973 54.0544 3.68093 54.0544 3.93214C54.0544 4.18334 53.9991 4.18334 53.8886 3.93214H53.9438C53.9438 3.93214 53.9991 3.93214 53.9991 3.68093C53.8333 3.42973 53.6122 3.42973 53.4464 3.42973C53.2254 3.68093 53.1149 3.42973 53.0596 3.17852C53.1149 3.17852 53.1701 3.17852 53.2254 3.17852C53.2807 3.17852 53.2807 3.17852 53.2807 2.92732C53.0596 2.92732 52.8385 2.92732 52.6175 2.92732C52.3964 2.67611 52.1753 2.92732 52.0095 3.17852C52.1753 3.17852 52.3411 3.17852 52.4517 3.17852C52.6175 2.92732 52.728 3.17852 52.8938 3.42973C52.3411 3.42973 51.7885 3.42973 51.2358 3.42973C50.6832 3.42973 50.1858 3.42973 49.6331 3.42973C49.5778 3.42973 49.5779 3.42973 49.5779 3.68093C49.5779 3.68093 49.5226 3.93214 49.4673 3.93214C49.4673 3.68093 49.4121 3.68093 49.3568 3.68093C49.3015 3.68093 49.2463 3.68093 49.191 3.42973C48.4725 3.42973 47.6988 3.42973 46.9804 3.42973C46.2619 3.42973 45.5435 3.42973 44.9355 3.42973C44.9908 3.17852 44.9355 3.17852 44.8803 2.92732C44.7697 3.17852 44.6592 3.17852 44.4934 2.92732C44.3276 2.67611 44.2171 2.92732 44.1618 3.17852C44.2723 3.17852 44.3829 3.17852 44.5487 3.17852C44.6592 2.92732 44.7697 3.17852 44.8803 3.42973C44.6039 3.42973 44.2723 3.42973 43.996 3.68093C43.6644 3.68093 43.3881 3.68093 43.0565 3.42973L43.6092 3.17852C43.775 3.17852 43.9407 3.17852 44.1065 3.17852V2.92732C44.1065 2.92732 44.1065 2.92732 44.1065 2.67611C43.6644 2.92732 43.2223 2.92732 42.7802 2.92732C42.3933 2.67611 41.9512 2.92732 41.5643 3.68093C41.5091 3.68093 41.4538 3.68093 41.3985 3.68093C41.3433 3.68093 41.288 3.68093 41.2327 3.42973C41.288 3.42973 41.3985 3.42973 41.4538 3.42973C41.5643 3.42973 41.5643 3.42973 41.5643 3.17852C40.3485 3.17852 39.1879 3.42973 38.1931 3.42973C37.1431 3.42973 36.0378 3.68093 34.8219 3.68093L34.5456 3.93214C34.214 3.93214 33.9377 3.68093 33.6061 3.93214C33.2745 3.93214 32.9429 4.18334 32.6665 4.18334C32.4455 3.93214 32.2244 3.93214 32.0034 3.93214C31.7823 3.93214 31.5612 4.18334 31.3402 4.18334V4.43455C31.3954 4.43455 31.3954 4.43455 31.3954 4.68575C31.3402 4.68575 31.3402 4.68575 31.2849 4.93696C31.2296 4.93696 31.2296 4.93696 31.1744 4.93696L31.2296 4.68575C31.2296 4.68575 31.2296 4.43455 31.2296 4.18334C30.5112 4.43455 29.7927 4.43455 29.019 4.43455C28.3558 4.43455 27.6374 4.68575 26.9742 4.93696C26.0347 4.93696 24.9846 4.93696 23.9898 5.18816C22.9398 5.43937 22.0003 5.69058 21.116 5.69058C20.5081 5.69058 19.9002 5.69057 19.237 5.94178C18.5738 6.19299 17.9659 6.19299 17.3027 5.94178C17.0816 6.19299 16.8606 6.19299 16.6395 6.19299C16.4184 6.19299 16.1974 6.19299 15.9763 5.94178C16.6948 5.94178 17.3579 5.69057 18.0764 5.43937C18.7949 5.18816 19.458 5.18816 20.066 5.43937C20.1212 5.18816 20.1765 5.18816 20.287 5.18816C20.3423 5.18816 20.4528 5.18816 20.5081 4.93696C20.6739 5.18816 20.8397 5.18816 21.0607 5.18816C21.2265 5.18816 21.3923 4.93696 21.5581 4.93696C21.5581 4.93696 21.6134 4.93696 21.6134 5.18816C21.6134 5.18816 21.6134 5.18816 21.6687 5.18816C21.8897 4.93696 22.1661 4.93696 22.3871 4.93696C22.6082 4.93696 22.8293 4.93696 23.1056 4.93696C23.603 4.93696 24.1556 4.93696 24.7083 4.68575C25.2609 4.43455 25.8136 4.43455 26.3663 4.18334C26.5321 4.18334 26.7531 4.18334 26.9189 4.18334C27.0847 4.18334 27.2505 4.18334 27.4716 4.18334C27.5821 4.18334 27.6926 4.18334 27.7479 3.93214C27.8584 3.93214 27.9137 3.93214 28.0242 3.93214C28.19 3.93214 28.3006 3.93214 28.4664 3.93214C28.6321 3.93214 28.7427 3.93214 28.8532 3.93214C29.1295 3.93214 29.4059 3.93214 29.6822 3.93214C29.9585 3.93214 30.2349 3.68093 30.6217 3.68093C31.8928 3.68093 33.1639 3.42973 34.5456 3.17852C35.9272 2.92732 37.2536 2.92732 38.5247 2.92732C38.8563 2.92732 39.2432 2.92732 39.5748 2.92732L40.6248 2.67611C41.6749 2.67611 42.7249 2.42491 43.8302 2.42491C44.9355 2.42491 46.0408 2.1737 47.0909 2.1737C47.1462 2.1737 47.1462 2.1737 47.1462 2.42491C47.1462 2.42491 47.2014 2.42491 47.2567 2.42491C48.362 2.42491 49.4673 2.1737 50.5174 2.1737C51.5674 2.1737 52.6727 2.1737 53.778 2.42491C54.7176 2.1737 55.6571 2.1737 56.7071 2.42491C57.7572 2.67611 58.8072 2.67611 59.8573 2.67611C60.2441 2.92732 60.7415 2.92732 61.2942 2.92732C61.8468 2.92732 62.3442 2.92732 62.7311 3.17852C63.7259 3.42973 64.7759 3.68093 65.826 3.93214C66.9313 4.18334 67.9261 4.43455 68.9208 4.68575C69.363 4.93696 69.7498 5.18816 70.192 5.18816C70.5788 5.18816 70.9657 5.43937 71.3525 5.69058C70.6893 5.69058 69.9709 5.43937 69.2524 5.18816C68.534 4.93696 67.8155 4.68575 67.0971 4.93696C67.1523 4.93696 67.1523 5.18816 67.1523 5.18816C67.1523 5.43937 67.1523 5.43937 67.0971 5.43937C67.0418 5.18816 66.9313 5.43937 66.876 5.43937C66.8207 5.69057 66.7102 5.43937 66.655 5.18816C66.655 5.69058 66.5997 5.69057 66.4892 5.43937C66.4339 5.18816 66.3234 5.18816 66.2681 5.43937C66.2681 5.69057 66.3234 5.94178 66.3786 5.94178C66.4339 5.94178 66.5444 6.19299 66.5997 6.19299C66.655 5.94178 66.655 5.94178 66.7102 5.94178H66.9313C66.9865 5.94178 66.9865 5.69058 66.9865 5.69058C66.9865 5.69058 66.9865 5.43937 67.0418 5.43937C67.0971 5.43937 67.1523 5.43937 67.2629 5.69058C67.2629 5.69058 67.2076 5.94178 67.1523 5.94178C67.0971 5.94178 67.0418 5.94178 67.0971 6.19299C67.2076 6.44419 67.3181 6.44419 67.4287 6.19299C67.5945 6.19299 67.6497 6.19299 67.705 6.44419H67.4839C67.4287 6.44419 67.3734 6.44419 67.3734 6.69539C67.8155 6.69539 68.2577 6.6954 68.6998 7.19781C69.0866 7.44901 69.5288 7.70022 69.9709 7.70022C69.9709 7.70022 69.9709 7.95142 70.0262 7.95142C70.0814 7.95142 70.0814 7.95142 70.0814 7.95142C70.3577 7.95142 70.6893 7.70022 70.9657 7.95142C71.2973 7.95142 71.6289 7.95142 72.0157 7.95142C72.1263 7.95142 72.2921 7.95142 72.4026 7.70022C72.5684 7.44901 72.7342 7.44901 72.8447 7.44901C72.5131 6.9466 72.5131 6.6954 72.5131 6.44419ZM65.6049 4.68575C65.5496 4.68575 65.5496 4.93696 65.5496 5.18816C65.5496 5.43937 65.5496 5.43937 65.4391 5.43937C65.4391 5.18816 65.4391 4.93696 65.4391 4.93696C65.3838 4.93696 65.3838 4.68575 65.3838 4.68575C65.4391 4.68575 65.5496 4.68575 65.6049 4.68575ZM64.4443 4.93696C64.4443 5.18816 64.4443 5.18816 64.4443 4.93696C64.3891 5.18816 64.3338 4.93696 64.3338 4.93696H64.4443ZM62.6758 4.68575C62.7311 4.68575 62.7311 4.68575 62.7311 4.68575C62.7311 4.68575 62.7311 4.68575 62.7864 4.68575C62.7864 4.93696 62.7864 4.93696 62.6758 4.68575C62.6206 4.93696 62.6206 4.93696 62.6758 4.68575ZM62.4548 4.68575C62.51 4.68575 62.51 4.93696 62.51 4.93696C62.4548 4.93696 62.4548 4.93696 62.3995 4.93696C62.3995 4.68575 62.3995 4.43455 62.4548 4.68575ZM61.4047 4.43455C61.4047 4.68575 61.4047 4.68575 61.4047 4.68575C61.4047 4.68575 61.46 4.68575 61.46 4.93696C61.3494 4.93696 61.2389 4.68575 61.2389 4.43455H61.4047ZM60.3547 4.18334C60.3547 4.18334 60.4099 4.18334 60.3547 4.18334C60.4099 4.43455 60.3547 4.68575 60.2994 4.43455L60.3547 4.18334C60.2994 4.18334 60.3547 4.18334 60.3547 4.18334ZM59.0836 4.18334C59.1388 4.18334 59.1388 4.18334 59.1388 4.43455C59.1388 4.43455 59.1388 4.68575 59.0836 4.68575C59.0836 4.43455 59.0836 4.43455 59.0836 4.18334C59.0283 4.18334 59.0836 4.18334 59.0836 4.18334ZM58.973 4.18334C58.973 4.43455 58.973 4.43455 58.973 4.18334V4.18334ZM57.1493 4.43455C57.1493 4.43455 57.1493 4.43455 57.094 4.43455H57.1493ZM56.9282 3.93214H56.9835V4.18334H56.9282V3.93214ZM56.8177 4.43455H56.9282V4.68575L56.8177 4.43455ZM56.265 3.68093C56.3203 3.68093 56.3203 3.68093 56.3203 3.68093C56.3203 3.68093 56.3203 3.68093 56.3755 3.68093C56.4308 3.93214 56.4308 3.93214 56.265 3.68093C56.265 3.93214 56.265 3.93214 56.265 3.68093ZM55.7123 3.93214H55.7676V4.18334H55.7123V3.93214ZM51.5121 3.93214V4.18334H51.4016V3.93214H51.5121ZM51.07 4.18334H51.1806V4.43455L51.07 4.18334ZM50.7937 3.68093H50.849C50.849 3.93214 50.849 4.18334 50.7937 3.68093C50.7384 3.93214 50.7384 3.93214 50.6832 3.68093C50.6832 3.93214 50.7384 3.68093 50.7937 3.68093ZM49.6884 4.43455C49.7436 4.43455 49.7436 4.43455 49.7436 4.43455C49.7989 4.43455 49.7989 4.43455 49.7989 4.68575C49.7989 4.93696 49.7436 4.93696 49.6884 4.68575V4.43455ZM48.4173 3.68093C48.5278 3.68093 48.5278 3.68093 48.5278 3.68093C48.5831 3.93214 48.5278 3.93214 48.4725 3.93214C48.4173 3.93214 48.362 3.93214 48.4173 3.68093ZM48.1962 3.93214H48.2515V4.18334H48.1962V3.93214ZM48.0304 3.93214H48.0857V4.18334L48.0304 3.93214ZM47.8646 3.93214C47.9199 3.93214 47.9751 4.18334 47.9199 4.18334C47.8646 4.18334 47.8093 4.18334 47.7541 3.93214C47.7541 3.93214 47.7541 3.93214 47.8646 3.93214ZM47.4778 3.93214C47.533 3.93214 47.6435 3.93214 47.6988 3.93214C47.6988 3.93214 47.6988 4.18334 47.5883 4.18334C47.4778 4.18334 47.4778 4.18334 47.4778 3.93214ZM46.2619 4.68575C46.3172 4.43455 46.3724 4.43455 46.483 4.43455C46.483 4.68575 46.3724 4.68575 46.2619 4.68575C46.2066 4.68575 46.2619 4.68575 46.2619 4.68575ZM46.0961 3.93214H46.0408V3.68093H46.0961C46.1514 3.68093 46.1514 3.68093 46.0961 3.93214ZM45.1566 3.93214C45.2119 3.93214 45.2119 4.18334 45.2671 4.18334C45.1566 4.18334 45.1566 3.93214 45.1566 3.93214ZM44.9908 3.93214C45.0461 3.93214 45.0461 3.93214 45.0461 3.93214H45.1013C45.1013 3.93214 45.1013 3.93214 45.1013 4.18334C45.0461 4.18334 44.9908 3.93214 44.9908 3.93214C44.9355 3.93214 44.9355 3.93214 44.9908 3.93214ZM44.7145 3.93214C44.7697 3.93214 44.825 3.93214 44.7697 4.18334L44.7145 4.43455C44.6592 4.43455 44.6592 4.43455 44.6592 4.18334C44.7145 3.93214 44.7145 3.93214 44.7145 3.93214ZM44.3829 4.18334C44.3276 4.18334 44.2723 3.93214 44.2171 3.68093C44.3276 3.93214 44.3829 3.93214 44.3829 4.18334ZM43.5539 3.93214C43.6644 3.93214 43.6644 4.18334 43.6092 4.18334H43.5539V3.93214ZM43.167 3.93214C43.2223 3.93214 43.2776 4.18334 43.2223 4.18334H43.167H43.1118C43.1118 4.18334 43.1118 3.93214 43.167 3.93214C43.1118 3.93214 43.167 3.93214 43.167 3.93214ZM42.8354 4.68575C42.8907 4.68575 42.946 4.68575 43.0012 4.68575C43.0565 4.68575 43.1118 4.43455 43.167 4.43455C43.2223 4.18334 43.3328 4.18334 43.3881 4.43455C43.3881 4.68575 43.4434 4.68575 43.4986 4.68575C43.4434 4.93696 43.3328 4.93696 43.2776 4.93696C43.2223 4.93696 43.1118 4.93696 43.0012 4.68575C42.946 4.93696 42.8354 4.93696 42.7802 4.93696C42.6696 4.93696 42.6144 4.68575 42.6144 4.43455C42.6696 4.68575 42.7802 4.68575 42.8354 4.68575ZM42.5038 3.42973H42.7249C42.7249 3.42973 42.6696 3.68093 42.6144 3.68093C42.5591 3.68093 42.4486 3.42973 42.5038 3.42973ZM42.2275 3.42973C42.2828 3.42973 42.338 3.42973 42.4486 3.42973C42.4486 3.68093 42.3933 3.68093 42.2828 3.68093C42.2275 3.68093 42.1722 3.68093 42.117 3.68093C42.117 3.42973 42.1722 3.17852 42.2275 3.42973ZM42.117 4.18334C42.117 3.93214 42.117 3.93214 42.1722 3.93214C42.2275 3.93214 42.2275 4.18334 42.2275 4.18334C42.1722 4.43455 42.1722 4.43455 42.117 4.18334ZM41.8406 4.43455C41.7854 4.43455 41.7854 4.43455 41.7301 4.18334C41.6749 4.18334 41.6196 4.18334 41.5643 4.18334C41.5643 3.93214 41.6196 3.93214 41.7301 3.93214C41.8407 3.93214 41.8406 4.18334 41.8406 4.43455ZM41.3985 4.18334H41.5091V4.43455L41.3985 4.18334ZM38.7458 4.68575C38.7458 4.68575 38.801 4.68575 38.7458 4.68575C38.801 4.68575 38.801 4.68575 38.7458 4.68575ZM39.1879 4.68575C39.1326 4.68575 39.1879 4.43455 39.1879 4.68575C39.2432 4.68575 39.2432 4.68575 39.1879 4.68575ZM39.4642 4.18334C39.5748 4.18334 39.63 4.18334 39.5748 4.43455C39.5748 4.43455 39.5195 4.43455 39.4642 4.18334C39.4642 4.43455 39.4642 4.18334 39.4642 4.18334ZM39.9616 4.43455H39.8511V4.18334C39.9064 4.18334 39.9063 4.18334 39.9616 4.43455ZM40.1274 4.68575C40.1827 4.68575 40.1827 4.43455 40.1274 4.68575C40.1827 4.43455 40.1827 4.68575 40.1827 4.93696L40.1274 4.68575C40.0721 4.68575 40.0721 4.68575 40.1274 4.68575ZM40.2379 5.18816C40.1827 5.18816 40.1274 5.18816 40.1274 5.18816C40.1827 4.93696 40.2379 4.93696 40.2932 5.18816C40.2932 5.18816 40.2932 5.18816 40.2379 5.18816ZM40.3485 4.93696C40.4037 4.68575 40.4037 4.68575 40.459 4.43455C40.5143 4.18334 40.5695 4.18334 40.6248 4.43455C40.6248 4.93696 40.5695 5.18816 40.3485 4.93696ZM40.4037 3.42973C40.5143 3.42973 40.6248 3.42973 40.7353 3.17852H40.7906C40.7906 3.17852 40.7906 3.17852 40.8459 3.17852V3.42973C40.7353 3.42973 40.6801 3.42973 40.6248 3.68093C40.459 3.93214 40.4037 3.68093 40.4037 3.42973ZM40.3485 4.18334C40.4037 4.43455 40.4037 4.43455 40.3485 4.18334C40.2932 4.18334 40.2932 4.43455 40.2932 4.43455C40.2379 4.43455 40.2379 4.43455 40.2379 4.18334C40.2932 4.18334 40.3485 4.18334 40.3485 4.18334ZM38.9668 3.93214C39.0774 3.68093 39.1879 3.68093 39.3537 3.68093C39.4642 3.93214 39.63 3.68093 39.7406 3.42973C39.7958 3.68093 39.8511 3.68093 40.0169 3.68093C40.1274 3.42973 40.2379 3.68093 40.3485 3.93214C40.1274 3.93214 39.9063 3.93214 39.6853 3.93214C39.409 3.93214 39.1879 3.93214 38.9668 3.93214ZM38.7458 3.68093H38.8563C38.9116 3.68093 38.9116 3.93214 38.8563 3.93214L38.7458 3.68093ZM38.7458 4.68575C38.7458 4.68575 38.7458 4.68575 38.6352 4.68575C38.6352 4.93696 38.6905 4.68575 38.7458 4.68575ZM38.2484 3.68093H38.3589V3.93214L38.2484 3.68093ZM37.972 3.93214C37.972 3.68093 38.0273 3.42973 38.0826 3.68093C38.1379 3.93214 38.0826 4.18334 37.972 3.93214ZM37.8063 3.68093H37.8615V3.93214L37.8063 3.68093ZM37.8063 4.93696L37.751 5.18816C37.751 5.18816 37.6957 5.43937 37.6405 5.43937C37.6405 5.18816 37.6405 5.18816 37.6957 5.18816C37.751 5.18816 37.751 5.18816 37.6957 4.93696C37.751 4.68575 37.751 4.68575 37.8063 4.93696ZM37.6957 4.68575C37.6405 4.68575 37.6405 4.68575 37.6957 4.68575C37.6405 4.68575 37.6405 4.68575 37.5852 4.68575C37.5852 4.68575 37.5852 4.68575 37.6957 4.68575C37.6957 4.43455 37.6957 4.43455 37.6957 4.68575ZM37.4747 3.68093C37.4747 3.42973 37.5299 3.42973 37.5852 3.68093C37.6405 3.93214 37.6405 3.93214 37.5852 3.93214H37.4747C37.5299 3.93214 37.5299 3.68093 37.4747 3.68093ZM35.9272 4.68575C35.872 4.68575 35.872 4.68575 35.8167 4.68575C35.8167 4.68575 35.8167 4.68575 35.8167 4.43455L35.9272 4.68575C35.9825 4.43455 35.9825 4.68575 35.9272 4.68575ZM36.3141 4.68575C36.3693 4.68575 36.4246 4.68575 36.4246 4.93696C36.3141 5.18816 36.2588 4.93696 36.3141 4.68575ZM36.5904 3.93214C36.5904 3.93214 36.5904 4.18334 36.5904 3.93214C36.5351 4.18334 36.5351 4.18334 36.4799 4.18334C36.4799 4.18334 36.4246 4.18334 36.4246 3.93214H36.5904ZM36.093 4.68575C36.093 4.43455 36.1483 4.43455 36.2036 4.43455C36.2588 4.43455 36.3141 4.43455 36.3693 4.68575C36.3693 4.68575 36.3141 4.93696 36.2588 4.93696C36.2035 4.68575 36.1483 4.68575 36.093 4.68575ZM35.872 3.93214C35.9272 3.93214 35.9272 3.93214 35.9272 3.93214C35.9272 3.93214 35.9272 3.93214 35.9825 3.93214C36.0378 4.18334 35.9825 4.18334 35.872 3.93214C35.8167 4.18334 35.8167 3.93214 35.872 3.93214ZM35.3193 4.18334C35.3746 4.18334 35.3746 4.18334 35.3746 3.93214C35.4298 3.93214 35.4298 4.18334 35.4298 4.18334H35.3193ZM35.0982 3.93214H35.2088V4.18334H35.0982V3.93214ZM34.8772 3.93214C34.9324 3.93214 34.9877 3.93214 34.9877 3.93214C35.0982 3.93214 35.0982 4.18334 35.043 4.18334C34.9877 4.18334 34.9324 4.18334 34.8219 4.18334C34.7666 3.93214 34.8219 3.93214 34.8772 3.93214ZM34.7666 4.43455C34.8772 4.43455 34.9324 4.68575 34.9324 4.68575H34.6561C34.6008 4.43455 34.6561 4.43455 34.7666 4.43455ZM34.4903 4.68575C34.435 4.93696 34.3245 4.93696 34.2693 4.93696C34.2693 4.68575 34.2692 4.68575 34.3245 4.68575C34.3798 4.68575 34.435 4.68575 34.4903 4.68575ZM34.214 4.18334H34.3245V4.43455H34.2693H34.214V4.18334ZM34.0482 4.68575C34.1587 4.68575 34.1587 4.68575 34.1587 4.93696L34.0482 4.68575ZM33.8271 5.94178H33.7166V5.69058H33.8271V5.94178ZM33.4955 4.68575C33.5508 4.43455 33.6061 4.18334 33.7719 4.43455C33.8824 4.43455 33.9377 4.68575 33.9377 4.93696C33.8824 4.93696 33.8271 4.93696 33.8271 4.68575C33.8271 4.43455 33.7166 4.43455 33.7166 4.43455C33.6613 4.43455 33.6613 4.43455 33.7166 4.68575C33.7719 4.68575 33.7719 4.68575 33.7166 4.93696C33.6061 4.68575 33.5508 4.68575 33.4955 4.68575ZM33.2745 4.18334C33.3297 4.18334 33.385 4.18334 33.3297 4.18334C33.3297 4.43455 33.3297 4.43455 33.3297 4.68575C33.2745 4.68575 33.2192 4.68575 33.2192 4.43455C33.2192 4.43455 33.2192 4.18334 33.2745 4.18334ZM33.1087 4.43455C33.1087 4.18334 33.1087 4.18334 33.1087 4.43455C33.1087 4.18334 33.1087 4.18334 33.1087 4.43455C33.2192 4.18334 33.2192 4.43455 33.2192 4.43455C33.1639 4.43455 33.1639 4.43455 33.1639 4.43455H33.1087ZM33.0534 4.68575C33.1087 4.68575 33.1087 4.68575 33.1087 4.68575C33.1087 4.68575 33.1087 4.68575 33.1639 4.68575C33.1639 4.93696 33.1639 4.93696 33.0534 4.68575C32.9981 4.93696 32.9981 4.93696 33.0534 4.68575ZM32.7218 4.93696V4.68575V4.43455C32.8323 4.43455 32.8323 4.43455 32.8323 4.68575C32.8323 4.68575 32.8323 4.68575 32.8323 4.93696C32.8323 5.18816 32.7771 5.18816 32.7218 4.93696ZM32.335 5.43937C32.335 5.43937 32.3902 5.43937 32.4455 5.43937C32.4455 5.43937 32.3902 5.43937 32.335 5.43937ZM32.5007 4.93696C32.5007 4.93696 32.556 4.68575 32.6113 4.68575C32.6113 4.93696 32.556 4.93696 32.5007 4.93696ZM31.8928 4.68575C32.0034 4.43455 32.1139 4.43455 32.2244 4.43455C32.3349 4.43455 32.5007 4.43455 32.6113 4.43455C32.5007 4.68575 32.3902 4.93696 32.2797 4.68575C32.2244 4.68575 32.0586 4.68575 31.8928 4.68575ZM31.6165 4.93696C31.6718 4.93696 31.6718 4.93696 31.6718 4.68575C31.6718 4.68575 31.6718 4.43455 31.6165 4.43455C31.6718 4.43455 31.727 4.43455 31.727 4.43455C31.8376 4.43455 31.8376 4.43455 31.7823 4.43455C31.727 4.43455 31.727 4.68575 31.727 4.68575C31.7823 4.93696 31.7823 4.93696 31.8376 4.93696H32.0034C32.0586 4.93696 32.1139 4.93696 32.1692 4.93696C32.2244 4.93696 32.2244 5.18816 32.2797 5.18816C32.1139 5.18816 32.0034 5.18816 31.8928 4.93696C31.7823 4.93696 31.6718 4.93696 31.5612 5.18816C31.506 5.18816 31.506 4.93696 31.5612 4.93696C31.5612 5.18816 31.6165 4.93696 31.6165 4.93696ZM31.0638 4.43455C31.1191 4.43455 31.1744 4.43455 31.2296 4.43455C31.2849 4.68575 31.2849 4.68575 31.2296 4.93696C31.3402 4.93696 31.3402 4.93696 31.2849 4.68575H31.506L31.4507 4.93696C31.3954 4.93696 31.3954 5.18816 31.3954 5.18816C31.2849 5.18816 31.1744 5.18816 31.0638 5.18816L31.1744 4.93696C31.1744 4.93696 31.1191 4.68575 31.0638 4.43455ZM30.5112 5.18816C30.5664 5.18816 30.5664 5.18816 30.5664 5.18816C30.5664 5.18816 30.5664 5.18816 30.6217 5.18816C30.5664 5.18816 30.5112 5.43937 30.5112 5.43937V5.18816ZM30.3454 5.18816C30.4559 5.18816 30.4559 5.18816 30.4007 5.43937C30.3454 5.43937 30.2901 5.43937 30.1796 5.43937C30.2349 5.18816 30.2901 5.18816 30.3454 5.18816ZM29.848 4.93696C29.9033 4.93696 29.9033 4.93696 29.848 4.93696C29.7927 5.18816 29.7927 5.18816 29.7375 5.18816C29.7927 4.93696 29.848 4.68575 29.848 4.93696ZM29.5717 4.93696C29.5717 4.93696 29.5717 4.93696 29.5164 4.93696C29.5164 4.93696 29.5164 4.93696 29.5717 4.93696ZM29.3506 5.43937H29.4611C29.5164 5.43937 29.4611 5.43937 29.3506 5.43937C29.2953 5.43937 29.3506 5.43937 29.3506 5.43937ZM29.1295 4.93696C29.1848 4.93696 29.2401 5.18816 29.1848 5.43937C29.1295 5.43937 29.1295 5.43937 29.1295 5.18816V4.93696ZM28.9637 4.93696H29.019V5.18816H28.9637V4.93696ZM28.9085 4.93696C28.8532 5.18816 28.8532 5.18816 28.7979 5.18816C28.7979 4.93696 28.7979 4.93696 28.9085 4.93696ZM28.1348 5.18816C28.19 5.18816 28.2453 5.18816 28.2453 4.93696C28.3006 4.93696 28.3006 5.18816 28.2453 5.43937C28.19 5.43937 28.1348 5.43937 28.1348 5.18816ZM27.361 5.94178C27.4163 5.94178 27.4163 5.69057 27.361 5.43937C27.4716 5.43937 27.4716 5.69057 27.4716 5.94178C27.4716 6.19299 27.5268 6.19299 27.6374 6.19299C27.5821 6.44419 27.5268 6.44419 27.4716 6.44419C27.4163 6.44419 27.3058 6.44419 27.2505 6.44419C27.2505 6.19299 27.3058 5.94178 27.361 5.94178ZM27.0847 6.19299H27.14V6.44419H27.0847V6.19299ZM26.7531 5.18816C26.7531 4.93696 26.8084 4.93696 26.8636 4.93696C26.9189 4.93696 26.9189 4.93696 26.9189 4.93696C26.9742 4.93696 26.9742 5.18816 26.9189 5.18816C26.8636 5.43937 26.8084 5.43937 26.7531 5.18816ZM26.6426 6.44419C26.6978 6.19299 26.7531 6.19299 26.8636 6.19299C26.9742 6.19299 27.0294 6.19299 26.9742 6.44419C26.9189 6.44419 26.8636 6.44419 26.8084 6.44419C26.7531 6.44419 26.6978 6.44419 26.6426 6.44419ZM26.5321 6.9466C26.4215 6.9466 26.3663 6.6954 26.311 6.44419C26.3663 6.44419 26.3663 6.69539 26.4215 6.69539C26.4768 6.69539 26.4768 6.6954 26.5321 6.9466ZM26.5321 5.18816C26.5321 5.18816 26.4768 5.43937 26.4215 5.43937C26.3663 5.43937 26.311 5.43937 26.311 5.43937C26.311 5.18816 26.3663 5.18816 26.5321 5.18816ZM25.9794 5.69058H26.0347V5.94178H25.9794V5.69058ZM25.2057 5.94178C25.2057 5.94178 25.2057 5.94178 25.1504 5.94178H25.2057ZM24.9293 5.69058C24.9846 5.69058 24.9846 5.69058 24.9293 5.69058C25.0951 5.43937 25.1504 5.69057 25.1504 5.94178C25.0399 5.94178 24.9846 5.94178 24.9846 5.94178C24.9293 5.94178 24.9293 6.19299 24.9293 5.69058C24.8741 5.69058 24.8741 5.69058 24.9293 5.69058ZM24.653 5.69058H24.7635V5.94178H24.653V5.69058ZM24.653 6.44419C24.653 6.6954 24.5978 6.9466 24.4872 6.44419C24.5425 6.6954 24.5978 6.44419 24.653 6.44419ZM24.1556 5.43937L24.2109 5.69058C24.1556 5.69058 24.1556 5.94178 24.1004 5.94178C24.0451 5.94178 24.0451 5.94178 23.9898 5.94178L24.0451 5.69058C24.1004 5.43937 24.1004 5.43937 24.1556 5.43937ZM23.8793 6.44419H23.9898V6.69539L23.8793 6.44419ZM23.7135 6.9466C23.7688 6.6954 23.7688 6.69539 23.824 6.69539C23.824 6.9466 23.7688 6.9466 23.7135 6.9466ZM23.7688 6.19299C23.7688 6.19299 23.7688 6.44419 23.7688 6.19299C23.7688 6.44419 23.7688 6.44419 23.7688 6.19299C23.7688 6.44419 23.7688 6.44419 23.7135 6.44419C23.7135 6.19299 23.7135 6.19299 23.7688 6.19299ZM22.8845 6.19299H23.0503C23.0503 6.44419 22.995 6.44419 22.8845 6.19299C22.8845 6.19299 22.8292 6.19299 22.774 6.44419C22.8292 6.44419 22.8293 6.19299 22.8845 6.19299ZM21.4476 7.44901H21.3371V7.19781H21.4476V7.44901ZM21.3371 6.19299C21.3371 6.44419 21.3371 6.44419 21.3371 6.44419C21.2818 6.44419 21.2818 6.69539 21.3371 6.69539C21.2818 6.69539 21.2265 6.44419 21.2265 6.19299C21.1713 6.19299 21.3371 6.19299 21.3371 6.19299ZM19.458 6.44419C19.5133 6.44419 19.5133 6.44419 19.5133 6.44419C19.5133 6.44419 19.5133 6.44419 19.5686 6.44419C19.5686 6.6954 19.5686 6.6954 19.458 6.44419C19.4028 6.6954 19.4028 6.6954 19.458 6.44419ZM18.3527 6.44419H18.4633V6.69539H18.3527V6.44419ZM18.3527 7.44901C18.408 7.44901 18.4633 7.44901 18.5185 7.44901C18.5185 7.70022 18.5185 7.70022 18.4633 7.70022C18.3527 7.70022 18.2975 7.70022 18.3527 7.44901C18.2422 7.70022 18.2422 7.44901 18.3527 7.44901ZM14.6499 6.19299C14.5947 6.19299 14.5394 6.19299 14.5394 6.44419C14.5394 6.19299 14.5394 6.19299 14.5947 5.94178C14.6499 5.94178 14.7052 5.94178 14.7605 6.19299C14.7052 6.19299 14.7052 6.19299 14.6499 6.19299ZM14.8157 5.94178C14.8157 5.94178 14.871 5.94178 14.9263 5.94178C14.9263 5.94178 14.871 5.94178 14.8157 5.94178ZM14.9815 6.19299C15.0921 5.94178 15.0921 6.19299 15.0921 6.19299H14.9815ZM15.3684 6.19299C15.3131 6.19299 15.2026 6.19299 15.1473 6.19299C15.2026 5.94178 15.2578 5.94178 15.3684 6.19299C15.4236 5.94178 15.4789 5.94178 15.5342 5.94178C15.5342 5.94178 15.4789 6.19299 15.3684 6.19299ZM26.8084 3.93214C26.8084 3.93214 26.8084 3.68093 26.8084 3.93214C26.7531 3.68093 26.8084 3.68093 26.8084 3.93214C26.8084 3.68093 26.8636 3.68093 26.8084 3.93214C26.8636 3.93214 26.8636 3.93214 26.8084 3.93214ZM27.5268 3.68093C27.5268 3.42973 27.5268 3.42973 27.5268 3.68093C27.5268 3.42973 27.5268 3.42973 27.5268 3.68093C27.5821 3.68093 27.5821 3.68093 27.5268 3.68093ZM28.4111 3.68093C28.3558 3.68093 28.2453 3.68093 28.19 3.68093C28.2453 3.42973 28.3006 3.42973 28.3558 3.42973C28.4111 3.68093 28.4664 3.68093 28.5769 3.42973C28.5769 3.68093 28.5216 3.68093 28.4111 3.68093ZM29.1295 3.68093C29.019 3.68093 28.8532 3.68093 28.7427 3.68093C28.7427 3.68093 28.7427 3.42973 28.6874 3.42973C28.6874 3.42973 28.6874 3.42973 28.6874 3.17852C28.7427 3.17852 28.7979 2.92732 28.8532 3.17852C28.9085 3.17852 28.9637 3.42973 28.9637 3.42973C29.019 3.42973 29.019 3.42973 29.019 3.17852C29.019 3.17852 29.0743 2.92732 29.1295 3.17852C29.1295 3.17852 29.1295 3.42973 29.1848 3.42973C29.2401 3.42973 29.2401 3.42973 29.2953 3.42973C29.2953 3.68093 29.1848 3.68093 29.1295 3.68093ZM67.1523 5.43937H67.0418V5.18816L67.1523 5.43937ZM67.2629 6.19299C67.2076 6.19299 67.1523 5.94178 67.2076 5.94178C67.2629 5.94178 67.2629 5.94178 67.2629 5.69058C67.3181 5.69058 67.3181 5.69057 67.3181 5.94178C67.3181 6.19299 67.3734 6.19299 67.3734 6.19299C67.3734 6.19299 67.3181 6.19299 67.2629 6.19299ZM67.4839 5.94178C67.4839 5.94178 67.5392 5.94178 67.5945 5.94178C67.5392 5.94178 67.5392 5.94178 67.4839 5.94178ZM67.8155 6.44419C67.7603 6.44419 67.7603 6.44419 67.705 6.44419C67.6497 6.44419 67.6497 6.44419 67.6497 6.19299C67.7603 6.19299 67.7603 6.19299 67.7603 6.19299C67.8155 6.19299 67.8155 6.19299 67.8155 6.44419C67.8155 6.19299 67.8155 6.44419 67.8155 6.44419ZM67.8708 5.69058C67.7603 5.69058 67.7603 5.69057 67.8155 5.94178C67.7603 5.69057 67.6497 5.43937 67.5392 5.69058C67.4287 5.69058 67.3181 5.69057 67.2629 5.43937C67.3734 5.43937 67.5392 5.43937 67.6497 5.43937C67.7603 5.43937 67.9261 5.43937 68.0366 5.69058C67.9813 5.69058 67.9813 5.94178 67.8708 5.69058ZM68.0366 6.19299H67.9813C67.9813 6.19299 67.9813 6.19299 68.0366 6.19299C67.9813 6.19299 68.0366 6.19299 68.0366 6.19299ZM68.1471 6.44419C68.0919 6.44419 68.0919 6.44419 68.0919 6.19299C68.1471 6.19299 68.2024 6.19299 68.2024 6.19299C68.2577 6.19299 68.3129 6.44419 68.3129 6.44419C68.3129 6.19299 68.2024 6.19299 68.1471 6.44419ZM68.2024 5.69058C68.1471 5.69058 68.0366 5.69057 67.9813 5.43937C68.0366 5.43937 68.1471 5.43937 68.2577 5.43937C68.4235 5.43937 68.4787 5.69057 68.534 5.94178C68.4235 5.94178 68.3129 5.69058 68.2024 5.69058ZM69.0866 5.94178C68.9208 5.69057 68.8103 5.69057 68.6445 5.94178V5.43937C68.8103 5.43937 68.9761 5.43937 69.1419 5.43937C69.3077 5.43937 69.4735 5.43937 69.6393 5.69058C69.4735 6.19299 69.2524 6.19299 69.0866 5.94178ZM69.9156 5.94178C69.8604 5.94178 69.8051 5.94178 69.6946 5.94178C69.6946 5.94178 69.6946 5.69058 69.8051 5.69058C69.9156 5.94178 69.9156 5.94178 69.9156 5.94178ZM70.1367 5.94178H70.0814V5.69058L70.1367 5.94178ZM71.2973 5.43937C71.1315 5.43937 71.0209 5.18816 70.8551 4.93696C71.0209 4.93696 71.1867 4.93696 71.3525 4.93696C71.5183 4.93696 71.6841 5.18816 71.8499 5.18816C71.6841 5.69058 71.5183 5.69057 71.2973 5.43937Z" fill="#F6CD45"/>
<path d="M59.5269 3.42969C59.6374 3.68089 59.6927 3.68089 59.6927 3.42969C59.6374 3.42969 59.5821 3.42969 59.5269 3.42969Z" fill="black"/>
<path d="M58.5321 3.17969C58.4216 3.17969 58.3663 3.17969 58.311 3.43089C58.4768 3.43089 58.6426 3.43089 58.7532 3.43089C58.7532 3.17969 58.6426 3.17969 58.5321 3.17969Z" fill="black"/>
<path d="M58.8085 3.17969C58.8637 3.43089 58.919 3.6821 59.0295 3.43089C59.1401 3.43089 59.2506 3.43089 59.3611 3.6821V3.43089C59.3611 3.43089 59.3611 3.43089 59.3611 3.17969C59.2506 3.17969 59.1953 3.43089 59.0848 3.17969C58.9743 3.17969 58.8637 3.17969 58.8085 3.17969Z" fill="black"/>
<path d="M58.1452 3.43059H58.2005C58.2557 3.43059 58.2005 3.17939 58.1452 3.43059C58.0899 3.17939 58.0899 3.17939 58.1452 3.43059C58.0899 3.43059 58.1452 3.43059 58.1452 3.43059Z" fill="black"/>
<path d="M61.2954 5.68871C61.3507 5.68871 61.4059 5.68871 61.4059 5.4375C61.3507 5.4375 61.2954 5.68871 61.2954 5.68871Z" fill="black"/>
<path d="M45.2131 2.92308C45.0473 2.67188 44.8262 2.92308 44.6604 3.17429C44.7709 3.17429 44.8815 3.17429 44.992 3.17429C45.1578 3.17429 45.2683 3.17429 45.3789 3.17429C45.4894 3.17429 45.5999 3.17429 45.7104 3.17429C45.821 3.17429 45.8762 2.92308 45.8762 2.67188C45.7105 2.92308 45.4894 2.92308 45.2131 2.92308Z" fill="black"/>
<path d="M65.7719 5.9384C65.8271 5.9384 65.8824 5.9384 65.8824 5.9384C65.8271 5.6872 65.7719 5.6872 65.7719 5.9384Z" fill="black"/>
<path d="M57.3716 4.9375C57.3163 4.9375 57.261 4.9375 57.261 4.9375C57.2058 5.18871 57.2058 5.18871 57.3163 5.18871C57.261 5.18871 57.3163 5.18871 57.3716 4.9375C57.3716 5.18871 57.3716 5.18871 57.3716 4.9375Z" fill="black"/>
<path d="M52.6187 5.4384H52.6739H52.7292C52.6739 5.1872 52.6187 5.1872 52.6187 5.4384Z" fill="black"/>
<path d="M61.0743 5.4375V5.68871H61.1296C61.1296 5.68871 61.1296 5.4375 61.1849 5.4375C61.1296 5.4375 61.1296 5.4375 61.1296 5.4375C61.1296 5.4375 61.1296 5.4375 61.0743 5.4375Z" fill="black"/>
<path d="M48.6395 3.17429C48.6948 3.17429 48.7501 3.17429 48.8053 2.67188C48.6948 2.67187 48.6395 2.92308 48.6395 3.17429Z" fill="black"/>
<path d="M49.8553 2.92969C50.0211 3.18089 50.1869 3.4321 50.408 3.4321C50.6291 3.4321 50.8501 3.4321 51.0712 3.18089C50.9054 2.92969 50.6843 2.92969 50.5185 2.92969C50.408 2.92969 50.1869 2.92969 49.8553 2.92969Z" fill="black"/>
<path d="M51.3475 2.67188C51.237 2.67188 51.1817 2.67188 51.0712 2.92308C51.237 2.92308 51.4028 2.92308 51.5686 2.92308C51.5133 2.92308 51.458 2.67188 51.3475 2.67188Z" fill="black"/>
<path d="M49.2474 2.92437C49.0264 2.67316 48.8606 2.92437 48.8053 3.17557C48.9711 3.17557 49.1922 2.92437 49.358 3.17557C49.5238 3.17557 49.6343 3.17557 49.8001 2.92437C49.6343 2.92437 49.4685 2.92437 49.2474 2.92437Z" fill="black"/>
<path d="M47.2579 2.92969C47.0921 2.92969 46.871 2.92969 46.7052 3.18089C46.871 3.18089 47.0921 2.92969 47.2579 3.18089C47.4237 3.18089 47.5895 3.18089 47.7552 2.92969C47.6447 2.92969 47.4789 2.92969 47.2579 2.92969Z" fill="black"/>
<path d="M48.2527 2.92278C48.1422 2.92278 48.0316 2.92278 47.8658 2.92278C47.9764 3.17398 48.0869 3.17398 48.1974 3.17398C48.308 3.17398 48.4185 3.17398 48.4738 2.92278C48.4185 2.67157 48.3632 2.67157 48.2527 2.92278Z" fill="black"/>
</svg>
