<svg width="138" height="11" viewBox="0 0 138 11" fill="none" xmlns="http://www.w3.org/2000/svg">
<g clip-path="url(#clip0_2815_127578)">
<path d="M84.7756 5.19976L84.9838 5.45096C85.0879 5.19976 84.9838 4.94855 84.7756 5.19976Z" fill="black"/>
<path d="M85.2948 4.44629C85.1907 4.44629 85.1907 4.44629 85.1907 4.69749C85.2948 4.69749 85.2948 4.69749 85.3989 4.69749C85.3989 4.69749 85.3989 4.44629 85.2948 4.44629Z" fill="black"/>
<path d="M84.2567 5.2002C84.2567 5.2002 84.3608 5.4514 84.4649 5.4514C84.569 5.4514 84.6731 5.4514 84.569 5.2002H84.2567Z" fill="black"/>
<path d="M72.2189 5.70238C72.3116 5.70238 72.3116 5.70238 72.3116 5.45117C72.2189 5.70238 72.2189 5.70238 72.2189 5.70238Z" fill="black"/>
<path d="M86.5397 5.4514C86.6438 5.4514 86.7479 5.4514 86.7479 5.2002C86.6438 5.2002 86.5397 5.2002 86.5397 5.4514Z" fill="black"/>
<path d="M82.3888 5.19976C82.1813 4.94855 81.9737 5.19976 81.8699 5.45096C82.0775 5.45096 82.285 5.45096 82.4926 5.45096C82.7001 5.45096 82.9077 5.45096 83.0115 5.19976C82.8039 5.45096 82.5964 5.45096 82.3888 5.19976Z" fill="black"/>
<path d="M88.8235 4.69727C88.7194 4.69727 88.6153 4.69727 88.6153 4.69727C88.7194 4.94847 88.8235 4.94847 88.8235 4.69727Z" fill="black"/>
<path d="M71.8038 5.70238C71.8965 5.70238 71.8965 5.70238 71.8038 5.70238C71.8965 5.70238 71.8965 5.70238 71.8965 5.45117C71.8965 5.70238 71.8965 5.70238 71.8038 5.70238Z" fill="black"/>
<path d="M96.9172 5.4511C96.9172 5.19989 96.9901 5.19989 96.9172 5.4511C96.9172 5.19989 96.9172 5.19989 96.9172 5.4511Z" fill="black"/>
<path d="M96.0876 5.2002C95.8794 5.2002 95.8794 5.2002 95.8794 5.4514C95.9835 5.4514 96.0876 5.4514 96.1917 5.4514C96.2958 5.2002 96.1917 5.2002 96.0876 5.2002Z" fill="black"/>
<path d="M94.4266 5.4511C94.6348 5.7023 94.7389 5.7023 94.7389 5.4511C94.5307 5.19989 94.4266 5.19989 94.4266 5.4511Z" fill="black"/>
<path d="M92.6625 5.4511C92.7663 5.7023 92.9739 5.4511 93.0776 5.4511C92.9739 5.4511 92.8701 5.4511 92.7663 5.4511C92.7663 5.19989 92.6625 5.19989 92.6625 5.4511Z" fill="black"/>
<path d="M93.5964 5.4514C93.7005 5.4514 93.7005 5.4514 93.8046 5.4514C93.9087 5.4514 93.9087 5.4514 93.9087 5.2002C93.9087 5.2002 93.8046 5.2002 93.5964 5.4514C93.5964 5.2002 93.5964 5.2002 93.5964 5.4514Z" fill="black"/>
<path d="M56.5379 6.45605C56.5379 6.45605 56.4452 6.45605 56.4452 6.70726C56.4452 6.45605 56.5379 6.45605 56.5379 6.45605C56.5379 6.70726 56.5379 6.70726 56.5379 6.45605Z" fill="black"/>
<path d="M93.2851 1.18089C93.5964 1.18089 93.9077 1.4321 94.2191 1.4321C94.5304 1.4321 94.7379 1.4321 94.9455 1.18089C95.153 1.4321 95.2568 1.4321 95.4644 1.4321C96.1908 1.18089 96.9172 1.18089 97.6436 1.18089C98.3701 1.18089 99.0965 1.18089 99.8229 1.18089C99.9267 1.18089 99.9267 1.18089 100.03 1.4321C100.03 1.4321 100.134 1.4321 100.134 1.6833C100.549 1.4321 100.964 1.18089 101.38 1.4321C101.795 1.6833 102.106 1.6833 102.521 1.18089C100.757 0.929687 99.2002 0.929688 97.7474 0.929688C96.2946 1.18089 94.8417 1.18089 93.2851 1.18089C93.1813 1.18089 93.1813 1.18089 93.2851 1.18089Z" fill="black"/>
<path d="M92.1436 1.68339C92.2474 1.68339 92.4549 1.68339 92.5587 1.68339C92.6625 1.68339 92.87 1.68339 92.9738 1.68339C92.9738 1.68339 92.9738 1.43219 93.0776 1.43219V1.18098C92.87 1.18098 92.7663 1.18098 92.6625 1.18098C92.5587 1.43219 92.4549 1.43219 92.3512 1.43219C92.4549 1.43219 92.4549 1.18098 92.4549 1.18098C92.4549 1.18098 92.3512 0.929778 92.2474 1.18098C92.1436 1.18098 92.1436 1.43219 92.2474 1.43219C92.2474 1.43219 92.2474 1.43219 92.1436 1.68339Z" fill="black"/>
<path d="M99.2003 4.44629C99.2003 4.69749 99.2003 4.9487 99.3043 4.9487C99.3043 4.69749 99.3043 4.69749 99.4084 4.44629C99.4084 4.44629 99.3043 4.44629 99.2003 4.44629Z" fill="black"/>
<path d="M103.455 1.43187C103.455 1.18066 103.455 1.18066 103.455 1.43187C103.351 1.18066 103.351 1.18066 103.351 1.18066C103.351 1.18066 103.144 1.43187 102.936 1.18066C102.729 1.18066 102.625 1.18066 102.625 1.43187C102.729 1.68307 102.936 1.68307 103.04 1.68307C103.247 1.43187 103.351 1.43187 103.455 1.43187Z" fill="black"/>
<path d="M63.8021 6.20508H63.7094V6.45628H63.8021V6.20508Z" fill="black"/>
<path d="M56.6528 6.45628C56.8603 6.45628 57.0679 6.45628 57.0679 6.20508C56.9641 6.45628 56.8603 6.45628 56.6528 6.45628C56.6528 6.45628 56.6528 6.20508 56.6528 6.45628Z" fill="black"/>
<path d="M62.1528 6.4563H62.3609V6.20508H62.1528V6.4563Z" fill="black"/>
<path d="M67.1339 5.70238C67.3421 5.95358 67.4462 5.70238 67.4462 5.45117C67.3421 5.45117 67.3421 5.45117 67.238 5.45117C67.238 5.70238 67.1339 5.70238 67.1339 5.70238Z" fill="black"/>
<path d="M62.983 2.43675C62.983 2.68796 62.983 2.68796 63.0868 2.68796C63.0868 2.43675 63.0868 2.43675 63.2943 2.43675C63.5019 2.43675 63.5019 2.43675 63.5019 2.18555C63.0868 2.18555 62.5679 2.18555 62.049 2.18555C61.5302 2.18555 61.0113 2.18555 60.5962 2.43675V2.68796C61.3226 2.93916 62.1528 2.68796 62.983 2.43675Z" fill="black"/>
<path d="M53.6439 6.45605C53.5398 6.45605 53.4357 6.45605 53.4357 6.70726C53.5398 6.70726 53.6439 6.95846 53.7479 6.95846C53.852 6.70726 53.7479 6.45605 53.6439 6.45605Z" fill="black"/>
<path d="M64.4358 2.68819C64.3321 2.43698 64.3321 2.43698 64.4358 2.68819C64.6434 2.43698 64.6434 2.43698 64.5396 2.18578C64.4358 1.93457 64.3321 1.93457 64.1245 1.93457C63.917 1.93457 63.8132 2.18578 63.7094 2.18578C63.8132 2.43698 63.917 2.43698 64.0207 2.43698C64.1245 2.43698 64.3321 2.43698 64.4358 2.68819Z" fill="black"/>
<path d="M64.9547 2.43695C65.0585 2.43695 65.1623 2.43695 65.266 2.68815C65.7849 2.43695 66.2 2.43695 66.7189 2.68815L66.9264 2.43695C67.0302 2.43695 67.134 2.18574 67.2378 2.18574C68.068 2.18574 68.8982 2.43695 69.7284 2.43695C70.5585 2.43695 71.4925 2.43695 72.5303 2.43695C72.5303 2.43695 72.634 2.43695 72.634 2.18574C72.634 2.18574 72.634 1.93454 72.7378 1.93454C73.1529 1.93454 73.4642 2.18574 73.6718 2.18574C73.8793 2.18574 74.0869 2.18574 74.2944 1.93454C74.7095 2.18574 75.1246 2.18574 75.5397 2.18574C75.9548 1.93454 76.2661 1.93454 76.6812 1.93454C76.5775 2.18574 76.6812 2.18574 76.8888 2.18574C76.9926 1.93454 77.2001 1.93454 77.3039 1.93454C77.4077 1.93454 77.4077 1.93454 77.4077 2.18574L77.5114 2.43695C78.3416 2.43695 78.9643 2.43695 79.5869 2.43695C80.2096 2.43695 80.8322 2.43695 81.4549 2.43695C81.5586 2.18574 81.6624 2.18574 81.6624 2.18574L81.87 2.43695C82.0775 2.18574 82.3888 1.93454 82.5964 2.18574C82.8039 2.43695 83.1153 2.18574 83.3228 1.93454C83.5304 2.18574 83.7379 2.43695 83.9455 2.43695C84.153 2.43695 84.4643 2.43695 84.6719 2.43695C84.9832 2.43695 85.1907 2.43695 85.3983 2.18574C85.6058 2.18574 85.8134 2.18574 86.1247 2.43695C86.1247 2.18574 86.1247 2.18574 86.1247 2.18574L86.2285 2.43695C86.3323 2.18574 86.436 1.93454 86.7474 2.18574C86.9549 2.18574 87.1625 2.43695 87.2662 2.43695C87.37 2.18574 87.5776 2.18574 87.6813 2.18574C87.8889 2.18574 87.9927 2.18574 88.2002 2.43695C88.2002 2.18574 88.2002 2.18574 88.304 2.18574C88.6153 2.43695 88.9266 2.68815 89.238 2.43695C89.5493 2.43695 89.8606 2.43695 90.1719 2.43695C90.1719 2.18574 90.1719 2.18574 90.2757 2.18574C90.4833 2.43695 90.7946 2.43695 91.0021 2.18574C91.2097 2.18574 91.521 2.18574 91.7285 2.18574C91.4172 1.68333 91.0021 1.68333 90.6908 1.93454C90.2757 2.18574 89.8606 2.18574 89.4455 1.93454C88.6153 1.93454 87.7851 2.18574 86.8511 2.18574C85.9172 2.18574 84.9832 2.18574 84.0492 2.18574C84.0492 2.18574 84.0492 2.43695 84.153 2.43695C84.2568 2.43695 84.2568 2.43695 84.0492 2.68815C83.8417 2.43695 83.6341 2.43695 83.4266 2.18574C83.219 2.18574 82.9077 2.18574 82.7002 2.43695C81.1435 2.43695 79.5869 2.43695 78.2379 2.43695C76.8888 2.43695 75.3322 2.68815 73.8793 2.68815C73.4642 2.93936 73.0491 2.93936 72.7378 2.68815C72.3227 2.43695 72.0114 2.68815 71.5963 2.93936C70.6623 2.93936 69.7284 2.93936 68.8982 2.93936C68.068 2.93936 67.134 3.19056 66.2 3.19056C65.9925 3.19056 65.7849 3.19056 65.3698 2.93936C65.0585 2.93936 64.7472 2.93936 64.4359 3.19056C64.7472 2.43695 64.851 2.43695 64.9547 2.43695Z" fill="black"/>
<path d="M86.8511 3.19022H87.5775C87.785 3.19022 87.9926 3.19022 88.2001 3.19022C88.0964 2.93901 87.8888 2.93901 87.4737 2.93901C87.0586 2.68781 86.8511 2.93901 86.8511 3.19022Z" fill="black"/>
<path d="M108.436 3.44133C108.644 3.44133 108.851 3.44133 108.955 3.69254C109.163 3.69254 109.266 3.69254 109.37 3.44133C109.163 3.44133 109.059 3.44133 108.851 3.44133C108.748 3.19013 108.54 3.19013 108.436 3.44133Z" fill="black"/>
<path d="M104.597 3.19066C104.7 3.19066 104.804 3.19066 104.804 2.93945H104.389C104.389 3.19066 104.493 3.19066 104.597 3.19066Z" fill="black"/>
<path d="M107.087 3.19036C107.087 3.44156 107.191 3.69277 107.502 3.44156C107.71 3.44156 107.917 3.19036 108.021 3.19036C107.917 2.93915 107.71 2.93915 107.502 3.19036C107.398 3.19036 107.295 3.19036 107.087 3.19036Z" fill="black"/>
<path d="M100.342 2.93945C100.342 3.19066 100.342 3.19066 100.446 3.19066C100.55 3.19066 100.654 3.19066 100.654 3.19066C100.758 2.93945 100.654 2.93945 100.342 2.93945Z" fill="black"/>
<path d="M103.766 2.93945C103.766 3.19066 103.766 3.19066 103.87 3.19066H104.181C104.285 2.93945 104.078 2.93945 103.766 2.93945Z" fill="black"/>
<path d="M102.21 2.93937C101.795 2.68816 101.276 2.93937 100.964 3.44178C101.483 3.44178 101.898 3.19057 102.417 3.44178C102.832 3.44178 103.351 3.44178 103.766 3.19057C103.248 2.93937 102.729 2.93937 102.21 2.93937Z" fill="black"/>
<path d="M125.975 4.69727C125.871 4.69727 125.767 4.69727 125.767 4.69727C125.663 4.69727 125.663 4.94847 125.663 4.94847C125.663 5.19968 125.871 4.94847 125.975 4.69727Z" fill="black"/>
<path d="M113.106 3.44163C113.002 3.19043 112.795 3.19043 112.691 3.44163C113.002 3.44163 113.417 3.69284 113.832 3.69284C114.248 3.69284 114.559 3.69284 114.974 3.44163C114.766 3.44163 114.455 3.44163 114.248 3.44163C114.144 3.44163 113.832 3.44163 113.314 3.19043C113.314 3.44163 113.314 3.69284 113.106 3.44163Z" fill="black"/>
<path d="M136.66 6.45591C136.556 6.2047 136.452 5.9535 136.349 5.9535C136.349 5.9535 136.452 5.9535 136.452 5.70229C136.452 5.70229 136.452 5.70229 136.452 5.45109C136.452 5.45109 136.452 5.19988 136.349 5.19988C136.245 5.19988 136.245 5.19988 136.245 4.94868C135.207 4.69747 134.169 4.19506 133.028 3.94386C131.886 3.69265 130.641 3.44145 129.396 3.19024C128.151 2.93904 126.905 2.68783 125.764 2.68783L122.443 2.18542C122.028 2.18542 121.717 1.93422 121.405 1.93422C121.094 1.93422 120.783 1.93422 120.575 2.18542C120.056 1.93422 119.433 1.68301 118.811 1.68301C118.084 1.68301 117.358 1.68301 116.632 1.68301C115.698 1.43181 114.867 1.1806 113.933 1.1806C112.999 1.1806 111.962 1.1806 111.028 0.929397C110.924 0.929397 110.924 0.929397 110.82 1.1806C110.716 1.1806 110.613 1.1806 110.613 1.1806L110.716 0.929397C110.094 0.929397 109.471 0.678191 108.848 0.678191C108.33 0.426986 107.707 0.678191 107.188 0.929397C107.084 0.678191 107.084 0.678191 106.981 0.678191C106.877 0.678191 106.773 0.678191 106.669 0.426986C106.462 0.426986 106.15 0.426986 105.943 0.426986C105.631 0.426986 105.424 0.426986 105.113 0.426986C104.905 0.426986 104.594 0.426986 104.386 0.175781C104.075 0.175781 103.867 0.175781 103.867 0.678191C104.594 0.426986 105.216 0.426986 105.943 0.426986C106.669 0.678191 107.292 0.678191 108.018 0.678191C108.122 0.678191 108.122 0.678191 108.122 0.929397C108.122 0.929397 108.122 1.1806 108.226 1.1806C108.33 1.1806 108.33 0.929397 108.33 0.929397C108.33 0.929397 108.33 0.929397 108.433 0.929397C108.848 1.1806 109.264 1.1806 109.679 0.929397C110.094 0.678191 110.405 0.929397 110.716 1.1806C111.235 1.1806 111.754 1.1806 112.273 1.1806C112.792 1.1806 113.311 1.1806 113.83 1.1806C113.933 1.1806 114.037 1.1806 114.037 1.1806C114.141 1.1806 114.245 1.43181 114.245 1.43181C114.349 1.43181 114.452 1.43181 114.452 1.43181C114.556 1.43181 114.66 1.43181 114.867 1.43181C114.971 1.43181 115.179 1.43181 115.283 1.68301C115.49 1.68301 115.594 1.68301 115.801 1.68301C115.905 1.68301 116.009 1.43181 116.113 1.43181C116.216 1.43181 116.32 1.43181 116.424 1.1806C116.528 1.1806 116.632 1.1806 116.735 1.43181C116.839 1.43181 116.943 1.68301 117.047 1.68301C117.254 1.68301 117.566 1.68301 117.773 1.68301C118.084 1.68301 118.396 1.68301 118.603 1.68301C118.811 1.68301 119.018 1.68301 119.33 1.68301C119.537 1.68301 119.745 1.68301 119.849 1.68301C119.952 1.68301 119.952 1.68301 119.952 1.93422C119.952 2.18542 119.952 2.18542 120.056 1.93422C120.367 1.68301 120.679 1.68301 121.094 1.93422C121.509 2.18542 121.82 2.18542 122.235 2.43663L122.443 2.18542C123.169 2.43663 123.896 2.68783 124.622 2.68783C125.349 2.68783 126.179 2.93904 126.905 3.19024C127.528 3.19024 128.254 3.19024 129.085 3.19024C129.811 3.19024 130.537 3.44145 131.264 3.94386C131.575 3.69265 131.99 3.69265 132.302 3.94386C132.613 4.19506 132.82 4.19506 133.132 4.44627C132.613 4.44627 132.094 4.44627 131.575 4.44627C131.056 4.44627 130.641 4.19506 130.122 3.94386C129.5 3.94386 128.877 3.94386 128.254 3.69265C127.632 3.44145 127.009 3.44145 126.386 3.44145C126.283 3.19024 126.283 3.19024 126.179 3.19024C126.075 3.19024 126.075 3.19024 126.075 2.93904C125.971 2.93904 125.868 2.93904 125.868 2.93904C125.868 3.19024 125.764 3.19024 125.764 3.19024C125.556 2.93904 125.245 2.68783 125.037 2.93904C124.726 2.93904 124.518 2.93904 124.311 2.93904C123.792 2.93904 123.169 2.93904 122.65 2.68783C122.132 2.43663 121.509 2.43663 120.99 2.43663C119.641 2.43663 118.188 2.18542 116.735 2.18542C115.283 2.18542 113.83 1.93422 112.273 1.93422C111.962 1.93422 111.65 1.68301 111.443 1.68301C111.132 1.68301 110.82 1.68301 110.613 1.93422C109.886 1.68301 109.056 1.68301 108.33 1.68301C107.603 1.68301 106.877 1.68301 106.15 1.43181C105.424 1.43181 104.801 1.43181 104.075 1.43181C103.348 1.43181 102.726 1.43181 101.999 1.1806C101.169 1.1806 100.339 1.1806 99.6126 1.1806C98.8861 1.1806 98.0559 1.1806 97.3295 1.1806C96.6031 1.1806 95.8767 0.929397 95.0465 1.1806C94.2163 1.1806 93.3861 1.1806 92.6597 1.1806C91.7257 1.1806 90.8955 1.1806 89.9615 0.929397C89.1313 0.929397 88.1974 0.929397 87.2634 1.1806C87.0558 1.1806 86.7445 1.1806 86.4332 1.1806C86.1219 1.1806 85.8106 1.1806 85.4992 1.1806C85.2917 1.1806 85.0841 1.1806 84.8766 1.1806C84.669 1.1806 84.5653 1.1806 84.3577 1.1806C83.5275 1.1806 82.5935 0.929397 81.6596 0.929397C80.7256 0.929397 79.6879 0.929397 78.6501 1.1806L75.6407 1.43181C74.6029 1.43181 73.6689 1.68301 72.735 1.68301C71.4897 1.68301 70.2444 1.68301 69.1029 1.68301C67.8576 1.68301 66.716 1.68301 65.4708 1.93422C63.9141 1.93422 62.2537 1.93422 60.5934 2.18542C58.933 2.43663 57.2726 2.43663 55.6122 2.43663C55.716 2.18542 55.8197 2.18542 55.8197 2.18542C55.9235 2.18542 56.0273 2.18542 56.0273 1.93422C56.2348 2.18542 56.4424 2.43663 56.7537 2.18542C57.065 1.93422 57.3763 1.93422 57.5839 2.18542C57.5839 2.18542 57.5839 1.93422 57.4801 1.93422C57.4801 1.93422 57.4801 1.93422 57.5839 1.68301C57.7914 1.68301 58.1028 1.68301 58.3103 1.68301C58.6216 1.68301 58.8292 1.68301 59.2443 1.68301C59.2443 1.43181 59.3481 1.43181 59.4518 1.43181C59.5556 1.43181 59.6594 1.43181 59.7632 1.43181C59.8669 1.43181 59.9707 1.43181 60.0745 1.43181C60.1783 1.43181 60.1783 1.1806 60.1783 1.1806C59.2443 1.1806 58.2065 1.43181 57.065 1.43181C55.9235 1.43181 54.782 1.68301 53.6405 1.93422C53.5367 1.93422 53.5367 1.93422 53.5367 1.68301C53.5367 1.68301 53.4329 1.68301 53.3291 1.68301C52.4989 1.93422 51.6688 1.93422 50.8386 1.93422C50.0084 1.93422 49.1782 1.93422 48.4517 2.18542C48.0366 1.93422 47.5178 1.93422 47.1027 2.18542C46.5838 2.43663 46.1687 2.43663 45.6498 2.18542C45.5461 2.18542 45.5461 2.43663 45.5461 2.43663C45.5461 2.43663 45.5461 2.68783 45.4423 2.68783C45.131 2.43663 44.8196 2.18542 44.5083 2.43663C44.197 2.68783 43.7819 2.68783 43.4706 2.43663C39.3196 2.93904 34.8573 3.19024 30.395 3.44145C25.8289 3.69265 21.4704 3.69265 17.2156 3.69265C14.6213 3.69265 12.1307 3.94386 9.64009 4.19506C7.25328 4.69747 4.76269 4.69747 2.16833 4.69747C1.96078 4.44627 1.64945 4.19506 1.33813 4.19506C1.02681 4.44627 0.819258 4.94868 0.715484 5.70229C0.611709 6.2047 0.507935 6.95832 0.507935 7.46073C0.715484 8.21434 1.02681 8.71675 1.33813 8.71675C1.75323 8.96796 2.06455 9.21916 2.47965 9.21916H4.45136C5.17779 9.21916 5.90421 9.21916 6.7344 9.21916C7.04573 8.96796 7.35705 8.71675 7.66837 8.71675C7.9797 8.71675 8.29102 8.71675 8.70612 8.71675C9.01744 8.71675 9.43254 8.71675 9.74386 8.71675C10.0552 8.71675 10.4703 8.46555 10.7816 8.46555C11.1967 8.71675 11.6118 8.71675 11.9231 8.71675C12.3382 8.71675 12.7533 8.46555 13.1684 8.46555C13.5835 8.46555 13.9986 8.21434 14.4137 8.21434C14.8288 8.21434 15.3477 8.21434 15.7628 8.21434C15.9703 8.21434 16.1779 7.96314 16.4892 7.96314C17.942 7.96314 19.2911 7.96314 20.744 7.71193C22.1968 7.46073 23.5459 7.46073 24.9987 7.71193C25.8289 7.46073 26.6591 7.46073 27.4893 7.46073C28.4233 7.46073 29.2535 7.46073 30.1874 7.71193C30.2912 7.46073 30.395 7.20952 30.7063 7.46073C31.0176 7.46073 31.2252 7.46073 31.5365 7.46073C31.5365 7.46073 31.5365 7.20952 31.4327 7.20952C31.329 7.20952 31.4327 6.95832 31.5365 6.95832C31.6403 6.95832 31.7441 6.95832 31.6403 7.20952C31.6403 7.46073 31.6403 7.46073 31.8478 7.46073C31.8478 7.46073 31.8478 7.20952 31.7441 7.20952C31.6403 7.20952 31.6403 7.20952 31.8478 6.95832C32.0554 7.46073 32.3667 7.46073 32.5742 7.20952C32.8856 6.95832 33.1969 6.95832 33.4044 7.20952C33.4044 6.95832 33.4044 6.70711 33.612 6.70711C33.7158 6.70711 33.8195 6.95832 33.8195 6.70711C33.9233 6.70711 34.0271 6.70711 34.2346 6.70711C34.2346 6.70711 34.2346 6.95832 34.1309 6.95832C34.0271 6.95832 34.0271 6.95832 34.0271 7.20952C34.2346 7.20952 34.3384 7.20952 34.3384 7.20952C34.3384 7.20952 34.3384 6.95832 34.4422 6.70711C34.546 6.70711 34.546 6.70711 34.546 6.95832C34.4422 6.95832 34.546 7.20952 34.546 7.20952C35.0648 7.20952 35.5837 6.95832 35.9988 6.95832C36.4139 6.95832 36.829 6.95832 37.2441 7.20952C37.3479 6.70711 37.5554 6.70711 37.763 6.95832C37.763 6.70711 37.8667 6.45591 37.9705 6.45591C38.1781 6.45591 38.1781 6.2047 38.0743 5.9535C38.2818 5.9535 38.2818 6.2047 38.1781 6.2047C38.0743 6.45591 38.0743 6.45591 38.1781 6.70711H37.763C37.763 6.95832 37.8667 7.20952 38.0743 6.95832C38.2818 6.70711 38.2818 6.70711 38.2818 6.70711C38.3856 6.95832 38.4894 6.95832 38.5932 6.70711C38.6969 6.45591 38.8007 6.45591 38.9045 6.70711C38.8007 6.70711 38.8007 6.95832 38.8007 6.95832C38.8007 7.20952 38.9045 7.20952 38.9045 7.20952C38.9045 6.70711 39.112 6.2047 39.3196 6.2047C39.4234 6.45591 39.4234 6.45591 39.3196 6.45591C39.2158 6.45591 39.2158 6.70711 39.3196 6.70711C39.5271 6.45591 39.8385 6.45591 40.046 6.70711C40.046 6.70711 40.046 6.45591 39.9422 6.45591C39.8385 6.45591 39.9422 6.2047 40.046 6.2047C40.1498 6.2047 40.2536 6.2047 40.1498 6.45591C40.1498 6.70711 40.1498 6.70711 40.2536 6.70711C40.3573 6.70711 40.5649 6.45591 40.6687 6.2047C40.7724 6.2047 40.7724 6.2047 40.7724 6.45591C40.7724 6.70711 40.7724 6.70711 40.8762 6.70711C41.0838 6.45591 41.2913 6.45591 41.4989 6.45591C41.7064 6.45591 41.8102 6.45591 41.9139 6.70711C42.0177 6.45591 42.2253 6.45591 42.329 6.45591C42.5366 6.45591 42.7441 6.45591 42.9517 6.45591C43.1592 6.45591 43.3668 6.45591 43.5743 6.45591C43.7819 6.45591 43.8857 6.2047 44.0932 5.9535V6.2047C44.0932 6.2047 44.0932 6.2047 44.0932 6.45591C44.4045 6.45591 44.6121 6.45591 44.9234 6.45591C45.2347 6.2047 45.4423 6.45591 45.3385 6.70711C45.4423 6.70711 45.5461 6.45591 45.6498 6.2047C45.7536 5.9535 45.8574 5.9535 46.0649 5.70229C46.1687 5.70229 46.1687 5.9535 46.1687 6.2047C46.2725 6.2047 46.48 6.2047 46.5838 6.2047C46.6876 6.2047 46.7913 6.2047 46.7913 6.45591C46.7913 6.45591 46.8951 6.2047 46.8951 5.9535C46.8951 5.70229 46.8951 5.70229 46.9989 5.45109C47.1027 5.45109 47.2064 5.70229 47.1027 5.70229C47.1027 5.70229 47.1027 5.9535 47.2064 5.9535C47.5178 5.70229 47.8291 5.45109 48.1404 5.70229C48.4517 5.9535 48.7631 5.70229 48.9706 5.45109V5.70229C49.1782 5.70229 49.2819 5.70229 49.3857 5.70229C49.4895 5.70229 49.5933 5.70229 49.697 5.45109C49.8008 5.70229 50.0084 5.9535 50.1121 5.9535C50.2159 5.9535 50.2159 5.70229 50.2159 5.70229C50.2159 5.45109 50.2159 5.45109 50.4235 5.70229C50.3197 5.70229 50.3197 5.9535 50.3197 5.9535C50.4235 5.9535 50.5272 5.9535 50.631 5.9535C50.7348 5.9535 50.8386 5.9535 50.9423 5.9535V5.70229H50.7348C50.631 5.70229 50.631 5.70229 50.631 5.70229C50.631 5.70229 50.631 5.70229 50.631 5.45109C50.8386 5.45109 51.0461 5.45109 51.3574 5.45109C51.4612 5.45109 51.4612 5.70229 51.4612 5.70229C51.3574 5.70229 51.4612 5.9535 51.6688 5.9535H51.7725L51.8763 5.70229C52.0839 5.70229 52.0838 5.70229 52.0838 5.9535C52.0838 6.2047 52.0838 6.2047 52.1876 6.2047C52.2914 6.2047 52.2914 5.9535 52.2914 5.9535C52.2914 5.9535 52.2914 5.70229 52.3952 5.70229H52.8103C52.8103 5.9535 52.8103 5.9535 52.914 6.2047V5.9535C52.914 5.9535 52.914 5.70229 53.0178 5.70229C53.2254 5.70229 53.4329 5.70229 53.6405 5.70229C53.848 5.45109 54.0556 5.70229 54.1593 5.9535C54.2631 5.9535 54.3669 5.70229 54.4707 5.45109C54.5744 5.19988 54.6782 5.19988 54.8858 5.19988C54.8858 5.19988 54.9895 5.19988 54.9895 5.45109C55.0933 5.45109 55.1971 5.45109 55.3009 5.19988C55.4046 4.94868 55.5084 4.94868 55.6122 4.94868C55.6122 5.19988 55.6122 5.19988 55.716 5.19988C55.8197 5.19988 55.8197 5.45109 55.716 5.45109C56.0273 4.94868 56.3386 4.94868 56.6499 4.94868C56.9612 4.94868 57.3763 4.94868 57.6877 5.45109C57.6877 5.45109 57.6877 5.19988 57.5839 5.19988C57.4801 5.19988 57.4801 5.19988 57.6877 4.94868C57.7914 5.19988 57.8952 5.19988 58.1028 4.94868C58.2065 4.94868 58.4141 4.94868 58.5179 4.94868C58.3103 5.19988 58.1028 5.19988 57.8952 5.19988C58.1028 5.45109 58.4141 5.70229 58.6216 5.45109C58.8292 5.19988 59.1405 5.45109 59.3481 5.70229C59.5556 5.45109 59.7632 5.19988 59.9707 5.45109C60.1783 5.70229 60.4896 5.70229 60.6971 5.45109V4.94868C60.4896 4.94868 60.282 4.94868 59.9707 4.94868C59.8669 5.19988 59.6594 4.94868 59.5556 4.69747C59.9707 4.69747 60.3858 4.44627 60.6971 4.69747C61.0085 4.69747 61.3198 4.69747 61.7349 4.44627C61.7349 4.69747 61.7349 4.69747 61.6311 4.69747C61.5273 4.69747 61.4235 4.69747 61.3198 4.69747C61.216 4.69747 61.1122 4.69747 61.0085 4.69747C60.9047 4.69747 60.9047 4.94868 61.0085 4.94868C61.216 4.69747 61.4235 4.69747 61.5273 4.69747C61.7349 4.94868 61.9424 4.94868 62.2537 4.69747C62.2537 4.44627 62.2537 4.19506 62.3575 4.19506C62.4613 4.44627 62.5651 4.44627 62.5651 4.19506C62.6688 4.19506 62.7726 4.19506 62.7726 4.19506C62.8764 4.44627 62.8764 4.44627 62.6688 4.44627C62.4613 4.44627 62.4613 4.44627 62.4613 4.44627C62.4613 4.69747 62.6688 4.69747 62.8764 4.44627C62.9802 4.44627 62.9802 4.19506 62.9802 4.19506L62.8764 3.94386C62.9802 4.19506 63.1877 3.94386 63.2915 3.94386C63.3953 3.69265 63.499 3.69265 63.6028 3.94386C63.499 3.94386 63.499 4.19506 63.499 4.19506C63.499 4.19506 63.6028 4.19506 63.6028 4.44627C63.2915 4.44627 63.1877 4.44627 63.1877 4.94868C63.2915 4.69747 63.499 4.69747 63.6028 4.69747C63.7066 4.69747 63.9141 4.69747 64.1217 4.44627C64.1217 3.94386 64.2255 3.94386 64.433 3.94386C64.6406 3.94386 64.8481 3.94386 65.0557 3.94386V4.19506C65.0557 4.19506 65.0557 4.19506 65.0557 4.44627H65.7821C65.7821 4.19506 65.6783 4.19506 65.4708 4.19506C65.2632 4.19506 65.2632 4.19506 65.2632 3.94386C65.6783 3.94386 66.0934 3.94386 66.5085 3.94386C66.9236 3.94386 67.3387 3.94386 67.65 3.44145C67.9613 3.94386 68.2727 4.19506 68.584 4.19506C68.9991 4.19506 69.3104 4.19506 69.7255 3.94386C69.518 3.94386 69.3104 3.94386 68.9991 3.94386C68.7915 3.94386 68.584 3.94386 68.2727 3.94386C68.6878 3.69265 69.1029 3.69265 69.518 3.69265C69.9331 3.69265 70.2444 3.69265 70.6595 3.44145C70.5557 3.69265 70.6595 3.69265 70.7633 3.69265C70.867 3.69265 70.867 3.69265 70.7633 3.69265C70.867 3.69265 70.9708 3.94386 71.0746 3.94386C71.1784 3.94386 71.3859 3.94386 71.4897 4.19506C71.4897 3.69265 71.5935 3.44145 71.6972 3.44145C71.801 3.44145 72.0085 3.44145 72.1123 3.69265C72.2161 3.94386 72.3199 3.94386 72.5274 3.94386C72.6312 3.94386 72.6312 3.69265 72.4236 3.69265C72.2161 3.69265 72.2161 3.44145 72.3199 3.44145C72.4236 3.44145 72.6312 3.44145 72.735 3.44145C72.8387 3.19024 73.0463 3.44145 73.1501 3.69265C73.0463 3.69265 73.0463 3.69265 73.0463 3.69265H72.9425C72.8387 3.94386 72.8387 4.19506 72.735 4.19506C73.1501 3.94386 73.4614 3.94386 73.8765 3.94386C74.1878 4.19506 74.4991 3.94386 74.8105 3.69265H74.3954C74.2916 3.69265 74.1878 3.69265 74.084 3.44145C74.6029 3.44145 75.1218 3.44145 75.6407 3.44145C75.4331 3.44145 75.3293 3.69265 75.3293 3.69265C75.4331 3.69265 75.5369 3.69265 75.5369 3.94386C75.8482 3.94386 76.1595 3.69265 76.4708 3.69265C76.6784 3.69265 76.9897 3.44145 77.0935 3.19024C77.1973 3.44145 77.4048 3.44145 77.5086 3.44145C77.7161 3.44145 77.9237 3.44145 78.1312 3.44145C78.235 3.44145 78.235 3.69265 78.1312 3.69265C78.0275 3.69265 78.1312 3.94386 78.235 3.94386C78.235 3.69265 78.235 3.44145 78.3388 3.69265C78.4426 3.69265 78.4426 3.94386 78.4426 3.94386C78.5463 3.94386 78.5463 3.69265 78.4426 3.69265C78.3388 3.69265 78.4426 3.44145 78.4426 3.44145C78.5463 3.44145 78.6501 3.44145 78.7539 3.69265C78.7539 3.94386 78.9614 3.94386 79.169 3.94386C79.169 3.69265 79.169 3.44145 79.2728 3.44145C79.2728 3.69265 79.2728 3.69265 79.3765 3.69265C79.4803 3.69265 79.4803 3.94386 79.4803 4.19506C79.6879 4.19506 79.8954 3.94386 80.103 4.19506C80.3105 4.19506 80.4143 4.19506 80.6218 3.94386C80.8294 4.19506 80.9332 4.19506 81.1407 4.19506C81.3483 4.19506 81.5558 3.94386 81.6596 3.94386C81.8671 3.69265 82.0747 3.69265 82.1784 3.44145C82.386 3.19024 82.4898 3.19024 82.6973 2.93904V3.19024C82.6973 3.19024 82.6973 3.19024 82.6973 3.44145C82.8011 3.44145 82.8011 3.44145 82.9049 3.44145C83.0086 3.44145 83.1124 3.44145 83.1124 3.44145L83.0086 3.69265C83.1124 3.69265 83.2162 3.69265 83.32 3.69265C83.4237 3.69265 83.5275 3.69265 83.6313 3.69265C83.6313 3.94386 83.6313 3.94386 83.5275 3.94386C83.4237 3.94386 83.32 3.94386 83.32 3.94386C83.2162 3.94386 83.2162 3.94386 83.1124 3.94386C83.1124 3.94386 83.0086 3.94386 83.0086 4.19506C83.1124 4.19506 83.32 4.19506 83.4237 4.19506C83.6313 4.19506 83.7351 4.19506 83.8388 3.94386C83.7351 3.94386 83.7351 3.94386 83.7351 3.69265L83.6313 3.44145C83.6313 3.19024 83.7351 3.19024 83.8388 3.19024C83.8388 3.19024 83.9426 3.19024 83.9426 3.44145C83.9426 3.44145 83.9426 3.44145 84.0464 3.44145C84.2539 3.19024 84.4615 3.19024 84.669 2.93904C84.8766 2.93904 85.0841 2.68783 85.2917 2.68783C85.3955 2.68783 85.603 2.93904 85.7068 2.93904C85.8106 3.19024 86.0181 3.19024 86.1219 3.19024C86.1219 2.93904 86.1219 2.68783 86.2256 2.68783C86.1219 2.68783 86.0181 2.68783 86.0181 2.68783C85.9143 2.68783 85.9143 2.68783 85.9143 2.43663C86.0181 2.43663 86.2256 2.43663 86.3294 2.43663C86.4332 2.43663 86.537 2.43663 86.6407 2.43663C86.4332 2.68783 86.3294 2.93904 86.4332 3.44145C86.6407 3.44145 86.6408 3.44145 86.537 3.19024C86.4332 2.93904 86.4332 2.93904 86.537 2.93904C86.6408 3.19024 86.7445 3.19024 86.8483 3.19024C86.9521 3.19024 87.1596 3.19024 87.2634 3.44145C87.3672 3.69265 87.5747 3.69265 87.6785 3.69265H88.3011C88.1974 3.44145 88.3011 3.44145 88.5087 3.19024C88.6125 2.93904 88.82 2.93904 88.9238 2.93904C89.0276 3.19024 89.0276 3.19024 88.9238 3.19024C88.82 3.19024 88.82 3.19024 88.82 3.44145C89.0276 3.44145 89.0276 3.44145 89.0276 3.69265C89.1313 3.94386 89.3389 3.69265 89.4427 3.69265C89.5464 3.44145 89.6502 3.44145 89.754 3.19024C89.8578 3.44145 89.9615 3.44145 90.0653 3.44145C90.1691 3.44145 90.2729 3.19024 90.2729 3.19024C90.4804 3.69265 90.688 3.94386 90.9993 3.69265C91.3106 3.44145 91.5182 3.44145 91.7257 3.19024C91.8295 3.44145 92.037 3.44145 92.2446 3.44145C92.4521 3.44145 92.6597 3.44145 92.7634 3.69265C92.8672 3.69265 92.8672 3.44145 92.971 3.19024C92.971 2.93904 93.1785 2.93904 93.3861 2.93904V3.19024V3.44145H93.4899C93.4899 3.44145 93.4899 3.44145 93.3861 3.69265V3.44145H93.2823C93.2823 3.44145 93.2823 3.44145 93.1785 3.44145C93.1785 3.69265 93.1785 3.69265 93.1785 3.69265L93.0748 3.94386C93.1785 3.94386 93.1785 3.94386 93.1785 3.94386C93.2823 3.94386 93.3861 3.94386 93.4899 3.94386C93.4899 3.69265 93.4899 3.44145 93.5936 3.44145C93.6974 3.69265 93.8012 3.69265 93.905 3.94386C94.0087 3.94386 94.1125 3.94386 94.2163 3.94386C94.3201 3.94386 94.4238 3.94386 94.5276 3.69265C94.6314 3.69265 94.7352 3.69265 94.8389 3.69265C94.9427 3.69265 94.9427 3.44145 94.9427 3.44145C94.9427 3.44145 94.9427 3.19024 95.0465 3.19024C95.1503 3.19024 95.1503 3.44145 95.1503 3.44145C95.0465 3.69265 95.1503 3.69265 95.3578 3.69265C95.3578 3.44145 95.3578 3.44145 95.4616 3.44145C95.5654 3.44145 95.5654 3.44145 95.6691 3.19024C95.7729 3.19024 95.7729 3.44145 95.8767 3.44145H96.188C96.188 3.69265 96.188 3.69265 96.2918 3.69265C96.3955 3.44145 96.6031 3.44145 96.8106 3.69265C97.122 3.94386 97.3295 3.69265 97.3295 3.44145C97.122 3.44145 97.122 3.44145 97.122 3.19024C97.2257 2.93904 97.2257 2.93904 97.3295 2.68783C97.4333 2.43663 97.5371 2.43663 97.6408 2.68783C97.5371 2.93904 97.5371 2.93904 97.4333 2.93904C97.3295 2.93904 97.3295 2.93904 97.3295 3.19024C97.6408 3.19024 97.9522 3.19024 98.1597 3.44145C98.3673 3.69265 98.6786 3.44145 98.8861 3.19024C98.8861 2.93904 98.9899 2.93904 99.0937 2.93904C99.1975 2.93904 99.3012 2.93904 99.405 2.93904V3.19024H99.6126C99.5088 3.19024 99.405 3.19024 99.405 3.19024C99.405 2.93904 99.5088 2.68783 99.7163 2.68783C99.7163 2.93904 99.7163 3.19024 99.7163 3.19024C99.8201 3.44145 99.7163 3.69265 99.6126 3.94386C99.7163 3.94386 99.8201 3.69265 100.028 3.44145C100.131 3.19024 100.339 3.19024 100.443 3.19024C100.547 3.44145 100.65 3.69265 100.858 3.44145C101.065 3.44145 101.273 3.44145 101.377 3.69265C101.48 3.44145 101.584 3.19024 101.584 3.44145C101.688 3.69265 101.688 3.69265 101.688 3.69265C101.584 3.69265 101.584 3.69265 101.584 3.94386C101.792 3.94386 101.792 3.94386 101.792 3.94386C101.792 3.69265 101.896 3.69265 101.999 3.94386V4.19506C102.103 4.19506 102.103 4.19506 102.103 4.19506C102.103 3.94386 102.103 3.94386 101.999 3.94386C102.103 3.94386 102.207 3.69265 102.207 3.44145C102.207 3.19024 102.311 3.19024 102.414 3.44145C102.414 3.19024 102.414 3.19024 102.414 3.19024C102.311 3.19024 102.311 2.93904 102.311 2.93904C102.414 2.93904 102.518 3.19024 102.622 3.19024C102.726 3.19024 102.83 3.19024 102.933 3.44145C102.83 3.44145 102.83 3.69265 102.726 3.69265C102.622 3.69265 102.622 3.69265 102.622 3.94386C102.622 4.19506 102.726 4.44627 102.83 4.44627C102.83 4.19506 102.933 3.94386 103.141 3.94386C103.348 3.94386 103.452 3.69265 103.556 3.69265C103.556 3.69265 103.556 3.94386 103.452 3.94386C103.452 3.94386 103.348 3.94386 103.348 4.19506C103.452 4.19506 103.556 4.19506 103.556 3.94386C103.556 3.94386 103.66 3.94386 103.66 4.19506C103.764 4.19506 103.764 3.94386 103.66 3.94386C103.556 3.94386 103.66 3.69265 103.764 3.69265V3.94386C103.764 3.94386 103.764 3.94386 103.867 3.94386C103.867 3.94386 103.867 4.19506 103.764 4.19506C103.66 4.19506 103.66 4.44627 103.66 4.44627C103.764 4.44627 103.867 4.44627 103.867 4.44627C103.971 4.44627 103.971 4.44627 104.075 4.44627C104.075 4.19506 104.075 4.19506 104.179 4.19506C104.282 4.19506 104.282 4.19506 104.282 4.44627C104.282 4.44627 104.282 4.69747 104.386 4.69747C104.386 4.44627 104.386 4.44627 104.49 4.44627C104.594 4.69747 104.698 4.69747 104.801 4.69747C104.905 4.44627 105.113 4.44627 105.32 4.19506C105.424 4.44627 105.528 4.44627 105.839 4.44627C106.047 4.44627 106.15 4.44627 106.358 4.44627C106.358 4.44627 106.254 4.69747 106.15 4.69747C106.047 4.69747 106.047 4.69747 106.047 4.94868C106.15 4.69747 106.358 4.69747 106.462 4.69747C106.565 4.94868 106.773 4.94868 106.877 4.69747C106.981 4.44627 106.877 4.19506 106.773 4.44627C106.565 4.44627 106.565 4.44627 106.669 4.19506C106.981 4.19506 107.188 4.19506 107.084 4.19506C107.084 4.44627 107.188 4.44627 107.396 4.69747C107.603 4.69747 107.603 4.44627 107.396 4.44627C107.292 4.44627 107.292 4.19506 107.396 4.19506C107.707 4.19506 107.915 4.19506 108.122 4.19506C108.33 4.19506 108.641 4.44627 108.745 4.94868C108.745 4.69747 108.745 4.69747 108.745 4.44627C108.745 4.19506 108.745 4.19506 108.848 4.19506C108.952 4.19506 108.952 4.19506 108.952 4.44627C108.952 4.69747 108.952 4.69747 109.16 4.69747C109.264 4.69747 109.264 4.44627 109.16 4.44627C109.056 4.44627 109.056 4.19506 109.16 4.19506C109.575 4.44627 110.094 4.69747 110.509 4.44627C111.028 4.44627 111.443 4.19506 111.962 4.19506C112.065 4.44627 112.065 4.44627 111.962 4.44627C111.858 4.44627 111.858 4.44627 111.858 4.69747C111.858 4.69747 112.065 4.94868 112.273 4.94868C112.273 4.44627 112.377 4.44627 112.481 4.44627C112.481 4.44627 112.481 4.44627 112.481 4.69747C112.481 4.69747 112.481 4.69747 112.481 4.94868C112.896 4.94868 113.207 4.94868 113.415 4.94868L114.141 5.19988L114.037 5.45109C113.933 5.45109 113.933 5.45109 114.037 5.70229C114.245 5.70229 114.349 5.70229 114.556 5.70229C114.764 5.70229 114.867 5.70229 114.867 5.45109C114.764 5.45109 114.66 5.19988 114.66 5.45109C114.556 5.45109 114.452 5.45109 114.452 5.45109C114.764 5.19988 115.179 5.19988 115.49 5.19988C115.905 5.19988 116.216 5.19988 116.632 5.45109C117.047 5.45109 117.462 5.45109 117.877 5.19988C118.188 5.19988 118.5 5.19988 118.811 5.70229C118.811 5.70229 118.915 5.70229 119.018 5.70229C119.122 5.70229 119.226 5.45109 119.33 5.45109C119.433 5.45109 119.433 5.70229 119.433 5.70229C119.433 5.70229 119.537 5.9535 119.745 5.70229C119.849 5.70229 119.849 5.45109 119.849 5.45109C119.745 5.45109 119.849 5.19988 119.952 5.19988C120.056 5.45109 120.056 5.70229 120.16 5.70229C120.264 5.45109 120.367 5.45109 120.575 5.19988C121.198 5.45109 121.717 5.45109 122.235 5.70229C122.754 5.70229 123.377 5.70229 123.896 5.70229L124 5.45109C124 5.45109 124.103 5.19988 124.103 4.94868C124 4.94868 123.896 4.94868 123.896 4.94868C123.792 4.94868 123.792 4.94868 123.792 4.69747C124 4.69747 124.207 4.69747 124.415 4.69747C124.622 4.69747 124.83 4.69747 125.037 4.44627C125.141 4.44627 125.141 4.69747 125.037 4.69747C125.141 4.69747 125.245 4.69747 125.349 4.69747C125.452 4.69747 125.556 4.69747 125.556 4.44627C125.141 4.44627 124.726 4.44627 124.415 4.19506C124 3.94386 123.584 3.94386 123.169 4.19506C123.169 4.19506 123.169 4.44627 123.169 4.69747C123.169 4.94868 123.066 5.19988 122.962 5.19988C122.858 4.94868 122.858 4.94868 122.962 4.69747C123.066 4.44627 123.066 4.44627 122.858 4.44627C122.754 4.44627 122.754 4.69747 122.65 4.69747C122.65 4.94868 122.547 4.94868 122.443 4.94868C122.339 4.94868 122.235 4.94868 122.235 4.69747C122.132 4.69747 122.028 4.69747 122.028 4.69747C121.924 4.69747 121.924 4.94868 121.924 5.19988C121.924 5.45109 121.924 5.45109 121.717 5.45109C121.717 5.45109 121.717 5.19988 121.82 5.19988C121.82 5.19988 121.82 4.94868 121.717 4.94868C121.717 4.69747 121.613 4.69747 121.509 4.69747C121.405 4.69747 121.301 4.69747 121.405 4.44627C121.613 4.44627 121.924 4.44627 122.132 4.69747C122.339 4.69747 122.547 4.69747 122.754 4.44627C122.235 4.44627 121.717 4.19506 121.094 4.19506C120.471 4.19506 119.849 3.94386 119.226 3.94386C118.603 3.94386 117.877 3.69265 117.254 3.69265C116.632 3.69265 116.009 3.69265 115.49 3.69265C115.594 3.94386 115.801 3.94386 116.009 3.94386C116.216 3.94386 116.32 3.94386 116.528 4.19506C117.047 3.94386 117.462 3.94386 117.981 3.94386C118.396 3.94386 118.915 4.19506 119.33 4.19506C119.33 4.19506 119.33 4.44627 119.226 4.44627C119.226 4.44627 119.226 4.44627 119.33 4.44627C119.641 4.19506 120.056 4.19506 120.367 4.19506C120.679 4.19506 121.094 4.44627 121.405 4.44627C121.405 4.69747 121.301 4.69747 121.198 4.69747C121.094 4.69747 120.99 4.69747 121.094 4.94868C121.198 4.94868 121.198 5.19988 121.301 4.94868H121.405C121.198 5.19988 120.99 5.19988 120.886 4.94868C120.783 4.69747 120.575 4.44627 120.367 4.44627C120.056 4.69747 119.745 4.69747 119.537 4.44627C119.537 4.94868 119.433 5.19988 119.122 5.19988V4.94868C119.018 4.94868 119.018 4.94868 119.018 4.94868H118.915L119.018 4.69747C119.122 4.69747 119.122 4.69747 119.122 4.94868C119.226 4.69747 119.33 4.69747 119.33 4.69747C119.122 4.44627 119.018 4.44627 118.811 4.44627C118.707 4.44627 118.5 4.44627 118.396 4.19506C118.188 4.44627 117.981 4.44627 117.773 4.19506C117.566 3.94386 117.358 4.19506 117.254 4.44627C117.15 4.19506 116.943 4.19506 116.839 4.19506C116.735 4.19506 116.735 4.44627 116.735 4.69747C116.735 4.94868 116.632 4.94868 116.528 4.94868V4.69747L116.632 4.44627C116.528 4.19506 116.216 3.94386 116.113 4.19506C115.905 4.44627 115.698 4.19506 115.594 3.94386C115.49 4.19506 115.386 4.44627 115.179 4.19506C114.971 4.19506 114.764 4.19506 114.66 4.19506C114.764 4.19506 114.867 4.19506 114.971 4.44627C115.075 4.69747 114.971 4.69747 114.867 4.94868C114.764 4.69747 114.66 4.44627 114.556 4.44627C114.452 4.44627 114.349 4.19506 114.452 3.94386C114.141 4.19506 113.83 4.19506 113.518 3.94386C113.311 3.94386 112.999 3.94386 112.792 4.19506C112.273 3.69265 111.754 3.69265 111.132 3.69265C110.509 3.69265 109.886 3.69265 109.264 3.69265C108.745 3.44145 108.122 3.44145 107.603 3.44145C106.981 3.44145 106.358 3.44145 105.735 3.19024C105.943 2.93904 106.254 2.93904 106.462 3.19024C106.773 3.44145 106.981 3.19024 107.084 2.93904C106.773 2.93904 106.462 2.68783 106.254 2.93904C106.047 2.93904 105.839 2.93904 105.528 2.93904C105.424 2.93904 105.424 3.19024 105.528 3.19024C105.631 3.19024 105.631 3.44145 105.528 3.44145C104.282 3.44145 103.141 3.44145 102.103 3.44145C101.999 3.44145 101.999 3.69265 101.999 3.94386C101.999 4.19506 101.896 4.19506 101.688 3.94386H101.792C101.792 3.94386 101.896 3.94386 101.896 3.69265C101.584 3.44145 101.169 3.44145 100.858 3.44145C100.443 3.69265 100.235 3.44145 100.131 3.19024C100.235 3.19024 100.339 3.19024 100.443 3.19024C100.547 3.19024 100.547 3.19024 100.547 2.93904C100.131 2.93904 99.7163 2.93904 99.3012 2.93904C98.8861 2.68783 98.471 2.93904 98.1597 3.19024C98.471 3.19024 98.7824 3.19024 98.9899 3.19024C99.3012 2.93904 99.5088 3.19024 99.8201 3.44145C98.7824 3.44145 97.7446 3.44145 96.7069 3.44145C95.6691 3.44145 94.7352 3.44145 93.6974 3.44145C93.5936 3.44145 93.5936 3.44145 93.5936 3.69265C93.5936 3.69265 93.4899 3.94386 93.3861 3.94386C93.3861 3.69265 93.2823 3.69265 93.1785 3.69265C93.0748 3.69265 92.971 3.69265 92.8672 3.44145C91.5182 3.44145 90.0653 3.44145 88.7162 3.44145C87.3672 3.44145 86.0181 3.44145 84.8766 3.44145C84.9804 3.19024 84.8766 3.19024 84.7728 2.93904C84.5653 3.19024 84.3577 3.19024 84.0464 2.93904C83.7351 2.68783 83.5275 2.93904 83.4237 3.19024C83.6313 3.19024 83.8388 3.19024 84.1502 3.19024C84.3577 2.93904 84.5653 3.19024 84.7728 3.44145C84.2539 3.44145 83.6313 3.44145 83.1124 3.69265C82.4898 3.69265 81.9709 3.69265 81.3483 3.44145L82.386 3.19024C82.6973 3.19024 83.0086 3.19024 83.32 3.19024V2.93904C83.32 2.93904 83.32 2.93904 83.32 2.68783C82.4898 2.93904 81.6596 2.93904 80.8294 2.93904C80.103 2.68783 79.2728 2.93904 78.5463 3.69265C78.4426 3.69265 78.3388 3.69265 78.235 3.69265C78.1312 3.69265 78.0275 3.69265 77.9237 3.44145C78.0275 3.44145 78.235 3.44145 78.3388 3.44145C78.5463 3.44145 78.5463 3.44145 78.5463 3.19024C76.2633 3.19024 74.084 3.44145 72.2161 3.44145C70.2444 3.44145 68.1689 3.69265 65.8859 3.69265L65.367 3.94386C64.7443 3.94386 64.2255 3.69265 63.6028 3.94386C62.9802 3.94386 62.3575 4.19506 61.8386 4.19506C61.4235 3.94386 61.0085 3.94386 60.5934 3.94386C60.1783 3.94386 59.7632 4.19506 59.3481 4.19506V4.44627C59.4518 4.44627 59.4518 4.44627 59.4518 4.69747C59.3481 4.69747 59.3481 4.69747 59.2443 4.94868C59.1405 4.94868 59.1405 4.94868 59.0367 4.94868L59.1405 4.69747C59.1405 4.69747 59.1405 4.44627 59.1405 4.19506C57.7914 4.44627 56.4424 4.44627 54.9895 4.44627C53.7442 4.44627 52.3952 4.69747 51.1499 4.94868C49.3857 4.94868 47.414 4.94868 45.5461 5.19988C43.5743 5.45109 41.8102 5.70229 40.1498 5.70229C39.0083 5.70229 37.8667 5.70229 36.6215 5.9535C35.3762 6.2047 34.2346 6.2047 32.9893 5.9535C32.5742 6.2047 32.1592 6.2047 31.7441 6.2047C31.329 6.2047 30.9139 6.2047 30.4988 5.9535C31.8478 5.9535 33.0931 5.70229 34.4422 5.45109C35.7913 5.19988 37.0365 5.19988 38.1781 5.45109C38.2818 5.19988 38.3856 5.19988 38.5932 5.19988C38.6969 5.19988 38.9045 5.19988 39.0083 4.94868C39.3196 5.19988 39.6309 5.19988 40.046 5.19988C40.3573 5.19988 40.6687 4.94868 40.98 4.94868C40.98 4.94868 41.0838 4.94868 41.0838 5.19988C41.0838 5.19988 41.0838 5.19988 41.1875 5.19988C41.6026 4.94868 42.1215 4.94868 42.5366 4.94868C42.9517 4.94868 43.3668 4.94868 43.8857 4.94868C44.8196 4.94868 45.8574 4.94868 46.8951 4.69747C47.9329 4.44627 48.9706 4.44627 50.0084 4.19506C50.3197 4.19506 50.7348 4.19506 51.0461 4.19506C51.3574 4.19506 51.6687 4.19506 52.0838 4.19506C52.2914 4.19506 52.4989 4.19506 52.6027 3.94386C52.8103 3.94386 52.914 3.94386 53.1216 3.94386C53.4329 3.94386 53.6405 3.94386 53.9518 3.94386C54.2631 3.94386 54.4707 3.94386 54.6782 3.94386C55.1971 3.94386 55.716 3.94386 56.2348 3.94386C56.7537 3.94386 57.2726 3.69265 57.999 3.69265C60.3858 3.69265 62.7726 3.44145 65.367 3.19024C67.9613 2.93904 70.4519 2.93904 72.8387 2.93904C73.4614 2.93904 74.1878 2.93904 74.8105 2.93904L76.7822 2.68783C78.7539 2.68783 80.7256 2.43663 82.8011 2.43663C84.8766 2.43663 86.9521 2.18542 88.9238 2.18542C89.0276 2.18542 89.0276 2.18542 89.0276 2.43663C89.0276 2.43663 89.1313 2.43663 89.2351 2.43663C91.3106 2.43663 93.3861 2.18542 95.3578 2.18542C97.3295 2.18542 99.405 2.18542 101.48 2.43663C103.245 2.18542 105.009 2.18542 106.981 2.43663C108.952 2.68783 110.924 2.68783 112.896 2.68783C113.622 2.93904 114.556 2.93904 115.594 2.93904C116.632 2.93904 117.566 2.93904 118.292 3.19024C120.16 3.44145 122.132 3.69265 124.103 3.94386C126.179 4.19506 128.047 4.44627 129.915 4.69747C130.745 4.94868 131.471 5.19988 132.302 5.19988C133.028 5.19988 133.754 5.45109 134.481 5.70229C133.235 5.70229 131.886 5.45109 130.537 5.19988C129.188 4.94868 127.839 4.69747 126.49 4.94868C126.594 4.94868 126.594 5.19988 126.594 5.19988C126.594 5.45109 126.594 5.45109 126.49 5.45109C126.386 5.19988 126.179 5.45109 126.075 5.45109C125.971 5.70229 125.764 5.45109 125.66 5.19988C125.66 5.70229 125.556 5.70229 125.349 5.45109C125.245 5.19988 125.037 5.19988 124.934 5.45109C124.934 5.70229 125.037 5.9535 125.141 5.9535C125.245 5.9535 125.452 6.2047 125.556 6.2047C125.66 5.9535 125.66 5.9535 125.764 5.9535H126.179C126.283 5.9535 126.283 5.70229 126.283 5.70229C126.283 5.70229 126.283 5.45109 126.386 5.45109C126.49 5.45109 126.594 5.45109 126.801 5.70229C126.801 5.70229 126.698 5.9535 126.594 5.9535C126.49 5.9535 126.386 5.9535 126.49 6.2047C126.698 6.45591 126.905 6.45591 127.113 6.2047C127.424 6.2047 127.528 6.2047 127.632 6.45591H127.217C127.113 6.45591 127.009 6.45591 127.009 6.70711C127.839 6.70711 128.669 6.70711 129.5 7.20952C130.226 7.46073 131.056 7.71193 131.886 7.71193C131.886 7.71193 131.886 7.96314 131.99 7.96314C132.094 7.96314 132.094 7.96314 132.094 7.96314C132.613 7.96314 133.235 7.71193 133.754 7.96314C134.377 7.96314 135 7.96314 135.726 7.96314C135.934 7.96314 136.245 7.96314 136.452 7.71193C136.764 7.46073 137.075 7.46073 137.283 7.46073C136.66 6.95832 136.66 6.70711 136.66 6.45591ZM123.688 4.69747C123.584 4.69747 123.584 4.94868 123.584 5.19988C123.584 5.45109 123.584 5.45109 123.377 5.45109C123.377 5.19988 123.377 4.94868 123.377 4.94868C123.273 4.94868 123.273 4.69747 123.273 4.69747C123.377 4.69747 123.584 4.69747 123.688 4.69747ZM121.509 4.94868C121.509 5.19988 121.509 5.19988 121.509 4.94868C121.405 5.19988 121.301 4.94868 121.301 4.94868H121.509ZM118.188 4.69747C118.292 4.69747 118.292 4.69747 118.292 4.69747C118.292 4.69747 118.292 4.69747 118.396 4.69747C118.396 4.94868 118.396 4.94868 118.188 4.69747C118.084 4.94868 118.084 4.94868 118.188 4.69747ZM117.773 4.69747C117.877 4.69747 117.877 4.94868 117.877 4.94868C117.773 4.94868 117.773 4.94868 117.669 4.94868C117.669 4.69747 117.669 4.44627 117.773 4.69747ZM115.801 4.44627C115.801 4.69747 115.801 4.69747 115.801 4.69747C115.801 4.69747 115.905 4.69747 115.905 4.94868C115.698 4.94868 115.49 4.69747 115.49 4.44627H115.801ZM113.83 4.19506C113.83 4.19506 113.933 4.19506 113.83 4.19506C113.933 4.44627 113.83 4.69747 113.726 4.44627L113.83 4.19506C113.83 4.19506 113.726 4.19506 113.83 4.19506ZM111.443 4.19506C111.547 4.19506 111.547 4.19506 111.547 4.44627C111.547 4.44627 111.547 4.69747 111.443 4.69747C111.443 4.44627 111.443 4.44627 111.443 4.19506C111.443 4.19506 111.339 4.19506 111.443 4.19506ZM111.235 4.19506C111.235 4.44627 111.235 4.44627 111.235 4.19506V4.19506ZM107.811 4.44627C107.811 4.44627 107.811 4.44627 107.707 4.44627H107.811ZM107.396 3.94386H107.499V4.19506H107.396V3.94386ZM107.188 4.44627H107.396V4.69747L107.188 4.44627ZM106.15 3.69265C106.254 3.69265 106.254 3.69265 106.254 3.69265C106.254 3.69265 106.254 3.69265 106.358 3.69265C106.462 3.94386 106.462 3.94386 106.15 3.69265C106.15 3.94386 106.15 3.94386 106.15 3.69265ZM105.113 3.94386H105.216V4.19506H105.113V3.94386ZM97.2257 3.94386V4.19506H97.0182V3.94386H97.2257ZM96.3956 4.19506H96.6031V4.44627L96.3956 4.19506ZM95.8767 3.69265H95.9805C95.9805 3.94386 95.9805 4.19506 95.8767 3.69265C95.7729 3.94386 95.7729 3.94386 95.6691 3.69265C95.6691 3.94386 95.7729 3.69265 95.8767 3.69265ZM93.8012 4.44627C93.905 4.44627 93.905 4.44627 93.905 4.44627C94.0087 4.44627 94.0087 4.44627 94.0087 4.69747C94.0087 4.94868 93.905 4.94868 93.8012 4.69747V4.44627ZM91.4144 3.69265C91.6219 3.69265 91.6219 3.69265 91.6219 3.69265C91.7257 3.94386 91.6219 3.94386 91.5182 3.94386C91.4144 3.94386 91.3106 3.94386 91.4144 3.69265ZM90.9993 3.94386H91.1031V4.19506H90.9993V3.94386ZM90.688 3.94386H90.7917V4.19506L90.688 3.94386ZM90.3766 3.94386C90.4804 3.94386 90.5842 4.19506 90.4804 4.19506C90.3766 4.19506 90.2729 4.19506 90.1691 3.94386C90.1691 3.94386 90.1691 3.94386 90.3766 3.94386ZM89.6502 3.94386C89.754 3.94386 89.9615 3.94386 90.0653 3.94386C90.0653 3.94386 90.0653 4.19506 89.8578 4.19506C89.6502 4.19506 89.6502 4.19506 89.6502 3.94386ZM87.3672 4.69747C87.4709 4.44627 87.5747 4.44627 87.7823 4.44627C87.7823 4.69747 87.5747 4.69747 87.3672 4.69747C87.3672 4.69747 87.2634 4.69747 87.3672 4.69747ZM87.0558 3.94386H86.9521V3.69265H87.0558C87.1596 3.69265 87.1596 3.69265 87.0558 3.94386ZM85.2917 3.94386C85.3955 3.94386 85.3955 4.19506 85.4992 4.19506C85.2917 4.19506 85.2917 3.94386 85.2917 3.94386ZM84.9804 3.94386C85.0841 3.94386 85.0841 3.94386 85.0841 3.94386H85.1879C85.1879 3.94386 85.1879 3.94386 85.1879 4.19506C85.0841 4.19506 84.9804 3.94386 84.9804 3.94386C84.8766 3.94386 84.8766 3.94386 84.9804 3.94386ZM84.4615 3.94386C84.5653 3.94386 84.669 3.94386 84.5653 4.19506L84.4615 4.44627C84.3577 4.44627 84.3577 4.44627 84.3577 4.19506C84.4615 3.94386 84.4615 3.94386 84.4615 3.94386ZM83.8388 4.19506C83.7351 4.19506 83.6313 3.94386 83.5275 3.69265C83.7351 3.94386 83.8388 3.94386 83.8388 4.19506ZM82.2822 3.94386C82.4898 3.94386 82.4898 4.19506 82.386 4.19506H82.2822V3.94386ZM81.5558 3.94386C81.6596 3.94386 81.7633 4.19506 81.6596 4.19506H81.5558H81.452C81.452 4.19506 81.452 3.94386 81.5558 3.94386C81.5558 3.94386 81.452 3.94386 81.5558 3.94386ZM80.9332 4.69747C81.0369 4.69747 81.1407 4.69747 81.2445 4.69747C81.3482 4.69747 81.452 4.44627 81.5558 4.44627C81.6596 4.19506 81.8671 4.19506 81.9709 4.44627C81.9709 4.69747 82.0747 4.69747 82.1784 4.69747C82.0747 4.94868 81.8671 4.94868 81.7633 4.94868C81.6596 4.94868 81.452 4.94868 81.2445 4.69747C81.1407 4.94868 80.9332 4.94868 80.8294 4.94868C80.6218 4.94868 80.5181 4.69747 80.5181 4.44627C80.6218 4.69747 80.8294 4.69747 80.9332 4.69747ZM80.3105 3.44145H80.7256C80.7256 3.44145 80.6218 3.69265 80.5181 3.69265C80.4143 3.69265 80.2067 3.44145 80.3105 3.44145ZM79.7916 3.44145C79.8954 3.44145 79.9992 3.44145 80.2067 3.44145C80.2067 3.69265 80.103 3.69265 79.8954 3.69265C79.7916 3.69265 79.6879 3.69265 79.5841 3.69265C79.5841 3.44145 79.6879 3.19024 79.7916 3.44145ZM79.5841 4.19506C79.5841 3.94386 79.5841 3.94386 79.6879 3.94386C79.7916 3.94386 79.7916 4.19506 79.7916 4.19506C79.6879 4.44627 79.6879 4.44627 79.5841 4.19506ZM79.0652 4.44627C78.9614 4.44627 78.9614 4.44627 78.8577 4.19506C78.7539 4.19506 78.6501 4.19506 78.5463 4.19506C78.5463 3.94386 78.6501 3.94386 78.8577 3.94386C79.0652 3.94386 79.0652 4.19506 79.0652 4.44627ZM78.235 4.19506H78.4426V4.44627L78.235 4.19506ZM73.2538 4.69747C73.2538 4.69747 73.3576 4.69747 73.2538 4.69747C73.3576 4.69747 73.3576 4.69747 73.2538 4.69747ZM74.084 4.69747C73.9803 4.69747 74.084 4.44627 74.084 4.69747C74.1878 4.69747 74.1878 4.69747 74.084 4.69747ZM74.6029 4.19506C74.8105 4.19506 74.9142 4.19506 74.8105 4.44627C74.8105 4.44627 74.7067 4.44627 74.6029 4.19506C74.6029 4.19506 74.6029 4.44627 74.6029 4.19506ZM75.5369 4.44627H75.3293V4.19506C75.4331 4.19506 75.4331 4.19506 75.5369 4.44627ZM75.8482 4.69747C75.952 4.69747 75.952 4.44627 75.8482 4.69747C75.952 4.44627 75.952 4.69747 75.952 4.94868L75.8482 4.69747C75.7444 4.69747 75.7444 4.69747 75.8482 4.69747ZM76.0557 5.19988C75.952 5.19988 75.8482 5.19988 75.8482 5.19988C75.952 4.94868 76.0558 4.94868 76.1595 5.19988C76.1595 5.19988 76.1595 5.19988 76.0557 5.19988ZM76.2633 4.94868C76.3671 4.69747 76.3671 4.69747 76.4708 4.44627C76.5746 4.19506 76.6784 4.19506 76.7822 4.44627C76.7822 4.94868 76.6784 5.19988 76.2633 4.94868ZM76.3671 3.44145C76.5746 3.44145 76.7822 3.44145 76.9897 3.19024H77.0935C77.0935 3.19024 77.0935 3.19024 77.1973 3.19024V3.44145C76.9897 3.44145 76.8859 3.44145 76.7822 3.69265C76.4708 3.94386 76.3671 3.69265 76.3671 3.44145ZM76.2633 4.19506C76.3671 4.44627 76.3671 4.44627 76.2633 4.19506C76.1595 4.19506 76.1595 4.44627 76.1595 4.44627C76.0558 4.44627 76.0557 4.44627 76.0557 4.19506C76.1595 4.19506 76.2633 4.19506 76.2633 4.19506ZM73.6689 3.94386C73.8765 3.69265 74.084 3.69265 74.3954 3.69265C74.6029 3.94386 74.9142 3.69265 75.1218 3.44145C75.2256 3.69265 75.3293 3.69265 75.6407 3.69265C75.8482 3.44145 76.0558 3.69265 76.2633 3.94386C75.8482 3.94386 75.4331 3.94386 75.018 3.94386C74.4991 3.94386 74.084 3.94386 73.6689 3.94386ZM73.2538 3.69265H73.4614C73.5652 3.69265 73.5652 3.94386 73.4614 3.94386L73.2538 3.69265ZM73.2538 4.69747C73.2538 4.69747 73.2538 4.69747 73.0463 4.69747C73.0463 4.94868 73.1501 4.69747 73.2538 4.69747ZM72.3199 3.69265H72.5274V3.94386L72.3199 3.69265ZM71.801 3.94386C71.801 3.69265 71.9048 3.44145 72.0086 3.69265C72.1123 3.94386 72.0085 4.19506 71.801 3.94386ZM71.4897 3.69265H71.5935V3.94386L71.4897 3.69265ZM71.4897 4.94868L71.3859 5.19988C71.3859 5.19988 71.2821 5.45109 71.1784 5.45109C71.1784 5.19988 71.1784 5.19988 71.2821 5.19988C71.3859 5.19988 71.3859 5.19988 71.2821 4.94868C71.3859 4.69747 71.3859 4.69747 71.4897 4.94868ZM71.2821 4.69747C71.1784 4.69747 71.1784 4.69747 71.2821 4.69747C71.1784 4.69747 71.1784 4.69747 71.0746 4.69747C71.0746 4.69747 71.0746 4.69747 71.2821 4.69747C71.2821 4.44627 71.2821 4.44627 71.2821 4.69747ZM70.867 3.69265C70.867 3.44145 70.9708 3.44145 71.0746 3.69265C71.1784 3.94386 71.1784 3.94386 71.0746 3.94386H70.867C70.9708 3.94386 70.9708 3.69265 70.867 3.69265ZM67.9613 4.69747C67.8576 4.69747 67.8576 4.69747 67.7538 4.69747C67.7538 4.69747 67.7538 4.69747 67.7538 4.44627L67.9613 4.69747C68.0651 4.69747 68.0651 4.44627 67.9613 4.69747ZM68.6878 4.69747C68.7915 4.69747 68.8953 4.69747 68.8953 4.94868C68.6878 5.19988 68.584 4.94868 68.6878 4.69747ZM69.2066 3.94386C69.2066 3.94386 69.2066 4.19506 69.2066 3.94386C69.1029 4.19506 69.1029 4.19506 68.9991 4.19506C68.9991 4.19506 68.8953 4.19506 68.8953 3.94386H69.2066ZM68.2727 4.69747C68.2727 4.44627 68.3764 4.44627 68.4802 4.44627C68.584 4.44627 68.6878 4.44627 68.7915 4.69747C68.7915 4.69747 68.6878 4.94868 68.584 4.94868C68.4802 4.69747 68.3764 4.69747 68.2727 4.69747ZM67.8576 3.94386C67.9613 3.94386 67.9613 3.94386 67.9613 3.94386C67.9613 3.94386 67.9613 3.94386 68.0651 3.94386C68.1689 4.19506 68.0651 4.19506 67.8576 3.94386C67.7538 3.94386 67.7538 4.19506 67.8576 3.94386ZM66.8198 4.19506C66.9236 4.19506 66.9236 4.19506 66.9236 3.94386C67.0274 3.94386 67.0274 4.19506 67.0274 4.19506H66.8198ZM66.4047 3.94386H66.6123V4.19506H66.4047V3.94386ZM65.9896 3.94386C66.0934 3.94386 66.1972 3.94386 66.1972 3.94386C66.4047 3.94386 66.4047 4.19506 66.3009 4.19506C66.1972 4.19506 66.0934 4.19506 65.8859 4.19506C65.7821 3.94386 65.8859 3.94386 65.9896 3.94386ZM65.7821 4.44627C65.9896 4.44627 66.0934 4.69747 66.0934 4.69747H65.5745C65.4708 4.44627 65.5745 4.44627 65.7821 4.44627ZM65.2632 4.69747C65.1594 4.94868 64.9519 4.94868 64.8481 4.94868C64.8481 4.69747 64.8481 4.69747 64.9519 4.69747C65.0557 4.69747 65.1594 4.69747 65.2632 4.69747ZM64.7443 4.19506H64.9519V4.44627H64.8481H64.7443V4.19506ZM64.433 4.69747C64.6406 4.69747 64.6406 4.69747 64.6406 4.94868L64.433 4.69747ZM64.0179 5.9535H63.8104V5.70229H64.0179V5.9535ZM63.3953 4.69747C63.499 4.44627 63.6028 4.19506 63.9141 4.44627C64.1217 4.44627 64.2255 4.69747 64.2255 4.94868C64.1217 4.94868 64.0179 4.94868 64.0179 4.69747C64.0179 4.44627 63.8104 4.44627 63.8104 4.44627C63.7066 4.44627 63.7066 4.44627 63.8104 4.69747C63.9141 4.69747 63.9141 4.69747 63.8104 4.94868C63.6028 4.69747 63.499 4.69747 63.3953 4.69747ZM62.9802 4.19506C63.0839 4.19506 63.1877 4.19506 63.0839 4.19506C63.0839 4.44627 63.0839 4.44627 63.0839 4.69747C62.9802 4.69747 62.8764 4.69747 62.8764 4.44627C62.8764 4.44627 62.8764 4.19506 62.9802 4.19506ZM62.6688 4.44627C62.6688 4.19506 62.6688 4.19506 62.6688 4.44627C62.6688 4.19506 62.6688 4.19506 62.6688 4.44627C62.8764 4.19506 62.8764 4.44627 62.8764 4.44627C62.7726 4.44627 62.7726 4.44627 62.7726 4.44627H62.6688ZM62.5651 4.69747C62.6688 4.69747 62.6688 4.69747 62.6688 4.69747C62.6688 4.69747 62.6688 4.69747 62.7726 4.69747C62.7726 4.94868 62.7726 4.94868 62.5651 4.69747C62.4613 4.94868 62.4613 4.94868 62.5651 4.69747ZM61.9424 4.94868V4.69747V4.44627C62.15 4.44627 62.15 4.44627 62.15 4.69747C62.15 4.69747 62.15 4.69747 62.15 4.94868C62.15 5.19988 62.0462 5.19988 61.9424 4.94868ZM61.216 5.45109C61.216 5.45109 61.3198 5.45109 61.4235 5.45109C61.4235 5.45109 61.3198 5.45109 61.216 5.45109ZM61.5273 4.94868C61.5273 4.94868 61.6311 4.69747 61.7349 4.69747C61.7349 4.94868 61.6311 4.94868 61.5273 4.94868ZM60.3858 4.69747C60.5934 4.44627 60.8009 4.44627 61.0085 4.44627C61.216 4.44627 61.5273 4.44627 61.7349 4.44627C61.5273 4.69747 61.3198 4.94868 61.1122 4.69747C61.0085 4.69747 60.6971 4.69747 60.3858 4.69747ZM59.8669 4.94868C59.9707 4.94868 59.9707 4.94868 59.9707 4.69747C59.9707 4.69747 59.9707 4.44627 59.8669 4.44627C59.9707 4.44627 60.0745 4.44627 60.0745 4.44627C60.282 4.44627 60.282 4.44627 60.1783 4.44627C60.0745 4.44627 60.0745 4.69747 60.0745 4.69747C60.1783 4.94868 60.1783 4.94868 60.282 4.94868H60.5934C60.6971 4.94868 60.8009 4.94868 60.9047 4.94868C61.0084 4.94868 61.0085 5.19988 61.1122 5.19988C60.8009 5.19988 60.5934 5.19988 60.3858 4.94868C60.1783 4.94868 59.9707 4.94868 59.7632 5.19988C59.6594 5.19988 59.6594 4.94868 59.7632 4.94868C59.7632 5.19988 59.8669 4.94868 59.8669 4.94868ZM58.8292 4.44627C58.933 4.44627 59.0367 4.44627 59.1405 4.44627C59.2443 4.69747 59.2443 4.69747 59.1405 4.94868C59.3481 4.94868 59.3481 4.94868 59.2443 4.69747H59.6594L59.5556 4.94868C59.4518 4.94868 59.4518 5.19988 59.4518 5.19988C59.2443 5.19988 59.0367 5.19988 58.8292 5.19988L59.0367 4.94868C59.0367 4.94868 58.933 4.69747 58.8292 4.44627ZM57.7914 5.19988C57.8952 5.19988 57.8952 5.19988 57.8952 5.19988C57.8952 5.19988 57.8952 5.19988 57.999 5.19988C57.8952 5.19988 57.7914 5.45109 57.7914 5.45109V5.19988ZM57.4801 5.19988C57.6877 5.19988 57.6877 5.19988 57.5839 5.45109C57.4801 5.45109 57.3763 5.45109 57.1688 5.45109C57.2726 5.19988 57.3763 5.19988 57.4801 5.19988ZM56.5462 4.94868C56.6499 4.94868 56.6499 4.94868 56.5462 4.94868C56.4424 5.19988 56.4424 5.19988 56.3386 5.19988C56.4424 4.94868 56.5462 4.69747 56.5462 4.94868ZM56.0273 4.94868C56.0273 4.94868 56.0273 4.94868 55.9235 4.94868C55.9235 4.94868 55.9235 4.94868 56.0273 4.94868ZM55.6122 5.45109H55.8197C55.9235 5.45109 55.8197 5.45109 55.6122 5.45109C55.6122 5.45109 55.5084 5.45109 55.6122 5.45109ZM55.1971 4.94868C55.3009 4.94868 55.4046 5.19988 55.3009 5.45109C55.1971 5.45109 55.1971 5.45109 55.1971 5.19988V4.94868ZM54.8858 4.94868H54.9895V5.19988H54.8858V4.94868ZM54.782 4.94868C54.6782 5.19988 54.6782 5.19988 54.5744 5.19988C54.5744 4.94868 54.5744 4.94868 54.782 4.94868ZM53.3291 5.19988C53.4329 5.19988 53.5367 5.19988 53.5367 4.94868C53.6405 4.94868 53.6405 5.19988 53.5367 5.45109C53.4329 5.45109 53.3291 5.45109 53.3291 5.19988ZM51.8763 5.9535C51.9801 5.9535 51.9801 5.70229 51.8763 5.45109C52.0839 5.45109 52.0838 5.70229 52.0838 5.9535C52.0838 6.2047 52.1876 6.2047 52.3952 6.2047C52.2914 6.45591 52.1876 6.45591 52.0838 6.45591C51.9801 6.45591 51.7725 6.45591 51.6688 6.45591C51.6688 6.2047 51.7725 5.9535 51.8763 5.9535ZM51.3574 6.2047H51.4612V6.45591H51.3574V6.2047ZM50.7348 5.19988C50.7348 4.94868 50.8386 4.94868 50.9423 4.94868C51.0461 4.94868 51.0461 4.94868 51.0461 4.94868C51.1499 4.94868 51.1499 5.19988 51.0461 5.19988C50.9423 5.45109 50.8386 5.45109 50.7348 5.19988ZM50.5272 6.45591C50.631 6.2047 50.7348 6.2047 50.9423 6.2047C51.1499 6.2047 51.2537 6.2047 51.1499 6.45591C51.0461 6.45591 50.9423 6.45591 50.8386 6.45591C50.7348 6.45591 50.631 6.45591 50.5272 6.45591ZM50.3197 6.95832C50.1121 6.95832 50.0084 6.70711 49.9046 6.45591C50.0084 6.45591 50.0084 6.70711 50.1121 6.70711C50.2159 6.70711 50.2159 6.70711 50.3197 6.95832ZM50.3197 5.19988C50.3197 5.19988 50.2159 5.45109 50.1121 5.45109C50.0084 5.45109 49.9046 5.45109 49.9046 5.45109C49.9046 5.19988 50.0084 5.19988 50.3197 5.19988ZM49.2819 5.70229H49.3857V5.9535H49.2819V5.70229ZM47.8291 5.9535C47.8291 5.9535 47.8291 5.9535 47.7253 5.9535H47.8291ZM47.3102 5.70229C47.414 5.70229 47.414 5.70229 47.3102 5.70229C47.6215 5.45109 47.7253 5.70229 47.7253 5.9535C47.5178 5.9535 47.414 5.9535 47.414 5.9535C47.3102 5.9535 47.3102 6.2047 47.3102 5.70229C47.2064 5.70229 47.2064 5.70229 47.3102 5.70229ZM46.7913 5.70229H46.9989V5.9535H46.7913V5.70229ZM46.7913 6.45591C46.7913 6.70711 46.6876 6.95832 46.48 6.45591C46.5838 6.70711 46.6876 6.45591 46.7913 6.45591ZM45.8574 5.45109L45.9612 5.70229C45.8574 5.70229 45.8574 5.9535 45.7536 5.9535C45.6498 5.9535 45.6498 5.9535 45.5461 5.9535L45.6498 5.70229C45.7536 5.45109 45.7536 5.45109 45.8574 5.45109ZM45.3385 6.45591H45.5461V6.70711L45.3385 6.45591ZM45.0272 6.95832C45.131 6.70711 45.131 6.70711 45.2347 6.70711C45.2347 6.95832 45.131 6.95832 45.0272 6.95832ZM45.131 6.2047C45.131 6.2047 45.131 6.45591 45.131 6.2047C45.131 6.45591 45.131 6.45591 45.131 6.2047C45.131 6.45591 45.131 6.45591 45.0272 6.45591C45.0272 6.2047 45.0272 6.2047 45.131 6.2047ZM43.4706 6.2047H43.7819C43.7819 6.45591 43.6781 6.45591 43.4706 6.2047C43.4706 6.2047 43.3668 6.2047 43.263 6.45591C43.3668 6.45591 43.3668 6.2047 43.4706 6.2047ZM40.7724 7.46073H40.5649V7.20952H40.7724V7.46073ZM40.5649 6.2047C40.5649 6.45591 40.5649 6.45591 40.5649 6.45591C40.4611 6.45591 40.4611 6.70711 40.5649 6.70711C40.4611 6.70711 40.3573 6.45591 40.3573 6.2047C40.2536 6.2047 40.5649 6.2047 40.5649 6.2047ZM37.0365 6.45591C37.1403 6.45591 37.1403 6.45591 37.1403 6.45591C37.1403 6.45591 37.1403 6.45591 37.2441 6.45591C37.2441 6.70711 37.2441 6.70711 37.0365 6.45591C36.9328 6.70711 36.9328 6.70711 37.0365 6.45591ZM34.9611 6.45591H35.1686V6.70711H34.9611V6.45591ZM34.9611 7.46073C35.0648 7.46073 35.1686 7.46073 35.2724 7.46073C35.2724 7.71194 35.2724 7.71193 35.1686 7.71193C34.9611 7.71193 34.8573 7.71194 34.9611 7.46073C34.7535 7.46073 34.7535 7.71194 34.9611 7.46073ZM28.0082 6.2047C27.9044 6.2047 27.8006 6.2047 27.8006 6.45591C27.8006 6.2047 27.8006 6.2047 27.9044 5.9535C28.0082 5.9535 28.1119 5.9535 28.2157 6.2047C28.1119 6.2047 28.1119 6.2047 28.0082 6.2047ZM28.3195 5.9535C28.3195 5.9535 28.4233 5.9535 28.527 5.9535C28.527 5.9535 28.4233 5.9535 28.3195 5.9535ZM28.6308 6.2047C28.8384 5.9535 28.8384 6.2047 28.8384 6.2047H28.6308ZM29.3572 6.2047C29.2535 6.2047 29.0459 6.2047 28.9421 6.2047C29.0459 5.9535 29.1497 5.9535 29.3572 6.2047C29.461 5.9535 29.5648 5.9535 29.6686 5.9535C29.6686 5.9535 29.5648 6.2047 29.3572 6.2047ZM50.8386 3.94386C50.8386 3.94386 50.8386 3.69265 50.8386 3.94386C50.7348 3.69265 50.8386 3.69265 50.8386 3.94386C50.9423 3.69265 50.8386 3.69265 50.8386 3.94386C50.9423 3.94386 50.9423 3.94386 50.8386 3.94386ZM52.1876 3.69265C52.1876 3.44145 52.1876 3.44145 52.1876 3.69265C52.1876 3.44145 52.1876 3.44145 52.1876 3.69265C52.2914 3.69265 52.2914 3.69265 52.1876 3.69265ZM53.848 3.69265C53.7442 3.69265 53.5367 3.69265 53.4329 3.69265C53.5367 3.44145 53.6405 3.44145 53.7442 3.44145C53.848 3.69265 53.9518 3.69265 54.1593 3.44145C54.1593 3.69265 54.0556 3.69265 53.848 3.69265ZM55.1971 3.69265C54.9895 3.69265 54.6782 3.69265 54.4707 3.69265C54.4707 3.69265 54.4707 3.44145 54.3669 3.44145C54.3669 3.44145 54.3669 3.44145 54.3669 3.19024C54.4707 3.19024 54.5744 2.93904 54.6782 3.19024C54.782 3.19024 54.8858 3.44145 54.8858 3.44145C54.9895 3.44145 54.9895 3.44145 54.9895 3.19024C54.9895 3.19024 55.0933 2.93904 55.1971 3.19024C55.1971 3.19024 55.1971 3.44145 55.3009 3.44145C55.4046 3.44145 55.4046 3.44145 55.5084 3.44145C55.5084 3.69265 55.3009 3.69265 55.1971 3.69265ZM126.594 5.45109H126.386V5.19988L126.594 5.45109ZM126.801 6.2047C126.698 6.2047 126.594 5.9535 126.698 5.9535C126.801 5.9535 126.801 5.9535 126.801 5.70229C126.905 5.70229 126.905 5.70229 126.905 5.9535C126.905 6.2047 127.009 6.2047 127.009 6.2047C127.009 6.2047 126.905 6.2047 126.801 6.2047ZM127.217 5.9535C127.217 5.9535 127.32 5.9535 127.424 5.9535C127.32 5.9535 127.32 5.9535 127.217 5.9535ZM127.839 6.45591C127.735 6.45591 127.735 6.45591 127.632 6.45591C127.528 6.45591 127.528 6.45591 127.528 6.2047C127.735 6.2047 127.735 6.2047 127.735 6.2047C127.839 6.2047 127.839 6.2047 127.839 6.45591C127.839 6.45591 127.839 6.2047 127.839 6.45591ZM127.943 5.70229C127.735 5.70229 127.735 5.70229 127.839 5.9535C127.735 5.70229 127.528 5.45109 127.32 5.70229C127.113 5.70229 126.905 5.70229 126.801 5.45109C127.009 5.45109 127.32 5.45109 127.528 5.45109C127.735 5.45109 128.047 5.45109 128.254 5.70229C128.151 5.70229 128.151 5.9535 127.943 5.70229ZM128.254 6.2047H128.151C128.151 6.2047 128.151 6.2047 128.254 6.2047C128.254 6.2047 128.151 6.2047 128.254 6.2047ZM128.462 6.45591C128.358 6.45591 128.358 6.45591 128.358 6.2047C128.462 6.2047 128.566 6.2047 128.566 6.2047C128.669 6.2047 128.773 6.45591 128.773 6.45591C128.773 6.2047 128.566 6.2047 128.462 6.45591ZM128.566 5.70229C128.462 5.70229 128.254 5.70229 128.151 5.45109C128.254 5.45109 128.462 5.45109 128.669 5.45109C128.981 5.45109 129.085 5.70229 129.188 5.9535C128.981 5.9535 128.773 5.70229 128.566 5.70229ZM130.226 5.9535C129.915 5.70229 129.707 5.70229 129.396 5.9535V5.45109C129.707 5.45109 130.018 5.45109 130.33 5.45109C130.641 5.45109 130.952 5.45109 131.264 5.70229C130.952 6.2047 130.537 6.2047 130.226 5.9535ZM131.783 5.9535C131.679 5.9535 131.575 5.9535 131.368 5.9535C131.368 5.9535 131.368 5.70229 131.575 5.70229C131.783 5.9535 131.783 5.9535 131.783 5.9535ZM132.198 5.9535H132.094V5.70229L132.198 5.9535ZM134.377 5.45109C134.066 5.45109 133.858 5.19988 133.547 4.94868C133.858 4.94868 134.169 4.94868 134.481 4.94868C134.792 4.94868 135.103 5.19988 135.415 5.19988C135.103 5.70229 134.792 5.70229 134.377 5.45109Z" fill="#F6CD45"/>
<path d="M112.276 3.44141C112.484 3.69261 112.588 3.69261 112.588 3.44141C112.484 3.44141 112.38 3.44141 112.276 3.44141Z" fill="black"/>
<path d="M110.408 3.19043C110.2 3.19043 110.097 3.19043 109.993 3.44163C110.304 3.44163 110.615 3.44163 110.823 3.44163C110.823 3.19043 110.615 3.19043 110.408 3.19043Z" fill="black"/>
<path d="M110.927 3.19043C111.031 3.44163 111.134 3.69284 111.342 3.44163C111.549 3.44163 111.757 3.44163 111.965 3.69284V3.44163C111.965 3.44163 111.965 3.44163 111.965 3.19043C111.757 3.19043 111.653 3.44163 111.446 3.19043C111.238 3.19043 111.031 3.19043 110.927 3.19043Z" fill="black"/>
<path d="M109.682 3.44133H109.786C109.89 3.44133 109.786 3.19013 109.682 3.44133C109.578 3.19013 109.578 3.19013 109.682 3.44133C109.682 3.44133 109.578 3.44133 109.682 3.44133Z" fill="black"/>
<path d="M115.597 5.70238C115.701 5.70238 115.805 5.70238 115.805 5.45117C115.701 5.45117 115.597 5.70238 115.597 5.70238Z" fill="black"/>
<path d="M85.3983 2.93871C85.087 2.6875 84.6719 2.93871 84.3605 3.18991C84.5681 3.18991 84.7756 3.18991 84.9832 3.18991C85.2945 3.18991 85.5021 3.18991 85.7096 3.18991C85.9172 3.18991 86.1247 3.18991 86.3323 3.18991C86.5398 3.18991 86.6436 2.93871 86.6436 2.6875C86.3323 2.93871 85.9172 2.93871 85.3983 2.93871Z" fill="black"/>
<path d="M124.002 5.95305C124.107 5.95305 124.211 5.95305 124.211 5.95305C124.107 5.70185 124.002 5.70185 124.002 5.95305Z" fill="black"/>
<path d="M108.23 4.94824C108.125 4.94824 108.021 4.94824 108.021 4.94824C107.917 5.19945 107.917 5.19945 108.125 5.19945C108.021 5.19945 108.125 5.19945 108.23 4.94824C108.23 5.19945 108.23 5.19945 108.23 4.94824Z" fill="black"/>
<path d="M99.304 5.4511H99.4081H99.5122C99.4081 5.19989 99.304 5.19989 99.304 5.4511Z" fill="black"/>
<path d="M115.182 5.45117V5.70238H115.286C115.286 5.70238 115.286 5.45117 115.39 5.45117C115.286 5.45117 115.286 5.45117 115.286 5.45117C115.286 5.45117 115.286 5.45117 115.182 5.45117Z" fill="black"/>
<path d="M91.8322 3.18991C91.9363 3.18991 92.0404 3.18991 92.1445 2.6875C91.9363 2.6875 91.8322 2.93871 91.8322 3.18991Z" fill="black"/>
<path d="M94.1153 2.93945C94.4266 3.19066 94.7379 3.44186 95.153 3.44186C95.5681 3.44186 95.9832 3.44186 96.3983 3.19066C96.087 2.93945 95.6719 2.93945 95.3606 2.93945C95.153 2.93945 94.7379 2.93945 94.1153 2.93945Z" fill="black"/>
<path d="M96.9172 2.6875C96.7096 2.6875 96.6059 2.6875 96.3983 2.93871C96.7096 2.93871 97.021 2.93871 97.3323 2.93871C97.2285 2.93871 97.1247 2.6875 96.9172 2.6875Z" fill="black"/>
<path d="M92.9738 2.93901C92.5587 2.68781 92.2474 2.93901 92.1436 3.19022C92.4549 3.19022 92.87 2.93901 93.1814 3.19022C93.4927 3.19022 93.7002 3.19022 94.0116 2.93901C93.7002 2.93901 93.3889 2.93901 92.9738 2.93901Z" fill="black"/>
<path d="M89.2379 2.93945C88.9266 2.93945 88.5115 2.93945 88.2001 3.19066C88.5115 3.19066 88.9266 2.93945 89.2379 3.19066C89.5492 3.19066 89.8605 3.19066 90.1718 2.93945C89.9643 2.93945 89.653 2.93945 89.2379 2.93945Z" fill="black"/>
<path d="M91.1059 2.93938C90.8983 2.93938 90.6908 2.93938 90.3795 2.93938C90.587 3.19059 90.7946 3.19059 91.0021 3.19059C91.2096 3.19059 91.4172 3.19059 91.521 2.93938C91.4172 2.68818 91.3134 2.68818 91.1059 2.93938Z" fill="black"/>
</g>
<defs>
<clipPath id="clip0_2815_127578">
<rect width="137.075" height="10" fill="white" transform="translate(0.5 0.0361328)"/>
</clipPath>
</defs>
</svg>
